G04*
G04 #@! TF.GenerationSoftware,Altium Limited,Altium Designer,20.1.12 (249)*
G04*
G04 Layer_Color=8388736*
%FSLAX44Y44*%
%MOMM*%
G71*
G04*
G04 #@! TF.SameCoordinates,E03EE8C2-713A-4ADB-83DA-CE9B457F0B9A*
G04*
G04*
G04 #@! TF.FilePolarity,Negative*
G04*
G01*
G75*
%ADD110C,0.2500*%
%ADD111C,0.4500*%
%ADD112R,8.2000X3.6000*%
%ADD113R,34.5000X5.8000*%
G04:AMPARAMS|DCode=114|XSize=0.65mm|YSize=0.6mm|CornerRadius=0.175mm|HoleSize=0mm|Usage=FLASHONLY|Rotation=90.000|XOffset=0mm|YOffset=0mm|HoleType=Round|Shape=RoundedRectangle|*
%AMROUNDEDRECTD114*
21,1,0.6500,0.2500,0,0,90.0*
21,1,0.3000,0.6000,0,0,90.0*
1,1,0.3500,0.1250,0.1500*
1,1,0.3500,0.1250,-0.1500*
1,1,0.3500,-0.1250,-0.1500*
1,1,0.3500,-0.1250,0.1500*
%
%ADD114ROUNDEDRECTD114*%
G04:AMPARAMS|DCode=115|XSize=1.6mm|YSize=0.7mm|CornerRadius=0.2mm|HoleSize=0mm|Usage=FLASHONLY|Rotation=270.000|XOffset=0mm|YOffset=0mm|HoleType=Round|Shape=RoundedRectangle|*
%AMROUNDEDRECTD115*
21,1,1.6000,0.3000,0,0,270.0*
21,1,1.2000,0.7000,0,0,270.0*
1,1,0.4000,-0.1500,-0.6000*
1,1,0.4000,-0.1500,0.6000*
1,1,0.4000,0.1500,0.6000*
1,1,0.4000,0.1500,-0.6000*
%
%ADD115ROUNDEDRECTD115*%
G04:AMPARAMS|DCode=116|XSize=0.75mm|YSize=0.6mm|CornerRadius=0.175mm|HoleSize=0mm|Usage=FLASHONLY|Rotation=90.000|XOffset=0mm|YOffset=0mm|HoleType=Round|Shape=RoundedRectangle|*
%AMROUNDEDRECTD116*
21,1,0.7500,0.2500,0,0,90.0*
21,1,0.4000,0.6000,0,0,90.0*
1,1,0.3500,0.1250,0.2000*
1,1,0.3500,0.1250,-0.2000*
1,1,0.3500,-0.1250,-0.2000*
1,1,0.3500,-0.1250,0.2000*
%
%ADD116ROUNDEDRECTD116*%
G04:AMPARAMS|DCode=117|XSize=0.65mm|YSize=0.6mm|CornerRadius=0.175mm|HoleSize=0mm|Usage=FLASHONLY|Rotation=180.000|XOffset=0mm|YOffset=0mm|HoleType=Round|Shape=RoundedRectangle|*
%AMROUNDEDRECTD117*
21,1,0.6500,0.2500,0,0,180.0*
21,1,0.3000,0.6000,0,0,180.0*
1,1,0.3500,-0.1500,0.1250*
1,1,0.3500,0.1500,0.1250*
1,1,0.3500,0.1500,-0.1250*
1,1,0.3500,-0.1500,-0.1250*
%
%ADD117ROUNDEDRECTD117*%
G04:AMPARAMS|DCode=118|XSize=1.6mm|YSize=0.7mm|CornerRadius=0.2mm|HoleSize=0mm|Usage=FLASHONLY|Rotation=0.000|XOffset=0mm|YOffset=0mm|HoleType=Round|Shape=RoundedRectangle|*
%AMROUNDEDRECTD118*
21,1,1.6000,0.3000,0,0,0.0*
21,1,1.2000,0.7000,0,0,0.0*
1,1,0.4000,0.6000,-0.1500*
1,1,0.4000,-0.6000,-0.1500*
1,1,0.4000,-0.6000,0.1500*
1,1,0.4000,0.6000,0.1500*
%
%ADD118ROUNDEDRECTD118*%
G04:AMPARAMS|DCode=119|XSize=0.75mm|YSize=0.6mm|CornerRadius=0.175mm|HoleSize=0mm|Usage=FLASHONLY|Rotation=180.000|XOffset=0mm|YOffset=0mm|HoleType=Round|Shape=RoundedRectangle|*
%AMROUNDEDRECTD119*
21,1,0.7500,0.2500,0,0,180.0*
21,1,0.4000,0.6000,0,0,180.0*
1,1,0.3500,-0.2000,0.1250*
1,1,0.3500,0.2000,0.1250*
1,1,0.3500,0.2000,-0.1250*
1,1,0.3500,-0.2000,-0.1250*
%
%ADD119ROUNDEDRECTD119*%
%ADD120R,0.7500X1.0000*%
%ADD121R,1.0000X0.7500*%
G04:AMPARAMS|DCode=122|XSize=1.1mm|YSize=1.1mm|CornerRadius=0.125mm|HoleSize=0mm|Usage=FLASHONLY|Rotation=0.000|XOffset=0mm|YOffset=0mm|HoleType=Round|Shape=RoundedRectangle|*
%AMROUNDEDRECTD122*
21,1,1.1000,0.8500,0,0,0.0*
21,1,0.8500,1.1000,0,0,0.0*
1,1,0.2500,0.4250,-0.4250*
1,1,0.2500,-0.4250,-0.4250*
1,1,0.2500,-0.4250,0.4250*
1,1,0.2500,0.4250,0.4250*
%
%ADD122ROUNDEDRECTD122*%
G04:AMPARAMS|DCode=123|XSize=0.6mm|YSize=0.3mm|CornerRadius=0.105mm|HoleSize=0mm|Usage=FLASHONLY|Rotation=90.000|XOffset=0mm|YOffset=0mm|HoleType=Round|Shape=RoundedRectangle|*
%AMROUNDEDRECTD123*
21,1,0.6000,0.0900,0,0,90.0*
21,1,0.3900,0.3000,0,0,90.0*
1,1,0.2100,0.0450,0.1950*
1,1,0.2100,0.0450,-0.1950*
1,1,0.2100,-0.0450,-0.1950*
1,1,0.2100,-0.0450,0.1950*
%
%ADD123ROUNDEDRECTD123*%
G04:AMPARAMS|DCode=124|XSize=0.6mm|YSize=0.3mm|CornerRadius=0.105mm|HoleSize=0mm|Usage=FLASHONLY|Rotation=0.000|XOffset=0mm|YOffset=0mm|HoleType=Round|Shape=RoundedRectangle|*
%AMROUNDEDRECTD124*
21,1,0.6000,0.0900,0,0,0.0*
21,1,0.3900,0.3000,0,0,0.0*
1,1,0.2100,0.1950,-0.0450*
1,1,0.2100,-0.1950,-0.0450*
1,1,0.2100,-0.1950,0.0450*
1,1,0.2100,0.1950,0.0450*
%
%ADD124ROUNDEDRECTD124*%
%ADD125C,0.1254*%
G04:AMPARAMS|DCode=126|XSize=0.65mm|YSize=0.65mm|CornerRadius=0.1875mm|HoleSize=0mm|Usage=FLASHONLY|Rotation=180.000|XOffset=0mm|YOffset=0mm|HoleType=Round|Shape=RoundedRectangle|*
%AMROUNDEDRECTD126*
21,1,0.6500,0.2750,0,0,180.0*
21,1,0.2750,0.6500,0,0,180.0*
1,1,0.3750,-0.1375,0.1375*
1,1,0.3750,0.1375,0.1375*
1,1,0.3750,0.1375,-0.1375*
1,1,0.3750,-0.1375,-0.1375*
%
%ADD126ROUNDEDRECTD126*%
G04:AMPARAMS|DCode=127|XSize=0.4mm|YSize=0.7mm|CornerRadius=0.125mm|HoleSize=0mm|Usage=FLASHONLY|Rotation=90.000|XOffset=0mm|YOffset=0mm|HoleType=Round|Shape=RoundedRectangle|*
%AMROUNDEDRECTD127*
21,1,0.4000,0.4500,0,0,90.0*
21,1,0.1500,0.7000,0,0,90.0*
1,1,0.2500,0.2250,0.0750*
1,1,0.2500,0.2250,-0.0750*
1,1,0.2500,-0.2250,-0.0750*
1,1,0.2500,-0.2250,0.0750*
%
%ADD127ROUNDEDRECTD127*%
G04:AMPARAMS|DCode=128|XSize=0.4mm|YSize=0.35mm|CornerRadius=0.1125mm|HoleSize=0mm|Usage=FLASHONLY|Rotation=90.000|XOffset=0mm|YOffset=0mm|HoleType=Round|Shape=RoundedRectangle|*
%AMROUNDEDRECTD128*
21,1,0.4000,0.1250,0,0,90.0*
21,1,0.1750,0.3500,0,0,90.0*
1,1,0.2250,0.0625,0.0875*
1,1,0.2250,0.0625,-0.0875*
1,1,0.2250,-0.0625,-0.0875*
1,1,0.2250,-0.0625,0.0875*
%
%ADD128ROUNDEDRECTD128*%
G04:AMPARAMS|DCode=129|XSize=0.85mm|YSize=0.5mm|CornerRadius=0.15mm|HoleSize=0mm|Usage=FLASHONLY|Rotation=270.000|XOffset=0mm|YOffset=0mm|HoleType=Round|Shape=RoundedRectangle|*
%AMROUNDEDRECTD129*
21,1,0.8500,0.2000,0,0,270.0*
21,1,0.5500,0.5000,0,0,270.0*
1,1,0.3000,-0.1000,-0.2750*
1,1,0.3000,-0.1000,0.2750*
1,1,0.3000,0.1000,0.2750*
1,1,0.3000,0.1000,-0.2750*
%
%ADD129ROUNDEDRECTD129*%
G04:AMPARAMS|DCode=130|XSize=0.65mm|YSize=0.65mm|CornerRadius=0.1875mm|HoleSize=0mm|Usage=FLASHONLY|Rotation=90.000|XOffset=0mm|YOffset=0mm|HoleType=Round|Shape=RoundedRectangle|*
%AMROUNDEDRECTD130*
21,1,0.6500,0.2750,0,0,90.0*
21,1,0.2750,0.6500,0,0,90.0*
1,1,0.3750,0.1375,0.1375*
1,1,0.3750,0.1375,-0.1375*
1,1,0.3750,-0.1375,-0.1375*
1,1,0.3750,-0.1375,0.1375*
%
%ADD130ROUNDEDRECTD130*%
G04:AMPARAMS|DCode=131|XSize=0.7mm|YSize=0.7mm|CornerRadius=0.2mm|HoleSize=0mm|Usage=FLASHONLY|Rotation=90.000|XOffset=0mm|YOffset=0mm|HoleType=Round|Shape=RoundedRectangle|*
%AMROUNDEDRECTD131*
21,1,0.7000,0.3000,0,0,90.0*
21,1,0.3000,0.7000,0,0,90.0*
1,1,0.4000,0.1500,0.1500*
1,1,0.4000,0.1500,-0.1500*
1,1,0.4000,-0.1500,-0.1500*
1,1,0.4000,-0.1500,0.1500*
%
%ADD131ROUNDEDRECTD131*%
G04:AMPARAMS|DCode=132|XSize=0.7mm|YSize=0.7mm|CornerRadius=0.2mm|HoleSize=0mm|Usage=FLASHONLY|Rotation=0.000|XOffset=0mm|YOffset=0mm|HoleType=Round|Shape=RoundedRectangle|*
%AMROUNDEDRECTD132*
21,1,0.7000,0.3000,0,0,0.0*
21,1,0.3000,0.7000,0,0,0.0*
1,1,0.4000,0.1500,-0.1500*
1,1,0.4000,-0.1500,-0.1500*
1,1,0.4000,-0.1500,0.1500*
1,1,0.4000,0.1500,0.1500*
%
%ADD132ROUNDEDRECTD132*%
G04:AMPARAMS|DCode=133|XSize=0.85mm|YSize=0.36mm|CornerRadius=0.115mm|HoleSize=0mm|Usage=FLASHONLY|Rotation=180.000|XOffset=0mm|YOffset=0mm|HoleType=Round|Shape=RoundedRectangle|*
%AMROUNDEDRECTD133*
21,1,0.8500,0.1300,0,0,180.0*
21,1,0.6200,0.3600,0,0,180.0*
1,1,0.2300,-0.3100,0.0650*
1,1,0.2300,0.3100,0.0650*
1,1,0.2300,0.3100,-0.0650*
1,1,0.2300,-0.3100,-0.0650*
%
%ADD133ROUNDEDRECTD133*%
G04:AMPARAMS|DCode=134|XSize=0.85mm|YSize=0.36mm|CornerRadius=0.115mm|HoleSize=0mm|Usage=FLASHONLY|Rotation=270.000|XOffset=0mm|YOffset=0mm|HoleType=Round|Shape=RoundedRectangle|*
%AMROUNDEDRECTD134*
21,1,0.8500,0.1300,0,0,270.0*
21,1,0.6200,0.3600,0,0,270.0*
1,1,0.2300,-0.0650,-0.3100*
1,1,0.2300,-0.0650,0.3100*
1,1,0.2300,0.0650,0.3100*
1,1,0.2300,0.0650,-0.3100*
%
%ADD134ROUNDEDRECTD134*%
G04:AMPARAMS|DCode=135|XSize=1.6mm|YSize=4.1mm|CornerRadius=0.275mm|HoleSize=0mm|Usage=FLASHONLY|Rotation=90.000|XOffset=0mm|YOffset=0mm|HoleType=Round|Shape=RoundedRectangle|*
%AMROUNDEDRECTD135*
21,1,1.6000,3.5500,0,0,90.0*
21,1,1.0500,4.1000,0,0,90.0*
1,1,0.5500,1.7750,0.5250*
1,1,0.5500,1.7750,-0.5250*
1,1,0.5500,-1.7750,-0.5250*
1,1,0.5500,-1.7750,0.5250*
%
%ADD135ROUNDEDRECTD135*%
G04:AMPARAMS|DCode=136|XSize=1.05mm|YSize=1.1mm|CornerRadius=0.2875mm|HoleSize=0mm|Usage=FLASHONLY|Rotation=90.000|XOffset=0mm|YOffset=0mm|HoleType=Round|Shape=RoundedRectangle|*
%AMROUNDEDRECTD136*
21,1,1.0500,0.5250,0,0,90.0*
21,1,0.4750,1.1000,0,0,90.0*
1,1,0.5750,0.2625,0.2375*
1,1,0.5750,0.2625,-0.2375*
1,1,0.5750,-0.2625,-0.2375*
1,1,0.5750,-0.2625,0.2375*
%
%ADD136ROUNDEDRECTD136*%
G04:AMPARAMS|DCode=137|XSize=1.05mm|YSize=1.1mm|CornerRadius=0.2875mm|HoleSize=0mm|Usage=FLASHONLY|Rotation=180.000|XOffset=0mm|YOffset=0mm|HoleType=Round|Shape=RoundedRectangle|*
%AMROUNDEDRECTD137*
21,1,1.0500,0.5250,0,0,180.0*
21,1,0.4750,1.1000,0,0,180.0*
1,1,0.5750,-0.2375,0.2625*
1,1,0.5750,0.2375,0.2625*
1,1,0.5750,0.2375,-0.2625*
1,1,0.5750,-0.2375,-0.2625*
%
%ADD137ROUNDEDRECTD137*%
G04:AMPARAMS|DCode=138|XSize=0.7mm|YSize=0.7mm|CornerRadius=0.197mm|HoleSize=0mm|Usage=FLASHONLY|Rotation=180.000|XOffset=0mm|YOffset=0mm|HoleType=Round|Shape=RoundedRectangle|*
%AMROUNDEDRECTD138*
21,1,0.7000,0.3060,0,0,180.0*
21,1,0.3060,0.7000,0,0,180.0*
1,1,0.3940,-0.1530,0.1530*
1,1,0.3940,0.1530,0.1530*
1,1,0.3940,0.1530,-0.1530*
1,1,0.3940,-0.1530,-0.1530*
%
%ADD138ROUNDEDRECTD138*%
G04:AMPARAMS|DCode=139|XSize=0.65mm|YSize=0.3mm|CornerRadius=0.098mm|HoleSize=0mm|Usage=FLASHONLY|Rotation=180.000|XOffset=0mm|YOffset=0mm|HoleType=Round|Shape=RoundedRectangle|*
%AMROUNDEDRECTD139*
21,1,0.6500,0.1040,0,0,180.0*
21,1,0.4540,0.3000,0,0,180.0*
1,1,0.1960,-0.2270,0.0520*
1,1,0.1960,0.2270,0.0520*
1,1,0.1960,0.2270,-0.0520*
1,1,0.1960,-0.2270,-0.0520*
%
%ADD139ROUNDEDRECTD139*%
G04:AMPARAMS|DCode=140|XSize=0.65mm|YSize=0.3mm|CornerRadius=0.098mm|HoleSize=0mm|Usage=FLASHONLY|Rotation=270.000|XOffset=0mm|YOffset=0mm|HoleType=Round|Shape=RoundedRectangle|*
%AMROUNDEDRECTD140*
21,1,0.6500,0.1040,0,0,270.0*
21,1,0.4540,0.3000,0,0,270.0*
1,1,0.1960,-0.0520,-0.2270*
1,1,0.1960,-0.0520,0.2270*
1,1,0.1960,0.0520,0.2270*
1,1,0.1960,0.0520,-0.2270*
%
%ADD140ROUNDEDRECTD140*%
G04:AMPARAMS|DCode=141|XSize=1.1mm|YSize=1.1mm|CornerRadius=0.1mm|HoleSize=0mm|Usage=FLASHONLY|Rotation=90.000|XOffset=0mm|YOffset=0mm|HoleType=Round|Shape=RoundedRectangle|*
%AMROUNDEDRECTD141*
21,1,1.1000,0.9000,0,0,90.0*
21,1,0.9000,1.1000,0,0,90.0*
1,1,0.2000,0.4500,0.4500*
1,1,0.2000,0.4500,-0.4500*
1,1,0.2000,-0.4500,-0.4500*
1,1,0.2000,-0.4500,0.4500*
%
%ADD141ROUNDEDRECTD141*%
G04:AMPARAMS|DCode=142|XSize=0.7mm|YSize=0.4mm|CornerRadius=0.128mm|HoleSize=0mm|Usage=FLASHONLY|Rotation=270.000|XOffset=0mm|YOffset=0mm|HoleType=Round|Shape=RoundedRectangle|*
%AMROUNDEDRECTD142*
21,1,0.7000,0.1440,0,0,270.0*
21,1,0.4440,0.4000,0,0,270.0*
1,1,0.2560,-0.0720,-0.2220*
1,1,0.2560,-0.0720,0.2220*
1,1,0.2560,0.0720,0.2220*
1,1,0.2560,0.0720,-0.2220*
%
%ADD142ROUNDEDRECTD142*%
G04:AMPARAMS|DCode=143|XSize=0.9mm|YSize=1.7mm|CornerRadius=0.13mm|HoleSize=0mm|Usage=FLASHONLY|Rotation=90.000|XOffset=0mm|YOffset=0mm|HoleType=Round|Shape=RoundedRectangle|*
%AMROUNDEDRECTD143*
21,1,0.9000,1.4400,0,0,90.0*
21,1,0.6400,1.7000,0,0,90.0*
1,1,0.2600,0.7200,0.3200*
1,1,0.2600,0.7200,-0.3200*
1,1,0.2600,-0.7200,-0.3200*
1,1,0.2600,-0.7200,0.3200*
%
%ADD143ROUNDEDRECTD143*%
G04:AMPARAMS|DCode=144|XSize=0.9mm|YSize=0.9mm|CornerRadius=0.11mm|HoleSize=0mm|Usage=FLASHONLY|Rotation=180.000|XOffset=0mm|YOffset=0mm|HoleType=Round|Shape=RoundedRectangle|*
%AMROUNDEDRECTD144*
21,1,0.9000,0.6800,0,0,180.0*
21,1,0.6800,0.9000,0,0,180.0*
1,1,0.2200,-0.3400,0.3400*
1,1,0.2200,0.3400,0.3400*
1,1,0.2200,0.3400,-0.3400*
1,1,0.2200,-0.3400,-0.3400*
%
%ADD144ROUNDEDRECTD144*%
G04:AMPARAMS|DCode=145|XSize=0.425mm|YSize=0.425mm|CornerRadius=0.1069mm|HoleSize=0mm|Usage=FLASHONLY|Rotation=180.000|XOffset=0mm|YOffset=0mm|HoleType=Round|Shape=RoundedRectangle|*
%AMROUNDEDRECTD145*
21,1,0.4250,0.2112,0,0,180.0*
21,1,0.2112,0.4250,0,0,180.0*
1,1,0.2138,-0.1056,0.1056*
1,1,0.2138,0.1056,0.1056*
1,1,0.2138,0.1056,-0.1056*
1,1,0.2138,-0.1056,-0.1056*
%
%ADD145ROUNDEDRECTD145*%
G04:AMPARAMS|DCode=146|XSize=0.425mm|YSize=0.425mm|CornerRadius=0.1069mm|HoleSize=0mm|Usage=FLASHONLY|Rotation=270.000|XOffset=0mm|YOffset=0mm|HoleType=Round|Shape=RoundedRectangle|*
%AMROUNDEDRECTD146*
21,1,0.4250,0.2112,0,0,270.0*
21,1,0.2112,0.4250,0,0,270.0*
1,1,0.2138,-0.1056,-0.1056*
1,1,0.2138,-0.1056,0.1056*
1,1,0.2138,0.1056,0.1056*
1,1,0.2138,0.1056,-0.1056*
%
%ADD146ROUNDEDRECTD146*%
G04:AMPARAMS|DCode=147|XSize=0.375mm|YSize=1.05mm|CornerRadius=0.1188mm|HoleSize=0mm|Usage=FLASHONLY|Rotation=0.000|XOffset=0mm|YOffset=0mm|HoleType=Round|Shape=RoundedRectangle|*
%AMROUNDEDRECTD147*
21,1,0.3750,0.8125,0,0,0.0*
21,1,0.1375,1.0500,0,0,0.0*
1,1,0.2375,0.0688,-0.4063*
1,1,0.2375,-0.0688,-0.4063*
1,1,0.2375,-0.0688,0.4063*
1,1,0.2375,0.0688,0.4063*
%
%ADD147ROUNDEDRECTD147*%
G04:AMPARAMS|DCode=148|XSize=0.3mm|YSize=0.375mm|CornerRadius=0.1mm|HoleSize=0mm|Usage=FLASHONLY|Rotation=90.000|XOffset=0mm|YOffset=0mm|HoleType=Round|Shape=RoundedRectangle|*
%AMROUNDEDRECTD148*
21,1,0.3000,0.1750,0,0,90.0*
21,1,0.1000,0.3750,0,0,90.0*
1,1,0.2000,0.0875,0.0500*
1,1,0.2000,0.0875,-0.0500*
1,1,0.2000,-0.0875,-0.0500*
1,1,0.2000,-0.0875,0.0500*
%
%ADD148ROUNDEDRECTD148*%
G04:AMPARAMS|DCode=149|XSize=0.6mm|YSize=0.4mm|CornerRadius=0.125mm|HoleSize=0mm|Usage=FLASHONLY|Rotation=180.000|XOffset=0mm|YOffset=0mm|HoleType=Round|Shape=RoundedRectangle|*
%AMROUNDEDRECTD149*
21,1,0.6000,0.1500,0,0,180.0*
21,1,0.3500,0.4000,0,0,180.0*
1,1,0.2500,-0.1750,0.0750*
1,1,0.2500,0.1750,0.0750*
1,1,0.2500,0.1750,-0.0750*
1,1,0.2500,-0.1750,-0.0750*
%
%ADD149ROUNDEDRECTD149*%
G04:AMPARAMS|DCode=150|XSize=0.375mm|YSize=0.8mm|CornerRadius=0.1188mm|HoleSize=0mm|Usage=FLASHONLY|Rotation=180.000|XOffset=0mm|YOffset=0mm|HoleType=Round|Shape=RoundedRectangle|*
%AMROUNDEDRECTD150*
21,1,0.3750,0.5625,0,0,180.0*
21,1,0.1375,0.8000,0,0,180.0*
1,1,0.2375,-0.0688,0.2813*
1,1,0.2375,0.0688,0.2813*
1,1,0.2375,0.0688,-0.2813*
1,1,0.2375,-0.0688,-0.2813*
%
%ADD150ROUNDEDRECTD150*%
G04:AMPARAMS|DCode=151|XSize=0.8mm|YSize=0.4mm|CornerRadius=0.125mm|HoleSize=0mm|Usage=FLASHONLY|Rotation=180.000|XOffset=0mm|YOffset=0mm|HoleType=Round|Shape=RoundedRectangle|*
%AMROUNDEDRECTD151*
21,1,0.8000,0.1500,0,0,180.0*
21,1,0.5500,0.4000,0,0,180.0*
1,1,0.2500,-0.2750,0.0750*
1,1,0.2500,0.2750,0.0750*
1,1,0.2500,0.2750,-0.0750*
1,1,0.2500,-0.2750,-0.0750*
%
%ADD151ROUNDEDRECTD151*%
G04:AMPARAMS|DCode=152|XSize=0.4mm|YSize=0.7mm|CornerRadius=0.125mm|HoleSize=0mm|Usage=FLASHONLY|Rotation=180.000|XOffset=0mm|YOffset=0mm|HoleType=Round|Shape=RoundedRectangle|*
%AMROUNDEDRECTD152*
21,1,0.4000,0.4500,0,0,180.0*
21,1,0.1500,0.7000,0,0,180.0*
1,1,0.2500,-0.0750,0.2250*
1,1,0.2500,0.0750,0.2250*
1,1,0.2500,0.0750,-0.2250*
1,1,0.2500,-0.0750,-0.2250*
%
%ADD152ROUNDEDRECTD152*%
G04:AMPARAMS|DCode=153|XSize=0.4mm|YSize=0.35mm|CornerRadius=0.1125mm|HoleSize=0mm|Usage=FLASHONLY|Rotation=180.000|XOffset=0mm|YOffset=0mm|HoleType=Round|Shape=RoundedRectangle|*
%AMROUNDEDRECTD153*
21,1,0.4000,0.1250,0,0,180.0*
21,1,0.1750,0.3500,0,0,180.0*
1,1,0.2250,-0.0875,0.0625*
1,1,0.2250,0.0875,0.0625*
1,1,0.2250,0.0875,-0.0625*
1,1,0.2250,-0.0875,-0.0625*
%
%ADD153ROUNDEDRECTD153*%
G04:AMPARAMS|DCode=154|XSize=0.85mm|YSize=0.5mm|CornerRadius=0.15mm|HoleSize=0mm|Usage=FLASHONLY|Rotation=0.000|XOffset=0mm|YOffset=0mm|HoleType=Round|Shape=RoundedRectangle|*
%AMROUNDEDRECTD154*
21,1,0.8500,0.2000,0,0,0.0*
21,1,0.5500,0.5000,0,0,0.0*
1,1,0.3000,0.2750,-0.1000*
1,1,0.3000,-0.2750,-0.1000*
1,1,0.3000,-0.2750,0.1000*
1,1,0.3000,0.2750,0.1000*
%
%ADD154ROUNDEDRECTD154*%
G04:AMPARAMS|DCode=155|XSize=1.15mm|YSize=1.25mm|CornerRadius=0.3125mm|HoleSize=0mm|Usage=FLASHONLY|Rotation=180.000|XOffset=0mm|YOffset=0mm|HoleType=Round|Shape=RoundedRectangle|*
%AMROUNDEDRECTD155*
21,1,1.1500,0.6250,0,0,180.0*
21,1,0.5250,1.2500,0,0,180.0*
1,1,0.6250,-0.2625,0.3125*
1,1,0.6250,0.2625,0.3125*
1,1,0.6250,0.2625,-0.3125*
1,1,0.6250,-0.2625,-0.3125*
%
%ADD155ROUNDEDRECTD155*%
G04:AMPARAMS|DCode=156|XSize=0.4mm|YSize=1.1mm|CornerRadius=0.125mm|HoleSize=0mm|Usage=FLASHONLY|Rotation=180.000|XOffset=0mm|YOffset=0mm|HoleType=Round|Shape=RoundedRectangle|*
%AMROUNDEDRECTD156*
21,1,0.4000,0.8500,0,0,180.0*
21,1,0.1500,1.1000,0,0,180.0*
1,1,0.2500,-0.0750,0.4250*
1,1,0.2500,0.0750,0.4250*
1,1,0.2500,0.0750,-0.4250*
1,1,0.2500,-0.0750,-0.4250*
%
%ADD156ROUNDEDRECTD156*%
G04:AMPARAMS|DCode=157|XSize=0.5032mm|YSize=0.9032mm|CornerRadius=0.1766mm|HoleSize=0mm|Usage=FLASHONLY|Rotation=180.000|XOffset=0mm|YOffset=0mm|HoleType=Round|Shape=RoundedRectangle|*
%AMROUNDEDRECTD157*
21,1,0.5032,0.5500,0,0,180.0*
21,1,0.1500,0.9032,0,0,180.0*
1,1,0.3532,-0.0750,0.2750*
1,1,0.3532,0.0750,0.2750*
1,1,0.3532,0.0750,-0.2750*
1,1,0.3532,-0.0750,-0.2750*
%
%ADD157ROUNDEDRECTD157*%
G04:AMPARAMS|DCode=158|XSize=1.2mm|YSize=0.75mm|CornerRadius=0.2125mm|HoleSize=0mm|Usage=FLASHONLY|Rotation=180.000|XOffset=0mm|YOffset=0mm|HoleType=Round|Shape=RoundedRectangle|*
%AMROUNDEDRECTD158*
21,1,1.2000,0.3250,0,0,180.0*
21,1,0.7750,0.7500,0,0,180.0*
1,1,0.4250,-0.3875,0.1625*
1,1,0.4250,0.3875,0.1625*
1,1,0.4250,0.3875,-0.1625*
1,1,0.4250,-0.3875,-0.1625*
%
%ADD158ROUNDEDRECTD158*%
G04:AMPARAMS|DCode=159|XSize=1.05mm|YSize=0.37mm|CornerRadius=0.1175mm|HoleSize=0mm|Usage=FLASHONLY|Rotation=0.000|XOffset=0mm|YOffset=0mm|HoleType=Round|Shape=RoundedRectangle|*
%AMROUNDEDRECTD159*
21,1,1.0500,0.1350,0,0,0.0*
21,1,0.8150,0.3700,0,0,0.0*
1,1,0.2350,0.4075,-0.0675*
1,1,0.2350,-0.4075,-0.0675*
1,1,0.2350,-0.4075,0.0675*
1,1,0.2350,0.4075,0.0675*
%
%ADD159ROUNDEDRECTD159*%
G04:AMPARAMS|DCode=160|XSize=0.95mm|YSize=0.37mm|CornerRadius=0.1175mm|HoleSize=0mm|Usage=FLASHONLY|Rotation=0.000|XOffset=0mm|YOffset=0mm|HoleType=Round|Shape=RoundedRectangle|*
%AMROUNDEDRECTD160*
21,1,0.9500,0.1350,0,0,0.0*
21,1,0.7150,0.3700,0,0,0.0*
1,1,0.2350,0.3575,-0.0675*
1,1,0.2350,-0.3575,-0.0675*
1,1,0.2350,-0.3575,0.0675*
1,1,0.2350,0.3575,0.0675*
%
%ADD160ROUNDEDRECTD160*%
G04:AMPARAMS|DCode=161|XSize=0.7mm|YSize=0.7mm|CornerRadius=0.197mm|HoleSize=0mm|Usage=FLASHONLY|Rotation=90.000|XOffset=0mm|YOffset=0mm|HoleType=Round|Shape=RoundedRectangle|*
%AMROUNDEDRECTD161*
21,1,0.7000,0.3060,0,0,90.0*
21,1,0.3060,0.7000,0,0,90.0*
1,1,0.3940,0.1530,0.1530*
1,1,0.3940,0.1530,-0.1530*
1,1,0.3940,-0.1530,-0.1530*
1,1,0.3940,-0.1530,0.1530*
%
%ADD161ROUNDEDRECTD161*%
G04:AMPARAMS|DCode=162|XSize=1.85mm|YSize=2.6mm|CornerRadius=0.1375mm|HoleSize=0mm|Usage=FLASHONLY|Rotation=0.000|XOffset=0mm|YOffset=0mm|HoleType=Round|Shape=RoundedRectangle|*
%AMROUNDEDRECTD162*
21,1,1.8500,2.3250,0,0,0.0*
21,1,1.5750,2.6000,0,0,0.0*
1,1,0.2750,0.7875,-1.1625*
1,1,0.2750,-0.7875,-1.1625*
1,1,0.2750,-0.7875,1.1625*
1,1,0.2750,0.7875,1.1625*
%
%ADD162ROUNDEDRECTD162*%
G04:AMPARAMS|DCode=163|XSize=0.8mm|YSize=0.45mm|CornerRadius=0.134mm|HoleSize=0mm|Usage=FLASHONLY|Rotation=0.000|XOffset=0mm|YOffset=0mm|HoleType=Round|Shape=RoundedRectangle|*
%AMROUNDEDRECTD163*
21,1,0.8000,0.1820,0,0,0.0*
21,1,0.5320,0.4500,0,0,0.0*
1,1,0.2680,0.2660,-0.0910*
1,1,0.2680,-0.2660,-0.0910*
1,1,0.2680,-0.2660,0.0910*
1,1,0.2680,0.2660,0.0910*
%
%ADD163ROUNDEDRECTD163*%
G04:AMPARAMS|DCode=164|XSize=0.3mm|YSize=1.7mm|CornerRadius=0.1mm|HoleSize=0mm|Usage=FLASHONLY|Rotation=0.000|XOffset=0mm|YOffset=0mm|HoleType=Round|Shape=RoundedRectangle|*
%AMROUNDEDRECTD164*
21,1,0.3000,1.5000,0,0,0.0*
21,1,0.1000,1.7000,0,0,0.0*
1,1,0.2000,0.0500,-0.7500*
1,1,0.2000,-0.0500,-0.7500*
1,1,0.2000,-0.0500,0.7500*
1,1,0.2000,0.0500,0.7500*
%
%ADD164ROUNDEDRECTD164*%
G04:AMPARAMS|DCode=165|XSize=0.69mm|YSize=0.45mm|CornerRadius=0.1393mm|HoleSize=0mm|Usage=FLASHONLY|Rotation=0.000|XOffset=0mm|YOffset=0mm|HoleType=Round|Shape=RoundedRectangle|*
%AMROUNDEDRECTD165*
21,1,0.6900,0.1715,0,0,0.0*
21,1,0.4115,0.4500,0,0,0.0*
1,1,0.2785,0.2058,-0.0858*
1,1,0.2785,-0.2058,-0.0858*
1,1,0.2785,-0.2058,0.0858*
1,1,0.2785,0.2058,0.0858*
%
%ADD165ROUNDEDRECTD165*%
G04:AMPARAMS|DCode=166|XSize=1.85mm|YSize=2.6mm|CornerRadius=0.1375mm|HoleSize=0mm|Usage=FLASHONLY|Rotation=90.000|XOffset=0mm|YOffset=0mm|HoleType=Round|Shape=RoundedRectangle|*
%AMROUNDEDRECTD166*
21,1,1.8500,2.3250,0,0,90.0*
21,1,1.5750,2.6000,0,0,90.0*
1,1,0.2750,1.1625,0.7875*
1,1,0.2750,1.1625,-0.7875*
1,1,0.2750,-1.1625,-0.7875*
1,1,0.2750,-1.1625,0.7875*
%
%ADD166ROUNDEDRECTD166*%
G04:AMPARAMS|DCode=167|XSize=0.8mm|YSize=0.45mm|CornerRadius=0.134mm|HoleSize=0mm|Usage=FLASHONLY|Rotation=90.000|XOffset=0mm|YOffset=0mm|HoleType=Round|Shape=RoundedRectangle|*
%AMROUNDEDRECTD167*
21,1,0.8000,0.1820,0,0,90.0*
21,1,0.5320,0.4500,0,0,90.0*
1,1,0.2680,0.0910,0.2660*
1,1,0.2680,0.0910,-0.2660*
1,1,0.2680,-0.0910,-0.2660*
1,1,0.2680,-0.0910,0.2660*
%
%ADD167ROUNDEDRECTD167*%
G04:AMPARAMS|DCode=168|XSize=0.6mm|YSize=0.6mm|CornerRadius=0.15mm|HoleSize=0mm|Usage=FLASHONLY|Rotation=270.000|XOffset=0mm|YOffset=0mm|HoleType=Round|Shape=RoundedRectangle|*
%AMROUNDEDRECTD168*
21,1,0.6000,0.3000,0,0,270.0*
21,1,0.3000,0.6000,0,0,270.0*
1,1,0.3000,-0.1500,-0.1500*
1,1,0.3000,-0.1500,0.1500*
1,1,0.3000,0.1500,0.1500*
1,1,0.3000,0.1500,-0.1500*
%
%ADD168ROUNDEDRECTD168*%
G04:AMPARAMS|DCode=169|XSize=0.5mm|YSize=0.4mm|CornerRadius=0.125mm|HoleSize=0mm|Usage=FLASHONLY|Rotation=270.000|XOffset=0mm|YOffset=0mm|HoleType=Round|Shape=RoundedRectangle|*
%AMROUNDEDRECTD169*
21,1,0.5000,0.1500,0,0,270.0*
21,1,0.2500,0.4000,0,0,270.0*
1,1,0.2500,-0.0750,-0.1250*
1,1,0.2500,-0.0750,0.1250*
1,1,0.2500,0.0750,0.1250*
1,1,0.2500,0.0750,-0.1250*
%
%ADD169ROUNDEDRECTD169*%
G04:AMPARAMS|DCode=170|XSize=0.5mm|YSize=0.4mm|CornerRadius=0.125mm|HoleSize=0mm|Usage=FLASHONLY|Rotation=180.000|XOffset=0mm|YOffset=0mm|HoleType=Round|Shape=RoundedRectangle|*
%AMROUNDEDRECTD170*
21,1,0.5000,0.1500,0,0,180.0*
21,1,0.2500,0.4000,0,0,180.0*
1,1,0.2500,-0.1250,0.0750*
1,1,0.2500,0.1250,0.0750*
1,1,0.2500,0.1250,-0.0750*
1,1,0.2500,-0.1250,-0.0750*
%
%ADD170ROUNDEDRECTD170*%
%ADD171C,1.1000*%
G04:AMPARAMS|DCode=172|XSize=1.37mm|YSize=3.28mm|CornerRadius=0.3675mm|HoleSize=0mm|Usage=FLASHONLY|Rotation=90.000|XOffset=0mm|YOffset=0mm|HoleType=Round|Shape=RoundedRectangle|*
%AMROUNDEDRECTD172*
21,1,1.3700,2.5450,0,0,90.0*
21,1,0.6350,3.2800,0,0,90.0*
1,1,0.7350,1.2725,0.3175*
1,1,0.7350,1.2725,-0.3175*
1,1,0.7350,-1.2725,-0.3175*
1,1,0.7350,-1.2725,0.3175*
%
%ADD172ROUNDEDRECTD172*%
G04:AMPARAMS|DCode=173|XSize=0.4mm|YSize=1.55mm|CornerRadius=0.125mm|HoleSize=0mm|Usage=FLASHONLY|Rotation=90.000|XOffset=0mm|YOffset=0mm|HoleType=Round|Shape=RoundedRectangle|*
%AMROUNDEDRECTD173*
21,1,0.4000,1.3000,0,0,90.0*
21,1,0.1500,1.5500,0,0,90.0*
1,1,0.2500,0.6500,0.0750*
1,1,0.2500,0.6500,-0.0750*
1,1,0.2500,-0.6500,-0.0750*
1,1,0.2500,-0.6500,0.0750*
%
%ADD173ROUNDEDRECTD173*%
G04:AMPARAMS|DCode=174|XSize=0.4mm|YSize=1.1mm|CornerRadius=0.125mm|HoleSize=0mm|Usage=FLASHONLY|Rotation=90.000|XOffset=0mm|YOffset=0mm|HoleType=Round|Shape=RoundedRectangle|*
%AMROUNDEDRECTD174*
21,1,0.4000,0.8500,0,0,90.0*
21,1,0.1500,1.1000,0,0,90.0*
1,1,0.2500,0.4250,0.0750*
1,1,0.2500,0.4250,-0.0750*
1,1,0.2500,-0.4250,-0.0750*
1,1,0.2500,-0.4250,0.0750*
%
%ADD174ROUNDEDRECTD174*%
G04:AMPARAMS|DCode=175|XSize=1.3mm|YSize=2.8mm|CornerRadius=0.2mm|HoleSize=0mm|Usage=FLASHONLY|Rotation=90.000|XOffset=0mm|YOffset=0mm|HoleType=Round|Shape=RoundedRectangle|*
%AMROUNDEDRECTD175*
21,1,1.3000,2.4000,0,0,90.0*
21,1,0.9000,2.8000,0,0,90.0*
1,1,0.4000,1.2000,0.4500*
1,1,0.4000,1.2000,-0.4500*
1,1,0.4000,-1.2000,-0.4500*
1,1,0.4000,-1.2000,0.4500*
%
%ADD175ROUNDEDRECTD175*%
G04:AMPARAMS|DCode=176|XSize=0.9mm|YSize=0.8mm|CornerRadius=0.1725mm|HoleSize=0mm|Usage=FLASHONLY|Rotation=270.000|XOffset=0mm|YOffset=0mm|HoleType=Round|Shape=RoundedRectangle|*
%AMROUNDEDRECTD176*
21,1,0.9000,0.4550,0,0,270.0*
21,1,0.5550,0.8000,0,0,270.0*
1,1,0.3450,-0.2275,-0.2775*
1,1,0.3450,-0.2275,0.2775*
1,1,0.3450,0.2275,0.2775*
1,1,0.3450,0.2275,-0.2775*
%
%ADD176ROUNDEDRECTD176*%
G04:AMPARAMS|DCode=177|XSize=0.4mm|YSize=0.95mm|CornerRadius=0.125mm|HoleSize=0mm|Usage=FLASHONLY|Rotation=90.000|XOffset=0mm|YOffset=0mm|HoleType=Round|Shape=RoundedRectangle|*
%AMROUNDEDRECTD177*
21,1,0.4000,0.7000,0,0,90.0*
21,1,0.1500,0.9500,0,0,90.0*
1,1,0.2500,0.3500,0.0750*
1,1,0.2500,0.3500,-0.0750*
1,1,0.2500,-0.3500,-0.0750*
1,1,0.2500,-0.3500,0.0750*
%
%ADD177ROUNDEDRECTD177*%
G04:AMPARAMS|DCode=178|XSize=1.15mm|YSize=0.5mm|CornerRadius=0.12mm|HoleSize=0mm|Usage=FLASHONLY|Rotation=90.000|XOffset=0mm|YOffset=0mm|HoleType=Round|Shape=RoundedRectangle|*
%AMROUNDEDRECTD178*
21,1,1.1500,0.2600,0,0,90.0*
21,1,0.9100,0.5000,0,0,90.0*
1,1,0.2400,0.1300,0.4550*
1,1,0.2400,0.1300,-0.4550*
1,1,0.2400,-0.1300,-0.4550*
1,1,0.2400,-0.1300,0.4550*
%
%ADD178ROUNDEDRECTD178*%
G04:AMPARAMS|DCode=179|XSize=0.85mm|YSize=0.32mm|CornerRadius=0.105mm|HoleSize=0mm|Usage=FLASHONLY|Rotation=180.000|XOffset=0mm|YOffset=0mm|HoleType=Round|Shape=RoundedRectangle|*
%AMROUNDEDRECTD179*
21,1,0.8500,0.1100,0,0,180.0*
21,1,0.6400,0.3200,0,0,180.0*
1,1,0.2100,-0.3200,0.0550*
1,1,0.2100,0.3200,0.0550*
1,1,0.2100,0.3200,-0.0550*
1,1,0.2100,-0.3200,-0.0550*
%
%ADD179ROUNDEDRECTD179*%
G04:AMPARAMS|DCode=180|XSize=1.6mm|YSize=4.1mm|CornerRadius=0.275mm|HoleSize=0mm|Usage=FLASHONLY|Rotation=0.000|XOffset=0mm|YOffset=0mm|HoleType=Round|Shape=RoundedRectangle|*
%AMROUNDEDRECTD180*
21,1,1.6000,3.5500,0,0,0.0*
21,1,1.0500,4.1000,0,0,0.0*
1,1,0.5500,0.5250,-1.7750*
1,1,0.5500,-0.5250,-1.7750*
1,1,0.5500,-0.5250,1.7750*
1,1,0.5500,0.5250,1.7750*
%
%ADD180ROUNDEDRECTD180*%
G04:AMPARAMS|DCode=181|XSize=0.9mm|YSize=0.4mm|CornerRadius=0.122mm|HoleSize=0mm|Usage=FLASHONLY|Rotation=0.000|XOffset=0mm|YOffset=0mm|HoleType=Round|Shape=RoundedRectangle|*
%AMROUNDEDRECTD181*
21,1,0.9000,0.1560,0,0,0.0*
21,1,0.6560,0.4000,0,0,0.0*
1,1,0.2440,0.3280,-0.0780*
1,1,0.2440,-0.3280,-0.0780*
1,1,0.2440,-0.3280,0.0780*
1,1,0.2440,0.3280,0.0780*
%
%ADD181ROUNDEDRECTD181*%
G04:AMPARAMS|DCode=182|XSize=2.6mm|YSize=2.6mm|CornerRadius=0.175mm|HoleSize=0mm|Usage=FLASHONLY|Rotation=0.000|XOffset=0mm|YOffset=0mm|HoleType=Round|Shape=RoundedRectangle|*
%AMROUNDEDRECTD182*
21,1,2.6000,2.2500,0,0,0.0*
21,1,2.2500,2.6000,0,0,0.0*
1,1,0.3500,1.1250,-1.1250*
1,1,0.3500,-1.1250,-1.1250*
1,1,0.3500,-1.1250,1.1250*
1,1,0.3500,1.1250,1.1250*
%
%ADD182ROUNDEDRECTD182*%
G04:AMPARAMS|DCode=183|XSize=0.9mm|YSize=0.36mm|CornerRadius=0.1202mm|HoleSize=0mm|Usage=FLASHONLY|Rotation=90.000|XOffset=0mm|YOffset=0mm|HoleType=Round|Shape=RoundedRectangle|*
%AMROUNDEDRECTD183*
21,1,0.9000,0.1196,0,0,90.0*
21,1,0.6596,0.3600,0,0,90.0*
1,1,0.2404,0.0598,0.3298*
1,1,0.2404,0.0598,-0.3298*
1,1,0.2404,-0.0598,-0.3298*
1,1,0.2404,-0.0598,0.3298*
%
%ADD183ROUNDEDRECTD183*%
G04:AMPARAMS|DCode=184|XSize=0.9mm|YSize=0.36mm|CornerRadius=0.1202mm|HoleSize=0mm|Usage=FLASHONLY|Rotation=0.000|XOffset=0mm|YOffset=0mm|HoleType=Round|Shape=RoundedRectangle|*
%AMROUNDEDRECTD184*
21,1,0.9000,0.1196,0,0,0.0*
21,1,0.6596,0.3600,0,0,0.0*
1,1,0.2404,0.3298,-0.0598*
1,1,0.2404,-0.3298,-0.0598*
1,1,0.2404,-0.3298,0.0598*
1,1,0.2404,0.3298,0.0598*
%
%ADD184ROUNDEDRECTD184*%
G04:AMPARAMS|DCode=185|XSize=2.6mm|YSize=2.6mm|CornerRadius=0.175mm|HoleSize=0mm|Usage=FLASHONLY|Rotation=90.000|XOffset=0mm|YOffset=0mm|HoleType=Round|Shape=RoundedRectangle|*
%AMROUNDEDRECTD185*
21,1,2.6000,2.2500,0,0,90.0*
21,1,2.2500,2.6000,0,0,90.0*
1,1,0.3500,1.1250,1.1250*
1,1,0.3500,1.1250,-1.1250*
1,1,0.3500,-1.1250,-1.1250*
1,1,0.3500,-1.1250,1.1250*
%
%ADD185ROUNDEDRECTD185*%
G04:AMPARAMS|DCode=186|XSize=0.4mm|YSize=0.45mm|CornerRadius=0.11mm|HoleSize=0mm|Usage=FLASHONLY|Rotation=90.000|XOffset=0mm|YOffset=0mm|HoleType=Round|Shape=RoundedRectangle|*
%AMROUNDEDRECTD186*
21,1,0.4000,0.2300,0,0,90.0*
21,1,0.1800,0.4500,0,0,90.0*
1,1,0.2200,0.1150,0.0900*
1,1,0.2200,0.1150,-0.0900*
1,1,0.2200,-0.1150,-0.0900*
1,1,0.2200,-0.1150,0.0900*
%
%ADD186ROUNDEDRECTD186*%
G04:AMPARAMS|DCode=187|XSize=0.4mm|YSize=0.45mm|CornerRadius=0.11mm|HoleSize=0mm|Usage=FLASHONLY|Rotation=0.000|XOffset=0mm|YOffset=0mm|HoleType=Round|Shape=RoundedRectangle|*
%AMROUNDEDRECTD187*
21,1,0.4000,0.2300,0,0,0.0*
21,1,0.1800,0.4500,0,0,0.0*
1,1,0.2200,0.0900,-0.1150*
1,1,0.2200,-0.0900,-0.1150*
1,1,0.2200,-0.0900,0.1150*
1,1,0.2200,0.0900,0.1150*
%
%ADD187ROUNDEDRECTD187*%
G04:AMPARAMS|DCode=188|XSize=3.9mm|YSize=1.1mm|CornerRadius=0.15mm|HoleSize=0mm|Usage=FLASHONLY|Rotation=90.000|XOffset=0mm|YOffset=0mm|HoleType=Round|Shape=RoundedRectangle|*
%AMROUNDEDRECTD188*
21,1,3.9000,0.8000,0,0,90.0*
21,1,3.6000,1.1000,0,0,90.0*
1,1,0.3000,0.4000,1.8000*
1,1,0.3000,0.4000,-1.8000*
1,1,0.3000,-0.4000,-1.8000*
1,1,0.3000,-0.4000,1.8000*
%
%ADD188ROUNDEDRECTD188*%
G04:AMPARAMS|DCode=189|XSize=3.9mm|YSize=1.1mm|CornerRadius=0.15mm|HoleSize=0mm|Usage=FLASHONLY|Rotation=0.000|XOffset=0mm|YOffset=0mm|HoleType=Round|Shape=RoundedRectangle|*
%AMROUNDEDRECTD189*
21,1,3.9000,0.8000,0,0,0.0*
21,1,3.6000,1.1000,0,0,0.0*
1,1,0.3000,1.8000,-0.4000*
1,1,0.3000,-1.8000,-0.4000*
1,1,0.3000,-1.8000,0.4000*
1,1,0.3000,1.8000,0.4000*
%
%ADD189ROUNDEDRECTD189*%
G04:AMPARAMS|DCode=190|XSize=0.94mm|YSize=0.35mm|CornerRadius=0.1125mm|HoleSize=0mm|Usage=FLASHONLY|Rotation=0.000|XOffset=0mm|YOffset=0mm|HoleType=Round|Shape=RoundedRectangle|*
%AMROUNDEDRECTD190*
21,1,0.9400,0.1250,0,0,0.0*
21,1,0.7150,0.3500,0,0,0.0*
1,1,0.2250,0.3575,-0.0625*
1,1,0.2250,-0.3575,-0.0625*
1,1,0.2250,-0.3575,0.0625*
1,1,0.2250,0.3575,0.0625*
%
%ADD190ROUNDEDRECTD190*%
G04:AMPARAMS|DCode=191|XSize=0.94mm|YSize=0.35mm|CornerRadius=0.1125mm|HoleSize=0mm|Usage=FLASHONLY|Rotation=90.000|XOffset=0mm|YOffset=0mm|HoleType=Round|Shape=RoundedRectangle|*
%AMROUNDEDRECTD191*
21,1,0.9400,0.1250,0,0,90.0*
21,1,0.7150,0.3500,0,0,90.0*
1,1,0.2250,0.0625,0.3575*
1,1,0.2250,0.0625,-0.3575*
1,1,0.2250,-0.0625,-0.3575*
1,1,0.2250,-0.0625,0.3575*
%
%ADD191ROUNDEDRECTD191*%
G04:AMPARAMS|DCode=192|XSize=1.3mm|YSize=1.3mm|CornerRadius=0.14mm|HoleSize=0mm|Usage=FLASHONLY|Rotation=180.000|XOffset=0mm|YOffset=0mm|HoleType=Round|Shape=RoundedRectangle|*
%AMROUNDEDRECTD192*
21,1,1.3000,1.0200,0,0,180.0*
21,1,1.0200,1.3000,0,0,180.0*
1,1,0.2800,-0.5100,0.5100*
1,1,0.2800,0.5100,0.5100*
1,1,0.2800,0.5100,-0.5100*
1,1,0.2800,-0.5100,-0.5100*
%
%ADD192ROUNDEDRECTD192*%
G04:AMPARAMS|DCode=193|XSize=0.725mm|YSize=0.425mm|CornerRadius=0.1069mm|HoleSize=0mm|Usage=FLASHONLY|Rotation=90.000|XOffset=0mm|YOffset=0mm|HoleType=Round|Shape=RoundedRectangle|*
%AMROUNDEDRECTD193*
21,1,0.7250,0.2112,0,0,90.0*
21,1,0.5113,0.4250,0,0,90.0*
1,1,0.2138,0.1056,0.2556*
1,1,0.2138,0.1056,-0.2556*
1,1,0.2138,-0.1056,-0.2556*
1,1,0.2138,-0.1056,0.2556*
%
%ADD193ROUNDEDRECTD193*%
G04:AMPARAMS|DCode=194|XSize=0.4mm|YSize=0.33mm|CornerRadius=0.0903mm|HoleSize=0mm|Usage=FLASHONLY|Rotation=270.000|XOffset=0mm|YOffset=0mm|HoleType=Round|Shape=RoundedRectangle|*
%AMROUNDEDRECTD194*
21,1,0.4000,0.1495,0,0,270.0*
21,1,0.2195,0.3300,0,0,270.0*
1,1,0.1805,-0.0748,-0.1098*
1,1,0.1805,-0.0748,0.1098*
1,1,0.1805,0.0748,0.1098*
1,1,0.1805,0.0748,-0.1098*
%
%ADD194ROUNDEDRECTD194*%
G04:AMPARAMS|DCode=195|XSize=0.4mm|YSize=0.675mm|CornerRadius=0.1025mm|HoleSize=0mm|Usage=FLASHONLY|Rotation=90.000|XOffset=0mm|YOffset=0mm|HoleType=Round|Shape=RoundedRectangle|*
%AMROUNDEDRECTD195*
21,1,0.4000,0.4700,0,0,90.0*
21,1,0.1950,0.6750,0,0,90.0*
1,1,0.2050,0.2350,0.0975*
1,1,0.2050,0.2350,-0.0975*
1,1,0.2050,-0.2350,-0.0975*
1,1,0.2050,-0.2350,0.0975*
%
%ADD195ROUNDEDRECTD195*%
G04:AMPARAMS|DCode=196|XSize=0.725mm|YSize=0.425mm|CornerRadius=0.1069mm|HoleSize=0mm|Usage=FLASHONLY|Rotation=180.000|XOffset=0mm|YOffset=0mm|HoleType=Round|Shape=RoundedRectangle|*
%AMROUNDEDRECTD196*
21,1,0.7250,0.2112,0,0,180.0*
21,1,0.5113,0.4250,0,0,180.0*
1,1,0.2138,-0.2556,0.1056*
1,1,0.2138,0.2556,0.1056*
1,1,0.2138,0.2556,-0.1056*
1,1,0.2138,-0.2556,-0.1056*
%
%ADD196ROUNDEDRECTD196*%
G04:AMPARAMS|DCode=197|XSize=0.4mm|YSize=0.8mm|CornerRadius=0.125mm|HoleSize=0mm|Usage=FLASHONLY|Rotation=0.000|XOffset=0mm|YOffset=0mm|HoleType=Round|Shape=RoundedRectangle|*
%AMROUNDEDRECTD197*
21,1,0.4000,0.5500,0,0,0.0*
21,1,0.1500,0.8000,0,0,0.0*
1,1,0.2500,0.0750,-0.2750*
1,1,0.2500,-0.0750,-0.2750*
1,1,0.2500,-0.0750,0.2750*
1,1,0.2500,0.0750,0.2750*
%
%ADD197ROUNDEDRECTD197*%
G04:AMPARAMS|DCode=198|XSize=0.7mm|YSize=1.05mm|CornerRadius=0.125mm|HoleSize=0mm|Usage=FLASHONLY|Rotation=0.000|XOffset=0mm|YOffset=0mm|HoleType=Round|Shape=RoundedRectangle|*
%AMROUNDEDRECTD198*
21,1,0.7000,0.8000,0,0,0.0*
21,1,0.4500,1.0500,0,0,0.0*
1,1,0.2500,0.2250,-0.4000*
1,1,0.2500,-0.2250,-0.4000*
1,1,0.2500,-0.2250,0.4000*
1,1,0.2500,0.2250,0.4000*
%
%ADD198ROUNDEDRECTD198*%
G04:AMPARAMS|DCode=199|XSize=0.55mm|YSize=0.345mm|CornerRadius=0.0806mm|HoleSize=0mm|Usage=FLASHONLY|Rotation=180.000|XOffset=0mm|YOffset=0mm|HoleType=Round|Shape=RoundedRectangle|*
%AMROUNDEDRECTD199*
21,1,0.5500,0.1838,0,0,180.0*
21,1,0.3888,0.3450,0,0,180.0*
1,1,0.1613,-0.1944,0.0919*
1,1,0.1613,0.1944,0.0919*
1,1,0.1613,0.1944,-0.0919*
1,1,0.1613,-0.1944,-0.0919*
%
%ADD199ROUNDEDRECTD199*%
G04:AMPARAMS|DCode=200|XSize=0.9mm|YSize=0.6mm|CornerRadius=0.1125mm|HoleSize=0mm|Usage=FLASHONLY|Rotation=180.000|XOffset=0mm|YOffset=0mm|HoleType=Round|Shape=RoundedRectangle|*
%AMROUNDEDRECTD200*
21,1,0.9000,0.3750,0,0,180.0*
21,1,0.6750,0.6000,0,0,180.0*
1,1,0.2250,-0.3375,0.1875*
1,1,0.2250,0.3375,0.1875*
1,1,0.2250,0.3375,-0.1875*
1,1,0.2250,-0.3375,-0.1875*
%
%ADD200ROUNDEDRECTD200*%
G04:AMPARAMS|DCode=201|XSize=0.325mm|YSize=0.45mm|CornerRadius=0.0781mm|HoleSize=0mm|Usage=FLASHONLY|Rotation=0.000|XOffset=0mm|YOffset=0mm|HoleType=Round|Shape=RoundedRectangle|*
%AMROUNDEDRECTD201*
21,1,0.3250,0.2938,0,0,0.0*
21,1,0.1688,0.4500,0,0,0.0*
1,1,0.1563,0.0844,-0.1469*
1,1,0.1563,-0.0844,-0.1469*
1,1,0.1563,-0.0844,0.1469*
1,1,0.1563,0.0844,0.1469*
%
%ADD201ROUNDEDRECTD201*%
%ADD202C,3.0000*%
G04:AMPARAMS|DCode=203|XSize=1.2mm|YSize=0.75mm|CornerRadius=0.2125mm|HoleSize=0mm|Usage=FLASHONLY|Rotation=270.000|XOffset=0mm|YOffset=0mm|HoleType=Round|Shape=RoundedRectangle|*
%AMROUNDEDRECTD203*
21,1,1.2000,0.3250,0,0,270.0*
21,1,0.7750,0.7500,0,0,270.0*
1,1,0.4250,-0.1625,-0.3875*
1,1,0.4250,-0.1625,0.3875*
1,1,0.4250,0.1625,0.3875*
1,1,0.4250,0.1625,-0.3875*
%
%ADD203ROUNDEDRECTD203*%
%ADD204C,5.2000*%
%ADD205C,1.9000*%
G04:AMPARAMS|DCode=206|XSize=1.9mm|YSize=1.9mm|CornerRadius=0.5mm|HoleSize=0mm|Usage=FLASHONLY|Rotation=270.000|XOffset=0mm|YOffset=0mm|HoleType=Round|Shape=RoundedRectangle|*
%AMROUNDEDRECTD206*
21,1,1.9000,0.9000,0,0,270.0*
21,1,0.9000,1.9000,0,0,270.0*
1,1,1.0000,-0.4500,-0.4500*
1,1,1.0000,-0.4500,0.4500*
1,1,1.0000,0.4500,0.4500*
1,1,1.0000,0.4500,-0.4500*
%
%ADD206ROUNDEDRECTD206*%
%ADD207C,1.8000*%
%ADD208C,1.3000*%
%ADD209O,1.1000X1.6400*%
%ADD210O,2.1000X1.1000*%
%ADD211O,1.6000X1.1000*%
%ADD212C,6.2000*%
%ADD213C,5.1000*%
%ADD214O,5.2000X4.2000*%
G36*
X2109000Y912254D02*
X2111389Y912254D01*
X2116075Y911322D01*
X2120488Y909493D01*
X2124461Y906839D01*
X2127839Y903461D01*
X2130493Y899488D01*
X2132322Y895074D01*
X2133254Y890389D01*
X2133254Y888000D01*
X2133254Y888000D01*
Y883500D01*
Y883052D01*
X2132911Y882223D01*
X2132277Y881589D01*
X2131448Y881246D01*
X2130552D01*
X2129723Y881589D01*
X2129089Y882223D01*
X2128746Y883052D01*
Y883500D01*
Y888000D01*
X2128651Y889935D01*
X2127896Y893732D01*
X2126415Y897308D01*
X2124264Y900527D01*
X2121527Y903264D01*
X2118308Y905415D01*
X2114732Y906896D01*
X2110936Y907651D01*
X2109000Y907746D01*
X2081000D01*
X2079065Y907651D01*
X2075268Y906896D01*
X2071692Y905415D01*
X2068473Y903264D01*
X2065736Y900527D01*
X2063585Y897308D01*
X2062104Y893732D01*
X2061349Y889935D01*
X2061254Y888000D01*
Y883500D01*
Y883052D01*
X2060911Y882223D01*
X2060277Y881589D01*
X2059448Y881246D01*
X2058552D01*
X2057723Y881589D01*
X2057089Y882223D01*
X2056746Y883052D01*
Y883500D01*
Y888000D01*
Y890389D01*
X2057678Y895074D01*
X2059507Y899488D01*
X2062161Y903461D01*
X2065539Y906839D01*
X2069512Y909493D01*
X2073925Y911322D01*
X2078611Y912254D01*
X2081000Y912254D01*
X2081000Y912254D01*
X2109000Y912254D01*
D02*
G37*
G36*
X1827000D02*
X1829389Y912254D01*
X1834075Y911322D01*
X1838488Y909493D01*
X1842461Y906839D01*
X1845839Y903461D01*
X1848493Y899488D01*
X1850322Y895074D01*
X1851254Y890389D01*
X1851254Y888000D01*
X1851254Y888000D01*
Y883500D01*
Y883052D01*
X1850911Y882223D01*
X1850277Y881589D01*
X1849448Y881246D01*
X1848552D01*
X1847723Y881589D01*
X1847089Y882223D01*
X1846746Y883052D01*
Y883500D01*
Y888000D01*
X1846651Y889935D01*
X1845896Y893732D01*
X1844415Y897308D01*
X1842264Y900527D01*
X1839527Y903264D01*
X1836308Y905415D01*
X1832732Y906896D01*
X1828936Y907651D01*
X1827000Y907746D01*
X1799000D01*
X1797065Y907651D01*
X1793268Y906896D01*
X1789692Y905415D01*
X1786473Y903264D01*
X1783736Y900527D01*
X1781585Y897308D01*
X1780104Y893732D01*
X1779349Y889935D01*
X1779254Y888000D01*
Y883500D01*
Y883052D01*
X1778911Y882223D01*
X1778277Y881589D01*
X1777448Y881246D01*
X1776552D01*
X1775723Y881589D01*
X1775089Y882223D01*
X1774746Y883052D01*
Y883500D01*
Y888000D01*
Y890389D01*
X1775678Y895074D01*
X1777507Y899488D01*
X1780161Y903461D01*
X1783539Y906839D01*
X1787511Y909493D01*
X1791925Y911322D01*
X1796611Y912254D01*
X1799000Y912254D01*
X1799000Y912254D01*
X1827000Y912254D01*
D02*
G37*
G36*
X2160688Y944993D02*
X2160782Y944964D01*
X2160869Y944918D01*
X2160945Y944855D01*
X2161008Y944779D01*
X2161054Y944692D01*
X2161083Y944598D01*
X2161092Y944500D01*
Y911000D01*
X2161083Y910902D01*
X2161054Y910808D01*
X2161008Y910721D01*
X2160945Y910645D01*
X2160869Y910582D01*
X2160782Y910536D01*
X2160688Y910507D01*
X2160590Y910498D01*
X2150590D01*
X2150492Y910507D01*
X2150398Y910536D01*
X2150311Y910582D01*
X2150235Y910645D01*
X2150172Y910721D01*
X2150126Y910808D01*
X2150097Y910902D01*
X2150087Y911000D01*
Y933998D01*
X2130590D01*
X2130492Y934007D01*
X2130398Y934036D01*
X2130311Y934082D01*
X2130235Y934145D01*
X2130172Y934221D01*
X2130126Y934308D01*
X2130097Y934402D01*
X2130087Y934500D01*
Y944500D01*
X2130097Y944598D01*
X2130126Y944692D01*
X2130172Y944779D01*
X2130235Y944855D01*
X2130311Y944918D01*
X2130398Y944964D01*
X2130492Y944993D01*
X2130590Y945002D01*
X2160590D01*
X2160688Y944993D01*
D02*
G37*
G36*
X1928508D02*
X1928602Y944964D01*
X1928689Y944918D01*
X1928765Y944855D01*
X1928828Y944779D01*
X1928874Y944692D01*
X1928903Y944598D01*
X1928913Y944500D01*
Y934500D01*
X1928903Y934402D01*
X1928874Y934308D01*
X1928828Y934221D01*
X1928765Y934145D01*
X1928689Y934082D01*
X1928602Y934036D01*
X1928508Y934007D01*
X1928410Y933998D01*
X1908913D01*
Y911000D01*
X1908903Y910902D01*
X1908874Y910808D01*
X1908828Y910721D01*
X1908765Y910645D01*
X1908689Y910582D01*
X1908602Y910536D01*
X1908508Y910507D01*
X1908410Y910498D01*
X1898410D01*
X1898312Y910507D01*
X1898218Y910536D01*
X1898131Y910582D01*
X1898055Y910645D01*
X1897992Y910721D01*
X1897946Y910808D01*
X1897917Y910902D01*
X1897908Y911000D01*
Y944500D01*
X1897917Y944598D01*
X1897946Y944692D01*
X1897992Y944779D01*
X1898055Y944855D01*
X1898131Y944918D01*
X1898218Y944964D01*
X1898312Y944993D01*
X1898410Y945002D01*
X1928410D01*
X1928508Y944993D01*
D02*
G37*
G36*
X1877688Y944993D02*
X1877782Y944964D01*
X1877869Y944918D01*
X1877945Y944855D01*
X1878008Y944779D01*
X1878054Y944692D01*
X1878083Y944598D01*
X1878092Y944500D01*
Y911000D01*
X1878083Y910902D01*
X1878054Y910808D01*
X1878008Y910721D01*
X1877945Y910645D01*
X1877869Y910582D01*
X1877782Y910536D01*
X1877688Y910507D01*
X1877590Y910498D01*
X1867590D01*
X1867492Y910507D01*
X1867398Y910536D01*
X1867311Y910582D01*
X1867235Y910645D01*
X1867172Y910721D01*
X1867126Y910808D01*
X1867097Y910902D01*
X1867087Y911000D01*
Y933997D01*
X1847590D01*
X1847492Y934007D01*
X1847398Y934036D01*
X1847311Y934082D01*
X1847235Y934145D01*
X1847172Y934221D01*
X1847126Y934308D01*
X1847097Y934402D01*
X1847087Y934500D01*
Y944500D01*
X1847097Y944598D01*
X1847126Y944692D01*
X1847172Y944779D01*
X1847235Y944855D01*
X1847311Y944918D01*
X1847398Y944964D01*
X1847492Y944993D01*
X1847590Y945002D01*
X1877590D01*
X1877688Y944993D01*
D02*
G37*
G36*
X1645508D02*
X1645602Y944964D01*
X1645689Y944918D01*
X1645765Y944855D01*
X1645828Y944779D01*
X1645874Y944692D01*
X1645903Y944598D01*
X1645913Y944500D01*
Y934500D01*
X1645903Y934402D01*
X1645874Y934308D01*
X1645828Y934221D01*
X1645765Y934145D01*
X1645689Y934082D01*
X1645602Y934036D01*
X1645508Y934007D01*
X1645410Y933997D01*
X1625913D01*
Y911000D01*
X1625903Y910902D01*
X1625874Y910808D01*
X1625828Y910721D01*
X1625766Y910645D01*
X1625689Y910582D01*
X1625602Y910536D01*
X1625508Y910507D01*
X1625410Y910498D01*
X1615410D01*
X1615312Y910507D01*
X1615218Y910536D01*
X1615131Y910582D01*
X1615055Y910645D01*
X1614993Y910721D01*
X1614946Y910808D01*
X1614917Y910902D01*
X1614908Y911000D01*
Y944500D01*
X1614917Y944598D01*
X1614946Y944692D01*
X1614993Y944779D01*
X1615055Y944855D01*
X1615131Y944918D01*
X1615218Y944964D01*
X1615312Y944993D01*
X1615410Y945002D01*
X1645410D01*
X1645508Y944993D01*
D02*
G37*
G36*
X1948277Y908411D02*
X1948911Y907777D01*
X1949254Y906948D01*
X1949254Y906052D01*
X1948911Y905223D01*
X1948277Y904589D01*
X1947448Y904246D01*
X1947000D01*
X1945480Y904246D01*
X1943792Y904163D01*
X1940480Y903504D01*
X1937360Y902212D01*
X1934552Y900336D01*
X1932164Y897948D01*
X1930288Y895140D01*
X1928995Y892020D01*
X1928337Y888708D01*
X1928254Y887020D01*
Y883000D01*
Y882552D01*
X1927911Y881723D01*
X1927277Y881089D01*
X1926448Y880746D01*
X1925552D01*
X1924723Y881089D01*
X1924089Y881723D01*
X1923746Y882552D01*
Y883000D01*
Y887020D01*
X1923746Y889160D01*
X1924581Y893359D01*
X1926220Y897315D01*
X1928598Y900874D01*
X1931626Y903902D01*
X1935185Y906280D01*
X1939141Y907918D01*
X1943340Y908754D01*
X1945480Y908754D01*
X1945480Y908754D01*
X1947000Y908754D01*
X1947448Y908754D01*
X1948277Y908411D01*
D02*
G37*
G36*
X1666277D02*
X1666911Y907777D01*
X1667254Y906948D01*
X1667254Y906052D01*
X1666911Y905223D01*
X1666277Y904589D01*
X1665448Y904246D01*
X1665000D01*
X1663480Y904246D01*
X1661792Y904163D01*
X1658480Y903504D01*
X1655360Y902212D01*
X1652552Y900336D01*
X1650164Y897948D01*
X1648288Y895140D01*
X1646995Y892020D01*
X1646337Y888708D01*
X1646254Y887020D01*
Y883000D01*
Y882552D01*
X1645911Y881723D01*
X1645277Y881089D01*
X1644448Y880746D01*
X1643552D01*
X1642723Y881089D01*
X1642089Y881723D01*
X1641746Y882552D01*
Y883000D01*
Y887020D01*
X1641746Y889160D01*
X1642581Y893359D01*
X1644220Y897315D01*
X1646598Y900874D01*
X1649626Y903902D01*
X1653185Y906280D01*
X1657141Y907918D01*
X1661340Y908754D01*
X1663480Y908754D01*
X1663480Y908754D01*
X1665000Y908754D01*
X1665448Y908754D01*
X1666277Y908411D01*
D02*
G37*
G36*
X1952277Y891911D02*
X1952911Y891277D01*
X1953254Y890448D01*
X1953254Y889552D01*
X1952911Y888723D01*
X1952277Y888089D01*
X1951448Y887746D01*
X1951000Y887746D01*
X1940500D01*
X1939671Y887665D01*
X1938141Y887031D01*
X1936969Y885859D01*
X1936335Y884328D01*
X1936254Y883500D01*
Y883000D01*
Y882552D01*
X1935911Y881723D01*
X1935277Y881089D01*
X1934448Y880746D01*
X1933552D01*
X1932723Y881089D01*
X1932089Y881723D01*
X1931746Y882552D01*
Y883000D01*
Y883500D01*
Y884362D01*
X1932083Y886053D01*
X1932742Y887646D01*
X1933700Y889080D01*
X1934920Y890300D01*
X1936353Y891257D01*
X1937946Y891917D01*
X1939638Y892254D01*
X1940500Y892254D01*
X1940500Y892254D01*
X1951448D01*
X1952277Y891911D01*
D02*
G37*
G36*
X1670277D02*
X1670911Y891277D01*
X1671254Y890448D01*
X1671254Y889552D01*
X1670911Y888723D01*
X1670277Y888089D01*
X1669448Y887746D01*
X1669000Y887746D01*
X1658500D01*
X1657672Y887665D01*
X1656141Y887031D01*
X1654969Y885859D01*
X1654335Y884328D01*
X1654254Y883500D01*
Y883000D01*
Y882552D01*
X1653911Y881723D01*
X1653277Y881089D01*
X1652448Y880746D01*
X1651552D01*
X1650723Y881089D01*
X1650089Y881723D01*
X1649746Y882552D01*
Y883000D01*
Y883500D01*
Y884362D01*
X1650083Y886053D01*
X1650742Y887646D01*
X1651700Y889080D01*
X1652920Y890300D01*
X1654353Y891257D01*
X1655947Y891917D01*
X1657638Y892254D01*
X1658500Y892254D01*
X1658500Y892254D01*
X1669448D01*
X1670277Y891911D01*
D02*
G37*
G36*
X2077827Y896718D02*
X2078645Y896077D01*
X2079100Y895142D01*
X2079100Y894623D01*
Y894245D01*
X2078854Y893531D01*
X2078388Y892936D01*
X2077753Y892525D01*
X2077386Y892435D01*
X2075842Y891926D01*
X2073071Y890242D01*
X2070933Y887804D01*
X2069623Y884838D01*
X2069320Y883240D01*
X2069320Y883240D01*
X2069270Y882795D01*
X2068837Y882010D01*
X2068136Y881450D01*
X2067275Y881201D01*
X2066384Y881301D01*
X2065599Y881734D01*
X2065040Y882435D01*
X2064791Y883296D01*
X2064841Y883742D01*
X2064969Y884893D01*
X2065573Y887131D01*
X2066510Y889252D01*
X2067756Y891206D01*
X2069285Y892948D01*
X2071060Y894439D01*
X2073041Y895643D01*
X2075181Y896533D01*
X2076306Y896811D01*
X2076811Y896935D01*
X2077827Y896718D01*
D02*
G37*
G36*
X1795827D02*
X1796645Y896077D01*
X1797100Y895142D01*
X1797100Y894623D01*
Y894245D01*
X1796854Y893531D01*
X1796388Y892936D01*
X1795753Y892525D01*
X1795386Y892435D01*
X1793842Y891926D01*
X1791071Y890242D01*
X1788933Y887804D01*
X1787623Y884838D01*
X1787320Y883240D01*
X1787320Y883240D01*
X1787270Y882795D01*
X1786837Y882010D01*
X1786136Y881450D01*
X1785275Y881201D01*
X1784384Y881301D01*
X1783599Y881734D01*
X1783040Y882435D01*
X1782791Y883296D01*
X1782841Y883742D01*
X1782969Y884893D01*
X1783573Y887131D01*
X1784510Y889252D01*
X1785756Y891206D01*
X1787285Y892948D01*
X1789060Y894439D01*
X1791041Y895643D01*
X1793181Y896533D01*
X1794306Y896811D01*
X1794811Y896935D01*
X1795827Y896718D01*
D02*
G37*
G36*
X2113694Y896811D02*
X2114823Y896532D01*
X2116972Y895637D01*
X2118959Y894425D01*
X2120739Y892925D01*
X2122269Y891172D01*
X2123515Y889206D01*
X2124447Y887073D01*
X2125044Y884823D01*
X2125168Y883666D01*
X2125168Y883666D01*
X2125181Y883427D01*
Y882994D01*
X2124860Y882190D01*
X2124264Y881562D01*
X2123479Y881199D01*
X2122614Y881153D01*
X2121794Y881430D01*
X2121136Y881992D01*
X2120732Y882757D01*
X2120686Y883187D01*
X2120389Y884793D01*
X2119085Y887776D01*
X2116944Y890229D01*
X2114164Y891924D01*
X2112614Y892435D01*
Y892435D01*
X2112178Y892542D01*
X2111456Y893074D01*
X2110993Y893841D01*
X2110858Y894727D01*
X2111073Y895598D01*
X2111605Y896320D01*
X2112372Y896784D01*
X2113258Y896918D01*
X2113694Y896811D01*
D02*
G37*
G36*
X1831694D02*
X1832823Y896532D01*
X1834972Y895637D01*
X1836959Y894425D01*
X1838739Y892925D01*
X1840269Y891172D01*
X1841515Y889206D01*
X1842448Y887073D01*
X1843044Y884823D01*
X1843168Y883666D01*
X1843168Y883666D01*
X1843181Y883427D01*
Y882994D01*
X1842860Y882190D01*
X1842264Y881562D01*
X1841479Y881199D01*
X1840614Y881153D01*
X1839794Y881430D01*
X1839136Y881992D01*
X1838732Y882757D01*
X1838686Y883187D01*
X1838389Y884793D01*
X1837085Y887776D01*
X1834944Y890229D01*
X1832164Y891924D01*
X1830614Y892435D01*
Y892435D01*
X1830178Y892542D01*
X1829456Y893074D01*
X1828993Y893841D01*
X1828858Y894727D01*
X1829073Y895598D01*
X1829605Y896320D01*
X1830372Y896784D01*
X1831258Y896918D01*
X1831694Y896811D01*
D02*
G37*
G36*
X1978519Y908754D02*
X1980660Y908754D01*
X1984859Y907919D01*
X1988815Y906280D01*
X1992374Y903902D01*
X1995402Y900874D01*
X1997780Y897315D01*
X1999419Y893359D01*
X2000254Y889160D01*
X2000254Y887019D01*
X2000254Y887020D01*
Y883000D01*
Y882552D01*
X1999911Y881723D01*
X1999277Y881089D01*
X1998448Y880746D01*
X1997552D01*
X1996723Y881089D01*
X1996089Y881723D01*
X1995746Y882552D01*
Y883000D01*
X1995746Y887020D01*
X1995663Y888708D01*
X1995004Y892020D01*
X1993712Y895140D01*
X1991836Y897948D01*
X1989448Y900336D01*
X1986640Y902212D01*
X1983520Y903504D01*
X1980208Y904163D01*
X1978519Y904246D01*
X1978519Y904246D01*
X1976552D01*
X1975723Y904589D01*
X1975089Y905223D01*
X1974746Y906052D01*
Y906948D01*
X1975089Y907777D01*
X1975723Y908411D01*
X1976552Y908754D01*
X1977000D01*
X1978519Y908754D01*
D02*
G37*
G36*
X1983500Y892254D02*
X1984362Y892254D01*
X1986053Y891917D01*
X1987646Y891257D01*
X1989080Y890300D01*
X1990300Y889080D01*
X1991257Y887646D01*
X1991917Y886053D01*
X1992254Y884362D01*
X1992254Y883500D01*
X1992254Y883500D01*
Y883000D01*
Y882552D01*
X1991911Y881723D01*
X1991277Y881089D01*
X1990448Y880746D01*
X1989552D01*
X1988723Y881089D01*
X1988089Y881723D01*
X1987746Y882552D01*
Y883000D01*
Y883500D01*
X1987665Y884328D01*
X1987031Y885859D01*
X1985859Y887031D01*
X1984328Y887665D01*
X1983500Y887746D01*
X1972552D01*
X1971723Y888089D01*
X1971089Y888723D01*
X1970746Y889552D01*
Y890448D01*
X1971089Y891277D01*
X1971723Y891911D01*
X1972552Y892254D01*
X1973000D01*
X1983500Y892254D01*
D02*
G37*
G36*
X1696519Y908754D02*
X1698660Y908754D01*
X1702859Y907919D01*
X1706815Y906280D01*
X1710374Y903902D01*
X1713402Y900874D01*
X1715780Y897315D01*
X1717419Y893359D01*
X1718254Y889160D01*
X1718254Y887019D01*
X1718254Y887020D01*
Y883000D01*
Y882552D01*
X1717911Y881723D01*
X1717277Y881089D01*
X1716448Y880746D01*
X1715552D01*
X1714723Y881089D01*
X1714089Y881723D01*
X1713746Y882552D01*
Y883000D01*
X1713746Y887020D01*
X1713663Y888708D01*
X1713004Y892020D01*
X1711712Y895140D01*
X1709836Y897948D01*
X1707448Y900336D01*
X1704640Y902212D01*
X1701520Y903504D01*
X1698208Y904163D01*
X1696519Y904246D01*
X1696519Y904246D01*
X1694552D01*
X1693723Y904589D01*
X1693089Y905223D01*
X1692746Y906052D01*
Y906948D01*
X1693089Y907777D01*
X1693723Y908411D01*
X1694552Y908754D01*
X1695000D01*
X1696519Y908754D01*
D02*
G37*
G36*
X1701500Y892254D02*
X1702362Y892254D01*
X1704053Y891917D01*
X1705647Y891257D01*
X1707080Y890300D01*
X1708300Y889080D01*
X1709258Y887646D01*
X1709917Y886053D01*
X1710254Y884362D01*
X1710254Y883500D01*
X1710254Y883500D01*
Y883000D01*
Y882552D01*
X1709911Y881723D01*
X1709277Y881089D01*
X1708448Y880746D01*
X1707552D01*
X1706723Y881089D01*
X1706089Y881723D01*
X1705746Y882552D01*
Y883000D01*
Y883500D01*
X1705665Y884328D01*
X1705031Y885859D01*
X1703859Y887031D01*
X1702328Y887665D01*
X1701500Y887746D01*
X1690552D01*
X1689723Y888089D01*
X1689089Y888723D01*
X1688746Y889552D01*
Y890448D01*
X1689089Y891277D01*
X1689723Y891911D01*
X1690552Y892254D01*
X1691000D01*
X1701500Y892254D01*
D02*
G37*
G36*
X1917126Y870512D02*
X1917582Y870197D01*
X1917725Y869959D01*
X1918558Y868569D01*
X1918558Y868569D01*
X1918701Y868331D01*
X1918822Y867788D01*
X1918766Y867234D01*
X1918537Y866727D01*
X1918348Y866523D01*
X1918349Y866523D01*
X1918214Y866362D01*
X1917993Y866008D01*
X1917841Y865619D01*
X1917763Y865209D01*
X1917754Y865000D01*
Y771500D01*
X1917754Y771500D01*
X1917807Y770964D01*
X1918217Y769974D01*
X1918974Y769217D01*
X1919964Y768807D01*
X1920500Y768754D01*
X1922861D01*
X1923383Y768779D01*
X1924406Y768983D01*
X1925371Y769382D01*
X1926239Y769962D01*
X1926626Y770313D01*
X1928846Y772533D01*
X1928846Y772533D01*
X1929180Y772867D01*
X1929920Y773457D01*
X1930721Y773961D01*
X1931573Y774372D01*
X1932019Y774529D01*
Y774528D01*
X1932147Y774573D01*
X1932417Y774552D01*
X1932656Y774423D01*
X1932823Y774209D01*
X1932856Y774078D01*
X1933581Y771175D01*
X1933581Y771175D01*
X1933621Y771017D01*
X1933590Y770693D01*
X1933453Y770398D01*
X1933225Y770166D01*
X1933079Y770094D01*
X1933079Y770094D01*
X1932937Y770020D01*
X1932661Y769856D01*
X1932400Y769670D01*
X1932155Y769463D01*
X1932039Y769352D01*
X1932033Y769346D01*
X1929813Y767126D01*
X1929813D01*
X1929129Y766441D01*
X1927518Y765365D01*
X1925729Y764624D01*
X1923829Y764246D01*
X1922861Y764246D01*
X1919786D01*
X1918384Y764525D01*
X1917064Y765072D01*
X1915876Y765866D01*
X1914866Y766876D01*
X1914072Y768064D01*
X1913525Y769384D01*
X1913246Y770786D01*
Y771500D01*
Y865000D01*
X1913246Y865767D01*
X1913590Y867261D01*
X1914260Y868640D01*
X1915222Y869834D01*
X1915824Y870308D01*
Y870308D01*
X1916042Y870480D01*
X1916581Y870613D01*
X1917126Y870512D01*
D02*
G37*
G36*
X1635126D02*
X1635582Y870197D01*
X1635725Y869959D01*
X1636558Y868569D01*
X1636558Y868569D01*
X1636701Y868331D01*
X1636822Y867788D01*
X1636766Y867234D01*
X1636537Y866727D01*
X1636348Y866523D01*
X1636349Y866523D01*
X1636214Y866362D01*
X1635993Y866008D01*
X1635841Y865619D01*
X1635763Y865209D01*
X1635754Y865000D01*
Y771500D01*
X1635754Y771500D01*
X1635806Y770964D01*
X1636216Y769974D01*
X1636974Y769217D01*
X1637964Y768807D01*
X1638500Y768754D01*
X1640861D01*
X1641383Y768779D01*
X1642406Y768983D01*
X1643371Y769382D01*
X1644239Y769962D01*
X1644626Y770313D01*
X1646846Y772533D01*
X1646846Y772533D01*
X1647180Y772867D01*
X1647920Y773457D01*
X1648721Y773961D01*
X1649573Y774372D01*
X1650019Y774529D01*
Y774528D01*
X1650147Y774573D01*
X1650417Y774552D01*
X1650656Y774423D01*
X1650823Y774209D01*
X1650856Y774078D01*
X1651581Y771175D01*
X1651581Y771175D01*
X1651621Y771017D01*
X1651590Y770693D01*
X1651453Y770398D01*
X1651225Y770166D01*
X1651079Y770094D01*
X1651079Y770094D01*
X1650937Y770020D01*
X1650661Y769856D01*
X1650400Y769670D01*
X1650155Y769463D01*
X1650039Y769352D01*
X1650033Y769346D01*
X1647813Y767126D01*
X1647813D01*
X1647128Y766441D01*
X1645518Y765365D01*
X1643729Y764624D01*
X1641829Y764246D01*
X1640861Y764246D01*
X1637786D01*
X1636384Y764525D01*
X1635064Y765072D01*
X1633876Y765866D01*
X1632865Y766876D01*
X1632072Y768064D01*
X1631525Y769384D01*
X1631246Y770786D01*
Y771500D01*
Y865000D01*
X1631246Y865767D01*
X1631590Y867261D01*
X1632260Y868640D01*
X1633222Y869834D01*
X1633824Y870308D01*
Y870308D01*
X1634042Y870480D01*
X1634581Y870613D01*
X1635126Y870512D01*
D02*
G37*
G36*
X2050991Y870267D02*
X2051807Y869103D01*
X2051806Y868392D01*
X2051807Y868195D01*
X2051738Y867807D01*
X2051603Y867436D01*
X2051406Y867095D01*
X2051279Y866944D01*
X2051279Y866944D01*
X2051160Y866788D01*
X2050964Y866449D01*
X2050830Y866081D01*
X2050762Y865696D01*
X2050754Y865500D01*
Y865500D01*
X2050754Y794500D01*
Y793413D01*
X2050191Y791314D01*
X2049105Y789432D01*
X2047568Y787895D01*
X2046627Y787352D01*
X2046239Y787128D01*
X2045350Y787011D01*
X2044484Y787243D01*
X2043772Y787789D01*
X2043324Y788565D01*
X2043207Y789454D01*
X2043439Y790320D01*
X2043985Y791031D01*
X2044373Y791256D01*
X2044373Y791256D01*
X2044780Y791528D01*
X2045472Y792219D01*
X2045961Y793066D01*
X2046214Y794011D01*
X2046246Y794500D01*
X2046246Y794500D01*
X2046246Y865500D01*
Y866091D01*
X2046451Y867255D01*
X2046856Y868365D01*
X2047446Y869389D01*
X2047826Y869841D01*
X2048283Y870386D01*
X2049656Y870753D01*
X2050991Y870267D01*
D02*
G37*
G36*
X1768991D02*
X1769807Y869103D01*
X1769807Y868392D01*
X1769807Y868195D01*
X1769738Y867807D01*
X1769603Y867436D01*
X1769406Y867095D01*
X1769279Y866944D01*
X1769279Y866944D01*
X1769160Y866788D01*
X1768964Y866449D01*
X1768830Y866081D01*
X1768762Y865696D01*
X1768754Y865500D01*
Y865500D01*
X1768754Y794500D01*
Y793413D01*
X1768191Y791314D01*
X1767105Y789432D01*
X1765568Y787895D01*
X1764627Y787352D01*
X1764239Y787128D01*
X1763350Y787011D01*
X1762484Y787243D01*
X1761772Y787789D01*
X1761324Y788565D01*
X1761207Y789454D01*
X1761439Y790320D01*
X1761985Y791031D01*
X1762373Y791256D01*
X1762373Y791256D01*
X1762780Y791528D01*
X1763472Y792219D01*
X1763961Y793066D01*
X1764214Y794011D01*
X1764246Y794500D01*
X1764246Y794500D01*
X1764246Y865500D01*
Y866091D01*
X1764451Y867255D01*
X1764856Y868365D01*
X1765446Y869389D01*
X1765826Y869841D01*
X1766283Y870386D01*
X1767656Y870753D01*
X1768991Y870267D01*
D02*
G37*
G36*
X1999777Y954911D02*
X2000411Y954277D01*
X2000754Y953448D01*
Y953000D01*
Y922071D01*
X2000825Y920619D01*
X2001392Y917770D01*
X2002503Y915086D01*
X2004117Y912671D01*
X2005094Y911594D01*
X2005103Y911585D01*
X2005103Y911585D01*
X2006447Y910239D01*
X2008558Y907076D01*
X2010013Y903561D01*
X2010754Y899831D01*
X2010754Y897929D01*
X2010754Y870000D01*
Y868786D01*
X2009909Y866511D01*
X2008325Y864673D01*
X2006200Y863500D01*
X2005000Y863321D01*
Y867989D01*
X2005268Y868146D01*
X2005728Y868564D01*
X2006055Y869092D01*
X2006225Y869689D01*
X2006246Y870000D01*
Y897929D01*
X2006246D01*
X2006175Y899380D01*
X2005609Y902226D01*
X2004500Y904908D01*
X2002888Y907322D01*
X2001913Y908399D01*
X2001906Y908406D01*
X2001906Y908406D01*
X2000560Y909752D01*
X1998446Y912917D01*
X1996989Y916434D01*
X1996246Y920168D01*
Y922071D01*
Y953000D01*
Y953448D01*
X1996589Y954277D01*
X1997223Y954911D01*
X1998052Y955254D01*
X1998948D01*
X1999777Y954911D01*
D02*
G37*
G36*
X1717777D02*
X1718411Y954277D01*
X1718754Y953448D01*
Y953000D01*
Y922071D01*
X1718825Y920619D01*
X1719392Y917770D01*
X1720503Y915086D01*
X1722117Y912671D01*
X1723094Y911594D01*
X1723103Y911585D01*
X1723103Y911585D01*
X1724447Y910239D01*
X1726558Y907076D01*
X1728013Y903561D01*
X1728754Y899831D01*
X1728754Y897929D01*
X1728754Y870000D01*
Y868786D01*
X1727909Y866511D01*
X1726325Y864673D01*
X1724200Y863500D01*
X1723000Y863321D01*
Y867989D01*
X1723268Y868146D01*
X1723728Y868564D01*
X1724055Y869092D01*
X1724225Y869689D01*
X1724246Y870000D01*
Y897929D01*
X1724246D01*
X1724175Y899380D01*
X1723609Y902226D01*
X1722500Y904908D01*
X1720888Y907322D01*
X1719913Y908399D01*
X1719906Y908406D01*
X1719906Y908406D01*
X1718560Y909752D01*
X1716446Y912917D01*
X1714989Y916434D01*
X1714246Y920168D01*
Y922071D01*
Y953000D01*
Y953448D01*
X1714589Y954277D01*
X1715223Y954911D01*
X1716052Y955254D01*
X1716948D01*
X1717777Y954911D01*
D02*
G37*
G36*
X2068277Y854411D02*
X2068911Y853777D01*
X2069254Y852948D01*
X2069254Y852500D01*
X2069254Y852500D01*
X2069316Y851867D01*
X2069801Y850696D01*
X2070696Y849801D01*
X2071867Y849316D01*
X2072500Y849254D01*
X2087500D01*
X2087500Y849254D01*
X2087923Y849229D01*
X2088685Y848858D01*
X2089248Y848224D01*
X2089525Y847423D01*
X2089500Y847000D01*
X2089537Y846574D01*
X2089269Y845762D01*
X2088701Y845123D01*
X2087927Y844760D01*
X2087500Y844746D01*
X2072500D01*
X2071736Y844746D01*
X2070238Y845044D01*
X2068827Y845629D01*
X2067557Y846477D01*
X2066477Y847557D01*
X2065629Y848827D01*
X2065044Y850238D01*
X2064746Y851736D01*
X2064746Y852500D01*
X2064746Y852500D01*
X2064746Y852948D01*
X2065089Y853777D01*
X2065723Y854411D01*
X2066552Y854754D01*
X2067448Y854754D01*
X2068277Y854411D01*
D02*
G37*
G36*
X1786277D02*
X1786911Y853777D01*
X1787254Y852948D01*
X1787254Y852500D01*
X1787254Y852500D01*
X1787316Y851867D01*
X1787801Y850696D01*
X1788696Y849801D01*
X1789867Y849316D01*
X1790500Y849254D01*
X1805500D01*
X1805500Y849254D01*
X1805923Y849229D01*
X1806685Y848858D01*
X1807248Y848224D01*
X1807525Y847423D01*
X1807500Y847000D01*
X1807537Y846574D01*
X1807269Y845762D01*
X1806701Y845123D01*
X1805927Y844760D01*
X1805500Y844746D01*
X1790500D01*
X1789736Y844746D01*
X1788238Y845044D01*
X1786827Y845629D01*
X1785557Y846477D01*
X1784477Y847557D01*
X1783629Y848827D01*
X1783044Y850238D01*
X1782746Y851736D01*
X1782746Y852500D01*
X1782746Y852500D01*
X1782746Y852948D01*
X1783089Y853777D01*
X1783723Y854411D01*
X1784552Y854754D01*
X1785448Y854754D01*
X1786277Y854411D01*
D02*
G37*
G36*
X1934451Y854250D02*
X1935279Y853906D01*
X1935912Y853271D01*
X1936254Y852442D01*
X1936254Y851994D01*
X1936254Y851994D01*
X1936307Y851459D01*
X1936718Y850471D01*
X1937476Y849715D01*
X1938465Y849306D01*
X1939000Y849254D01*
X1954246D01*
X1954246Y849254D01*
X1954702Y849280D01*
X1955555Y848955D01*
X1956201Y848309D01*
X1956526Y847456D01*
X1956500Y847000D01*
X1956500Y847000D01*
X1956537Y846574D01*
X1956269Y845762D01*
X1955701Y845123D01*
X1954927Y844760D01*
X1954500Y844746D01*
X1938286D01*
X1936887Y845024D01*
X1935568Y845570D01*
X1934381Y846362D01*
X1933371Y847370D01*
X1932577Y848555D01*
X1932029Y849872D01*
X1931748Y851271D01*
X1931746Y851985D01*
Y852000D01*
X1931747Y852448D01*
X1932091Y853276D01*
X1932726Y853909D01*
X1933555Y854251D01*
X1934451Y854250D01*
D02*
G37*
G36*
X1652451D02*
X1653279Y853906D01*
X1653912Y853271D01*
X1654254Y852442D01*
X1654254Y851994D01*
X1654254Y851994D01*
X1654307Y851459D01*
X1654718Y850471D01*
X1655476Y849715D01*
X1656465Y849306D01*
X1657000Y849254D01*
X1672246D01*
X1672246Y849254D01*
X1672702Y849280D01*
X1673555Y848955D01*
X1674201Y848309D01*
X1674526Y847456D01*
X1674500Y847000D01*
X1674500Y847000D01*
X1674537Y846574D01*
X1674269Y845762D01*
X1673701Y845123D01*
X1672927Y844760D01*
X1672500Y844746D01*
X1656286D01*
X1654887Y845024D01*
X1653568Y845570D01*
X1652381Y846362D01*
X1651371Y847370D01*
X1650577Y848555D01*
X1650029Y849872D01*
X1649748Y851271D01*
X1649746Y851985D01*
Y852000D01*
X1649747Y852448D01*
X1650091Y853276D01*
X1650726Y853909D01*
X1651555Y854251D01*
X1652451Y854250D01*
D02*
G37*
G36*
X1991277Y853911D02*
X1991911Y853277D01*
X1992254Y852448D01*
Y852000D01*
X1992254Y851985D01*
X1992252Y851271D01*
X1991971Y849872D01*
X1991423Y848555D01*
X1990629Y847369D01*
X1989619Y846361D01*
X1988432Y845570D01*
X1987113Y845024D01*
X1985714Y844746D01*
X1985000Y844746D01*
X1969552D01*
X1968723Y845089D01*
X1968089Y845723D01*
X1967746Y846552D01*
Y847448D01*
X1968089Y848277D01*
X1968723Y848911D01*
X1969552Y849254D01*
X1985000D01*
X1985535Y849306D01*
X1986524Y849715D01*
X1987281Y850471D01*
X1987692Y851459D01*
X1987746Y851994D01*
X1987746Y851994D01*
Y852000D01*
Y852448D01*
X1988089Y853277D01*
X1988723Y853911D01*
X1989552Y854254D01*
X1990448D01*
X1991277Y853911D01*
D02*
G37*
G36*
X1709277D02*
X1709911Y853277D01*
X1710254Y852448D01*
Y852000D01*
X1710254Y851985D01*
X1710252Y851271D01*
X1709971Y849872D01*
X1709423Y848555D01*
X1708629Y847369D01*
X1707619Y846361D01*
X1706432Y845570D01*
X1705113Y845024D01*
X1703714Y844746D01*
X1703000Y844746D01*
X1687552D01*
X1686723Y845089D01*
X1686089Y845723D01*
X1685746Y846552D01*
Y847448D01*
X1686089Y848277D01*
X1686723Y848911D01*
X1687552Y849254D01*
X1703000D01*
X1703535Y849306D01*
X1704524Y849715D01*
X1705281Y850471D01*
X1705692Y851459D01*
X1705746Y851994D01*
X1705746Y851994D01*
Y852000D01*
Y852448D01*
X1706089Y853277D01*
X1706723Y853911D01*
X1707552Y854254D01*
X1708448D01*
X1709277Y853911D01*
D02*
G37*
G36*
X2124277Y854411D02*
X2124911Y853777D01*
X2125254Y852948D01*
Y852500D01*
Y851736D01*
X2124956Y850238D01*
X2124371Y848827D01*
X2123523Y847557D01*
X2122443Y846477D01*
X2121173Y845629D01*
X2119762Y845044D01*
X2118264Y844746D01*
X2102552D01*
X2101723Y845089D01*
X2101089Y845723D01*
X2100746Y846552D01*
Y847448D01*
X2101089Y848277D01*
X2101723Y848911D01*
X2102552Y849254D01*
X2117500D01*
X2118133Y849316D01*
X2119303Y849801D01*
X2120199Y850696D01*
X2120684Y851867D01*
X2120746Y852500D01*
Y852948D01*
X2121089Y853777D01*
X2121723Y854411D01*
X2122552Y854754D01*
X2123448D01*
X2124277Y854411D01*
D02*
G37*
G36*
X1842277D02*
X1842911Y853777D01*
X1843254Y852948D01*
Y852500D01*
Y851736D01*
X1842956Y850238D01*
X1842371Y848827D01*
X1841523Y847557D01*
X1840443Y846477D01*
X1839173Y845629D01*
X1837762Y845044D01*
X1836264Y844746D01*
X1820552D01*
X1819723Y845089D01*
X1819089Y845723D01*
X1818746Y846552D01*
Y847448D01*
X1819089Y848277D01*
X1819723Y848911D01*
X1820552Y849254D01*
X1835500D01*
X1836133Y849316D01*
X1837303Y849801D01*
X1838199Y850696D01*
X1838684Y851867D01*
X1838746Y852500D01*
Y852948D01*
X1839089Y853777D01*
X1839723Y854411D01*
X1840552Y854754D01*
X1841448D01*
X1842277Y854411D01*
D02*
G37*
G36*
X2132277D02*
X2132911Y853777D01*
X2133254Y852948D01*
Y852500D01*
Y847105D01*
Y845641D01*
X2132683Y842771D01*
X2131563Y840067D01*
X2129937Y837633D01*
X2127867Y835563D01*
X2125433Y833937D01*
X2122729Y832817D01*
X2119859Y832246D01*
X2107177D01*
X2106348Y832589D01*
X2105714Y833223D01*
X2105371Y834052D01*
Y834948D01*
X2105714Y835777D01*
X2106348Y836411D01*
X2107177Y836754D01*
X2118395D01*
X2119410Y836804D01*
X2121400Y837199D01*
X2123275Y837976D01*
X2124962Y839103D01*
X2126397Y840538D01*
X2127524Y842225D01*
X2128300Y844100D01*
X2128696Y846090D01*
X2128746Y847105D01*
Y852500D01*
Y852948D01*
X2129089Y853777D01*
X2129723Y854411D01*
X2130552Y854754D01*
X2131448D01*
X2132277Y854411D01*
D02*
G37*
G36*
X2060277D02*
X2060911Y853777D01*
X2061254Y852948D01*
Y852500D01*
Y847105D01*
X2061304Y846090D01*
X2061700Y844100D01*
X2062476Y842225D01*
X2063603Y840538D01*
X2065038Y839103D01*
X2066725Y837976D01*
X2068600Y837199D01*
X2070590Y836804D01*
X2071605Y836754D01*
X2083073D01*
X2083902Y836411D01*
X2084536Y835777D01*
X2084879Y834948D01*
Y834500D01*
Y834052D01*
X2084536Y833223D01*
X2083902Y832589D01*
X2083073Y832246D01*
X2070141D01*
X2067271Y832817D01*
X2064567Y833937D01*
X2062133Y835563D01*
X2060063Y837633D01*
X2058437Y840067D01*
X2057317Y842771D01*
X2056746Y845641D01*
Y847105D01*
Y852500D01*
Y852948D01*
X2057089Y853777D01*
X2057723Y854411D01*
X2058552Y854754D01*
X2059448D01*
X2060277Y854411D01*
D02*
G37*
G36*
X1850277D02*
X1850911Y853777D01*
X1851254Y852948D01*
Y852500D01*
Y847105D01*
Y845641D01*
X1850683Y842771D01*
X1849563Y840067D01*
X1847937Y837633D01*
X1845867Y835563D01*
X1843433Y833937D01*
X1840729Y832817D01*
X1837859Y832246D01*
X1825177D01*
X1824348Y832589D01*
X1823714Y833223D01*
X1823371Y834052D01*
Y834948D01*
X1823714Y835777D01*
X1824348Y836411D01*
X1825177Y836754D01*
X1836395D01*
X1837410Y836804D01*
X1839400Y837199D01*
X1841275Y837976D01*
X1842962Y839103D01*
X1844397Y840538D01*
X1845524Y842225D01*
X1846300Y844100D01*
X1846696Y846090D01*
X1846746Y847105D01*
Y852500D01*
Y852948D01*
X1847089Y853777D01*
X1847723Y854411D01*
X1848552Y854754D01*
X1849448D01*
X1850277Y854411D01*
D02*
G37*
G36*
X1778277D02*
X1778911Y853777D01*
X1779254Y852948D01*
Y852500D01*
Y847105D01*
X1779304Y846090D01*
X1779700Y844100D01*
X1780476Y842225D01*
X1781603Y840538D01*
X1783038Y839103D01*
X1784725Y837976D01*
X1786600Y837199D01*
X1788590Y836804D01*
X1789605Y836754D01*
X1801073D01*
X1801902Y836411D01*
X1802536Y835777D01*
X1802879Y834948D01*
Y834500D01*
Y834052D01*
X1802536Y833223D01*
X1801902Y832589D01*
X1801073Y832246D01*
X1788141D01*
X1785271Y832817D01*
X1782567Y833937D01*
X1780133Y835563D01*
X1778063Y837633D01*
X1776437Y840067D01*
X1775317Y842771D01*
X1774746Y845641D01*
Y847105D01*
Y852500D01*
Y852948D01*
X1775089Y853777D01*
X1775723Y854411D01*
X1776552Y854754D01*
X1777448D01*
X1778277Y854411D01*
D02*
G37*
G36*
X1999277Y853911D02*
X1999911Y853277D01*
X2000254Y852448D01*
Y852000D01*
Y846605D01*
Y845141D01*
X1999683Y842271D01*
X1998563Y839567D01*
X1996937Y837133D01*
X1994867Y835063D01*
X1992433Y833437D01*
X1989729Y832317D01*
X1986859Y831746D01*
X1974052D01*
X1973223Y832089D01*
X1972589Y832723D01*
X1972246Y833552D01*
Y834448D01*
X1972589Y835277D01*
X1973223Y835911D01*
X1974052Y836254D01*
X1985395D01*
X1986410Y836304D01*
X1988400Y836700D01*
X1990275Y837476D01*
X1991962Y838603D01*
X1993397Y840038D01*
X1994524Y841725D01*
X1995300Y843600D01*
X1995696Y845590D01*
X1995746Y846605D01*
Y852000D01*
Y852448D01*
X1996089Y853277D01*
X1996723Y853911D01*
X1997552Y854254D01*
X1998448D01*
X1999277Y853911D01*
D02*
G37*
G36*
X1927277D02*
X1927911Y853277D01*
X1928254Y852448D01*
Y852000D01*
Y846605D01*
X1928304Y845590D01*
X1928699Y843600D01*
X1929476Y841725D01*
X1930603Y840038D01*
X1932038Y838603D01*
X1933725Y837476D01*
X1935600Y836700D01*
X1937590Y836304D01*
X1938605Y836254D01*
X1949500Y836254D01*
X1949948Y836254D01*
X1950777Y835911D01*
X1951411Y835277D01*
X1951754Y834448D01*
X1951754Y833552D01*
X1951411Y832723D01*
X1950777Y832089D01*
X1949948Y831746D01*
X1937141D01*
X1934271Y832317D01*
X1931566Y833437D01*
X1929133Y835063D01*
X1927063Y837133D01*
X1925437Y839567D01*
X1924317Y842271D01*
X1923746Y845141D01*
Y846605D01*
Y852000D01*
Y852448D01*
X1924089Y853277D01*
X1924723Y853911D01*
X1925552Y854254D01*
X1926448D01*
X1927277Y853911D01*
D02*
G37*
G36*
X1717277D02*
X1717911Y853277D01*
X1718254Y852448D01*
Y852000D01*
Y846605D01*
Y845141D01*
X1717683Y842271D01*
X1716563Y839567D01*
X1714937Y837133D01*
X1712867Y835063D01*
X1710433Y833437D01*
X1707729Y832317D01*
X1704859Y831746D01*
X1692052D01*
X1691223Y832089D01*
X1690589Y832723D01*
X1690246Y833552D01*
Y834448D01*
X1690589Y835277D01*
X1691223Y835911D01*
X1692052Y836254D01*
X1703395D01*
X1704410Y836304D01*
X1706400Y836700D01*
X1708275Y837476D01*
X1709962Y838603D01*
X1711397Y840038D01*
X1712524Y841725D01*
X1713300Y843600D01*
X1713696Y845590D01*
X1713746Y846605D01*
Y852000D01*
Y852448D01*
X1714089Y853277D01*
X1714723Y853911D01*
X1715552Y854254D01*
X1716448D01*
X1717277Y853911D01*
D02*
G37*
G36*
X1645277D02*
X1645911Y853277D01*
X1646254Y852448D01*
Y852000D01*
Y846605D01*
X1646304Y845590D01*
X1646699Y843600D01*
X1647476Y841725D01*
X1648603Y840038D01*
X1650038Y838603D01*
X1651725Y837476D01*
X1653600Y836700D01*
X1655590Y836304D01*
X1656605Y836254D01*
X1667500Y836254D01*
X1667948Y836254D01*
X1668777Y835911D01*
X1669411Y835277D01*
X1669754Y834448D01*
X1669754Y833552D01*
X1669411Y832723D01*
X1668777Y832089D01*
X1667948Y831746D01*
X1655141D01*
X1652271Y832317D01*
X1649566Y833437D01*
X1647133Y835063D01*
X1645063Y837133D01*
X1643437Y839567D01*
X1642317Y842271D01*
X1641746Y845141D01*
Y846605D01*
Y852000D01*
Y852448D01*
X1642089Y853277D01*
X1642723Y853911D01*
X1643552Y854254D01*
X1644448D01*
X1645277Y853911D01*
D02*
G37*
G36*
X2059777Y954911D02*
X2060411Y954277D01*
X2060754Y953448D01*
Y953000D01*
X2060754Y935000D01*
X2060754Y932995D01*
X2059971Y929061D01*
X2058437Y925356D01*
X2056208Y922021D01*
X2054790Y920603D01*
X2054790D01*
X2042872Y908684D01*
X2042865Y908677D01*
X2041465Y907207D01*
X2038892Y904070D01*
X2036638Y900696D01*
X2034725Y897117D01*
X2033173Y893369D01*
X2031995Y889486D01*
X2031203Y885506D01*
X2030804Y881468D01*
X2030754Y879439D01*
X2030754Y879429D01*
Y799500D01*
Y799052D01*
X2030411Y798223D01*
X2029777Y797589D01*
X2028948Y797246D01*
X2028052D01*
X2027223Y797589D01*
X2026589Y798223D01*
X2026246Y799052D01*
Y799500D01*
Y879429D01*
X2026246Y881683D01*
X2026688Y886169D01*
X2027567Y890591D01*
X2028876Y894904D01*
X2030601Y899069D01*
X2032726Y903045D01*
X2035231Y906793D01*
X2038091Y910278D01*
X2039684Y911872D01*
X2039684Y911872D01*
X2051603Y923790D01*
X2052648Y924943D01*
X2054374Y927527D01*
X2055564Y930398D01*
X2056170Y933446D01*
X2056246Y935000D01*
X2056246Y935000D01*
Y953000D01*
Y953448D01*
X2056589Y954277D01*
X2057223Y954911D01*
X2058052Y955254D01*
X2058948D01*
X2059777Y954911D01*
D02*
G37*
G36*
X1777777D02*
X1778411Y954277D01*
X1778754Y953448D01*
Y953000D01*
X1778754Y935000D01*
X1778754Y932995D01*
X1777971Y929061D01*
X1776437Y925356D01*
X1774208Y922021D01*
X1772790Y920603D01*
X1772790D01*
X1760872Y908684D01*
X1760865Y908677D01*
X1759465Y907207D01*
X1756892Y904070D01*
X1754638Y900696D01*
X1752726Y897117D01*
X1751173Y893369D01*
X1749995Y889486D01*
X1749203Y885506D01*
X1748804Y881468D01*
X1748754Y879439D01*
X1748754Y879429D01*
Y799500D01*
Y799052D01*
X1748411Y798223D01*
X1747777Y797589D01*
X1746948Y797246D01*
X1746052D01*
X1745223Y797589D01*
X1744589Y798223D01*
X1744246Y799052D01*
Y799500D01*
Y879429D01*
X1744246Y881683D01*
X1744688Y886169D01*
X1745567Y890591D01*
X1746876Y894904D01*
X1748601Y899069D01*
X1750726Y903045D01*
X1753231Y906793D01*
X1756091Y910278D01*
X1757684Y911872D01*
X1757684Y911872D01*
X1769603Y923790D01*
X1770648Y924943D01*
X1772374Y927527D01*
X1773564Y930398D01*
X1774170Y933446D01*
X1774246Y935000D01*
X1774246Y935000D01*
Y953000D01*
Y953448D01*
X1774589Y954277D01*
X1775223Y954911D01*
X1776052Y955254D01*
X1776948D01*
X1777777Y954911D01*
D02*
G37*
G36*
X2134777Y807661D02*
X2135411Y807027D01*
X2135754Y806198D01*
Y805750D01*
X2135792Y804965D01*
X2136098Y803426D01*
X2136699Y801976D01*
X2137571Y800671D01*
X2138099Y800089D01*
X2142265Y795922D01*
X2143095Y795093D01*
X2144398Y793142D01*
X2145296Y790974D01*
X2145754Y788673D01*
Y787500D01*
Y785500D01*
Y784539D01*
X2145379Y782655D01*
X2144644Y780880D01*
X2143576Y779282D01*
X2142218Y777924D01*
X2140620Y776856D01*
X2138845Y776121D01*
X2136961Y775746D01*
X2126552D01*
X2125723Y776089D01*
X2125089Y776723D01*
X2124746Y777552D01*
Y778448D01*
X2125089Y779277D01*
X2125723Y779911D01*
X2126552Y780254D01*
X2136000D01*
X2137023Y780355D01*
X2138915Y781138D01*
X2140362Y782585D01*
X2141145Y784476D01*
X2141246Y785500D01*
Y787500D01*
X2141211Y788226D01*
X2140927Y789649D01*
X2140372Y790990D01*
X2139566Y792196D01*
X2139078Y792735D01*
X2139078Y792735D01*
X2134911Y796901D01*
X2134040Y797773D01*
X2132670Y799822D01*
X2131727Y802100D01*
X2131246Y804517D01*
Y805750D01*
Y806198D01*
X2131589Y807027D01*
X2132223Y807661D01*
X2133052Y808004D01*
X2133948D01*
X2134777Y807661D01*
D02*
G37*
G36*
X1852777D02*
X1853411Y807027D01*
X1853754Y806198D01*
Y805750D01*
X1853792Y804965D01*
X1854099Y803426D01*
X1854699Y801976D01*
X1855571Y800671D01*
X1856099Y800089D01*
X1860265Y795922D01*
X1861095Y795093D01*
X1862398Y793142D01*
X1863296Y790974D01*
X1863754Y788673D01*
Y787500D01*
Y785500D01*
Y784539D01*
X1863379Y782655D01*
X1862644Y780880D01*
X1861576Y779282D01*
X1860218Y777924D01*
X1858620Y776856D01*
X1856845Y776121D01*
X1854961Y775746D01*
X1844552D01*
X1843723Y776089D01*
X1843089Y776723D01*
X1842746Y777552D01*
Y778448D01*
X1843089Y779277D01*
X1843723Y779911D01*
X1844552Y780254D01*
X1854000D01*
X1855023Y780355D01*
X1856915Y781138D01*
X1858362Y782585D01*
X1859145Y784476D01*
X1859246Y785500D01*
Y787500D01*
X1859211Y788226D01*
X1858927Y789649D01*
X1858372Y790990D01*
X1857566Y792196D01*
X1857078Y792735D01*
X1857078Y792735D01*
X1852912Y796901D01*
X1852040Y797773D01*
X1850670Y799822D01*
X1849727Y802100D01*
X1849246Y804517D01*
Y805750D01*
Y806198D01*
X1849589Y807027D01*
X1850223Y807661D01*
X1851052Y808004D01*
X1851948D01*
X1852777Y807661D01*
D02*
G37*
G36*
X1978777Y778661D02*
X1979411Y778027D01*
X1979754Y777198D01*
Y776750D01*
Y776302D01*
X1979411Y775473D01*
X1978777Y774839D01*
X1977948Y774496D01*
X1964052D01*
X1963223Y774839D01*
X1962589Y775473D01*
X1962246Y776302D01*
Y777198D01*
X1962589Y778027D01*
X1963223Y778661D01*
X1964052Y779004D01*
X1977948D01*
X1978777Y778661D01*
D02*
G37*
G36*
X1696777D02*
X1697411Y778027D01*
X1697754Y777198D01*
Y776750D01*
Y776302D01*
X1697411Y775473D01*
X1696777Y774839D01*
X1695948Y774496D01*
X1682052D01*
X1681223Y774839D01*
X1680589Y775473D01*
X1680246Y776302D01*
Y777198D01*
X1680589Y778027D01*
X1681223Y778661D01*
X1682052Y779004D01*
X1695948D01*
X1696777Y778661D01*
D02*
G37*
G36*
X2045926Y781982D02*
X2046332Y781793D01*
X2047659Y781174D01*
X2049861Y779243D01*
X2051434Y776773D01*
X2052254Y773962D01*
X2052254Y772497D01*
X2052254Y772498D01*
Y761000D01*
X2052267Y760755D01*
X2052373Y760278D01*
X2052580Y759835D01*
X2052877Y759447D01*
X2053056Y759279D01*
X2053056Y759279D01*
X2053245Y759121D01*
X2053546Y758729D01*
X2053754Y758282D01*
X2053861Y757800D01*
Y757553D01*
X2053861Y756896D01*
X2053155Y755788D01*
X2051965Y755233D01*
X2050662Y755404D01*
X2050159Y755826D01*
X2049592Y756302D01*
X2048692Y757475D01*
X2048066Y758816D01*
X2047746Y760260D01*
Y761000D01*
Y761000D01*
Y772498D01*
X2047688Y773310D01*
X2047234Y774870D01*
X2046361Y776240D01*
X2045139Y777312D01*
X2044427Y777708D01*
X2044021Y777897D01*
X2043415Y778558D01*
X2043108Y779401D01*
X2043147Y780296D01*
X2043526Y781109D01*
X2044187Y781715D01*
X2045030Y782021D01*
X2045926Y781982D01*
D02*
G37*
G36*
X1763926D02*
X1764332Y781793D01*
X1765659Y781174D01*
X1767861Y779243D01*
X1769434Y776773D01*
X1770254Y773962D01*
X1770254Y772497D01*
X1770254Y772498D01*
Y761000D01*
X1770267Y760755D01*
X1770373Y760278D01*
X1770580Y759835D01*
X1770877Y759447D01*
X1771056Y759279D01*
X1771056Y759279D01*
X1771245Y759121D01*
X1771546Y758729D01*
X1771754Y758282D01*
X1771861Y757800D01*
Y757553D01*
X1771861Y756896D01*
X1771155Y755788D01*
X1769965Y755233D01*
X1768662Y755404D01*
X1768159Y755826D01*
X1767592Y756302D01*
X1766692Y757475D01*
X1766066Y758816D01*
X1765746Y760260D01*
Y761000D01*
Y761000D01*
Y772498D01*
X1765688Y773310D01*
X1765234Y774870D01*
X1764361Y776240D01*
X1763139Y777312D01*
X1762427Y777708D01*
X1762021Y777897D01*
X1761415Y778558D01*
X1761108Y779401D01*
X1761147Y780296D01*
X1761526Y781109D01*
X1762187Y781715D01*
X1763030Y782021D01*
X1763926Y781982D01*
D02*
G37*
G36*
X2111777Y765411D02*
X2112411Y764777D01*
X2112754Y763948D01*
Y763500D01*
Y742750D01*
Y742302D01*
X2112411Y741473D01*
X2111777Y740839D01*
X2110948Y740496D01*
X2110052D01*
X2109223Y740839D01*
X2108589Y741473D01*
X2108246Y742302D01*
Y742750D01*
Y763500D01*
Y763948D01*
X2108589Y764777D01*
X2109223Y765411D01*
X2110052Y765754D01*
X2110948D01*
X2111777Y765411D01*
D02*
G37*
G36*
X1829777D02*
X1830411Y764777D01*
X1830754Y763948D01*
Y763500D01*
Y742750D01*
Y742302D01*
X1830411Y741473D01*
X1829777Y740839D01*
X1828948Y740496D01*
X1828052D01*
X1827223Y740839D01*
X1826589Y741473D01*
X1826246Y742302D01*
Y742750D01*
Y763500D01*
Y763948D01*
X1826589Y764777D01*
X1827223Y765411D01*
X1828052Y765754D01*
X1828948D01*
X1829777Y765411D01*
D02*
G37*
G36*
X2062750Y720250D02*
X2055250D01*
Y731750D01*
X2062750D01*
Y720250D01*
D02*
G37*
G36*
X1780750D02*
X1773250D01*
Y731750D01*
X1780750D01*
Y720250D01*
D02*
G37*
G36*
X2286917Y634993D02*
X2287011Y634964D01*
X2287324Y634835D01*
X2287370Y634810D01*
X2287411Y634788D01*
X2287487Y634726D01*
X2287726Y634487D01*
X2287788Y634411D01*
X2287835Y634324D01*
X2287964Y634011D01*
X2287993Y633917D01*
X2288002Y633819D01*
Y633819D01*
D01*
Y633650D01*
Y618350D01*
Y618181D01*
Y618181D01*
D01*
X2287993Y618083D01*
X2287964Y617989D01*
X2287835Y617676D01*
X2287810Y617630D01*
X2287788Y617589D01*
X2287726Y617513D01*
X2287487Y617274D01*
X2287487D01*
Y617274D01*
X2287411Y617212D01*
X2287324Y617165D01*
X2287011Y617036D01*
X2286917Y617007D01*
X2286819Y616998D01*
X2271181D01*
X2271083Y617007D01*
X2271061Y617014D01*
X2270989Y617036D01*
X2270676Y617165D01*
X2270589Y617212D01*
X2270513Y617274D01*
X2270274Y617513D01*
Y617513D01*
X2270274D01*
X2270212Y617589D01*
X2270165Y617676D01*
X2270036Y617989D01*
X2270007Y618083D01*
X2269998Y618181D01*
Y618350D01*
Y631000D01*
Y631119D01*
X2270007Y631217D01*
X2270054Y631450D01*
X2270082Y631544D01*
X2270082Y631544D01*
X2270173Y631764D01*
X2270220Y631851D01*
X2270352Y632048D01*
X2270352Y632049D01*
X2270396Y632102D01*
X2270414Y632125D01*
X2270414Y632125D01*
X2270414Y632125D01*
X2270498Y632208D01*
X2270498Y632209D01*
X2270498Y632209D01*
X2272791Y634501D01*
X2272791Y634502D01*
X2272875Y634586D01*
X2272951Y634648D01*
X2273149Y634780D01*
X2273236Y634827D01*
X2273236Y634827D01*
X2273456Y634918D01*
D01*
X2273456Y634918D01*
X2273493Y634929D01*
X2273550Y634946D01*
X2273550D01*
X2273783Y634993D01*
X2273783Y634993D01*
X2273871Y635001D01*
X2273881Y635002D01*
D01*
X2273881D01*
X2273999Y635002D01*
X2274000Y635002D01*
X2286650Y635002D01*
X2286819D01*
X2286819D01*
D01*
X2286917Y634993D01*
D02*
G37*
G36*
X1953750Y631000D02*
X1946250D01*
Y641000D01*
X1953750D01*
Y631000D01*
D02*
G37*
G36*
X1671750D02*
X1664250D01*
Y641000D01*
X1671750D01*
Y631000D01*
D02*
G37*
G36*
X1953750Y614750D02*
X1946250D01*
Y626250D01*
X1953750D01*
Y614750D01*
D02*
G37*
G36*
X1671750D02*
X1664250D01*
Y626250D01*
X1671750D01*
Y614750D01*
D02*
G37*
G36*
X1830250Y594000D02*
X1822750D01*
Y604000D01*
X1830250D01*
Y594000D01*
D02*
G37*
G36*
X2112250Y594000D02*
X2104750D01*
Y604000D01*
X2112250D01*
Y594000D01*
D02*
G37*
G36*
X1961777Y606820D02*
X1962411Y606186D01*
X1962754Y605357D01*
Y604909D01*
X1962754Y598318D01*
X1962754Y597069D01*
X1962267Y594620D01*
X1961311Y592313D01*
X1959923Y590236D01*
X1959040Y589353D01*
X1959040D01*
X1944465Y574778D01*
X1944458Y574771D01*
X1943625Y573851D01*
X1942249Y571789D01*
X1941300Y569498D01*
X1940815Y567067D01*
X1940754Y565828D01*
Y565828D01*
Y565828D01*
D01*
X1940754Y565818D01*
Y547000D01*
Y546552D01*
X1940411Y545723D01*
X1939777Y545089D01*
X1938948Y544746D01*
X1938052D01*
X1937223Y545089D01*
X1936589Y545723D01*
X1936246Y546552D01*
Y547000D01*
Y565818D01*
X1936246Y567510D01*
X1936906Y570829D01*
X1938201Y573955D01*
X1940081Y576769D01*
X1941278Y577965D01*
X1941278Y577965D01*
X1955853Y592540D01*
X1955860Y592547D01*
X1956397Y593141D01*
X1957284Y594472D01*
X1957895Y595950D01*
X1958207Y597518D01*
X1958246Y598318D01*
X1958246Y598318D01*
Y604909D01*
Y605357D01*
X1958589Y606186D01*
X1959223Y606820D01*
X1960052Y607163D01*
X1960948D01*
X1961777Y606820D01*
D02*
G37*
G36*
X2160688Y589493D02*
X2160782Y589464D01*
X2160869Y589418D01*
X2160945Y589355D01*
X2161008Y589279D01*
X2161054Y589192D01*
X2161083Y589098D01*
X2161092Y589000D01*
Y555500D01*
X2161083Y555402D01*
X2161054Y555308D01*
X2161008Y555221D01*
X2160945Y555145D01*
X2160869Y555082D01*
X2160782Y555036D01*
X2160688Y555007D01*
X2160590Y554998D01*
X2130590D01*
X2130492Y555007D01*
X2130398Y555036D01*
X2130311Y555082D01*
X2130235Y555145D01*
X2130172Y555221D01*
X2130126Y555308D01*
X2130097Y555402D01*
X2130087Y555500D01*
Y565500D01*
X2130097Y565598D01*
X2130126Y565692D01*
X2130172Y565779D01*
X2130235Y565855D01*
X2130311Y565918D01*
X2130398Y565964D01*
X2130492Y565993D01*
X2130590Y566003D01*
X2150087D01*
Y589000D01*
X2150097Y589098D01*
X2150126Y589192D01*
X2150172Y589279D01*
X2150235Y589355D01*
X2150311Y589418D01*
X2150398Y589464D01*
X2150492Y589493D01*
X2150590Y589502D01*
X2160590D01*
X2160688Y589493D01*
D02*
G37*
G36*
X1908508D02*
X1908602Y589464D01*
X1908689Y589418D01*
X1908765Y589355D01*
X1908828Y589279D01*
X1908874Y589192D01*
X1908903Y589098D01*
X1908913Y589000D01*
Y566003D01*
X1928410D01*
X1928508Y565993D01*
X1928602Y565964D01*
X1928689Y565918D01*
X1928765Y565855D01*
X1928828Y565779D01*
X1928874Y565692D01*
X1928903Y565598D01*
X1928913Y565500D01*
Y555500D01*
X1928903Y555402D01*
X1928874Y555308D01*
X1928828Y555221D01*
X1928765Y555145D01*
X1928689Y555082D01*
X1928602Y555036D01*
X1928508Y555007D01*
X1928410Y554998D01*
X1898410D01*
X1898312Y555007D01*
X1898218Y555036D01*
X1898131Y555082D01*
X1898055Y555145D01*
X1897992Y555221D01*
X1897946Y555308D01*
X1897917Y555402D01*
X1897908Y555500D01*
Y589000D01*
X1897917Y589098D01*
X1897946Y589192D01*
X1897992Y589279D01*
X1898055Y589355D01*
X1898131Y589418D01*
X1898218Y589464D01*
X1898312Y589493D01*
X1898410Y589502D01*
X1908410D01*
X1908508Y589493D01*
D02*
G37*
G36*
X1877688Y589493D02*
X1877782Y589464D01*
X1877869Y589418D01*
X1877945Y589355D01*
X1878008Y589279D01*
X1878054Y589192D01*
X1878083Y589098D01*
X1878092Y589000D01*
Y555500D01*
X1878083Y555402D01*
X1878054Y555308D01*
X1878008Y555221D01*
X1877945Y555145D01*
X1877869Y555082D01*
X1877782Y555036D01*
X1877688Y555007D01*
X1877590Y554998D01*
X1847590D01*
X1847492Y555007D01*
X1847398Y555036D01*
X1847311Y555082D01*
X1847235Y555145D01*
X1847172Y555221D01*
X1847126Y555308D01*
X1847097Y555402D01*
X1847087Y555500D01*
Y565500D01*
X1847097Y565598D01*
X1847126Y565692D01*
X1847172Y565779D01*
X1847235Y565855D01*
X1847311Y565918D01*
X1847398Y565964D01*
X1847492Y565993D01*
X1847590Y566002D01*
X1867087D01*
Y589000D01*
X1867097Y589098D01*
X1867126Y589192D01*
X1867172Y589279D01*
X1867235Y589355D01*
X1867311Y589418D01*
X1867398Y589464D01*
X1867492Y589493D01*
X1867590Y589502D01*
X1877590D01*
X1877688Y589493D01*
D02*
G37*
G36*
X1625508D02*
X1625602Y589464D01*
X1625689Y589418D01*
X1625766Y589355D01*
X1625828Y589279D01*
X1625874Y589192D01*
X1625903Y589098D01*
X1625913Y589000D01*
Y566002D01*
X1645410D01*
X1645508Y565993D01*
X1645602Y565964D01*
X1645689Y565918D01*
X1645765Y565855D01*
X1645828Y565779D01*
X1645874Y565692D01*
X1645903Y565598D01*
X1645913Y565500D01*
Y555500D01*
X1645903Y555402D01*
X1645874Y555308D01*
X1645828Y555221D01*
X1645765Y555145D01*
X1645689Y555082D01*
X1645602Y555036D01*
X1645508Y555007D01*
X1645410Y554998D01*
X1615410D01*
X1615312Y555007D01*
X1615218Y555036D01*
X1615131Y555082D01*
X1615055Y555145D01*
X1614993Y555221D01*
X1614946Y555308D01*
X1614917Y555402D01*
X1614908Y555500D01*
Y589000D01*
X1614917Y589098D01*
X1614946Y589192D01*
X1614993Y589279D01*
X1615055Y589355D01*
X1615131Y589418D01*
X1615218Y589464D01*
X1615312Y589493D01*
X1615410Y589502D01*
X1625410D01*
X1625508Y589493D01*
D02*
G37*
G36*
X2007504Y622076D02*
X2007911Y621887D01*
X2009108Y621328D01*
X2011095Y619586D01*
X2012514Y617358D01*
X2013254Y614821D01*
X2013254Y613500D01*
X2013254Y613500D01*
X2013254Y594071D01*
X2013254Y592168D01*
X2012511Y588434D01*
X2011054Y584917D01*
X2008940Y581752D01*
X2007594Y580406D01*
X2007594D01*
X2006337Y579149D01*
X2005080Y577762D01*
X2003004Y574652D01*
X2001575Y571198D01*
X2000846Y567531D01*
X2000754Y565661D01*
Y547000D01*
Y546552D01*
X2000411Y545723D01*
X1999777Y545089D01*
X1998948Y544746D01*
X1998052D01*
X1997223Y545089D01*
X1996589Y545723D01*
X1996246Y546552D01*
Y547000D01*
Y565661D01*
Y567984D01*
X1997152Y572541D01*
X1998930Y576834D01*
X2001510Y580697D01*
X2003153Y582340D01*
X2003153Y582340D01*
X2004406Y583594D01*
X2005383Y584671D01*
X2006997Y587086D01*
X2008108Y589770D01*
X2008675Y592619D01*
X2008746Y594071D01*
X2008746Y594071D01*
X2008746Y613500D01*
X2008698Y614171D01*
X2008323Y615459D01*
X2007602Y616590D01*
X2006594Y617475D01*
X2006006Y617801D01*
Y617802D01*
X2005600Y617991D01*
X2004994Y618652D01*
X2004687Y619495D01*
X2004726Y620390D01*
X2005105Y621203D01*
X2005766Y621809D01*
X2006609Y622115D01*
X2007504Y622076D01*
D02*
G37*
G36*
X1725504D02*
X1725911Y621887D01*
X1727108Y621328D01*
X1729095Y619586D01*
X1730514Y617358D01*
X1731254Y614821D01*
X1731254Y613500D01*
X1731254Y613500D01*
X1731254Y594071D01*
X1731254Y592168D01*
X1730511Y588434D01*
X1729054Y584917D01*
X1726940Y581752D01*
X1725594Y580406D01*
X1725594D01*
X1724337Y579149D01*
X1723080Y577762D01*
X1721004Y574652D01*
X1719574Y571198D01*
X1718846Y567531D01*
X1718754Y565661D01*
Y547000D01*
Y546552D01*
X1718411Y545723D01*
X1717777Y545089D01*
X1716948Y544746D01*
X1716052D01*
X1715223Y545089D01*
X1714589Y545723D01*
X1714246Y546552D01*
Y547000D01*
Y565661D01*
Y567984D01*
X1715152Y572541D01*
X1716930Y576834D01*
X1719510Y580697D01*
X1721153Y582340D01*
X1721153Y582340D01*
X1722406Y583594D01*
X1723383Y584671D01*
X1724997Y587086D01*
X1726108Y589770D01*
X1726675Y592619D01*
X1726746Y594071D01*
X1726746Y594071D01*
X1726746Y613500D01*
X1726698Y614171D01*
X1726323Y615459D01*
X1725602Y616590D01*
X1724594Y617475D01*
X1724006Y617801D01*
Y617802D01*
X1723600Y617991D01*
X1722994Y618652D01*
X1722687Y619495D01*
X1722726Y620390D01*
X1723105Y621203D01*
X1723766Y621809D01*
X1724609Y622115D01*
X1725504Y622076D01*
D02*
G37*
G36*
X1679777Y606820D02*
X1680411Y606186D01*
X1680754Y605357D01*
Y604909D01*
X1680754Y598318D01*
X1680754Y597069D01*
X1680267Y594620D01*
X1679311Y592313D01*
X1677923Y590236D01*
X1677040Y589353D01*
X1677040D01*
X1662465Y574778D01*
X1662458Y574771D01*
X1661625Y573851D01*
X1660249Y571789D01*
X1659300Y569498D01*
X1658815Y567067D01*
X1658754Y565828D01*
X1658754Y565818D01*
Y547000D01*
Y546552D01*
X1658411Y545723D01*
X1657777Y545089D01*
X1656948Y544746D01*
X1656052D01*
X1655223Y545089D01*
X1654589Y545723D01*
X1654246Y546552D01*
Y547000D01*
Y565818D01*
X1654246Y567510D01*
X1654906Y570829D01*
X1656201Y573955D01*
X1658081Y576769D01*
X1659278Y577965D01*
X1659278Y577965D01*
X1673853Y592540D01*
X1673860Y592547D01*
X1674397Y593141D01*
X1675284Y594472D01*
X1675895Y595950D01*
X1676207Y597518D01*
X1676246Y598318D01*
X1676246Y598318D01*
Y604909D01*
Y605357D01*
X1676589Y606186D01*
X1677223Y606820D01*
X1678052Y607163D01*
X1678948D01*
X1679777Y606820D01*
D02*
G37*
G36*
X2115442Y593124D02*
X2116214Y592669D01*
X2116484Y592311D01*
X2117516Y590941D01*
X2119114Y587905D01*
X2120202Y584652D01*
X2120754Y581266D01*
X2120754Y579551D01*
X2120754Y579551D01*
Y546852D01*
Y546404D01*
X2120411Y545576D01*
X2119777Y544942D01*
X2118948Y544599D01*
X2118052D01*
X2117223Y544942D01*
X2116589Y545576D01*
X2116246Y546404D01*
Y546852D01*
X2116246Y579551D01*
X2116192Y580897D01*
X2115759Y583554D01*
X2114905Y586108D01*
X2113651Y588490D01*
X2112884Y589598D01*
X2112884Y589598D01*
X2112615Y589956D01*
X2112390Y590825D01*
X2112515Y591712D01*
X2112970Y592485D01*
X2113686Y593024D01*
X2114554Y593249D01*
X2115442Y593124D01*
D02*
G37*
G36*
X1833442D02*
X1834214Y592669D01*
X1834484Y592311D01*
X1835517Y590941D01*
X1837114Y587905D01*
X1838202Y584652D01*
X1838754Y581266D01*
X1838754Y579551D01*
X1838754Y579551D01*
Y546852D01*
Y546404D01*
X1838411Y545576D01*
X1837777Y544942D01*
X1836948Y544599D01*
X1836052D01*
X1835223Y544942D01*
X1834589Y545576D01*
X1834246Y546404D01*
Y546852D01*
X1834246Y579551D01*
X1834192Y580897D01*
X1833759Y583554D01*
X1832905Y586108D01*
X1831651Y588490D01*
X1830884Y589598D01*
X1830884Y589598D01*
X1830615Y589956D01*
X1830390Y590825D01*
X1830515Y591712D01*
X1830970Y592485D01*
X1831686Y593024D01*
X1832554Y593249D01*
X1833442Y593124D01*
D02*
G37*
G36*
X2287500Y543502D02*
X2287619D01*
X2287717Y543493D01*
X2287950Y543446D01*
X2288044Y543418D01*
X2288044Y543418D01*
X2288264Y543327D01*
X2288351Y543280D01*
X2288548Y543148D01*
X2288549Y543148D01*
X2288602Y543104D01*
X2288625Y543086D01*
X2288625Y543086D01*
X2288625Y543086D01*
X2288708Y543002D01*
X2288709Y543002D01*
X2291001Y540709D01*
X2291002Y540709D01*
X2291086Y540625D01*
X2291148Y540549D01*
X2291280Y540351D01*
X2291327Y540264D01*
X2291327Y540264D01*
X2291418Y540044D01*
D01*
X2291418Y540044D01*
X2291429Y540007D01*
X2291446Y539950D01*
Y539950D01*
X2291493Y539717D01*
X2291493Y539717D01*
X2291501Y539628D01*
X2291502Y539619D01*
D01*
Y539619D01*
X2291502Y539507D01*
X2291502Y539506D01*
X2291502Y539505D01*
Y539501D01*
X2291502Y539500D01*
X2291502Y526850D01*
Y526681D01*
Y526681D01*
D01*
X2291493Y526583D01*
X2291464Y526489D01*
X2291335Y526176D01*
X2291310Y526130D01*
X2291288Y526089D01*
X2291226Y526013D01*
X2290987Y525774D01*
X2290987D01*
Y525774D01*
X2290911Y525712D01*
X2290824Y525665D01*
X2290511Y525536D01*
X2290417Y525507D01*
X2290319Y525498D01*
X2274681D01*
X2274583Y525507D01*
X2274561Y525514D01*
X2274489Y525536D01*
X2274176Y525665D01*
X2274089Y525712D01*
X2274013Y525774D01*
X2273774Y526013D01*
Y526013D01*
X2273774D01*
X2273712Y526089D01*
X2273665Y526176D01*
X2273536Y526489D01*
X2273507Y526583D01*
X2273498Y526681D01*
Y526850D01*
Y542150D01*
Y542319D01*
X2273507Y542417D01*
X2273514Y542439D01*
X2273536Y542511D01*
X2273665Y542824D01*
X2273712Y542911D01*
X2273774Y542987D01*
X2274013Y543226D01*
X2274089Y543288D01*
X2274176Y543335D01*
X2274489Y543464D01*
X2274583Y543493D01*
X2274681Y543502D01*
X2274681D01*
D01*
X2274850D01*
X2287500Y543502D01*
D02*
G37*
G36*
X1766732Y417993D02*
X1767239Y417892D01*
X1767239D01*
X1767267Y417883D01*
X1767333Y417863D01*
X1767333Y417863D01*
X1767811Y417665D01*
X1767811D01*
X1767811Y417665D01*
X1767811D01*
X1767897Y417619D01*
X1767898Y417619D01*
X1768327Y417332D01*
X1768327Y417332D01*
X1768404Y417269D01*
X1768769Y416904D01*
X1768832Y416828D01*
X1769119Y416398D01*
X1769119Y416398D01*
X1769149Y416341D01*
X1769165Y416311D01*
X1769165Y416311D01*
X1769363Y415833D01*
X1769383Y415767D01*
X1769392Y415739D01*
X1769493Y415232D01*
X1769502Y415134D01*
Y415134D01*
Y415134D01*
X1769502Y414875D01*
X1769502Y414875D01*
Y408625D01*
Y408366D01*
Y408366D01*
D01*
X1769493Y408268D01*
X1769392Y407761D01*
X1769363Y407667D01*
X1769363Y407667D01*
X1769165Y407189D01*
X1769119Y407103D01*
X1769119Y407102D01*
X1768832Y406673D01*
X1768832Y406673D01*
X1768769Y406596D01*
X1768404Y406231D01*
X1768404D01*
Y406231D01*
X1768327Y406168D01*
X1767898Y405881D01*
X1767857Y405859D01*
X1767811Y405835D01*
X1767333Y405637D01*
X1767239Y405608D01*
X1766732Y405507D01*
X1766634Y405498D01*
X1766634D01*
X1766634D01*
X1766377Y405498D01*
X1766375Y405498D01*
X1761125Y405498D01*
X1760867Y405498D01*
X1760867D01*
X1760867D01*
X1760768Y405507D01*
X1760261Y405608D01*
X1760261D01*
X1760167Y405637D01*
X1759689Y405835D01*
X1759602Y405881D01*
X1759173Y406168D01*
X1759146Y406190D01*
X1759096Y406231D01*
X1758731Y406596D01*
Y406596D01*
X1758731D01*
X1758717Y406613D01*
X1758668Y406673D01*
X1758668Y406673D01*
X1758381Y407103D01*
X1758335Y407189D01*
X1758335Y407190D01*
X1758137Y407667D01*
X1758108Y407761D01*
Y407761D01*
X1758007Y408269D01*
X1758007Y408269D01*
X1758000Y408347D01*
X1757998Y408367D01*
Y408367D01*
Y408367D01*
X1757998Y408623D01*
X1757998Y408625D01*
X1757998Y413000D01*
X1757998Y413238D01*
Y413238D01*
D01*
X1758007Y413336D01*
X1758100Y413802D01*
Y413802D01*
X1758112Y413843D01*
X1758129Y413896D01*
X1758129Y413896D01*
D01*
X1758311Y414336D01*
X1758357Y414423D01*
X1758357Y414423D01*
X1758621Y414818D01*
X1758621Y414818D01*
X1758621Y414818D01*
X1758650Y414853D01*
X1758684Y414894D01*
X1758684Y414894D01*
X1758684Y414894D01*
X1758851Y415062D01*
X1758852Y415062D01*
X1760938Y417148D01*
X1760938Y417148D01*
X1761106Y417316D01*
X1761182Y417379D01*
X1761577Y417643D01*
X1761664Y417689D01*
X1761664Y417689D01*
X1762103Y417871D01*
X1762198Y417900D01*
X1762664Y417993D01*
X1762762Y418002D01*
X1762762D01*
X1762762D01*
X1763000Y418002D01*
X1763000Y418002D01*
X1766375Y418002D01*
X1766633Y418002D01*
X1766732Y417993D01*
D02*
G37*
G36*
X2189500Y414500D02*
X2194000Y410000D01*
Y224000D01*
X2180000Y210000D01*
X2036000Y210000D01*
X2026500Y219500D01*
X2006000Y219500D01*
X2004000Y223500D01*
Y323000D01*
X2015000Y334000D01*
Y374000D01*
X2025000Y384000D01*
Y407000D01*
X2027500Y409500D01*
X2059000D01*
X2064000Y414500D01*
X2189500Y414500D01*
D02*
G37*
G36*
X2109117Y195743D02*
X2109211Y195714D01*
X2109661Y195528D01*
X2109708Y195503D01*
X2109748Y195481D01*
X2109824Y195419D01*
X2110169Y195074D01*
X2110231Y194998D01*
X2110253Y194958D01*
X2110278Y194911D01*
X2110464Y194461D01*
X2110493Y194367D01*
X2110502Y194269D01*
D01*
Y194269D01*
Y194025D01*
Y188475D01*
Y188231D01*
D01*
Y188231D01*
X2110493Y188133D01*
X2110464Y188039D01*
X2110278Y187589D01*
X2110253Y187542D01*
X2110231Y187502D01*
X2110169Y187426D01*
X2109824Y187081D01*
X2109748Y187019D01*
X2109691Y186988D01*
X2109661Y186972D01*
X2109211Y186786D01*
X2109117Y186757D01*
X2109019Y186747D01*
X2108775D01*
X2106500Y186747D01*
X2106381Y186747D01*
X2106381D01*
X2106381D01*
X2106352Y186750D01*
X2106283Y186757D01*
X2106283Y186757D01*
X2106050Y186803D01*
X2106050Y186803D01*
X2105984Y186824D01*
X2105956Y186832D01*
X2105956Y186832D01*
D01*
X2105736Y186923D01*
X2105649Y186970D01*
X2105451Y187102D01*
X2105451Y187102D01*
X2105451Y187102D01*
X2105439Y187111D01*
X2105375Y187164D01*
X2105375Y187164D01*
X2105291Y187248D01*
X2105291Y187248D01*
X2102998Y189541D01*
X2102998Y189541D01*
X2102998Y189541D01*
X2102914Y189625D01*
X2102887Y189659D01*
X2102852Y189701D01*
X2102720Y189899D01*
X2102673Y189986D01*
X2102582Y190205D01*
X2102582Y190206D01*
X2102567Y190256D01*
X2102554Y190300D01*
Y190300D01*
X2102507Y190533D01*
X2102507Y190533D01*
X2102498Y190631D01*
Y190750D01*
Y194025D01*
Y194269D01*
X2102507Y194367D01*
X2102536Y194461D01*
X2102722Y194911D01*
X2102722Y194911D01*
X2102769Y194998D01*
X2102831Y195074D01*
X2103176Y195419D01*
X2103252Y195481D01*
X2103292Y195503D01*
X2103339Y195528D01*
X2103789Y195714D01*
X2103883Y195743D01*
X2103981Y195752D01*
X2103981D01*
D01*
X2109019D01*
X2109019D01*
D01*
X2109117Y195743D01*
D02*
G37*
G36*
X2031917Y188993D02*
X2032011Y188964D01*
X2032324Y188835D01*
X2032370Y188810D01*
X2032411Y188788D01*
X2032487Y188726D01*
X2032726Y188487D01*
X2032788Y188411D01*
X2032835Y188324D01*
X2032964Y188011D01*
X2032993Y187917D01*
X2033002Y187819D01*
Y187819D01*
D01*
Y187650D01*
X2033002Y175000D01*
Y174881D01*
X2032993Y174783D01*
X2032946Y174550D01*
X2032918Y174456D01*
X2032918Y174456D01*
X2032827Y174236D01*
X2032780Y174149D01*
X2032648Y173951D01*
X2032648Y173951D01*
X2032604Y173898D01*
X2032586Y173875D01*
X2032586Y173875D01*
X2032586Y173875D01*
X2032502Y173792D01*
X2032502Y173791D01*
X2030209Y171498D01*
X2030209Y171498D01*
X2030125Y171414D01*
X2030049Y171352D01*
X2029851Y171220D01*
X2029764Y171173D01*
X2029764Y171173D01*
X2029544Y171082D01*
D01*
X2029544Y171082D01*
X2029507Y171071D01*
X2029450Y171054D01*
X2029450D01*
X2029217Y171007D01*
X2029217Y171007D01*
X2029129Y170999D01*
X2029119Y170998D01*
D01*
X2029119D01*
X2029001Y170998D01*
X2029000Y170998D01*
X2016350Y170998D01*
X2016181D01*
X2016083Y171007D01*
X2016061Y171014D01*
X2015989Y171036D01*
X2015676Y171165D01*
X2015589Y171212D01*
X2015513Y171274D01*
X2015274Y171513D01*
Y171513D01*
X2015274D01*
X2015212Y171589D01*
X2015165Y171676D01*
X2015036Y171989D01*
X2015007Y172083D01*
X2014998Y172181D01*
Y172350D01*
Y187650D01*
Y187819D01*
X2015007Y187917D01*
X2015014Y187939D01*
X2015036Y188011D01*
X2015165Y188324D01*
X2015212Y188410D01*
X2015274Y188487D01*
X2015513Y188726D01*
X2015589Y188788D01*
X2015676Y188835D01*
X2015989Y188964D01*
X2016083Y188993D01*
X2016181Y189002D01*
X2016181D01*
D01*
X2031819D01*
X2031819D01*
D01*
X2031917Y188993D01*
D02*
G37*
G36*
X2158657Y172993D02*
X2158752Y172964D01*
X2158954Y172880D01*
X2159041Y172834D01*
X2159117Y172771D01*
X2159272Y172617D01*
X2159334Y172541D01*
X2159380Y172454D01*
X2159464Y172252D01*
X2159493Y172157D01*
X2159502Y172059D01*
D01*
Y172059D01*
Y171950D01*
Y169500D01*
X2160975D01*
X2161000Y169503D01*
X2161000Y169502D01*
X2164059D01*
X2164059D01*
D01*
X2164157Y169493D01*
X2164252Y169464D01*
X2164454Y169380D01*
X2164541Y169334D01*
X2164617Y169272D01*
X2164772Y169117D01*
X2164834Y169041D01*
X2164880Y168954D01*
X2164964Y168752D01*
X2164993Y168657D01*
X2165002Y168559D01*
Y168559D01*
D01*
Y168450D01*
Y167550D01*
Y167441D01*
Y167441D01*
D01*
X2164993Y167343D01*
X2164964Y167248D01*
X2164880Y167046D01*
X2164834Y166959D01*
X2164772Y166883D01*
X2164617Y166728D01*
X2164549Y166673D01*
X2164541Y166666D01*
X2164465Y166625D01*
X2164454Y166620D01*
D01*
X2164454Y166620D01*
X2164252Y166536D01*
X2164201Y166521D01*
X2164157Y166507D01*
X2164059Y166498D01*
X2159800D01*
X2159800Y166498D01*
X2159741Y166498D01*
X2159741Y166498D01*
X2159740Y166498D01*
X2159716Y166500D01*
X2159500D01*
X2157261Y166998D01*
X2157240D01*
X2157240D01*
X2157240D01*
X2157212Y167001D01*
X2157142Y167007D01*
X2157086Y167024D01*
X2157048Y167036D01*
X2156938Y167082D01*
X2156938Y167082D01*
X2156938D01*
X2156851Y167128D01*
X2156802Y167168D01*
X2156775Y167190D01*
X2156775Y167190D01*
X2156775Y167190D01*
X2156690Y167275D01*
X2156684Y167282D01*
X2156628Y167351D01*
X2156582Y167438D01*
X2156536Y167548D01*
X2156536Y167549D01*
X2156536Y167549D01*
X2156528Y167572D01*
X2156507Y167642D01*
X2156507Y167643D01*
X2156507Y167643D01*
X2156504Y167672D01*
X2156498Y167740D01*
X2156498Y167741D01*
X2156498Y167741D01*
X2156498Y167800D01*
X2156498Y167800D01*
Y171950D01*
Y172059D01*
X2156507Y172157D01*
X2156521Y172201D01*
X2156536Y172252D01*
X2156620Y172454D01*
X2156620Y172454D01*
D01*
X2156626Y172465D01*
X2156666Y172541D01*
X2156673Y172549D01*
X2156729Y172617D01*
X2156883Y172771D01*
X2156959Y172834D01*
X2157046Y172880D01*
X2157248Y172964D01*
X2157343Y172993D01*
X2157441Y173002D01*
D01*
X2157441D01*
X2158559D01*
D01*
X2158559D01*
X2158657Y172993D01*
D02*
G37*
G36*
X2146657D02*
X2146752Y172964D01*
X2146954Y172880D01*
X2147041Y172834D01*
X2147117Y172771D01*
X2147272Y172617D01*
X2147334Y172541D01*
X2147380Y172454D01*
X2147464Y172252D01*
X2147493Y172157D01*
X2147502Y172059D01*
D01*
Y172059D01*
Y171950D01*
Y167800D01*
X2147502Y167800D01*
X2147502Y167799D01*
X2147502Y167741D01*
X2147502Y167741D01*
X2147502Y167740D01*
X2147496Y167672D01*
X2147493Y167643D01*
X2147493Y167643D01*
X2147493Y167642D01*
X2147471Y167572D01*
X2147464Y167549D01*
X2147464Y167549D01*
X2147464Y167548D01*
X2147419Y167438D01*
X2147372Y167351D01*
X2147316Y167282D01*
X2147310Y167275D01*
X2147225Y167190D01*
X2147225Y167190D01*
X2147225Y167190D01*
X2147198Y167168D01*
X2147149Y167128D01*
X2147062Y167082D01*
X2147062D01*
X2147062Y167082D01*
X2146952Y167036D01*
X2146914Y167024D01*
X2146857Y167007D01*
X2146788Y167001D01*
X2146760Y166998D01*
X2146759D01*
X2146759D01*
X2146739D01*
X2144500Y166500D01*
X2144284D01*
X2144260Y166498D01*
X2144259Y166498D01*
X2144259Y166498D01*
X2144200Y166498D01*
X2144200Y166498D01*
X2139941D01*
X2139843Y166507D01*
X2139799Y166521D01*
X2139748Y166536D01*
X2139546Y166620D01*
X2139546Y166620D01*
D01*
X2139535Y166625D01*
X2139459Y166666D01*
X2139451Y166673D01*
X2139383Y166728D01*
X2139229Y166883D01*
X2139166Y166959D01*
X2139120Y167046D01*
D01*
X2139120Y167046D01*
X2139036Y167248D01*
X2139014Y167321D01*
X2139007Y167343D01*
X2138998Y167441D01*
Y167550D01*
Y168450D01*
Y168559D01*
X2139007Y168657D01*
X2139021Y168701D01*
X2139036Y168752D01*
X2139120Y168954D01*
X2139120Y168954D01*
D01*
X2139126Y168965D01*
X2139166Y169041D01*
X2139173Y169049D01*
X2139229Y169117D01*
X2139383Y169272D01*
X2139459Y169334D01*
X2139546Y169380D01*
X2139748Y169464D01*
X2139843Y169493D01*
X2139941Y169502D01*
X2139941D01*
D01*
X2143000D01*
X2143000Y169503D01*
X2143025Y169500D01*
X2144498D01*
Y171950D01*
Y172059D01*
X2144507Y172157D01*
X2144514Y172179D01*
X2144536Y172252D01*
X2144619Y172454D01*
X2144620Y172454D01*
D01*
X2144666Y172541D01*
X2144729Y172617D01*
X2144883Y172771D01*
X2144959Y172834D01*
X2145046Y172880D01*
X2145248Y172964D01*
X2145343Y172993D01*
X2145441Y173002D01*
D01*
X2145441D01*
X2146559D01*
D01*
X2146559D01*
X2146657Y172993D01*
D02*
G37*
G36*
X2144284Y153500D02*
X2144500D01*
X2146739Y153002D01*
X2146759D01*
X2146759D01*
X2146760D01*
X2146788Y152999D01*
X2146857Y152993D01*
X2146914Y152976D01*
X2146952Y152964D01*
X2147062Y152919D01*
X2147062Y152918D01*
X2147062D01*
X2147149Y152872D01*
X2147198Y152832D01*
X2147225Y152810D01*
X2147225Y152809D01*
X2147225Y152809D01*
X2147310Y152725D01*
X2147316Y152718D01*
X2147372Y152649D01*
X2147419Y152562D01*
X2147464Y152452D01*
X2147464Y152451D01*
X2147464Y152451D01*
X2147471Y152428D01*
X2147493Y152358D01*
X2147493Y152357D01*
X2147493Y152357D01*
X2147496Y152328D01*
X2147502Y152260D01*
X2147502Y152259D01*
X2147502Y152259D01*
X2147502Y152201D01*
X2147502Y152200D01*
X2147502Y152200D01*
X2147502Y152200D01*
Y148050D01*
Y147941D01*
D01*
Y147941D01*
X2147493Y147843D01*
X2147464Y147748D01*
X2147380Y147546D01*
X2147334Y147459D01*
X2147272Y147383D01*
X2147117Y147228D01*
X2147041Y147166D01*
X2146954Y147120D01*
D01*
X2146954Y147120D01*
X2146752Y147036D01*
X2146679Y147014D01*
X2146657Y147007D01*
X2146559Y146998D01*
X2145441D01*
X2145343Y147007D01*
X2145299Y147021D01*
X2145248Y147036D01*
X2145046Y147120D01*
X2145046Y147120D01*
D01*
X2145035Y147126D01*
X2144959Y147166D01*
X2144951Y147173D01*
X2144883Y147228D01*
X2144729Y147383D01*
X2144666Y147459D01*
X2144620Y147546D01*
D01*
X2144619Y147546D01*
X2144536Y147748D01*
X2144514Y147821D01*
X2144507Y147843D01*
X2144498Y147941D01*
Y148050D01*
Y150500D01*
X2143025D01*
X2143000Y150498D01*
X2143000Y150498D01*
X2139941D01*
X2139843Y150507D01*
X2139821Y150514D01*
X2139748Y150536D01*
X2139546Y150619D01*
X2139546Y150620D01*
D01*
X2139459Y150666D01*
X2139383Y150729D01*
X2139229Y150883D01*
X2139173Y150951D01*
X2139166Y150959D01*
X2139126Y151035D01*
X2139120Y151046D01*
D01*
X2139120Y151046D01*
X2139036Y151248D01*
X2139021Y151299D01*
X2139007Y151343D01*
X2138998Y151441D01*
Y151550D01*
Y152450D01*
Y152559D01*
X2139007Y152657D01*
X2139014Y152679D01*
X2139036Y152752D01*
X2139120Y152954D01*
X2139120Y152954D01*
D01*
X2139166Y153041D01*
X2139229Y153117D01*
X2139383Y153272D01*
X2139459Y153334D01*
X2139546Y153380D01*
X2139748Y153464D01*
X2139843Y153493D01*
X2139941Y153502D01*
X2139941D01*
D01*
X2144200D01*
X2144200Y153502D01*
X2144200Y153502D01*
X2144201Y153502D01*
X2144259Y153502D01*
X2144259Y153502D01*
X2144260Y153502D01*
X2144284Y153500D01*
D02*
G37*
G36*
X2159800Y153502D02*
X2164059D01*
X2164059D01*
D01*
X2164157Y153493D01*
X2164252Y153464D01*
X2164454Y153380D01*
X2164541Y153334D01*
X2164617Y153272D01*
X2164772Y153117D01*
X2164834Y153041D01*
X2164880Y152954D01*
X2164964Y152752D01*
X2164993Y152657D01*
X2165002Y152559D01*
Y152559D01*
D01*
Y152450D01*
Y151550D01*
Y151441D01*
Y151441D01*
D01*
X2164993Y151343D01*
X2164964Y151248D01*
X2164880Y151046D01*
X2164834Y150959D01*
X2164772Y150883D01*
X2164617Y150729D01*
X2164541Y150666D01*
X2164454Y150620D01*
D01*
X2164454Y150619D01*
X2164252Y150536D01*
X2164179Y150514D01*
X2164157Y150507D01*
X2164059Y150498D01*
X2161000D01*
X2161000Y150498D01*
X2160975Y150500D01*
X2159502D01*
Y148050D01*
Y147941D01*
D01*
Y147941D01*
X2159493Y147843D01*
X2159464Y147748D01*
X2159380Y147546D01*
X2159334Y147459D01*
X2159272Y147383D01*
X2159117Y147228D01*
X2159049Y147173D01*
X2159041Y147166D01*
X2158965Y147126D01*
X2158954Y147120D01*
D01*
X2158954Y147120D01*
X2158752Y147036D01*
X2158701Y147021D01*
X2158657Y147007D01*
X2158559Y146998D01*
X2157441D01*
X2157343Y147007D01*
X2157321Y147014D01*
X2157248Y147036D01*
X2157046Y147120D01*
X2157046Y147120D01*
D01*
X2156959Y147166D01*
X2156883Y147228D01*
X2156729Y147383D01*
X2156673Y147451D01*
X2156666Y147459D01*
X2156626Y147535D01*
X2156620Y147546D01*
D01*
X2156620Y147546D01*
X2156536Y147748D01*
X2156521Y147799D01*
X2156507Y147843D01*
X2156498Y147941D01*
Y148050D01*
Y152200D01*
X2156498Y152200D01*
X2156498Y152259D01*
X2156498Y152259D01*
X2156498Y152260D01*
X2156504Y152328D01*
X2156507Y152357D01*
X2156507Y152357D01*
X2156507Y152358D01*
X2156528Y152428D01*
X2156536Y152451D01*
X2156536Y152451D01*
X2156536Y152452D01*
X2156582Y152562D01*
X2156628Y152649D01*
X2156684Y152718D01*
X2156690Y152725D01*
X2156775Y152809D01*
X2156775Y152809D01*
X2156775Y152810D01*
X2156802Y152832D01*
X2156851Y152872D01*
X2156938Y152918D01*
X2156938D01*
X2156938Y152919D01*
X2157048Y152964D01*
X2157086Y152976D01*
X2157142Y152993D01*
X2157212Y152999D01*
X2157240Y153002D01*
X2157240D01*
X2157240D01*
X2157261D01*
X2159500Y153500D01*
X2159716D01*
X2159740Y153502D01*
X2159741Y153502D01*
X2159741Y153502D01*
X2159799Y153502D01*
X2159800Y153502D01*
X2159800Y153502D01*
D02*
G37*
%LPC*%
G36*
X2030754Y879439D02*
Y879439D01*
D01*
Y879439D01*
D02*
G37*
G36*
X1748754D02*
Y879439D01*
D01*
Y879439D01*
D02*
G37*
G36*
X1658754Y565828D02*
Y565828D01*
D01*
Y565828D01*
D02*
G37*
%LPD*%
D110*
X2002250Y756500D02*
G03*
X2007000Y761250I0J4750D01*
G01*
X2010000Y793452D02*
G03*
X2012476Y789163I4951J0D01*
G01*
X2012265Y780017D02*
G03*
X2007000Y772498I2737J-7520D01*
G01*
X1730265Y780017D02*
G03*
X1725000Y772498I2737J-7520D01*
G01*
X1728000Y793452D02*
G03*
X1730476Y789163I4951J0D01*
G01*
X1720250Y756500D02*
G03*
X1725000Y761250I0J4750D01*
G01*
X1998750Y756500D02*
X2002250D01*
X2004250Y784500D02*
X2004250Y784500D01*
X1998500Y784500D02*
X2004250D01*
X2013000D01*
X2010000Y793452D02*
Y807000D01*
X2044500Y784500D02*
X2059650D01*
X2007000Y761250D02*
Y772498D01*
X2077500Y778000D02*
X2094750D01*
X1795500D02*
X1812750D01*
X1725000Y761250D02*
Y772498D01*
X1762500Y784500D02*
X1777650D01*
X1728000Y793452D02*
Y807000D01*
X1722250Y784500D02*
X1731000D01*
X1716500D02*
X1722250D01*
X1722250Y784500D01*
X1716750Y756500D02*
X1720250D01*
D111*
X1948000Y717500D02*
Y742500D01*
Y678500D02*
Y685000D01*
X2110500Y680000D02*
Y686500D01*
Y628000D02*
Y647500D01*
X1828500Y628000D02*
Y647500D01*
Y680000D02*
Y686500D01*
X1666000Y678500D02*
Y685000D01*
Y717500D02*
Y742500D01*
D112*
X1873499Y62000D02*
D03*
D113*
X2121497Y28000D02*
D03*
D114*
X1859000Y369250D02*
D03*
X1938500Y519750D02*
D03*
X1998500D02*
D03*
X2118500D02*
D03*
X1998500Y980250D02*
D03*
X2058500Y980250D02*
D03*
X1656500Y519750D02*
D03*
X1716500D02*
D03*
X1836500D02*
D03*
X1716500Y980250D02*
D03*
X1776500Y980250D02*
D03*
X1564000Y460250D02*
D03*
X1564000Y189750D02*
D03*
D115*
X1869000Y359000D02*
D03*
X1849000D02*
D03*
X1928500Y530000D02*
D03*
X1948500D02*
D03*
X1988500D02*
D03*
X2008500D02*
D03*
X2108500D02*
D03*
X2128500D02*
D03*
X2008500Y970000D02*
D03*
X1988500D02*
D03*
X2068500Y970000D02*
D03*
X2048500D02*
D03*
X1646500Y530000D02*
D03*
X1666500D02*
D03*
X1706500D02*
D03*
X1726500D02*
D03*
X1826500D02*
D03*
X1846500D02*
D03*
X1726500Y970000D02*
D03*
X1706500D02*
D03*
X1786500Y970000D02*
D03*
X1766500D02*
D03*
X1574000Y450000D02*
D03*
X1554000D02*
D03*
Y200000D02*
D03*
X1574000D02*
D03*
D116*
X1859000Y349250D02*
D03*
X1938500Y539750D02*
D03*
X1998500D02*
D03*
X2118500D02*
D03*
X1998500Y960250D02*
D03*
X2058500Y960250D02*
D03*
X1656500Y539750D02*
D03*
X1716500D02*
D03*
X1836500D02*
D03*
X1716500Y960250D02*
D03*
X1776500Y960250D02*
D03*
X1564000Y440250D02*
D03*
Y209750D02*
D03*
D117*
X1630750Y163500D02*
D03*
Y452500D02*
D03*
Y337500D02*
D03*
D118*
X1641000Y173500D02*
D03*
Y153500D02*
D03*
Y462500D02*
D03*
Y442500D02*
D03*
Y347500D02*
D03*
Y327500D02*
D03*
D119*
X1650750Y163500D02*
D03*
Y452500D02*
D03*
Y337500D02*
D03*
D120*
X1771500Y395500D02*
D03*
X1759500D02*
D03*
X1662000Y385500D02*
D03*
X1674000D02*
D03*
X2205000Y629000D02*
D03*
X2193000D02*
D03*
X2221000Y629000D02*
D03*
X2233000D02*
D03*
X2310500Y539500D02*
D03*
X2322500D02*
D03*
D121*
X1786000Y432500D02*
D03*
Y420500D02*
D03*
X1786000Y448500D02*
D03*
Y460500D02*
D03*
Y352500D02*
D03*
Y340500D02*
D03*
X1786000Y368500D02*
D03*
Y380500D02*
D03*
D122*
X2152000Y160000D02*
D03*
D123*
X2150000Y170000D02*
D03*
X2154000D02*
D03*
Y150000D02*
D03*
X2150000D02*
D03*
D124*
X2162000Y164000D02*
D03*
Y160000D02*
D03*
Y156000D02*
D03*
X2142000D02*
D03*
Y160000D02*
D03*
Y164000D02*
D03*
D125*
Y168000D02*
D03*
Y152000D02*
D03*
X2146000Y170000D02*
D03*
X2162000Y168000D02*
D03*
X2158000Y170000D02*
D03*
X2162000Y152000D02*
D03*
X2158000Y150000D02*
D03*
X2146000D02*
D03*
X2279000Y626000D02*
D03*
X1763750Y411750D02*
D03*
X2024000Y180000D02*
D03*
X2106500Y191250D02*
D03*
X2282500Y534500D02*
D03*
X1620410Y572250D02*
D03*
Y927750D02*
D03*
X1872590Y572250D02*
D03*
Y927750D02*
D03*
X1903410Y572250D02*
D03*
Y927750D02*
D03*
X2155590Y572250D02*
D03*
Y927750D02*
D03*
D126*
X1850000Y325000D02*
D03*
X1859000D02*
D03*
X1842000Y276000D02*
D03*
X1833000D02*
D03*
X1850000Y334000D02*
D03*
X1859000D02*
D03*
X1932500Y449500D02*
D03*
X1941500D02*
D03*
X2326000Y821500D02*
D03*
X2317000D02*
D03*
X2326000Y812500D02*
D03*
X2317000D02*
D03*
Y666000D02*
D03*
X2326000D02*
D03*
X2326000Y657000D02*
D03*
X2317000D02*
D03*
X2326000Y648000D02*
D03*
X2317000D02*
D03*
X1927000Y682500D02*
D03*
X1936000D02*
D03*
X2131500Y682750D02*
D03*
X2122500D02*
D03*
X2233500Y766000D02*
D03*
X1663000Y433500D02*
D03*
X1672000D02*
D03*
X2295000Y249000D02*
D03*
X2286000D02*
D03*
X1756000Y459500D02*
D03*
X1765000D02*
D03*
X1702500Y456000D02*
D03*
X1693500D02*
D03*
X1702500Y465000D02*
D03*
X1693500D02*
D03*
X1684500D02*
D03*
X1675500D02*
D03*
X1684500Y456000D02*
D03*
X1675500D02*
D03*
X1645000Y682250D02*
D03*
X1654000D02*
D03*
X1849500Y682750D02*
D03*
X1840500D02*
D03*
X2242500Y766000D02*
D03*
X1761500Y738500D02*
D03*
X1805500Y726000D02*
D03*
X1796500D02*
D03*
X1770500Y738500D02*
D03*
X2053000Y739000D02*
D03*
X2044000D02*
D03*
X2079500Y726000D02*
D03*
X2088500D02*
D03*
X2368000Y490000D02*
D03*
X2377000D02*
D03*
Y444000D02*
D03*
X2368000D02*
D03*
X2365500Y355000D02*
D03*
X2374500D02*
D03*
X2368000Y467000D02*
D03*
X2377000D02*
D03*
X2373000Y398000D02*
D03*
X2382000D02*
D03*
X2377000Y421000D02*
D03*
X2368000D02*
D03*
X1804500Y408000D02*
D03*
X1813500Y408000D02*
D03*
X2189500Y652000D02*
D03*
X2180500D02*
D03*
X1659500Y398000D02*
D03*
X1650500D02*
D03*
X1668500Y408000D02*
D03*
X1677500D02*
D03*
X1668500Y398000D02*
D03*
X1677500D02*
D03*
X1693500Y474000D02*
D03*
X1702500D02*
D03*
X1677500Y417000D02*
D03*
X1668500D02*
D03*
X1813500Y328000D02*
D03*
X1804500Y328000D02*
D03*
X1757500Y356000D02*
D03*
X1766500Y356000D02*
D03*
X1739500D02*
D03*
X1748500D02*
D03*
X1730500Y356000D02*
D03*
X1721500Y356000D02*
D03*
X1700000Y417000D02*
D03*
X1691000D02*
D03*
X2308000Y385000D02*
D03*
X2299000D02*
D03*
X2299000Y376000D02*
D03*
X2308000D02*
D03*
X2256000Y401000D02*
D03*
X2247000Y401000D02*
D03*
Y392000D02*
D03*
X2256000D02*
D03*
X2247000Y383000D02*
D03*
X2256000Y383000D02*
D03*
X2247000Y374000D02*
D03*
X2256000D02*
D03*
X2317000Y716500D02*
D03*
X2326000D02*
D03*
X2317000Y684000D02*
D03*
X2326000D02*
D03*
X2317000Y675000D02*
D03*
X2326000D02*
D03*
X2066500Y189500D02*
D03*
X2075500Y189500D02*
D03*
X2017500Y146500D02*
D03*
X2026500Y146500D02*
D03*
X1990500Y155500D02*
D03*
X1999500Y155500D02*
D03*
X2019500Y204500D02*
D03*
X2028500D02*
D03*
X1990500Y164500D02*
D03*
X1999500Y164500D02*
D03*
X2066500Y180500D02*
D03*
X2075500D02*
D03*
X2026500Y155500D02*
D03*
X2017500Y155500D02*
D03*
X2317000Y707500D02*
D03*
X2326000D02*
D03*
X2219500Y652000D02*
D03*
X2210500D02*
D03*
X2326000Y693000D02*
D03*
X2317000D02*
D03*
X2219500Y515000D02*
D03*
X2210500D02*
D03*
X2317000Y742500D02*
D03*
X2326000D02*
D03*
X2317000Y751500D02*
D03*
X2326000D02*
D03*
X2317000Y777500D02*
D03*
X2326000D02*
D03*
X2317000Y786500D02*
D03*
X2326000D02*
D03*
X2181000Y583500D02*
D03*
X2190000Y583500D02*
D03*
X2181000Y515000D02*
D03*
X2190000D02*
D03*
X2258000Y856500D02*
D03*
X2249000D02*
D03*
X1998000Y452000D02*
D03*
X2007000D02*
D03*
X2220000Y903500D02*
D03*
X2229000D02*
D03*
X2182000D02*
D03*
X2191000D02*
D03*
X2258000Y847500D02*
D03*
X2249000D02*
D03*
X2206500Y480500D02*
D03*
X2197500D02*
D03*
X2258000Y865500D02*
D03*
X2249000D02*
D03*
X2258000Y903500D02*
D03*
X2249000D02*
D03*
X2258000Y912500D02*
D03*
X2249000D02*
D03*
D127*
X1853000Y276000D02*
D03*
Y285000D02*
D03*
X1772000Y313000D02*
D03*
Y322000D02*
D03*
X1979500Y449500D02*
D03*
Y440500D02*
D03*
D128*
X1850500Y280500D02*
D03*
X1855500D02*
D03*
X1769500Y317500D02*
D03*
X1774500D02*
D03*
X1982000Y445000D02*
D03*
X1977000D02*
D03*
D129*
X1853000Y293250D02*
D03*
X1846500D02*
D03*
X1859500D02*
D03*
Y312750D02*
D03*
X1846500D02*
D03*
X1853000D02*
D03*
D130*
X1835500Y307500D02*
D03*
Y298500D02*
D03*
X2248500Y614000D02*
D03*
Y605000D02*
D03*
Y623000D02*
D03*
Y632000D02*
D03*
X1963000Y701750D02*
D03*
X2095500Y654000D02*
D03*
X1963000Y710750D02*
D03*
X2095500Y663000D02*
D03*
X2233500Y757000D02*
D03*
X1756000Y468500D02*
D03*
Y477500D02*
D03*
X1813500Y663250D02*
D03*
Y654250D02*
D03*
X2182000Y881000D02*
D03*
Y872000D02*
D03*
X2233500Y748000D02*
D03*
X1814500Y735000D02*
D03*
X1787500D02*
D03*
X1814750Y755750D02*
D03*
X1962500Y473000D02*
D03*
X1681000Y701750D02*
D03*
X1678500Y611500D02*
D03*
X1962500Y464000D02*
D03*
X1681000Y710750D02*
D03*
X1814500Y726000D02*
D03*
X1787500D02*
D03*
X1678500Y620500D02*
D03*
X1814750Y746750D02*
D03*
X2180500Y542000D02*
D03*
X2180500Y679000D02*
D03*
X1960500Y611500D02*
D03*
Y620500D02*
D03*
X2070500Y735000D02*
D03*
Y726000D02*
D03*
X2097500Y735000D02*
D03*
Y726000D02*
D03*
X2097500Y746500D02*
D03*
Y755500D02*
D03*
X1831500Y408500D02*
D03*
X1831500Y417500D02*
D03*
X2180500Y670000D02*
D03*
X1659500Y417000D02*
D03*
X1659500Y408000D02*
D03*
X1831500Y337500D02*
D03*
X1831500Y328500D02*
D03*
X1738000Y398000D02*
D03*
Y389000D02*
D03*
X2116000Y442500D02*
D03*
Y451500D02*
D03*
X2106500Y442500D02*
D03*
Y451500D02*
D03*
X2267000Y559000D02*
D03*
Y568000D02*
D03*
X2258000Y562000D02*
D03*
Y553000D02*
D03*
X2258000Y535000D02*
D03*
Y544000D02*
D03*
X2315000Y274000D02*
D03*
Y283000D02*
D03*
X2179500Y956500D02*
D03*
X2179500Y947500D02*
D03*
X2228972Y871830D02*
D03*
Y880830D02*
D03*
X2217500Y947500D02*
D03*
X2217500Y956500D02*
D03*
X2220000Y872000D02*
D03*
Y881000D02*
D03*
X2293500Y947500D02*
D03*
Y956500D02*
D03*
X2255500Y947500D02*
D03*
Y956500D02*
D03*
X2048500Y180500D02*
D03*
X2048500Y189500D02*
D03*
X1981500Y164500D02*
D03*
Y173500D02*
D03*
Y146500D02*
D03*
Y155500D02*
D03*
X2057500Y171500D02*
D03*
X2057500Y180500D02*
D03*
X2229500Y801500D02*
D03*
Y810500D02*
D03*
X2057500Y189500D02*
D03*
Y198500D02*
D03*
X2238500Y801500D02*
D03*
X2238500Y810500D02*
D03*
X2220500Y801500D02*
D03*
Y810500D02*
D03*
X2180500Y610500D02*
D03*
X2180500Y601500D02*
D03*
X2180500Y533000D02*
D03*
X2279500Y947500D02*
D03*
Y956500D02*
D03*
X2203500Y947500D02*
D03*
Y956500D02*
D03*
X2317500Y947500D02*
D03*
Y956500D02*
D03*
X2241500Y947500D02*
D03*
Y956500D02*
D03*
X2014500Y468000D02*
D03*
Y477000D02*
D03*
X2024000Y477000D02*
D03*
Y468000D02*
D03*
X2087500Y451500D02*
D03*
Y442500D02*
D03*
X2078500Y451500D02*
D03*
Y442500D02*
D03*
X2097000Y451500D02*
D03*
Y442500D02*
D03*
X2069500Y451500D02*
D03*
Y442500D02*
D03*
X2141000Y451500D02*
D03*
Y442500D02*
D03*
X2159500Y451500D02*
D03*
Y442500D02*
D03*
X2132000Y451500D02*
D03*
Y442500D02*
D03*
X2150500Y451500D02*
D03*
Y442500D02*
D03*
D131*
X1966500Y668500D02*
D03*
Y659500D02*
D03*
X2092500Y696500D02*
D03*
Y705500D02*
D03*
X1686500Y668500D02*
D03*
Y659500D02*
D03*
X1810500Y696500D02*
D03*
Y705500D02*
D03*
X1971000Y858500D02*
D03*
Y867500D02*
D03*
X1747000Y468500D02*
D03*
Y477500D02*
D03*
X2242500Y757000D02*
D03*
Y748000D02*
D03*
X1804000Y868000D02*
D03*
X1689000Y867500D02*
D03*
X1822000Y868000D02*
D03*
X1671000Y867500D02*
D03*
X1700500Y659500D02*
D03*
X1794000Y705500D02*
D03*
X1776000Y687500D02*
D03*
Y678500D02*
D03*
X1804000Y877000D02*
D03*
X1689000Y858500D02*
D03*
X1822000Y859000D02*
D03*
X1666000Y759250D02*
D03*
Y750250D02*
D03*
X1671000Y876500D02*
D03*
X1700500Y668500D02*
D03*
X1666000Y657000D02*
D03*
Y648000D02*
D03*
X1828500Y717000D02*
D03*
Y708000D02*
D03*
X1794000Y696500D02*
D03*
X1828500Y620000D02*
D03*
Y611000D02*
D03*
X2058000Y687500D02*
D03*
X1953000Y867500D02*
D03*
Y876500D02*
D03*
X1948000Y648000D02*
D03*
Y657000D02*
D03*
X1948000Y750250D02*
D03*
Y759250D02*
D03*
X1982500Y659500D02*
D03*
Y668500D02*
D03*
X2110500Y611000D02*
D03*
Y620000D02*
D03*
X2110500Y708000D02*
D03*
Y717000D02*
D03*
X2104000Y868000D02*
D03*
Y859000D02*
D03*
X2086000Y868000D02*
D03*
Y877000D02*
D03*
X2058000Y678500D02*
D03*
X2076000Y705500D02*
D03*
Y696500D02*
D03*
X1742000Y258000D02*
D03*
X1742000Y267000D02*
D03*
X1666500Y456000D02*
D03*
Y465000D02*
D03*
X1747000Y389000D02*
D03*
Y398000D02*
D03*
X1760000Y258000D02*
D03*
X1760000Y267000D02*
D03*
X1826000Y184000D02*
D03*
Y193000D02*
D03*
X1999500Y184500D02*
D03*
X1999500Y175500D02*
D03*
X2117500Y179000D02*
D03*
Y188000D02*
D03*
X2204000Y872000D02*
D03*
X2204000Y881000D02*
D03*
X2191000Y872000D02*
D03*
X2191000Y881000D02*
D03*
D132*
X2110500Y696500D02*
D03*
X2101500D02*
D03*
X1948000Y668500D02*
D03*
X1957000D02*
D03*
X1828500Y696500D02*
D03*
X1819500D02*
D03*
X1666000Y668500D02*
D03*
X1675000D02*
D03*
X2314500Y620500D02*
D03*
X2305500D02*
D03*
X2314500Y611500D02*
D03*
X2305500D02*
D03*
X1718500Y677500D02*
D03*
X2000500D02*
D03*
X2233500Y775000D02*
D03*
X1765500Y477500D02*
D03*
X1774500D02*
D03*
X1765500Y468500D02*
D03*
X1774500D02*
D03*
X1756000Y450500D02*
D03*
X1747000D02*
D03*
X1675500Y474000D02*
D03*
X1684500D02*
D03*
X2242500Y775000D02*
D03*
X1748000Y757000D02*
D03*
X1827000Y805500D02*
D03*
X1664500Y804250D02*
D03*
X1709500Y677500D02*
D03*
X1690000Y692500D02*
D03*
X1804500Y672500D02*
D03*
X1718000Y596500D02*
D03*
X1757000Y757000D02*
D03*
X1818000Y805500D02*
D03*
X1655500Y804250D02*
D03*
X1681000Y692500D02*
D03*
X1813500Y672500D02*
D03*
X1709000Y596500D02*
D03*
X2000000D02*
D03*
X1991000D02*
D03*
X1963000Y692500D02*
D03*
X1972000D02*
D03*
X1991500Y677500D02*
D03*
X2095500Y672000D02*
D03*
X2086500D02*
D03*
X1946500Y804500D02*
D03*
X1937500D02*
D03*
X2030000Y757000D02*
D03*
X2039000D02*
D03*
X2109000Y805500D02*
D03*
X2100000D02*
D03*
X1702500Y384000D02*
D03*
X1693500D02*
D03*
X1673000Y319500D02*
D03*
X1664000Y319500D02*
D03*
X1673000Y337500D02*
D03*
X1682000Y337500D02*
D03*
X1781000Y305500D02*
D03*
X1772000D02*
D03*
Y278500D02*
D03*
X1781000D02*
D03*
Y296500D02*
D03*
X1772000D02*
D03*
X1718000Y417000D02*
D03*
X1709000D02*
D03*
X2298000Y510000D02*
D03*
X2289000D02*
D03*
X2263000D02*
D03*
X2272000D02*
D03*
X2308000Y394000D02*
D03*
X2299000D02*
D03*
X2249000Y874500D02*
D03*
X2258000D02*
D03*
X2035500Y155500D02*
D03*
X2044500Y155500D02*
D03*
X2148000Y179000D02*
D03*
X2139000D02*
D03*
X2148000Y141000D02*
D03*
X2139000D02*
D03*
X2055000Y466500D02*
D03*
X2046000D02*
D03*
X2297500Y834000D02*
D03*
X2306500D02*
D03*
X2279500Y764000D02*
D03*
X2288500D02*
D03*
X2297500Y799000D02*
D03*
X2306500D02*
D03*
X2297500Y764000D02*
D03*
X2306500D02*
D03*
X2279500Y834000D02*
D03*
X2288500D02*
D03*
X2279500Y799000D02*
D03*
X2288500D02*
D03*
X2297500Y729000D02*
D03*
X2306500D02*
D03*
X2279500D02*
D03*
X2288500D02*
D03*
X2249000Y887500D02*
D03*
X2258000D02*
D03*
D133*
X2264750Y633500D02*
D03*
Y628500D02*
D03*
Y623500D02*
D03*
Y618500D02*
D03*
X2293250D02*
D03*
Y623500D02*
D03*
Y628500D02*
D03*
Y633500D02*
D03*
X2009750Y172500D02*
D03*
X2009750Y177500D02*
D03*
X2009750Y182500D02*
D03*
X2038250Y187500D02*
D03*
X2038250Y182500D02*
D03*
X2038250Y172500D02*
D03*
X2009750Y187500D02*
D03*
X2038250Y177500D02*
D03*
X2296750Y542000D02*
D03*
X2296750Y537000D02*
D03*
Y532000D02*
D03*
X2296750Y527000D02*
D03*
X2268250D02*
D03*
X2268250Y532000D02*
D03*
Y537000D02*
D03*
X2268250Y542000D02*
D03*
D134*
X2271500Y611750D02*
D03*
X2276500D02*
D03*
X2281500D02*
D03*
X2286500D02*
D03*
Y640250D02*
D03*
X2281500D02*
D03*
X2276500D02*
D03*
X2271500D02*
D03*
X2031500Y165750D02*
D03*
X2026500Y165750D02*
D03*
X2021500D02*
D03*
X2016500Y165750D02*
D03*
X2021500Y194250D02*
D03*
X2026500Y194250D02*
D03*
X2016500Y194250D02*
D03*
X2031500D02*
D03*
X2290000Y520250D02*
D03*
X2285000D02*
D03*
X2280000D02*
D03*
X2275000D02*
D03*
Y548750D02*
D03*
X2280000Y548750D02*
D03*
X2285000D02*
D03*
X2290000Y548750D02*
D03*
D135*
X2270500Y691500D02*
D03*
Y655500D02*
D03*
D136*
X2234000Y663100D02*
D03*
Y648900D02*
D03*
X2310000Y295900D02*
D03*
Y310100D02*
D03*
X2315000Y967900D02*
D03*
Y982100D02*
D03*
X2296000Y967900D02*
D03*
Y982100D02*
D03*
X2277000Y967900D02*
D03*
Y982100D02*
D03*
X2258000Y967900D02*
D03*
Y982100D02*
D03*
X2239000Y967900D02*
D03*
Y982100D02*
D03*
X2220000Y967900D02*
D03*
Y982100D02*
D03*
X2201000Y967900D02*
D03*
Y982100D02*
D03*
X2182000Y982100D02*
D03*
Y967900D02*
D03*
D137*
X2307900Y632000D02*
D03*
X2322100D02*
D03*
X2367900Y409500D02*
D03*
X2382100D02*
D03*
X2382100Y432500D02*
D03*
X2367900D02*
D03*
X2367900Y455500D02*
D03*
X2382100D02*
D03*
Y478500D02*
D03*
X2367900D02*
D03*
X2382100Y501500D02*
D03*
X2367900D02*
D03*
X2191900Y560500D02*
D03*
X2191900Y697500D02*
D03*
X2301600Y496500D02*
D03*
X2287400D02*
D03*
X2206100Y560500D02*
D03*
X2206100Y697500D02*
D03*
X2234100Y560500D02*
D03*
X2219900Y560500D02*
D03*
X2234100Y697500D02*
D03*
X2219900Y697500D02*
D03*
D138*
X2086000Y859000D02*
D03*
X2095000D02*
D03*
X1748000Y748000D02*
D03*
X1827000Y814500D02*
D03*
X1664500Y813250D02*
D03*
X1822000Y877000D02*
D03*
X1671000Y858500D02*
D03*
X1804000Y859000D02*
D03*
X1689000Y876500D02*
D03*
X1718500Y668500D02*
D03*
X2000500D02*
D03*
X2109000Y814500D02*
D03*
X2030000Y748000D02*
D03*
X1946500Y813500D02*
D03*
X2104000Y877000D02*
D03*
X1953000Y858500D02*
D03*
X1971000Y876500D02*
D03*
X1772000Y287500D02*
D03*
X1781000D02*
D03*
X2148000Y188000D02*
D03*
X2139000D02*
D03*
X2242500Y739000D02*
D03*
X2233500D02*
D03*
X1700000Y587500D02*
D03*
X1757000Y748000D02*
D03*
X1818000Y814500D02*
D03*
X1655500Y813250D02*
D03*
X1813000Y877000D02*
D03*
X1680000Y858500D02*
D03*
X1813000Y859000D02*
D03*
X1680000Y876500D02*
D03*
X1709500Y668500D02*
D03*
X1709000Y587500D02*
D03*
X1982000D02*
D03*
X1962000Y876500D02*
D03*
X1962000Y858500D02*
D03*
X1991000Y587500D02*
D03*
X1991500Y668500D02*
D03*
X2095000Y877000D02*
D03*
X1937500Y813500D02*
D03*
X2039000Y748000D02*
D03*
X2100000Y814500D02*
D03*
X1809000Y461500D02*
D03*
X1800000D02*
D03*
X1809000Y381500D02*
D03*
X1800000Y381500D02*
D03*
X1718000Y398000D02*
D03*
X1727000D02*
D03*
D139*
X2018500Y780250D02*
D03*
Y776250D02*
D03*
Y784250D02*
D03*
Y788250D02*
D03*
X2038500Y776250D02*
D03*
Y780250D02*
D03*
Y784250D02*
D03*
Y788250D02*
D03*
X1958000Y780750D02*
D03*
Y784750D02*
D03*
Y776750D02*
D03*
Y772750D02*
D03*
X1938000Y784750D02*
D03*
Y780750D02*
D03*
Y776750D02*
D03*
Y772750D02*
D03*
X2120500Y782000D02*
D03*
Y786000D02*
D03*
Y778000D02*
D03*
Y774000D02*
D03*
X2100500Y786000D02*
D03*
Y782000D02*
D03*
Y778000D02*
D03*
Y774000D02*
D03*
X1940750Y865500D02*
D03*
Y869500D02*
D03*
X1923250D02*
D03*
Y865500D02*
D03*
X2116250Y870000D02*
D03*
Y866000D02*
D03*
X2133750D02*
D03*
Y870000D02*
D03*
X1983250Y869500D02*
D03*
Y865500D02*
D03*
X2000750D02*
D03*
Y869500D02*
D03*
X2073750Y866000D02*
D03*
Y870000D02*
D03*
X2056250D02*
D03*
Y866000D02*
D03*
X1736500Y776500D02*
D03*
X1838500Y786000D02*
D03*
X1676000Y784750D02*
D03*
X1791750Y866000D02*
D03*
Y870000D02*
D03*
X1774250Y866000D02*
D03*
X1701250Y869500D02*
D03*
Y865500D02*
D03*
X1718750Y869500D02*
D03*
X1834250Y870000D02*
D03*
Y866000D02*
D03*
X1851750Y870000D02*
D03*
X1658750Y865500D02*
D03*
Y869500D02*
D03*
X1641250Y865500D02*
D03*
X1756500Y776500D02*
D03*
X1818500Y786000D02*
D03*
X1656000Y784750D02*
D03*
X1718750Y865500D02*
D03*
X1756500Y784500D02*
D03*
X1736500Y780500D02*
D03*
Y784500D02*
D03*
Y788500D02*
D03*
X1756500Y780500D02*
D03*
X1656000Y776750D02*
D03*
X1818500Y778000D02*
D03*
Y782000D02*
D03*
X1838500Y774000D02*
D03*
Y778000D02*
D03*
Y782000D02*
D03*
X1656000Y780750D02*
D03*
X1676000Y772750D02*
D03*
Y776750D02*
D03*
Y780750D02*
D03*
X1774250Y870000D02*
D03*
X1756500Y788500D02*
D03*
X1851750Y866000D02*
D03*
X1818500Y774000D02*
D03*
X1641250Y869500D02*
D03*
X1656000Y772750D02*
D03*
D140*
X2024500Y772250D02*
D03*
X2028500D02*
D03*
X2032500D02*
D03*
Y792250D02*
D03*
X2028500D02*
D03*
X2024500D02*
D03*
X1952000Y788750D02*
D03*
X1948000D02*
D03*
X1944000D02*
D03*
Y768750D02*
D03*
X1948000D02*
D03*
X1952000D02*
D03*
X2114500Y790000D02*
D03*
X2110500D02*
D03*
X2106500D02*
D03*
Y770000D02*
D03*
X2110500D02*
D03*
X2114500D02*
D03*
X1934000Y876250D02*
D03*
X1938000D02*
D03*
X1926000D02*
D03*
X1930000D02*
D03*
X1926000Y858750D02*
D03*
X1930000D02*
D03*
X1934000D02*
D03*
X1938000D02*
D03*
X2123000Y859250D02*
D03*
X2119000D02*
D03*
X2131000D02*
D03*
X2127000D02*
D03*
X2131000Y876750D02*
D03*
X2127000D02*
D03*
X2123000D02*
D03*
X2119000D02*
D03*
X1990000Y858750D02*
D03*
X1986000D02*
D03*
X1998000D02*
D03*
X1994000D02*
D03*
X1998000Y876250D02*
D03*
X1994000D02*
D03*
X1990000D02*
D03*
X1986000D02*
D03*
X2067000Y876750D02*
D03*
X2071000D02*
D03*
X2059000D02*
D03*
X2063000D02*
D03*
X2059000Y859250D02*
D03*
X2063000D02*
D03*
X2067000D02*
D03*
X2071000D02*
D03*
X1742500Y772500D02*
D03*
X1746500D02*
D03*
X1750500D02*
D03*
Y792500D02*
D03*
X1742500D02*
D03*
X1832500Y790000D02*
D03*
X1828500D02*
D03*
X1824500D02*
D03*
Y770000D02*
D03*
X1832500D02*
D03*
X1670000Y788750D02*
D03*
X1666000D02*
D03*
X1662000D02*
D03*
Y768750D02*
D03*
X1670000D02*
D03*
X1781000Y876750D02*
D03*
Y859250D02*
D03*
X1789000D02*
D03*
X1712000Y858750D02*
D03*
Y876250D02*
D03*
X1704000D02*
D03*
X1845000Y859250D02*
D03*
Y876750D02*
D03*
X1837000D02*
D03*
X1648000Y876250D02*
D03*
Y858750D02*
D03*
X1656000D02*
D03*
X1789000Y876750D02*
D03*
X1704000Y858750D02*
D03*
X1837000Y859250D02*
D03*
X1666000Y768750D02*
D03*
X1656000Y876250D02*
D03*
X1746500Y792500D02*
D03*
X1785000Y876750D02*
D03*
X1777000D02*
D03*
X1849000D02*
D03*
X1777000Y859250D02*
D03*
X1785000D02*
D03*
X1708000Y858750D02*
D03*
X1716000D02*
D03*
Y876250D02*
D03*
X1708000D02*
D03*
X1841000Y859250D02*
D03*
X1849000D02*
D03*
X1841000Y876750D02*
D03*
X1652000Y876250D02*
D03*
X1644000D02*
D03*
Y858750D02*
D03*
X1652000D02*
D03*
X1828500Y770000D02*
D03*
D141*
X2028500Y782250D02*
D03*
X1948000Y778750D02*
D03*
X2110500Y780000D02*
D03*
X1746500Y782500D02*
D03*
X1828500Y780000D02*
D03*
X1666000Y778750D02*
D03*
D142*
X2105500Y654250D02*
D03*
X2110500D02*
D03*
X2115500D02*
D03*
X2120500D02*
D03*
Y673250D02*
D03*
X2115500D02*
D03*
X2110500D02*
D03*
X2105500D02*
D03*
X1953000Y710750D02*
D03*
X1948000D02*
D03*
X1943000D02*
D03*
X1938000D02*
D03*
Y691750D02*
D03*
X1943000D02*
D03*
X1948000D02*
D03*
X1953000D02*
D03*
X1823500Y654250D02*
D03*
X1828500D02*
D03*
X1833500D02*
D03*
X1838500D02*
D03*
Y673250D02*
D03*
X1833500D02*
D03*
X1828500D02*
D03*
X1823500D02*
D03*
X1671000Y710750D02*
D03*
X1666000D02*
D03*
X1661000D02*
D03*
X1656000D02*
D03*
Y691750D02*
D03*
X1661000D02*
D03*
X1666000D02*
D03*
X1671000D02*
D03*
D143*
X2113000Y663750D02*
D03*
X1945500Y701250D02*
D03*
X1831000Y663750D02*
D03*
X1663500Y701250D02*
D03*
D144*
X1932000Y867500D02*
D03*
X2125000Y868000D02*
D03*
X1992000Y867500D02*
D03*
X2065000Y868000D02*
D03*
X1783000D02*
D03*
X1710000Y867500D02*
D03*
X1843000Y868000D02*
D03*
X1650000Y867500D02*
D03*
D145*
X2017750Y822750D02*
D03*
X2002250D02*
D03*
X1735750Y817000D02*
D03*
Y811250D02*
D03*
X1720250Y817000D02*
D03*
Y811250D02*
D03*
X1728000Y822750D02*
D03*
Y811250D02*
D03*
X1735750Y822750D02*
D03*
X1720250D02*
D03*
X2010000D02*
D03*
X2002250Y811250D02*
D03*
Y817000D02*
D03*
X2010000Y811250D02*
D03*
X2017750D02*
D03*
Y817000D02*
D03*
D146*
X1982750Y792250D02*
D03*
Y764250D02*
D03*
X2074250Y748750D02*
D03*
X1982750Y776750D02*
D03*
Y748750D02*
D03*
X2074250Y764250D02*
D03*
X1786500Y748750D02*
D03*
X1780750D02*
D03*
X1786500Y764250D02*
D03*
X1780750D02*
D03*
X1792250Y756500D02*
D03*
X1700750D02*
D03*
X1712250Y748750D02*
D03*
X1706500D02*
D03*
X1712250Y764250D02*
D03*
X1706500D02*
D03*
Y792250D02*
D03*
X1712250D02*
D03*
X1706500Y776750D02*
D03*
X1712250D02*
D03*
X1700750Y784500D02*
D03*
X1712250Y756500D02*
D03*
Y784500D02*
D03*
X1780750Y756500D02*
D03*
X1792250Y764250D02*
D03*
X1700750Y792250D02*
D03*
Y764250D02*
D03*
X1792250Y748750D02*
D03*
X1700750Y776750D02*
D03*
Y748750D02*
D03*
X1982750Y784500D02*
D03*
X1994250Y776750D02*
D03*
X1988500D02*
D03*
X1994250Y784500D02*
D03*
Y792250D02*
D03*
X1988500D02*
D03*
X1982750Y756500D02*
D03*
X1994250Y748750D02*
D03*
X1988500D02*
D03*
X1994250Y756500D02*
D03*
Y764250D02*
D03*
X1988500D02*
D03*
X2074250Y756500D02*
D03*
X2062750Y764250D02*
D03*
X2068500D02*
D03*
X2062750Y756500D02*
D03*
Y748750D02*
D03*
X2068500D02*
D03*
D147*
X2088250Y834500D02*
D03*
X1968875Y834000D02*
D03*
X2102000Y834500D02*
D03*
X1955125Y834000D02*
D03*
X1806250Y834500D02*
D03*
X1686875Y834000D02*
D03*
X1820000Y834500D02*
D03*
X1673125Y834000D02*
D03*
D148*
X2092625Y847000D02*
D03*
X2097375D02*
D03*
X1959625Y847000D02*
D03*
X1964375D02*
D03*
X1815375Y851000D02*
D03*
X1810625D02*
D03*
X1682375Y851000D02*
D03*
X1677625D02*
D03*
X1810625Y847000D02*
D03*
X1682375Y847000D02*
D03*
X1815375Y847000D02*
D03*
X1677625Y847000D02*
D03*
X1964375Y851000D02*
D03*
X1959625D02*
D03*
X2097375Y851000D02*
D03*
X2092625D02*
D03*
D149*
X1970500Y906500D02*
D03*
X1953500D02*
D03*
X1688500D02*
D03*
X1671500D02*
D03*
D150*
X1967620Y890000D02*
D03*
X1956380D02*
D03*
X1685620D02*
D03*
X1674380D02*
D03*
D151*
X2105500Y895000D02*
D03*
X2084500D02*
D03*
X1802500D02*
D03*
X1823500D02*
D03*
D152*
X1690000Y433500D02*
D03*
X1681000D02*
D03*
X1770000Y708500D02*
D03*
X1661000Y604000D02*
D03*
X1779000Y708500D02*
D03*
X1670000Y604000D02*
D03*
X1943000D02*
D03*
X1952000D02*
D03*
X2052000Y708500D02*
D03*
X2061000D02*
D03*
X1707500Y430000D02*
D03*
X1716500D02*
D03*
X1714000Y384000D02*
D03*
X1723000D02*
D03*
X1992000Y202500D02*
D03*
X1983000D02*
D03*
D153*
X1685500Y431000D02*
D03*
Y436000D02*
D03*
X1774500Y711000D02*
D03*
Y706000D02*
D03*
X1665500Y606500D02*
D03*
Y601500D02*
D03*
X1947500Y606500D02*
D03*
Y601500D02*
D03*
X2056500Y711000D02*
D03*
Y706000D02*
D03*
X1712000Y432500D02*
D03*
Y427500D02*
D03*
X1718500Y386500D02*
D03*
Y381500D02*
D03*
X1987500Y200000D02*
D03*
Y205000D02*
D03*
D154*
X1734750Y465000D02*
D03*
Y458500D02*
D03*
Y471500D02*
D03*
X1715250D02*
D03*
Y458500D02*
D03*
Y465000D02*
D03*
D155*
X1744250Y411750D02*
D03*
Y437250D02*
D03*
X1763750D02*
D03*
D156*
X2152400Y495500D02*
D03*
X2091600D02*
D03*
D157*
X2109500Y469000D02*
D03*
X2114500D02*
D03*
X2119500D02*
D03*
X2124500D02*
D03*
X2129500D02*
D03*
X2134500D02*
D03*
X2139500D02*
D03*
X2144500D02*
D03*
X2104500D02*
D03*
X2099500D02*
D03*
D158*
X1929500Y473000D02*
D03*
X1948500Y482500D02*
D03*
Y463500D02*
D03*
X2002000D02*
D03*
Y482500D02*
D03*
X1983000Y473000D02*
D03*
D159*
X1704250Y393000D02*
D03*
D160*
X1704750Y398000D02*
D03*
Y403000D02*
D03*
X1704750Y408000D02*
D03*
X1688250D02*
D03*
Y403000D02*
D03*
Y398000D02*
D03*
Y393000D02*
D03*
D161*
X2234000Y546500D02*
D03*
X2234000Y537500D02*
D03*
X2234000Y615000D02*
D03*
Y606000D02*
D03*
X1751000Y258000D02*
D03*
X1751000Y267000D02*
D03*
X1733000D02*
D03*
X1733000Y258000D02*
D03*
X1664000Y337500D02*
D03*
X1664000Y328500D02*
D03*
X1999500Y202500D02*
D03*
Y193500D02*
D03*
X2126500Y179000D02*
D03*
Y188000D02*
D03*
X2234000Y674500D02*
D03*
Y683500D02*
D03*
X1785000Y687500D02*
D03*
Y696500D02*
D03*
X2067000Y687500D02*
D03*
Y696500D02*
D03*
D162*
X2205000Y536500D02*
D03*
X2205000Y605000D02*
D03*
X2205000Y673500D02*
D03*
D163*
X2219500Y546250D02*
D03*
Y533250D02*
D03*
X2219500Y526750D02*
D03*
X2190500D02*
D03*
Y533250D02*
D03*
Y539750D02*
D03*
X2219500D02*
D03*
X2190500Y546250D02*
D03*
X2219500Y614750D02*
D03*
Y601750D02*
D03*
Y595250D02*
D03*
X2190500D02*
D03*
Y601750D02*
D03*
Y614750D02*
D03*
Y608250D02*
D03*
X2219500D02*
D03*
X2190500Y670250D02*
D03*
Y663750D02*
D03*
X2219500Y663750D02*
D03*
Y670250D02*
D03*
Y683250D02*
D03*
Y676750D02*
D03*
X2190500D02*
D03*
X2190500Y683250D02*
D03*
D164*
X2044000Y450000D02*
D03*
D165*
X2055200Y457500D02*
D03*
Y452500D02*
D03*
Y447500D02*
D03*
Y442500D02*
D03*
X2032800D02*
D03*
Y447500D02*
D03*
Y452500D02*
D03*
Y457500D02*
D03*
D166*
X1810000Y432500D02*
D03*
X1810000Y352500D02*
D03*
D167*
X1800250Y447000D02*
D03*
X1813250D02*
D03*
X1819750D02*
D03*
Y418000D02*
D03*
X1813250D02*
D03*
X1800250D02*
D03*
X1806750D02*
D03*
Y447000D02*
D03*
X1800250Y367000D02*
D03*
X1813250D02*
D03*
X1819750D02*
D03*
Y338000D02*
D03*
X1813250D02*
D03*
X1800250D02*
D03*
X1806750D02*
D03*
Y367000D02*
D03*
D168*
X1739500Y298500D02*
D03*
X1726500D02*
D03*
X1713500D02*
D03*
X1726500Y311500D02*
D03*
X1713500D02*
D03*
X1726500Y324500D02*
D03*
X1713500D02*
D03*
D169*
X1733000Y343000D02*
D03*
X1739500Y343000D02*
D03*
X1746000Y343000D02*
D03*
X1752500Y280000D02*
D03*
X1739500D02*
D03*
X1733000D02*
D03*
X1726500D02*
D03*
X1700500D02*
D03*
X1707000Y280000D02*
D03*
X1713500Y280000D02*
D03*
X1720000Y280000D02*
D03*
X1746000Y280000D02*
D03*
X1752500Y343000D02*
D03*
X1726500D02*
D03*
X1720000Y343000D02*
D03*
X1713500Y343000D02*
D03*
X1707000Y343000D02*
D03*
X1700500Y343000D02*
D03*
D170*
X1758000Y298500D02*
D03*
Y292000D02*
D03*
Y285500D02*
D03*
X1695000Y331000D02*
D03*
Y337500D02*
D03*
X1695000Y324500D02*
D03*
X1695000Y318000D02*
D03*
X1695000Y311500D02*
D03*
X1695000Y305000D02*
D03*
Y298500D02*
D03*
Y292000D02*
D03*
Y285500D02*
D03*
X1758000Y305000D02*
D03*
X1758000Y311500D02*
D03*
X1758000Y318000D02*
D03*
X1758000Y324500D02*
D03*
X1758000Y331000D02*
D03*
X1758000Y337500D02*
D03*
D171*
X1716500Y260500D02*
D03*
X1700500D02*
D03*
D172*
X1800500Y189000D02*
D03*
Y214400D02*
D03*
X1680500D02*
D03*
Y163600D02*
D03*
X1800500D02*
D03*
X1680500Y189000D02*
D03*
D173*
X1902250Y390000D02*
D03*
Y385000D02*
D03*
Y375000D02*
D03*
Y380000D02*
D03*
Y245000D02*
D03*
Y240000D02*
D03*
Y235000D02*
D03*
Y230000D02*
D03*
Y330000D02*
D03*
Y335000D02*
D03*
Y325000D02*
D03*
Y340000D02*
D03*
Y320000D02*
D03*
Y345000D02*
D03*
Y355000D02*
D03*
Y350000D02*
D03*
Y370000D02*
D03*
Y270000D02*
D03*
Y275000D02*
D03*
Y310000D02*
D03*
Y280000D02*
D03*
Y315000D02*
D03*
Y285000D02*
D03*
Y415000D02*
D03*
Y405000D02*
D03*
Y395000D02*
D03*
Y400000D02*
D03*
Y410000D02*
D03*
Y255000D02*
D03*
Y260000D02*
D03*
Y250000D02*
D03*
Y360000D02*
D03*
Y365000D02*
D03*
Y265000D02*
D03*
D174*
X1979500Y387500D02*
D03*
Y272500D02*
D03*
Y282500D02*
D03*
Y242500D02*
D03*
Y237500D02*
D03*
Y267500D02*
D03*
Y382500D02*
D03*
Y232500D02*
D03*
Y362500D02*
D03*
Y397500D02*
D03*
Y412500D02*
D03*
Y367500D02*
D03*
Y402500D02*
D03*
Y407500D02*
D03*
Y357500D02*
D03*
Y347500D02*
D03*
Y342500D02*
D03*
Y337500D02*
D03*
Y327500D02*
D03*
Y332500D02*
D03*
Y322500D02*
D03*
Y307500D02*
D03*
Y392500D02*
D03*
Y317500D02*
D03*
Y312500D02*
D03*
Y377500D02*
D03*
Y277500D02*
D03*
Y262500D02*
D03*
Y257500D02*
D03*
Y247500D02*
D03*
Y252500D02*
D03*
Y372500D02*
D03*
Y352500D02*
D03*
D175*
X1910000Y219000D02*
D03*
Y426000D02*
D03*
D176*
X2086500Y178750D02*
D03*
X2106500D02*
D03*
X2086500Y191250D02*
D03*
X2096500Y178750D02*
D03*
X2096500Y191250D02*
D03*
D177*
X2345250Y306250D02*
D03*
Y291250D02*
D03*
Y281250D02*
D03*
Y276250D02*
D03*
Y266250D02*
D03*
Y261250D02*
D03*
Y256250D02*
D03*
Y251250D02*
D03*
X2333750Y253750D02*
D03*
Y258750D02*
D03*
Y263750D02*
D03*
Y268750D02*
D03*
Y273750D02*
D03*
Y278750D02*
D03*
Y283750D02*
D03*
Y293750D02*
D03*
Y308750D02*
D03*
Y303750D02*
D03*
Y298750D02*
D03*
Y288750D02*
D03*
X2345250Y271250D02*
D03*
Y286250D02*
D03*
Y296250D02*
D03*
Y301250D02*
D03*
D178*
X2281000Y394250D02*
D03*
X2274000D02*
D03*
Y380750D02*
D03*
X2281000D02*
D03*
D179*
X2266250Y395000D02*
D03*
X2266250Y390000D02*
D03*
Y385000D02*
D03*
X2266250Y380000D02*
D03*
X2288750D02*
D03*
X2288750Y385000D02*
D03*
X2288750Y390000D02*
D03*
Y395000D02*
D03*
D180*
X2321500Y581000D02*
D03*
X2285500D02*
D03*
D181*
X2306500Y719500D02*
D03*
Y714500D02*
D03*
Y709500D02*
D03*
Y704500D02*
D03*
X2279500D02*
D03*
Y709500D02*
D03*
Y714500D02*
D03*
Y719500D02*
D03*
Y754500D02*
D03*
Y749500D02*
D03*
Y744500D02*
D03*
Y739500D02*
D03*
X2306500D02*
D03*
Y744500D02*
D03*
Y749500D02*
D03*
Y754500D02*
D03*
X2279500Y789500D02*
D03*
Y784500D02*
D03*
Y779500D02*
D03*
Y774500D02*
D03*
X2306500D02*
D03*
Y779500D02*
D03*
Y784500D02*
D03*
Y789500D02*
D03*
X2279500Y824500D02*
D03*
Y819500D02*
D03*
Y814500D02*
D03*
Y809500D02*
D03*
X2306500D02*
D03*
Y814500D02*
D03*
Y819500D02*
D03*
Y824500D02*
D03*
D182*
X2200000Y840000D02*
D03*
D183*
X2187500Y858850D02*
D03*
X2192500D02*
D03*
X2202500Y858850D02*
D03*
X2207500Y858850D02*
D03*
X2212500D02*
D03*
X2212500Y821150D02*
D03*
X2207500D02*
D03*
X2202500Y821150D02*
D03*
X2197500D02*
D03*
X2192500Y821150D02*
D03*
X2187500D02*
D03*
X2197500Y858850D02*
D03*
X2277500Y902350D02*
D03*
X2282500D02*
D03*
X2287500D02*
D03*
X2292500D02*
D03*
X2297500D02*
D03*
X2302500D02*
D03*
Y864650D02*
D03*
X2297500D02*
D03*
X2292500D02*
D03*
X2287500D02*
D03*
X2282500D02*
D03*
X2277500D02*
D03*
D184*
X2218850Y852500D02*
D03*
Y847500D02*
D03*
Y842500D02*
D03*
Y837500D02*
D03*
Y832500D02*
D03*
Y827500D02*
D03*
X2181150D02*
D03*
Y832500D02*
D03*
Y837500D02*
D03*
Y842500D02*
D03*
Y847500D02*
D03*
Y852500D02*
D03*
X2271150Y871000D02*
D03*
Y876000D02*
D03*
Y881000D02*
D03*
Y886000D02*
D03*
Y891000D02*
D03*
Y896000D02*
D03*
X2308850D02*
D03*
Y891000D02*
D03*
Y886000D02*
D03*
Y881000D02*
D03*
Y876000D02*
D03*
Y871000D02*
D03*
D185*
X2290000Y883500D02*
D03*
D186*
X1773750Y794250D02*
D03*
X1720750Y746750D02*
D03*
Y794250D02*
D03*
X1772250Y746750D02*
D03*
X1799750Y787750D02*
D03*
X1773750Y788750D02*
D03*
X1720750Y752250D02*
D03*
Y788750D02*
D03*
X1772250Y752250D02*
D03*
X1799750Y782250D02*
D03*
X2003000Y794250D02*
D03*
Y788750D02*
D03*
Y746750D02*
D03*
Y752250D02*
D03*
X2056000Y794250D02*
D03*
Y788750D02*
D03*
X2054250Y746750D02*
D03*
Y752250D02*
D03*
X2082000Y787750D02*
D03*
Y782250D02*
D03*
D187*
X1737750Y802750D02*
D03*
X1801000Y799250D02*
D03*
X1732250Y802750D02*
D03*
X1795500Y799250D02*
D03*
X2019750Y803000D02*
D03*
X2014250D02*
D03*
X2083000Y799250D02*
D03*
X2077500D02*
D03*
D188*
X1620410Y630000D02*
D03*
Y690000D02*
D03*
Y750000D02*
D03*
Y810000D02*
D03*
Y870000D02*
D03*
X1872590Y630000D02*
D03*
Y690000D02*
D03*
Y750000D02*
D03*
Y810000D02*
D03*
Y870000D02*
D03*
X1903410Y630000D02*
D03*
Y690000D02*
D03*
Y750000D02*
D03*
Y810000D02*
D03*
Y870000D02*
D03*
X2155590Y630000D02*
D03*
Y690000D02*
D03*
Y750000D02*
D03*
Y810000D02*
D03*
Y870000D02*
D03*
D189*
X1686500Y560411D02*
D03*
X1746500D02*
D03*
X1806500D02*
D03*
X1686500Y939589D02*
D03*
X1746500D02*
D03*
X1806500D02*
D03*
X1969500Y560411D02*
D03*
X2029500D02*
D03*
X2089500D02*
D03*
X1969500Y939589D02*
D03*
X2029500D02*
D03*
X2089500D02*
D03*
D190*
X1715950Y615500D02*
D03*
Y625500D02*
D03*
X1689050D02*
D03*
Y615500D02*
D03*
X1715950Y620500D02*
D03*
X1689050D02*
D03*
X1997950Y615500D02*
D03*
Y620500D02*
D03*
Y625500D02*
D03*
X1971050D02*
D03*
Y620500D02*
D03*
Y615500D02*
D03*
D191*
X1707500Y633950D02*
D03*
X1702500D02*
D03*
X1697500D02*
D03*
Y607050D02*
D03*
X1702500D02*
D03*
X1707500D02*
D03*
X1989500Y633950D02*
D03*
X1984500D02*
D03*
X1979500D02*
D03*
Y607050D02*
D03*
X1984500D02*
D03*
X1989500D02*
D03*
D192*
X1702500Y620500D02*
D03*
X1984500D02*
D03*
D193*
X1786500Y756500D02*
D03*
X1706500D02*
D03*
Y784500D02*
D03*
X1988500D02*
D03*
Y756500D02*
D03*
X2068500D02*
D03*
D194*
X1781900Y790750D02*
D03*
X1786500D02*
D03*
X1781900Y778250D02*
D03*
X1786500D02*
D03*
X1781900Y784500D02*
D03*
X1791100Y790750D02*
D03*
Y778250D02*
D03*
X2068500D02*
D03*
X2073100D02*
D03*
X2063900D02*
D03*
Y784500D02*
D03*
X2068500Y790750D02*
D03*
X2073100D02*
D03*
X2063900D02*
D03*
D195*
X1789375Y784500D02*
D03*
X2071375D02*
D03*
D196*
X1728000Y817000D02*
D03*
X2010000D02*
D03*
D197*
X1819500Y902250D02*
D03*
X1813000D02*
D03*
X1806500D02*
D03*
Y887750D02*
D03*
X1819500D02*
D03*
X1813000D02*
D03*
X2095000D02*
D03*
X2101500D02*
D03*
X2088500D02*
D03*
Y902250D02*
D03*
X2095000D02*
D03*
X2101500D02*
D03*
D198*
X1813125Y834500D02*
D03*
X1680000Y834000D02*
D03*
X1962000D02*
D03*
X2095125Y834500D02*
D03*
D199*
X1680000Y892275D02*
D03*
Y887725D02*
D03*
X1962000Y892275D02*
D03*
Y887725D02*
D03*
D200*
X1680000Y911000D02*
D03*
Y902000D02*
D03*
X1962000Y911000D02*
D03*
Y902000D02*
D03*
D201*
X1828225Y731500D02*
D03*
X1823775D02*
D03*
X1828225Y725800D02*
D03*
X1823775D02*
D03*
Y737200D02*
D03*
X1828225D02*
D03*
X2105775Y725800D02*
D03*
Y731500D02*
D03*
Y737200D02*
D03*
X2110225D02*
D03*
Y731500D02*
D03*
Y725800D02*
D03*
D202*
X2310000Y140000D02*
D03*
X1522500Y977500D02*
D03*
Y67500D02*
D03*
D203*
X2375000Y516000D02*
D03*
X2365500Y535000D02*
D03*
X2384500D02*
D03*
X2365500Y367000D02*
D03*
X2384500D02*
D03*
X2375000Y386000D02*
D03*
X2191500Y943500D02*
D03*
X2201000Y924500D02*
D03*
X2182000D02*
D03*
X2229500Y943500D02*
D03*
X2239000Y924500D02*
D03*
X2220000D02*
D03*
X2296000D02*
D03*
X2315000D02*
D03*
X2305500Y943500D02*
D03*
X2258000Y924500D02*
D03*
X2277000D02*
D03*
X2267500Y943500D02*
D03*
D204*
X1873700Y196800D02*
D03*
X2252300Y448200D02*
D03*
X1873700D02*
D03*
X2252300Y196800D02*
D03*
X2191000Y749500D02*
D03*
X1585000D02*
D03*
X1888000Y525000D02*
D03*
D205*
X2377500Y646200D02*
D03*
Y697000D02*
D03*
Y671600D02*
D03*
X2352100D02*
D03*
Y646200D02*
D03*
X2377500Y620800D02*
D03*
X2352100D02*
D03*
X2377500Y595400D02*
D03*
X2352100D02*
D03*
Y570000D02*
D03*
X2377500Y849400D02*
D03*
X2352100D02*
D03*
X2377500Y824000D02*
D03*
X2352100D02*
D03*
X2377500Y798600D02*
D03*
X2352100D02*
D03*
X2377500Y773200D02*
D03*
X2352100D02*
D03*
X2377500Y747800D02*
D03*
X2352100D02*
D03*
X2377500Y722400D02*
D03*
X2352100D02*
D03*
Y697000D02*
D03*
X2377500Y874800D02*
D03*
X2352100D02*
D03*
X2377500Y900200D02*
D03*
X2352100D02*
D03*
X2337500Y443700D02*
D03*
Y494500D02*
D03*
Y469100D02*
D03*
Y418300D02*
D03*
Y392900D02*
D03*
D206*
X2377500Y570000D02*
D03*
X2337500Y367500D02*
D03*
D207*
X1955000Y422500D02*
D03*
D208*
Y222500D02*
D03*
D209*
X2343000Y320500D02*
D03*
Y239500D02*
D03*
D210*
X2338000Y323200D02*
D03*
Y236800D02*
D03*
D211*
X2386500Y335200D02*
D03*
Y224800D02*
D03*
D212*
X1575000Y93500D02*
D03*
Y947500D02*
D03*
Y573500D02*
D03*
X2360000Y157500D02*
D03*
Y960000D02*
D03*
D213*
X2237500Y322500D02*
D03*
D214*
X1888000Y975000D02*
D03*
M02*
