M48
;Layer_Color=9474304
;FILE_FORMAT=4:4
METRIC,TZ
;TYPE=PLATED
T1F00S00C0.2000
T3F00S00C2.6000
%
T01
X20000Y97500
X12500Y125000
X22000Y136500
X28000
X34000
Y143500
X28000
X22000
X25500Y162500
X30500Y166500
Y173500
X25500Y177500
X12500Y170000
X28316Y196407
X34316
Y203407
X28316
X12500Y215000
X17500Y242500
X63000Y240500
Y260500
X86000
X94000Y265500
X103000
X119500Y262500
X117000Y273500
X129913Y284000
X135913
X144980Y284312
Y290312
X150980
Y296312
X144980Y296314
X162500Y295517
Y289515
Y283515
X153000Y273500
X139000Y262500
Y247500
X139000Y232500
X119500
X112000Y232500
X103000
X94000
X86000Y240500
X70336Y226608
X69684Y173407
X63684
Y166407
X69684
X87500Y180000
X93500
X119500Y172500
Y187500
Y202500
Y217500
X119500Y247500
X124000Y294000
Y300000
X119698Y324962
X157074Y320182
X163074Y320180
Y314180
X157074
X172971Y302773
X178971
X201000Y271000
Y265000
X208000
Y271000
X215000
Y265000
X222000Y271000
X215073Y251500
X191000Y244000
X214000Y214000
X220000Y202000
X270000Y200000
X280000
Y190000
X270000
Y180000
X280000
Y170000
X270000
Y160000
X280000
Y150000
Y140000
X270000
Y150000
Y130000
X280000
Y120000
X270000
Y110000
X280000
Y100000
Y90000
X290000
Y100000
Y110000
Y120000
Y130000
Y140000
Y150000
Y160000
Y170000
Y180000
Y190000
Y200000
Y210000
X280000
X270000
Y220000
X280000
Y230000
X270000
Y240000
X280000
Y250000
X270000
Y260000
X280000
X290000
Y250000
Y240000
Y230000
Y220000
X285684Y317137
X270130Y319997
X250000Y312500
X241500Y128500
X247500Y97500
Y88500
X252500Y85000
X257500Y88500
X262500Y85000
X257500Y97500
X270000Y100000
X290000Y80000
X289500Y21000
X219000Y22000
X213000
Y28000
X219000
Y40000
X213000
Y63500
X208000Y69000
Y75000
X201000
Y69000
X187500Y51000
X177500Y45000
X171500
X162500
X159500Y31000
X165500
X172500
X180500
X187500
X212500Y7500
X218500
X144500Y21000
X144000Y81500
Y88500
X139000Y92500
Y77500
X95514Y82617
X84320Y82383
X74983Y82008
X56000Y97000
X90137Y114823
X119500Y157500
X139000
Y172500
Y187500
X138500Y200500
X155000Y132500
X196000Y120000
X188500Y97500
X48005Y287407
X300000Y260000
Y250000
Y240000
Y230000
Y220000
Y210000
Y200000
Y190000
Y180000
Y170000
Y160000
Y150000
Y140000
Y130000
Y120000
Y110000
Y100000
Y90000
Y80000
X310000
X320000
Y90000
Y100000
X310000
Y90000
Y110000
X320000
Y120000
X310000
Y130000
X320000
Y140000
Y150000
X310000
Y140000
Y160000
X320000
Y170000
X310000
Y180000
X320000
Y190000
Y200000
X310000
Y190000
Y210000
X320000
Y220000
X310000
Y230000
X320000
Y240000
Y250000
X310000
Y240000
Y260000
X320000
X330000
X340000
Y250000
Y240000
X330000
Y250000
Y230000
X340000
Y220000
X330000
Y210000
X340000
Y200000
Y190000
X330000
Y200000
Y180000
X340000
Y170000
X330000
Y160000
X340000
Y150000
Y140000
X330000
Y150000
Y130000
X340000
Y120000
X330000
Y110000
X340000
Y100000
Y90000
X330000
Y100000
Y80000
X340000
X350000
X360000
Y90000
X350000
Y100000
X360000
Y110000
X350000
Y120000
X360000
Y130000
X350000
Y140000
Y150000
X360000
Y140000
X370000
Y150000
Y160000
X360000
X350000
Y170000
X360000
Y180000
X350000
Y190000
Y200000
X360000
Y190000
X370000
Y200000
Y210000
X360000
X350000
Y220000
X360000
Y230000
X350000
Y240000
Y250000
X360000
Y240000
X370000
Y250000
Y260000
X360000
X350000
X380000
Y250000
Y240000
Y230000
X370000
Y220000
X380000
Y210000
Y200000
Y190000
Y180000
X370000
Y170000
X380000
Y160000
Y150000
Y140000
Y130000
X370000
Y120000
Y110000
Y100000
Y90000
Y80000
X380000
Y90000
Y100000
Y110000
Y120000
X390000
X400000
Y130000
X390000
Y140000
Y150000
X400000
Y140000
X410000
Y150000
Y160000
X400000
X390000
Y170000
X400000
Y180000
X390000
Y190000
Y200000
X400000
Y190000
X410000
Y200000
Y210000
X400000
X390000
Y220000
X400000
Y230000
X390000
Y240000
Y250000
X400000
Y240000
X410000
Y250000
Y260000
X400000
X390000
X398046Y278204
X422938Y278533
X420000Y260000
Y250000
Y240000
Y230000
X410000
Y220000
X420000
Y210000
Y200000
Y190000
Y180000
X410000
Y170000
X420000
Y160000
Y150000
Y140000
Y130000
X410000
Y120000
Y110000
X400000
X390000
Y100000
Y90000
X400000
Y100000
X410000
Y90000
Y80000
X400000
X390000
X420000
Y90000
Y100000
Y110000
Y120000
X430000
Y110000
Y100000
Y90000
Y80000
X429500Y50000
X398000Y44500
X380500Y23000
X340500Y21000
X332500Y31000
X322500
X307500
X362000Y52500
X354000Y62500
X462500Y72500
Y100000
Y122500
X445000Y133500
X430000Y130000
Y140000
Y150000
Y160000
Y170000
Y180000
Y190000
Y200000
Y210000
Y220000
Y230000
Y240000
Y250000
Y260000
X440521Y303340
X486840Y319985
X505000Y284000
X525000
Y262000
X520000Y256000
X510000
X507750Y249750
X505000Y243500
Y233000
X517500Y237000
Y226500
X514250Y220250
X513000Y214000
Y206000
Y195000
X501000
X494500Y199500
X485500
X470000Y206000
X479000Y227500
X501000Y214000
Y206000
X497500Y183500
Y173500
Y163500
X516000Y166000
Y181000
X530000Y185000
Y170000
Y155000
Y140000
X532500Y132500
X542500Y127500
X545000Y140000
Y155000
X570000Y150000
X580000Y144500
X588500
X597500Y144500
X606500Y144500
X612500
X590000Y125000
X575000
X560000
X552500Y120000
X557500Y107500
Y95000
Y82500
Y70000
X560000Y57500
X567500Y50000
X565000Y27500
X550000Y35000
X540000Y47500
X525000
X517000Y63500
X497000
X505000Y52500
Y37500
X507949Y9878
X480000Y10000
X430000
X497000Y85500
X500500Y92500
X513500
X517000Y85500
X519933Y103942
X513485Y114012
X513000Y120000
X525000Y117500
X535000Y110000
X537500Y100000
Y87500
Y75000
Y62500
X580000Y65500
X588500
X597500Y65500
X606500Y65500
X612500Y65500
Y14500
X606500
X597500Y14500
X588500Y14500
X580000
X560000Y140000
X513000Y135457
X492500Y130000
Y115000
X500485Y114012
X492500Y100000
Y145000
X530000Y200000
X527000Y206000
X530000Y220000
X545000
X550000Y230000
X542170Y232783
X525673Y232606
X531534Y253064
X540682Y252954
X547500Y252500
X552500Y260000
Y270000
X549913Y279461
X552500Y287500
X543500Y291000
X555000Y300000
X565000Y310000
X567500Y290000
Y277500
Y265000
Y252500
X565000Y242500
X557500Y237500
X560000Y215000
X575000
X590000
X588500Y195500
X580000
X597500Y195500
X606500Y195500
X612500Y195500
X572500Y185000
X560000Y200000
X545000
Y185000
X505000Y262000
X483500Y267500
X580000Y274500
X588500
X597500Y274500
X606500Y274500
X612500Y274500
Y325500
X606500Y325500
X597500Y325500
X588500Y325500
X580000
X505000Y330000
X258000
X186408Y328330
X175168Y331288
T03
X462500Y170000
M30
