G04*
G04 #@! TF.GenerationSoftware,Altium Limited,Altium Designer,20.1.12 (249)*
G04*
G04 Layer_Physical_Order=4*
G04 Layer_Color=16711680*
%FSLAX44Y44*%
%MOMM*%
G71*
G04*
G04 #@! TF.SameCoordinates,ADC5D222-85A9-45F4-B70E-F1EBAED22DC9*
G04*
G04*
G04 #@! TF.FilePolarity,Positive*
G04*
G01*
G75*
%ADD61C,0.1500*%
G04:AMPARAMS|DCode=77|XSize=0.6mm|YSize=2.3mm|CornerRadius=0.15mm|HoleSize=0mm|Usage=FLASHONLY|Rotation=90.000|XOffset=0mm|YOffset=0mm|HoleType=Round|Shape=RoundedRectangle|*
%AMROUNDEDRECTD77*
21,1,0.6000,2.0000,0,0,90.0*
21,1,0.3000,2.3000,0,0,90.0*
1,1,0.3000,1.0000,0.1500*
1,1,0.3000,1.0000,-0.1500*
1,1,0.3000,-1.0000,-0.1500*
1,1,0.3000,-1.0000,0.1500*
%
%ADD77ROUNDEDRECTD77*%
%ADD86C,0.4500*%
%ADD90C,0.1350*%
%ADD91C,5.0000*%
G04:AMPARAMS|DCode=92|XSize=5.3mm|YSize=5.3mm|CornerRadius=0.3975mm|HoleSize=0mm|Usage=FLASHONLY|Rotation=0.000|XOffset=0mm|YOffset=0mm|HoleType=Round|Shape=RoundedRectangle|*
%AMROUNDEDRECTD92*
21,1,5.3000,4.5050,0,0,0.0*
21,1,4.5050,5.3000,0,0,0.0*
1,1,0.7950,2.2525,-2.2525*
1,1,0.7950,-2.2525,-2.2525*
1,1,0.7950,-2.2525,2.2525*
1,1,0.7950,2.2525,2.2525*
%
%ADD92ROUNDEDRECTD92*%
%ADD93C,0.4500*%
%ADD94C,3.6000*%
G04:AMPARAMS|DCode=95|XSize=1.3mm|YSize=1.85mm|CornerRadius=0.325mm|HoleSize=0mm|Usage=FLASHONLY|Rotation=270.000|XOffset=0mm|YOffset=0mm|HoleType=Round|Shape=RoundedRectangle|*
%AMROUNDEDRECTD95*
21,1,1.3000,1.2000,0,0,270.0*
21,1,0.6500,1.8500,0,0,270.0*
1,1,0.6500,-0.6000,-0.3250*
1,1,0.6500,-0.6000,0.3250*
1,1,0.6500,0.6000,0.3250*
1,1,0.6500,0.6000,-0.3250*
%
%ADD95ROUNDEDRECTD95*%
%ADD96C,0.8000*%
G36*
X32961Y256655D02*
X32961Y227500D01*
X32961Y227500D01*
X33116Y226720D01*
X33558Y226058D01*
X33558Y226058D01*
X70558Y189058D01*
X71220Y188616D01*
X72000Y188461D01*
X123655D01*
X135890Y176226D01*
X136057Y176114D01*
X136199Y175972D01*
X136385Y175895D01*
X136552Y175784D01*
X136749Y175744D01*
X136934Y175668D01*
X137363Y175583D01*
X138094Y175094D01*
X138583Y174363D01*
X138668Y173934D01*
X138744Y173749D01*
X138784Y173552D01*
X138895Y173385D01*
X138972Y173199D01*
X138988Y173184D01*
X138901Y172563D01*
X138762Y172266D01*
X138321Y171674D01*
X136948Y171400D01*
X135542Y170461D01*
X134603Y169055D01*
X134273Y167397D01*
X134334Y167090D01*
X131048Y163804D01*
X43500D01*
X42427Y163591D01*
X41517Y162983D01*
X33339Y154804D01*
X27750D01*
Y178451D01*
X32500D01*
X32583Y178468D01*
X32667Y178457D01*
X33646Y178521D01*
X33888Y178586D01*
X34139Y178602D01*
X36030Y179109D01*
X36329Y179256D01*
X36645Y179363D01*
X38340Y180343D01*
X38591Y180562D01*
X38868Y180748D01*
X40252Y182132D01*
X40438Y182409D01*
X40658Y182660D01*
X41636Y184356D01*
X41744Y184671D01*
X41891Y184970D01*
X42398Y186861D01*
X42420Y187194D01*
X42485Y187521D01*
Y189479D01*
X42420Y189806D01*
X42398Y190139D01*
X41891Y192030D01*
X41744Y192329D01*
X41636Y192645D01*
X40658Y194340D01*
X40438Y194591D01*
X40252Y194868D01*
X38868Y196252D01*
X38591Y196438D01*
X38340Y196658D01*
X36644Y197636D01*
X36329Y197744D01*
X36030Y197891D01*
X34139Y198398D01*
X33888Y198414D01*
X33646Y198479D01*
X32667Y198543D01*
X32583Y198532D01*
X32500Y198549D01*
X27750D01*
Y258961D01*
X30655D01*
X32961Y256655D01*
D02*
G37*
G36*
X140016Y163166D02*
X140862Y162755D01*
X141303Y162283D01*
X141305Y162279D01*
X141582Y161863D01*
X141754Y161000D01*
X141582Y160137D01*
X141094Y159406D01*
X140363Y158918D01*
X139400Y158726D01*
X139222Y158761D01*
X139025Y158722D01*
X138824D01*
X138639Y158645D01*
X138442Y158606D01*
X138275Y158495D01*
X138089Y158418D01*
X137947Y158276D01*
X137780Y158164D01*
X86058Y106442D01*
X85616Y105780D01*
X85461Y105000D01*
Y65000D01*
X85616Y64220D01*
X86058Y63558D01*
X86058Y63558D01*
X99558Y50058D01*
X100220Y49616D01*
X101000Y49461D01*
X128036D01*
X128610Y48075D01*
X106839Y26304D01*
X65661D01*
X63804Y28161D01*
Y48000D01*
X63590Y49073D01*
X62983Y49983D01*
X38983Y73983D01*
X38073Y74590D01*
X37000Y74804D01*
X27750D01*
Y85783D01*
X32225D01*
X50378Y67629D01*
X51925Y66596D01*
X53749Y66233D01*
X65526D01*
X70333Y61426D01*
Y47677D01*
Y38299D01*
X70696Y36475D01*
X71729Y34928D01*
X75912Y30746D01*
X77459Y29712D01*
X79283Y29350D01*
X83305D01*
X83914Y29471D01*
X84132Y29466D01*
X84872Y29596D01*
X85629Y29066D01*
X87331Y28317D01*
X89191Y28276D01*
X90924Y28950D01*
X92268Y30236D01*
X93017Y31939D01*
X93057Y33798D01*
X92383Y35532D01*
X92192Y35732D01*
X91690Y38579D01*
X91801Y38833D01*
X91842Y40692D01*
X91168Y42425D01*
X89881Y43769D01*
X88179Y44518D01*
X86320Y44558D01*
X84586Y43884D01*
X84267Y43578D01*
X82767Y44219D01*
Y46476D01*
Y64601D01*
X82404Y66425D01*
X81370Y67972D01*
X72072Y77270D01*
X70525Y78304D01*
X68701Y78667D01*
X56925D01*
X38771Y96820D01*
X37224Y97854D01*
X35400Y98217D01*
X27750D01*
Y149196D01*
X34500D01*
X35573Y149410D01*
X36483Y150017D01*
X44661Y158196D01*
X132209D01*
X133282Y158410D01*
X134192Y159017D01*
X138299Y163125D01*
X138606Y163064D01*
X139512Y163244D01*
X140016Y163166D01*
D02*
G37*
G36*
X51318Y260182D02*
X51537Y257903D01*
X52680Y253483D01*
X54500Y249297D01*
X56953Y245447D01*
X59978Y242029D01*
X63500Y239125D01*
X67433Y236808D01*
X71680Y235135D01*
X76137Y234147D01*
X77432Y234068D01*
X77500Y234000D01*
X78547D01*
X80693Y233869D01*
X82056Y234000D01*
X107757D01*
X108051Y233737D01*
X108508Y233000D01*
X108409Y232247D01*
X108181Y231216D01*
X108204Y230686D01*
X108134Y230161D01*
X108272Y229114D01*
X108318Y228059D01*
X108478Y227554D01*
X108547Y227028D01*
X108951Y226053D01*
X109269Y225046D01*
X109553Y224599D01*
X109756Y224109D01*
X110399Y223271D01*
X110966Y222381D01*
X111357Y222023D01*
X111679Y221602D01*
X112517Y220960D01*
X113296Y220246D01*
X113766Y220002D01*
X114186Y219679D01*
X115162Y219275D01*
X116098Y218787D01*
X116616Y218673D01*
X117105Y218470D01*
X118152Y218332D01*
X119183Y218103D01*
X119713Y218127D01*
X120238Y218057D01*
X121285Y218195D01*
X122340Y218241D01*
X122845Y218401D01*
X123371Y218470D01*
X124346Y218874D01*
X125353Y219191D01*
X125800Y219476D01*
X126290Y219679D01*
X127127Y220322D01*
X128018Y220889D01*
X128376Y221280D01*
X128797Y221602D01*
X129439Y222440D01*
X130153Y223219D01*
X130397Y223689D01*
X130720Y224109D01*
X131124Y225085D01*
X131612Y226021D01*
X131726Y226539D01*
X131929Y227028D01*
X132067Y228075D01*
X132296Y229106D01*
X132272Y229636D01*
X132341Y230161D01*
X132204Y231208D01*
X132158Y232263D01*
X131998Y232768D01*
X131968Y233000D01*
X132588Y234000D01*
X136000D01*
X175000Y195000D01*
Y152500D01*
X106000Y83500D01*
Y72500D01*
X108500Y70000D01*
X131500D01*
X161500Y100000D01*
X187500Y100000D01*
X194667Y92833D01*
Y66620D01*
X194997Y64962D01*
X195000Y64957D01*
Y60000D01*
X214500Y40500D01*
Y19152D01*
X209466Y14117D01*
X156000D01*
X155409Y14000D01*
X152000D01*
X143000Y5000D01*
X42500D01*
X40000Y7500D01*
Y17500D01*
X28500Y29000D01*
X23000D01*
Y34931D01*
X24000D01*
X24345Y35000D01*
X39000D01*
X57500Y16500D01*
X88619D01*
X89033Y15995D01*
X89363Y14337D01*
X90303Y12931D01*
X91708Y11991D01*
X93367Y11661D01*
X95025Y11991D01*
X96431Y12931D01*
X97370Y14337D01*
X97700Y15995D01*
X98115Y16500D01*
X111500D01*
X146000Y51000D01*
X167500Y51000D01*
X170000Y53500D01*
Y64000D01*
X167500Y66500D01*
X145500D01*
X130500Y51500D01*
X101000D01*
X87500Y65000D01*
Y105000D01*
X139222Y156722D01*
X139500Y156667D01*
X141158Y156997D01*
X142564Y157936D01*
X143503Y159342D01*
X143833Y161000D01*
X143503Y162658D01*
X143000Y163412D01*
Y172000D01*
X140668Y174332D01*
X140503Y175158D01*
X139564Y176564D01*
X138158Y177503D01*
X137332Y177668D01*
X124500Y190500D01*
X72000D01*
X35000Y227500D01*
X35000Y257500D01*
X31500Y261000D01*
X24345D01*
X24000Y261069D01*
X20500D01*
Y267000D01*
X44500D01*
X51318Y260182D01*
D02*
G37*
G36*
X194667Y132242D02*
Y97676D01*
X193281Y97102D01*
X188941Y101442D01*
X188280Y101884D01*
X187500Y102039D01*
X164464Y102039D01*
X163890Y103425D01*
X193281Y132816D01*
X194667Y132242D01*
D02*
G37*
G36*
X190196Y141771D02*
Y137661D01*
X134517Y81983D01*
X129839Y77304D01*
X127946D01*
X127144Y78804D01*
X127503Y79342D01*
X127833Y81000D01*
X127588Y82234D01*
X127793Y82577D01*
X128423Y83207D01*
X128766Y83412D01*
X130000Y83167D01*
X131658Y83497D01*
X133064Y84436D01*
X134003Y85842D01*
X134333Y87500D01*
X134272Y87807D01*
X188810Y142345D01*
X190196Y141771D01*
D02*
G37*
G36*
X54196Y44839D02*
Y25500D01*
X52881Y24424D01*
X52497Y24387D01*
X40442Y36442D01*
X39780Y36884D01*
X39000Y37039D01*
X27750D01*
Y61196D01*
X37839D01*
X54196Y44839D01*
D02*
G37*
G36*
X506951Y2549D02*
X217230D01*
X216700Y4049D01*
X237344Y24693D01*
X277186D01*
X279527Y25158D01*
X281512Y26484D01*
X282838Y28469D01*
X283303Y30810D01*
X282838Y33151D01*
X281512Y35136D01*
X279527Y36462D01*
X277186Y36928D01*
X234821D01*
X203333Y68415D01*
Y205908D01*
X203003Y207566D01*
X202064Y208972D01*
X168083Y242953D01*
Y244897D01*
X169750D01*
X171798Y245305D01*
X173535Y246465D01*
X174695Y248202D01*
X175103Y250250D01*
Y256750D01*
X174695Y258798D01*
X173535Y260535D01*
X173213Y260750D01*
Y262250D01*
X173535Y262465D01*
X174695Y264202D01*
X175103Y266250D01*
Y272750D01*
X174695Y274798D01*
X173535Y276535D01*
X172991Y276899D01*
Y278703D01*
X173175Y278825D01*
X174224Y280397D01*
X174593Y282250D01*
Y283750D01*
X163750D01*
X152907D01*
Y282250D01*
X153276Y280397D01*
X154325Y278825D01*
X154509Y278703D01*
Y276899D01*
X153965Y276535D01*
X152805Y274798D01*
X152397Y272750D01*
Y266250D01*
X152627Y265093D01*
X148690Y261155D01*
X147304Y261729D01*
Y269000D01*
X147090Y270073D01*
X146483Y270983D01*
X136373Y281093D01*
X136603Y282250D01*
Y288750D01*
X136195Y290798D01*
X135035Y292535D01*
X133298Y293695D01*
X131250Y294103D01*
X119250D01*
X117201Y293695D01*
X115465Y292535D01*
X114305Y290798D01*
X113897Y288750D01*
Y282250D01*
X114305Y280202D01*
X115465Y278465D01*
X115787Y278250D01*
Y276750D01*
X115465Y276535D01*
X114305Y274798D01*
X113897Y272750D01*
Y266250D01*
X114305Y264202D01*
X115465Y262465D01*
X115787Y262250D01*
Y260750D01*
X115465Y260535D01*
X114305Y258798D01*
X113897Y256750D01*
Y250250D01*
X114305Y248202D01*
X115465Y246465D01*
X117201Y245305D01*
X119250Y244897D01*
X131250D01*
X132696Y243655D01*
Y240408D01*
X132910Y239335D01*
X133517Y238426D01*
X134518Y237425D01*
X133944Y236039D01*
X132588D01*
X132358Y235993D01*
X132123Y235985D01*
X130860Y236190D01*
X130346Y236700D01*
X130077Y237050D01*
X129510Y237941D01*
X129119Y238299D01*
X128797Y238719D01*
X127959Y239362D01*
X127180Y240075D01*
X126710Y240320D01*
X126290Y240643D01*
X125314Y241047D01*
X124378Y241535D01*
X123860Y241649D01*
X123371Y241852D01*
X122324Y241990D01*
X121293Y242218D01*
X120763Y242195D01*
X120238Y242264D01*
X119191Y242127D01*
X118136Y242080D01*
X117631Y241921D01*
X117105Y241852D01*
X116130Y241448D01*
X115123Y241130D01*
X114676Y240846D01*
X114186Y240643D01*
X113349Y240000D01*
X112458Y239433D01*
X112100Y239042D01*
X111679Y238719D01*
X111037Y237882D01*
X110323Y237103D01*
X110079Y236633D01*
X109706Y236202D01*
X108432Y235924D01*
X108093Y235972D01*
X107757Y236039D01*
X94703D01*
X94265Y237539D01*
X97692Y239722D01*
X101110Y242747D01*
X104014Y246269D01*
X106331Y250202D01*
X108004Y254449D01*
X108992Y258906D01*
X109270Y263462D01*
X108833Y268005D01*
X107690Y272425D01*
X105870Y276611D01*
X103417Y280461D01*
X100392Y283879D01*
X96870Y286783D01*
X92937Y289100D01*
X88690Y290772D01*
X84234Y291761D01*
X79677Y292039D01*
X75134Y291602D01*
X70714Y290459D01*
X66528Y288639D01*
X62678Y286186D01*
X59260Y283161D01*
X56356Y279639D01*
X54039Y275706D01*
X52366Y271459D01*
X51378Y267002D01*
X51260Y265058D01*
X49857Y264527D01*
X45942Y268442D01*
X45280Y268884D01*
X44500Y269039D01*
X27750D01*
Y276677D01*
X28747Y277090D01*
X28955Y277229D01*
X29187Y277325D01*
X30491Y278197D01*
X30669Y278374D01*
X30877Y278514D01*
X31986Y279622D01*
X32126Y279831D01*
X32303Y280009D01*
X33175Y281313D01*
X33210Y281398D01*
X34168Y282502D01*
X45832D01*
Y297451D01*
X506951D01*
Y2549D01*
D02*
G37*
%LPC*%
G36*
X81409Y220032D02*
X79751Y219702D01*
X78345Y218763D01*
X77406Y217357D01*
X77076Y215699D01*
X77406Y214040D01*
X78345Y212635D01*
X79751Y211695D01*
X81409Y211366D01*
X83068Y211695D01*
X84473Y212635D01*
X85413Y214040D01*
X85743Y215699D01*
X85413Y217357D01*
X84473Y218763D01*
X83068Y219702D01*
X81409Y220032D01*
D02*
G37*
G36*
X84014Y205260D02*
X82356Y204930D01*
X80950Y203991D01*
X80011Y202585D01*
X79681Y200926D01*
X80011Y199268D01*
X80950Y197862D01*
X82356Y196923D01*
X84014Y196593D01*
X85673Y196923D01*
X87078Y197862D01*
X88018Y199268D01*
X88348Y200926D01*
X88018Y202585D01*
X87078Y203991D01*
X85673Y204930D01*
X84014Y205260D01*
D02*
G37*
G36*
X162963Y89714D02*
X161305Y89384D01*
X159899Y88444D01*
X158960Y87039D01*
X158630Y85380D01*
X158960Y83722D01*
X159899Y82316D01*
X161305Y81377D01*
X162963Y81047D01*
X164621Y81377D01*
X166027Y82316D01*
X166966Y83722D01*
X167296Y85380D01*
X166966Y87039D01*
X166027Y88444D01*
X164621Y89384D01*
X162963Y89714D01*
D02*
G37*
G36*
X154968Y42781D02*
X154139Y42672D01*
X153304Y42636D01*
X152904Y42510D01*
X152488Y42455D01*
X151715Y42135D01*
X150918Y41884D01*
X150564Y41658D01*
X150177Y41498D01*
X149514Y40989D01*
X148808Y40539D01*
X148525Y40230D01*
X148192Y39975D01*
X147683Y39312D01*
X147119Y38695D01*
X146925Y38323D01*
X146669Y37990D01*
X146349Y37218D01*
X145964Y36477D01*
X145873Y36067D01*
X145712Y35679D01*
X145603Y34851D01*
X145422Y34035D01*
X145441Y33615D01*
X145386Y33199D01*
X145495Y32371D01*
X145531Y31535D01*
X145657Y31135D01*
X145712Y30719D01*
X146032Y29947D01*
X146283Y29150D01*
X146509Y28796D01*
X146669Y28408D01*
X147178Y27745D01*
X147627Y27040D01*
X147937Y26757D01*
X148192Y26424D01*
X148855Y25915D01*
X149472Y25350D01*
X149844Y25157D01*
X150177Y24901D01*
X150949Y24581D01*
X151690Y24195D01*
X152100Y24104D01*
X152488Y23944D01*
X153316Y23835D01*
X154132Y23654D01*
X154552Y23672D01*
X154968Y23617D01*
X155796Y23726D01*
X156631Y23763D01*
X157032Y23889D01*
X157448Y23944D01*
X158220Y24264D01*
X159017Y24515D01*
X159371Y24741D01*
X159759Y24901D01*
X160422Y25410D01*
X161127Y25859D01*
X161410Y26168D01*
X161743Y26424D01*
X162252Y27087D01*
X162817Y27703D01*
X163010Y28075D01*
X163266Y28408D01*
X163586Y29181D01*
X163972Y29922D01*
X164062Y30332D01*
X164223Y30719D01*
X164332Y31548D01*
X164513Y32364D01*
X164495Y32783D01*
X164550Y33199D01*
X164440Y34028D01*
X164404Y34863D01*
X164278Y35263D01*
X164223Y35679D01*
X163903Y36451D01*
X163652Y37249D01*
X163426Y37603D01*
X163266Y37990D01*
X162757Y38654D01*
X162308Y39358D01*
X161999Y39642D01*
X161743Y39975D01*
X161080Y40484D01*
X160464Y41048D01*
X160091Y41242D01*
X159759Y41498D01*
X158986Y41817D01*
X158245Y42203D01*
X157835Y42294D01*
X157448Y42455D01*
X156619Y42564D01*
X155803Y42745D01*
X155384Y42726D01*
X154968Y42781D01*
D02*
G37*
G36*
X169750Y293593D02*
X165500D01*
Y287250D01*
X174593D01*
Y288750D01*
X174224Y290603D01*
X173175Y292175D01*
X171603Y293224D01*
X169750Y293593D01*
D02*
G37*
G36*
X162000D02*
X157750D01*
X155897Y293224D01*
X154325Y292175D01*
X153276Y290603D01*
X152907Y288750D01*
Y287250D01*
X162000D01*
Y293593D01*
D02*
G37*
G36*
X416250Y200828D02*
X414826Y200719D01*
X417839Y183632D01*
X434926Y186645D01*
X434541Y188020D01*
X432761Y191534D01*
X430328Y194633D01*
X427338Y197198D01*
X423905Y199130D01*
X420161Y200356D01*
X416250Y200828D01*
D02*
G37*
G36*
X409902Y199851D02*
X408527Y199466D01*
X405013Y197685D01*
X401914Y195253D01*
X399349Y192263D01*
X397416Y188830D01*
X396191Y185086D01*
X395719Y181174D01*
X395828Y179751D01*
X412915Y182763D01*
X409902Y199851D01*
D02*
G37*
G36*
X435794Y181721D02*
X418707Y178708D01*
X421720Y161621D01*
X423095Y162005D01*
X426609Y163786D01*
X429708Y166219D01*
X432273Y169209D01*
X434206Y172642D01*
X435431Y176386D01*
X435903Y180297D01*
X435794Y181721D01*
D02*
G37*
G36*
X413783Y177839D02*
X396696Y174827D01*
X397081Y173452D01*
X398862Y169938D01*
X401294Y166839D01*
X404284Y164273D01*
X407717Y162341D01*
X411461Y161115D01*
X415373Y160644D01*
X416796Y160753D01*
X413783Y177839D01*
D02*
G37*
G36*
X402307Y66131D02*
X397764Y65694D01*
X393344Y64551D01*
X389158Y62731D01*
X385308Y60278D01*
X381890Y57253D01*
X378986Y53731D01*
X376669Y49798D01*
X374996Y45551D01*
X374008Y41094D01*
X373730Y36538D01*
X374167Y31995D01*
X375310Y27575D01*
X377130Y23389D01*
X379583Y19540D01*
X382608Y16121D01*
X386130Y13217D01*
X390063Y10900D01*
X394310Y9227D01*
X398767Y8239D01*
X403323Y7961D01*
X407866Y8398D01*
X412286Y9541D01*
X416472Y11361D01*
X420322Y13814D01*
X423740Y16839D01*
X426644Y20361D01*
X428961Y24294D01*
X430634Y28541D01*
X431622Y32998D01*
X431900Y37554D01*
X431463Y42097D01*
X430320Y46517D01*
X428500Y50703D01*
X426047Y54553D01*
X423022Y57971D01*
X419500Y60875D01*
X415567Y63192D01*
X411320Y64865D01*
X406863Y65853D01*
X402307Y66131D01*
D02*
G37*
%LPD*%
D61*
X148000Y63500D02*
X160500D01*
X162000Y62000D01*
X165500D01*
X144000Y54000D02*
X160000D01*
X161370Y55370D02*
X165528D01*
X160000Y54000D02*
X161370Y55370D01*
X110000Y20000D02*
X144000Y54000D01*
X108000Y23500D02*
X148000Y63500D01*
X64500Y23500D02*
X108000D01*
X61000Y27000D02*
X64500Y23500D01*
X110500Y83000D02*
X179500Y152000D01*
X110500Y74500D02*
Y83000D01*
X179500Y152000D02*
Y196408D01*
X184000Y149000D02*
Y198272D01*
X123500Y81000D02*
Y88500D01*
X184000Y149000D01*
X130000Y87500D02*
X188500Y146000D01*
Y200136D01*
X193000Y136500D02*
Y202000D01*
X136500Y80000D02*
X193000Y136500D01*
X132209Y161000D02*
X138606Y167397D01*
X89000Y161000D02*
X132209D01*
X14000Y152000D02*
X34500D01*
X43500Y161000D02*
X89000D01*
X34500Y152000D02*
X43500Y161000D01*
X62500Y20000D02*
X110000D01*
X37000Y72000D02*
X61000Y48000D01*
X14000Y72000D02*
X37000D01*
X61000Y27000D02*
Y48000D01*
X57000Y25500D02*
Y46000D01*
Y25500D02*
X62500Y20000D01*
X39000Y64000D02*
X57000Y46000D01*
X144500Y244136D02*
X188500Y200136D01*
X140000Y242272D02*
X184000Y198272D01*
X140000Y242272D02*
Y257500D01*
X135500Y240408D02*
Y246000D01*
Y240408D02*
X179500Y196408D01*
X144500Y244136D02*
Y269000D01*
X149000Y246000D02*
X193000Y202000D01*
X149000Y246000D02*
Y257500D01*
X131000Y74500D02*
X136500Y80000D01*
X123500Y74500D02*
X131000D01*
X30000Y256000D02*
X30000Y256000D01*
X149000Y257500D02*
X161000Y269500D01*
X128000Y253500D02*
X135500Y246000D01*
X128000Y269500D02*
X140000Y257500D01*
X128000Y285500D02*
X144500Y269000D01*
X125250Y253500D02*
X128000D01*
X125250Y269500D02*
X128000D01*
X125250Y285500D02*
X128000D01*
X161000Y269500D02*
X163750D01*
X14000Y64000D02*
X39000D01*
X38334Y285002D02*
Y294998D01*
X43332Y290000D01*
X36668D01*
D77*
X14000Y32000D02*
D03*
Y40000D02*
D03*
Y48000D02*
D03*
Y56000D02*
D03*
Y64000D02*
D03*
Y72000D02*
D03*
Y80000D02*
D03*
Y88000D02*
D03*
Y96000D02*
D03*
Y104000D02*
D03*
Y112000D02*
D03*
Y120000D02*
D03*
Y128000D02*
D03*
Y136000D02*
D03*
Y144000D02*
D03*
Y152000D02*
D03*
Y160000D02*
D03*
Y264000D02*
D03*
Y256000D02*
D03*
Y248000D02*
D03*
Y240000D02*
D03*
Y232000D02*
D03*
Y224000D02*
D03*
Y216000D02*
D03*
Y168000D02*
D03*
Y208000D02*
D03*
D86*
X199000Y66620D02*
Y205908D01*
Y66620D02*
X234810Y30810D01*
X14000Y80000D02*
X30000D01*
X26500Y136000D02*
X29048D01*
X26500Y136000D02*
X26500Y136000D01*
X14000Y136000D02*
X26500D01*
X30000Y236000D02*
Y256000D01*
Y212000D02*
Y236000D01*
X163750Y241158D02*
X199000Y205908D01*
X163750Y241158D02*
Y253500D01*
X14000Y168000D02*
X30000D01*
X14000Y256000D02*
X30000D01*
X14000Y40000D02*
X30000D01*
D90*
X68701Y73900D02*
X78000Y64601D01*
Y46476D02*
Y64601D01*
X67500Y71000D02*
X75100Y63400D01*
Y47677D02*
Y63400D01*
X78000Y39500D02*
Y46476D01*
X54950Y73900D02*
X68701D01*
X25496Y90550D02*
X34199D01*
X75100Y38299D02*
Y47677D01*
X53749Y71000D02*
X67500D01*
X80484Y37016D02*
X82801D01*
X78000Y39500D02*
X80484Y37016D01*
X85485Y37489D02*
X87148Y39864D01*
X82801Y37016D02*
X85485Y37489D01*
X22947Y96000D02*
X25496Y93450D01*
X14000Y96000D02*
X22947D01*
X79283Y34116D02*
X83305D01*
X75100Y38299D02*
X79283Y34116D01*
X83305Y34160D02*
X85988Y34633D01*
X88363Y32970D01*
X83305Y34116D02*
Y34160D01*
X22947Y88000D02*
X25496Y90550D01*
X14000Y88000D02*
X22947D01*
X35400Y93450D02*
X54950Y73900D01*
X25496Y93450D02*
X35400D01*
X34199Y90550D02*
X53749Y71000D01*
D91*
X402815Y37046D02*
D03*
X80185Y262954D02*
D03*
D92*
X480500Y271000D02*
D03*
Y29000D02*
D03*
D93*
X452769Y135567D02*
D03*
X449380Y152969D02*
D03*
X315585Y21993D02*
D03*
X254594Y21597D02*
D03*
X277186Y30810D02*
D03*
X64641Y51136D02*
D03*
X51672Y7224D02*
D03*
X36977Y39707D02*
D03*
X57109Y11841D02*
D03*
X158500Y58500D02*
D03*
X136500Y173500D02*
D03*
X220000Y32500D02*
D03*
X457500Y222500D02*
D03*
Y207500D02*
D03*
X445000D02*
D03*
X435000Y212500D02*
D03*
X427500Y220000D02*
D03*
X420000Y227500D02*
D03*
X467500Y100000D02*
D03*
X497500D02*
D03*
Y70000D02*
D03*
X467500D02*
D03*
Y200000D02*
D03*
X497500D02*
D03*
Y230000D02*
D03*
X467500D02*
D03*
X450000Y225000D02*
D03*
X442500Y232500D02*
D03*
X435000Y240000D02*
D03*
X427500Y247500D02*
D03*
X420000Y255000D02*
D03*
X412500Y262500D02*
D03*
X405000Y267500D02*
D03*
X397500Y272500D02*
D03*
X390000Y277500D02*
D03*
X380000Y282500D02*
D03*
X370000Y287500D02*
D03*
X360000Y290000D02*
D03*
X350000D02*
D03*
X340000D02*
D03*
X330000D02*
D03*
X320000D02*
D03*
X310000D02*
D03*
X300000D02*
D03*
X290000D02*
D03*
X280000D02*
D03*
X270000D02*
D03*
X425000Y112500D02*
D03*
Y150000D02*
D03*
Y125000D02*
D03*
X437500Y112500D02*
D03*
Y125000D02*
D03*
X450000D02*
D03*
Y175000D02*
D03*
Y162500D02*
D03*
Y112500D02*
D03*
Y187500D02*
D03*
X462500Y125000D02*
D03*
Y175000D02*
D03*
Y162500D02*
D03*
Y137500D02*
D03*
Y112500D02*
D03*
Y187500D02*
D03*
X475000Y125000D02*
D03*
Y175000D02*
D03*
Y112500D02*
D03*
Y187500D02*
D03*
X500000Y125000D02*
D03*
Y175000D02*
D03*
Y162500D02*
D03*
Y137500D02*
D03*
Y112500D02*
D03*
Y187500D02*
D03*
X487500D02*
D03*
Y112500D02*
D03*
Y175000D02*
D03*
Y125000D02*
D03*
X447500Y30000D02*
D03*
X375000Y7500D02*
D03*
X422500D02*
D03*
X330000D02*
D03*
Y32500D02*
D03*
X350000D02*
D03*
Y7500D02*
D03*
X440000Y92500D02*
D03*
X450000D02*
D03*
X420000D02*
D03*
X430000D02*
D03*
X440000Y77500D02*
D03*
X450000D02*
D03*
X420000D02*
D03*
X430000D02*
D03*
X410000D02*
D03*
X390000D02*
D03*
X400000D02*
D03*
X380000Y70000D02*
D03*
X370000D02*
D03*
X360000Y60000D02*
D03*
X350000Y50000D02*
D03*
Y40000D02*
D03*
X330000D02*
D03*
Y50000D02*
D03*
Y60000D02*
D03*
X410000Y240000D02*
D03*
Y230000D02*
D03*
Y220000D02*
D03*
Y120000D02*
D03*
Y130000D02*
D03*
Y140000D02*
D03*
Y100000D02*
D03*
Y92500D02*
D03*
Y110000D02*
D03*
X400000Y250000D02*
D03*
Y240000D02*
D03*
Y230000D02*
D03*
Y210000D02*
D03*
Y220000D02*
D03*
Y150000D02*
D03*
Y120000D02*
D03*
Y130000D02*
D03*
Y140000D02*
D03*
Y100000D02*
D03*
Y92500D02*
D03*
Y110000D02*
D03*
X390000Y250000D02*
D03*
Y240000D02*
D03*
Y230000D02*
D03*
Y200000D02*
D03*
Y210000D02*
D03*
Y220000D02*
D03*
Y160000D02*
D03*
Y150000D02*
D03*
Y120000D02*
D03*
Y130000D02*
D03*
Y140000D02*
D03*
Y100000D02*
D03*
Y92500D02*
D03*
Y110000D02*
D03*
X380000Y250000D02*
D03*
Y240000D02*
D03*
Y260000D02*
D03*
Y230000D02*
D03*
Y200000D02*
D03*
Y210000D02*
D03*
Y220000D02*
D03*
Y190000D02*
D03*
Y160000D02*
D03*
Y170000D02*
D03*
Y180000D02*
D03*
Y150000D02*
D03*
Y120000D02*
D03*
Y130000D02*
D03*
Y140000D02*
D03*
Y100000D02*
D03*
Y90000D02*
D03*
Y110000D02*
D03*
X370000Y250000D02*
D03*
Y240000D02*
D03*
Y260000D02*
D03*
Y230000D02*
D03*
Y200000D02*
D03*
Y210000D02*
D03*
Y220000D02*
D03*
Y190000D02*
D03*
Y160000D02*
D03*
Y170000D02*
D03*
Y180000D02*
D03*
Y150000D02*
D03*
Y120000D02*
D03*
Y130000D02*
D03*
Y140000D02*
D03*
Y100000D02*
D03*
Y90000D02*
D03*
Y110000D02*
D03*
X270000Y270000D02*
D03*
X280000D02*
D03*
X290000D02*
D03*
X300000D02*
D03*
X310000D02*
D03*
X320000D02*
D03*
X330000D02*
D03*
X340000D02*
D03*
X350000D02*
D03*
X360000D02*
D03*
X32500Y275000D02*
D03*
X40000D02*
D03*
X50000Y295000D02*
D03*
X100000Y294000D02*
D03*
X111500D02*
D03*
X360000Y110000D02*
D03*
Y90000D02*
D03*
Y100000D02*
D03*
Y140000D02*
D03*
Y130000D02*
D03*
Y120000D02*
D03*
Y150000D02*
D03*
Y180000D02*
D03*
Y170000D02*
D03*
Y160000D02*
D03*
Y190000D02*
D03*
Y220000D02*
D03*
Y210000D02*
D03*
Y200000D02*
D03*
Y230000D02*
D03*
Y260000D02*
D03*
Y240000D02*
D03*
Y250000D02*
D03*
X350000Y110000D02*
D03*
Y80000D02*
D03*
Y90000D02*
D03*
Y100000D02*
D03*
Y140000D02*
D03*
Y130000D02*
D03*
Y120000D02*
D03*
Y150000D02*
D03*
Y180000D02*
D03*
Y170000D02*
D03*
Y160000D02*
D03*
Y190000D02*
D03*
Y220000D02*
D03*
Y210000D02*
D03*
Y200000D02*
D03*
Y230000D02*
D03*
Y260000D02*
D03*
Y240000D02*
D03*
Y250000D02*
D03*
X340000Y110000D02*
D03*
Y70000D02*
D03*
Y80000D02*
D03*
Y90000D02*
D03*
Y100000D02*
D03*
Y140000D02*
D03*
Y130000D02*
D03*
Y120000D02*
D03*
Y150000D02*
D03*
Y180000D02*
D03*
Y170000D02*
D03*
Y160000D02*
D03*
Y190000D02*
D03*
Y220000D02*
D03*
Y210000D02*
D03*
Y200000D02*
D03*
Y230000D02*
D03*
Y260000D02*
D03*
Y240000D02*
D03*
Y250000D02*
D03*
X330000Y110000D02*
D03*
Y70000D02*
D03*
Y80000D02*
D03*
Y90000D02*
D03*
Y100000D02*
D03*
Y140000D02*
D03*
Y130000D02*
D03*
Y120000D02*
D03*
Y150000D02*
D03*
Y180000D02*
D03*
Y170000D02*
D03*
Y160000D02*
D03*
Y190000D02*
D03*
Y220000D02*
D03*
Y210000D02*
D03*
Y200000D02*
D03*
Y230000D02*
D03*
Y260000D02*
D03*
Y240000D02*
D03*
Y250000D02*
D03*
X320000Y110000D02*
D03*
Y70000D02*
D03*
Y80000D02*
D03*
Y90000D02*
D03*
Y100000D02*
D03*
Y140000D02*
D03*
Y130000D02*
D03*
Y120000D02*
D03*
Y150000D02*
D03*
Y180000D02*
D03*
Y170000D02*
D03*
Y160000D02*
D03*
Y190000D02*
D03*
Y220000D02*
D03*
Y210000D02*
D03*
Y200000D02*
D03*
Y230000D02*
D03*
Y260000D02*
D03*
Y240000D02*
D03*
Y250000D02*
D03*
X310000Y110000D02*
D03*
Y70000D02*
D03*
Y80000D02*
D03*
Y90000D02*
D03*
Y100000D02*
D03*
Y140000D02*
D03*
Y130000D02*
D03*
Y120000D02*
D03*
Y150000D02*
D03*
Y180000D02*
D03*
Y170000D02*
D03*
Y160000D02*
D03*
Y190000D02*
D03*
Y220000D02*
D03*
Y210000D02*
D03*
Y200000D02*
D03*
Y230000D02*
D03*
Y260000D02*
D03*
Y240000D02*
D03*
Y250000D02*
D03*
X300000Y110000D02*
D03*
Y70000D02*
D03*
Y80000D02*
D03*
Y90000D02*
D03*
Y100000D02*
D03*
Y140000D02*
D03*
Y130000D02*
D03*
Y120000D02*
D03*
Y150000D02*
D03*
Y180000D02*
D03*
Y170000D02*
D03*
Y160000D02*
D03*
Y190000D02*
D03*
Y220000D02*
D03*
Y210000D02*
D03*
Y200000D02*
D03*
Y230000D02*
D03*
Y260000D02*
D03*
Y240000D02*
D03*
Y250000D02*
D03*
X290000Y110000D02*
D03*
Y70000D02*
D03*
Y80000D02*
D03*
Y90000D02*
D03*
Y100000D02*
D03*
Y140000D02*
D03*
Y130000D02*
D03*
Y120000D02*
D03*
Y150000D02*
D03*
Y180000D02*
D03*
Y170000D02*
D03*
Y160000D02*
D03*
Y190000D02*
D03*
Y220000D02*
D03*
Y210000D02*
D03*
Y200000D02*
D03*
Y230000D02*
D03*
Y260000D02*
D03*
Y240000D02*
D03*
Y250000D02*
D03*
X280000Y110000D02*
D03*
Y70000D02*
D03*
Y80000D02*
D03*
Y90000D02*
D03*
Y100000D02*
D03*
Y140000D02*
D03*
Y130000D02*
D03*
Y120000D02*
D03*
Y150000D02*
D03*
Y180000D02*
D03*
Y170000D02*
D03*
Y160000D02*
D03*
Y190000D02*
D03*
Y220000D02*
D03*
Y210000D02*
D03*
Y200000D02*
D03*
Y230000D02*
D03*
Y260000D02*
D03*
Y240000D02*
D03*
Y250000D02*
D03*
X270000Y110000D02*
D03*
Y70000D02*
D03*
Y80000D02*
D03*
Y90000D02*
D03*
Y100000D02*
D03*
Y140000D02*
D03*
Y130000D02*
D03*
Y120000D02*
D03*
Y150000D02*
D03*
Y180000D02*
D03*
Y170000D02*
D03*
Y160000D02*
D03*
Y190000D02*
D03*
Y220000D02*
D03*
Y210000D02*
D03*
Y200000D02*
D03*
Y230000D02*
D03*
Y260000D02*
D03*
Y240000D02*
D03*
Y250000D02*
D03*
X260000Y110000D02*
D03*
Y70000D02*
D03*
Y80000D02*
D03*
Y90000D02*
D03*
Y100000D02*
D03*
Y140000D02*
D03*
Y130000D02*
D03*
Y120000D02*
D03*
Y150000D02*
D03*
Y180000D02*
D03*
Y170000D02*
D03*
Y160000D02*
D03*
Y190000D02*
D03*
Y220000D02*
D03*
Y210000D02*
D03*
Y200000D02*
D03*
Y230000D02*
D03*
Y260000D02*
D03*
Y240000D02*
D03*
Y250000D02*
D03*
X250000Y110000D02*
D03*
Y70000D02*
D03*
Y80000D02*
D03*
Y90000D02*
D03*
Y100000D02*
D03*
Y140000D02*
D03*
Y130000D02*
D03*
Y120000D02*
D03*
Y150000D02*
D03*
Y180000D02*
D03*
Y170000D02*
D03*
Y160000D02*
D03*
Y190000D02*
D03*
Y220000D02*
D03*
Y210000D02*
D03*
Y200000D02*
D03*
Y230000D02*
D03*
Y260000D02*
D03*
Y240000D02*
D03*
Y250000D02*
D03*
X240000Y110000D02*
D03*
Y70000D02*
D03*
Y80000D02*
D03*
Y90000D02*
D03*
Y100000D02*
D03*
Y140000D02*
D03*
Y130000D02*
D03*
Y120000D02*
D03*
Y150000D02*
D03*
Y180000D02*
D03*
Y170000D02*
D03*
Y160000D02*
D03*
Y190000D02*
D03*
Y220000D02*
D03*
Y210000D02*
D03*
Y200000D02*
D03*
Y230000D02*
D03*
Y260000D02*
D03*
Y240000D02*
D03*
Y250000D02*
D03*
X230000Y110000D02*
D03*
Y70000D02*
D03*
Y80000D02*
D03*
Y90000D02*
D03*
Y100000D02*
D03*
Y140000D02*
D03*
Y130000D02*
D03*
Y120000D02*
D03*
Y150000D02*
D03*
Y180000D02*
D03*
Y170000D02*
D03*
Y160000D02*
D03*
Y190000D02*
D03*
Y220000D02*
D03*
Y210000D02*
D03*
Y200000D02*
D03*
Y230000D02*
D03*
Y260000D02*
D03*
Y240000D02*
D03*
Y250000D02*
D03*
X180000Y240000D02*
D03*
Y250000D02*
D03*
Y260000D02*
D03*
X190000D02*
D03*
Y250000D02*
D03*
Y240000D02*
D03*
Y230000D02*
D03*
X200000D02*
D03*
Y220000D02*
D03*
Y240000D02*
D03*
Y250000D02*
D03*
Y260000D02*
D03*
X220000Y250000D02*
D03*
Y240000D02*
D03*
Y260000D02*
D03*
X210000D02*
D03*
Y250000D02*
D03*
Y240000D02*
D03*
Y200000D02*
D03*
Y210000D02*
D03*
Y220000D02*
D03*
Y230000D02*
D03*
X220000D02*
D03*
Y200000D02*
D03*
Y210000D02*
D03*
Y220000D02*
D03*
X210000Y160000D02*
D03*
Y170000D02*
D03*
Y180000D02*
D03*
Y190000D02*
D03*
X220000D02*
D03*
Y160000D02*
D03*
Y170000D02*
D03*
Y180000D02*
D03*
X210000Y120000D02*
D03*
Y130000D02*
D03*
Y140000D02*
D03*
Y150000D02*
D03*
X220000D02*
D03*
Y120000D02*
D03*
Y130000D02*
D03*
Y140000D02*
D03*
Y100000D02*
D03*
Y90000D02*
D03*
Y80000D02*
D03*
Y70000D02*
D03*
Y110000D02*
D03*
X210000D02*
D03*
Y100000D02*
D03*
Y90000D02*
D03*
Y80000D02*
D03*
Y70000D02*
D03*
X165000Y115000D02*
D03*
X174000Y106500D02*
D03*
X139500Y161000D02*
D03*
X150000Y276000D02*
D03*
X147500Y294000D02*
D03*
X130000Y242500D02*
D03*
X111500Y259000D02*
D03*
X60685Y55948D02*
D03*
X87148Y39864D02*
D03*
X88363Y32970D02*
D03*
X46531Y41140D02*
D03*
X234000Y290000D02*
D03*
Y270000D02*
D03*
X256000D02*
D03*
Y290000D02*
D03*
X120000Y45000D02*
D03*
X138606Y167397D02*
D03*
X165500Y62000D02*
D03*
X131000Y211500D02*
D03*
Y218000D02*
D03*
X137500Y224500D02*
D03*
Y218000D02*
D03*
X123500Y81000D02*
D03*
X156000Y8000D02*
D03*
X162000D02*
D03*
X117000Y74500D02*
D03*
X130000Y81000D02*
D03*
X110500Y74500D02*
D03*
X130000Y87500D02*
D03*
X123500Y74500D02*
D03*
X212000Y21000D02*
D03*
X182500Y32500D02*
D03*
X175000D02*
D03*
Y40000D02*
D03*
X182500D02*
D03*
X165528Y55370D02*
D03*
X50000Y95000D02*
D03*
X67500Y87500D02*
D03*
X30000Y168000D02*
D03*
Y256000D02*
D03*
Y60000D02*
D03*
Y68000D02*
D03*
Y86000D02*
D03*
Y100000D02*
D03*
Y124000D02*
D03*
Y132000D02*
D03*
Y156000D02*
D03*
Y212000D02*
D03*
Y236000D02*
D03*
X206000Y290000D02*
D03*
Y270000D02*
D03*
X184000D02*
D03*
Y290000D02*
D03*
X79500Y109500D02*
D03*
X81500Y73500D02*
D03*
X93982Y29899D02*
D03*
X91377Y44672D02*
D03*
X30000Y40000D02*
D03*
X93367Y15995D02*
D03*
X77342Y123593D02*
D03*
X74737Y138365D02*
D03*
X72132Y153137D02*
D03*
X89224Y171382D02*
D03*
X86619Y186154D02*
D03*
X84014Y200926D02*
D03*
X81409Y215699D02*
D03*
X162963Y85380D02*
D03*
D94*
X415811Y180736D02*
D03*
D95*
X125250Y269500D02*
D03*
Y253500D02*
D03*
Y285500D02*
D03*
X163750D02*
D03*
Y269500D02*
D03*
Y253500D02*
D03*
D96*
X162000Y8000D02*
X212000D01*
X234810Y30810D01*
X277186D01*
X156000Y8000D02*
X162000D01*
M02*
