G04*
G04 #@! TF.GenerationSoftware,Altium Limited,Altium Designer,20.1.12 (249)*
G04*
G04 Layer_Physical_Order=3*
G04 Layer_Color=16440176*
%FSLAX44Y44*%
%MOMM*%
G71*
G04*
G04 #@! TF.SameCoordinates,ADC5D222-85A9-45F4-B70E-F1EBAED22DC9*
G04*
G04*
G04 #@! TF.FilePolarity,Positive*
G04*
G01*
G75*
%ADD61C,0.1500*%
G04:AMPARAMS|DCode=92|XSize=5.3mm|YSize=5.3mm|CornerRadius=0.3975mm|HoleSize=0mm|Usage=FLASHONLY|Rotation=0.000|XOffset=0mm|YOffset=0mm|HoleType=Round|Shape=RoundedRectangle|*
%AMROUNDEDRECTD92*
21,1,5.3000,4.5050,0,0,0.0*
21,1,4.5050,5.3000,0,0,0.0*
1,1,0.7950,2.2525,-2.2525*
1,1,0.7950,-2.2525,-2.2525*
1,1,0.7950,-2.2525,2.2525*
1,1,0.7950,2.2525,2.2525*
%
%ADD92ROUNDEDRECTD92*%
%ADD93C,0.4500*%
%ADD94C,3.6000*%
G36*
X506951Y2549D02*
X54125D01*
X53822Y3549D01*
X54736Y4160D01*
X55676Y5566D01*
X55933Y6861D01*
X56882Y7553D01*
X57109Y7508D01*
X58767Y7838D01*
X60173Y8777D01*
X61112Y10183D01*
X61442Y11841D01*
X61112Y13499D01*
X60173Y14905D01*
X58767Y15844D01*
X57109Y16174D01*
X55451Y15844D01*
X54045Y14905D01*
X53106Y13499D01*
X52848Y12204D01*
X51899Y11512D01*
X51672Y11557D01*
X50014Y11228D01*
X48608Y10288D01*
X47669Y8882D01*
X47339Y7224D01*
X47669Y5566D01*
X48608Y4160D01*
X49523Y3549D01*
X49219Y2549D01*
X34549D01*
X34549Y13500D01*
X34536Y13562D01*
X34546Y13625D01*
X34507Y14409D01*
X34461Y14592D01*
Y14781D01*
X34155Y16320D01*
X34059Y16552D01*
X34010Y16798D01*
X33410Y18247D01*
X33271Y18455D01*
X33175Y18687D01*
X32303Y19991D01*
X32126Y20169D01*
X31986Y20377D01*
X30877Y21486D01*
X30669Y21626D01*
X30491Y21803D01*
X29187Y22675D01*
X28955Y22771D01*
X28747Y22910D01*
X27500Y23426D01*
Y178451D01*
X32500D01*
X32583Y178468D01*
X32667Y178457D01*
X33646Y178521D01*
X33888Y178586D01*
X34139Y178602D01*
X36030Y179109D01*
X36329Y179256D01*
X36645Y179363D01*
X38340Y180343D01*
X38591Y180562D01*
X38868Y180748D01*
X40252Y182132D01*
X40438Y182409D01*
X40658Y182660D01*
X41636Y184356D01*
X41744Y184671D01*
X41891Y184970D01*
X42398Y186861D01*
X42420Y187194D01*
X42485Y187521D01*
Y189479D01*
X42420Y189806D01*
X42398Y190139D01*
X41891Y192030D01*
X41744Y192329D01*
X41636Y192645D01*
X40658Y194340D01*
X40438Y194591D01*
X40252Y194868D01*
X38868Y196252D01*
X38591Y196438D01*
X38340Y196658D01*
X36644Y197636D01*
X36329Y197744D01*
X36030Y197891D01*
X34139Y198398D01*
X33888Y198414D01*
X33646Y198479D01*
X32667Y198543D01*
X32583Y198532D01*
X32500Y198549D01*
X27500D01*
Y276574D01*
X28747Y277090D01*
X28955Y277229D01*
X29187Y277325D01*
X30491Y278197D01*
X30669Y278374D01*
X30877Y278514D01*
X31986Y279622D01*
X32126Y279831D01*
X32303Y280009D01*
X33175Y281313D01*
X33271Y281545D01*
X33410Y281753D01*
X33444Y281835D01*
X34168Y282502D01*
X45832D01*
Y297451D01*
X506951D01*
Y2549D01*
D02*
G37*
%LPC*%
G36*
X79677Y292039D02*
X75134Y291602D01*
X70714Y290459D01*
X66528Y288639D01*
X62678Y286186D01*
X59260Y283161D01*
X56356Y279639D01*
X54039Y275706D01*
X52366Y271459D01*
X51378Y267002D01*
X51100Y262446D01*
X51537Y257903D01*
X52680Y253483D01*
X54500Y249297D01*
X56953Y245447D01*
X59978Y242029D01*
X63500Y239125D01*
X67433Y236808D01*
X71680Y235135D01*
X76137Y234147D01*
X80693Y233869D01*
X85236Y234306D01*
X89656Y235449D01*
X93842Y237269D01*
X97692Y239722D01*
X101110Y242747D01*
X104014Y246269D01*
X106331Y250202D01*
X108004Y254449D01*
X108992Y258906D01*
X109270Y263462D01*
X108833Y268005D01*
X107690Y272425D01*
X105870Y276611D01*
X103417Y280461D01*
X100392Y283879D01*
X96870Y286783D01*
X92937Y289100D01*
X88690Y290772D01*
X84234Y291761D01*
X79677Y292039D01*
D02*
G37*
G36*
X120238Y242264D02*
X119191Y242127D01*
X118136Y242080D01*
X117631Y241921D01*
X117105Y241852D01*
X116130Y241448D01*
X115123Y241130D01*
X114676Y240846D01*
X114186Y240643D01*
X113349Y240000D01*
X112458Y239433D01*
X112100Y239042D01*
X111679Y238719D01*
X111037Y237882D01*
X110323Y237103D01*
X110079Y236633D01*
X109756Y236213D01*
X109352Y235237D01*
X108864Y234300D01*
X108750Y233783D01*
X108547Y233293D01*
X108409Y232247D01*
X108181Y231216D01*
X108204Y230686D01*
X108134Y230161D01*
X108272Y229114D01*
X108318Y228059D01*
X108478Y227554D01*
X108547Y227028D01*
X108951Y226053D01*
X109269Y225046D01*
X109553Y224599D01*
X109756Y224109D01*
X110399Y223271D01*
X110966Y222381D01*
X111357Y222023D01*
X111679Y221602D01*
X112517Y220960D01*
X113296Y220246D01*
X113766Y220002D01*
X114186Y219679D01*
X115162Y219275D01*
X116098Y218787D01*
X116616Y218673D01*
X117105Y218470D01*
X118152Y218332D01*
X119183Y218103D01*
X119713Y218127D01*
X120238Y218057D01*
X121285Y218195D01*
X122340Y218241D01*
X122845Y218401D01*
X123371Y218470D01*
X124346Y218874D01*
X125353Y219191D01*
X125800Y219476D01*
X125953Y219540D01*
X126747Y219007D01*
X126840Y218870D01*
X126667Y218000D01*
X126997Y216342D01*
X127936Y214936D01*
Y214564D01*
X126997Y213158D01*
X126667Y211500D01*
X126997Y209842D01*
X127936Y208436D01*
X129342Y207497D01*
X131000Y207167D01*
X132658Y207497D01*
X134064Y208436D01*
X135003Y209842D01*
X135333Y211500D01*
X135003Y213158D01*
X134767Y213512D01*
X135488Y214233D01*
X135842Y213997D01*
X137500Y213667D01*
X139158Y213997D01*
X140564Y214936D01*
X141503Y216342D01*
X141833Y218000D01*
X141503Y219658D01*
X140564Y221064D01*
Y221436D01*
X141503Y222842D01*
X141833Y224500D01*
X141503Y226158D01*
X140564Y227564D01*
X139158Y228503D01*
X137500Y228833D01*
X135842Y228503D01*
X134436Y227564D01*
X133497Y226158D01*
X133167Y224500D01*
X133497Y222842D01*
X133733Y222488D01*
X133012Y221767D01*
X132658Y222003D01*
X131000Y222333D01*
X130630Y222260D01*
X130114Y223177D01*
X130153Y223219D01*
X130397Y223689D01*
X130720Y224109D01*
X131124Y225085D01*
X131612Y226021D01*
X131726Y226539D01*
X131929Y227028D01*
X132067Y228075D01*
X132296Y229106D01*
X132272Y229636D01*
X132341Y230161D01*
X132204Y231208D01*
X132158Y232263D01*
X131998Y232768D01*
X131929Y233293D01*
X131525Y234269D01*
X131208Y235276D01*
X130923Y235723D01*
X130720Y236213D01*
X130077Y237050D01*
X129510Y237941D01*
X129119Y238299D01*
X128797Y238719D01*
X127959Y239362D01*
X127180Y240075D01*
X126710Y240320D01*
X126290Y240643D01*
X125314Y241047D01*
X124378Y241535D01*
X123860Y241649D01*
X123371Y241852D01*
X122324Y241990D01*
X121293Y242218D01*
X120763Y242195D01*
X120238Y242264D01*
D02*
G37*
G36*
X416250Y200828D02*
X414826Y200719D01*
X417839Y183632D01*
X434926Y186645D01*
X434541Y188020D01*
X432761Y191534D01*
X430328Y194633D01*
X427338Y197198D01*
X423905Y199130D01*
X420161Y200356D01*
X416250Y200828D01*
D02*
G37*
G36*
X409902Y199851D02*
X408527Y199466D01*
X405013Y197685D01*
X401914Y195253D01*
X399349Y192263D01*
X397416Y188830D01*
X396191Y185086D01*
X395719Y181174D01*
X395828Y179751D01*
X412915Y182763D01*
X409902Y199851D01*
D02*
G37*
G36*
X138606Y171730D02*
X136948Y171400D01*
X135542Y170461D01*
X134603Y169055D01*
X134273Y167397D01*
X134603Y165739D01*
X135542Y164333D01*
X136948Y163394D01*
X138606Y163064D01*
X140265Y163394D01*
X141670Y164333D01*
X142610Y165739D01*
X142940Y167397D01*
X142610Y169055D01*
X141670Y170461D01*
X140265Y171400D01*
X138606Y171730D01*
D02*
G37*
G36*
X435794Y181721D02*
X418707Y178708D01*
X421720Y161621D01*
X423095Y162005D01*
X426609Y163786D01*
X429708Y166219D01*
X432273Y169209D01*
X434206Y172642D01*
X435431Y176386D01*
X435903Y180297D01*
X435794Y181721D01*
D02*
G37*
G36*
X413783Y177839D02*
X396696Y174827D01*
X397081Y173452D01*
X398862Y169938D01*
X401294Y166839D01*
X404284Y164273D01*
X407717Y162341D01*
X411461Y161115D01*
X415373Y160644D01*
X416796Y160753D01*
X413783Y177839D01*
D02*
G37*
G36*
X130000Y91833D02*
X128342Y91503D01*
X126936Y90564D01*
X125997Y89158D01*
X125667Y87500D01*
X125997Y85842D01*
X126233Y85488D01*
X125512Y84767D01*
X125158Y85003D01*
X123500Y85333D01*
X121842Y85003D01*
X120436Y84064D01*
X119497Y82658D01*
X119167Y81000D01*
X119497Y79342D01*
X120436Y77936D01*
Y77564D01*
X119497Y76158D01*
X119167Y74500D01*
X119497Y72842D01*
X120436Y71436D01*
X121842Y70497D01*
X123500Y70167D01*
X125158Y70497D01*
X126564Y71436D01*
X127503Y72842D01*
X127833Y74500D01*
X127503Y76158D01*
X126564Y77564D01*
Y77936D01*
X127503Y79342D01*
X127833Y81000D01*
X127503Y82658D01*
X127267Y83012D01*
X127988Y83733D01*
X128342Y83497D01*
X130000Y83167D01*
X131658Y83497D01*
X133064Y84436D01*
X134003Y85842D01*
X134333Y87500D01*
X134003Y89158D01*
X133064Y90564D01*
X131658Y91503D01*
X130000Y91833D01*
D02*
G37*
G36*
X110500Y78833D02*
X108842Y78503D01*
X107436Y77564D01*
X106497Y76158D01*
X106167Y74500D01*
X106497Y72842D01*
X107436Y71436D01*
X108842Y70497D01*
X110500Y70167D01*
X112158Y70497D01*
X113564Y71436D01*
X114503Y72842D01*
X114833Y74500D01*
X114503Y76158D01*
X113564Y77564D01*
X112158Y78503D01*
X110500Y78833D01*
D02*
G37*
G36*
X165500Y66333D02*
X163842Y66003D01*
X162436Y65064D01*
X161497Y63658D01*
X161167Y62000D01*
X161497Y60342D01*
X162121Y59408D01*
X162367Y58709D01*
X162132Y57937D01*
X161525Y57028D01*
X161195Y55370D01*
X161525Y53712D01*
X162464Y52306D01*
X163870Y51367D01*
X165528Y51037D01*
X167186Y51367D01*
X168592Y52306D01*
X169531Y53712D01*
X169861Y55370D01*
X169531Y57028D01*
X168907Y57962D01*
X168661Y58661D01*
X168897Y59433D01*
X169503Y60342D01*
X169833Y62000D01*
X169503Y63658D01*
X168564Y65064D01*
X167158Y66003D01*
X165500Y66333D01*
D02*
G37*
G36*
X182500Y44333D02*
X180842Y44003D01*
X179436Y43064D01*
X179250Y42786D01*
X178250D01*
X178064Y43064D01*
X176658Y44003D01*
X175000Y44333D01*
X173342Y44003D01*
X171936Y43064D01*
X170997Y41658D01*
X170667Y40000D01*
X170997Y38342D01*
X171936Y36936D01*
X172214Y36750D01*
Y35750D01*
X171936Y35564D01*
X170997Y34158D01*
X170667Y32500D01*
X170997Y30842D01*
X171936Y29436D01*
X173342Y28497D01*
X175000Y28167D01*
X176658Y28497D01*
X178064Y29436D01*
X178250Y29714D01*
X179250D01*
X179436Y29436D01*
X180842Y28497D01*
X182500Y28167D01*
X184158Y28497D01*
X185564Y29436D01*
X186503Y30842D01*
X186833Y32500D01*
X186503Y34158D01*
X185564Y35564D01*
X185286Y35750D01*
Y36750D01*
X185564Y36936D01*
X186503Y38342D01*
X186833Y40000D01*
X186503Y41658D01*
X185564Y43064D01*
X184158Y44003D01*
X182500Y44333D01*
D02*
G37*
G36*
X87148Y44197D02*
X86361Y44041D01*
X85577Y43903D01*
X85537Y43877D01*
X85489Y43868D01*
X84822Y43422D01*
X84151Y42994D01*
X84124Y42955D01*
X84083Y42928D01*
X83636Y42259D01*
X83181Y41609D01*
X83171Y41563D01*
X83144Y41522D01*
X82987Y40731D01*
X82816Y39959D01*
X82824Y39912D01*
X82814Y39864D01*
X82972Y39071D01*
X84039Y33018D01*
X84030Y32970D01*
X84186Y32183D01*
X84325Y31400D01*
X84350Y31360D01*
X84360Y31312D01*
X84804Y30647D01*
X85233Y29974D01*
X85272Y29946D01*
X85299Y29906D01*
X85962Y29464D01*
X86618Y29004D01*
X86665Y28994D01*
X86705Y28967D01*
X87485Y28812D01*
X88268Y28638D01*
X88316Y28647D01*
X88363Y28637D01*
X89142Y28792D01*
X89934Y28932D01*
X89974Y28958D01*
X90021Y28967D01*
X90682Y29409D01*
X91360Y29840D01*
X91387Y29880D01*
X91427Y29906D01*
X91869Y30568D01*
X92329Y31225D01*
X92340Y31272D01*
X92366Y31312D01*
X92522Y32095D01*
X92695Y32876D01*
X92687Y32923D01*
X92696Y32970D01*
X92541Y33753D01*
X91471Y39817D01*
X91481Y39864D01*
X91325Y40647D01*
X91186Y41435D01*
X91160Y41475D01*
X91151Y41522D01*
X90707Y42187D01*
X90278Y42861D01*
X90238Y42888D01*
X90211Y42928D01*
X89546Y43373D01*
X88893Y43830D01*
X88846Y43841D01*
X88806Y43868D01*
X88020Y44024D01*
X87242Y44196D01*
X87195Y44188D01*
X87148Y44197D01*
D02*
G37*
G36*
X277186Y35143D02*
X275528Y34814D01*
X274122Y33874D01*
X273183Y32469D01*
X272853Y30810D01*
X273183Y29152D01*
X274122Y27746D01*
X275528Y26807D01*
X277186Y26477D01*
X278844Y26807D01*
X280250Y27746D01*
X281189Y29152D01*
X281519Y30810D01*
X281189Y32469D01*
X280250Y33874D01*
X278844Y34814D01*
X277186Y35143D01*
D02*
G37*
G36*
X154968Y42781D02*
X154139Y42672D01*
X153304Y42636D01*
X152904Y42510D01*
X152488Y42455D01*
X151715Y42135D01*
X150918Y41884D01*
X150564Y41658D01*
X150177Y41498D01*
X149514Y40989D01*
X148808Y40539D01*
X148525Y40230D01*
X148192Y39975D01*
X147683Y39312D01*
X147119Y38695D01*
X146925Y38323D01*
X146669Y37990D01*
X146349Y37218D01*
X145964Y36477D01*
X145873Y36067D01*
X145712Y35679D01*
X145603Y34851D01*
X145422Y34035D01*
X145441Y33615D01*
X145386Y33199D01*
X145495Y32371D01*
X145531Y31535D01*
X145657Y31135D01*
X145712Y30719D01*
X146032Y29947D01*
X146283Y29150D01*
X146509Y28796D01*
X146669Y28408D01*
X147178Y27745D01*
X147627Y27040D01*
X147937Y26757D01*
X148192Y26424D01*
X148855Y25915D01*
X149472Y25350D01*
X149844Y25157D01*
X150177Y24901D01*
X150949Y24581D01*
X151690Y24195D01*
X152100Y24104D01*
X152488Y23944D01*
X153316Y23835D01*
X154132Y23654D01*
X154552Y23672D01*
X154968Y23617D01*
X155796Y23726D01*
X156631Y23763D01*
X157032Y23889D01*
X157448Y23944D01*
X158220Y24264D01*
X159017Y24515D01*
X159371Y24741D01*
X159759Y24901D01*
X160422Y25410D01*
X161127Y25859D01*
X161410Y26168D01*
X161743Y26424D01*
X162252Y27087D01*
X162817Y27703D01*
X163010Y28075D01*
X163266Y28408D01*
X163586Y29181D01*
X163972Y29922D01*
X164062Y30332D01*
X164223Y30719D01*
X164332Y31548D01*
X164513Y32364D01*
X164495Y32783D01*
X164550Y33199D01*
X164440Y34028D01*
X164404Y34863D01*
X164278Y35263D01*
X164223Y35679D01*
X163903Y36451D01*
X163652Y37249D01*
X163426Y37603D01*
X163266Y37990D01*
X162757Y38654D01*
X162308Y39358D01*
X161999Y39642D01*
X161743Y39975D01*
X161080Y40484D01*
X160464Y41048D01*
X160091Y41242D01*
X159759Y41498D01*
X158986Y41817D01*
X158245Y42203D01*
X157835Y42294D01*
X157448Y42455D01*
X156619Y42564D01*
X155803Y42745D01*
X155384Y42726D01*
X154968Y42781D01*
D02*
G37*
G36*
X212000Y25333D02*
X210342Y25003D01*
X208936Y24064D01*
X207997Y22658D01*
X207667Y21000D01*
X207997Y19342D01*
X208936Y17936D01*
X210342Y16997D01*
X212000Y16667D01*
X213658Y16997D01*
X215064Y17936D01*
X216003Y19342D01*
X216333Y21000D01*
X216003Y22658D01*
X215064Y24064D01*
X213658Y25003D01*
X212000Y25333D01*
D02*
G37*
G36*
X162000Y12333D02*
X160342Y12003D01*
X159000Y11107D01*
X157658Y12003D01*
X156000Y12333D01*
X154342Y12003D01*
X152936Y11064D01*
X151997Y9658D01*
X151667Y8000D01*
X151997Y6342D01*
X152936Y4936D01*
X154342Y3997D01*
X156000Y3667D01*
X157658Y3997D01*
X159000Y4893D01*
X160342Y3997D01*
X162000Y3667D01*
X163658Y3997D01*
X165064Y4936D01*
X166003Y6342D01*
X166333Y8000D01*
X166003Y9658D01*
X165064Y11064D01*
X163658Y12003D01*
X162000Y12333D01*
D02*
G37*
G36*
X402307Y66131D02*
X397764Y65694D01*
X393344Y64551D01*
X389158Y62731D01*
X385308Y60278D01*
X381890Y57253D01*
X378986Y53731D01*
X376669Y49798D01*
X374996Y45551D01*
X374008Y41094D01*
X373730Y36538D01*
X374167Y31995D01*
X375310Y27575D01*
X377130Y23389D01*
X379583Y19540D01*
X382608Y16121D01*
X386130Y13217D01*
X390063Y10900D01*
X394310Y9227D01*
X398767Y8239D01*
X403323Y7961D01*
X407866Y8398D01*
X412286Y9541D01*
X416472Y11361D01*
X420322Y13814D01*
X423740Y16839D01*
X426644Y20361D01*
X428961Y24294D01*
X430634Y28541D01*
X431622Y32998D01*
X431900Y37554D01*
X431463Y42097D01*
X430320Y46517D01*
X428500Y50703D01*
X426047Y54553D01*
X423022Y57971D01*
X419500Y60875D01*
X415567Y63192D01*
X411320Y64865D01*
X406863Y65853D01*
X402307Y66131D01*
D02*
G37*
%LPD*%
D61*
X36668Y293332D02*
X38334Y294998D01*
X41666D01*
X43332Y293332D01*
Y291666D01*
X41666Y290000D01*
X40000D01*
X41666D01*
X43332Y288334D01*
Y286668D01*
X41666Y285002D01*
X38334D01*
X36668Y286668D01*
D92*
X480500Y271000D02*
D03*
Y29000D02*
D03*
D93*
X452769Y135567D02*
D03*
X449380Y152969D02*
D03*
X315585Y21993D02*
D03*
X254594Y21597D02*
D03*
X64641Y51136D02*
D03*
X36977Y39707D02*
D03*
X158500Y58500D02*
D03*
X136500Y173500D02*
D03*
X220000Y32500D02*
D03*
X457500Y222500D02*
D03*
Y207500D02*
D03*
X445000D02*
D03*
X435000Y212500D02*
D03*
X427500Y220000D02*
D03*
X420000Y227500D02*
D03*
X467500Y100000D02*
D03*
X497500D02*
D03*
Y70000D02*
D03*
X467500D02*
D03*
Y200000D02*
D03*
X497500D02*
D03*
Y230000D02*
D03*
X467500D02*
D03*
X450000Y225000D02*
D03*
X442500Y232500D02*
D03*
X435000Y240000D02*
D03*
X427500Y247500D02*
D03*
X420000Y255000D02*
D03*
X412500Y262500D02*
D03*
X405000Y267500D02*
D03*
X397500Y272500D02*
D03*
X390000Y277500D02*
D03*
X380000Y282500D02*
D03*
X370000Y287500D02*
D03*
X360000Y290000D02*
D03*
X350000D02*
D03*
X340000D02*
D03*
X330000D02*
D03*
X320000D02*
D03*
X310000D02*
D03*
X300000D02*
D03*
X290000D02*
D03*
X280000D02*
D03*
X270000D02*
D03*
X425000Y112500D02*
D03*
Y150000D02*
D03*
Y125000D02*
D03*
X437500Y112500D02*
D03*
Y125000D02*
D03*
X450000D02*
D03*
Y175000D02*
D03*
Y162500D02*
D03*
Y112500D02*
D03*
Y187500D02*
D03*
X462500Y125000D02*
D03*
Y175000D02*
D03*
Y162500D02*
D03*
Y137500D02*
D03*
Y112500D02*
D03*
Y187500D02*
D03*
X475000Y125000D02*
D03*
Y175000D02*
D03*
Y112500D02*
D03*
Y187500D02*
D03*
X500000Y125000D02*
D03*
Y175000D02*
D03*
Y162500D02*
D03*
Y137500D02*
D03*
Y112500D02*
D03*
Y187500D02*
D03*
X487500D02*
D03*
Y112500D02*
D03*
Y175000D02*
D03*
Y125000D02*
D03*
X447500Y30000D02*
D03*
X375000Y7500D02*
D03*
X422500D02*
D03*
X330000D02*
D03*
Y32500D02*
D03*
X350000D02*
D03*
Y7500D02*
D03*
X440000Y92500D02*
D03*
X450000D02*
D03*
X420000D02*
D03*
X430000D02*
D03*
X440000Y77500D02*
D03*
X450000D02*
D03*
X420000D02*
D03*
X430000D02*
D03*
X410000D02*
D03*
X390000D02*
D03*
X400000D02*
D03*
X380000Y70000D02*
D03*
X370000D02*
D03*
X360000Y60000D02*
D03*
X350000Y50000D02*
D03*
Y40000D02*
D03*
X330000D02*
D03*
Y50000D02*
D03*
Y60000D02*
D03*
X410000Y240000D02*
D03*
Y230000D02*
D03*
Y220000D02*
D03*
Y120000D02*
D03*
Y130000D02*
D03*
Y140000D02*
D03*
Y100000D02*
D03*
Y92500D02*
D03*
Y110000D02*
D03*
X400000Y250000D02*
D03*
Y240000D02*
D03*
Y230000D02*
D03*
Y210000D02*
D03*
Y220000D02*
D03*
Y150000D02*
D03*
Y120000D02*
D03*
Y130000D02*
D03*
Y140000D02*
D03*
Y100000D02*
D03*
Y92500D02*
D03*
Y110000D02*
D03*
X390000Y250000D02*
D03*
Y240000D02*
D03*
Y230000D02*
D03*
Y200000D02*
D03*
Y210000D02*
D03*
Y220000D02*
D03*
Y160000D02*
D03*
Y150000D02*
D03*
Y120000D02*
D03*
Y130000D02*
D03*
Y140000D02*
D03*
Y100000D02*
D03*
Y92500D02*
D03*
Y110000D02*
D03*
X380000Y250000D02*
D03*
Y240000D02*
D03*
Y260000D02*
D03*
Y230000D02*
D03*
Y200000D02*
D03*
Y210000D02*
D03*
Y220000D02*
D03*
Y190000D02*
D03*
Y160000D02*
D03*
Y170000D02*
D03*
Y180000D02*
D03*
Y150000D02*
D03*
Y120000D02*
D03*
Y130000D02*
D03*
Y140000D02*
D03*
Y100000D02*
D03*
Y90000D02*
D03*
Y110000D02*
D03*
X370000Y250000D02*
D03*
Y240000D02*
D03*
Y260000D02*
D03*
Y230000D02*
D03*
Y200000D02*
D03*
Y210000D02*
D03*
Y220000D02*
D03*
Y190000D02*
D03*
Y160000D02*
D03*
Y170000D02*
D03*
Y180000D02*
D03*
Y150000D02*
D03*
Y120000D02*
D03*
Y130000D02*
D03*
Y140000D02*
D03*
Y100000D02*
D03*
Y90000D02*
D03*
Y110000D02*
D03*
X270000Y270000D02*
D03*
X280000D02*
D03*
X290000D02*
D03*
X300000D02*
D03*
X310000D02*
D03*
X320000D02*
D03*
X330000D02*
D03*
X340000D02*
D03*
X350000D02*
D03*
X360000D02*
D03*
X32500Y275000D02*
D03*
X40000D02*
D03*
X50000Y295000D02*
D03*
X100000Y294000D02*
D03*
X111500D02*
D03*
X360000Y110000D02*
D03*
Y90000D02*
D03*
Y100000D02*
D03*
Y140000D02*
D03*
Y130000D02*
D03*
Y120000D02*
D03*
Y150000D02*
D03*
Y180000D02*
D03*
Y170000D02*
D03*
Y160000D02*
D03*
Y190000D02*
D03*
Y220000D02*
D03*
Y210000D02*
D03*
Y200000D02*
D03*
Y230000D02*
D03*
Y260000D02*
D03*
Y240000D02*
D03*
Y250000D02*
D03*
X350000Y110000D02*
D03*
Y80000D02*
D03*
Y90000D02*
D03*
Y100000D02*
D03*
Y140000D02*
D03*
Y130000D02*
D03*
Y120000D02*
D03*
Y150000D02*
D03*
Y180000D02*
D03*
Y170000D02*
D03*
Y160000D02*
D03*
Y190000D02*
D03*
Y220000D02*
D03*
Y210000D02*
D03*
Y200000D02*
D03*
Y230000D02*
D03*
Y260000D02*
D03*
Y240000D02*
D03*
Y250000D02*
D03*
X340000Y110000D02*
D03*
Y70000D02*
D03*
Y80000D02*
D03*
Y90000D02*
D03*
Y100000D02*
D03*
Y140000D02*
D03*
Y130000D02*
D03*
Y120000D02*
D03*
Y150000D02*
D03*
Y180000D02*
D03*
Y170000D02*
D03*
Y160000D02*
D03*
Y190000D02*
D03*
Y220000D02*
D03*
Y210000D02*
D03*
Y200000D02*
D03*
Y230000D02*
D03*
Y260000D02*
D03*
Y240000D02*
D03*
Y250000D02*
D03*
X330000Y110000D02*
D03*
Y70000D02*
D03*
Y80000D02*
D03*
Y90000D02*
D03*
Y100000D02*
D03*
Y140000D02*
D03*
Y130000D02*
D03*
Y120000D02*
D03*
Y150000D02*
D03*
Y180000D02*
D03*
Y170000D02*
D03*
Y160000D02*
D03*
Y190000D02*
D03*
Y220000D02*
D03*
Y210000D02*
D03*
Y200000D02*
D03*
Y230000D02*
D03*
Y260000D02*
D03*
Y240000D02*
D03*
Y250000D02*
D03*
X320000Y110000D02*
D03*
Y70000D02*
D03*
Y80000D02*
D03*
Y90000D02*
D03*
Y100000D02*
D03*
Y140000D02*
D03*
Y130000D02*
D03*
Y120000D02*
D03*
Y150000D02*
D03*
Y180000D02*
D03*
Y170000D02*
D03*
Y160000D02*
D03*
Y190000D02*
D03*
Y220000D02*
D03*
Y210000D02*
D03*
Y200000D02*
D03*
Y230000D02*
D03*
Y260000D02*
D03*
Y240000D02*
D03*
Y250000D02*
D03*
X310000Y110000D02*
D03*
Y70000D02*
D03*
Y80000D02*
D03*
Y90000D02*
D03*
Y100000D02*
D03*
Y140000D02*
D03*
Y130000D02*
D03*
Y120000D02*
D03*
Y150000D02*
D03*
Y180000D02*
D03*
Y170000D02*
D03*
Y160000D02*
D03*
Y190000D02*
D03*
Y220000D02*
D03*
Y210000D02*
D03*
Y200000D02*
D03*
Y230000D02*
D03*
Y260000D02*
D03*
Y240000D02*
D03*
Y250000D02*
D03*
X300000Y110000D02*
D03*
Y70000D02*
D03*
Y80000D02*
D03*
Y90000D02*
D03*
Y100000D02*
D03*
Y140000D02*
D03*
Y130000D02*
D03*
Y120000D02*
D03*
Y150000D02*
D03*
Y180000D02*
D03*
Y170000D02*
D03*
Y160000D02*
D03*
Y190000D02*
D03*
Y220000D02*
D03*
Y210000D02*
D03*
Y200000D02*
D03*
Y230000D02*
D03*
Y260000D02*
D03*
Y240000D02*
D03*
Y250000D02*
D03*
X290000Y110000D02*
D03*
Y70000D02*
D03*
Y80000D02*
D03*
Y90000D02*
D03*
Y100000D02*
D03*
Y140000D02*
D03*
Y130000D02*
D03*
Y120000D02*
D03*
Y150000D02*
D03*
Y180000D02*
D03*
Y170000D02*
D03*
Y160000D02*
D03*
Y190000D02*
D03*
Y220000D02*
D03*
Y210000D02*
D03*
Y200000D02*
D03*
Y230000D02*
D03*
Y260000D02*
D03*
Y240000D02*
D03*
Y250000D02*
D03*
X280000Y110000D02*
D03*
Y70000D02*
D03*
Y80000D02*
D03*
Y90000D02*
D03*
Y100000D02*
D03*
Y140000D02*
D03*
Y130000D02*
D03*
Y120000D02*
D03*
Y150000D02*
D03*
Y180000D02*
D03*
Y170000D02*
D03*
Y160000D02*
D03*
Y190000D02*
D03*
Y220000D02*
D03*
Y210000D02*
D03*
Y200000D02*
D03*
Y230000D02*
D03*
Y260000D02*
D03*
Y240000D02*
D03*
Y250000D02*
D03*
X270000Y110000D02*
D03*
Y70000D02*
D03*
Y80000D02*
D03*
Y90000D02*
D03*
Y100000D02*
D03*
Y140000D02*
D03*
Y130000D02*
D03*
Y120000D02*
D03*
Y150000D02*
D03*
Y180000D02*
D03*
Y170000D02*
D03*
Y160000D02*
D03*
Y190000D02*
D03*
Y220000D02*
D03*
Y210000D02*
D03*
Y200000D02*
D03*
Y230000D02*
D03*
Y260000D02*
D03*
Y240000D02*
D03*
Y250000D02*
D03*
X260000Y110000D02*
D03*
Y70000D02*
D03*
Y80000D02*
D03*
Y90000D02*
D03*
Y100000D02*
D03*
Y140000D02*
D03*
Y130000D02*
D03*
Y120000D02*
D03*
Y150000D02*
D03*
Y180000D02*
D03*
Y170000D02*
D03*
Y160000D02*
D03*
Y190000D02*
D03*
Y220000D02*
D03*
Y210000D02*
D03*
Y200000D02*
D03*
Y230000D02*
D03*
Y260000D02*
D03*
Y240000D02*
D03*
Y250000D02*
D03*
X250000Y110000D02*
D03*
Y70000D02*
D03*
Y80000D02*
D03*
Y90000D02*
D03*
Y100000D02*
D03*
Y140000D02*
D03*
Y130000D02*
D03*
Y120000D02*
D03*
Y150000D02*
D03*
Y180000D02*
D03*
Y170000D02*
D03*
Y160000D02*
D03*
Y190000D02*
D03*
Y220000D02*
D03*
Y210000D02*
D03*
Y200000D02*
D03*
Y230000D02*
D03*
Y260000D02*
D03*
Y240000D02*
D03*
Y250000D02*
D03*
X240000Y110000D02*
D03*
Y70000D02*
D03*
Y80000D02*
D03*
Y90000D02*
D03*
Y100000D02*
D03*
Y140000D02*
D03*
Y130000D02*
D03*
Y120000D02*
D03*
Y150000D02*
D03*
Y180000D02*
D03*
Y170000D02*
D03*
Y160000D02*
D03*
Y190000D02*
D03*
Y220000D02*
D03*
Y210000D02*
D03*
Y200000D02*
D03*
Y230000D02*
D03*
Y260000D02*
D03*
Y240000D02*
D03*
Y250000D02*
D03*
X230000Y110000D02*
D03*
Y70000D02*
D03*
Y80000D02*
D03*
Y90000D02*
D03*
Y100000D02*
D03*
Y140000D02*
D03*
Y130000D02*
D03*
Y120000D02*
D03*
Y150000D02*
D03*
Y180000D02*
D03*
Y170000D02*
D03*
Y160000D02*
D03*
Y190000D02*
D03*
Y220000D02*
D03*
Y210000D02*
D03*
Y200000D02*
D03*
Y230000D02*
D03*
Y260000D02*
D03*
Y240000D02*
D03*
Y250000D02*
D03*
X180000Y240000D02*
D03*
Y250000D02*
D03*
Y260000D02*
D03*
X190000D02*
D03*
Y250000D02*
D03*
Y240000D02*
D03*
Y230000D02*
D03*
X200000D02*
D03*
Y220000D02*
D03*
Y240000D02*
D03*
Y250000D02*
D03*
Y260000D02*
D03*
X220000Y250000D02*
D03*
Y240000D02*
D03*
Y260000D02*
D03*
X210000D02*
D03*
Y250000D02*
D03*
Y240000D02*
D03*
Y200000D02*
D03*
Y210000D02*
D03*
Y220000D02*
D03*
Y230000D02*
D03*
X220000D02*
D03*
Y200000D02*
D03*
Y210000D02*
D03*
Y220000D02*
D03*
X210000Y160000D02*
D03*
Y170000D02*
D03*
Y180000D02*
D03*
Y190000D02*
D03*
X220000D02*
D03*
Y160000D02*
D03*
Y170000D02*
D03*
Y180000D02*
D03*
X210000Y120000D02*
D03*
Y130000D02*
D03*
Y140000D02*
D03*
Y150000D02*
D03*
X220000D02*
D03*
Y120000D02*
D03*
Y130000D02*
D03*
Y140000D02*
D03*
Y100000D02*
D03*
Y90000D02*
D03*
Y80000D02*
D03*
Y70000D02*
D03*
Y110000D02*
D03*
X210000D02*
D03*
Y100000D02*
D03*
Y90000D02*
D03*
Y80000D02*
D03*
Y70000D02*
D03*
X165000Y115000D02*
D03*
X174000Y106500D02*
D03*
X139500Y161000D02*
D03*
X150000Y276000D02*
D03*
X147500Y294000D02*
D03*
X130000Y242500D02*
D03*
X111500Y259000D02*
D03*
X60685Y55948D02*
D03*
X46531Y41140D02*
D03*
X234000Y290000D02*
D03*
Y270000D02*
D03*
X256000D02*
D03*
Y290000D02*
D03*
X120000Y45000D02*
D03*
X117000Y74500D02*
D03*
X130000Y81000D02*
D03*
X50000Y95000D02*
D03*
X67500Y87500D02*
D03*
X30000Y168000D02*
D03*
Y256000D02*
D03*
Y60000D02*
D03*
Y68000D02*
D03*
Y86000D02*
D03*
Y100000D02*
D03*
Y124000D02*
D03*
Y132000D02*
D03*
Y156000D02*
D03*
Y212000D02*
D03*
Y236000D02*
D03*
X206000Y290000D02*
D03*
Y270000D02*
D03*
X184000D02*
D03*
Y290000D02*
D03*
X79500Y109500D02*
D03*
X81500Y73500D02*
D03*
X93982Y29899D02*
D03*
X91377Y44672D02*
D03*
X30000Y40000D02*
D03*
X93367Y15995D02*
D03*
X77342Y123593D02*
D03*
X74737Y138365D02*
D03*
X72132Y153137D02*
D03*
X89224Y171382D02*
D03*
X86619Y186154D02*
D03*
X84014Y200926D02*
D03*
X81409Y215699D02*
D03*
X162963Y85380D02*
D03*
D94*
X415811Y180736D02*
D03*
M02*
