G04*
G04 #@! TF.GenerationSoftware,Altium Limited,Altium Designer,20.1.12 (249)*
G04*
G04 Layer_Physical_Order=1*
G04 Layer_Color=255*
%FSLAX44Y44*%
%MOMM*%
G71*
G04*
G04 #@! TF.SameCoordinates,ADC5D222-85A9-45F4-B70E-F1EBAED22DC9*
G04*
G04*
G04 #@! TF.FilePolarity,Positive*
G04*
G01*
G75*
G04:AMPARAMS|DCode=24|XSize=0.3mm|YSize=0.7mm|CornerRadius=0.075mm|HoleSize=0mm|Usage=FLASHONLY|Rotation=0.000|XOffset=0mm|YOffset=0mm|HoleType=Round|Shape=RoundedRectangle|*
%AMROUNDEDRECTD24*
21,1,0.3000,0.5500,0,0,0.0*
21,1,0.1500,0.7000,0,0,0.0*
1,1,0.1500,0.0750,-0.2750*
1,1,0.1500,-0.0750,-0.2750*
1,1,0.1500,-0.0750,0.2750*
1,1,0.1500,0.0750,0.2750*
%
%ADD24ROUNDEDRECTD24*%
%ADD61C,0.1500*%
G04:AMPARAMS|DCode=62|XSize=0.95mm|YSize=1mm|CornerRadius=0.2375mm|HoleSize=0mm|Usage=FLASHONLY|Rotation=0.000|XOffset=0mm|YOffset=0mm|HoleType=Round|Shape=RoundedRectangle|*
%AMROUNDEDRECTD62*
21,1,0.9500,0.5250,0,0,0.0*
21,1,0.4750,1.0000,0,0,0.0*
1,1,0.4750,0.2375,-0.2625*
1,1,0.4750,-0.2375,-0.2625*
1,1,0.4750,-0.2375,0.2625*
1,1,0.4750,0.2375,0.2625*
%
%ADD62ROUNDEDRECTD62*%
G04:AMPARAMS|DCode=63|XSize=0.55mm|YSize=0.5mm|CornerRadius=0.125mm|HoleSize=0mm|Usage=FLASHONLY|Rotation=190.000|XOffset=0mm|YOffset=0mm|HoleType=Round|Shape=RoundedRectangle|*
%AMROUNDEDRECTD63*
21,1,0.5500,0.2500,0,0,190.0*
21,1,0.3000,0.5000,0,0,190.0*
1,1,0.2500,-0.1694,0.0971*
1,1,0.2500,0.1260,0.1492*
1,1,0.2500,0.1694,-0.0971*
1,1,0.2500,-0.1260,-0.1492*
%
%ADD63ROUNDEDRECTD63*%
G04:AMPARAMS|DCode=64|XSize=1.5mm|YSize=0.6mm|CornerRadius=0.15mm|HoleSize=0mm|Usage=FLASHONLY|Rotation=10.000|XOffset=0mm|YOffset=0mm|HoleType=Round|Shape=RoundedRectangle|*
%AMROUNDEDRECTD64*
21,1,1.5000,0.3000,0,0,10.0*
21,1,1.2000,0.6000,0,0,10.0*
1,1,0.3000,0.6169,-0.0435*
1,1,0.3000,-0.5648,-0.2519*
1,1,0.3000,-0.6169,0.0435*
1,1,0.3000,0.5648,0.2519*
%
%ADD64ROUNDEDRECTD64*%
G04:AMPARAMS|DCode=65|XSize=0.65mm|YSize=0.5mm|CornerRadius=0.125mm|HoleSize=0mm|Usage=FLASHONLY|Rotation=190.000|XOffset=0mm|YOffset=0mm|HoleType=Round|Shape=RoundedRectangle|*
%AMROUNDEDRECTD65*
21,1,0.6500,0.2500,0,0,190.0*
21,1,0.4000,0.5000,0,0,190.0*
1,1,0.2500,-0.2187,0.0884*
1,1,0.2500,0.1753,0.1578*
1,1,0.2500,0.2187,-0.0884*
1,1,0.2500,-0.1753,-0.1578*
%
%ADD65ROUNDEDRECTD65*%
G04:AMPARAMS|DCode=66|XSize=0.55mm|YSize=0.5mm|CornerRadius=0.125mm|HoleSize=0mm|Usage=FLASHONLY|Rotation=0.000|XOffset=0mm|YOffset=0mm|HoleType=Round|Shape=RoundedRectangle|*
%AMROUNDEDRECTD66*
21,1,0.5500,0.2500,0,0,0.0*
21,1,0.3000,0.5000,0,0,0.0*
1,1,0.2500,0.1500,-0.1250*
1,1,0.2500,-0.1500,-0.1250*
1,1,0.2500,-0.1500,0.1250*
1,1,0.2500,0.1500,0.1250*
%
%ADD66ROUNDEDRECTD66*%
G04:AMPARAMS|DCode=67|XSize=1.5mm|YSize=0.6mm|CornerRadius=0.15mm|HoleSize=0mm|Usage=FLASHONLY|Rotation=180.000|XOffset=0mm|YOffset=0mm|HoleType=Round|Shape=RoundedRectangle|*
%AMROUNDEDRECTD67*
21,1,1.5000,0.3000,0,0,180.0*
21,1,1.2000,0.6000,0,0,180.0*
1,1,0.3000,-0.6000,0.1500*
1,1,0.3000,0.6000,0.1500*
1,1,0.3000,0.6000,-0.1500*
1,1,0.3000,-0.6000,-0.1500*
%
%ADD67ROUNDEDRECTD67*%
G04:AMPARAMS|DCode=68|XSize=0.65mm|YSize=0.5mm|CornerRadius=0.125mm|HoleSize=0mm|Usage=FLASHONLY|Rotation=0.000|XOffset=0mm|YOffset=0mm|HoleType=Round|Shape=RoundedRectangle|*
%AMROUNDEDRECTD68*
21,1,0.6500,0.2500,0,0,0.0*
21,1,0.4000,0.5000,0,0,0.0*
1,1,0.2500,0.2000,-0.1250*
1,1,0.2500,-0.2000,-0.1250*
1,1,0.2500,-0.2000,0.1250*
1,1,0.2500,0.2000,0.1250*
%
%ADD68ROUNDEDRECTD68*%
G04:AMPARAMS|DCode=69|XSize=0.55mm|YSize=0.5mm|CornerRadius=0.125mm|HoleSize=0mm|Usage=FLASHONLY|Rotation=270.000|XOffset=0mm|YOffset=0mm|HoleType=Round|Shape=RoundedRectangle|*
%AMROUNDEDRECTD69*
21,1,0.5500,0.2500,0,0,270.0*
21,1,0.3000,0.5000,0,0,270.0*
1,1,0.2500,-0.1250,-0.1500*
1,1,0.2500,-0.1250,0.1500*
1,1,0.2500,0.1250,0.1500*
1,1,0.2500,0.1250,-0.1500*
%
%ADD69ROUNDEDRECTD69*%
G04:AMPARAMS|DCode=70|XSize=1.5mm|YSize=0.6mm|CornerRadius=0.15mm|HoleSize=0mm|Usage=FLASHONLY|Rotation=90.000|XOffset=0mm|YOffset=0mm|HoleType=Round|Shape=RoundedRectangle|*
%AMROUNDEDRECTD70*
21,1,1.5000,0.3000,0,0,90.0*
21,1,1.2000,0.6000,0,0,90.0*
1,1,0.3000,0.1500,0.6000*
1,1,0.3000,0.1500,-0.6000*
1,1,0.3000,-0.1500,-0.6000*
1,1,0.3000,-0.1500,0.6000*
%
%ADD70ROUNDEDRECTD70*%
G04:AMPARAMS|DCode=71|XSize=0.65mm|YSize=0.5mm|CornerRadius=0.125mm|HoleSize=0mm|Usage=FLASHONLY|Rotation=270.000|XOffset=0mm|YOffset=0mm|HoleType=Round|Shape=RoundedRectangle|*
%AMROUNDEDRECTD71*
21,1,0.6500,0.2500,0,0,270.0*
21,1,0.4000,0.5000,0,0,270.0*
1,1,0.2500,-0.1250,-0.2000*
1,1,0.2500,-0.1250,0.2000*
1,1,0.2500,0.1250,0.2000*
1,1,0.2500,0.1250,-0.2000*
%
%ADD71ROUNDEDRECTD71*%
%ADD72C,1.0000*%
G04:AMPARAMS|DCode=73|XSize=1.15mm|YSize=0.6mm|CornerRadius=0.15mm|HoleSize=0mm|Usage=FLASHONLY|Rotation=0.000|XOffset=0mm|YOffset=0mm|HoleType=Round|Shape=RoundedRectangle|*
%AMROUNDEDRECTD73*
21,1,1.1500,0.3000,0,0,0.0*
21,1,0.8500,0.6000,0,0,0.0*
1,1,0.3000,0.4250,-0.1500*
1,1,0.3000,-0.4250,-0.1500*
1,1,0.3000,-0.4250,0.1500*
1,1,0.3000,0.4250,0.1500*
%
%ADD73ROUNDEDRECTD73*%
G04:AMPARAMS|DCode=74|XSize=1.1mm|YSize=2.2mm|CornerRadius=0.275mm|HoleSize=0mm|Usage=FLASHONLY|Rotation=270.000|XOffset=0mm|YOffset=0mm|HoleType=Round|Shape=RoundedRectangle|*
%AMROUNDEDRECTD74*
21,1,1.1000,1.6500,0,0,270.0*
21,1,0.5500,2.2000,0,0,270.0*
1,1,0.5500,-0.8250,-0.2750*
1,1,0.5500,-0.8250,0.2750*
1,1,0.5500,0.8250,0.2750*
1,1,0.5500,0.8250,-0.2750*
%
%ADD74ROUNDEDRECTD74*%
G04:AMPARAMS|DCode=75|XSize=1mm|YSize=1mm|CornerRadius=0.25mm|HoleSize=0mm|Usage=FLASHONLY|Rotation=270.000|XOffset=0mm|YOffset=0mm|HoleType=Round|Shape=RoundedRectangle|*
%AMROUNDEDRECTD75*
21,1,1.0000,0.5000,0,0,270.0*
21,1,0.5000,1.0000,0,0,270.0*
1,1,0.5000,-0.2500,-0.2500*
1,1,0.5000,-0.2500,0.2500*
1,1,0.5000,0.2500,0.2500*
1,1,0.5000,0.2500,-0.2500*
%
%ADD75ROUNDEDRECTD75*%
G04:AMPARAMS|DCode=76|XSize=0.3mm|YSize=1mm|CornerRadius=0.075mm|HoleSize=0mm|Usage=FLASHONLY|Rotation=0.000|XOffset=0mm|YOffset=0mm|HoleType=Round|Shape=RoundedRectangle|*
%AMROUNDEDRECTD76*
21,1,0.3000,0.8500,0,0,0.0*
21,1,0.1500,1.0000,0,0,0.0*
1,1,0.1500,0.0750,-0.4250*
1,1,0.1500,-0.0750,-0.4250*
1,1,0.1500,-0.0750,0.4250*
1,1,0.1500,0.0750,0.4250*
%
%ADD76ROUNDEDRECTD76*%
G04:AMPARAMS|DCode=77|XSize=0.6mm|YSize=2.3mm|CornerRadius=0.15mm|HoleSize=0mm|Usage=FLASHONLY|Rotation=90.000|XOffset=0mm|YOffset=0mm|HoleType=Round|Shape=RoundedRectangle|*
%AMROUNDEDRECTD77*
21,1,0.6000,2.0000,0,0,90.0*
21,1,0.3000,2.3000,0,0,90.0*
1,1,0.3000,1.0000,0.1500*
1,1,0.3000,1.0000,-0.1500*
1,1,0.3000,-1.0000,-0.1500*
1,1,0.3000,-1.0000,0.1500*
%
%ADD77ROUNDEDRECTD77*%
G04:AMPARAMS|DCode=78|XSize=1.2mm|YSize=2.7mm|CornerRadius=0.15mm|HoleSize=0mm|Usage=FLASHONLY|Rotation=100.000|XOffset=0mm|YOffset=0mm|HoleType=Round|Shape=RoundedRectangle|*
%AMROUNDEDRECTD78*
21,1,1.2000,2.4000,0,0,100.0*
21,1,0.9000,2.7000,0,0,100.0*
1,1,0.3000,1.1036,0.6515*
1,1,0.3000,1.2599,-0.2348*
1,1,0.3000,-1.1036,-0.6515*
1,1,0.3000,-1.2599,0.2348*
%
%ADD78ROUNDEDRECTD78*%
G04:AMPARAMS|DCode=79|XSize=0.3mm|YSize=1.25mm|CornerRadius=0.075mm|HoleSize=0mm|Usage=FLASHONLY|Rotation=100.000|XOffset=0mm|YOffset=0mm|HoleType=Round|Shape=RoundedRectangle|*
%AMROUNDEDRECTD79*
21,1,0.3000,1.1000,0,0,100.0*
21,1,0.1500,1.2500,0,0,100.0*
1,1,0.1500,0.5286,0.1694*
1,1,0.1500,0.5547,0.0217*
1,1,0.1500,-0.5286,-0.1694*
1,1,0.1500,-0.5547,-0.0217*
%
%ADD79ROUNDEDRECTD79*%
G04:AMPARAMS|DCode=80|XSize=0.3mm|YSize=1mm|CornerRadius=0.075mm|HoleSize=0mm|Usage=FLASHONLY|Rotation=100.000|XOffset=0mm|YOffset=0mm|HoleType=Round|Shape=RoundedRectangle|*
%AMROUNDEDRECTD80*
21,1,0.3000,0.8500,0,0,100.0*
21,1,0.1500,1.0000,0,0,100.0*
1,1,0.1500,0.4055,0.1477*
1,1,0.1500,0.4316,-0.0001*
1,1,0.1500,-0.4055,-0.1477*
1,1,0.1500,-0.4316,0.0001*
%
%ADD80ROUNDEDRECTD80*%
G04:AMPARAMS|DCode=81|XSize=0.55mm|YSize=0.55mm|CornerRadius=0.1375mm|HoleSize=0mm|Usage=FLASHONLY|Rotation=0.000|XOffset=0mm|YOffset=0mm|HoleType=Round|Shape=RoundedRectangle|*
%AMROUNDEDRECTD81*
21,1,0.5500,0.2750,0,0,0.0*
21,1,0.2750,0.5500,0,0,0.0*
1,1,0.2750,0.1375,-0.1375*
1,1,0.2750,-0.1375,-0.1375*
1,1,0.2750,-0.1375,0.1375*
1,1,0.2750,0.1375,0.1375*
%
%ADD81ROUNDEDRECTD81*%
G04:AMPARAMS|DCode=82|XSize=0.6mm|YSize=0.6mm|CornerRadius=0.15mm|HoleSize=0mm|Usage=FLASHONLY|Rotation=180.000|XOffset=0mm|YOffset=0mm|HoleType=Round|Shape=RoundedRectangle|*
%AMROUNDEDRECTD82*
21,1,0.6000,0.3000,0,0,180.0*
21,1,0.3000,0.6000,0,0,180.0*
1,1,0.3000,-0.1500,0.1500*
1,1,0.3000,0.1500,0.1500*
1,1,0.3000,0.1500,-0.1500*
1,1,0.3000,-0.1500,-0.1500*
%
%ADD82ROUNDEDRECTD82*%
G04:AMPARAMS|DCode=83|XSize=0.55mm|YSize=0.55mm|CornerRadius=0.1375mm|HoleSize=0mm|Usage=FLASHONLY|Rotation=270.000|XOffset=0mm|YOffset=0mm|HoleType=Round|Shape=RoundedRectangle|*
%AMROUNDEDRECTD83*
21,1,0.5500,0.2750,0,0,270.0*
21,1,0.2750,0.5500,0,0,270.0*
1,1,0.2750,-0.1375,-0.1375*
1,1,0.2750,-0.1375,0.1375*
1,1,0.2750,0.1375,0.1375*
1,1,0.2750,0.1375,-0.1375*
%
%ADD83ROUNDEDRECTD83*%
G04:AMPARAMS|DCode=84|XSize=0.6mm|YSize=0.6mm|CornerRadius=0.15mm|HoleSize=0mm|Usage=FLASHONLY|Rotation=270.000|XOffset=0mm|YOffset=0mm|HoleType=Round|Shape=RoundedRectangle|*
%AMROUNDEDRECTD84*
21,1,0.6000,0.3000,0,0,270.0*
21,1,0.3000,0.6000,0,0,270.0*
1,1,0.3000,-0.1500,-0.1500*
1,1,0.3000,-0.1500,0.1500*
1,1,0.3000,0.1500,0.1500*
1,1,0.3000,0.1500,-0.1500*
%
%ADD84ROUNDEDRECTD84*%
%ADD85C,0.3000*%
%ADD86C,0.4500*%
%ADD87C,0.1100*%
%ADD88C,0.4000*%
%ADD89C,0.2500*%
%ADD90C,0.1350*%
%ADD91C,5.0000*%
G04:AMPARAMS|DCode=92|XSize=5.3mm|YSize=5.3mm|CornerRadius=0.3975mm|HoleSize=0mm|Usage=FLASHONLY|Rotation=0.000|XOffset=0mm|YOffset=0mm|HoleType=Round|Shape=RoundedRectangle|*
%AMROUNDEDRECTD92*
21,1,5.3000,4.5050,0,0,0.0*
21,1,4.5050,5.3000,0,0,0.0*
1,1,0.7950,2.2525,-2.2525*
1,1,0.7950,-2.2525,-2.2525*
1,1,0.7950,-2.2525,2.2525*
1,1,0.7950,2.2525,2.2525*
%
%ADD92ROUNDEDRECTD92*%
%ADD93C,0.4500*%
G36*
X186000Y282500D02*
Y277500D01*
X182500D01*
X179500Y279500D01*
Y280500D01*
X182500Y282500D01*
X186000Y282500D01*
D02*
G37*
G36*
X506951Y2549D02*
X167673D01*
X167048Y3358D01*
X166450Y4549D01*
X166539Y5000D01*
Y9500D01*
X166539Y9500D01*
X166384Y10280D01*
X165942Y10942D01*
X165942Y10942D01*
X163942Y12942D01*
X163942Y12942D01*
X163280Y13384D01*
X162500Y13539D01*
X145500D01*
X118628Y13539D01*
X118453Y15532D01*
X124389Y16578D01*
X125502Y17011D01*
X126364Y17836D01*
X126844Y18929D01*
X126870Y20122D01*
X126393Y22830D01*
X111563Y20215D01*
X96733Y17600D01*
X97096Y15539D01*
X96181Y14032D01*
X95591Y13539D01*
X91181Y13539D01*
X90916Y13935D01*
X90163Y15837D01*
X90826Y16830D01*
X91009Y17750D01*
X86500D01*
Y19500D01*
X84750D01*
Y24009D01*
X83829Y23826D01*
X82837Y23163D01*
X82174Y22171D01*
X81941Y21000D01*
Y18771D01*
X79982Y17902D01*
X77042Y20842D01*
X77064Y27294D01*
X77866Y27453D01*
X79023Y28227D01*
X79797Y29384D01*
X80069Y30750D01*
Y33750D01*
X79797Y35116D01*
X79023Y36273D01*
X77866Y37047D01*
X76500Y37319D01*
X68492D01*
X67843Y38849D01*
X67841Y39289D01*
X67913Y39337D01*
X68576Y40329D01*
X68759Y41250D01*
X64250D01*
Y43000D01*
X62500D01*
Y47509D01*
X61579Y47326D01*
X60587Y46663D01*
X58685Y47416D01*
X58116Y47797D01*
X56750Y48069D01*
X53750D01*
X52384Y47797D01*
X51227Y47023D01*
X50453Y45866D01*
X50181Y44500D01*
Y41500D01*
X50453Y40134D01*
X50998Y39319D01*
X50611Y38060D01*
X50112Y37319D01*
X43000D01*
X41634Y37047D01*
X40477Y36273D01*
X39703Y35116D01*
X39431Y33750D01*
Y30750D01*
X39703Y29384D01*
X40315Y28469D01*
X40824Y26479D01*
X40837Y26413D01*
X40174Y25420D01*
X39991Y24500D01*
X47250D01*
Y21000D01*
X39991D01*
X40174Y20080D01*
X40837Y19087D01*
X39773Y17392D01*
X39430Y16878D01*
X39275Y16098D01*
Y8098D01*
X39430Y7318D01*
X39872Y6656D01*
X39872Y6656D01*
X42131Y4397D01*
X41366Y2549D01*
X34549D01*
X34549Y13500D01*
X34536Y13562D01*
X34546Y13625D01*
X34507Y14409D01*
X34461Y14592D01*
Y14781D01*
X34155Y16320D01*
X34059Y16552D01*
X34010Y16798D01*
X33410Y18247D01*
X33271Y18455D01*
X33175Y18687D01*
X32303Y19991D01*
X32126Y20169D01*
X31986Y20377D01*
X30877Y21486D01*
X30669Y21626D01*
X30491Y21803D01*
X29187Y22675D01*
X28955Y22771D01*
X28747Y22910D01*
X27750Y23323D01*
Y41961D01*
X39738D01*
X41513Y42314D01*
X43018Y43320D01*
X83244Y83545D01*
X86039Y84038D01*
X86088Y83757D01*
X86485Y82737D01*
X87048Y82149D01*
X86720Y81404D01*
X86696Y80310D01*
X86956Y78833D01*
X87353Y77813D01*
X87916Y77225D01*
X87588Y76480D01*
X87564Y75386D01*
X87825Y73909D01*
X88221Y72889D01*
X88784Y72301D01*
X88456Y71556D01*
X88432Y70462D01*
X88693Y68984D01*
X89089Y67965D01*
X89652Y67377D01*
X89325Y66631D01*
X89301Y65538D01*
X89472Y64568D01*
X87575Y63806D01*
X86772Y65007D01*
X86630Y65149D01*
X86519Y65316D01*
X85126Y66709D01*
X84959Y66821D01*
X84817Y66963D01*
X83179Y68057D01*
X82993Y68134D01*
X82827Y68246D01*
X81007Y69000D01*
X80810Y69039D01*
X80624Y69116D01*
X78692Y69500D01*
X78491D01*
X78294Y69539D01*
X77309Y69539D01*
X76325Y69539D01*
X76128Y69500D01*
X75927D01*
X73995Y69116D01*
X73809Y69039D01*
X73612Y69000D01*
X71792Y68246D01*
X71625Y68134D01*
X71440Y68057D01*
X69802Y66963D01*
X69660Y66821D01*
X69493Y66709D01*
X68100Y65317D01*
X67988Y65149D01*
X67846Y65008D01*
X66752Y63370D01*
X66675Y63184D01*
X66564Y63017D01*
X65810Y61197D01*
X65771Y61000D01*
X65694Y60815D01*
X65309Y58883D01*
Y58682D01*
X65270Y58485D01*
X65270Y57500D01*
X65270Y56515D01*
X65309Y56318D01*
Y56117D01*
X65694Y54185D01*
X65771Y54000D01*
X65810Y53803D01*
X66564Y51983D01*
X66675Y51816D01*
X66752Y51630D01*
X67846Y49992D01*
X67989Y49850D01*
X68100Y49683D01*
X69493Y48291D01*
X69660Y48179D01*
X69802Y48037D01*
X71440Y46943D01*
X71625Y46866D01*
X71792Y46754D01*
X73612Y46000D01*
X73809Y45961D01*
X73995Y45884D01*
X75927Y45500D01*
X76128D01*
X76325Y45461D01*
X77309Y45461D01*
X78294Y45461D01*
X78491Y45500D01*
X78692D01*
X80624Y45884D01*
X80810Y45961D01*
X81007Y46000D01*
X82827Y46754D01*
X82994Y46866D01*
X83179Y46943D01*
X84817Y48037D01*
X84959Y48179D01*
X85126Y48291D01*
X86519Y49683D01*
X86630Y49850D01*
X86772Y49992D01*
X87867Y51630D01*
X87944Y51816D01*
X88055Y51983D01*
X88809Y53803D01*
X88848Y54000D01*
X88925Y54185D01*
X89109Y55109D01*
X91144Y55086D01*
X91298Y54212D01*
X91694Y53193D01*
X92257Y52604D01*
X91929Y51859D01*
X91905Y50766D01*
X92166Y49288D01*
X92562Y48269D01*
X93319Y47478D01*
X93443Y47160D01*
X93295Y46825D01*
X93276Y45930D01*
X93309Y45740D01*
X92312Y44052D01*
X90168Y43568D01*
X89881Y43769D01*
X88179Y44518D01*
X86320Y44558D01*
X84586Y43884D01*
X83243Y42598D01*
X82494Y40896D01*
X82453Y39037D01*
X83127Y37303D01*
X83319Y37103D01*
X83821Y34256D01*
X83709Y34002D01*
X83669Y32143D01*
X84343Y30410D01*
X85629Y29066D01*
X87331Y28317D01*
X89191Y28276D01*
X90924Y28950D01*
X92268Y30236D01*
X92798Y30994D01*
X95513Y31473D01*
X95880Y31158D01*
X96141Y29681D01*
X96465Y28846D01*
X96499Y28811D01*
X96605Y28412D01*
X96555Y26669D01*
X96429Y26303D01*
X96154Y26041D01*
X95674Y24948D01*
X95648Y23755D01*
X96125Y21047D01*
X110955Y23662D01*
X125785Y26277D01*
X125308Y28985D01*
X124875Y30097D01*
X124050Y30959D01*
X122957Y31440D01*
X121764Y31466D01*
X112963Y29914D01*
X111582Y31376D01*
X111579Y31388D01*
X103990Y30050D01*
X103632Y32079D01*
X104879Y32399D01*
X106367Y33515D01*
X106499Y33737D01*
X108852Y34152D01*
X109871Y34548D01*
X109990Y34662D01*
X110805Y34805D01*
X110654Y34964D01*
X110661Y35305D01*
X111102Y36306D01*
X111126Y37400D01*
X110865Y38877D01*
X110469Y39897D01*
X109906Y40485D01*
X110234Y41230D01*
X110258Y42324D01*
X109997Y43801D01*
X109601Y44821D01*
X108844Y45611D01*
X108720Y45930D01*
X108809Y46131D01*
X107992Y45987D01*
X107843Y46052D01*
X106749Y46076D01*
X104363Y45656D01*
X104017Y45917D01*
X102215Y46381D01*
X101137Y46228D01*
X100830Y47969D01*
X106247Y48924D01*
X107267Y49320D01*
X107385Y49433D01*
X108201Y49577D01*
X108049Y49736D01*
X108057Y50077D01*
X108497Y51079D01*
X108521Y52172D01*
X108261Y53649D01*
X107864Y54669D01*
X107301Y55257D01*
X107629Y56002D01*
X107653Y57096D01*
X107393Y58573D01*
X106996Y59593D01*
X106433Y60181D01*
X106761Y60927D01*
X106785Y62020D01*
X106524Y63498D01*
X106128Y64517D01*
X105565Y65105D01*
X105893Y65851D01*
X105917Y66944D01*
X105656Y68422D01*
X105718Y68692D01*
X106577Y70065D01*
X108720Y70578D01*
X108842Y70497D01*
X110500Y70167D01*
X112158Y70497D01*
X113564Y71436D01*
X114503Y72842D01*
X114833Y74500D01*
X114794Y74696D01*
X116021Y76256D01*
X117829Y76332D01*
X119225Y74792D01*
X119167Y74500D01*
X119497Y72842D01*
X120436Y71436D01*
X121842Y70497D01*
X123500Y70167D01*
X125158Y70497D01*
X126564Y71436D01*
X127503Y72842D01*
X127833Y74500D01*
X127503Y76158D01*
X126564Y77564D01*
Y77936D01*
X127503Y79342D01*
X127833Y81000D01*
X127692Y81708D01*
X129292Y83308D01*
X130000Y83167D01*
X131658Y83497D01*
X131824Y83607D01*
X134020Y82669D01*
X141809Y38495D01*
Y38495D01*
X142097Y37753D01*
X142647Y37178D01*
X143376Y36858D01*
X143997Y36844D01*
X144316Y36732D01*
X144405Y36665D01*
X145632Y35067D01*
X145603Y34851D01*
X145422Y34035D01*
X145441Y33615D01*
X145386Y33199D01*
X145495Y32371D01*
X145531Y31535D01*
X145657Y31135D01*
X145712Y30719D01*
X146032Y29947D01*
X146283Y29150D01*
X146509Y28796D01*
X146669Y28408D01*
X147178Y27745D01*
X147627Y27040D01*
X147937Y26757D01*
X148192Y26424D01*
X148855Y25915D01*
X149472Y25350D01*
X149844Y25157D01*
X150177Y24901D01*
X150949Y24581D01*
X151690Y24195D01*
X152100Y24104D01*
X152488Y23944D01*
X153316Y23835D01*
X154132Y23654D01*
X154552Y23672D01*
X154968Y23617D01*
X155796Y23726D01*
X156631Y23763D01*
X157032Y23889D01*
X157448Y23944D01*
X158220Y24264D01*
X159017Y24515D01*
X159371Y24741D01*
X159759Y24901D01*
X160422Y25410D01*
X161127Y25859D01*
X161410Y26168D01*
X161743Y26424D01*
X162061Y26838D01*
X162841Y26833D01*
X164196Y26248D01*
X165856Y16832D01*
X166253Y15813D01*
X167009Y15022D01*
X170684Y12449D01*
Y11125D01*
X170946Y9808D01*
X171692Y8692D01*
X172808Y7946D01*
X174125Y7684D01*
X176875D01*
X178192Y7946D01*
X178602Y8220D01*
X180000Y8536D01*
X181398Y8220D01*
X181808Y7946D01*
X183125Y7684D01*
X185875D01*
X187192Y7946D01*
X188308Y8692D01*
X188979Y9696D01*
X191100D01*
X191404Y8168D01*
X192371Y6721D01*
X193818Y5754D01*
X195525Y5414D01*
X200275D01*
X201982Y5754D01*
X203429Y6721D01*
X203875Y7388D01*
X206125Y7388D01*
X206571Y6721D01*
X208018Y5754D01*
X209725Y5414D01*
X214475D01*
X216182Y5754D01*
X217629Y6721D01*
X218596Y8168D01*
X218799Y9186D01*
X221201D01*
X221404Y8168D01*
X222371Y6721D01*
X223818Y5754D01*
X225525Y5414D01*
X230275D01*
X231982Y5754D01*
X233429Y6721D01*
X233875Y7388D01*
X236125D01*
X236571Y6721D01*
X238018Y5754D01*
X239725Y5414D01*
X244475D01*
X246182Y5754D01*
X247629Y6721D01*
X248596Y8168D01*
X248936Y9875D01*
Y15125D01*
X248596Y16832D01*
X247629Y18279D01*
X246339Y19141D01*
X246049Y20264D01*
X245907Y21340D01*
X246554Y22308D01*
X246816Y23625D01*
Y26375D01*
X247490Y27196D01*
X265401D01*
X266474Y27410D01*
X267384Y28017D01*
X269483Y30116D01*
X270090Y31026D01*
X270177Y31267D01*
X270954Y31420D01*
X272853Y30810D01*
X273183Y29152D01*
X274122Y27746D01*
X275528Y26807D01*
X277186Y26477D01*
X279614D01*
X281272Y26807D01*
X282678Y27746D01*
X285564Y30632D01*
X286503Y32038D01*
X286591Y32478D01*
X286750Y32446D01*
X288250D01*
X289323Y32660D01*
X290000Y33112D01*
X290677Y32660D01*
X291750Y32446D01*
X293250D01*
X294323Y32660D01*
X295233Y33267D01*
X295568Y33334D01*
X295750Y33212D01*
Y34041D01*
X295841Y34177D01*
X296054Y35250D01*
Y38000D01*
X298946D01*
Y35250D01*
X299159Y34177D01*
X299250Y34041D01*
Y33212D01*
X299432Y33334D01*
X299767Y33267D01*
X300677Y32660D01*
X301750Y32446D01*
X303250D01*
X304323Y32660D01*
X305000Y33112D01*
X305677Y32660D01*
X306750Y32446D01*
X308250D01*
X309323Y32660D01*
X310233Y33267D01*
X310840Y34177D01*
X311054Y35250D01*
Y40750D01*
X310840Y41823D01*
X310304Y42626D01*
Y47861D01*
X310090Y48934D01*
X309483Y49843D01*
X297343Y61983D01*
X296434Y62590D01*
X295361Y62804D01*
X208384D01*
X207789Y63221D01*
X192521Y149810D01*
X192409Y150096D01*
X192350Y150397D01*
X192213Y150601D01*
X192124Y150830D01*
X191912Y151051D01*
X191742Y151306D01*
X179065Y163983D01*
X178156Y164590D01*
X177083Y164804D01*
X165586D01*
X165561Y164799D01*
X164882Y164999D01*
X163502Y166511D01*
X163338Y167442D01*
X162941Y168462D01*
X162378Y169050D01*
X162706Y169795D01*
X162730Y170889D01*
X162469Y172366D01*
X162073Y173386D01*
X161510Y173974D01*
X161838Y174719D01*
X161862Y175813D01*
X161601Y177290D01*
X161205Y178310D01*
X160641Y178898D01*
X160970Y179643D01*
X160993Y180737D01*
X160733Y182214D01*
X160336Y183234D01*
X159773Y183822D01*
X160101Y184567D01*
X160125Y185661D01*
X159865Y187138D01*
X159468Y188158D01*
X158905Y188746D01*
X159233Y189492D01*
X159257Y190585D01*
X158996Y192062D01*
X158600Y193082D01*
X158037Y193670D01*
X158365Y194415D01*
X158389Y195509D01*
X158128Y196986D01*
X157732Y198006D01*
X157169Y198594D01*
X157497Y199340D01*
X157520Y200433D01*
X157260Y201910D01*
X156863Y202930D01*
X156300Y203518D01*
X156628Y204264D01*
X156652Y205357D01*
X156392Y206835D01*
X155995Y207854D01*
X155432Y208442D01*
X155760Y209188D01*
X155784Y210281D01*
X155524Y211759D01*
X155127Y212778D01*
X154564Y213366D01*
X154892Y214112D01*
X154916Y215205D01*
X154655Y216683D01*
X154259Y217702D01*
X153751Y218233D01*
X153862Y218395D01*
X153863Y218396D01*
X153864Y218397D01*
X154022Y218767D01*
X154177Y219126D01*
X154177Y219127D01*
X154177Y219129D01*
X154291Y219665D01*
X154291Y219666D01*
X154291Y219668D01*
X154296Y220060D01*
X154301Y220460D01*
X154300Y220462D01*
X154300Y220463D01*
X153305Y225774D01*
X153305Y225774D01*
Y225775D01*
X153134Y226683D01*
X153067Y226851D01*
X153037Y227029D01*
X152920Y227217D01*
X152837Y227422D01*
X152711Y227551D01*
X152615Y227704D01*
X151981Y228378D01*
X151917Y228424D01*
X151870Y228488D01*
X151595Y228654D01*
X151334Y228840D01*
X151266Y228856D01*
X151224Y228884D01*
X151208Y228887D01*
X151189Y228899D01*
X151136Y228918D01*
X150788Y228971D01*
X150654Y228997D01*
X150559Y229019D01*
X150550Y229018D01*
X150443Y229039D01*
X150295Y229039D01*
X137500Y229039D01*
X137499Y229039D01*
X137143Y229039D01*
X136946Y229000D01*
X136746D01*
X136046Y228861D01*
X135860Y228784D01*
X135663Y228745D01*
X135004Y228472D01*
X134837Y228360D01*
X134652Y228283D01*
X134076Y227899D01*
X133806Y227956D01*
X132296Y229106D01*
X132272Y229636D01*
X132341Y230161D01*
X132204Y231208D01*
X132158Y232263D01*
X131998Y232768D01*
X131929Y233293D01*
X131525Y234269D01*
X131208Y235276D01*
X130923Y235723D01*
X130720Y236213D01*
X130077Y237050D01*
X129510Y237941D01*
X129119Y238299D01*
X128797Y238719D01*
X127959Y239362D01*
X127180Y240075D01*
X126710Y240320D01*
X126290Y240643D01*
X125314Y241047D01*
X124378Y241535D01*
X123860Y241649D01*
X123371Y241852D01*
X122324Y241990D01*
X121293Y242218D01*
X120763Y242195D01*
X120238Y242264D01*
X119930Y242224D01*
X118876Y243773D01*
X118811Y244112D01*
X129738Y259717D01*
X148481Y278461D01*
X151939D01*
X152000Y278155D01*
Y277000D01*
X152883Y276117D01*
X152977Y275977D01*
X153117Y275883D01*
X155000Y274000D01*
X177000D01*
X179177Y276177D01*
X180809D01*
X181369Y275803D01*
X181553Y275727D01*
X181720Y275616D01*
X181918Y275577D01*
X182104Y275499D01*
X182304Y275500D01*
X182500Y275461D01*
X183127D01*
X183250Y275436D01*
X186711D01*
Y273250D01*
X186866Y272470D01*
X187308Y271808D01*
X187970Y271366D01*
X188750Y271211D01*
X202250D01*
X203030Y271366D01*
X203692Y271808D01*
X204134Y272470D01*
X204289Y273250D01*
Y286750D01*
X204134Y287530D01*
X203692Y288192D01*
X203030Y288634D01*
X202250Y288789D01*
X188750D01*
X187970Y288634D01*
X187308Y288192D01*
X186866Y287530D01*
X186711Y286750D01*
Y284564D01*
X183250D01*
X183127Y284539D01*
X182500D01*
X182304Y284500D01*
X182104Y284500D01*
X181918Y284423D01*
X181720Y284384D01*
X181553Y284273D01*
X181369Y284197D01*
X179500Y285189D01*
Y291500D01*
X177000Y294000D01*
X158845D01*
X158500Y294069D01*
X155500D01*
X155155Y294000D01*
X154500D01*
X154337Y293837D01*
X154134Y293797D01*
X152977Y293023D01*
X152203Y291866D01*
X152163Y291663D01*
X152000Y291500D01*
Y290844D01*
X151939Y290539D01*
X145400D01*
X143625Y290186D01*
X142120Y289180D01*
X120737Y267797D01*
X120511Y267459D01*
X120217Y267178D01*
X108673Y250692D01*
X106899Y251645D01*
X108004Y254449D01*
X108992Y258906D01*
X109270Y263462D01*
X108833Y268005D01*
X107690Y272425D01*
X105870Y276611D01*
X103417Y280461D01*
X100392Y283879D01*
X96870Y286783D01*
X92937Y289100D01*
X88690Y290772D01*
X84234Y291761D01*
X79677Y292039D01*
X75134Y291602D01*
X70714Y290459D01*
X66528Y288639D01*
X62678Y286186D01*
X59260Y283161D01*
X56356Y279639D01*
X54039Y275706D01*
X52366Y271459D01*
X51378Y267002D01*
X51100Y262446D01*
X51537Y257903D01*
X52680Y253483D01*
X54500Y249297D01*
X56953Y245447D01*
X59978Y242029D01*
X63500Y239125D01*
X67433Y236808D01*
X71680Y235135D01*
X72374Y234981D01*
X72330Y232943D01*
X62184Y231154D01*
X61071Y230721D01*
X60209Y229896D01*
X59728Y228803D01*
X59703Y227610D01*
X60180Y224902D01*
X75010Y227517D01*
X75618Y224070D01*
X60788Y221455D01*
X60991Y220303D01*
X59131Y219334D01*
X45304Y233161D01*
Y240000D01*
X45090Y241073D01*
X44483Y241983D01*
X40304Y246161D01*
Y258500D01*
X40090Y259573D01*
X39483Y260483D01*
X29983Y269983D01*
X29073Y270590D01*
X28000Y270804D01*
X27750D01*
Y276677D01*
X28747Y277090D01*
X28955Y277229D01*
X29187Y277325D01*
X30491Y278197D01*
X30669Y278374D01*
X30877Y278514D01*
X31986Y279622D01*
X32126Y279831D01*
X32303Y280009D01*
X33175Y281313D01*
X33271Y281545D01*
X33410Y281753D01*
X33834Y282776D01*
X35834Y282502D01*
Y282502D01*
X44166D01*
Y297451D01*
X506951D01*
Y2549D01*
D02*
G37*
G36*
X150295Y227000D02*
X150444Y227000D01*
X150496Y226981D01*
X151130Y226307D01*
X151300Y225398D01*
X152296Y220087D01*
X152183Y219551D01*
X151872Y219100D01*
X151643Y218952D01*
X151407Y218957D01*
X143036Y217481D01*
X142062Y217102D01*
X141500Y217000D01*
X133554Y209522D01*
X133151Y209265D01*
X132708Y209090D01*
X132239Y209000D01*
X132000Y209000D01*
X130500D01*
X130102Y209000D01*
X129367Y209304D01*
X128805Y209867D01*
X128500Y210602D01*
X128500Y211000D01*
Y218357D01*
X128639Y219056D01*
X128912Y219715D01*
X129308Y220308D01*
X129561Y220560D01*
X129561Y220561D01*
X134939Y225939D01*
X135191Y226192D01*
X135785Y226588D01*
X136444Y226861D01*
X137143Y227000D01*
X137500Y227000D01*
X137500Y227000D01*
X150295Y227000D01*
D02*
G37*
G36*
X140124Y211891D02*
X141654Y210403D01*
X141630Y209309D01*
X141890Y207832D01*
X142287Y206812D01*
X142850Y206224D01*
X142522Y205478D01*
X142498Y204385D01*
X142759Y202908D01*
X143155Y201888D01*
X143718Y201300D01*
X143390Y200555D01*
X143366Y199461D01*
X143627Y197983D01*
X144024Y196964D01*
X144587Y196376D01*
X144259Y195630D01*
X144235Y194537D01*
X144495Y193060D01*
X144892Y192040D01*
X145455Y191452D01*
X145127Y190706D01*
X145103Y189613D01*
X145364Y188136D01*
X145760Y187116D01*
X146323Y186528D01*
X145995Y185782D01*
X145971Y184689D01*
X146232Y183211D01*
X146628Y182192D01*
X147191Y181604D01*
X146863Y180858D01*
X146840Y179765D01*
X147100Y178287D01*
X147496Y177268D01*
X148060Y176680D01*
X147732Y175934D01*
X147708Y174841D01*
X147968Y173363D01*
X146494Y171635D01*
X141287Y170717D01*
X140265Y171400D01*
X138606Y171730D01*
X137229Y171456D01*
X136708Y171538D01*
X135012Y172512D01*
X129268Y205087D01*
X129299Y205215D01*
X129526Y205709D01*
X129667Y205889D01*
X130969Y206961D01*
X132000D01*
X132238Y206961D01*
X132428Y206998D01*
X132621Y206997D01*
X133090Y207087D01*
X133269Y207159D01*
X133459Y207194D01*
X133903Y207370D01*
X134065Y207475D01*
X134246Y207545D01*
X134649Y207801D01*
X134788Y207934D01*
X134952Y208037D01*
X139168Y212005D01*
X140124Y211891D01*
D02*
G37*
G36*
X42719Y203720D02*
X51563Y153563D01*
X51746Y153090D01*
X51845Y152593D01*
X52071Y152255D01*
X52219Y151876D01*
X52569Y151510D01*
X52851Y151088D01*
X63102Y140837D01*
X64607Y139831D01*
X66383Y139478D01*
X66383Y139478D01*
X72472D01*
X73063Y139596D01*
X73277Y139591D01*
X74787Y139857D01*
X76779Y139487D01*
X77039Y138010D01*
X77364Y137175D01*
X77617Y136911D01*
X77610Y136569D01*
X77169Y135568D01*
X77145Y134474D01*
X77406Y132997D01*
X77802Y131977D01*
X78365Y131389D01*
X78037Y130644D01*
X78013Y129550D01*
X78274Y128073D01*
X78670Y127053D01*
X79427Y126263D01*
X79551Y125945D01*
X79403Y125610D01*
X79384Y124715D01*
X79390Y124679D01*
X77809Y122679D01*
X73881D01*
X47880Y148680D01*
X46375Y149686D01*
X44600Y150039D01*
X27750D01*
Y178451D01*
X32500D01*
X32583Y178468D01*
X32667Y178457D01*
X33646Y178521D01*
X33888Y178586D01*
X34139Y178602D01*
X36030Y179109D01*
X36329Y179256D01*
X36645Y179363D01*
X38340Y180343D01*
X38591Y180562D01*
X38868Y180748D01*
X40252Y182132D01*
X40438Y182409D01*
X40658Y182660D01*
X41636Y184356D01*
X41744Y184671D01*
X41891Y184970D01*
X42398Y186861D01*
X42420Y187194D01*
X42485Y187521D01*
Y189479D01*
X42420Y189806D01*
X42398Y190139D01*
X41891Y192030D01*
X41744Y192329D01*
X41636Y192645D01*
X40658Y194340D01*
X40438Y194591D01*
X40252Y194868D01*
X38868Y196252D01*
X38591Y196438D01*
X38340Y196658D01*
X36644Y197636D01*
X36329Y197744D01*
X36030Y197891D01*
X34139Y198398D01*
X33888Y198414D01*
X33646Y198479D01*
X32667Y198543D01*
X32583Y198532D01*
X32500Y198549D01*
X27750D01*
Y215861D01*
X29750Y216689D01*
X42719Y203720D01*
D02*
G37*
G36*
X67520Y111960D02*
X68299Y111439D01*
X67692Y109439D01*
X63081D01*
X55840Y116680D01*
X54335Y117686D01*
X52560Y118039D01*
X27750D01*
Y137961D01*
X41519D01*
X67520Y111960D01*
D02*
G37*
G36*
X148512Y165521D02*
X149540Y164447D01*
X149705Y163515D01*
X150101Y162496D01*
X150664Y161907D01*
X150336Y161162D01*
X150312Y160068D01*
X150573Y158591D01*
X150969Y157572D01*
X151532Y156983D01*
X151205Y156238D01*
X151181Y155144D01*
X151441Y153667D01*
X151838Y152647D01*
X152401Y152059D01*
X152073Y151314D01*
X152049Y150220D01*
X152309Y148743D01*
X152706Y147724D01*
X153269Y147135D01*
X152941Y146390D01*
X152917Y145296D01*
X153178Y143819D01*
X153574Y142800D01*
X154137Y142211D01*
X153809Y141466D01*
X153785Y140372D01*
X154046Y138895D01*
X154442Y137875D01*
X155006Y137287D01*
X154677Y136542D01*
X154654Y135448D01*
X154914Y133971D01*
X155311Y132951D01*
X155874Y132363D01*
X155546Y131618D01*
X155522Y130524D01*
X155782Y129047D01*
X156179Y128027D01*
X156742Y127439D01*
X156414Y126694D01*
X156390Y125600D01*
X156651Y124123D01*
X157047Y123103D01*
X157610Y122515D01*
X157282Y121770D01*
X157258Y120676D01*
X157519Y119199D01*
X157915Y118179D01*
X158672Y117389D01*
X159673Y116948D01*
X160767Y116924D01*
X169138Y118400D01*
X170158Y118797D01*
X170369Y119000D01*
X174306D01*
X176809Y104809D01*
X172769Y100769D01*
X172245Y100780D01*
X163874Y99304D01*
X162854Y98907D01*
X162064Y98151D01*
X161623Y97150D01*
X161600Y96056D01*
X161860Y94579D01*
X162257Y93559D01*
X162820Y92971D01*
X162492Y92226D01*
X162468Y91132D01*
X162728Y89655D01*
X163125Y88635D01*
X163881Y87845D01*
X164102Y87747D01*
X163858Y87191D01*
X163838Y86296D01*
X164099Y84819D01*
X163732Y83238D01*
X163215Y82680D01*
X161942Y81407D01*
X161847Y81264D01*
X161716Y81152D01*
X161545Y80813D01*
X161334Y80498D01*
X161301Y80329D01*
X161223Y80175D01*
X160307Y76880D01*
X160302Y76805D01*
X160271Y76736D01*
X160261Y76262D01*
X160226Y75789D01*
X160249Y75717D01*
X160247Y75642D01*
X162180Y64681D01*
X161497Y63658D01*
X161167Y62000D01*
X161497Y60342D01*
X161565Y60239D01*
X162328Y58707D01*
X161576Y57105D01*
X161525Y57028D01*
X161195Y55370D01*
X161525Y53712D01*
X162464Y52306D01*
X163322Y51732D01*
X163797Y49041D01*
Y40571D01*
X163689Y40483D01*
X162671Y39977D01*
X161797Y39905D01*
X161743Y39975D01*
X161080Y40484D01*
X160464Y41048D01*
X160091Y41242D01*
X159759Y41498D01*
X158986Y41817D01*
X158245Y42203D01*
X157979Y42262D01*
X136981Y161348D01*
X138606Y163064D01*
X140265Y163394D01*
X141670Y164333D01*
X142244Y165191D01*
X147468Y166112D01*
X148512Y165521D01*
D02*
G37*
G36*
X56720Y98720D02*
X56895Y98602D01*
X57091Y96612D01*
X46519Y86039D01*
X27750D01*
Y105961D01*
X49478D01*
X56720Y98720D01*
D02*
G37*
G36*
X180756Y54312D02*
X180869Y54261D01*
X180779Y54274D01*
X181001Y54202D01*
X181226Y54103D01*
X181462Y53974D01*
X181851Y53165D01*
X185000Y41750D01*
Y32500D01*
X185000Y32500D01*
Y32003D01*
X184619Y31084D01*
X183916Y30381D01*
X182997Y30000D01*
X172000D01*
X171503Y30000D01*
X170584Y30381D01*
X169881Y31084D01*
X169500Y32003D01*
X169500Y32500D01*
Y51000D01*
X169500Y51000D01*
X169500Y51000D01*
X169716Y51907D01*
X170121Y52389D01*
X170667Y52703D01*
X170978Y52757D01*
X171890Y52916D01*
X172054Y52912D01*
X179568Y54237D01*
X180223Y54352D01*
X180779Y54274D01*
X180425Y54388D01*
X180756Y54312D01*
D02*
G37*
G36*
X70330Y87713D02*
X36656Y54039D01*
X27750D01*
Y73961D01*
X49600D01*
X51375Y74314D01*
X52880Y75320D01*
X67122Y89561D01*
X69565D01*
X70330Y87713D01*
D02*
G37*
G36*
X235280Y39245D02*
X231017Y34983D01*
X230410Y34073D01*
X230196Y33000D01*
Y29479D01*
X229192Y28808D01*
X228521Y27804D01*
X221947D01*
X205475Y39338D01*
X206077Y41245D01*
X234451D01*
X235280Y39245D01*
D02*
G37*
G36*
X59751Y36433D02*
Y8535D01*
X54215Y3000D01*
X46412D01*
X41314Y8098D01*
Y16098D01*
X43064Y17848D01*
X53314D01*
X54664Y19198D01*
X54662Y44465D01*
X59751Y36433D01*
D02*
G37*
G36*
X75051Y34542D02*
X75000Y20000D01*
X83500Y11500D01*
X145500Y11500D01*
X162500D01*
X164500Y9500D01*
Y5000D01*
X162049Y2549D01*
X71451D01*
X62077Y11923D01*
X62076Y31193D01*
X66133Y35250D01*
X74345Y35250D01*
X75051Y34542D01*
D02*
G37*
%LPC*%
G36*
X438485Y294539D02*
X437500Y294539D01*
X436515Y294539D01*
X436318Y294500D01*
X436117D01*
X434185Y294116D01*
X434000Y294039D01*
X433803Y294000D01*
X431983Y293246D01*
X431816Y293134D01*
X431630Y293057D01*
X429992Y291963D01*
X429850Y291821D01*
X429683Y291709D01*
X428290Y290317D01*
X428179Y290149D01*
X428037Y290007D01*
X426943Y288370D01*
X426866Y288184D01*
X426754Y288017D01*
X426000Y286197D01*
X425961Y286000D01*
X425884Y285815D01*
X425500Y283883D01*
Y283682D01*
X425461Y283485D01*
X425461Y282500D01*
X425461Y281515D01*
X425500Y281318D01*
Y281117D01*
X425884Y279185D01*
X425961Y279000D01*
X426000Y278803D01*
X426754Y276983D01*
X426866Y276816D01*
X426943Y276630D01*
X428037Y274992D01*
X428179Y274850D01*
X428290Y274683D01*
X429683Y273291D01*
X429850Y273179D01*
X429992Y273037D01*
X431630Y271943D01*
X431816Y271866D01*
X431983Y271754D01*
X433803Y271000D01*
X434000Y270961D01*
X434185Y270884D01*
X436117Y270500D01*
X436318D01*
X436515Y270461D01*
X437500Y270461D01*
X438485Y270461D01*
X438682Y270500D01*
X438883D01*
X440815Y270884D01*
X441000Y270961D01*
X441197Y271000D01*
X443017Y271754D01*
X443184Y271866D01*
X443370Y271943D01*
X445008Y273037D01*
X445149Y273179D01*
X445317Y273291D01*
X446709Y274683D01*
X446821Y274850D01*
X446963Y274992D01*
X448057Y276630D01*
X448134Y276816D01*
X448246Y276983D01*
X448999Y278803D01*
X449039Y279000D01*
X449116Y279185D01*
X449500Y281117D01*
Y281318D01*
X449539Y281515D01*
X449539Y282500D01*
X449539Y283485D01*
X449500Y283682D01*
Y283883D01*
X449116Y285814D01*
X449039Y286000D01*
X448999Y286197D01*
X448246Y288017D01*
X448134Y288184D01*
X448057Y288370D01*
X446963Y290007D01*
X446821Y290149D01*
X446709Y290316D01*
X445317Y291709D01*
X445149Y291821D01*
X445008Y291963D01*
X443370Y293057D01*
X443184Y293134D01*
X443017Y293246D01*
X441197Y294000D01*
X441000Y294039D01*
X440815Y294116D01*
X438883Y294500D01*
X438682D01*
X438485Y294539D01*
D02*
G37*
G36*
X251250Y288789D02*
X237750Y288789D01*
X236970Y288634D01*
X236308Y288192D01*
X235866Y287530D01*
X235711Y286750D01*
Y273250D01*
X235866Y272470D01*
X236308Y271808D01*
X236970Y271366D01*
X237750Y271211D01*
X251250D01*
X252030Y271366D01*
X252692Y271808D01*
X253134Y272470D01*
X253289Y273250D01*
Y275436D01*
X256750D01*
X256873Y275461D01*
X257250D01*
X257446Y275500D01*
X257646Y275499D01*
X257832Y275576D01*
X258030Y275616D01*
X258197Y275727D01*
X258381Y275803D01*
X258941Y276176D01*
X339370D01*
X339612Y276225D01*
X348615Y275782D01*
X357772Y274424D01*
X366751Y272175D01*
X375467Y269056D01*
X383835Y265099D01*
X391775Y260340D01*
X399210Y254826D01*
X405889Y248772D01*
X406026Y248566D01*
X432870Y221723D01*
X432870Y221723D01*
X432843Y221696D01*
X437144Y218023D01*
X441967Y215068D01*
X447192Y212903D01*
X452692Y211583D01*
X456379Y211292D01*
X458331Y211139D01*
X458331Y211139D01*
X459900Y210100D01*
X465500Y204500D01*
X473303D01*
X473500Y204461D01*
X491500D01*
X492280Y204616D01*
X492942Y205058D01*
X493384Y205720D01*
X493539Y206500D01*
Y223500D01*
X493384Y224280D01*
X492942Y224942D01*
X492280Y225384D01*
X491500Y225539D01*
X473500D01*
X473303Y225500D01*
X465500D01*
X458823Y218823D01*
X458331D01*
X458208Y218799D01*
X453889Y219139D01*
X449557Y220179D01*
X445440Y221884D01*
X441641Y224212D01*
X438347Y227026D01*
X438277Y227130D01*
X411468Y253939D01*
X411468Y254009D01*
X411468Y254009D01*
X409999Y255340D01*
X404054Y260728D01*
X396017Y266689D01*
X387435Y271833D01*
X378389Y276111D01*
X368968Y279482D01*
X359262Y281914D01*
X349364Y283382D01*
X339370Y283873D01*
Y283823D01*
X258941D01*
X258381Y284197D01*
X258197Y284273D01*
X258030Y284384D01*
X257832Y284423D01*
X257646Y284500D01*
X257446Y284500D01*
X257250Y284539D01*
X256873D01*
X256750Y284564D01*
X253289D01*
Y286750D01*
X253134Y287530D01*
X252692Y288192D01*
X252030Y288634D01*
X251250Y288789D01*
D02*
G37*
G36*
X415338Y207815D02*
X413604Y207648D01*
X417839Y183632D01*
X441855Y187866D01*
X441419Y189553D01*
X439724Y193451D01*
X437441Y197035D01*
X434625Y200218D01*
X431345Y202921D01*
X427684Y205078D01*
X423730Y206636D01*
X419580Y207556D01*
X415338Y207815D01*
D02*
G37*
G36*
X408680Y206780D02*
X406993Y206344D01*
X403096Y204649D01*
X399512Y202366D01*
X396329Y199550D01*
X393626Y196270D01*
X391469Y192608D01*
X389911Y188654D01*
X388991Y184505D01*
X388732Y180263D01*
X388899Y178529D01*
X412915Y182763D01*
X408680Y206780D01*
D02*
G37*
G36*
X442723Y182942D02*
X418707Y178708D01*
X422942Y154691D01*
X424629Y155128D01*
X428526Y156822D01*
X432110Y159106D01*
X435293Y161922D01*
X437996Y165201D01*
X440154Y168863D01*
X441711Y172817D01*
X442631Y176966D01*
X442890Y181208D01*
X442723Y182942D01*
D02*
G37*
G36*
X413783Y177839D02*
X389767Y173605D01*
X390203Y171918D01*
X391898Y168021D01*
X394181Y164436D01*
X396997Y161254D01*
X400277Y158550D01*
X403938Y156393D01*
X407893Y154836D01*
X412042Y153916D01*
X416284Y153656D01*
X418018Y153823D01*
X413783Y177839D01*
D02*
G37*
G36*
X491500Y160539D02*
X473500D01*
X473303Y160500D01*
X465000D01*
X458000Y153500D01*
Y152747D01*
X456638Y152420D01*
X452433Y150678D01*
X448552Y148300D01*
X447510Y147410D01*
X445425Y147714D01*
X445195Y149022D01*
Y149022D01*
X444906Y149764D01*
X444356Y150339D01*
X443628Y150659D01*
X442832Y150676D01*
X429538Y148332D01*
X429538D01*
X428796Y148044D01*
X428221Y147494D01*
X427901Y146765D01*
X427883Y145970D01*
X430228Y132675D01*
Y132675D01*
X430516Y131933D01*
X431066Y131359D01*
X431795Y131038D01*
X432590Y131021D01*
X445885Y133365D01*
X445885D01*
X446627Y133654D01*
X447201Y134204D01*
X447522Y134932D01*
X447539Y135728D01*
X447159Y137881D01*
X450568Y138482D01*
X451773Y138950D01*
X452707Y139844D01*
X453227Y141028D01*
X453254Y142241D01*
X453716Y142621D01*
X457415Y144598D01*
X459323Y145177D01*
X465000Y139500D01*
X473303D01*
X473500Y139461D01*
X491500D01*
X492280Y139616D01*
X492942Y140058D01*
X493384Y140720D01*
X493539Y141500D01*
Y158500D01*
X493384Y159280D01*
X492942Y159942D01*
X492280Y160384D01*
X491500Y160539D01*
D02*
G37*
G36*
Y95539D02*
X473500D01*
X473303Y95500D01*
X465500D01*
X458823Y88823D01*
X389353D01*
Y88864D01*
X382407Y88409D01*
X375580Y87051D01*
X368988Y84813D01*
X362745Y81734D01*
X356957Y77867D01*
X351723Y73277D01*
X347133Y68043D01*
X343266Y62255D01*
X340187Y56012D01*
X337949Y49420D01*
X336591Y42593D01*
X336136Y35647D01*
X336136D01*
X335883Y33751D01*
X335803Y33631D01*
X335727Y33447D01*
X335616Y33280D01*
X335577Y33082D01*
X335500Y32896D01*
X335500Y32696D01*
X335461Y32500D01*
Y31874D01*
X335436Y31750D01*
Y28289D01*
X333250D01*
X332470Y28134D01*
X331808Y27692D01*
X331366Y27030D01*
X331211Y26250D01*
X331211Y12750D01*
X331366Y11970D01*
X331808Y11308D01*
X332470Y10866D01*
X333250Y10711D01*
X346750Y10711D01*
X347530Y10866D01*
X348192Y11308D01*
X348634Y11970D01*
X348789Y12750D01*
Y26250D01*
X348634Y27030D01*
X348192Y27692D01*
X347530Y28134D01*
X346750Y28289D01*
X344564D01*
Y31750D01*
X344539Y31873D01*
Y32500D01*
X344500Y32696D01*
X344501Y32896D01*
X344423Y33082D01*
X344384Y33280D01*
X344273Y33447D01*
X344197Y33631D01*
X343823Y34191D01*
Y35646D01*
X343790Y35813D01*
X344169Y41595D01*
X345332Y47442D01*
X347248Y53087D01*
X349885Y58433D01*
X353197Y63390D01*
X357128Y67872D01*
X361610Y71803D01*
X366567Y75115D01*
X371913Y77751D01*
X377558Y79668D01*
X383405Y80831D01*
X389187Y81210D01*
X389353Y81177D01*
X458823D01*
X465500Y74500D01*
X473303D01*
X473500Y74461D01*
X491500D01*
X492280Y74616D01*
X492942Y75058D01*
X493384Y75720D01*
X493539Y76500D01*
Y93500D01*
X493384Y94280D01*
X492942Y94942D01*
X492280Y95384D01*
X491500Y95539D01*
D02*
G37*
G36*
X66000Y47509D02*
Y44750D01*
X68759D01*
X68576Y45670D01*
X67913Y46663D01*
X66920Y47326D01*
X66000Y47509D01*
D02*
G37*
G36*
X88250Y24009D02*
Y21250D01*
X91009D01*
X90826Y22171D01*
X90163Y23163D01*
X89171Y23826D01*
X88250Y24009D01*
D02*
G37*
G36*
X317150Y17788D02*
Y13250D01*
X318444D01*
Y15750D01*
X318269Y16628D01*
X317772Y17372D01*
X317150Y17788D01*
D02*
G37*
G36*
X313650D02*
X313028Y17372D01*
X312530Y16628D01*
X312356Y15750D01*
Y13250D01*
X313650D01*
Y17788D01*
D02*
G37*
G36*
X256350D02*
Y13250D01*
X257644D01*
Y15750D01*
X257469Y16628D01*
X256972Y17372D01*
X256350Y17788D01*
D02*
G37*
G36*
X252850D02*
X252228Y17372D01*
X251731Y16628D01*
X251556Y15750D01*
Y13250D01*
X252850D01*
Y17788D01*
D02*
G37*
G36*
X402307Y66131D02*
X397764Y65694D01*
X393344Y64551D01*
X389158Y62731D01*
X385308Y60278D01*
X381890Y57253D01*
X378986Y53731D01*
X376669Y49798D01*
X374996Y45551D01*
X374008Y41094D01*
X373730Y36538D01*
X374167Y31995D01*
X375310Y27575D01*
X377130Y23389D01*
X379583Y19540D01*
X382608Y16121D01*
X386130Y13217D01*
X390063Y10900D01*
X394310Y9227D01*
X398767Y8239D01*
X403323Y7961D01*
X407866Y8398D01*
X412286Y9541D01*
X416472Y11361D01*
X420322Y13814D01*
X423740Y16839D01*
X426131Y19739D01*
X427961Y18900D01*
X428000Y18862D01*
Y18682D01*
X427961Y18485D01*
X427961Y17500D01*
X427961Y16515D01*
X428000Y16318D01*
Y16117D01*
X428384Y14185D01*
X428461Y14000D01*
X428500Y13803D01*
X429254Y11983D01*
X429366Y11816D01*
X429442Y11630D01*
X430537Y9992D01*
X430679Y9850D01*
X430790Y9683D01*
X432183Y8291D01*
X432350Y8179D01*
X432492Y8037D01*
X434130Y6942D01*
X434316Y6866D01*
X434483Y6754D01*
X436303Y6000D01*
X436500Y5961D01*
X436685Y5884D01*
X438617Y5500D01*
X438818D01*
X439015Y5461D01*
X440000Y5461D01*
X440985Y5461D01*
X441182Y5500D01*
X441383D01*
X443315Y5884D01*
X443500Y5961D01*
X443697Y6000D01*
X445517Y6754D01*
X445684Y6866D01*
X445870Y6942D01*
X447508Y8037D01*
X447649Y8179D01*
X447817Y8291D01*
X449209Y9683D01*
X449321Y9850D01*
X449463Y9992D01*
X450557Y11630D01*
X450634Y11816D01*
X450746Y11983D01*
X451499Y13803D01*
X451539Y14000D01*
X451616Y14185D01*
X452000Y16117D01*
Y16318D01*
X452039Y16515D01*
X452039Y17500D01*
X452039Y18485D01*
X452000Y18682D01*
Y18882D01*
X451616Y20814D01*
X451539Y21000D01*
X451499Y21197D01*
X450746Y23017D01*
X450634Y23184D01*
X450557Y23370D01*
X449463Y25007D01*
X449321Y25149D01*
X449209Y25316D01*
X447817Y26709D01*
X447649Y26821D01*
X447508Y26963D01*
X445870Y28057D01*
X445684Y28134D01*
X445517Y28246D01*
X443697Y29000D01*
X443500Y29039D01*
X443315Y29116D01*
X441383Y29500D01*
X441182D01*
X440985Y29539D01*
X440000Y29539D01*
X439015Y29539D01*
X438818Y29500D01*
X438617D01*
X436685Y29116D01*
X436500Y29039D01*
X436303Y29000D01*
X434483Y28246D01*
X434316Y28134D01*
X434130Y28057D01*
X432492Y26963D01*
X432350Y26821D01*
X432183Y26709D01*
X431982Y26509D01*
X430274Y27629D01*
X430634Y28541D01*
X431622Y32998D01*
X431900Y37554D01*
X431463Y42097D01*
X430320Y46517D01*
X428500Y50703D01*
X426047Y54553D01*
X423022Y57971D01*
X419500Y60875D01*
X415567Y63192D01*
X411320Y64865D01*
X406863Y65853D01*
X402307Y66131D01*
D02*
G37*
G36*
X318444Y9750D02*
X317150D01*
Y5212D01*
X317772Y5628D01*
X318269Y6372D01*
X318444Y7250D01*
Y9750D01*
D02*
G37*
G36*
X313650D02*
X312356D01*
Y7250D01*
X312530Y6372D01*
X313028Y5628D01*
X313650Y5212D01*
Y9750D01*
D02*
G37*
G36*
X257644D02*
X256350D01*
Y5212D01*
X256972Y5628D01*
X257469Y6372D01*
X257644Y7250D01*
Y9750D01*
D02*
G37*
G36*
X252850D02*
X251556D01*
Y7250D01*
X251731Y6372D01*
X252228Y5628D01*
X252850Y5212D01*
Y9750D01*
D02*
G37*
%LPD*%
G36*
X260250Y280500D02*
Y279500D01*
X257250Y277500D01*
X253750D01*
Y282500D01*
X257250Y282500D01*
X260250Y280500D01*
D02*
G37*
G36*
X468000Y210000D02*
X463500D01*
X458000Y214500D01*
Y215500D01*
X463500Y220000D01*
X468000D01*
Y210000D01*
D02*
G37*
G36*
Y80000D02*
X463500D01*
X458000Y84500D01*
Y85500D01*
X463500Y90000D01*
X468000D01*
Y80000D01*
D02*
G37*
G36*
X342500Y32500D02*
Y29000D01*
X337500D01*
Y32500D01*
X339500Y35500D01*
X340500D01*
X342500Y32500D01*
D02*
G37*
D24*
X297500Y38000D02*
D03*
X292500D02*
D03*
X287500D02*
D03*
X282500D02*
D03*
X277500D02*
D03*
X272500D02*
D03*
X267500D02*
D03*
X262500D02*
D03*
X302500D02*
D03*
X307500D02*
D03*
D61*
X465602Y150000D02*
G03*
X447805Y142629I0J-25168D01*
G01*
X435574Y224426D02*
G03*
X458331Y215000I22757J22757D01*
G01*
X408730Y251270D02*
G03*
X339370Y280000I-69360J-69360D01*
G01*
X389353Y85000D02*
G03*
X340000Y35646I0J-49353D01*
G01*
X465602Y150000D02*
X467500D01*
X234669Y19500D02*
X237500Y22331D01*
X188000Y25000D02*
X213657D01*
X219157Y19500D02*
X234669D01*
X213657Y25000D02*
X219157Y19500D01*
X201688Y60819D02*
X207232Y56938D01*
X291978D02*
X302500Y46416D01*
X207232Y56938D02*
X291978D01*
X207500Y60000D02*
X295361D01*
X307500Y38000D02*
Y47861D01*
X295361Y60000D02*
X307500Y47861D01*
X302500Y38000D02*
Y46416D01*
X271614Y44049D02*
X272500Y43163D01*
Y38000D02*
Y43163D01*
X201358Y44049D02*
X271614D01*
X188822Y52827D02*
X201358Y44049D01*
X277500Y38000D02*
Y45316D01*
X202316Y47629D02*
X275187D01*
X277500Y45316D01*
X287500Y38000D02*
Y46987D01*
X283697Y50790D02*
X287500Y46987D01*
X203872Y50790D02*
X283697D01*
X292500Y38000D02*
Y47500D01*
X205599Y53831D02*
X286169D01*
X292500Y47500D01*
X192161Y54739D02*
X202316Y47629D01*
X195500Y56652D02*
X203872Y50790D01*
X198550Y58766D02*
X205599Y53831D01*
X238000Y38000D02*
X262500D01*
X233000Y33000D02*
X238000Y38000D01*
X233000Y25000D02*
Y33000D01*
X239754Y30000D02*
X265401D01*
X267500Y32099D01*
Y38000D01*
X237500Y27746D02*
X239754Y30000D01*
X237500Y22331D02*
Y27746D01*
X175500Y12500D02*
X188000Y25000D01*
X186561Y146613D02*
X201581Y61431D01*
X201688Y60819D01*
X177400Y138453D02*
X192053Y55351D01*
X180598Y141164D02*
X195392Y57264D01*
X174189Y135811D02*
X188714Y53439D01*
X183490Y144181D02*
X198443Y59378D01*
X192053Y55351D02*
X192161Y54739D01*
X198443Y59378D02*
X198550Y58766D01*
X195392Y57264D02*
X195500Y56652D01*
X188714Y53439D02*
X188822Y52827D01*
X205229Y61590D02*
X207500Y60000D01*
X166601Y28757D02*
X168618Y17319D01*
X166601Y28757D02*
Y49286D01*
X165528Y55370D02*
X166601Y49286D01*
X55867Y211633D02*
X64323Y163677D01*
X60220Y214280D02*
X68676Y166324D01*
X408730Y251270D02*
X435574Y224426D01*
X458331Y215000D02*
X467500D01*
X254750Y280000D02*
X339370D01*
X340000Y29750D02*
Y35646D01*
X389353Y85000D02*
X467500D01*
X163925Y79425D02*
X165197Y80697D01*
X163009Y76129D02*
X165500Y62000D01*
X163009Y76129D02*
X163925Y79425D01*
X165197Y80697D02*
X171281Y81770D01*
X138606Y167397D02*
X155653Y170403D01*
X121000Y83500D02*
X123500Y81000D01*
X107000Y83500D02*
X121000D01*
X105500Y73000D02*
X110500Y74500D01*
X96740Y71165D02*
X105500Y73000D01*
X104500Y87500D02*
X130000D01*
X129490Y87010D02*
X130000Y87500D01*
X94136Y85937D02*
X94712Y85552D01*
X104500Y87500D01*
X95004Y81013D02*
X107000Y83500D01*
X123500Y74500D02*
Y75000D01*
X119000Y79500D02*
X123500Y75000D01*
X112000Y79500D02*
X119000D01*
X95872Y76089D02*
X112000Y79500D01*
X28000Y268000D02*
X37500Y258500D01*
Y245000D02*
X42500Y240000D01*
X37500Y245000D02*
Y258500D01*
Y230000D02*
X55867Y211633D01*
X72452Y158271D02*
X81112Y159798D01*
X69729Y158271D02*
X72452D01*
X64323Y163677D02*
X69729Y158271D01*
X42500Y232000D02*
X60220Y214280D01*
X68676Y166324D02*
X71772Y163228D01*
X80244Y164722D01*
X42500Y232000D02*
Y240000D01*
X37500Y230000D02*
Y237500D01*
X31000Y244000D02*
X37500Y237500D01*
X14000Y244000D02*
X31000D01*
X14000Y268000D02*
X28000D01*
X166000Y280000D02*
X175000D01*
X185250D01*
X168618Y17319D02*
X175500Y12500D01*
X174243Y147519D02*
X180598Y141164D01*
X159994Y145783D02*
X169842Y147519D01*
X174243D01*
X242000Y12600D02*
Y25000D01*
X184500Y12500D02*
X184500Y12500D01*
X197900D01*
X221063Y25000D02*
X233000D01*
X166363Y55517D02*
X175622Y57150D01*
X180465Y81535D02*
X186119Y49468D01*
X221063Y25000D01*
X189759Y149324D02*
X205229Y61590D01*
X177083Y162000D02*
X189759Y149324D01*
X158258Y155631D02*
X166023Y157000D01*
X172519Y137481D02*
X174189Y135811D01*
X173353Y142500D02*
X177400Y138453D01*
X175671Y152000D02*
X183490Y144181D01*
X176174Y157000D02*
X186561Y146613D01*
X177523Y82871D02*
X179129D01*
X180465Y81535D01*
X177437Y82855D02*
X177523Y82871D01*
X171281Y81770D02*
X177437Y82855D01*
X165586Y162000D02*
X177083D01*
X157389Y160555D02*
X165586Y162000D01*
X166023Y157000D02*
X176174D01*
X159126Y150707D02*
X166461Y152000D01*
X175671D01*
X160862Y140859D02*
X170171Y142500D01*
X173353D01*
X170503Y137481D02*
X172519D01*
X161731Y135934D02*
X170503Y137481D01*
X38334Y285002D02*
X41666D01*
X40000D01*
Y294998D01*
X38334Y293332D01*
D62*
X212100Y12500D02*
D03*
X197900D02*
D03*
X227900D02*
D03*
X242100D02*
D03*
D63*
X428109Y139156D02*
D03*
D64*
X436467Y150784D02*
D03*
X439940Y131088D02*
D03*
D65*
X447805Y142629D02*
D03*
D66*
X205250Y280000D02*
D03*
X234750Y280000D02*
D03*
D67*
X195000Y270000D02*
D03*
Y290000D02*
D03*
X245000D02*
D03*
Y270000D02*
D03*
D68*
X185250Y280000D02*
D03*
X254750D02*
D03*
D69*
X340000Y9750D02*
D03*
D70*
X330000Y20000D02*
D03*
X350000D02*
D03*
D71*
X340000Y29750D02*
D03*
D72*
X77309Y57500D02*
D03*
X440000Y17500D02*
D03*
X437500Y282500D02*
D03*
D73*
X72250Y13250D02*
D03*
Y32250D02*
D03*
X47250D02*
D03*
Y13250D02*
D03*
Y22750D02*
D03*
D74*
X482500Y135000D02*
D03*
Y165000D02*
D03*
Y200000D02*
D03*
Y230000D02*
D03*
Y70000D02*
D03*
Y100000D02*
D03*
D75*
X467500Y150000D02*
D03*
X497500D02*
D03*
X467500Y215000D02*
D03*
X497500D02*
D03*
X467500Y85000D02*
D03*
X497500D02*
D03*
D76*
X254600Y11500D02*
D03*
X315400D02*
D03*
D77*
X14000Y172000D02*
D03*
Y212000D02*
D03*
Y220000D02*
D03*
Y228000D02*
D03*
Y236000D02*
D03*
Y244000D02*
D03*
Y252000D02*
D03*
Y260000D02*
D03*
Y268000D02*
D03*
Y164000D02*
D03*
Y156000D02*
D03*
Y148000D02*
D03*
Y140000D02*
D03*
Y132000D02*
D03*
Y124000D02*
D03*
Y116000D02*
D03*
Y108000D02*
D03*
Y100000D02*
D03*
Y92000D02*
D03*
Y84000D02*
D03*
Y76000D02*
D03*
Y68000D02*
D03*
Y60000D02*
D03*
Y52000D02*
D03*
Y44000D02*
D03*
Y36000D02*
D03*
D78*
X75314Y225794D02*
D03*
X111259Y21938D02*
D03*
D79*
X72430Y209038D02*
D03*
X74166Y199190D02*
D03*
X75034Y194266D02*
D03*
X73298Y204114D02*
D03*
X71561Y213962D02*
D03*
X94136Y85937D02*
D03*
X88926Y115482D02*
D03*
X95004Y81013D02*
D03*
X89794Y110557D02*
D03*
X95872Y76089D02*
D03*
X96740Y71165D02*
D03*
X97609Y66241D02*
D03*
X79376Y169646D02*
D03*
X80244Y164722D02*
D03*
X81112Y159798D02*
D03*
X82849Y149950D02*
D03*
X81980Y154874D02*
D03*
X83717Y145026D02*
D03*
X88058Y120405D02*
D03*
X84585Y140102D02*
D03*
X87190Y125330D02*
D03*
X85453Y135177D02*
D03*
X86321Y130253D02*
D03*
X103686Y31773D02*
D03*
X102818Y36697D02*
D03*
X101950Y41621D02*
D03*
X101082Y46545D02*
D03*
X100213Y51469D02*
D03*
X98477Y61317D02*
D03*
X99345Y56393D02*
D03*
X77639Y179494D02*
D03*
X78507Y174570D02*
D03*
X76771Y184418D02*
D03*
X75903Y189342D02*
D03*
D80*
X163467Y126086D02*
D03*
X162599Y131011D02*
D03*
X149575Y204871D02*
D03*
X164335Y121162D02*
D03*
X161731Y135934D02*
D03*
X159994Y145783D02*
D03*
X156521Y165479D02*
D03*
X160862Y140859D02*
D03*
X159126Y150707D02*
D03*
X158258Y155631D02*
D03*
X157389Y160555D02*
D03*
X155653Y170403D02*
D03*
X146971Y219643D02*
D03*
X147839Y214719D02*
D03*
X153916Y180251D02*
D03*
X146102Y224567D02*
D03*
X148707Y209795D02*
D03*
X154785Y175327D02*
D03*
X153048Y185175D02*
D03*
X177359Y47302D02*
D03*
X173886Y66998D02*
D03*
X151312Y195023D02*
D03*
X171281Y81770D02*
D03*
X174754Y62074D02*
D03*
X176491Y52226D02*
D03*
X175622Y57150D02*
D03*
X173018Y71922D02*
D03*
X172150Y76846D02*
D03*
X168676Y96542D02*
D03*
X170413Y86694D02*
D03*
X169545Y91618D02*
D03*
X150443Y199947D02*
D03*
X152180Y190099D02*
D03*
D81*
X184500Y12500D02*
D03*
X175500D02*
D03*
X242000Y25000D02*
D03*
X233000D02*
D03*
D82*
X157000Y280000D02*
D03*
X166000D02*
D03*
X157000Y289000D02*
D03*
X166000D02*
D03*
X55250Y43000D02*
D03*
X64250D02*
D03*
D83*
X175000Y280000D02*
D03*
Y289000D02*
D03*
D84*
X86500Y10500D02*
D03*
Y19500D02*
D03*
D85*
X282500Y33696D02*
Y38000D01*
X282500Y38000D02*
X282500Y38000D01*
D86*
X279614Y30810D02*
X282500Y33696D01*
X277186Y30810D02*
X279614D01*
X14000Y36000D02*
X26000D01*
X30000Y40000D01*
Y92000D02*
Y100000D01*
X14000Y92000D02*
X30000D01*
Y86000D02*
Y92000D01*
X14000Y60000D02*
X30000D01*
X14000Y68000D02*
X30000D01*
X14000Y100000D02*
X30000D01*
X14000Y124000D02*
X30000D01*
X14000Y132000D02*
X30000D01*
X14000Y156000D02*
X30000D01*
X14000Y212000D02*
X30000D01*
X14000Y236000D02*
X30000D01*
D87*
X25594Y49400D02*
X38578D01*
X79642Y90464D02*
X79984Y90524D01*
X38578Y49400D02*
X79642Y90464D01*
X79984Y90524D02*
X112191Y96203D01*
X39738Y46600D02*
X80998Y87860D01*
X113819Y93647D01*
X25594Y46600D02*
X39738D01*
X90640Y216850D02*
X124017Y264517D01*
X145400Y285900D01*
X99072Y224010D02*
X126170Y262710D01*
X146560Y283100D02*
X153900D01*
X126170Y262710D02*
X146560Y283100D01*
X145400Y285900D02*
X153900D01*
X157000Y289000D01*
X83698Y209908D02*
X90640Y216850D01*
X79891Y209237D02*
X83698Y209908D01*
X72429Y209038D02*
X79891Y209237D01*
X153900Y283100D02*
X157000Y280000D01*
X92794Y215044D02*
X99072Y224010D01*
X85054Y207304D02*
X92794Y215044D01*
X80377Y206479D02*
X85054Y207304D01*
X73298Y204114D02*
X80377Y206479D01*
X81224Y115240D02*
X81465Y115283D01*
X71960Y118040D02*
X80979D01*
X70800Y115240D02*
X81224D01*
X43440Y142600D02*
X70800Y115240D01*
X44600Y145400D02*
X71960Y118040D01*
X56131Y154369D02*
X66383Y144117D01*
X30400Y222600D02*
X47034Y205966D01*
X31560Y225400D02*
X49638Y207322D01*
X58735Y155724D02*
X67543Y146917D01*
X47034Y205966D02*
X56131Y154369D01*
X49638Y207322D02*
X58735Y155724D01*
X112316Y163902D02*
X113665Y156250D01*
X109585Y179388D02*
X110405Y174735D01*
X113665Y156250D02*
X121826Y109965D01*
X111187Y170303D02*
X111534Y168334D01*
X109797Y173866D02*
X110405Y174735D01*
X110318Y170912D02*
X111187Y170303D01*
X111447Y164510D02*
X112316Y163902D01*
X110926Y167465D02*
X111534Y168334D01*
X107219Y172650D02*
X107827Y173519D01*
X107219Y172650D02*
X107479Y171173D01*
X108348Y170564D02*
X110318Y170912D01*
X107479Y171173D02*
X108348Y170564D01*
X107827Y173519D02*
X109797Y173866D01*
X108348Y166249D02*
X108956Y167118D01*
X110926Y167465D01*
X109477Y164163D02*
X111447Y164510D01*
X108348Y166249D02*
X108608Y164772D01*
X109477Y164163D01*
X98245Y157995D02*
X100114Y147395D01*
X95285Y174782D02*
X96335Y168827D01*
X97841Y176410D02*
X102670Y149023D01*
X97117Y164396D02*
X97464Y162426D01*
X95727Y167959D02*
X96335Y168827D01*
X96248Y165004D02*
X97117Y164396D01*
X97376Y158603D02*
X98245Y157995D01*
X96855Y161557D02*
X97464Y162426D01*
X93149Y166742D02*
X93757Y167611D01*
X93149Y166742D02*
X93409Y165265D01*
X94278Y164657D02*
X96248Y165004D01*
X93409Y165265D02*
X94278Y164657D01*
X93757Y167611D02*
X95727Y167959D01*
X94277Y160341D02*
X94886Y161210D01*
X96855Y161557D01*
X95407Y158256D02*
X97376Y158603D01*
X94277Y160341D02*
X94538Y158864D01*
X95407Y158256D01*
X90878Y177868D02*
X95285Y174782D01*
X91534Y180827D02*
X97841Y176410D01*
X100114Y147395D02*
X106083Y143216D01*
X111891Y110273D01*
X102670Y149023D02*
X108639Y144844D01*
X114850Y109617D01*
X98793Y121526D02*
X100248Y121782D01*
X98039Y120448D02*
X98250Y119250D01*
X98039Y120448D02*
X98793Y121526D01*
X99238Y118558D02*
X100580Y118794D01*
X98250Y119250D02*
X99238Y118558D01*
X85453Y135178D02*
X90117Y136000D01*
X97460D02*
X102178Y131282D01*
X96300Y133200D02*
X99573Y129927D01*
X93594Y133200D02*
X96300D01*
X86321Y130253D02*
X93594Y133200D01*
X90117Y136000D02*
X97460D01*
X100580Y118794D02*
X101671Y118030D01*
X102496Y113351D01*
X102178Y131282D02*
X102440Y129796D01*
X105455Y112695D01*
X100093Y105037D02*
X105455Y112695D01*
X99573Y129927D02*
X99727Y129052D01*
X100509Y124621D02*
X100856Y122651D01*
X99119Y128184D02*
X99727Y129052D01*
X99640Y125229D02*
X100509Y124621D01*
X100248Y121782D02*
X100856Y122651D01*
X96541Y126967D02*
X97149Y127836D01*
X96541Y126967D02*
X96802Y125490D01*
X97670Y124882D02*
X99640Y125229D01*
X96802Y125490D02*
X97670Y124882D01*
X97149Y127836D02*
X99119Y128184D01*
X60000Y102000D02*
X82871D01*
X61160Y104800D02*
X82626D01*
X82871Y102000D02*
X100093Y105037D01*
X22994Y108000D02*
X25594Y110600D01*
X51400D01*
X14000Y108000D02*
X22994D01*
X51400Y110600D02*
X60000Y102000D01*
X14000Y116000D02*
X22994D01*
X98464Y107593D02*
X102496Y113351D01*
X82626Y104800D02*
X98464Y107593D01*
X25594Y113400D02*
X52560D01*
X22994Y116000D02*
X25594Y113400D01*
X52560D02*
X61160Y104800D01*
X25594Y142600D02*
X43440D01*
X25594Y145400D02*
X44600D01*
X65200Y94200D02*
X77794D01*
X25594Y81400D02*
X48440D01*
X64040Y97000D02*
X77208D01*
X49600Y78600D02*
X65200Y94200D01*
X25594Y78600D02*
X49600D01*
X48440Y81400D02*
X64040Y97000D01*
X67543Y146917D02*
X71986D01*
X66383Y144117D02*
X72472D01*
X25594Y222600D02*
X30400D01*
X25594Y225400D02*
X31560D01*
X81465Y115283D02*
X88926Y115482D01*
X22994Y140000D02*
X25594Y142600D01*
X14000Y140000D02*
X22994D01*
X80979Y118040D02*
X88058Y120406D01*
X22994Y148000D02*
X25594Y145400D01*
X14000Y148000D02*
X22994D01*
X112191Y96203D02*
X121826Y109965D01*
X113819Y93647D02*
X124785Y109309D01*
X106126Y102039D02*
X111891Y110273D01*
X77794Y94200D02*
X107754Y99483D01*
X77208Y97000D02*
X77885Y97059D01*
X107754Y99483D02*
X114850Y109617D01*
X77885Y97059D02*
X106126Y102039D01*
X71986Y146917D02*
X75769Y147584D01*
X72472Y144160D02*
X76255Y144827D01*
X72472Y144117D02*
Y144160D01*
X76255Y144827D02*
X83717Y145026D01*
X22994Y220000D02*
X25594Y222600D01*
X14000Y220000D02*
X22994D01*
X75769Y147584D02*
X82849Y149950D01*
X22994Y228000D02*
X25594Y225400D01*
X14000Y228000D02*
X22994D01*
X85587Y176935D02*
X90878Y177868D01*
X85100Y179693D02*
X91534Y180827D01*
X90835Y195935D02*
X112141Y181017D01*
X82496Y194465D02*
X90835Y195935D01*
X82982Y191707D02*
X90179Y192976D01*
X112141Y181017D02*
X124785Y109309D01*
X90179Y192976D02*
X109585Y179388D01*
X75034Y194266D02*
X82496Y194465D01*
X75903Y189342D02*
X82982Y191707D01*
X77639Y179494D02*
X85100Y179693D01*
X78507Y174570D02*
X85587Y176935D01*
X14000Y52000D02*
X22994D01*
X25594Y49400D01*
X22994Y44000D02*
X25594Y46600D01*
X14000Y44000D02*
X22994D01*
X14000Y84000D02*
X22994D01*
X25594Y81400D01*
X22994Y76000D02*
X25594Y78600D01*
X14000Y76000D02*
X22994D01*
D88*
X47256Y32256D02*
X54986D01*
D89*
X55250Y43000D02*
X56451Y41800D01*
Y33720D02*
Y41800D01*
X54986Y32256D02*
X56451Y33720D01*
X47250Y32250D02*
X47256Y32256D01*
X166000Y289000D02*
X183000D01*
X184000Y290000D01*
X69000Y234500D02*
X75314Y228186D01*
Y225794D02*
Y228186D01*
X65250Y112500D02*
X68250Y109500D01*
X79500D01*
X212000Y21000D02*
X212100Y20900D01*
Y12500D02*
Y20900D01*
X83000Y109500D02*
X89794Y110557D01*
X79500Y109500D02*
X83000D01*
X93982Y29899D02*
X103557Y31588D01*
X103686Y31773D01*
X100952Y46360D02*
X101137Y46231D01*
X91377Y44672D02*
X100952Y46360D01*
X212100Y12500D02*
X227900D01*
X227900Y12500D01*
X242000Y12600D02*
X242100Y12500D01*
X77342Y123593D02*
X87190Y125330D01*
X74737Y138365D02*
X84585Y140102D01*
X72132Y153137D02*
X81980Y154874D01*
X79376Y169646D02*
X89224Y171382D01*
X76771Y184418D02*
X86619Y186154D01*
X74166Y199190D02*
X84014Y200926D01*
X71561Y213962D02*
X81409Y215699D01*
X162963Y85380D02*
X170413Y86694D01*
D90*
X94889Y39148D02*
X101950Y41621D01*
X87148Y39864D02*
X89522Y38201D01*
X94889Y39148D01*
X95393Y36292D02*
X102818Y36697D01*
X90026Y35345D02*
X95393Y36292D01*
X88363Y32970D02*
X90026Y35345D01*
D91*
X402815Y37046D02*
D03*
X80185Y262954D02*
D03*
X415811Y180736D02*
D03*
D92*
X480500Y271000D02*
D03*
Y29000D02*
D03*
D93*
X452769Y135567D02*
D03*
X449380Y152969D02*
D03*
X315585Y21993D02*
D03*
X254594Y21597D02*
D03*
X277186Y30810D02*
D03*
X64641Y51136D02*
D03*
X51672Y7224D02*
D03*
X36977Y39707D02*
D03*
X57109Y11841D02*
D03*
X158500Y58500D02*
D03*
X136500Y173500D02*
D03*
X220000Y32500D02*
D03*
X457500Y222500D02*
D03*
Y207500D02*
D03*
X445000D02*
D03*
X435000Y212500D02*
D03*
X427500Y220000D02*
D03*
X420000Y227500D02*
D03*
X467500Y100000D02*
D03*
X497500D02*
D03*
Y70000D02*
D03*
X467500D02*
D03*
Y200000D02*
D03*
X497500D02*
D03*
Y230000D02*
D03*
X467500D02*
D03*
X450000Y225000D02*
D03*
X442500Y232500D02*
D03*
X435000Y240000D02*
D03*
X427500Y247500D02*
D03*
X420000Y255000D02*
D03*
X412500Y262500D02*
D03*
X405000Y267500D02*
D03*
X397500Y272500D02*
D03*
X390000Y277500D02*
D03*
X380000Y282500D02*
D03*
X370000Y287500D02*
D03*
X360000Y290000D02*
D03*
X350000D02*
D03*
X340000D02*
D03*
X330000D02*
D03*
X320000D02*
D03*
X310000D02*
D03*
X300000D02*
D03*
X290000D02*
D03*
X280000D02*
D03*
X270000D02*
D03*
X425000Y112500D02*
D03*
Y150000D02*
D03*
Y125000D02*
D03*
X437500Y112500D02*
D03*
Y125000D02*
D03*
X450000D02*
D03*
Y175000D02*
D03*
Y162500D02*
D03*
Y112500D02*
D03*
Y187500D02*
D03*
X462500Y125000D02*
D03*
Y175000D02*
D03*
Y162500D02*
D03*
Y137500D02*
D03*
Y112500D02*
D03*
Y187500D02*
D03*
X475000Y125000D02*
D03*
Y175000D02*
D03*
Y112500D02*
D03*
Y187500D02*
D03*
X500000Y125000D02*
D03*
Y175000D02*
D03*
Y162500D02*
D03*
Y137500D02*
D03*
Y112500D02*
D03*
Y187500D02*
D03*
X487500D02*
D03*
Y112500D02*
D03*
Y175000D02*
D03*
Y125000D02*
D03*
X447500Y30000D02*
D03*
X375000Y7500D02*
D03*
X422500D02*
D03*
X330000D02*
D03*
Y32500D02*
D03*
X350000D02*
D03*
Y7500D02*
D03*
X440000Y92500D02*
D03*
X450000D02*
D03*
X420000D02*
D03*
X430000D02*
D03*
X440000Y77500D02*
D03*
X450000D02*
D03*
X420000D02*
D03*
X430000D02*
D03*
X410000D02*
D03*
X390000D02*
D03*
X400000D02*
D03*
X380000Y70000D02*
D03*
X370000D02*
D03*
X360000Y60000D02*
D03*
X350000Y50000D02*
D03*
Y40000D02*
D03*
X330000D02*
D03*
Y50000D02*
D03*
Y60000D02*
D03*
X410000Y240000D02*
D03*
Y230000D02*
D03*
Y220000D02*
D03*
Y120000D02*
D03*
Y130000D02*
D03*
Y140000D02*
D03*
Y100000D02*
D03*
Y92500D02*
D03*
Y110000D02*
D03*
X400000Y250000D02*
D03*
Y240000D02*
D03*
Y230000D02*
D03*
Y210000D02*
D03*
Y220000D02*
D03*
Y150000D02*
D03*
Y120000D02*
D03*
Y130000D02*
D03*
Y140000D02*
D03*
Y100000D02*
D03*
Y92500D02*
D03*
Y110000D02*
D03*
X390000Y250000D02*
D03*
Y240000D02*
D03*
Y230000D02*
D03*
Y200000D02*
D03*
Y210000D02*
D03*
Y220000D02*
D03*
Y160000D02*
D03*
Y150000D02*
D03*
Y120000D02*
D03*
Y130000D02*
D03*
Y140000D02*
D03*
Y100000D02*
D03*
Y92500D02*
D03*
Y110000D02*
D03*
X380000Y250000D02*
D03*
Y240000D02*
D03*
Y260000D02*
D03*
Y230000D02*
D03*
Y200000D02*
D03*
Y210000D02*
D03*
Y220000D02*
D03*
Y190000D02*
D03*
Y160000D02*
D03*
Y170000D02*
D03*
Y180000D02*
D03*
Y150000D02*
D03*
Y120000D02*
D03*
Y130000D02*
D03*
Y140000D02*
D03*
Y100000D02*
D03*
Y90000D02*
D03*
Y110000D02*
D03*
X370000Y250000D02*
D03*
Y240000D02*
D03*
Y260000D02*
D03*
Y230000D02*
D03*
Y200000D02*
D03*
Y210000D02*
D03*
Y220000D02*
D03*
Y190000D02*
D03*
Y160000D02*
D03*
Y170000D02*
D03*
Y180000D02*
D03*
Y150000D02*
D03*
Y120000D02*
D03*
Y130000D02*
D03*
Y140000D02*
D03*
Y100000D02*
D03*
Y90000D02*
D03*
Y110000D02*
D03*
X270000Y270000D02*
D03*
X280000D02*
D03*
X290000D02*
D03*
X300000D02*
D03*
X310000D02*
D03*
X320000D02*
D03*
X330000D02*
D03*
X340000D02*
D03*
X350000D02*
D03*
X360000D02*
D03*
X32500Y275000D02*
D03*
X40000D02*
D03*
X50000Y295000D02*
D03*
X100000Y294000D02*
D03*
X111500D02*
D03*
X360000Y110000D02*
D03*
Y90000D02*
D03*
Y100000D02*
D03*
Y140000D02*
D03*
Y130000D02*
D03*
Y120000D02*
D03*
Y150000D02*
D03*
Y180000D02*
D03*
Y170000D02*
D03*
Y160000D02*
D03*
Y190000D02*
D03*
Y220000D02*
D03*
Y210000D02*
D03*
Y200000D02*
D03*
Y230000D02*
D03*
Y260000D02*
D03*
Y240000D02*
D03*
Y250000D02*
D03*
X350000Y110000D02*
D03*
Y80000D02*
D03*
Y90000D02*
D03*
Y100000D02*
D03*
Y140000D02*
D03*
Y130000D02*
D03*
Y120000D02*
D03*
Y150000D02*
D03*
Y180000D02*
D03*
Y170000D02*
D03*
Y160000D02*
D03*
Y190000D02*
D03*
Y220000D02*
D03*
Y210000D02*
D03*
Y200000D02*
D03*
Y230000D02*
D03*
Y260000D02*
D03*
Y240000D02*
D03*
Y250000D02*
D03*
X340000Y110000D02*
D03*
Y70000D02*
D03*
Y80000D02*
D03*
Y90000D02*
D03*
Y100000D02*
D03*
Y140000D02*
D03*
Y130000D02*
D03*
Y120000D02*
D03*
Y150000D02*
D03*
Y180000D02*
D03*
Y170000D02*
D03*
Y160000D02*
D03*
Y190000D02*
D03*
Y220000D02*
D03*
Y210000D02*
D03*
Y200000D02*
D03*
Y230000D02*
D03*
Y260000D02*
D03*
Y240000D02*
D03*
Y250000D02*
D03*
X330000Y110000D02*
D03*
Y70000D02*
D03*
Y80000D02*
D03*
Y90000D02*
D03*
Y100000D02*
D03*
Y140000D02*
D03*
Y130000D02*
D03*
Y120000D02*
D03*
Y150000D02*
D03*
Y180000D02*
D03*
Y170000D02*
D03*
Y160000D02*
D03*
Y190000D02*
D03*
Y220000D02*
D03*
Y210000D02*
D03*
Y200000D02*
D03*
Y230000D02*
D03*
Y260000D02*
D03*
Y240000D02*
D03*
Y250000D02*
D03*
X320000Y110000D02*
D03*
Y70000D02*
D03*
Y80000D02*
D03*
Y90000D02*
D03*
Y100000D02*
D03*
Y140000D02*
D03*
Y130000D02*
D03*
Y120000D02*
D03*
Y150000D02*
D03*
Y180000D02*
D03*
Y170000D02*
D03*
Y160000D02*
D03*
Y190000D02*
D03*
Y220000D02*
D03*
Y210000D02*
D03*
Y200000D02*
D03*
Y230000D02*
D03*
Y260000D02*
D03*
Y240000D02*
D03*
Y250000D02*
D03*
X310000Y110000D02*
D03*
Y70000D02*
D03*
Y80000D02*
D03*
Y90000D02*
D03*
Y100000D02*
D03*
Y140000D02*
D03*
Y130000D02*
D03*
Y120000D02*
D03*
Y150000D02*
D03*
Y180000D02*
D03*
Y170000D02*
D03*
Y160000D02*
D03*
Y190000D02*
D03*
Y220000D02*
D03*
Y210000D02*
D03*
Y200000D02*
D03*
Y230000D02*
D03*
Y260000D02*
D03*
Y240000D02*
D03*
Y250000D02*
D03*
X300000Y110000D02*
D03*
Y70000D02*
D03*
Y80000D02*
D03*
Y90000D02*
D03*
Y100000D02*
D03*
Y140000D02*
D03*
Y130000D02*
D03*
Y120000D02*
D03*
Y150000D02*
D03*
Y180000D02*
D03*
Y170000D02*
D03*
Y160000D02*
D03*
Y190000D02*
D03*
Y220000D02*
D03*
Y210000D02*
D03*
Y200000D02*
D03*
Y230000D02*
D03*
Y260000D02*
D03*
Y240000D02*
D03*
Y250000D02*
D03*
X290000Y110000D02*
D03*
Y70000D02*
D03*
Y80000D02*
D03*
Y90000D02*
D03*
Y100000D02*
D03*
Y140000D02*
D03*
Y130000D02*
D03*
Y120000D02*
D03*
Y150000D02*
D03*
Y180000D02*
D03*
Y170000D02*
D03*
Y160000D02*
D03*
Y190000D02*
D03*
Y220000D02*
D03*
Y210000D02*
D03*
Y200000D02*
D03*
Y230000D02*
D03*
Y260000D02*
D03*
Y240000D02*
D03*
Y250000D02*
D03*
X280000Y110000D02*
D03*
Y70000D02*
D03*
Y80000D02*
D03*
Y90000D02*
D03*
Y100000D02*
D03*
Y140000D02*
D03*
Y130000D02*
D03*
Y120000D02*
D03*
Y150000D02*
D03*
Y180000D02*
D03*
Y170000D02*
D03*
Y160000D02*
D03*
Y190000D02*
D03*
Y220000D02*
D03*
Y210000D02*
D03*
Y200000D02*
D03*
Y230000D02*
D03*
Y260000D02*
D03*
Y240000D02*
D03*
Y250000D02*
D03*
X270000Y110000D02*
D03*
Y70000D02*
D03*
Y80000D02*
D03*
Y90000D02*
D03*
Y100000D02*
D03*
Y140000D02*
D03*
Y130000D02*
D03*
Y120000D02*
D03*
Y150000D02*
D03*
Y180000D02*
D03*
Y170000D02*
D03*
Y160000D02*
D03*
Y190000D02*
D03*
Y220000D02*
D03*
Y210000D02*
D03*
Y200000D02*
D03*
Y230000D02*
D03*
Y260000D02*
D03*
Y240000D02*
D03*
Y250000D02*
D03*
X260000Y110000D02*
D03*
Y70000D02*
D03*
Y80000D02*
D03*
Y90000D02*
D03*
Y100000D02*
D03*
Y140000D02*
D03*
Y130000D02*
D03*
Y120000D02*
D03*
Y150000D02*
D03*
Y180000D02*
D03*
Y170000D02*
D03*
Y160000D02*
D03*
Y190000D02*
D03*
Y220000D02*
D03*
Y210000D02*
D03*
Y200000D02*
D03*
Y230000D02*
D03*
Y260000D02*
D03*
Y240000D02*
D03*
Y250000D02*
D03*
X250000Y110000D02*
D03*
Y70000D02*
D03*
Y80000D02*
D03*
Y90000D02*
D03*
Y100000D02*
D03*
Y140000D02*
D03*
Y130000D02*
D03*
Y120000D02*
D03*
Y150000D02*
D03*
Y180000D02*
D03*
Y170000D02*
D03*
Y160000D02*
D03*
Y190000D02*
D03*
Y220000D02*
D03*
Y210000D02*
D03*
Y200000D02*
D03*
Y230000D02*
D03*
Y260000D02*
D03*
Y240000D02*
D03*
Y250000D02*
D03*
X240000Y110000D02*
D03*
Y70000D02*
D03*
Y80000D02*
D03*
Y90000D02*
D03*
Y100000D02*
D03*
Y140000D02*
D03*
Y130000D02*
D03*
Y120000D02*
D03*
Y150000D02*
D03*
Y180000D02*
D03*
Y170000D02*
D03*
Y160000D02*
D03*
Y190000D02*
D03*
Y220000D02*
D03*
Y210000D02*
D03*
Y200000D02*
D03*
Y230000D02*
D03*
Y260000D02*
D03*
Y240000D02*
D03*
Y250000D02*
D03*
X230000Y110000D02*
D03*
Y70000D02*
D03*
Y80000D02*
D03*
Y90000D02*
D03*
Y100000D02*
D03*
Y140000D02*
D03*
Y130000D02*
D03*
Y120000D02*
D03*
Y150000D02*
D03*
Y180000D02*
D03*
Y170000D02*
D03*
Y160000D02*
D03*
Y190000D02*
D03*
Y220000D02*
D03*
Y210000D02*
D03*
Y200000D02*
D03*
Y230000D02*
D03*
Y260000D02*
D03*
Y240000D02*
D03*
Y250000D02*
D03*
X180000Y240000D02*
D03*
Y250000D02*
D03*
Y260000D02*
D03*
X190000D02*
D03*
Y250000D02*
D03*
Y240000D02*
D03*
Y230000D02*
D03*
X200000D02*
D03*
Y220000D02*
D03*
Y240000D02*
D03*
Y250000D02*
D03*
Y260000D02*
D03*
X220000Y250000D02*
D03*
Y240000D02*
D03*
Y260000D02*
D03*
X210000D02*
D03*
Y250000D02*
D03*
Y240000D02*
D03*
Y200000D02*
D03*
Y210000D02*
D03*
Y220000D02*
D03*
Y230000D02*
D03*
X220000D02*
D03*
Y200000D02*
D03*
Y210000D02*
D03*
Y220000D02*
D03*
X210000Y160000D02*
D03*
Y170000D02*
D03*
Y180000D02*
D03*
Y190000D02*
D03*
X220000D02*
D03*
Y160000D02*
D03*
Y170000D02*
D03*
Y180000D02*
D03*
X210000Y120000D02*
D03*
Y130000D02*
D03*
Y140000D02*
D03*
Y150000D02*
D03*
X220000D02*
D03*
Y120000D02*
D03*
Y130000D02*
D03*
Y140000D02*
D03*
Y100000D02*
D03*
Y90000D02*
D03*
Y80000D02*
D03*
Y70000D02*
D03*
Y110000D02*
D03*
X210000D02*
D03*
Y100000D02*
D03*
Y90000D02*
D03*
Y80000D02*
D03*
Y70000D02*
D03*
X165000Y115000D02*
D03*
X174000Y106500D02*
D03*
X139500Y161000D02*
D03*
X150000Y276000D02*
D03*
X147500Y294000D02*
D03*
X130000Y242500D02*
D03*
X111500Y259000D02*
D03*
X60685Y55948D02*
D03*
X87148Y39864D02*
D03*
X88363Y32970D02*
D03*
X46531Y41140D02*
D03*
X234000Y290000D02*
D03*
Y270000D02*
D03*
X256000D02*
D03*
Y290000D02*
D03*
X120000Y45000D02*
D03*
X138606Y167397D02*
D03*
X165500Y62000D02*
D03*
X131000Y211500D02*
D03*
Y218000D02*
D03*
X137500Y224500D02*
D03*
Y218000D02*
D03*
X123500Y81000D02*
D03*
X156000Y8000D02*
D03*
X162000D02*
D03*
X117000Y74500D02*
D03*
X130000Y81000D02*
D03*
X110500Y74500D02*
D03*
X130000Y87500D02*
D03*
X123500Y74500D02*
D03*
X212000Y21000D02*
D03*
X182500Y32500D02*
D03*
X175000D02*
D03*
Y40000D02*
D03*
X182500D02*
D03*
X165528Y55370D02*
D03*
X50000Y95000D02*
D03*
X67500Y87500D02*
D03*
X30000Y168000D02*
D03*
Y256000D02*
D03*
Y60000D02*
D03*
Y68000D02*
D03*
Y86000D02*
D03*
Y100000D02*
D03*
Y124000D02*
D03*
Y132000D02*
D03*
Y156000D02*
D03*
Y212000D02*
D03*
Y236000D02*
D03*
X206000Y290000D02*
D03*
Y270000D02*
D03*
X184000D02*
D03*
Y290000D02*
D03*
X79500Y109500D02*
D03*
X81500Y73500D02*
D03*
X93982Y29899D02*
D03*
X91377Y44672D02*
D03*
X30000Y40000D02*
D03*
X93367Y15995D02*
D03*
X77342Y123593D02*
D03*
X74737Y138365D02*
D03*
X72132Y153137D02*
D03*
X89224Y171382D02*
D03*
X86619Y186154D02*
D03*
X84014Y200926D02*
D03*
X81409Y215699D02*
D03*
X162963Y85380D02*
D03*
M02*
