G04*
G04 #@! TF.GenerationSoftware,Altium Limited,Altium Designer,20.1.12 (249)*
G04*
G04 Layer_Color=16711935*
%FSLAX44Y44*%
%MOMM*%
G71*
G04*
G04 #@! TF.SameCoordinates,ADC5D222-85A9-45F4-B70E-F1EBAED22DC9*
G04*
G04*
G04 #@! TF.FilePolarity,Negative*
G04*
G01*
G75*
%ADD32R,2.6500X25.8000*%
%ADD56C,5.2000*%
G04:AMPARAMS|DCode=58|XSize=5.5mm|YSize=5.5mm|CornerRadius=0.4975mm|HoleSize=0mm|Usage=FLASHONLY|Rotation=0.000|XOffset=0mm|YOffset=0mm|HoleType=Round|Shape=RoundedRectangle|*
%AMROUNDEDRECTD58*
21,1,5.5000,4.5050,0,0,0.0*
21,1,4.5050,5.5000,0,0,0.0*
1,1,0.9950,2.2525,-2.2525*
1,1,0.9950,-2.2525,-2.2525*
1,1,0.9950,-2.2525,2.2525*
1,1,0.9950,2.2525,2.2525*
%
%ADD58ROUNDEDRECTD58*%
%ADD59C,1.3000*%
%ADD60C,1.8000*%
%ADD97C,0.2000*%
G04:AMPARAMS|DCode=98|XSize=1.4mm|YSize=1.95mm|CornerRadius=0.375mm|HoleSize=0mm|Usage=FLASHONLY|Rotation=270.000|XOffset=0mm|YOffset=0mm|HoleType=Round|Shape=RoundedRectangle|*
%AMROUNDEDRECTD98*
21,1,1.4000,1.2000,0,0,270.0*
21,1,0.6500,1.9500,0,0,270.0*
1,1,0.7500,-0.6000,-0.3250*
1,1,0.7500,-0.6000,0.3250*
1,1,0.7500,0.6000,0.3250*
1,1,0.7500,0.6000,-0.3250*
%
%ADD98ROUNDEDRECTD98*%
%ADD99C,3.7000*%
G36*
X509500Y0D02*
X295000D01*
Y35000D01*
X285000Y45000D01*
X240000D01*
X210000Y80000D01*
Y186713D01*
X205015Y214985D01*
X190000Y230000D01*
X190000Y300000D01*
X509500D01*
Y0D01*
D02*
G37*
D32*
X12750Y150000D02*
D03*
D56*
X402815Y37046D02*
D03*
X80185Y262954D02*
D03*
D58*
X480500Y271000D02*
D03*
Y29000D02*
D03*
D59*
X154968Y33199D02*
D03*
D60*
X120238Y230161D02*
D03*
D97*
X407481Y275835D02*
Y285832D01*
X404149Y282499D01*
X400817Y285832D01*
Y275835D01*
X397485D02*
Y285832D01*
X392486D01*
X390820Y284165D01*
Y280833D01*
X392486Y279167D01*
X397485D01*
X380823Y284165D02*
X382490Y285832D01*
X385822D01*
X387488Y284165D01*
Y277501D01*
X385822Y275835D01*
X382490D01*
X380823Y277501D01*
X377491Y285832D02*
X374159D01*
X375825D01*
Y275835D01*
X377491D01*
X374159D01*
X362496Y285832D02*
X369160D01*
Y275835D01*
X362496D01*
X369160Y280833D02*
X365828D01*
X359164Y274168D02*
X352499D01*
X349167Y285832D02*
X342502D01*
X345835D01*
Y275835D01*
X334172Y285832D02*
X337504D01*
X339170Y284165D01*
Y277501D01*
X337504Y275835D01*
X334172D01*
X332506Y277501D01*
Y284165D01*
X334172Y285832D01*
X329173Y274168D02*
X322509D01*
X319177Y275835D02*
Y285832D01*
X315844Y282499D01*
X312512Y285832D01*
Y275835D01*
X302515D02*
X309180D01*
X302515Y282499D01*
Y284165D01*
X304181Y285832D01*
X307514D01*
X309180Y284165D01*
X292519Y285832D02*
X299183D01*
Y275835D01*
X292519D01*
X299183Y280833D02*
X295851D01*
D98*
X125250Y269500D02*
D03*
Y253500D02*
D03*
Y285500D02*
D03*
X163750D02*
D03*
Y269500D02*
D03*
Y253500D02*
D03*
D99*
X415811Y180736D02*
D03*
M02*
