M48
;Layer_Color=9474304
;FILE_FORMAT=4:4
METRIC,TZ
;TYPE=PLATED
T1F00S00C0.2000
%
T01
X45000Y5000
X52500
X60000
X67500
X75000
X77000Y37500
Y44000
Y50000
X60000Y47500
Y40500
X55000Y44000
Y60750
X60000Y64000
Y57500
Y70500
Y77000
X55000Y73750
X45000Y77500
X47500Y82500
X52500Y86500
Y93500
X47500Y97500
X37500Y101500
Y108500
X32500Y112500
Y97500
X30000Y82500
X30000Y67500
Y42500
X96500Y32500
X100000Y55000
X105000Y60000
X100000Y90000
X77000Y97500
Y112500
Y127500
Y142500
X72500Y157500
X76500Y162500
X72500Y167500
X77000Y172500
X72000Y176500
Y183500
X77000Y187500
X96500
X96500Y172500
X101500Y168500
Y161500
X96500Y157500
Y142500
Y127500
X120000Y127500
Y112500
X153000
X153000Y120000
X148750Y125000
X153750Y130000
X151250Y145000
X152750Y165000
X147750Y169000
Y176000
X152750Y180000
X153500Y195000
Y201000
X151000Y215000
X172500
X185000Y215000
X200000
X215000
X230000
X245000
X260000
X275000
X290000
Y200000
X275000
X260000
X245000
X230000
X215000
X200000
X185000
Y185000
X200000
X215000
X230000
X245000
X260000
X275000
X290000
Y170000
X275000
X260000
X245000
X230000
X215000
X200000
X185000
Y155000
X200000
X215000
X230000
X245000
X260000
X275000
X290000
Y140000
X275000
X260000
X245000
X230000
X215000
X200000
X185000
Y125000
X200000
X215000
X230000
X245000
X260000
X275000
X290000
Y110000
X275000
X260000
X245000
X230000
X215000
X200000
X185000
Y95000
X200000
X215000
X230000
X245000
X260000
X275000
X290000
Y80000
X275000
X260000
X245000
X230000
X215000
X200000
X185000
Y65000
X200000
X215000
X230000
X245000
X260000
X275000
X290000
Y50000
X275000
X260000
X245000
X230000
X215000
X200000
X185000
Y35000
X200000
X215000
X230000
X245000
X260000
X275000
X290000
Y20000
X275000
X260000
X245000
X230000
X215000
X200000
Y5000
X215000
X230000
X245000
X260000
X275000
X290000
X185000
X172500
X170500Y19000
Y25000
X153500
Y19000
X148500Y5000
X126500
X112500
X148000Y40000
X153000Y45000
Y55000
X153000Y62500
X120000Y162500
X124000Y215000
X170500Y201000
Y195000
X41750Y187500
X35750
X30000
X39750Y171750
X45750Y163500
X43000Y157500
X49250Y150500
X32500Y142500
X37500Y127500
X30000Y160500
X45000Y215000
X305000Y215000
X320000
X335000
X350000
X365000
X380000
X395000
Y200000
X380000
X365000
X350000
X335000
X320000
X305000
Y185000
X320000
X335000
X350000
X365000
X380000
X395000
Y170000
X380000
X365000
X350000
X335000
X320000
X305000
Y155000
X320000
X335000
X350000
X365000
Y140000
X350000
X335000
X320000
X305000
Y125000
X320000
X335000
X350000
X365000
Y110000
X350000
X335000
X320000
X305000
Y95000
X320000
X335000
X350000
X365000
Y80000
X350000
X335000
X320000
X305000
Y65000
X320000
X335000
X350000
X365000
Y50000
X380000
X395000
Y35000
X380000
X365000
X350000
Y50000
X335000
X320000
X305000
Y35000
X320000
X335000
Y20000
X320000
X305000
Y5000
X320000
X335000
X350000
X365000
X380000
X395000
Y20000
X380000
X365000
X350000
M30
