M48
;Layer_Color=9474304
;FILE_FORMAT=4:4
METRIC,TZ
;TYPE=NON_PLATED
T2F00S00C1.0000
T3F00S00C1.1000
T4F00S00C1.6000
T5F00S00C2.6000
T6F00S00C3.5000
%
T02
X420000Y10000
Y25000
Y40000
Y55000
X380000Y87500
Y102500
Y117500
Y132500
X420000Y165000
Y180000
Y195000
Y210000
X600000
Y195000
Y180000
Y165000
Y55000
Y40000
Y25000
Y10000
T03
X137500Y10000
T04
X137500Y210000
T05
X420000Y110000
T06
X600000Y110000
M30
