G04*
G04 #@! TF.GenerationSoftware,Altium Limited,Altium Designer,20.1.12 (249)*
G04*
G04 Layer_Color=32768*
%FSLAX44Y44*%
%MOMM*%
G71*
G04*
G04 #@! TF.SameCoordinates,D2571EE1-FD4D-4DC4-B5C4-F58D1C69BCFF*
G04*
G04*
G04 #@! TF.FilePolarity,Positive*
G04*
G01*
G75*
%ADD33C,0.2500*%
D33*
X420000Y65000D02*
G03*
X420000Y75000I0J5000D01*
G01*
X380000Y75000D02*
G03*
X380000Y65000I0J-5000D01*
G01*
X380000Y155000D02*
G03*
X380000Y145000I0J-5000D01*
G01*
X420000Y145000D02*
G03*
X420000Y155000I0J5000D01*
G01*
X800000Y127500D02*
G03*
X800000Y92500I0J-17500D01*
G01*
X35000Y209250D02*
G03*
X40000Y214250I0J5000D01*
G01*
Y5750D02*
G03*
X35000Y10750I-5000J0D01*
G01*
X29000Y47750D02*
G03*
X29000Y59750I0J6000D01*
G01*
X29000Y165250D02*
G03*
X29000Y177250I0J6000D01*
G01*
X380000Y75000D02*
X420000D01*
X380000Y65000D02*
X420000D01*
X380000Y145000D02*
X420000D01*
X380000Y155000D02*
X420000D01*
X800000Y0D02*
Y92500D01*
Y127500D02*
Y220000D01*
X40000D02*
X800000D01*
X40000Y0D02*
X800000D01*
X40000Y0D02*
X40000Y0D01*
X40000Y0D02*
Y5750D01*
X35000Y10750D02*
X35000D01*
X35000Y10750D02*
X35000Y10750D01*
X0Y10750D02*
X35000D01*
X0D02*
Y47750D01*
X29000D01*
X0Y59750D02*
X29000D01*
X0Y59750D02*
X0Y59750D01*
X0Y59750D02*
Y165250D01*
X29000D01*
X0Y177250D02*
X29000D01*
X-0Y177250D02*
X0Y177250D01*
X-0Y177250D02*
Y209250D01*
X35000D01*
X40000Y214250D02*
Y220000D01*
X40000D01*
M02*
