G04*
G04 #@! TF.GenerationSoftware,Altium Limited,Altium Designer,20.1.12 (249)*
G04*
G04 Layer_Color=8388736*
%FSLAX44Y44*%
%MOMM*%
G71*
G04*
G04 #@! TF.SameCoordinates,D2571EE1-FD4D-4DC4-B5C4-F58D1C69BCFF*
G04*
G04*
G04 #@! TF.FilePolarity,Negative*
G04*
G01*
G75*
%ADD14C,0.2000*%
%ADD15R,22.5000X22.5000*%
%ADD16R,2.6500X20.0000*%
G04:AMPARAMS|DCode=17|XSize=0.45mm|YSize=0.45mm|CornerRadius=0.1375mm|HoleSize=0mm|Usage=FLASHONLY|Rotation=0.000|XOffset=0mm|YOffset=0mm|HoleType=Round|Shape=RoundedRectangle|*
%AMROUNDEDRECTD17*
21,1,0.4500,0.1750,0,0,0.0*
21,1,0.1750,0.4500,0,0,0.0*
1,1,0.2750,0.0875,-0.0875*
1,1,0.2750,-0.0875,-0.0875*
1,1,0.2750,-0.0875,0.0875*
1,1,0.2750,0.0875,0.0875*
%
%ADD17ROUNDEDRECTD17*%
G04:AMPARAMS|DCode=18|XSize=0.9mm|YSize=2.8mm|CornerRadius=0.15mm|HoleSize=0mm|Usage=FLASHONLY|Rotation=90.000|XOffset=0mm|YOffset=0mm|HoleType=Round|Shape=RoundedRectangle|*
%AMROUNDEDRECTD18*
21,1,0.9000,2.5000,0,0,90.0*
21,1,0.6000,2.8000,0,0,90.0*
1,1,0.3000,1.2500,0.3000*
1,1,0.3000,1.2500,-0.3000*
1,1,0.3000,-1.2500,-0.3000*
1,1,0.3000,-1.2500,0.3000*
%
%ADD18ROUNDEDRECTD18*%
G04:AMPARAMS|DCode=19|XSize=0.4mm|YSize=1.35mm|CornerRadius=0.125mm|HoleSize=0mm|Usage=FLASHONLY|Rotation=90.000|XOffset=0mm|YOffset=0mm|HoleType=Round|Shape=RoundedRectangle|*
%AMROUNDEDRECTD19*
21,1,0.4000,1.1000,0,0,90.0*
21,1,0.1500,1.3500,0,0,90.0*
1,1,0.2500,0.5500,0.0750*
1,1,0.2500,0.5500,-0.0750*
1,1,0.2500,-0.5500,-0.0750*
1,1,0.2500,-0.5500,0.0750*
%
%ADD19ROUNDEDRECTD19*%
G04:AMPARAMS|DCode=20|XSize=0.4mm|YSize=1.1mm|CornerRadius=0.125mm|HoleSize=0mm|Usage=FLASHONLY|Rotation=90.000|XOffset=0mm|YOffset=0mm|HoleType=Round|Shape=RoundedRectangle|*
%AMROUNDEDRECTD20*
21,1,0.4000,0.8500,0,0,90.0*
21,1,0.1500,1.1000,0,0,90.0*
1,1,0.2500,0.4250,0.0750*
1,1,0.2500,0.4250,-0.0750*
1,1,0.2500,-0.4250,-0.0750*
1,1,0.2500,-0.4250,0.0750*
%
%ADD20ROUNDEDRECTD20*%
%ADD21C,2.0000*%
%ADD22C,5.1000*%
%ADD23C,1.3000*%
%ADD24C,1.8000*%
%ADD25C,6.5000*%
%ADD26C,1.2000*%
G36*
X420000Y156002D02*
X420994D01*
D01*
X420995D01*
X421125Y155993D01*
X421195Y155979D01*
X421254Y155968D01*
X421347Y155936D01*
X421378Y155926D01*
X423216Y155165D01*
X423216Y155165D01*
X423333Y155107D01*
X423442Y155034D01*
X423541Y154947D01*
X423541Y154947D01*
X424947Y153541D01*
X424947Y153541D01*
X425034Y153442D01*
X425107Y153333D01*
X425165Y153216D01*
X425165Y153216D01*
X425926Y151378D01*
X425968Y151254D01*
X425981Y151190D01*
X425993Y151125D01*
X426002Y150995D01*
Y150995D01*
D01*
Y149005D01*
D01*
Y149005D01*
X425993Y148875D01*
X425980Y148805D01*
X425968Y148746D01*
X425937Y148653D01*
X425926Y148622D01*
X425165Y146784D01*
X425165Y146784D01*
X425107Y146667D01*
X425034Y146558D01*
X424947Y146459D01*
X424947Y146459D01*
X423541Y145053D01*
X423541Y145053D01*
X423442Y144966D01*
X423377Y144923D01*
X423333Y144893D01*
X423216Y144835D01*
X423216Y144835D01*
X421378Y144074D01*
X421254Y144032D01*
X421190Y144019D01*
X421125Y144006D01*
X420994Y143998D01*
X380000D01*
X379005Y143998D01*
D01*
X379005D01*
X378875Y144006D01*
X378797Y144022D01*
X378746Y144032D01*
X378664Y144060D01*
X378622Y144074D01*
X376784Y144835D01*
X376667Y144893D01*
X376558Y144966D01*
X376459Y145052D01*
X375053Y146459D01*
X375052Y146459D01*
X374966Y146558D01*
X374893Y146667D01*
X374835Y146784D01*
X374835Y146784D01*
X374074Y148622D01*
X374032Y148746D01*
X374019Y148810D01*
X374006Y148875D01*
X373998Y149005D01*
Y149005D01*
Y149005D01*
X373998Y150995D01*
X374006Y151125D01*
X374020Y151195D01*
X374032Y151254D01*
X374063Y151347D01*
X374074Y151378D01*
X374835Y153216D01*
X374835Y153216D01*
X374893Y153333D01*
X374966Y153442D01*
X375052Y153541D01*
X375053Y153541D01*
X376459Y154947D01*
X376459D01*
Y154947D01*
X376558Y155034D01*
X376623Y155077D01*
X376667Y155107D01*
X376784Y155165D01*
X376784Y155165D01*
X378622Y155926D01*
X378746Y155968D01*
X378875Y155993D01*
X379005Y156002D01*
X379005D01*
D01*
X380000Y156002D01*
X420000Y156002D01*
X420000Y156002D01*
D02*
G37*
G36*
X800000Y77500D02*
X797442D01*
X792390Y78300D01*
X787524Y79881D01*
X782966Y82204D01*
X778828Y85210D01*
X775210Y88828D01*
X772204Y92966D01*
X769881Y97524D01*
X768300Y102390D01*
X767500Y107442D01*
Y112558D01*
X768300Y117610D01*
X769881Y122476D01*
X772204Y127034D01*
X775210Y131172D01*
X778828Y134790D01*
X782966Y137796D01*
X787524Y140119D01*
X792390Y141700D01*
X797442Y142500D01*
X800000D01*
Y77500D01*
D02*
G37*
G36*
X420000Y76002D02*
X420994Y76002D01*
X420994D01*
X420995D01*
X421125Y75993D01*
X421207Y75977D01*
X421254Y75968D01*
X421315Y75947D01*
X421378Y75926D01*
X423216Y75165D01*
X423216Y75165D01*
X423333Y75107D01*
X423442Y75034D01*
X423541Y74947D01*
X424947Y73541D01*
Y73541D01*
X424947D01*
X425034Y73442D01*
X425077Y73377D01*
X425107Y73333D01*
X425135Y73275D01*
X425165Y73216D01*
X425926Y71378D01*
X425937Y71347D01*
X425968Y71254D01*
X425980Y71196D01*
X425993Y71125D01*
X426002Y70995D01*
Y70995D01*
D01*
Y69005D01*
D01*
Y69005D01*
X425993Y68875D01*
X425981Y68810D01*
X425968Y68746D01*
X425926Y68622D01*
X425165Y66784D01*
X425165Y66784D01*
X425107Y66667D01*
X425034Y66558D01*
X424947Y66459D01*
X424947Y66459D01*
X423541Y65053D01*
X423442Y64966D01*
X423333Y64893D01*
X423216Y64835D01*
X421378Y64074D01*
X421294Y64046D01*
X421254Y64032D01*
X421176Y64017D01*
X421125Y64007D01*
X420995Y63998D01*
X420994D01*
X420994D01*
X420000Y63998D01*
X380000D01*
X379005Y63998D01*
X379005D01*
D01*
X378875Y64007D01*
X378797Y64022D01*
X378746Y64032D01*
X378664Y64060D01*
X378622Y64074D01*
X376784Y64835D01*
X376784Y64835D01*
X376667Y64893D01*
X376558Y64966D01*
X376459Y65053D01*
X376459Y65053D01*
X375052Y66459D01*
Y66459D01*
X375052D01*
X374966Y66558D01*
X374922Y66623D01*
X374893Y66667D01*
X374865Y66725D01*
X374835Y66784D01*
X374074Y68622D01*
X374063Y68653D01*
X374032Y68746D01*
X374020Y68804D01*
X374006Y68875D01*
X373998Y69005D01*
X373998Y70995D01*
Y70995D01*
Y70995D01*
X374006Y71125D01*
X374019Y71190D01*
X374032Y71254D01*
X374074Y71378D01*
X374835Y73216D01*
X374835Y73216D01*
X374893Y73333D01*
X374966Y73442D01*
X375052Y73541D01*
X375053Y73541D01*
X376459Y74947D01*
X376459Y74947D01*
X376558Y75034D01*
X376667Y75107D01*
X376784Y75165D01*
X376784Y75165D01*
X378622Y75926D01*
X378685Y75947D01*
X378746Y75968D01*
X378793Y75977D01*
X378875Y75993D01*
X379005Y76002D01*
X379005D01*
X379005D01*
X379999Y76002D01*
X380000Y76002D01*
X420000Y76002D01*
D02*
G37*
D14*
X48998Y57082D02*
X39002D01*
Y52084D01*
X40668Y50418D01*
X42334D01*
X44000Y52084D01*
Y57082D01*
Y52084D01*
X45666Y50418D01*
X47332D01*
X48998Y52084D01*
Y57082D01*
X39002Y174582D02*
X48998D01*
X45666Y171250D01*
X48998Y167918D01*
X39002D01*
X187502Y203000D02*
X197498D01*
Y198002D01*
X195832Y196336D01*
X192500D01*
X190834Y198002D01*
Y203000D01*
Y199668D02*
X187502Y196336D01*
X197498Y186339D02*
Y193003D01*
X187502D01*
Y186339D01*
X192500Y193003D02*
Y189671D01*
X197498Y183006D02*
X190834D01*
X187502Y179674D01*
X190834Y176342D01*
X197498D01*
X187502Y173010D02*
X189168D01*
Y171343D01*
X187502D01*
Y173010D01*
X195832Y164679D02*
X197498Y163013D01*
Y159681D01*
X195832Y158014D01*
X189168D01*
X187502Y159681D01*
Y163013D01*
X189168Y164679D01*
X195832D01*
X188335Y136135D02*
X198332D01*
X194999Y132803D01*
X198332Y129471D01*
X188335D01*
Y119474D02*
Y126139D01*
X194999Y119474D01*
X196665D01*
X198332Y121140D01*
Y124473D01*
X196665Y126139D01*
X198332Y116142D02*
X188335D01*
Y111144D01*
X190001Y109477D01*
X191667D01*
X193333Y111144D01*
Y116142D01*
Y111144D01*
X194999Y109477D01*
X196665D01*
X198332Y111144D01*
Y116142D01*
X193333Y106145D02*
Y99481D01*
X196665Y102813D02*
X190001D01*
X188335Y96148D02*
X198332D01*
X194999Y92816D01*
X198332Y89484D01*
X188335D01*
X186669Y86152D02*
Y79487D01*
X198332Y76155D02*
Y69490D01*
Y72822D01*
X188335D01*
X198332Y61160D02*
Y64492D01*
X196665Y66158D01*
X190001D01*
X188335Y64492D01*
Y61160D01*
X190001Y59493D01*
X196665D01*
X198332Y61160D01*
X186669Y56161D02*
Y49497D01*
X198332Y39500D02*
Y46164D01*
X188335D01*
Y39500D01*
X193333Y46164D02*
Y42832D01*
D15*
X317500Y110000D02*
D03*
D16*
X12250D02*
D03*
D17*
X69250Y205500D02*
D03*
X63750D02*
D03*
X69250Y199000D02*
D03*
X63750D02*
D03*
X70750Y83500D02*
D03*
X65250D02*
D03*
X70750Y77000D02*
D03*
X65250D02*
D03*
X70750Y70500D02*
D03*
X65250D02*
D03*
X70750Y64000D02*
D03*
X65250D02*
D03*
X70750Y47500D02*
D03*
X65250D02*
D03*
X70750Y40500D02*
D03*
X65250D02*
D03*
X69250Y192500D02*
D03*
X63750D02*
D03*
X65250Y57500D02*
D03*
X70750D02*
D03*
D18*
X92500Y213500D02*
D03*
Y6500D02*
D03*
D19*
X86750Y197500D02*
D03*
Y187500D02*
D03*
Y182500D02*
D03*
Y192500D02*
D03*
Y202500D02*
D03*
Y72500D02*
D03*
Y102500D02*
D03*
Y67500D02*
D03*
Y97500D02*
D03*
Y62500D02*
D03*
Y57500D02*
D03*
Y52500D02*
D03*
Y157500D02*
D03*
Y152500D02*
D03*
Y147500D02*
D03*
Y137500D02*
D03*
Y142500D02*
D03*
Y132500D02*
D03*
Y107500D02*
D03*
Y127500D02*
D03*
Y112500D02*
D03*
Y122500D02*
D03*
Y117500D02*
D03*
Y17500D02*
D03*
Y22500D02*
D03*
Y27500D02*
D03*
Y32500D02*
D03*
Y37500D02*
D03*
Y47500D02*
D03*
Y42500D02*
D03*
Y167500D02*
D03*
Y162500D02*
D03*
Y172500D02*
D03*
Y177500D02*
D03*
D20*
X162000Y100000D02*
D03*
Y105000D02*
D03*
Y180000D02*
D03*
Y95000D02*
D03*
Y110000D02*
D03*
Y120000D02*
D03*
Y140000D02*
D03*
Y115000D02*
D03*
Y125000D02*
D03*
Y130000D02*
D03*
Y135000D02*
D03*
Y145000D02*
D03*
Y195000D02*
D03*
Y190000D02*
D03*
Y155000D02*
D03*
Y200000D02*
D03*
Y185000D02*
D03*
Y150000D02*
D03*
Y160000D02*
D03*
Y20000D02*
D03*
Y40000D02*
D03*
Y170000D02*
D03*
Y55000D02*
D03*
Y35000D02*
D03*
Y25000D02*
D03*
Y30000D02*
D03*
Y45000D02*
D03*
Y50000D02*
D03*
Y70000D02*
D03*
Y60000D02*
D03*
Y65000D02*
D03*
Y175000D02*
D03*
Y165000D02*
D03*
D21*
X780000Y20000D02*
D03*
Y200000D02*
D03*
X185000Y20000D02*
D03*
D22*
X420000Y110000D02*
D03*
D23*
X137500Y10000D02*
D03*
D24*
Y210000D02*
D03*
D25*
X600000Y110000D02*
D03*
D26*
X600000Y10000D02*
D03*
Y25000D02*
D03*
Y40000D02*
D03*
Y55000D02*
D03*
Y165000D02*
D03*
Y180000D02*
D03*
Y195000D02*
D03*
Y210000D02*
D03*
X380000Y87500D02*
D03*
Y102500D02*
D03*
Y117500D02*
D03*
Y132500D02*
D03*
X420000Y210000D02*
D03*
Y195000D02*
D03*
Y180000D02*
D03*
Y165000D02*
D03*
Y55000D02*
D03*
Y40000D02*
D03*
Y25000D02*
D03*
Y10000D02*
D03*
M02*
