G04*
G04 #@! TF.GenerationSoftware,Altium Limited,Altium Designer,20.1.12 (249)*
G04*
G04 Layer_Color=16711935*
%FSLAX44Y44*%
%MOMM*%
G71*
G04*
G04 #@! TF.SameCoordinates,D2571EE1-FD4D-4DC4-B5C4-F58D1C69BCFF*
G04*
G04*
G04 #@! TF.FilePolarity,Negative*
G04*
G01*
G75*
%ADD23C,1.3000*%
%ADD24C,1.8000*%
%ADD25C,6.5000*%
%ADD26C,1.2000*%
%ADD42R,25.1000X22.5000*%
%ADD43R,2.5500X19.8500*%
%ADD44C,0.1000*%
G36*
X420000Y156002D02*
X420994D01*
D01*
X420995D01*
X421125Y155993D01*
X421195Y155979D01*
X421254Y155968D01*
X421347Y155936D01*
X421378Y155926D01*
X423216Y155165D01*
X423216Y155165D01*
X423333Y155107D01*
X423442Y155034D01*
X423541Y154947D01*
X423541Y154947D01*
X424947Y153541D01*
X424947Y153541D01*
X425034Y153442D01*
X425107Y153333D01*
X425165Y153216D01*
X425165Y153216D01*
X425926Y151378D01*
X425968Y151254D01*
X425981Y151190D01*
X425993Y151125D01*
X426002Y150995D01*
Y150995D01*
D01*
Y149005D01*
D01*
Y149005D01*
X425993Y148875D01*
X425980Y148805D01*
X425968Y148746D01*
X425937Y148653D01*
X425926Y148622D01*
X425165Y146784D01*
X425165Y146784D01*
X425107Y146667D01*
X425034Y146558D01*
X424947Y146459D01*
X424947Y146459D01*
X423541Y145053D01*
X423541Y145053D01*
X423442Y144966D01*
X423377Y144923D01*
X423333Y144893D01*
X423216Y144835D01*
X423216Y144835D01*
X421378Y144074D01*
X421254Y144032D01*
X421190Y144019D01*
X421125Y144006D01*
X420994Y143998D01*
X380000D01*
X379005Y143998D01*
D01*
X379005D01*
X378875Y144006D01*
X378797Y144022D01*
X378746Y144032D01*
X378664Y144060D01*
X378622Y144074D01*
X376784Y144835D01*
X376667Y144893D01*
X376558Y144966D01*
X376459Y145052D01*
X375053Y146459D01*
X375052Y146459D01*
X374966Y146558D01*
X374893Y146667D01*
X374835Y146784D01*
X374835Y146784D01*
X374074Y148622D01*
X374032Y148746D01*
X374019Y148810D01*
X374006Y148875D01*
X373998Y149005D01*
Y149005D01*
Y149005D01*
X373998Y150995D01*
X374006Y151125D01*
X374020Y151195D01*
X374032Y151254D01*
X374063Y151347D01*
X374074Y151378D01*
X374835Y153216D01*
X374835Y153216D01*
X374893Y153333D01*
X374966Y153442D01*
X375052Y153541D01*
X375053Y153541D01*
X376459Y154947D01*
X376459D01*
Y154947D01*
X376558Y155034D01*
X376623Y155077D01*
X376667Y155107D01*
X376784Y155165D01*
X376784Y155165D01*
X378622Y155926D01*
X378746Y155968D01*
X378875Y155993D01*
X379005Y156002D01*
X379005D01*
D01*
X380000Y156002D01*
X420000Y156002D01*
X420000Y156002D01*
D02*
G37*
G36*
X800000Y77500D02*
X797442D01*
X792390Y78300D01*
X787524Y79881D01*
X782966Y82204D01*
X778828Y85210D01*
X775210Y88828D01*
X772204Y92966D01*
X769881Y97524D01*
X768300Y102390D01*
X767500Y107442D01*
Y112558D01*
X768300Y117610D01*
X769881Y122476D01*
X772204Y127034D01*
X775210Y131172D01*
X778828Y134790D01*
X782966Y137796D01*
X787524Y140119D01*
X792390Y141700D01*
X797442Y142500D01*
X800000D01*
Y77500D01*
D02*
G37*
G36*
X420000Y76002D02*
X420994Y76002D01*
X420994D01*
X420995D01*
X421125Y75993D01*
X421207Y75977D01*
X421254Y75968D01*
X421315Y75947D01*
X421378Y75926D01*
X423216Y75165D01*
X423216Y75165D01*
X423333Y75107D01*
X423442Y75034D01*
X423541Y74947D01*
X424947Y73541D01*
Y73541D01*
X424947D01*
X425034Y73442D01*
X425077Y73377D01*
X425107Y73333D01*
X425135Y73275D01*
X425165Y73216D01*
X425926Y71378D01*
X425937Y71347D01*
X425968Y71254D01*
X425980Y71196D01*
X425993Y71125D01*
X426002Y70995D01*
Y70995D01*
D01*
Y69005D01*
D01*
Y69005D01*
X425993Y68875D01*
X425981Y68810D01*
X425968Y68746D01*
X425926Y68622D01*
X425165Y66784D01*
X425165Y66784D01*
X425107Y66667D01*
X425034Y66558D01*
X424947Y66459D01*
X424947Y66459D01*
X423541Y65053D01*
X423442Y64966D01*
X423333Y64893D01*
X423216Y64835D01*
X421378Y64074D01*
X421294Y64046D01*
X421254Y64032D01*
X421176Y64017D01*
X421125Y64007D01*
X420995Y63998D01*
X420994D01*
X420994D01*
X420000Y63998D01*
X380000D01*
X379005Y63998D01*
X379005D01*
D01*
X378875Y64007D01*
X378797Y64022D01*
X378746Y64032D01*
X378664Y64060D01*
X378622Y64074D01*
X376784Y64835D01*
X376784Y64835D01*
X376667Y64893D01*
X376558Y64966D01*
X376459Y65053D01*
X376459Y65053D01*
X375052Y66459D01*
Y66459D01*
X375052D01*
X374966Y66558D01*
X374922Y66623D01*
X374893Y66667D01*
X374865Y66725D01*
X374835Y66784D01*
X374074Y68622D01*
X374063Y68653D01*
X374032Y68746D01*
X374020Y68804D01*
X374006Y68875D01*
X373998Y69005D01*
X373998Y70995D01*
Y70995D01*
Y70995D01*
X374006Y71125D01*
X374019Y71190D01*
X374032Y71254D01*
X374074Y71378D01*
X374835Y73216D01*
X374835Y73216D01*
X374893Y73333D01*
X374966Y73442D01*
X375052Y73541D01*
X375053Y73541D01*
X376459Y74947D01*
X376459Y74947D01*
X376558Y75034D01*
X376667Y75107D01*
X376784Y75165D01*
X376784Y75165D01*
X378622Y75926D01*
X378685Y75947D01*
X378746Y75968D01*
X378793Y75977D01*
X378875Y75993D01*
X379005Y76002D01*
X379005D01*
X379005D01*
X379999Y76002D01*
X380000Y76002D01*
X420000Y76002D01*
D02*
G37*
D23*
X137500Y10000D02*
D03*
D24*
Y210000D02*
D03*
D25*
X600000Y110000D02*
D03*
D26*
X600000Y10000D02*
D03*
Y25000D02*
D03*
Y40000D02*
D03*
Y55000D02*
D03*
Y165000D02*
D03*
Y180000D02*
D03*
Y195000D02*
D03*
Y210000D02*
D03*
X380000Y87500D02*
D03*
Y102500D02*
D03*
Y117500D02*
D03*
Y132500D02*
D03*
X420000Y210000D02*
D03*
Y195000D02*
D03*
Y180000D02*
D03*
Y165000D02*
D03*
Y55000D02*
D03*
Y40000D02*
D03*
Y25000D02*
D03*
Y10000D02*
D03*
D42*
X304500Y110000D02*
D03*
D43*
X12750Y110000D02*
D03*
D44*
X420000Y110000D02*
D03*
M02*
