G04*
G04 #@! TF.GenerationSoftware,Altium Limited,Altium Designer,20.1.12 (249)*
G04*
G04 Layer_Physical_Order=3*
G04 Layer_Color=16440176*
%FSLAX44Y44*%
%MOMM*%
G71*
G04*
G04 #@! TF.SameCoordinates,D2571EE1-FD4D-4DC4-B5C4-F58D1C69BCFF*
G04*
G04*
G04 #@! TF.FilePolarity,Positive*
G04*
G01*
G75*
%ADD35C,0.1500*%
%ADD40C,0.4500*%
G36*
X765998Y209000D02*
X760999Y204000D01*
X755999Y209000D01*
X760999Y214000D01*
X765998Y209000D01*
D02*
G37*
G36*
X753998D02*
X748998Y204000D01*
X743998Y209000D01*
X748998Y214000D01*
X753998Y209000D01*
D02*
G37*
G36*
X741999D02*
X736999Y204000D01*
X731999Y209000D01*
X736999Y214000D01*
X741999Y209000D01*
D02*
G37*
G36*
X729998D02*
X724998Y204000D01*
X719998Y209000D01*
X724998Y214000D01*
X729998Y209000D01*
D02*
G37*
G36*
X717999D02*
X712999Y204000D01*
X707999Y209000D01*
X712999Y214000D01*
X717999Y209000D01*
D02*
G37*
G36*
X705999D02*
X700999Y204000D01*
X695999Y209000D01*
X700999Y214000D01*
X705999Y209000D01*
D02*
G37*
G36*
X693999D02*
X688999Y204000D01*
X683999Y209000D01*
X688999Y214000D01*
X693999Y209000D01*
D02*
G37*
G36*
X681999D02*
X676999Y204000D01*
X671999Y209000D01*
X676999Y214000D01*
X681999Y209000D01*
D02*
G37*
G36*
X669999D02*
X664999Y204000D01*
X659999Y209000D01*
X664999Y214000D01*
X669999Y209000D01*
D02*
G37*
G36*
X657999D02*
X652999Y204000D01*
X647999Y209000D01*
X652999Y214000D01*
X657999Y209000D01*
D02*
G37*
G36*
X645999D02*
X640999Y204000D01*
X635999Y209000D01*
X640999Y214000D01*
X645999Y209000D01*
D02*
G37*
G36*
X633999D02*
X628999Y204000D01*
X623999Y209000D01*
X628999Y214000D01*
X633999Y209000D01*
D02*
G37*
G36*
X621999D02*
X616999Y204000D01*
X611999Y209000D01*
X616999Y214000D01*
X621999Y209000D01*
D02*
G37*
G36*
X585999D02*
X580999Y204000D01*
X575999Y209000D01*
X580999Y214000D01*
X585999Y209000D01*
D02*
G37*
G36*
X573999D02*
X568999Y204000D01*
X563999Y209000D01*
X568999Y214000D01*
X573999Y209000D01*
D02*
G37*
G36*
X561999D02*
X556999Y204000D01*
X551999Y209000D01*
X556999Y214000D01*
X561999Y209000D01*
D02*
G37*
G36*
X549999D02*
X544999Y204000D01*
X539999Y209000D01*
X544999Y214000D01*
X549999Y209000D01*
D02*
G37*
G36*
X537999D02*
X532999Y204000D01*
X527999Y209000D01*
X532999Y214000D01*
X537999Y209000D01*
D02*
G37*
G36*
X525999D02*
X520999Y204000D01*
X515999Y209000D01*
X520999Y214000D01*
X525999Y209000D01*
D02*
G37*
G36*
X513999D02*
X508999Y204000D01*
X503999Y209000D01*
X508999Y214000D01*
X513999Y209000D01*
D02*
G37*
G36*
X501999D02*
X496999Y204000D01*
X491999Y209000D01*
X496999Y214000D01*
X501999Y209000D01*
D02*
G37*
G36*
X489999D02*
X484999Y204000D01*
X479999Y209000D01*
X484999Y214000D01*
X489999Y209000D01*
D02*
G37*
G36*
X477999D02*
X472999Y204000D01*
X467999Y209000D01*
X472999Y214000D01*
X477999Y209000D01*
D02*
G37*
G36*
X465999D02*
X460999Y204000D01*
X455999Y209000D01*
X460999Y214000D01*
X465999Y209000D01*
D02*
G37*
G36*
X453999D02*
X448999Y204000D01*
X443999Y209000D01*
X448999Y214000D01*
X453999Y209000D01*
D02*
G37*
G36*
X759998Y203000D02*
X754998Y198000D01*
X749998Y203000D01*
X754998Y208000D01*
X759998Y203000D01*
D02*
G37*
G36*
X747999D02*
X742999Y198000D01*
X737999Y203000D01*
X742999Y208000D01*
X747999Y203000D01*
D02*
G37*
G36*
X735999D02*
X730999Y198000D01*
X725999Y203000D01*
X730999Y208000D01*
X735999Y203000D01*
D02*
G37*
G36*
X723998D02*
X718998Y198000D01*
X713998Y203000D01*
X718998Y208000D01*
X723998Y203000D01*
D02*
G37*
G36*
X711999D02*
X706999Y198000D01*
X701999Y203000D01*
X706999Y208000D01*
X711999Y203000D01*
D02*
G37*
G36*
X699999D02*
X694999Y198000D01*
X689999Y203000D01*
X694999Y208000D01*
X699999Y203000D01*
D02*
G37*
G36*
X687999D02*
X682999Y198000D01*
X677999Y203000D01*
X682999Y208000D01*
X687999Y203000D01*
D02*
G37*
G36*
X675999D02*
X670999Y198000D01*
X665999Y203000D01*
X670999Y208000D01*
X675999Y203000D01*
D02*
G37*
G36*
X663999D02*
X658999Y198000D01*
X653999Y203000D01*
X658999Y208000D01*
X663999Y203000D01*
D02*
G37*
G36*
X651999D02*
X646999Y198000D01*
X641999Y203000D01*
X646999Y208000D01*
X651999Y203000D01*
D02*
G37*
G36*
X639999D02*
X634999Y198000D01*
X629999Y203000D01*
X634999Y208000D01*
X639999Y203000D01*
D02*
G37*
G36*
X627999D02*
X622999Y198000D01*
X617999Y203000D01*
X622999Y208000D01*
X627999Y203000D01*
D02*
G37*
G36*
X579999D02*
X574999Y198000D01*
X569999Y203000D01*
X574999Y208000D01*
X579999Y203000D01*
D02*
G37*
G36*
X567999D02*
X562999Y198000D01*
X557999Y203000D01*
X562999Y208000D01*
X567999Y203000D01*
D02*
G37*
G36*
X555999D02*
X550999Y198000D01*
X545999Y203000D01*
X550999Y208000D01*
X555999Y203000D01*
D02*
G37*
G36*
X543999D02*
X538999Y198000D01*
X533999Y203000D01*
X538999Y208000D01*
X543999Y203000D01*
D02*
G37*
G36*
X531999D02*
X526999Y198000D01*
X521999Y203000D01*
X526999Y208000D01*
X531999Y203000D01*
D02*
G37*
G36*
X519999D02*
X514999Y198000D01*
X509999Y203000D01*
X514999Y208000D01*
X519999Y203000D01*
D02*
G37*
G36*
X507999D02*
X502999Y198000D01*
X497999Y203000D01*
X502999Y208000D01*
X507999Y203000D01*
D02*
G37*
G36*
X495999D02*
X490999Y198000D01*
X485999Y203000D01*
X490999Y208000D01*
X495999Y203000D01*
D02*
G37*
G36*
X483999D02*
X478999Y198000D01*
X473999Y203000D01*
X478999Y208000D01*
X483999Y203000D01*
D02*
G37*
G36*
X471999D02*
X466999Y198000D01*
X461999Y203000D01*
X466999Y208000D01*
X471999Y203000D01*
D02*
G37*
G36*
X459999D02*
X454999Y198000D01*
X449999Y203000D01*
X454999Y208000D01*
X459999Y203000D01*
D02*
G37*
G36*
X447999D02*
X442999Y198000D01*
X437999Y203000D01*
X442999Y208000D01*
X447999Y203000D01*
D02*
G37*
G36*
X408916Y217119D02*
X409619Y216416D01*
X410000Y215497D01*
X410000Y215000D01*
X410000Y162500D01*
X410000Y162500D01*
Y162003D01*
X409619Y161084D01*
X408916Y160381D01*
X407997Y160000D01*
X377500D01*
Y160000D01*
X376765Y159964D01*
X375323Y159677D01*
X373965Y159114D01*
X372742Y158298D01*
X371702Y157258D01*
X370886Y156035D01*
X370323Y154677D01*
X370036Y153235D01*
X370000Y152500D01*
Y67500D01*
X370036Y66765D01*
X370323Y65323D01*
X370886Y63965D01*
X371702Y62742D01*
X372742Y61702D01*
X373965Y60886D01*
X375323Y60323D01*
X376765Y60036D01*
X377500Y60000D01*
X405649D01*
X407500Y59999D01*
D01*
X409326Y59210D01*
X409619Y58916D01*
X410000Y57997D01*
X410000Y57500D01*
X410000Y5000D01*
X410000Y5000D01*
X410000Y4503D01*
X409619Y3584D01*
X408916Y2881D01*
X408115Y2549D01*
X146278D01*
X145292Y4549D01*
X145798Y5209D01*
X146756Y7520D01*
X147082Y10000D01*
X146756Y12480D01*
X145798Y14791D01*
X144276Y16775D01*
X142291Y18298D01*
X139980Y19255D01*
X137500Y19582D01*
X135020Y19255D01*
X132709Y18298D01*
X130725Y16775D01*
X129202Y14791D01*
X128244Y12480D01*
X127918Y10000D01*
X128244Y7520D01*
X129202Y5209D01*
X129708Y4549D01*
X128722Y2549D01*
X42549D01*
X42549Y5750D01*
X42524Y5874D01*
X42537Y6000D01*
X42440Y6975D01*
X42332Y7334D01*
X42259Y7701D01*
X41512Y9503D01*
X41512Y9503D01*
X40960Y10330D01*
X39580Y11710D01*
X38753Y12262D01*
X36951Y13009D01*
X36583Y13082D01*
X36225Y13190D01*
X35250Y13287D01*
X35124Y13274D01*
X35000Y13299D01*
X27500D01*
Y44214D01*
X29250Y45213D01*
X30420Y45329D01*
X30779Y45437D01*
X31146Y45511D01*
X33309Y46406D01*
X34136Y46959D01*
X35791Y48614D01*
X35791Y48614D01*
X36344Y49441D01*
X37239Y51604D01*
X37434Y52579D01*
X37434Y54921D01*
X37239Y55896D01*
X36344Y58059D01*
X35791Y58886D01*
X34136Y60541D01*
X33309Y61094D01*
X31146Y61989D01*
X30779Y62063D01*
X30420Y62171D01*
X29250Y62287D01*
X27500Y63286D01*
Y161714D01*
X29250Y162713D01*
X30420Y162829D01*
X30779Y162937D01*
X31146Y163010D01*
X33309Y163906D01*
X34136Y164459D01*
X35791Y166114D01*
X36344Y166941D01*
X37239Y169104D01*
X37434Y170079D01*
X37434Y172421D01*
X37239Y173396D01*
X36344Y175559D01*
X35791Y176386D01*
X35791Y176386D01*
X34136Y178041D01*
X33309Y178594D01*
X31146Y179489D01*
X30779Y179563D01*
X30420Y179671D01*
X29250Y179787D01*
X27500Y180786D01*
Y206701D01*
X35000D01*
X35124Y206726D01*
X35250Y206713D01*
X36225Y206810D01*
X36584Y206918D01*
X36951Y206991D01*
X38753Y207738D01*
X38753Y207738D01*
X39580Y208290D01*
X40960Y209670D01*
X41512Y210497D01*
X42259Y212299D01*
X42332Y212666D01*
X42440Y213025D01*
X42537Y214000D01*
X42524Y214126D01*
X42549Y214250D01*
Y217451D01*
X125804D01*
X126769Y215451D01*
X125809Y213133D01*
X125396Y210000D01*
X125809Y206867D01*
X127018Y203948D01*
X128941Y201441D01*
X131448Y199518D01*
X134367Y198309D01*
X137500Y197896D01*
X140633Y198309D01*
X143552Y199518D01*
X146059Y201441D01*
X147982Y203948D01*
X149191Y206867D01*
X149604Y210000D01*
X149191Y213133D01*
X148231Y215451D01*
X149196Y217451D01*
X408115D01*
X408916Y217119D01*
D02*
G37*
G36*
X753998Y197000D02*
X748998Y192000D01*
X743998Y197000D01*
X748998Y202000D01*
X753998Y197000D01*
D02*
G37*
G36*
X741999D02*
X736999Y192000D01*
X731999Y197000D01*
X736999Y202000D01*
X741999Y197000D01*
D02*
G37*
G36*
X729998D02*
X724998Y192000D01*
X719998Y197000D01*
X724998Y202000D01*
X729998Y197000D01*
D02*
G37*
G36*
X717999D02*
X712999Y192000D01*
X707999Y197000D01*
X712999Y202000D01*
X717999Y197000D01*
D02*
G37*
G36*
X705999D02*
X700999Y192000D01*
X695999Y197000D01*
X700999Y202000D01*
X705999Y197000D01*
D02*
G37*
G36*
X693999D02*
X688999Y192000D01*
X683999Y197000D01*
X688999Y202000D01*
X693999Y197000D01*
D02*
G37*
G36*
X681999D02*
X676999Y192000D01*
X671999Y197000D01*
X676999Y202000D01*
X681999Y197000D01*
D02*
G37*
G36*
X669999D02*
X664999Y192000D01*
X659999Y197000D01*
X664999Y202000D01*
X669999Y197000D01*
D02*
G37*
G36*
X657999D02*
X652999Y192000D01*
X647999Y197000D01*
X652999Y202000D01*
X657999Y197000D01*
D02*
G37*
G36*
X645999D02*
X640999Y192000D01*
X635999Y197000D01*
X640999Y202000D01*
X645999Y197000D01*
D02*
G37*
G36*
X633999D02*
X628999Y192000D01*
X623999Y197000D01*
X628999Y202000D01*
X633999Y197000D01*
D02*
G37*
G36*
X621999D02*
X616999Y192000D01*
X611999Y197000D01*
X616999Y202000D01*
X621999Y197000D01*
D02*
G37*
G36*
X585999D02*
X580999Y192000D01*
X575999Y197000D01*
X580999Y202000D01*
X585999Y197000D01*
D02*
G37*
G36*
X573999D02*
X568999Y192000D01*
X563999Y197000D01*
X568999Y202000D01*
X573999Y197000D01*
D02*
G37*
G36*
X561999D02*
X556999Y192000D01*
X551999Y197000D01*
X556999Y202000D01*
X561999Y197000D01*
D02*
G37*
G36*
X549999D02*
X544999Y192000D01*
X539999Y197000D01*
X544999Y202000D01*
X549999Y197000D01*
D02*
G37*
G36*
X537999D02*
X532999Y192000D01*
X527999Y197000D01*
X532999Y202000D01*
X537999Y197000D01*
D02*
G37*
G36*
X525999D02*
X520999Y192000D01*
X515999Y197000D01*
X520999Y202000D01*
X525999Y197000D01*
D02*
G37*
G36*
X513999D02*
X508999Y192000D01*
X503999Y197000D01*
X508999Y202000D01*
X513999Y197000D01*
D02*
G37*
G36*
X501999D02*
X496999Y192000D01*
X491999Y197000D01*
X496999Y202000D01*
X501999Y197000D01*
D02*
G37*
G36*
X489999D02*
X484999Y192000D01*
X479999Y197000D01*
X484999Y202000D01*
X489999Y197000D01*
D02*
G37*
G36*
X477999D02*
X472999Y192000D01*
X467999Y197000D01*
X472999Y202000D01*
X477999Y197000D01*
D02*
G37*
G36*
X465999D02*
X460999Y192000D01*
X455999Y197000D01*
X460999Y202000D01*
X465999Y197000D01*
D02*
G37*
G36*
X453999D02*
X448999Y192000D01*
X443999Y197000D01*
X448999Y202000D01*
X453999Y197000D01*
D02*
G37*
G36*
X759998Y191000D02*
X754998Y186000D01*
X749998Y191000D01*
X754998Y196000D01*
X759998Y191000D01*
D02*
G37*
G36*
X747999D02*
X742999Y186000D01*
X737999Y191000D01*
X742999Y196000D01*
X747999Y191000D01*
D02*
G37*
G36*
X735999D02*
X730999Y186000D01*
X725999Y191000D01*
X730999Y196000D01*
X735999Y191000D01*
D02*
G37*
G36*
X723998D02*
X718998Y186000D01*
X713998Y191000D01*
X718998Y196000D01*
X723998Y191000D01*
D02*
G37*
G36*
X711999D02*
X706999Y186000D01*
X701999Y191000D01*
X706999Y196000D01*
X711999Y191000D01*
D02*
G37*
G36*
X699999D02*
X694999Y186000D01*
X689999Y191000D01*
X694999Y196000D01*
X699999Y191000D01*
D02*
G37*
G36*
X687999D02*
X682999Y186000D01*
X677999Y191000D01*
X682999Y196000D01*
X687999Y191000D01*
D02*
G37*
G36*
X675999D02*
X670999Y186000D01*
X665999Y191000D01*
X670999Y196000D01*
X675999Y191000D01*
D02*
G37*
G36*
X663999D02*
X658999Y186000D01*
X653999Y191000D01*
X658999Y196000D01*
X663999Y191000D01*
D02*
G37*
G36*
X651999D02*
X646999Y186000D01*
X641999Y191000D01*
X646999Y196000D01*
X651999Y191000D01*
D02*
G37*
G36*
X639999D02*
X634999Y186000D01*
X629999Y191000D01*
X634999Y196000D01*
X639999Y191000D01*
D02*
G37*
G36*
X627999D02*
X622999Y186000D01*
X617999Y191000D01*
X622999Y196000D01*
X627999Y191000D01*
D02*
G37*
G36*
X579999D02*
X574999Y186000D01*
X569999Y191000D01*
X574999Y196000D01*
X579999Y191000D01*
D02*
G37*
G36*
X567999D02*
X562999Y186000D01*
X557999Y191000D01*
X562999Y196000D01*
X567999Y191000D01*
D02*
G37*
G36*
X555999D02*
X550999Y186000D01*
X545999Y191000D01*
X550999Y196000D01*
X555999Y191000D01*
D02*
G37*
G36*
X543999D02*
X538999Y186000D01*
X533999Y191000D01*
X538999Y196000D01*
X543999Y191000D01*
D02*
G37*
G36*
X531999D02*
X526999Y186000D01*
X521999Y191000D01*
X526999Y196000D01*
X531999Y191000D01*
D02*
G37*
G36*
X519999D02*
X514999Y186000D01*
X509999Y191000D01*
X514999Y196000D01*
X519999Y191000D01*
D02*
G37*
G36*
X507999D02*
X502999Y186000D01*
X497999Y191000D01*
X502999Y196000D01*
X507999Y191000D01*
D02*
G37*
G36*
X495999D02*
X490999Y186000D01*
X485999Y191000D01*
X490999Y196000D01*
X495999Y191000D01*
D02*
G37*
G36*
X483999D02*
X478999Y186000D01*
X473999Y191000D01*
X478999Y196000D01*
X483999Y191000D01*
D02*
G37*
G36*
X471999D02*
X466999Y186000D01*
X461999Y191000D01*
X466999Y196000D01*
X471999Y191000D01*
D02*
G37*
G36*
X459999D02*
X454999Y186000D01*
X449999Y191000D01*
X454999Y196000D01*
X459999Y191000D01*
D02*
G37*
G36*
X447999D02*
X442999Y186000D01*
X437999Y191000D01*
X442999Y196000D01*
X447999Y191000D01*
D02*
G37*
G36*
X765998Y185000D02*
X760999Y180000D01*
X755999Y185000D01*
X760999Y190000D01*
X765998Y185000D01*
D02*
G37*
G36*
X753998D02*
X748998Y180000D01*
X743998Y185000D01*
X748998Y190000D01*
X753998Y185000D01*
D02*
G37*
G36*
X741999D02*
X736999Y180000D01*
X731999Y185000D01*
X736999Y190000D01*
X741999Y185000D01*
D02*
G37*
G36*
X729998D02*
X724998Y180000D01*
X719998Y185000D01*
X724998Y190000D01*
X729998Y185000D01*
D02*
G37*
G36*
X717999D02*
X712999Y180000D01*
X707999Y185000D01*
X712999Y190000D01*
X717999Y185000D01*
D02*
G37*
G36*
X705999D02*
X700999Y180000D01*
X695999Y185000D01*
X700999Y190000D01*
X705999Y185000D01*
D02*
G37*
G36*
X693999D02*
X688999Y180000D01*
X683999Y185000D01*
X688999Y190000D01*
X693999Y185000D01*
D02*
G37*
G36*
X681999D02*
X676999Y180000D01*
X671999Y185000D01*
X676999Y190000D01*
X681999Y185000D01*
D02*
G37*
G36*
X669999D02*
X664999Y180000D01*
X659999Y185000D01*
X664999Y190000D01*
X669999Y185000D01*
D02*
G37*
G36*
X657999D02*
X652999Y180000D01*
X647999Y185000D01*
X652999Y190000D01*
X657999Y185000D01*
D02*
G37*
G36*
X645999D02*
X640999Y180000D01*
X635999Y185000D01*
X640999Y190000D01*
X645999Y185000D01*
D02*
G37*
G36*
X633999D02*
X628999Y180000D01*
X623999Y185000D01*
X628999Y190000D01*
X633999Y185000D01*
D02*
G37*
G36*
X621999D02*
X616999Y180000D01*
X611999Y185000D01*
X616999Y190000D01*
X621999Y185000D01*
D02*
G37*
G36*
X585999D02*
X580999Y180000D01*
X575999Y185000D01*
X580999Y190000D01*
X585999Y185000D01*
D02*
G37*
G36*
X573999D02*
X568999Y180000D01*
X563999Y185000D01*
X568999Y190000D01*
X573999Y185000D01*
D02*
G37*
G36*
X561999D02*
X556999Y180000D01*
X551999Y185000D01*
X556999Y190000D01*
X561999Y185000D01*
D02*
G37*
G36*
X549999D02*
X544999Y180000D01*
X539999Y185000D01*
X544999Y190000D01*
X549999Y185000D01*
D02*
G37*
G36*
X537999D02*
X532999Y180000D01*
X527999Y185000D01*
X532999Y190000D01*
X537999Y185000D01*
D02*
G37*
G36*
X525999D02*
X520999Y180000D01*
X515999Y185000D01*
X520999Y190000D01*
X525999Y185000D01*
D02*
G37*
G36*
X513999D02*
X508999Y180000D01*
X503999Y185000D01*
X508999Y190000D01*
X513999Y185000D01*
D02*
G37*
G36*
X501999D02*
X496999Y180000D01*
X491999Y185000D01*
X496999Y190000D01*
X501999Y185000D01*
D02*
G37*
G36*
X489999D02*
X484999Y180000D01*
X479999Y185000D01*
X484999Y190000D01*
X489999Y185000D01*
D02*
G37*
G36*
X477999D02*
X472999Y180000D01*
X467999Y185000D01*
X472999Y190000D01*
X477999Y185000D01*
D02*
G37*
G36*
X465999D02*
X460999Y180000D01*
X455999Y185000D01*
X460999Y190000D01*
X465999Y185000D01*
D02*
G37*
G36*
X453999D02*
X448999Y180000D01*
X443999Y185000D01*
X448999Y190000D01*
X453999Y185000D01*
D02*
G37*
G36*
X795998Y179000D02*
X790998Y174000D01*
X785998Y179000D01*
X790998Y184000D01*
X795998Y179000D01*
D02*
G37*
G36*
X783998D02*
X778998Y174000D01*
X773998Y179000D01*
X778998Y184000D01*
X783998Y179000D01*
D02*
G37*
G36*
X771998D02*
X766998Y174000D01*
X761999Y179000D01*
X766998Y184000D01*
X771998Y179000D01*
D02*
G37*
G36*
X759998D02*
X754998Y174000D01*
X749998Y179000D01*
X754998Y184000D01*
X759998Y179000D01*
D02*
G37*
G36*
X747999D02*
X742999Y174000D01*
X737999Y179000D01*
X742999Y184000D01*
X747999Y179000D01*
D02*
G37*
G36*
X735999D02*
X730999Y174000D01*
X725999Y179000D01*
X730999Y184000D01*
X735999Y179000D01*
D02*
G37*
G36*
X723998D02*
X718998Y174000D01*
X713998Y179000D01*
X718998Y184000D01*
X723998Y179000D01*
D02*
G37*
G36*
X711999D02*
X706999Y174000D01*
X701999Y179000D01*
X706999Y184000D01*
X711999Y179000D01*
D02*
G37*
G36*
X699999D02*
X694999Y174000D01*
X689999Y179000D01*
X694999Y184000D01*
X699999Y179000D01*
D02*
G37*
G36*
X687999D02*
X682999Y174000D01*
X677999Y179000D01*
X682999Y184000D01*
X687999Y179000D01*
D02*
G37*
G36*
X675999D02*
X670999Y174000D01*
X665999Y179000D01*
X670999Y184000D01*
X675999Y179000D01*
D02*
G37*
G36*
X663999D02*
X658999Y174000D01*
X653999Y179000D01*
X658999Y184000D01*
X663999Y179000D01*
D02*
G37*
G36*
X651999D02*
X646999Y174000D01*
X641999Y179000D01*
X646999Y184000D01*
X651999Y179000D01*
D02*
G37*
G36*
X639999D02*
X634999Y174000D01*
X629999Y179000D01*
X634999Y184000D01*
X639999Y179000D01*
D02*
G37*
G36*
X627999D02*
X622999Y174000D01*
X617999Y179000D01*
X622999Y184000D01*
X627999Y179000D01*
D02*
G37*
G36*
X579999D02*
X574999Y174000D01*
X569999Y179000D01*
X574999Y184000D01*
X579999Y179000D01*
D02*
G37*
G36*
X567999D02*
X562999Y174000D01*
X557999Y179000D01*
X562999Y184000D01*
X567999Y179000D01*
D02*
G37*
G36*
X555999D02*
X550999Y174000D01*
X545999Y179000D01*
X550999Y184000D01*
X555999Y179000D01*
D02*
G37*
G36*
X543999D02*
X538999Y174000D01*
X533999Y179000D01*
X538999Y184000D01*
X543999Y179000D01*
D02*
G37*
G36*
X531999D02*
X526999Y174000D01*
X521999Y179000D01*
X526999Y184000D01*
X531999Y179000D01*
D02*
G37*
G36*
X519999D02*
X514999Y174000D01*
X509999Y179000D01*
X514999Y184000D01*
X519999Y179000D01*
D02*
G37*
G36*
X507999D02*
X502999Y174000D01*
X497999Y179000D01*
X502999Y184000D01*
X507999Y179000D01*
D02*
G37*
G36*
X495999D02*
X490999Y174000D01*
X485999Y179000D01*
X490999Y184000D01*
X495999Y179000D01*
D02*
G37*
G36*
X483999D02*
X478999Y174000D01*
X473999Y179000D01*
X478999Y184000D01*
X483999Y179000D01*
D02*
G37*
G36*
X471999D02*
X466999Y174000D01*
X461999Y179000D01*
X466999Y184000D01*
X471999Y179000D01*
D02*
G37*
G36*
X459999D02*
X454999Y174000D01*
X449999Y179000D01*
X454999Y184000D01*
X459999Y179000D01*
D02*
G37*
G36*
X447999D02*
X442999Y174000D01*
X437999Y179000D01*
X442999Y184000D01*
X447999Y179000D01*
D02*
G37*
G36*
X789998Y173000D02*
X784998Y168000D01*
X779998Y173000D01*
X784998Y178000D01*
X789998Y173000D01*
D02*
G37*
G36*
X777998D02*
X772998Y168000D01*
X767998Y173000D01*
X772998Y178000D01*
X777998Y173000D01*
D02*
G37*
G36*
X765998D02*
X760999Y168000D01*
X755999Y173000D01*
X760999Y178000D01*
X765998Y173000D01*
D02*
G37*
G36*
X753998D02*
X748998Y168000D01*
X743998Y173000D01*
X748998Y178000D01*
X753998Y173000D01*
D02*
G37*
G36*
X741999D02*
X736999Y168000D01*
X731999Y173000D01*
X736999Y178000D01*
X741999Y173000D01*
D02*
G37*
G36*
X729998D02*
X724998Y168000D01*
X719998Y173000D01*
X724998Y178000D01*
X729998Y173000D01*
D02*
G37*
G36*
X717999D02*
X712999Y168000D01*
X707999Y173000D01*
X712999Y178000D01*
X717999Y173000D01*
D02*
G37*
G36*
X705999D02*
X700999Y168000D01*
X695999Y173000D01*
X700999Y178000D01*
X705999Y173000D01*
D02*
G37*
G36*
X693999D02*
X688999Y168000D01*
X683999Y173000D01*
X688999Y178000D01*
X693999Y173000D01*
D02*
G37*
G36*
X681999D02*
X676999Y168000D01*
X671999Y173000D01*
X676999Y178000D01*
X681999Y173000D01*
D02*
G37*
G36*
X669999D02*
X664999Y168000D01*
X659999Y173000D01*
X664999Y178000D01*
X669999Y173000D01*
D02*
G37*
G36*
X657999D02*
X652999Y168000D01*
X647999Y173000D01*
X652999Y178000D01*
X657999Y173000D01*
D02*
G37*
G36*
X645999D02*
X640999Y168000D01*
X635999Y173000D01*
X640999Y178000D01*
X645999Y173000D01*
D02*
G37*
G36*
X633999D02*
X628999Y168000D01*
X623999Y173000D01*
X628999Y178000D01*
X633999Y173000D01*
D02*
G37*
G36*
X621999D02*
X616999Y168000D01*
X611999Y173000D01*
X616999Y178000D01*
X621999Y173000D01*
D02*
G37*
G36*
X585999D02*
X580999Y168000D01*
X575999Y173000D01*
X580999Y178000D01*
X585999Y173000D01*
D02*
G37*
G36*
X573999D02*
X568999Y168000D01*
X563999Y173000D01*
X568999Y178000D01*
X573999Y173000D01*
D02*
G37*
G36*
X561999D02*
X556999Y168000D01*
X551999Y173000D01*
X556999Y178000D01*
X561999Y173000D01*
D02*
G37*
G36*
X549999D02*
X544999Y168000D01*
X539999Y173000D01*
X544999Y178000D01*
X549999Y173000D01*
D02*
G37*
G36*
X537999D02*
X532999Y168000D01*
X527999Y173000D01*
X532999Y178000D01*
X537999Y173000D01*
D02*
G37*
G36*
X525999D02*
X520999Y168000D01*
X515999Y173000D01*
X520999Y178000D01*
X525999Y173000D01*
D02*
G37*
G36*
X513999D02*
X508999Y168000D01*
X503999Y173000D01*
X508999Y178000D01*
X513999Y173000D01*
D02*
G37*
G36*
X501999D02*
X496999Y168000D01*
X491999Y173000D01*
X496999Y178000D01*
X501999Y173000D01*
D02*
G37*
G36*
X489999D02*
X484999Y168000D01*
X479999Y173000D01*
X484999Y178000D01*
X489999Y173000D01*
D02*
G37*
G36*
X477999D02*
X472999Y168000D01*
X467999Y173000D01*
X472999Y178000D01*
X477999Y173000D01*
D02*
G37*
G36*
X465999D02*
X460999Y168000D01*
X455999Y173000D01*
X460999Y178000D01*
X465999Y173000D01*
D02*
G37*
G36*
X453999D02*
X448999Y168000D01*
X443999Y173000D01*
X448999Y178000D01*
X453999Y173000D01*
D02*
G37*
G36*
X795998Y167000D02*
X790998Y162000D01*
X785998Y167000D01*
X790998Y172000D01*
X795998Y167000D01*
D02*
G37*
G36*
X783998D02*
X778998Y162000D01*
X773998Y167000D01*
X778998Y172000D01*
X783998Y167000D01*
D02*
G37*
G36*
X771998D02*
X766998Y162000D01*
X761999Y167000D01*
X766998Y172000D01*
X771998Y167000D01*
D02*
G37*
G36*
X759998D02*
X754998Y162000D01*
X749998Y167000D01*
X754998Y172000D01*
X759998Y167000D01*
D02*
G37*
G36*
X747999D02*
X742999Y162000D01*
X737999Y167000D01*
X742999Y172000D01*
X747999Y167000D01*
D02*
G37*
G36*
X735999D02*
X730999Y162000D01*
X725999Y167000D01*
X730999Y172000D01*
X735999Y167000D01*
D02*
G37*
G36*
X723998D02*
X718998Y162000D01*
X713998Y167000D01*
X718998Y172000D01*
X723998Y167000D01*
D02*
G37*
G36*
X711999D02*
X706999Y162000D01*
X701999Y167000D01*
X706999Y172000D01*
X711999Y167000D01*
D02*
G37*
G36*
X699999D02*
X694999Y162000D01*
X689999Y167000D01*
X694999Y172000D01*
X699999Y167000D01*
D02*
G37*
G36*
X687999D02*
X682999Y162000D01*
X677999Y167000D01*
X682999Y172000D01*
X687999Y167000D01*
D02*
G37*
G36*
X675999D02*
X670999Y162000D01*
X665999Y167000D01*
X670999Y172000D01*
X675999Y167000D01*
D02*
G37*
G36*
X663999D02*
X658999Y162000D01*
X653999Y167000D01*
X658999Y172000D01*
X663999Y167000D01*
D02*
G37*
G36*
X651999D02*
X646999Y162000D01*
X641999Y167000D01*
X646999Y172000D01*
X651999Y167000D01*
D02*
G37*
G36*
X639999D02*
X634999Y162000D01*
X629999Y167000D01*
X634999Y172000D01*
X639999Y167000D01*
D02*
G37*
G36*
X627999D02*
X622999Y162000D01*
X617999Y167000D01*
X622999Y172000D01*
X627999Y167000D01*
D02*
G37*
G36*
X579999D02*
X574999Y162000D01*
X569999Y167000D01*
X574999Y172000D01*
X579999Y167000D01*
D02*
G37*
G36*
X567999D02*
X562999Y162000D01*
X557999Y167000D01*
X562999Y172000D01*
X567999Y167000D01*
D02*
G37*
G36*
X555999D02*
X550999Y162000D01*
X545999Y167000D01*
X550999Y172000D01*
X555999Y167000D01*
D02*
G37*
G36*
X543999D02*
X538999Y162000D01*
X533999Y167000D01*
X538999Y172000D01*
X543999Y167000D01*
D02*
G37*
G36*
X531999D02*
X526999Y162000D01*
X521999Y167000D01*
X526999Y172000D01*
X531999Y167000D01*
D02*
G37*
G36*
X519999D02*
X514999Y162000D01*
X509999Y167000D01*
X514999Y172000D01*
X519999Y167000D01*
D02*
G37*
G36*
X507999D02*
X502999Y162000D01*
X497999Y167000D01*
X502999Y172000D01*
X507999Y167000D01*
D02*
G37*
G36*
X495999D02*
X490999Y162000D01*
X485999Y167000D01*
X490999Y172000D01*
X495999Y167000D01*
D02*
G37*
G36*
X483999D02*
X478999Y162000D01*
X473999Y167000D01*
X478999Y172000D01*
X483999Y167000D01*
D02*
G37*
G36*
X471999D02*
X466999Y162000D01*
X461999Y167000D01*
X466999Y172000D01*
X471999Y167000D01*
D02*
G37*
G36*
X459999D02*
X454999Y162000D01*
X449999Y167000D01*
X454999Y172000D01*
X459999Y167000D01*
D02*
G37*
G36*
X447999D02*
X442999Y162000D01*
X437999Y167000D01*
X442999Y172000D01*
X447999Y167000D01*
D02*
G37*
G36*
X789998Y161000D02*
X784998Y156000D01*
X779998Y161000D01*
X784998Y166000D01*
X789998Y161000D01*
D02*
G37*
G36*
X777998D02*
X772998Y156000D01*
X767998Y161000D01*
X772998Y166000D01*
X777998Y161000D01*
D02*
G37*
G36*
X765998D02*
X760999Y156000D01*
X755999Y161000D01*
X760999Y166000D01*
X765998Y161000D01*
D02*
G37*
G36*
X753998D02*
X748998Y156000D01*
X743998Y161000D01*
X748998Y166000D01*
X753998Y161000D01*
D02*
G37*
G36*
X741999D02*
X736999Y156000D01*
X731999Y161000D01*
X736999Y166000D01*
X741999Y161000D01*
D02*
G37*
G36*
X729998D02*
X724998Y156000D01*
X719998Y161000D01*
X724998Y166000D01*
X729998Y161000D01*
D02*
G37*
G36*
X717999D02*
X712999Y156000D01*
X707999Y161000D01*
X712999Y166000D01*
X717999Y161000D01*
D02*
G37*
G36*
X705999D02*
X700999Y156000D01*
X695999Y161000D01*
X700999Y166000D01*
X705999Y161000D01*
D02*
G37*
G36*
X693999D02*
X688999Y156000D01*
X683999Y161000D01*
X688999Y166000D01*
X693999Y161000D01*
D02*
G37*
G36*
X681999D02*
X676999Y156000D01*
X671999Y161000D01*
X676999Y166000D01*
X681999Y161000D01*
D02*
G37*
G36*
X669999D02*
X664999Y156000D01*
X659999Y161000D01*
X664999Y166000D01*
X669999Y161000D01*
D02*
G37*
G36*
X657999D02*
X652999Y156000D01*
X647999Y161000D01*
X652999Y166000D01*
X657999Y161000D01*
D02*
G37*
G36*
X645999D02*
X640999Y156000D01*
X635999Y161000D01*
X640999Y166000D01*
X645999Y161000D01*
D02*
G37*
G36*
X633999D02*
X628999Y156000D01*
X623999Y161000D01*
X628999Y166000D01*
X633999Y161000D01*
D02*
G37*
G36*
X621999D02*
X616999Y156000D01*
X611999Y161000D01*
X616999Y166000D01*
X621999Y161000D01*
D02*
G37*
G36*
X585999D02*
X580999Y156000D01*
X575999Y161000D01*
X580999Y166000D01*
X585999Y161000D01*
D02*
G37*
G36*
X573999D02*
X568999Y156000D01*
X563999Y161000D01*
X568999Y166000D01*
X573999Y161000D01*
D02*
G37*
G36*
X561999D02*
X556999Y156000D01*
X551999Y161000D01*
X556999Y166000D01*
X561999Y161000D01*
D02*
G37*
G36*
X549999D02*
X544999Y156000D01*
X539999Y161000D01*
X544999Y166000D01*
X549999Y161000D01*
D02*
G37*
G36*
X537999D02*
X532999Y156000D01*
X527999Y161000D01*
X532999Y166000D01*
X537999Y161000D01*
D02*
G37*
G36*
X525999D02*
X520999Y156000D01*
X515999Y161000D01*
X520999Y166000D01*
X525999Y161000D01*
D02*
G37*
G36*
X513999D02*
X508999Y156000D01*
X503999Y161000D01*
X508999Y166000D01*
X513999Y161000D01*
D02*
G37*
G36*
X501999D02*
X496999Y156000D01*
X491999Y161000D01*
X496999Y166000D01*
X501999Y161000D01*
D02*
G37*
G36*
X489999D02*
X484999Y156000D01*
X479999Y161000D01*
X484999Y166000D01*
X489999Y161000D01*
D02*
G37*
G36*
X477999D02*
X472999Y156000D01*
X467999Y161000D01*
X472999Y166000D01*
X477999Y161000D01*
D02*
G37*
G36*
X465999D02*
X460999Y156000D01*
X455999Y161000D01*
X460999Y166000D01*
X465999Y161000D01*
D02*
G37*
G36*
X453999D02*
X448999Y156000D01*
X443999Y161000D01*
X448999Y166000D01*
X453999Y161000D01*
D02*
G37*
G36*
X783998Y155000D02*
X778998Y150000D01*
X773998Y155000D01*
X778998Y160000D01*
X783998Y155000D01*
D02*
G37*
G36*
X771998D02*
X766998Y150000D01*
X761999Y155000D01*
X766998Y160000D01*
X771998Y155000D01*
D02*
G37*
G36*
X759998D02*
X754998Y150000D01*
X749998Y155000D01*
X754998Y160000D01*
X759998Y155000D01*
D02*
G37*
G36*
X747999D02*
X742999Y150000D01*
X737999Y155000D01*
X742999Y160000D01*
X747999Y155000D01*
D02*
G37*
G36*
X735999D02*
X730999Y150000D01*
X725999Y155000D01*
X730999Y160000D01*
X735999Y155000D01*
D02*
G37*
G36*
X723998D02*
X718998Y150000D01*
X713998Y155000D01*
X718998Y160000D01*
X723998Y155000D01*
D02*
G37*
G36*
X711999D02*
X706999Y150000D01*
X701999Y155000D01*
X706999Y160000D01*
X711999Y155000D01*
D02*
G37*
G36*
X699999D02*
X694999Y150000D01*
X689999Y155000D01*
X694999Y160000D01*
X699999Y155000D01*
D02*
G37*
G36*
X687999D02*
X682999Y150000D01*
X677999Y155000D01*
X682999Y160000D01*
X687999Y155000D01*
D02*
G37*
G36*
X675999D02*
X670999Y150000D01*
X665999Y155000D01*
X670999Y160000D01*
X675999Y155000D01*
D02*
G37*
G36*
X663999D02*
X658999Y150000D01*
X653999Y155000D01*
X658999Y160000D01*
X663999Y155000D01*
D02*
G37*
G36*
X651999D02*
X646999Y150000D01*
X641999Y155000D01*
X646999Y160000D01*
X651999Y155000D01*
D02*
G37*
G36*
X639999D02*
X634999Y150000D01*
X629999Y155000D01*
X634999Y160000D01*
X639999Y155000D01*
D02*
G37*
G36*
X627999D02*
X622999Y150000D01*
X617999Y155000D01*
X622999Y160000D01*
X627999Y155000D01*
D02*
G37*
G36*
X579999D02*
X574999Y150000D01*
X569999Y155000D01*
X574999Y160000D01*
X579999Y155000D01*
D02*
G37*
G36*
X567999D02*
X562999Y150000D01*
X557999Y155000D01*
X562999Y160000D01*
X567999Y155000D01*
D02*
G37*
G36*
X555999D02*
X550999Y150000D01*
X545999Y155000D01*
X550999Y160000D01*
X555999Y155000D01*
D02*
G37*
G36*
X543999D02*
X538999Y150000D01*
X533999Y155000D01*
X538999Y160000D01*
X543999Y155000D01*
D02*
G37*
G36*
X531999D02*
X526999Y150000D01*
X521999Y155000D01*
X526999Y160000D01*
X531999Y155000D01*
D02*
G37*
G36*
X519999D02*
X514999Y150000D01*
X509999Y155000D01*
X514999Y160000D01*
X519999Y155000D01*
D02*
G37*
G36*
X507999D02*
X502999Y150000D01*
X497999Y155000D01*
X502999Y160000D01*
X507999Y155000D01*
D02*
G37*
G36*
X495999D02*
X490999Y150000D01*
X485999Y155000D01*
X490999Y160000D01*
X495999Y155000D01*
D02*
G37*
G36*
X483999D02*
X478999Y150000D01*
X473999Y155000D01*
X478999Y160000D01*
X483999Y155000D01*
D02*
G37*
G36*
X471999D02*
X466999Y150000D01*
X461999Y155000D01*
X466999Y160000D01*
X471999Y155000D01*
D02*
G37*
G36*
X459999D02*
X454999Y150000D01*
X449999Y155000D01*
X454999Y160000D01*
X459999Y155000D01*
D02*
G37*
G36*
X447999D02*
X442999Y150000D01*
X437999Y155000D01*
X442999Y160000D01*
X447999Y155000D01*
D02*
G37*
G36*
X777998Y149000D02*
X772998Y144000D01*
X767998Y149000D01*
X772998Y154000D01*
X777998Y149000D01*
D02*
G37*
G36*
X765998D02*
X760999Y144000D01*
X755999Y149000D01*
X760999Y154000D01*
X765998Y149000D01*
D02*
G37*
G36*
X753998D02*
X748998Y144000D01*
X743998Y149000D01*
X748998Y154000D01*
X753998Y149000D01*
D02*
G37*
G36*
X741999D02*
X736999Y144000D01*
X731999Y149000D01*
X736999Y154000D01*
X741999Y149000D01*
D02*
G37*
G36*
X729998D02*
X724998Y144000D01*
X719998Y149000D01*
X724998Y154000D01*
X729998Y149000D01*
D02*
G37*
G36*
X717999D02*
X712999Y144000D01*
X707999Y149000D01*
X712999Y154000D01*
X717999Y149000D01*
D02*
G37*
G36*
X705999D02*
X700999Y144000D01*
X695999Y149000D01*
X700999Y154000D01*
X705999Y149000D01*
D02*
G37*
G36*
X693999D02*
X688999Y144000D01*
X683999Y149000D01*
X688999Y154000D01*
X693999Y149000D01*
D02*
G37*
G36*
X681999D02*
X676999Y144000D01*
X671999Y149000D01*
X676999Y154000D01*
X681999Y149000D01*
D02*
G37*
G36*
X669999D02*
X664999Y144000D01*
X659999Y149000D01*
X664999Y154000D01*
X669999Y149000D01*
D02*
G37*
G36*
X657999D02*
X652999Y144000D01*
X647999Y149000D01*
X652999Y154000D01*
X657999Y149000D01*
D02*
G37*
G36*
X645999D02*
X640999Y144000D01*
X635999Y149000D01*
X640999Y154000D01*
X645999Y149000D01*
D02*
G37*
G36*
X633999D02*
X628999Y144000D01*
X623999Y149000D01*
X628999Y154000D01*
X633999Y149000D01*
D02*
G37*
G36*
X621999D02*
X616999Y144000D01*
X611999Y149000D01*
X616999Y154000D01*
X621999Y149000D01*
D02*
G37*
G36*
X585999D02*
X580999Y144000D01*
X575999Y149000D01*
X580999Y154000D01*
X585999Y149000D01*
D02*
G37*
G36*
X573999D02*
X568999Y144000D01*
X563999Y149000D01*
X568999Y154000D01*
X573999Y149000D01*
D02*
G37*
G36*
X561999D02*
X556999Y144000D01*
X551999Y149000D01*
X556999Y154000D01*
X561999Y149000D01*
D02*
G37*
G36*
X549999D02*
X544999Y144000D01*
X539999Y149000D01*
X544999Y154000D01*
X549999Y149000D01*
D02*
G37*
G36*
X537999D02*
X532999Y144000D01*
X527999Y149000D01*
X532999Y154000D01*
X537999Y149000D01*
D02*
G37*
G36*
X525999D02*
X520999Y144000D01*
X515999Y149000D01*
X520999Y154000D01*
X525999Y149000D01*
D02*
G37*
G36*
X513999D02*
X508999Y144000D01*
X503999Y149000D01*
X508999Y154000D01*
X513999Y149000D01*
D02*
G37*
G36*
X501999D02*
X496999Y144000D01*
X491999Y149000D01*
X496999Y154000D01*
X501999Y149000D01*
D02*
G37*
G36*
X489999D02*
X484999Y144000D01*
X479999Y149000D01*
X484999Y154000D01*
X489999Y149000D01*
D02*
G37*
G36*
X477999D02*
X472999Y144000D01*
X467999Y149000D01*
X472999Y154000D01*
X477999Y149000D01*
D02*
G37*
G36*
X465999D02*
X460999Y144000D01*
X455999Y149000D01*
X460999Y154000D01*
X465999Y149000D01*
D02*
G37*
G36*
X453999D02*
X448999Y144000D01*
X443999Y149000D01*
X448999Y154000D01*
X453999Y149000D01*
D02*
G37*
G36*
X771998Y143000D02*
X766998Y138000D01*
X761999Y143000D01*
X766998Y148000D01*
X771998Y143000D01*
D02*
G37*
G36*
X759998D02*
X754998Y138000D01*
X749998Y143000D01*
X754998Y148000D01*
X759998Y143000D01*
D02*
G37*
G36*
X747999D02*
X742999Y138000D01*
X737999Y143000D01*
X742999Y148000D01*
X747999Y143000D01*
D02*
G37*
G36*
X735999D02*
X730999Y138000D01*
X725999Y143000D01*
X730999Y148000D01*
X735999Y143000D01*
D02*
G37*
G36*
X723998D02*
X718998Y138000D01*
X713998Y143000D01*
X718998Y148000D01*
X723998Y143000D01*
D02*
G37*
G36*
X711999D02*
X706999Y138000D01*
X701999Y143000D01*
X706999Y148000D01*
X711999Y143000D01*
D02*
G37*
G36*
X699999D02*
X694999Y138000D01*
X689999Y143000D01*
X694999Y148000D01*
X699999Y143000D01*
D02*
G37*
G36*
X687999D02*
X682999Y138000D01*
X677999Y143000D01*
X682999Y148000D01*
X687999Y143000D01*
D02*
G37*
G36*
X675999D02*
X670999Y138000D01*
X665999Y143000D01*
X670999Y148000D01*
X675999Y143000D01*
D02*
G37*
G36*
X663999D02*
X658999Y138000D01*
X653999Y143000D01*
X658999Y148000D01*
X663999Y143000D01*
D02*
G37*
G36*
X651999D02*
X646999Y138000D01*
X641999Y143000D01*
X646999Y148000D01*
X651999Y143000D01*
D02*
G37*
G36*
X639999D02*
X634999Y138000D01*
X629999Y143000D01*
X634999Y148000D01*
X639999Y143000D01*
D02*
G37*
G36*
X627999D02*
X622999Y138000D01*
X617999Y143000D01*
X622999Y148000D01*
X627999Y143000D01*
D02*
G37*
G36*
X579999D02*
X574999Y138000D01*
X569999Y143000D01*
X574999Y148000D01*
X579999Y143000D01*
D02*
G37*
G36*
X567999D02*
X562999Y138000D01*
X557999Y143000D01*
X562999Y148000D01*
X567999Y143000D01*
D02*
G37*
G36*
X555999D02*
X550999Y138000D01*
X545999Y143000D01*
X550999Y148000D01*
X555999Y143000D01*
D02*
G37*
G36*
X543999D02*
X538999Y138000D01*
X533999Y143000D01*
X538999Y148000D01*
X543999Y143000D01*
D02*
G37*
G36*
X531999D02*
X526999Y138000D01*
X521999Y143000D01*
X526999Y148000D01*
X531999Y143000D01*
D02*
G37*
G36*
X519999D02*
X514999Y138000D01*
X509999Y143000D01*
X514999Y148000D01*
X519999Y143000D01*
D02*
G37*
G36*
X507999D02*
X502999Y138000D01*
X497999Y143000D01*
X502999Y148000D01*
X507999Y143000D01*
D02*
G37*
G36*
X495999D02*
X490999Y138000D01*
X485999Y143000D01*
X490999Y148000D01*
X495999Y143000D01*
D02*
G37*
G36*
X483999D02*
X478999Y138000D01*
X473999Y143000D01*
X478999Y148000D01*
X483999Y143000D01*
D02*
G37*
G36*
X471999D02*
X466999Y138000D01*
X461999Y143000D01*
X466999Y148000D01*
X471999Y143000D01*
D02*
G37*
G36*
X459999D02*
X454999Y138000D01*
X449999Y143000D01*
X454999Y148000D01*
X459999Y143000D01*
D02*
G37*
G36*
X447999D02*
X442999Y138000D01*
X437999Y143000D01*
X442999Y148000D01*
X447999Y143000D01*
D02*
G37*
G36*
X765998Y137000D02*
X760999Y132000D01*
X755999Y137000D01*
X760999Y142000D01*
X765998Y137000D01*
D02*
G37*
G36*
X753998D02*
X748998Y132000D01*
X743998Y137000D01*
X748998Y142000D01*
X753998Y137000D01*
D02*
G37*
G36*
X741999D02*
X736999Y132000D01*
X731999Y137000D01*
X736999Y142000D01*
X741999Y137000D01*
D02*
G37*
G36*
X729998D02*
X724998Y132000D01*
X719998Y137000D01*
X724998Y142000D01*
X729998Y137000D01*
D02*
G37*
G36*
X717999D02*
X712999Y132000D01*
X707999Y137000D01*
X712999Y142000D01*
X717999Y137000D01*
D02*
G37*
G36*
X705999D02*
X700999Y132000D01*
X695999Y137000D01*
X700999Y142000D01*
X705999Y137000D01*
D02*
G37*
G36*
X693999D02*
X688999Y132000D01*
X683999Y137000D01*
X688999Y142000D01*
X693999Y137000D01*
D02*
G37*
G36*
X681999D02*
X676999Y132000D01*
X671999Y137000D01*
X676999Y142000D01*
X681999Y137000D01*
D02*
G37*
G36*
X669999D02*
X664999Y132000D01*
X659999Y137000D01*
X664999Y142000D01*
X669999Y137000D01*
D02*
G37*
G36*
X657999D02*
X652999Y132000D01*
X647999Y137000D01*
X652999Y142000D01*
X657999Y137000D01*
D02*
G37*
G36*
X645999D02*
X640999Y132000D01*
X635999Y137000D01*
X640999Y142000D01*
X645999Y137000D01*
D02*
G37*
G36*
X633999D02*
X628999Y132000D01*
X623999Y137000D01*
X628999Y142000D01*
X633999Y137000D01*
D02*
G37*
G36*
X573999D02*
X568999Y132000D01*
X563999Y137000D01*
X568999Y142000D01*
X573999Y137000D01*
D02*
G37*
G36*
X561999D02*
X556999Y132000D01*
X551999Y137000D01*
X556999Y142000D01*
X561999Y137000D01*
D02*
G37*
G36*
X549999D02*
X544999Y132000D01*
X539999Y137000D01*
X544999Y142000D01*
X549999Y137000D01*
D02*
G37*
G36*
X537999D02*
X532999Y132000D01*
X527999Y137000D01*
X532999Y142000D01*
X537999Y137000D01*
D02*
G37*
G36*
X525999D02*
X520999Y132000D01*
X515999Y137000D01*
X520999Y142000D01*
X525999Y137000D01*
D02*
G37*
G36*
X513999D02*
X508999Y132000D01*
X503999Y137000D01*
X508999Y142000D01*
X513999Y137000D01*
D02*
G37*
G36*
X501999D02*
X496999Y132000D01*
X491999Y137000D01*
X496999Y142000D01*
X501999Y137000D01*
D02*
G37*
G36*
X489999D02*
X484999Y132000D01*
X479999Y137000D01*
X484999Y142000D01*
X489999Y137000D01*
D02*
G37*
G36*
X477999D02*
X472999Y132000D01*
X467999Y137000D01*
X472999Y142000D01*
X477999Y137000D01*
D02*
G37*
G36*
X465999D02*
X460999Y132000D01*
X455999Y137000D01*
X460999Y142000D01*
X465999Y137000D01*
D02*
G37*
G36*
X453999D02*
X448999Y132000D01*
X443999Y137000D01*
X448999Y142000D01*
X453999Y137000D01*
D02*
G37*
G36*
X759998Y131000D02*
X754998Y126000D01*
X749998Y131000D01*
X754998Y136000D01*
X759998Y131000D01*
D02*
G37*
G36*
X747999D02*
X742999Y126000D01*
X737999Y131000D01*
X742999Y136000D01*
X747999Y131000D01*
D02*
G37*
G36*
X735999D02*
X730999Y126000D01*
X725999Y131000D01*
X730999Y136000D01*
X735999Y131000D01*
D02*
G37*
G36*
X723998D02*
X718998Y126000D01*
X713998Y131000D01*
X718998Y136000D01*
X723998Y131000D01*
D02*
G37*
G36*
X711999D02*
X706999Y126000D01*
X701999Y131000D01*
X706999Y136000D01*
X711999Y131000D01*
D02*
G37*
G36*
X699999D02*
X694999Y126000D01*
X689999Y131000D01*
X694999Y136000D01*
X699999Y131000D01*
D02*
G37*
G36*
X687999D02*
X682999Y126000D01*
X677999Y131000D01*
X682999Y136000D01*
X687999Y131000D01*
D02*
G37*
G36*
X675999D02*
X670999Y126000D01*
X665999Y131000D01*
X670999Y136000D01*
X675999Y131000D01*
D02*
G37*
G36*
X663999D02*
X658999Y126000D01*
X653999Y131000D01*
X658999Y136000D01*
X663999Y131000D01*
D02*
G37*
G36*
X651999D02*
X646999Y126000D01*
X641999Y131000D01*
X646999Y136000D01*
X651999Y131000D01*
D02*
G37*
G36*
X639999D02*
X634999Y126000D01*
X629999Y131000D01*
X634999Y136000D01*
X639999Y131000D01*
D02*
G37*
G36*
X567999D02*
X562999Y126000D01*
X557999Y131000D01*
X562999Y136000D01*
X567999Y131000D01*
D02*
G37*
G36*
X555999D02*
X550999Y126000D01*
X545999Y131000D01*
X550999Y136000D01*
X555999Y131000D01*
D02*
G37*
G36*
X543999D02*
X538999Y126000D01*
X533999Y131000D01*
X538999Y136000D01*
X543999Y131000D01*
D02*
G37*
G36*
X531999D02*
X526999Y126000D01*
X521999Y131000D01*
X526999Y136000D01*
X531999Y131000D01*
D02*
G37*
G36*
X519999D02*
X514999Y126000D01*
X509999Y131000D01*
X514999Y136000D01*
X519999Y131000D01*
D02*
G37*
G36*
X507999D02*
X502999Y126000D01*
X497999Y131000D01*
X502999Y136000D01*
X507999Y131000D01*
D02*
G37*
G36*
X495999D02*
X490999Y126000D01*
X485999Y131000D01*
X490999Y136000D01*
X495999Y131000D01*
D02*
G37*
G36*
X483999D02*
X478999Y126000D01*
X473999Y131000D01*
X478999Y136000D01*
X483999Y131000D01*
D02*
G37*
G36*
X471999D02*
X466999Y126000D01*
X461999Y131000D01*
X466999Y136000D01*
X471999Y131000D01*
D02*
G37*
G36*
X459999D02*
X454999Y126000D01*
X449999Y131000D01*
X454999Y136000D01*
X459999Y131000D01*
D02*
G37*
G36*
X765998Y125000D02*
X760999Y120000D01*
X755999Y125000D01*
X760999Y130000D01*
X765998Y125000D01*
D02*
G37*
G36*
X753998D02*
X748998Y120000D01*
X743998Y125000D01*
X748998Y130000D01*
X753998Y125000D01*
D02*
G37*
G36*
X741999D02*
X736999Y120000D01*
X731999Y125000D01*
X736999Y130000D01*
X741999Y125000D01*
D02*
G37*
G36*
X729998D02*
X724998Y120000D01*
X719998Y125000D01*
X724998Y130000D01*
X729998Y125000D01*
D02*
G37*
G36*
X717999D02*
X712999Y120000D01*
X707999Y125000D01*
X712999Y130000D01*
X717999Y125000D01*
D02*
G37*
G36*
X705999D02*
X700999Y120000D01*
X695999Y125000D01*
X700999Y130000D01*
X705999Y125000D01*
D02*
G37*
G36*
X693999D02*
X688999Y120000D01*
X683999Y125000D01*
X688999Y130000D01*
X693999Y125000D01*
D02*
G37*
G36*
X681999D02*
X676999Y120000D01*
X671999Y125000D01*
X676999Y130000D01*
X681999Y125000D01*
D02*
G37*
G36*
X669999D02*
X664999Y120000D01*
X659999Y125000D01*
X664999Y130000D01*
X669999Y125000D01*
D02*
G37*
G36*
X657999D02*
X652999Y120000D01*
X647999Y125000D01*
X652999Y130000D01*
X657999Y125000D01*
D02*
G37*
G36*
X645999D02*
X640999Y120000D01*
X635999Y125000D01*
X640999Y130000D01*
X645999Y125000D01*
D02*
G37*
G36*
X561999D02*
X556999Y120000D01*
X551999Y125000D01*
X556999Y130000D01*
X561999Y125000D01*
D02*
G37*
G36*
X549999D02*
X544999Y120000D01*
X539999Y125000D01*
X544999Y130000D01*
X549999Y125000D01*
D02*
G37*
G36*
X537999D02*
X532999Y120000D01*
X527999Y125000D01*
X532999Y130000D01*
X537999Y125000D01*
D02*
G37*
G36*
X525999D02*
X520999Y120000D01*
X515999Y125000D01*
X520999Y130000D01*
X525999Y125000D01*
D02*
G37*
G36*
X513999D02*
X508999Y120000D01*
X503999Y125000D01*
X508999Y130000D01*
X513999Y125000D01*
D02*
G37*
G36*
X501999D02*
X496999Y120000D01*
X491999Y125000D01*
X496999Y130000D01*
X501999Y125000D01*
D02*
G37*
G36*
X489999D02*
X484999Y120000D01*
X479999Y125000D01*
X484999Y130000D01*
X489999Y125000D01*
D02*
G37*
G36*
X477999D02*
X472999Y120000D01*
X467999Y125000D01*
X472999Y130000D01*
X477999Y125000D01*
D02*
G37*
G36*
X465999D02*
X460999Y120000D01*
X455999Y125000D01*
X460999Y130000D01*
X465999Y125000D01*
D02*
G37*
G36*
X759998Y119000D02*
X754998Y114000D01*
X749998Y119000D01*
X754998Y124000D01*
X759998Y119000D01*
D02*
G37*
G36*
X747999D02*
X742999Y114000D01*
X737999Y119000D01*
X742999Y124000D01*
X747999Y119000D01*
D02*
G37*
G36*
X735999D02*
X730999Y114000D01*
X725999Y119000D01*
X730999Y124000D01*
X735999Y119000D01*
D02*
G37*
G36*
X723998D02*
X718998Y114000D01*
X713998Y119000D01*
X718998Y124000D01*
X723998Y119000D01*
D02*
G37*
G36*
X711999D02*
X706999Y114000D01*
X701999Y119000D01*
X706999Y124000D01*
X711999Y119000D01*
D02*
G37*
G36*
X699999D02*
X694999Y114000D01*
X689999Y119000D01*
X694999Y124000D01*
X699999Y119000D01*
D02*
G37*
G36*
X687999D02*
X682999Y114000D01*
X677999Y119000D01*
X682999Y124000D01*
X687999Y119000D01*
D02*
G37*
G36*
X675999D02*
X670999Y114000D01*
X665999Y119000D01*
X670999Y124000D01*
X675999Y119000D01*
D02*
G37*
G36*
X663999D02*
X658999Y114000D01*
X653999Y119000D01*
X658999Y124000D01*
X663999Y119000D01*
D02*
G37*
G36*
X651999D02*
X646999Y114000D01*
X641999Y119000D01*
X646999Y124000D01*
X651999Y119000D01*
D02*
G37*
G36*
X555999D02*
X550999Y114000D01*
X545999Y119000D01*
X550999Y124000D01*
X555999Y119000D01*
D02*
G37*
G36*
X543999D02*
X538999Y114000D01*
X533999Y119000D01*
X538999Y124000D01*
X543999Y119000D01*
D02*
G37*
G36*
X531999D02*
X526999Y114000D01*
X521999Y119000D01*
X526999Y124000D01*
X531999Y119000D01*
D02*
G37*
G36*
X519999D02*
X514999Y114000D01*
X509999Y119000D01*
X514999Y124000D01*
X519999Y119000D01*
D02*
G37*
G36*
X507999D02*
X502999Y114000D01*
X497999Y119000D01*
X502999Y124000D01*
X507999Y119000D01*
D02*
G37*
G36*
X495999D02*
X490999Y114000D01*
X485999Y119000D01*
X490999Y124000D01*
X495999Y119000D01*
D02*
G37*
G36*
X483999D02*
X478999Y114000D01*
X473999Y119000D01*
X478999Y124000D01*
X483999Y119000D01*
D02*
G37*
G36*
X471999D02*
X466999Y114000D01*
X461999Y119000D01*
X466999Y124000D01*
X471999Y119000D01*
D02*
G37*
G36*
X459999D02*
X454999Y114000D01*
X449999Y119000D01*
X454999Y124000D01*
X459999Y119000D01*
D02*
G37*
G36*
X765998Y113000D02*
X760999Y108000D01*
X755999Y113000D01*
X760999Y118000D01*
X765998Y113000D01*
D02*
G37*
G36*
X753998D02*
X748998Y108000D01*
X743998Y113000D01*
X748998Y118000D01*
X753998Y113000D01*
D02*
G37*
G36*
X741999D02*
X736999Y108000D01*
X731999Y113000D01*
X736999Y118000D01*
X741999Y113000D01*
D02*
G37*
G36*
X729998D02*
X724998Y108000D01*
X719998Y113000D01*
X724998Y118000D01*
X729998Y113000D01*
D02*
G37*
G36*
X717999D02*
X712999Y108000D01*
X707999Y113000D01*
X712999Y118000D01*
X717999Y113000D01*
D02*
G37*
G36*
X705999D02*
X700999Y108000D01*
X695999Y113000D01*
X700999Y118000D01*
X705999Y113000D01*
D02*
G37*
G36*
X693999D02*
X688999Y108000D01*
X683999Y113000D01*
X688999Y118000D01*
X693999Y113000D01*
D02*
G37*
G36*
X681999D02*
X676999Y108000D01*
X671999Y113000D01*
X676999Y118000D01*
X681999Y113000D01*
D02*
G37*
G36*
X669999D02*
X664999Y108000D01*
X659999Y113000D01*
X664999Y118000D01*
X669999Y113000D01*
D02*
G37*
G36*
X657999D02*
X652999Y108000D01*
X647999Y113000D01*
X652999Y118000D01*
X657999Y113000D01*
D02*
G37*
G36*
X645999D02*
X640999Y108000D01*
X635999Y113000D01*
X640999Y118000D01*
X645999Y113000D01*
D02*
G37*
G36*
X561999D02*
X556999Y108000D01*
X551999Y113000D01*
X556999Y118000D01*
X561999Y113000D01*
D02*
G37*
G36*
X549999D02*
X544999Y108000D01*
X539999Y113000D01*
X544999Y118000D01*
X549999Y113000D01*
D02*
G37*
G36*
X537999D02*
X532999Y108000D01*
X527999Y113000D01*
X532999Y118000D01*
X537999Y113000D01*
D02*
G37*
G36*
X525999D02*
X520999Y108000D01*
X515999Y113000D01*
X520999Y118000D01*
X525999Y113000D01*
D02*
G37*
G36*
X513999D02*
X508999Y108000D01*
X503999Y113000D01*
X508999Y118000D01*
X513999Y113000D01*
D02*
G37*
G36*
X501999D02*
X496999Y108000D01*
X491999Y113000D01*
X496999Y118000D01*
X501999Y113000D01*
D02*
G37*
G36*
X489999D02*
X484999Y108000D01*
X479999Y113000D01*
X484999Y118000D01*
X489999Y113000D01*
D02*
G37*
G36*
X477999D02*
X472999Y108000D01*
X467999Y113000D01*
X472999Y118000D01*
X477999Y113000D01*
D02*
G37*
G36*
X465999D02*
X460999Y108000D01*
X455999Y113000D01*
X460999Y118000D01*
X465999Y113000D01*
D02*
G37*
G36*
X759998Y107000D02*
X754998Y102000D01*
X749998Y107000D01*
X754998Y112000D01*
X759998Y107000D01*
D02*
G37*
G36*
X747999D02*
X742999Y102000D01*
X737999Y107000D01*
X742999Y112000D01*
X747999Y107000D01*
D02*
G37*
G36*
X735999D02*
X730999Y102000D01*
X725999Y107000D01*
X730999Y112000D01*
X735999Y107000D01*
D02*
G37*
G36*
X723998D02*
X718998Y102000D01*
X713998Y107000D01*
X718998Y112000D01*
X723998Y107000D01*
D02*
G37*
G36*
X711999D02*
X706999Y102000D01*
X701999Y107000D01*
X706999Y112000D01*
X711999Y107000D01*
D02*
G37*
G36*
X699999D02*
X694999Y102000D01*
X689999Y107000D01*
X694999Y112000D01*
X699999Y107000D01*
D02*
G37*
G36*
X687999D02*
X682999Y102000D01*
X677999Y107000D01*
X682999Y112000D01*
X687999Y107000D01*
D02*
G37*
G36*
X675999D02*
X670999Y102000D01*
X665999Y107000D01*
X670999Y112000D01*
X675999Y107000D01*
D02*
G37*
G36*
X663999D02*
X658999Y102000D01*
X653999Y107000D01*
X658999Y112000D01*
X663999Y107000D01*
D02*
G37*
G36*
X651999D02*
X646999Y102000D01*
X641999Y107000D01*
X646999Y112000D01*
X651999Y107000D01*
D02*
G37*
G36*
X555999D02*
X550999Y102000D01*
X545999Y107000D01*
X550999Y112000D01*
X555999Y107000D01*
D02*
G37*
G36*
X543999D02*
X538999Y102000D01*
X533999Y107000D01*
X538999Y112000D01*
X543999Y107000D01*
D02*
G37*
G36*
X531999D02*
X526999Y102000D01*
X521999Y107000D01*
X526999Y112000D01*
X531999Y107000D01*
D02*
G37*
G36*
X519999D02*
X514999Y102000D01*
X509999Y107000D01*
X514999Y112000D01*
X519999Y107000D01*
D02*
G37*
G36*
X507999D02*
X502999Y102000D01*
X497999Y107000D01*
X502999Y112000D01*
X507999Y107000D01*
D02*
G37*
G36*
X495999D02*
X490999Y102000D01*
X485999Y107000D01*
X490999Y112000D01*
X495999Y107000D01*
D02*
G37*
G36*
X483999D02*
X478999Y102000D01*
X473999Y107000D01*
X478999Y112000D01*
X483999Y107000D01*
D02*
G37*
G36*
X471999D02*
X466999Y102000D01*
X461999Y107000D01*
X466999Y112000D01*
X471999Y107000D01*
D02*
G37*
G36*
X459999D02*
X454999Y102000D01*
X449999Y107000D01*
X454999Y112000D01*
X459999Y107000D01*
D02*
G37*
G36*
X765998Y101000D02*
X760999Y96000D01*
X755999Y101000D01*
X760999Y106000D01*
X765998Y101000D01*
D02*
G37*
G36*
X753998D02*
X748998Y96000D01*
X743998Y101000D01*
X748998Y106000D01*
X753998Y101000D01*
D02*
G37*
G36*
X741999D02*
X736999Y96000D01*
X731999Y101000D01*
X736999Y106000D01*
X741999Y101000D01*
D02*
G37*
G36*
X729998D02*
X724998Y96000D01*
X719998Y101000D01*
X724998Y106000D01*
X729998Y101000D01*
D02*
G37*
G36*
X717999D02*
X712999Y96000D01*
X707999Y101000D01*
X712999Y106000D01*
X717999Y101000D01*
D02*
G37*
G36*
X705999D02*
X700999Y96000D01*
X695999Y101000D01*
X700999Y106000D01*
X705999Y101000D01*
D02*
G37*
G36*
X693999D02*
X688999Y96000D01*
X683999Y101000D01*
X688999Y106000D01*
X693999Y101000D01*
D02*
G37*
G36*
X681999D02*
X676999Y96000D01*
X671999Y101000D01*
X676999Y106000D01*
X681999Y101000D01*
D02*
G37*
G36*
X669999D02*
X664999Y96000D01*
X659999Y101000D01*
X664999Y106000D01*
X669999Y101000D01*
D02*
G37*
G36*
X657999D02*
X652999Y96000D01*
X647999Y101000D01*
X652999Y106000D01*
X657999Y101000D01*
D02*
G37*
G36*
X645999D02*
X640999Y96000D01*
X635999Y101000D01*
X640999Y106000D01*
X645999Y101000D01*
D02*
G37*
G36*
X561999D02*
X556999Y96000D01*
X551999Y101000D01*
X556999Y106000D01*
X561999Y101000D01*
D02*
G37*
G36*
X549999D02*
X544999Y96000D01*
X539999Y101000D01*
X544999Y106000D01*
X549999Y101000D01*
D02*
G37*
G36*
X537999D02*
X532999Y96000D01*
X527999Y101000D01*
X532999Y106000D01*
X537999Y101000D01*
D02*
G37*
G36*
X525999D02*
X520999Y96000D01*
X515999Y101000D01*
X520999Y106000D01*
X525999Y101000D01*
D02*
G37*
G36*
X513999D02*
X508999Y96000D01*
X503999Y101000D01*
X508999Y106000D01*
X513999Y101000D01*
D02*
G37*
G36*
X501999D02*
X496999Y96000D01*
X491999Y101000D01*
X496999Y106000D01*
X501999Y101000D01*
D02*
G37*
G36*
X489999D02*
X484999Y96000D01*
X479999Y101000D01*
X484999Y106000D01*
X489999Y101000D01*
D02*
G37*
G36*
X477999D02*
X472999Y96000D01*
X467999Y101000D01*
X472999Y106000D01*
X477999Y101000D01*
D02*
G37*
G36*
X465999D02*
X460999Y96000D01*
X455999Y101000D01*
X460999Y106000D01*
X465999Y101000D01*
D02*
G37*
G36*
X759998Y95000D02*
X754998Y90000D01*
X749998Y95000D01*
X754998Y100000D01*
X759998Y95000D01*
D02*
G37*
G36*
X747999D02*
X742999Y90000D01*
X737999Y95000D01*
X742999Y100000D01*
X747999Y95000D01*
D02*
G37*
G36*
X735999D02*
X730999Y90000D01*
X725999Y95000D01*
X730999Y100000D01*
X735999Y95000D01*
D02*
G37*
G36*
X723998D02*
X718998Y90000D01*
X713998Y95000D01*
X718998Y100000D01*
X723998Y95000D01*
D02*
G37*
G36*
X711999D02*
X706999Y90000D01*
X701999Y95000D01*
X706999Y100000D01*
X711999Y95000D01*
D02*
G37*
G36*
X699999D02*
X694999Y90000D01*
X689999Y95000D01*
X694999Y100000D01*
X699999Y95000D01*
D02*
G37*
G36*
X687999D02*
X682999Y90000D01*
X677999Y95000D01*
X682999Y100000D01*
X687999Y95000D01*
D02*
G37*
G36*
X675999D02*
X670999Y90000D01*
X665999Y95000D01*
X670999Y100000D01*
X675999Y95000D01*
D02*
G37*
G36*
X663999D02*
X658999Y90000D01*
X653999Y95000D01*
X658999Y100000D01*
X663999Y95000D01*
D02*
G37*
G36*
X651999D02*
X646999Y90000D01*
X641999Y95000D01*
X646999Y100000D01*
X651999Y95000D01*
D02*
G37*
G36*
X555999D02*
X550999Y90000D01*
X545999Y95000D01*
X550999Y100000D01*
X555999Y95000D01*
D02*
G37*
G36*
X543999D02*
X538999Y90000D01*
X533999Y95000D01*
X538999Y100000D01*
X543999Y95000D01*
D02*
G37*
G36*
X531999D02*
X526999Y90000D01*
X521999Y95000D01*
X526999Y100000D01*
X531999Y95000D01*
D02*
G37*
G36*
X519999D02*
X514999Y90000D01*
X509999Y95000D01*
X514999Y100000D01*
X519999Y95000D01*
D02*
G37*
G36*
X507999D02*
X502999Y90000D01*
X497999Y95000D01*
X502999Y100000D01*
X507999Y95000D01*
D02*
G37*
G36*
X495999D02*
X490999Y90000D01*
X485999Y95000D01*
X490999Y100000D01*
X495999Y95000D01*
D02*
G37*
G36*
X483999D02*
X478999Y90000D01*
X473999Y95000D01*
X478999Y100000D01*
X483999Y95000D01*
D02*
G37*
G36*
X471999D02*
X466999Y90000D01*
X461999Y95000D01*
X466999Y100000D01*
X471999Y95000D01*
D02*
G37*
G36*
X459999D02*
X454999Y90000D01*
X449999Y95000D01*
X454999Y100000D01*
X459999Y95000D01*
D02*
G37*
G36*
X765998Y89000D02*
X760999Y84000D01*
X755999Y89000D01*
X760999Y94000D01*
X765998Y89000D01*
D02*
G37*
G36*
X753998D02*
X748998Y84000D01*
X743998Y89000D01*
X748998Y94000D01*
X753998Y89000D01*
D02*
G37*
G36*
X741999D02*
X736999Y84000D01*
X731999Y89000D01*
X736999Y94000D01*
X741999Y89000D01*
D02*
G37*
G36*
X729998D02*
X724998Y84000D01*
X719998Y89000D01*
X724998Y94000D01*
X729998Y89000D01*
D02*
G37*
G36*
X717999D02*
X712999Y84000D01*
X707999Y89000D01*
X712999Y94000D01*
X717999Y89000D01*
D02*
G37*
G36*
X705999D02*
X700999Y84000D01*
X695999Y89000D01*
X700999Y94000D01*
X705999Y89000D01*
D02*
G37*
G36*
X693999D02*
X688999Y84000D01*
X683999Y89000D01*
X688999Y94000D01*
X693999Y89000D01*
D02*
G37*
G36*
X681999D02*
X676999Y84000D01*
X671999Y89000D01*
X676999Y94000D01*
X681999Y89000D01*
D02*
G37*
G36*
X669999D02*
X664999Y84000D01*
X659999Y89000D01*
X664999Y94000D01*
X669999Y89000D01*
D02*
G37*
G36*
X657999D02*
X652999Y84000D01*
X647999Y89000D01*
X652999Y94000D01*
X657999Y89000D01*
D02*
G37*
G36*
X645999D02*
X640999Y84000D01*
X635999Y89000D01*
X640999Y94000D01*
X645999Y89000D01*
D02*
G37*
G36*
X561999D02*
X556999Y84000D01*
X551999Y89000D01*
X556999Y94000D01*
X561999Y89000D01*
D02*
G37*
G36*
X549999D02*
X544999Y84000D01*
X539999Y89000D01*
X544999Y94000D01*
X549999Y89000D01*
D02*
G37*
G36*
X537999D02*
X532999Y84000D01*
X527999Y89000D01*
X532999Y94000D01*
X537999Y89000D01*
D02*
G37*
G36*
X525999D02*
X520999Y84000D01*
X515999Y89000D01*
X520999Y94000D01*
X525999Y89000D01*
D02*
G37*
G36*
X513999D02*
X508999Y84000D01*
X503999Y89000D01*
X508999Y94000D01*
X513999Y89000D01*
D02*
G37*
G36*
X501999D02*
X496999Y84000D01*
X491999Y89000D01*
X496999Y94000D01*
X501999Y89000D01*
D02*
G37*
G36*
X489999D02*
X484999Y84000D01*
X479999Y89000D01*
X484999Y94000D01*
X489999Y89000D01*
D02*
G37*
G36*
X477999D02*
X472999Y84000D01*
X467999Y89000D01*
X472999Y94000D01*
X477999Y89000D01*
D02*
G37*
G36*
X465999D02*
X460999Y84000D01*
X455999Y89000D01*
X460999Y94000D01*
X465999Y89000D01*
D02*
G37*
G36*
X453999D02*
X448999Y84000D01*
X443999Y89000D01*
X448999Y94000D01*
X453999Y89000D01*
D02*
G37*
G36*
X771998Y83000D02*
X766998Y78000D01*
X761999Y83000D01*
X766998Y88000D01*
X771998Y83000D01*
D02*
G37*
G36*
X759998D02*
X754998Y78000D01*
X749998Y83000D01*
X754998Y88000D01*
X759998Y83000D01*
D02*
G37*
G36*
X747999D02*
X742999Y78000D01*
X737999Y83000D01*
X742999Y88000D01*
X747999Y83000D01*
D02*
G37*
G36*
X735999D02*
X730999Y78000D01*
X725999Y83000D01*
X730999Y88000D01*
X735999Y83000D01*
D02*
G37*
G36*
X723998D02*
X718998Y78000D01*
X713998Y83000D01*
X718998Y88000D01*
X723998Y83000D01*
D02*
G37*
G36*
X711999D02*
X706999Y78000D01*
X701999Y83000D01*
X706999Y88000D01*
X711999Y83000D01*
D02*
G37*
G36*
X699999D02*
X694999Y78000D01*
X689999Y83000D01*
X694999Y88000D01*
X699999Y83000D01*
D02*
G37*
G36*
X687999D02*
X682999Y78000D01*
X677999Y83000D01*
X682999Y88000D01*
X687999Y83000D01*
D02*
G37*
G36*
X675999D02*
X670999Y78000D01*
X665999Y83000D01*
X670999Y88000D01*
X675999Y83000D01*
D02*
G37*
G36*
X663999D02*
X658999Y78000D01*
X653999Y83000D01*
X658999Y88000D01*
X663999Y83000D01*
D02*
G37*
G36*
X651999D02*
X646999Y78000D01*
X641999Y83000D01*
X646999Y88000D01*
X651999Y83000D01*
D02*
G37*
G36*
X639999D02*
X634999Y78000D01*
X629999Y83000D01*
X634999Y88000D01*
X639999Y83000D01*
D02*
G37*
G36*
X567999D02*
X562999Y78000D01*
X557999Y83000D01*
X562999Y88000D01*
X567999Y83000D01*
D02*
G37*
G36*
X555999D02*
X550999Y78000D01*
X545999Y83000D01*
X550999Y88000D01*
X555999Y83000D01*
D02*
G37*
G36*
X543999D02*
X538999Y78000D01*
X533999Y83000D01*
X538999Y88000D01*
X543999Y83000D01*
D02*
G37*
G36*
X531999D02*
X526999Y78000D01*
X521999Y83000D01*
X526999Y88000D01*
X531999Y83000D01*
D02*
G37*
G36*
X519999D02*
X514999Y78000D01*
X509999Y83000D01*
X514999Y88000D01*
X519999Y83000D01*
D02*
G37*
G36*
X507999D02*
X502999Y78000D01*
X497999Y83000D01*
X502999Y88000D01*
X507999Y83000D01*
D02*
G37*
G36*
X495999D02*
X490999Y78000D01*
X485999Y83000D01*
X490999Y88000D01*
X495999Y83000D01*
D02*
G37*
G36*
X483999D02*
X478999Y78000D01*
X473999Y83000D01*
X478999Y88000D01*
X483999Y83000D01*
D02*
G37*
G36*
X471999D02*
X466999Y78000D01*
X461999Y83000D01*
X466999Y88000D01*
X471999Y83000D01*
D02*
G37*
G36*
X459999D02*
X454999Y78000D01*
X449999Y83000D01*
X454999Y88000D01*
X459999Y83000D01*
D02*
G37*
G36*
X447999D02*
X442999Y78000D01*
X437999Y83000D01*
X442999Y88000D01*
X447999Y83000D01*
D02*
G37*
G36*
X777998Y77000D02*
X772998Y72000D01*
X767998Y77000D01*
X772998Y82000D01*
X777998Y77000D01*
D02*
G37*
G36*
X765998D02*
X760999Y72000D01*
X755999Y77000D01*
X760999Y82000D01*
X765998Y77000D01*
D02*
G37*
G36*
X753998D02*
X748998Y72000D01*
X743998Y77000D01*
X748998Y82000D01*
X753998Y77000D01*
D02*
G37*
G36*
X741999D02*
X736999Y72000D01*
X731999Y77000D01*
X736999Y82000D01*
X741999Y77000D01*
D02*
G37*
G36*
X729998D02*
X724998Y72000D01*
X719998Y77000D01*
X724998Y82000D01*
X729998Y77000D01*
D02*
G37*
G36*
X717999D02*
X712999Y72000D01*
X707999Y77000D01*
X712999Y82000D01*
X717999Y77000D01*
D02*
G37*
G36*
X705999D02*
X700999Y72000D01*
X695999Y77000D01*
X700999Y82000D01*
X705999Y77000D01*
D02*
G37*
G36*
X693999D02*
X688999Y72000D01*
X683999Y77000D01*
X688999Y82000D01*
X693999Y77000D01*
D02*
G37*
G36*
X681999D02*
X676999Y72000D01*
X671999Y77000D01*
X676999Y82000D01*
X681999Y77000D01*
D02*
G37*
G36*
X669999D02*
X664999Y72000D01*
X659999Y77000D01*
X664999Y82000D01*
X669999Y77000D01*
D02*
G37*
G36*
X657999D02*
X652999Y72000D01*
X647999Y77000D01*
X652999Y82000D01*
X657999Y77000D01*
D02*
G37*
G36*
X645999D02*
X640999Y72000D01*
X635999Y77000D01*
X640999Y82000D01*
X645999Y77000D01*
D02*
G37*
G36*
X633999D02*
X628999Y72000D01*
X623999Y77000D01*
X628999Y82000D01*
X633999Y77000D01*
D02*
G37*
G36*
X573999D02*
X568999Y72000D01*
X563999Y77000D01*
X568999Y82000D01*
X573999Y77000D01*
D02*
G37*
G36*
X561999D02*
X556999Y72000D01*
X551999Y77000D01*
X556999Y82000D01*
X561999Y77000D01*
D02*
G37*
G36*
X549999D02*
X544999Y72000D01*
X539999Y77000D01*
X544999Y82000D01*
X549999Y77000D01*
D02*
G37*
G36*
X537999D02*
X532999Y72000D01*
X527999Y77000D01*
X532999Y82000D01*
X537999Y77000D01*
D02*
G37*
G36*
X525999D02*
X520999Y72000D01*
X515999Y77000D01*
X520999Y82000D01*
X525999Y77000D01*
D02*
G37*
G36*
X513999D02*
X508999Y72000D01*
X503999Y77000D01*
X508999Y82000D01*
X513999Y77000D01*
D02*
G37*
G36*
X501999D02*
X496999Y72000D01*
X491999Y77000D01*
X496999Y82000D01*
X501999Y77000D01*
D02*
G37*
G36*
X489999D02*
X484999Y72000D01*
X479999Y77000D01*
X484999Y82000D01*
X489999Y77000D01*
D02*
G37*
G36*
X477999D02*
X472999Y72000D01*
X467999Y77000D01*
X472999Y82000D01*
X477999Y77000D01*
D02*
G37*
G36*
X465999D02*
X460999Y72000D01*
X455999Y77000D01*
X460999Y82000D01*
X465999Y77000D01*
D02*
G37*
G36*
X453999D02*
X448999Y72000D01*
X443999Y77000D01*
X448999Y82000D01*
X453999Y77000D01*
D02*
G37*
G36*
X783998Y71000D02*
X778998Y66000D01*
X773998Y71000D01*
X778998Y76000D01*
X783998Y71000D01*
D02*
G37*
G36*
X771998D02*
X766998Y66000D01*
X761999Y71000D01*
X766998Y76000D01*
X771998Y71000D01*
D02*
G37*
G36*
X759998D02*
X754998Y66000D01*
X749998Y71000D01*
X754998Y76000D01*
X759998Y71000D01*
D02*
G37*
G36*
X747999D02*
X742999Y66000D01*
X737999Y71000D01*
X742999Y76000D01*
X747999Y71000D01*
D02*
G37*
G36*
X735999D02*
X730999Y66000D01*
X725999Y71000D01*
X730999Y76000D01*
X735999Y71000D01*
D02*
G37*
G36*
X723998D02*
X718998Y66000D01*
X713998Y71000D01*
X718998Y76000D01*
X723998Y71000D01*
D02*
G37*
G36*
X711999D02*
X706999Y66000D01*
X701999Y71000D01*
X706999Y76000D01*
X711999Y71000D01*
D02*
G37*
G36*
X699999D02*
X694999Y66000D01*
X689999Y71000D01*
X694999Y76000D01*
X699999Y71000D01*
D02*
G37*
G36*
X687999D02*
X682999Y66000D01*
X677999Y71000D01*
X682999Y76000D01*
X687999Y71000D01*
D02*
G37*
G36*
X675999D02*
X670999Y66000D01*
X665999Y71000D01*
X670999Y76000D01*
X675999Y71000D01*
D02*
G37*
G36*
X663999D02*
X658999Y66000D01*
X653999Y71000D01*
X658999Y76000D01*
X663999Y71000D01*
D02*
G37*
G36*
X651999D02*
X646999Y66000D01*
X641999Y71000D01*
X646999Y76000D01*
X651999Y71000D01*
D02*
G37*
G36*
X639999D02*
X634999Y66000D01*
X629999Y71000D01*
X634999Y76000D01*
X639999Y71000D01*
D02*
G37*
G36*
X627999D02*
X622999Y66000D01*
X617999Y71000D01*
X622999Y76000D01*
X627999Y71000D01*
D02*
G37*
G36*
X579999D02*
X574999Y66000D01*
X569999Y71000D01*
X574999Y76000D01*
X579999Y71000D01*
D02*
G37*
G36*
X567999D02*
X562999Y66000D01*
X557999Y71000D01*
X562999Y76000D01*
X567999Y71000D01*
D02*
G37*
G36*
X555999D02*
X550999Y66000D01*
X545999Y71000D01*
X550999Y76000D01*
X555999Y71000D01*
D02*
G37*
G36*
X543999D02*
X538999Y66000D01*
X533999Y71000D01*
X538999Y76000D01*
X543999Y71000D01*
D02*
G37*
G36*
X531999D02*
X526999Y66000D01*
X521999Y71000D01*
X526999Y76000D01*
X531999Y71000D01*
D02*
G37*
G36*
X519999D02*
X514999Y66000D01*
X509999Y71000D01*
X514999Y76000D01*
X519999Y71000D01*
D02*
G37*
G36*
X507999D02*
X502999Y66000D01*
X497999Y71000D01*
X502999Y76000D01*
X507999Y71000D01*
D02*
G37*
G36*
X495999D02*
X490999Y66000D01*
X485999Y71000D01*
X490999Y76000D01*
X495999Y71000D01*
D02*
G37*
G36*
X483999D02*
X478999Y66000D01*
X473999Y71000D01*
X478999Y76000D01*
X483999Y71000D01*
D02*
G37*
G36*
X471999D02*
X466999Y66000D01*
X461999Y71000D01*
X466999Y76000D01*
X471999Y71000D01*
D02*
G37*
G36*
X459999D02*
X454999Y66000D01*
X449999Y71000D01*
X454999Y76000D01*
X459999Y71000D01*
D02*
G37*
G36*
X447999D02*
X442999Y66000D01*
X437999Y71000D01*
X442999Y76000D01*
X447999Y71000D01*
D02*
G37*
G36*
X789998Y65000D02*
X784998Y60000D01*
X779998Y65000D01*
X784998Y70000D01*
X789998Y65000D01*
D02*
G37*
G36*
X777998D02*
X772998Y60000D01*
X767998Y65000D01*
X772998Y70000D01*
X777998Y65000D01*
D02*
G37*
G36*
X765998D02*
X760999Y60000D01*
X755999Y65000D01*
X760999Y70000D01*
X765998Y65000D01*
D02*
G37*
G36*
X753998D02*
X748998Y60000D01*
X743998Y65000D01*
X748998Y70000D01*
X753998Y65000D01*
D02*
G37*
G36*
X741999D02*
X736999Y60000D01*
X731999Y65000D01*
X736999Y70000D01*
X741999Y65000D01*
D02*
G37*
G36*
X729998D02*
X724998Y60000D01*
X719998Y65000D01*
X724998Y70000D01*
X729998Y65000D01*
D02*
G37*
G36*
X717999D02*
X712999Y60000D01*
X707999Y65000D01*
X712999Y70000D01*
X717999Y65000D01*
D02*
G37*
G36*
X705999D02*
X700999Y60000D01*
X695999Y65000D01*
X700999Y70000D01*
X705999Y65000D01*
D02*
G37*
G36*
X693999D02*
X688999Y60000D01*
X683999Y65000D01*
X688999Y70000D01*
X693999Y65000D01*
D02*
G37*
G36*
X681999D02*
X676999Y60000D01*
X671999Y65000D01*
X676999Y70000D01*
X681999Y65000D01*
D02*
G37*
G36*
X669999D02*
X664999Y60000D01*
X659999Y65000D01*
X664999Y70000D01*
X669999Y65000D01*
D02*
G37*
G36*
X657999D02*
X652999Y60000D01*
X647999Y65000D01*
X652999Y70000D01*
X657999Y65000D01*
D02*
G37*
G36*
X645999D02*
X640999Y60000D01*
X635999Y65000D01*
X640999Y70000D01*
X645999Y65000D01*
D02*
G37*
G36*
X633999D02*
X628999Y60000D01*
X623999Y65000D01*
X628999Y70000D01*
X633999Y65000D01*
D02*
G37*
G36*
X621999D02*
X616999Y60000D01*
X611999Y65000D01*
X616999Y70000D01*
X621999Y65000D01*
D02*
G37*
G36*
X585999D02*
X580999Y60000D01*
X575999Y65000D01*
X580999Y70000D01*
X585999Y65000D01*
D02*
G37*
G36*
X573999D02*
X568999Y60000D01*
X563999Y65000D01*
X568999Y70000D01*
X573999Y65000D01*
D02*
G37*
G36*
X561999D02*
X556999Y60000D01*
X551999Y65000D01*
X556999Y70000D01*
X561999Y65000D01*
D02*
G37*
G36*
X549999D02*
X544999Y60000D01*
X539999Y65000D01*
X544999Y70000D01*
X549999Y65000D01*
D02*
G37*
G36*
X537999D02*
X532999Y60000D01*
X527999Y65000D01*
X532999Y70000D01*
X537999Y65000D01*
D02*
G37*
G36*
X525999D02*
X520999Y60000D01*
X515999Y65000D01*
X520999Y70000D01*
X525999Y65000D01*
D02*
G37*
G36*
X513999D02*
X508999Y60000D01*
X503999Y65000D01*
X508999Y70000D01*
X513999Y65000D01*
D02*
G37*
G36*
X501999D02*
X496999Y60000D01*
X491999Y65000D01*
X496999Y70000D01*
X501999Y65000D01*
D02*
G37*
G36*
X489999D02*
X484999Y60000D01*
X479999Y65000D01*
X484999Y70000D01*
X489999Y65000D01*
D02*
G37*
G36*
X477999D02*
X472999Y60000D01*
X467999Y65000D01*
X472999Y70000D01*
X477999Y65000D01*
D02*
G37*
G36*
X465999D02*
X460999Y60000D01*
X455999Y65000D01*
X460999Y70000D01*
X465999Y65000D01*
D02*
G37*
G36*
X453999D02*
X448999Y60000D01*
X443999Y65000D01*
X448999Y70000D01*
X453999Y65000D01*
D02*
G37*
G36*
X783998Y59000D02*
X778998Y54000D01*
X773998Y59000D01*
X778998Y64000D01*
X783998Y59000D01*
D02*
G37*
G36*
X771998D02*
X766998Y54000D01*
X761999Y59000D01*
X766998Y64000D01*
X771998Y59000D01*
D02*
G37*
G36*
X759998D02*
X754998Y54000D01*
X749998Y59000D01*
X754998Y64000D01*
X759998Y59000D01*
D02*
G37*
G36*
X747999D02*
X742999Y54000D01*
X737999Y59000D01*
X742999Y64000D01*
X747999Y59000D01*
D02*
G37*
G36*
X735999D02*
X730999Y54000D01*
X725999Y59000D01*
X730999Y64000D01*
X735999Y59000D01*
D02*
G37*
G36*
X723998D02*
X718998Y54000D01*
X713998Y59000D01*
X718998Y64000D01*
X723998Y59000D01*
D02*
G37*
G36*
X711999D02*
X706999Y54000D01*
X701999Y59000D01*
X706999Y64000D01*
X711999Y59000D01*
D02*
G37*
G36*
X699999D02*
X694999Y54000D01*
X689999Y59000D01*
X694999Y64000D01*
X699999Y59000D01*
D02*
G37*
G36*
X687999D02*
X682999Y54000D01*
X677999Y59000D01*
X682999Y64000D01*
X687999Y59000D01*
D02*
G37*
G36*
X675999D02*
X670999Y54000D01*
X665999Y59000D01*
X670999Y64000D01*
X675999Y59000D01*
D02*
G37*
G36*
X663999D02*
X658999Y54000D01*
X653999Y59000D01*
X658999Y64000D01*
X663999Y59000D01*
D02*
G37*
G36*
X651999D02*
X646999Y54000D01*
X641999Y59000D01*
X646999Y64000D01*
X651999Y59000D01*
D02*
G37*
G36*
X639999D02*
X634999Y54000D01*
X629999Y59000D01*
X634999Y64000D01*
X639999Y59000D01*
D02*
G37*
G36*
X627999D02*
X622999Y54000D01*
X617999Y59000D01*
X622999Y64000D01*
X627999Y59000D01*
D02*
G37*
G36*
X579999D02*
X574999Y54000D01*
X569999Y59000D01*
X574999Y64000D01*
X579999Y59000D01*
D02*
G37*
G36*
X567999D02*
X562999Y54000D01*
X557999Y59000D01*
X562999Y64000D01*
X567999Y59000D01*
D02*
G37*
G36*
X555999D02*
X550999Y54000D01*
X545999Y59000D01*
X550999Y64000D01*
X555999Y59000D01*
D02*
G37*
G36*
X543999D02*
X538999Y54000D01*
X533999Y59000D01*
X538999Y64000D01*
X543999Y59000D01*
D02*
G37*
G36*
X531999D02*
X526999Y54000D01*
X521999Y59000D01*
X526999Y64000D01*
X531999Y59000D01*
D02*
G37*
G36*
X519999D02*
X514999Y54000D01*
X509999Y59000D01*
X514999Y64000D01*
X519999Y59000D01*
D02*
G37*
G36*
X507999D02*
X502999Y54000D01*
X497999Y59000D01*
X502999Y64000D01*
X507999Y59000D01*
D02*
G37*
G36*
X495999D02*
X490999Y54000D01*
X485999Y59000D01*
X490999Y64000D01*
X495999Y59000D01*
D02*
G37*
G36*
X483999D02*
X478999Y54000D01*
X473999Y59000D01*
X478999Y64000D01*
X483999Y59000D01*
D02*
G37*
G36*
X471999D02*
X466999Y54000D01*
X461999Y59000D01*
X466999Y64000D01*
X471999Y59000D01*
D02*
G37*
G36*
X459999D02*
X454999Y54000D01*
X449999Y59000D01*
X454999Y64000D01*
X459999Y59000D01*
D02*
G37*
G36*
X447999D02*
X442999Y54000D01*
X437999Y59000D01*
X442999Y64000D01*
X447999Y59000D01*
D02*
G37*
G36*
X777998Y53000D02*
X772998Y48000D01*
X767998Y53000D01*
X772998Y58000D01*
X777998Y53000D01*
D02*
G37*
G36*
X765998D02*
X760999Y48000D01*
X755999Y53000D01*
X760999Y58000D01*
X765998Y53000D01*
D02*
G37*
G36*
X753998D02*
X748998Y48000D01*
X743998Y53000D01*
X748998Y58000D01*
X753998Y53000D01*
D02*
G37*
G36*
X741999D02*
X736999Y48000D01*
X731999Y53000D01*
X736999Y58000D01*
X741999Y53000D01*
D02*
G37*
G36*
X729998D02*
X724998Y48000D01*
X719998Y53000D01*
X724998Y58000D01*
X729998Y53000D01*
D02*
G37*
G36*
X717999D02*
X712999Y48000D01*
X707999Y53000D01*
X712999Y58000D01*
X717999Y53000D01*
D02*
G37*
G36*
X705999D02*
X700999Y48000D01*
X695999Y53000D01*
X700999Y58000D01*
X705999Y53000D01*
D02*
G37*
G36*
X693999D02*
X688999Y48000D01*
X683999Y53000D01*
X688999Y58000D01*
X693999Y53000D01*
D02*
G37*
G36*
X681999D02*
X676999Y48000D01*
X671999Y53000D01*
X676999Y58000D01*
X681999Y53000D01*
D02*
G37*
G36*
X669999D02*
X664999Y48000D01*
X659999Y53000D01*
X664999Y58000D01*
X669999Y53000D01*
D02*
G37*
G36*
X657999D02*
X652999Y48000D01*
X647999Y53000D01*
X652999Y58000D01*
X657999Y53000D01*
D02*
G37*
G36*
X645999D02*
X640999Y48000D01*
X635999Y53000D01*
X640999Y58000D01*
X645999Y53000D01*
D02*
G37*
G36*
X633999D02*
X628999Y48000D01*
X623999Y53000D01*
X628999Y58000D01*
X633999Y53000D01*
D02*
G37*
G36*
X621999D02*
X616999Y48000D01*
X611999Y53000D01*
X616999Y58000D01*
X621999Y53000D01*
D02*
G37*
G36*
X585999D02*
X580999Y48000D01*
X575999Y53000D01*
X580999Y58000D01*
X585999Y53000D01*
D02*
G37*
G36*
X573999D02*
X568999Y48000D01*
X563999Y53000D01*
X568999Y58000D01*
X573999Y53000D01*
D02*
G37*
G36*
X561999D02*
X556999Y48000D01*
X551999Y53000D01*
X556999Y58000D01*
X561999Y53000D01*
D02*
G37*
G36*
X549999D02*
X544999Y48000D01*
X539999Y53000D01*
X544999Y58000D01*
X549999Y53000D01*
D02*
G37*
G36*
X537999D02*
X532999Y48000D01*
X527999Y53000D01*
X532999Y58000D01*
X537999Y53000D01*
D02*
G37*
G36*
X525999D02*
X520999Y48000D01*
X515999Y53000D01*
X520999Y58000D01*
X525999Y53000D01*
D02*
G37*
G36*
X513999D02*
X508999Y48000D01*
X503999Y53000D01*
X508999Y58000D01*
X513999Y53000D01*
D02*
G37*
G36*
X501999D02*
X496999Y48000D01*
X491999Y53000D01*
X496999Y58000D01*
X501999Y53000D01*
D02*
G37*
G36*
X489999D02*
X484999Y48000D01*
X479999Y53000D01*
X484999Y58000D01*
X489999Y53000D01*
D02*
G37*
G36*
X477999D02*
X472999Y48000D01*
X467999Y53000D01*
X472999Y58000D01*
X477999Y53000D01*
D02*
G37*
G36*
X465999D02*
X460999Y48000D01*
X455999Y53000D01*
X460999Y58000D01*
X465999Y53000D01*
D02*
G37*
G36*
X453999D02*
X448999Y48000D01*
X443999Y53000D01*
X448999Y58000D01*
X453999Y53000D01*
D02*
G37*
G36*
X783998Y47000D02*
X778998Y42000D01*
X773998Y47000D01*
X778998Y52000D01*
X783998Y47000D01*
D02*
G37*
G36*
X771998D02*
X766998Y42000D01*
X761999Y47000D01*
X766998Y52000D01*
X771998Y47000D01*
D02*
G37*
G36*
X759998D02*
X754998Y42000D01*
X749998Y47000D01*
X754998Y52000D01*
X759998Y47000D01*
D02*
G37*
G36*
X747999D02*
X742999Y42000D01*
X737999Y47000D01*
X742999Y52000D01*
X747999Y47000D01*
D02*
G37*
G36*
X735999D02*
X730999Y42000D01*
X725999Y47000D01*
X730999Y52000D01*
X735999Y47000D01*
D02*
G37*
G36*
X723998D02*
X718998Y42000D01*
X713998Y47000D01*
X718998Y52000D01*
X723998Y47000D01*
D02*
G37*
G36*
X711999D02*
X706999Y42000D01*
X701999Y47000D01*
X706999Y52000D01*
X711999Y47000D01*
D02*
G37*
G36*
X699999D02*
X694999Y42000D01*
X689999Y47000D01*
X694999Y52000D01*
X699999Y47000D01*
D02*
G37*
G36*
X687999D02*
X682999Y42000D01*
X677999Y47000D01*
X682999Y52000D01*
X687999Y47000D01*
D02*
G37*
G36*
X675999D02*
X670999Y42000D01*
X665999Y47000D01*
X670999Y52000D01*
X675999Y47000D01*
D02*
G37*
G36*
X663999D02*
X658999Y42000D01*
X653999Y47000D01*
X658999Y52000D01*
X663999Y47000D01*
D02*
G37*
G36*
X651999D02*
X646999Y42000D01*
X641999Y47000D01*
X646999Y52000D01*
X651999Y47000D01*
D02*
G37*
G36*
X639999D02*
X634999Y42000D01*
X629999Y47000D01*
X634999Y52000D01*
X639999Y47000D01*
D02*
G37*
G36*
X627999D02*
X622999Y42000D01*
X617999Y47000D01*
X622999Y52000D01*
X627999Y47000D01*
D02*
G37*
G36*
X579999D02*
X574999Y42000D01*
X569999Y47000D01*
X574999Y52000D01*
X579999Y47000D01*
D02*
G37*
G36*
X567999D02*
X562999Y42000D01*
X557999Y47000D01*
X562999Y52000D01*
X567999Y47000D01*
D02*
G37*
G36*
X555999D02*
X550999Y42000D01*
X545999Y47000D01*
X550999Y52000D01*
X555999Y47000D01*
D02*
G37*
G36*
X543999D02*
X538999Y42000D01*
X533999Y47000D01*
X538999Y52000D01*
X543999Y47000D01*
D02*
G37*
G36*
X531999D02*
X526999Y42000D01*
X521999Y47000D01*
X526999Y52000D01*
X531999Y47000D01*
D02*
G37*
G36*
X519999D02*
X514999Y42000D01*
X509999Y47000D01*
X514999Y52000D01*
X519999Y47000D01*
D02*
G37*
G36*
X507999D02*
X502999Y42000D01*
X497999Y47000D01*
X502999Y52000D01*
X507999Y47000D01*
D02*
G37*
G36*
X495999D02*
X490999Y42000D01*
X485999Y47000D01*
X490999Y52000D01*
X495999Y47000D01*
D02*
G37*
G36*
X483999D02*
X478999Y42000D01*
X473999Y47000D01*
X478999Y52000D01*
X483999Y47000D01*
D02*
G37*
G36*
X471999D02*
X466999Y42000D01*
X461999Y47000D01*
X466999Y52000D01*
X471999Y47000D01*
D02*
G37*
G36*
X459999D02*
X454999Y42000D01*
X449999Y47000D01*
X454999Y52000D01*
X459999Y47000D01*
D02*
G37*
G36*
X447999D02*
X442999Y42000D01*
X437999Y47000D01*
X442999Y52000D01*
X447999Y47000D01*
D02*
G37*
G36*
X789998Y41000D02*
X784998Y36000D01*
X779998Y41000D01*
X784998Y46000D01*
X789998Y41000D01*
D02*
G37*
G36*
X777998D02*
X772998Y36000D01*
X767998Y41000D01*
X772998Y46000D01*
X777998Y41000D01*
D02*
G37*
G36*
X765998D02*
X760999Y36000D01*
X755999Y41000D01*
X760999Y46000D01*
X765998Y41000D01*
D02*
G37*
G36*
X753998D02*
X748998Y36000D01*
X743998Y41000D01*
X748998Y46000D01*
X753998Y41000D01*
D02*
G37*
G36*
X741999D02*
X736999Y36000D01*
X731999Y41000D01*
X736999Y46000D01*
X741999Y41000D01*
D02*
G37*
G36*
X729998D02*
X724998Y36000D01*
X719998Y41000D01*
X724998Y46000D01*
X729998Y41000D01*
D02*
G37*
G36*
X717999D02*
X712999Y36000D01*
X707999Y41000D01*
X712999Y46000D01*
X717999Y41000D01*
D02*
G37*
G36*
X705999D02*
X700999Y36000D01*
X695999Y41000D01*
X700999Y46000D01*
X705999Y41000D01*
D02*
G37*
G36*
X693999D02*
X688999Y36000D01*
X683999Y41000D01*
X688999Y46000D01*
X693999Y41000D01*
D02*
G37*
G36*
X681999D02*
X676999Y36000D01*
X671999Y41000D01*
X676999Y46000D01*
X681999Y41000D01*
D02*
G37*
G36*
X669999D02*
X664999Y36000D01*
X659999Y41000D01*
X664999Y46000D01*
X669999Y41000D01*
D02*
G37*
G36*
X657999D02*
X652999Y36000D01*
X647999Y41000D01*
X652999Y46000D01*
X657999Y41000D01*
D02*
G37*
G36*
X645999D02*
X640999Y36000D01*
X635999Y41000D01*
X640999Y46000D01*
X645999Y41000D01*
D02*
G37*
G36*
X633999D02*
X628999Y36000D01*
X623999Y41000D01*
X628999Y46000D01*
X633999Y41000D01*
D02*
G37*
G36*
X621999D02*
X616999Y36000D01*
X611999Y41000D01*
X616999Y46000D01*
X621999Y41000D01*
D02*
G37*
G36*
X585999D02*
X580999Y36000D01*
X575999Y41000D01*
X580999Y46000D01*
X585999Y41000D01*
D02*
G37*
G36*
X573999D02*
X568999Y36000D01*
X563999Y41000D01*
X568999Y46000D01*
X573999Y41000D01*
D02*
G37*
G36*
X561999D02*
X556999Y36000D01*
X551999Y41000D01*
X556999Y46000D01*
X561999Y41000D01*
D02*
G37*
G36*
X549999D02*
X544999Y36000D01*
X539999Y41000D01*
X544999Y46000D01*
X549999Y41000D01*
D02*
G37*
G36*
X537999D02*
X532999Y36000D01*
X527999Y41000D01*
X532999Y46000D01*
X537999Y41000D01*
D02*
G37*
G36*
X525999D02*
X520999Y36000D01*
X515999Y41000D01*
X520999Y46000D01*
X525999Y41000D01*
D02*
G37*
G36*
X513999D02*
X508999Y36000D01*
X503999Y41000D01*
X508999Y46000D01*
X513999Y41000D01*
D02*
G37*
G36*
X501999D02*
X496999Y36000D01*
X491999Y41000D01*
X496999Y46000D01*
X501999Y41000D01*
D02*
G37*
G36*
X489999D02*
X484999Y36000D01*
X479999Y41000D01*
X484999Y46000D01*
X489999Y41000D01*
D02*
G37*
G36*
X477999D02*
X472999Y36000D01*
X467999Y41000D01*
X472999Y46000D01*
X477999Y41000D01*
D02*
G37*
G36*
X465999D02*
X460999Y36000D01*
X455999Y41000D01*
X460999Y46000D01*
X465999Y41000D01*
D02*
G37*
G36*
X453999D02*
X448999Y36000D01*
X443999Y41000D01*
X448999Y46000D01*
X453999Y41000D01*
D02*
G37*
G36*
X771998Y35000D02*
X766998Y30000D01*
X761999Y35000D01*
X766998Y40000D01*
X771998Y35000D01*
D02*
G37*
G36*
X759998D02*
X754998Y30000D01*
X749998Y35000D01*
X754998Y40000D01*
X759998Y35000D01*
D02*
G37*
G36*
X747999D02*
X742999Y30000D01*
X737999Y35000D01*
X742999Y40000D01*
X747999Y35000D01*
D02*
G37*
G36*
X735999D02*
X730999Y30000D01*
X725999Y35000D01*
X730999Y40000D01*
X735999Y35000D01*
D02*
G37*
G36*
X723998D02*
X718998Y30000D01*
X713998Y35000D01*
X718998Y40000D01*
X723998Y35000D01*
D02*
G37*
G36*
X711999D02*
X706999Y30000D01*
X701999Y35000D01*
X706999Y40000D01*
X711999Y35000D01*
D02*
G37*
G36*
X699999D02*
X694999Y30000D01*
X689999Y35000D01*
X694999Y40000D01*
X699999Y35000D01*
D02*
G37*
G36*
X687999D02*
X682999Y30000D01*
X677999Y35000D01*
X682999Y40000D01*
X687999Y35000D01*
D02*
G37*
G36*
X675999D02*
X670999Y30000D01*
X665999Y35000D01*
X670999Y40000D01*
X675999Y35000D01*
D02*
G37*
G36*
X663999D02*
X658999Y30000D01*
X653999Y35000D01*
X658999Y40000D01*
X663999Y35000D01*
D02*
G37*
G36*
X651999D02*
X646999Y30000D01*
X641999Y35000D01*
X646999Y40000D01*
X651999Y35000D01*
D02*
G37*
G36*
X639999D02*
X634999Y30000D01*
X629999Y35000D01*
X634999Y40000D01*
X639999Y35000D01*
D02*
G37*
G36*
X627999D02*
X622999Y30000D01*
X617999Y35000D01*
X622999Y40000D01*
X627999Y35000D01*
D02*
G37*
G36*
X579999D02*
X574999Y30000D01*
X569999Y35000D01*
X574999Y40000D01*
X579999Y35000D01*
D02*
G37*
G36*
X567999D02*
X562999Y30000D01*
X557999Y35000D01*
X562999Y40000D01*
X567999Y35000D01*
D02*
G37*
G36*
X555999D02*
X550999Y30000D01*
X545999Y35000D01*
X550999Y40000D01*
X555999Y35000D01*
D02*
G37*
G36*
X543999D02*
X538999Y30000D01*
X533999Y35000D01*
X538999Y40000D01*
X543999Y35000D01*
D02*
G37*
G36*
X531999D02*
X526999Y30000D01*
X521999Y35000D01*
X526999Y40000D01*
X531999Y35000D01*
D02*
G37*
G36*
X519999D02*
X514999Y30000D01*
X509999Y35000D01*
X514999Y40000D01*
X519999Y35000D01*
D02*
G37*
G36*
X507999D02*
X502999Y30000D01*
X497999Y35000D01*
X502999Y40000D01*
X507999Y35000D01*
D02*
G37*
G36*
X495999D02*
X490999Y30000D01*
X485999Y35000D01*
X490999Y40000D01*
X495999Y35000D01*
D02*
G37*
G36*
X483999D02*
X478999Y30000D01*
X473999Y35000D01*
X478999Y40000D01*
X483999Y35000D01*
D02*
G37*
G36*
X471999D02*
X466999Y30000D01*
X461999Y35000D01*
X466999Y40000D01*
X471999Y35000D01*
D02*
G37*
G36*
X459999D02*
X454999Y30000D01*
X449999Y35000D01*
X454999Y40000D01*
X459999Y35000D01*
D02*
G37*
G36*
X447999D02*
X442999Y30000D01*
X437999Y35000D01*
X442999Y40000D01*
X447999Y35000D01*
D02*
G37*
G36*
X765998Y29000D02*
X760999Y24000D01*
X755999Y29000D01*
X760999Y34000D01*
X765998Y29000D01*
D02*
G37*
G36*
X753998D02*
X748998Y24000D01*
X743998Y29000D01*
X748998Y34000D01*
X753998Y29000D01*
D02*
G37*
G36*
X741999D02*
X736999Y24000D01*
X731999Y29000D01*
X736999Y34000D01*
X741999Y29000D01*
D02*
G37*
G36*
X729998D02*
X724998Y24000D01*
X719998Y29000D01*
X724998Y34000D01*
X729998Y29000D01*
D02*
G37*
G36*
X717999D02*
X712999Y24000D01*
X707999Y29000D01*
X712999Y34000D01*
X717999Y29000D01*
D02*
G37*
G36*
X705999D02*
X700999Y24000D01*
X695999Y29000D01*
X700999Y34000D01*
X705999Y29000D01*
D02*
G37*
G36*
X693999D02*
X688999Y24000D01*
X683999Y29000D01*
X688999Y34000D01*
X693999Y29000D01*
D02*
G37*
G36*
X681999D02*
X676999Y24000D01*
X671999Y29000D01*
X676999Y34000D01*
X681999Y29000D01*
D02*
G37*
G36*
X669999D02*
X664999Y24000D01*
X659999Y29000D01*
X664999Y34000D01*
X669999Y29000D01*
D02*
G37*
G36*
X657999D02*
X652999Y24000D01*
X647999Y29000D01*
X652999Y34000D01*
X657999Y29000D01*
D02*
G37*
G36*
X645999D02*
X640999Y24000D01*
X635999Y29000D01*
X640999Y34000D01*
X645999Y29000D01*
D02*
G37*
G36*
X633999D02*
X628999Y24000D01*
X623999Y29000D01*
X628999Y34000D01*
X633999Y29000D01*
D02*
G37*
G36*
X621999D02*
X616999Y24000D01*
X611999Y29000D01*
X616999Y34000D01*
X621999Y29000D01*
D02*
G37*
G36*
X585999D02*
X580999Y24000D01*
X575999Y29000D01*
X580999Y34000D01*
X585999Y29000D01*
D02*
G37*
G36*
X573999D02*
X568999Y24000D01*
X563999Y29000D01*
X568999Y34000D01*
X573999Y29000D01*
D02*
G37*
G36*
X561999D02*
X556999Y24000D01*
X551999Y29000D01*
X556999Y34000D01*
X561999Y29000D01*
D02*
G37*
G36*
X549999D02*
X544999Y24000D01*
X539999Y29000D01*
X544999Y34000D01*
X549999Y29000D01*
D02*
G37*
G36*
X537999D02*
X532999Y24000D01*
X527999Y29000D01*
X532999Y34000D01*
X537999Y29000D01*
D02*
G37*
G36*
X525999D02*
X520999Y24000D01*
X515999Y29000D01*
X520999Y34000D01*
X525999Y29000D01*
D02*
G37*
G36*
X513999D02*
X508999Y24000D01*
X503999Y29000D01*
X508999Y34000D01*
X513999Y29000D01*
D02*
G37*
G36*
X501999D02*
X496999Y24000D01*
X491999Y29000D01*
X496999Y34000D01*
X501999Y29000D01*
D02*
G37*
G36*
X489999D02*
X484999Y24000D01*
X479999Y29000D01*
X484999Y34000D01*
X489999Y29000D01*
D02*
G37*
G36*
X477999D02*
X472999Y24000D01*
X467999Y29000D01*
X472999Y34000D01*
X477999Y29000D01*
D02*
G37*
G36*
X465999D02*
X460999Y24000D01*
X455999Y29000D01*
X460999Y34000D01*
X465999Y29000D01*
D02*
G37*
G36*
X453999D02*
X448999Y24000D01*
X443999Y29000D01*
X448999Y34000D01*
X453999Y29000D01*
D02*
G37*
G36*
X759998Y23000D02*
X754998Y18000D01*
X749998Y23000D01*
X754998Y28000D01*
X759998Y23000D01*
D02*
G37*
G36*
X747999D02*
X742999Y18000D01*
X737999Y23000D01*
X742999Y28000D01*
X747999Y23000D01*
D02*
G37*
G36*
X735999D02*
X730999Y18000D01*
X725999Y23000D01*
X730999Y28000D01*
X735999Y23000D01*
D02*
G37*
G36*
X723998D02*
X718998Y18000D01*
X713998Y23000D01*
X718998Y28000D01*
X723998Y23000D01*
D02*
G37*
G36*
X711999D02*
X706999Y18000D01*
X701999Y23000D01*
X706999Y28000D01*
X711999Y23000D01*
D02*
G37*
G36*
X699999D02*
X694999Y18000D01*
X689999Y23000D01*
X694999Y28000D01*
X699999Y23000D01*
D02*
G37*
G36*
X687999D02*
X682999Y18000D01*
X677999Y23000D01*
X682999Y28000D01*
X687999Y23000D01*
D02*
G37*
G36*
X675999D02*
X670999Y18000D01*
X665999Y23000D01*
X670999Y28000D01*
X675999Y23000D01*
D02*
G37*
G36*
X663999D02*
X658999Y18000D01*
X653999Y23000D01*
X658999Y28000D01*
X663999Y23000D01*
D02*
G37*
G36*
X651999D02*
X646999Y18000D01*
X641999Y23000D01*
X646999Y28000D01*
X651999Y23000D01*
D02*
G37*
G36*
X639999D02*
X634999Y18000D01*
X629999Y23000D01*
X634999Y28000D01*
X639999Y23000D01*
D02*
G37*
G36*
X627999D02*
X622999Y18000D01*
X617999Y23000D01*
X622999Y28000D01*
X627999Y23000D01*
D02*
G37*
G36*
X579999D02*
X574999Y18000D01*
X569999Y23000D01*
X574999Y28000D01*
X579999Y23000D01*
D02*
G37*
G36*
X567999D02*
X562999Y18000D01*
X557999Y23000D01*
X562999Y28000D01*
X567999Y23000D01*
D02*
G37*
G36*
X555999D02*
X550999Y18000D01*
X545999Y23000D01*
X550999Y28000D01*
X555999Y23000D01*
D02*
G37*
G36*
X543999D02*
X538999Y18000D01*
X533999Y23000D01*
X538999Y28000D01*
X543999Y23000D01*
D02*
G37*
G36*
X531999D02*
X526999Y18000D01*
X521999Y23000D01*
X526999Y28000D01*
X531999Y23000D01*
D02*
G37*
G36*
X519999D02*
X514999Y18000D01*
X509999Y23000D01*
X514999Y28000D01*
X519999Y23000D01*
D02*
G37*
G36*
X507999D02*
X502999Y18000D01*
X497999Y23000D01*
X502999Y28000D01*
X507999Y23000D01*
D02*
G37*
G36*
X495999D02*
X490999Y18000D01*
X485999Y23000D01*
X490999Y28000D01*
X495999Y23000D01*
D02*
G37*
G36*
X483999D02*
X478999Y18000D01*
X473999Y23000D01*
X478999Y28000D01*
X483999Y23000D01*
D02*
G37*
G36*
X471999D02*
X466999Y18000D01*
X461999Y23000D01*
X466999Y28000D01*
X471999Y23000D01*
D02*
G37*
G36*
X459999D02*
X454999Y18000D01*
X449999Y23000D01*
X454999Y28000D01*
X459999Y23000D01*
D02*
G37*
G36*
X447999D02*
X442999Y18000D01*
X437999Y23000D01*
X442999Y28000D01*
X447999Y23000D01*
D02*
G37*
G36*
X753998Y17000D02*
X748998Y12000D01*
X743998Y17000D01*
X748998Y22000D01*
X753998Y17000D01*
D02*
G37*
G36*
X741999D02*
X736999Y12000D01*
X731999Y17000D01*
X736999Y22000D01*
X741999Y17000D01*
D02*
G37*
G36*
X729998D02*
X724998Y12000D01*
X719998Y17000D01*
X724998Y22000D01*
X729998Y17000D01*
D02*
G37*
G36*
X717999D02*
X712999Y12000D01*
X707999Y17000D01*
X712999Y22000D01*
X717999Y17000D01*
D02*
G37*
G36*
X705999D02*
X700999Y12000D01*
X695999Y17000D01*
X700999Y22000D01*
X705999Y17000D01*
D02*
G37*
G36*
X693999D02*
X688999Y12000D01*
X683999Y17000D01*
X688999Y22000D01*
X693999Y17000D01*
D02*
G37*
G36*
X681999D02*
X676999Y12000D01*
X671999Y17000D01*
X676999Y22000D01*
X681999Y17000D01*
D02*
G37*
G36*
X669999D02*
X664999Y12000D01*
X659999Y17000D01*
X664999Y22000D01*
X669999Y17000D01*
D02*
G37*
G36*
X657999D02*
X652999Y12000D01*
X647999Y17000D01*
X652999Y22000D01*
X657999Y17000D01*
D02*
G37*
G36*
X645999D02*
X640999Y12000D01*
X635999Y17000D01*
X640999Y22000D01*
X645999Y17000D01*
D02*
G37*
G36*
X633999D02*
X628999Y12000D01*
X623999Y17000D01*
X628999Y22000D01*
X633999Y17000D01*
D02*
G37*
G36*
X621999D02*
X616999Y12000D01*
X611999Y17000D01*
X616999Y22000D01*
X621999Y17000D01*
D02*
G37*
G36*
X585999D02*
X580999Y12000D01*
X575999Y17000D01*
X580999Y22000D01*
X585999Y17000D01*
D02*
G37*
G36*
X573999D02*
X568999Y12000D01*
X563999Y17000D01*
X568999Y22000D01*
X573999Y17000D01*
D02*
G37*
G36*
X561999D02*
X556999Y12000D01*
X551999Y17000D01*
X556999Y22000D01*
X561999Y17000D01*
D02*
G37*
G36*
X549999D02*
X544999Y12000D01*
X539999Y17000D01*
X544999Y22000D01*
X549999Y17000D01*
D02*
G37*
G36*
X537999D02*
X532999Y12000D01*
X527999Y17000D01*
X532999Y22000D01*
X537999Y17000D01*
D02*
G37*
G36*
X525999D02*
X520999Y12000D01*
X515999Y17000D01*
X520999Y22000D01*
X525999Y17000D01*
D02*
G37*
G36*
X513999D02*
X508999Y12000D01*
X503999Y17000D01*
X508999Y22000D01*
X513999Y17000D01*
D02*
G37*
G36*
X501999D02*
X496999Y12000D01*
X491999Y17000D01*
X496999Y22000D01*
X501999Y17000D01*
D02*
G37*
G36*
X489999D02*
X484999Y12000D01*
X479999Y17000D01*
X484999Y22000D01*
X489999Y17000D01*
D02*
G37*
G36*
X477999D02*
X472999Y12000D01*
X467999Y17000D01*
X472999Y22000D01*
X477999Y17000D01*
D02*
G37*
G36*
X465999D02*
X460999Y12000D01*
X455999Y17000D01*
X460999Y22000D01*
X465999Y17000D01*
D02*
G37*
G36*
X453999D02*
X448999Y12000D01*
X443999Y17000D01*
X448999Y22000D01*
X453999Y17000D01*
D02*
G37*
G36*
X759998Y11000D02*
X754998Y6000D01*
X749998Y11000D01*
X754998Y16000D01*
X759998Y11000D01*
D02*
G37*
G36*
X747999D02*
X742999Y6000D01*
X737999Y11000D01*
X742999Y16000D01*
X747999Y11000D01*
D02*
G37*
G36*
X735999D02*
X730999Y6000D01*
X725999Y11000D01*
X730999Y16000D01*
X735999Y11000D01*
D02*
G37*
G36*
X723998D02*
X718998Y6000D01*
X713998Y11000D01*
X718998Y16000D01*
X723998Y11000D01*
D02*
G37*
G36*
X711999D02*
X706999Y6000D01*
X701999Y11000D01*
X706999Y16000D01*
X711999Y11000D01*
D02*
G37*
G36*
X699999D02*
X694999Y6000D01*
X689999Y11000D01*
X694999Y16000D01*
X699999Y11000D01*
D02*
G37*
G36*
X687999D02*
X682999Y6000D01*
X677999Y11000D01*
X682999Y16000D01*
X687999Y11000D01*
D02*
G37*
G36*
X675999D02*
X670999Y6000D01*
X665999Y11000D01*
X670999Y16000D01*
X675999Y11000D01*
D02*
G37*
G36*
X663999D02*
X658999Y6000D01*
X653999Y11000D01*
X658999Y16000D01*
X663999Y11000D01*
D02*
G37*
G36*
X651999D02*
X646999Y6000D01*
X641999Y11000D01*
X646999Y16000D01*
X651999Y11000D01*
D02*
G37*
G36*
X639999D02*
X634999Y6000D01*
X629999Y11000D01*
X634999Y16000D01*
X639999Y11000D01*
D02*
G37*
G36*
X627999D02*
X622999Y6000D01*
X617999Y11000D01*
X622999Y16000D01*
X627999Y11000D01*
D02*
G37*
G36*
X579999D02*
X574999Y6000D01*
X569999Y11000D01*
X574999Y16000D01*
X579999Y11000D01*
D02*
G37*
G36*
X567999D02*
X562999Y6000D01*
X557999Y11000D01*
X562999Y16000D01*
X567999Y11000D01*
D02*
G37*
G36*
X555999D02*
X550999Y6000D01*
X545999Y11000D01*
X550999Y16000D01*
X555999Y11000D01*
D02*
G37*
G36*
X543999D02*
X538999Y6000D01*
X533999Y11000D01*
X538999Y16000D01*
X543999Y11000D01*
D02*
G37*
G36*
X531999D02*
X526999Y6000D01*
X521999Y11000D01*
X526999Y16000D01*
X531999Y11000D01*
D02*
G37*
G36*
X519999D02*
X514999Y6000D01*
X509999Y11000D01*
X514999Y16000D01*
X519999Y11000D01*
D02*
G37*
G36*
X507999D02*
X502999Y6000D01*
X497999Y11000D01*
X502999Y16000D01*
X507999Y11000D01*
D02*
G37*
G36*
X495999D02*
X490999Y6000D01*
X485999Y11000D01*
X490999Y16000D01*
X495999Y11000D01*
D02*
G37*
G36*
X483999D02*
X478999Y6000D01*
X473999Y11000D01*
X478999Y16000D01*
X483999Y11000D01*
D02*
G37*
G36*
X471999D02*
X466999Y6000D01*
X461999Y11000D01*
X466999Y16000D01*
X471999Y11000D01*
D02*
G37*
G36*
X459999D02*
X454999Y6000D01*
X449999Y11000D01*
X454999Y16000D01*
X459999Y11000D01*
D02*
G37*
G36*
X447999D02*
X442999Y6000D01*
X437999Y11000D01*
X442999Y16000D01*
X447999Y11000D01*
D02*
G37*
%LPC*%
G36*
X170500Y205078D02*
X168939Y204768D01*
X167616Y203884D01*
X166732Y202561D01*
X166422Y201000D01*
X166732Y199439D01*
X167616Y198116D01*
Y197884D01*
X166732Y196561D01*
X166422Y195000D01*
X166732Y193439D01*
X167616Y192116D01*
X168939Y191232D01*
X170500Y190922D01*
X172061Y191232D01*
X173384Y192116D01*
X174268Y193439D01*
X174578Y195000D01*
X174268Y196561D01*
X173384Y197884D01*
Y198116D01*
X174268Y199439D01*
X174578Y201000D01*
X174268Y202561D01*
X173384Y203884D01*
X172061Y204768D01*
X170500Y205078D01*
D02*
G37*
G36*
X153500D02*
X151939Y204768D01*
X150616Y203884D01*
X149732Y202561D01*
X149422Y201000D01*
X149732Y199439D01*
X150616Y198116D01*
Y197884D01*
X149732Y196561D01*
X149422Y195000D01*
X149732Y193439D01*
X150616Y192116D01*
X151939Y191232D01*
X153500Y190922D01*
X155061Y191232D01*
X156384Y192116D01*
X157268Y193439D01*
X157578Y195000D01*
X157268Y196561D01*
X156384Y197884D01*
Y198116D01*
X157268Y199439D01*
X157578Y201000D01*
X157268Y202561D01*
X156384Y203884D01*
X155061Y204768D01*
X153500Y205078D01*
D02*
G37*
G36*
X147750Y180333D02*
X147331Y180250D01*
X146905D01*
X146510Y180087D01*
X146092Y180003D01*
X145737Y179766D01*
X145343Y179603D01*
X145041Y179301D01*
X144686Y179064D01*
X144449Y178709D01*
X144147Y178407D01*
X143984Y178013D01*
X143747Y177658D01*
X143663Y177240D01*
X143500Y176845D01*
X143500Y176418D01*
X143417Y176000D01*
X143500Y175581D01*
Y169418D01*
X143417Y169000D01*
X143500Y168582D01*
X143500Y168155D01*
X143663Y167760D01*
X143747Y167342D01*
X143983Y166987D01*
X144147Y166593D01*
X144449Y166290D01*
X144686Y165936D01*
X145040Y165699D01*
X145343Y165397D01*
X145737Y165233D01*
X146092Y164997D01*
X146510Y164913D01*
X146905Y164750D01*
X147332Y164750D01*
X147750Y164667D01*
X148168Y164750D01*
X148595D01*
X148990Y164913D01*
X149408Y164997D01*
X149763Y165233D01*
X150157Y165397D01*
X150459Y165699D01*
X150814Y165936D01*
X151051Y166291D01*
X151353Y166593D01*
X151516Y166987D01*
X151753Y167342D01*
X151837Y167761D01*
X152000Y168155D01*
X152000Y168581D01*
X152083Y169000D01*
X152000Y169419D01*
X152000Y175580D01*
X152083Y176000D01*
X152000Y176420D01*
X152000Y176845D01*
X151837Y177239D01*
X151753Y177658D01*
X151516Y178014D01*
X151353Y178407D01*
X151052Y178709D01*
X150814Y179064D01*
X150459Y179301D01*
X150157Y179603D01*
X149763Y179766D01*
X149408Y180003D01*
X148989Y180087D01*
X148595Y180250D01*
X148169D01*
X147750Y180333D01*
D02*
G37*
G36*
X101500Y172833D02*
X101081Y172750D01*
X100654D01*
X100260Y172587D01*
X99842Y172503D01*
X99487Y172266D01*
X99093Y172103D01*
X98791Y171801D01*
X98436Y171564D01*
X98199Y171209D01*
X97897Y170907D01*
X97734Y170513D01*
X97497Y170158D01*
X97413Y169740D01*
X97250Y169345D01*
X97250Y168918D01*
X97167Y168500D01*
X97250Y168081D01*
Y161918D01*
X97167Y161500D01*
X97250Y161082D01*
X97250Y160655D01*
X97413Y160260D01*
X97497Y159842D01*
X97733Y159487D01*
X97897Y159093D01*
X98199Y158790D01*
X98436Y158436D01*
X98790Y158199D01*
X99093Y157897D01*
X99487Y157733D01*
X99842Y157497D01*
X100260Y157413D01*
X100655Y157250D01*
X101082Y157250D01*
X101500Y157167D01*
X101918Y157250D01*
X102345D01*
X102740Y157413D01*
X103158Y157497D01*
X103513Y157733D01*
X103907Y157897D01*
X104209Y158199D01*
X104564Y158436D01*
X104801Y158791D01*
X105103Y159093D01*
X105266Y159487D01*
X105503Y159842D01*
X105587Y160261D01*
X105750Y160655D01*
X105750Y161081D01*
X105833Y161500D01*
X105750Y161919D01*
X105750Y168080D01*
X105833Y168500D01*
X105750Y168920D01*
X105750Y169345D01*
X105587Y169739D01*
X105503Y170158D01*
X105266Y170514D01*
X105103Y170907D01*
X104802Y171209D01*
X104564Y171564D01*
X104209Y171801D01*
X103907Y172103D01*
X103513Y172266D01*
X103158Y172503D01*
X102739Y172587D01*
X102345Y172750D01*
X101919D01*
X101500Y172833D01*
D02*
G37*
G36*
X72000Y187833D02*
X71581Y187750D01*
X71155D01*
X70760Y187587D01*
X70342Y187503D01*
X69987Y187266D01*
X69592Y187103D01*
X69291Y186801D01*
X68936Y186564D01*
X68699Y186209D01*
X68397Y185907D01*
X68234Y185513D01*
X67997Y185158D01*
X67913Y184740D01*
X67750Y184345D01*
X67750Y183918D01*
X67667Y183500D01*
X67750Y183081D01*
Y176918D01*
X67667Y176500D01*
X67750Y176082D01*
X67750Y175655D01*
X67913Y175260D01*
X67997Y174842D01*
X68233Y174487D01*
X68397Y174093D01*
X68699Y173790D01*
X68936Y173436D01*
X69290Y173199D01*
X69592Y172897D01*
X69707Y172850D01*
X70010Y171948D01*
X70033Y171158D01*
X69897Y170571D01*
X69616Y170384D01*
X68732Y169061D01*
X68422Y167500D01*
X68732Y165939D01*
X69616Y164616D01*
X70939Y163732D01*
X72008Y163519D01*
Y161480D01*
X70939Y161268D01*
X69616Y160384D01*
X68732Y159061D01*
X68422Y157500D01*
X68732Y155939D01*
X69616Y154616D01*
X70939Y153732D01*
X72500Y153422D01*
X74061Y153732D01*
X75384Y154616D01*
X76268Y155939D01*
X76578Y157500D01*
X76268Y159061D01*
X75384Y160384D01*
X74061Y161268D01*
X72992Y161480D01*
Y163519D01*
X74061Y163732D01*
X75384Y164616D01*
X76268Y165939D01*
X76578Y167500D01*
X76268Y169061D01*
X75384Y170384D01*
X74724Y170825D01*
X74603Y171149D01*
X74545Y171667D01*
X74561Y172906D01*
X74624Y173114D01*
X74709Y173199D01*
X75064Y173436D01*
X75301Y173791D01*
X75603Y174093D01*
X75766Y174487D01*
X76003Y174842D01*
X76087Y175261D01*
X76250Y175655D01*
X76250Y176081D01*
X76333Y176500D01*
X76250Y176919D01*
X76250Y183080D01*
X76333Y183500D01*
X76250Y183920D01*
X76250Y184345D01*
X76087Y184739D01*
X76003Y185158D01*
X75766Y185514D01*
X75603Y185907D01*
X75302Y186209D01*
X75064Y186564D01*
X74709Y186801D01*
X74407Y187103D01*
X74014Y187266D01*
X73658Y187503D01*
X73239Y187587D01*
X72845Y187750D01*
X72419D01*
X72000Y187833D01*
D02*
G37*
G36*
X45750Y167578D02*
X44189Y167268D01*
X42866Y166384D01*
X41982Y165061D01*
X41672Y163500D01*
X41700Y163359D01*
X41439Y161268D01*
X40116Y160384D01*
X39232Y159061D01*
X38922Y157500D01*
X39232Y155939D01*
X40116Y154616D01*
X41439Y153732D01*
X43000Y153422D01*
X44561Y153732D01*
X45884Y154616D01*
X46768Y155939D01*
X47078Y157500D01*
X47050Y157641D01*
X47311Y159732D01*
X48634Y160616D01*
X49518Y161939D01*
X49828Y163500D01*
X49518Y165061D01*
X48634Y166384D01*
X47311Y167268D01*
X45750Y167578D01*
D02*
G37*
G36*
X151250Y149078D02*
X149689Y148768D01*
X148366Y147884D01*
X147482Y146561D01*
X147172Y145000D01*
X147482Y143439D01*
X148366Y142116D01*
X149689Y141232D01*
X151250Y140922D01*
X152811Y141232D01*
X154134Y142116D01*
X155018Y143439D01*
X155328Y145000D01*
X155018Y146561D01*
X154134Y147884D01*
X152811Y148768D01*
X151250Y149078D01*
D02*
G37*
G36*
X153750Y134078D02*
X152189Y133768D01*
X150866Y132884D01*
X149982Y131561D01*
X149850Y130899D01*
X149097Y129653D01*
X147851Y128900D01*
X147189Y128768D01*
X145866Y127884D01*
X144982Y126561D01*
X144671Y125000D01*
X144982Y123439D01*
X145866Y122116D01*
X147189Y121232D01*
X148750Y120922D01*
X148925Y120015D01*
X148922Y120000D01*
X149232Y118439D01*
X150116Y117116D01*
X151439Y116232D01*
X153000Y115922D01*
X154561Y116232D01*
X155884Y117116D01*
X156768Y118439D01*
X157078Y120000D01*
X156768Y121561D01*
X155884Y122884D01*
X154561Y123768D01*
X154508Y123778D01*
X154262Y125867D01*
X154648Y126100D01*
X155311Y126232D01*
X156634Y127116D01*
X157518Y128439D01*
X157828Y130000D01*
X157518Y131561D01*
X156634Y132884D01*
X155311Y133768D01*
X153750Y134078D01*
D02*
G37*
G36*
X37500Y112833D02*
X37081Y112750D01*
X36655D01*
X36260Y112587D01*
X35842Y112503D01*
X35487Y112266D01*
X35092Y112103D01*
X34791Y111801D01*
X34436Y111564D01*
X34199Y111209D01*
X33897Y110907D01*
X33734Y110513D01*
X33497Y110158D01*
X33413Y109740D01*
X33250Y109345D01*
X33250Y108918D01*
X33167Y108500D01*
X33250Y108082D01*
Y101918D01*
X33167Y101500D01*
X33250Y101082D01*
X33250Y100655D01*
X33413Y100260D01*
X33497Y99842D01*
X33733Y99487D01*
X33897Y99093D01*
X34199Y98790D01*
X34436Y98436D01*
X34790Y98199D01*
X35092Y97897D01*
X35487Y97733D01*
X35842Y97497D01*
X36260Y97414D01*
X36655Y97250D01*
X37082Y97250D01*
X37500Y97167D01*
X37918Y97250D01*
X38345D01*
X38740Y97413D01*
X39158Y97497D01*
X39513Y97734D01*
X39907Y97897D01*
X40209Y98199D01*
X40564Y98436D01*
X40801Y98791D01*
X41103Y99093D01*
X41266Y99487D01*
X41503Y99842D01*
X41587Y100261D01*
X41750Y100655D01*
X41750Y101081D01*
X41833Y101500D01*
X41750Y101919D01*
X41750Y108080D01*
X41833Y108500D01*
X41750Y108920D01*
X41750Y109345D01*
X41587Y109739D01*
X41503Y110158D01*
X41266Y110514D01*
X41103Y110907D01*
X40802Y111209D01*
X40564Y111564D01*
X40209Y111802D01*
X39907Y112103D01*
X39513Y112266D01*
X39158Y112503D01*
X38739Y112587D01*
X38345Y112750D01*
X37919D01*
X37500Y112833D01*
D02*
G37*
G36*
X52500Y97833D02*
X52081Y97750D01*
X51655D01*
X51260Y97587D01*
X50842Y97503D01*
X50487Y97266D01*
X50093Y97103D01*
X49791Y96801D01*
X49436Y96564D01*
X49199Y96209D01*
X48897Y95907D01*
X48734Y95513D01*
X48497Y95158D01*
X48413Y94740D01*
X48250Y94345D01*
X48250Y93918D01*
X48167Y93500D01*
X48250Y93082D01*
Y86918D01*
X48167Y86500D01*
X48250Y86082D01*
X48250Y85655D01*
X48413Y85260D01*
X48497Y84842D01*
X48734Y84487D01*
X48897Y84093D01*
X49199Y83790D01*
X49436Y83436D01*
X49790Y83199D01*
X50093Y82897D01*
X50487Y82733D01*
X50842Y82497D01*
X51260Y82413D01*
X51655Y82250D01*
X52082Y82250D01*
X52500Y82167D01*
X52918Y82250D01*
X53345D01*
X53740Y82413D01*
X54158Y82497D01*
X54513Y82733D01*
X54907Y82897D01*
X55209Y83199D01*
X55564Y83436D01*
X55801Y83791D01*
X56103Y84093D01*
X56266Y84487D01*
X56503Y84842D01*
X56587Y85261D01*
X56750Y85654D01*
X56750Y86081D01*
X56833Y86500D01*
X56750Y86919D01*
X56750Y93080D01*
X56833Y93500D01*
X56750Y93920D01*
X56750Y94345D01*
X56587Y94739D01*
X56503Y95158D01*
X56266Y95514D01*
X56103Y95907D01*
X55802Y96209D01*
X55564Y96564D01*
X55209Y96801D01*
X54907Y97103D01*
X54514Y97266D01*
X54158Y97503D01*
X53739Y97587D01*
X53345Y97750D01*
X52919D01*
X52500Y97833D01*
D02*
G37*
G36*
X45000Y81578D02*
X43439Y81268D01*
X42116Y80384D01*
X41232Y79061D01*
X40922Y77500D01*
X41232Y75939D01*
X42116Y74616D01*
X43439Y73732D01*
X45000Y73422D01*
X46561Y73732D01*
X47884Y74616D01*
X48768Y75939D01*
X49078Y77500D01*
X48768Y79061D01*
X47884Y80384D01*
X46561Y81268D01*
X45000Y81578D01*
D02*
G37*
G36*
X100000Y59078D02*
X98439Y58768D01*
X97116Y57884D01*
X96232Y56561D01*
X95922Y55000D01*
X96232Y53439D01*
X97116Y52116D01*
X98439Y51232D01*
X100000Y50922D01*
X101561Y51232D01*
X102884Y52116D01*
X103768Y53439D01*
X104078Y55000D01*
X103768Y56561D01*
X102884Y57884D01*
X101561Y58768D01*
X100000Y59078D01*
D02*
G37*
G36*
X77000Y54078D02*
X75439Y53768D01*
X74116Y52884D01*
X73232Y51561D01*
X72922Y50000D01*
X73232Y48439D01*
X74116Y47116D01*
X75439Y46232D01*
X77000Y45922D01*
X78561Y46232D01*
X79884Y47116D01*
X80768Y48439D01*
X81078Y50000D01*
X80768Y51561D01*
X79884Y52884D01*
X78561Y53768D01*
X77000Y54078D01*
D02*
G37*
G36*
X153000Y59078D02*
X151439Y58768D01*
X150116Y57884D01*
X149232Y56561D01*
X148922Y55000D01*
X149232Y53439D01*
X150116Y52116D01*
X151439Y51232D01*
X152507Y51020D01*
Y48980D01*
X151439Y48768D01*
X150116Y47884D01*
X149232Y46561D01*
X148922Y45000D01*
X149232Y43439D01*
X150116Y42116D01*
X151439Y41232D01*
X153000Y40922D01*
X154561Y41232D01*
X155884Y42116D01*
X156768Y43439D01*
X157078Y45000D01*
X156768Y46561D01*
X155884Y47884D01*
X154561Y48768D01*
X153492Y48980D01*
Y51020D01*
X154561Y51232D01*
X155884Y52116D01*
X156768Y53439D01*
X157078Y55000D01*
X156768Y56561D01*
X155884Y57884D01*
X154561Y58768D01*
X153000Y59078D01*
D02*
G37*
G36*
X60000Y81078D02*
X58439Y80768D01*
X57116Y79884D01*
X56232Y78561D01*
X55922Y77000D01*
X56232Y75439D01*
X56343Y75273D01*
X56966Y73750D01*
X56343Y72227D01*
X56232Y72061D01*
X55922Y70500D01*
X56232Y68939D01*
X56343Y68773D01*
X56966Y67250D01*
X56343Y65727D01*
X56232Y65561D01*
X55922Y64000D01*
X56232Y62439D01*
X56343Y62273D01*
X56966Y60750D01*
X56343Y59227D01*
X56232Y59061D01*
X55922Y57500D01*
X56232Y55939D01*
X57116Y54616D01*
X58439Y53732D01*
X59507Y53520D01*
Y51480D01*
X58439Y51268D01*
X57116Y50384D01*
X56232Y49061D01*
X55922Y47500D01*
X56232Y45939D01*
X57116Y44616D01*
Y43384D01*
X56232Y42061D01*
X55922Y40500D01*
X56232Y38939D01*
X57116Y37616D01*
X58439Y36732D01*
X60000Y36422D01*
X61561Y36732D01*
X62884Y37616D01*
X63768Y38939D01*
X64078Y40500D01*
X63768Y42061D01*
X62884Y43384D01*
Y44616D01*
X63768Y45939D01*
X64078Y47500D01*
X63768Y49061D01*
X62884Y50384D01*
X61561Y51268D01*
X60493Y51480D01*
Y53520D01*
X61561Y53732D01*
X62884Y54616D01*
X63768Y55939D01*
X64078Y57500D01*
X63768Y59061D01*
X63657Y59227D01*
X63034Y60750D01*
X63657Y62273D01*
X63768Y62439D01*
X64078Y64000D01*
X63768Y65561D01*
X63657Y65727D01*
X63034Y67250D01*
X63657Y68773D01*
X63768Y68939D01*
X64078Y70500D01*
X63768Y72061D01*
X63657Y72227D01*
X63034Y73750D01*
X63657Y75273D01*
X63768Y75439D01*
X64078Y77000D01*
X63768Y78561D01*
X62884Y79884D01*
X61561Y80768D01*
X60000Y81078D01*
D02*
G37*
G36*
X77000Y41578D02*
X75439Y41268D01*
X74116Y40384D01*
X73232Y39061D01*
X72922Y37500D01*
X73232Y35939D01*
X74116Y34616D01*
X75439Y33732D01*
X77000Y33422D01*
X78561Y33732D01*
X79884Y34616D01*
X80768Y35939D01*
X81078Y37500D01*
X80768Y39061D01*
X79884Y40384D01*
X78561Y41268D01*
X77000Y41578D01*
D02*
G37*
G36*
X170500Y29078D02*
X168939Y28768D01*
X167616Y27884D01*
X166732Y26561D01*
X166422Y25000D01*
X166732Y23439D01*
X167616Y22116D01*
Y21884D01*
X166732Y20561D01*
X166422Y19000D01*
X166732Y17439D01*
X167616Y16116D01*
X168939Y15232D01*
X170500Y14922D01*
X172061Y15232D01*
X173384Y16116D01*
X174268Y17439D01*
X174578Y19000D01*
X174268Y20561D01*
X173384Y21884D01*
Y22116D01*
X174268Y23439D01*
X174578Y25000D01*
X174268Y26561D01*
X173384Y27884D01*
X172061Y28768D01*
X170500Y29078D01*
D02*
G37*
G36*
X153500D02*
X151939Y28768D01*
X150616Y27884D01*
X149732Y26561D01*
X149422Y25000D01*
X149732Y23439D01*
X150550Y22000D01*
X149732Y20561D01*
X149422Y19000D01*
X149732Y17439D01*
X150616Y16116D01*
X151939Y15232D01*
X153500Y14922D01*
X155061Y15232D01*
X156384Y16116D01*
X157268Y17439D01*
X157578Y19000D01*
X157268Y20561D01*
X156450Y22000D01*
X157268Y23439D01*
X157578Y25000D01*
X157268Y26561D01*
X156384Y27884D01*
X155061Y28768D01*
X153500Y29078D01*
D02*
G37*
%LPD*%
D35*
X786668Y55832D02*
X788334Y57498D01*
X791666D01*
X793332Y55832D01*
Y54166D01*
X791666Y52500D01*
X790000D01*
X791666D01*
X793332Y50834D01*
Y49168D01*
X791666Y47502D01*
X788334D01*
X786668Y49168D01*
D40*
X200000Y20000D02*
D03*
X49250Y150500D02*
D03*
X380000Y170000D02*
D03*
X395000D02*
D03*
X380000Y185000D02*
D03*
X395000D02*
D03*
X380000Y200000D02*
D03*
X395000D02*
D03*
X380000Y215000D02*
D03*
X395000D02*
D03*
X380000Y35000D02*
D03*
X395000D02*
D03*
X380000Y50000D02*
D03*
X395000D02*
D03*
X380000Y20000D02*
D03*
X395000D02*
D03*
X200000Y215000D02*
D03*
X215000D02*
D03*
X230000D02*
D03*
X245000D02*
D03*
X260000D02*
D03*
X275000D02*
D03*
X290000D02*
D03*
X305000D02*
D03*
X320000D02*
D03*
X335000D02*
D03*
X350000D02*
D03*
X365000D02*
D03*
X200000Y200000D02*
D03*
X215000D02*
D03*
X230000D02*
D03*
X245000D02*
D03*
X260000D02*
D03*
X275000D02*
D03*
X290000D02*
D03*
X305000D02*
D03*
X320000D02*
D03*
X335000D02*
D03*
X350000D02*
D03*
X365000D02*
D03*
X200000Y185000D02*
D03*
X215000D02*
D03*
X230000D02*
D03*
X245000D02*
D03*
X260000D02*
D03*
X275000D02*
D03*
X290000D02*
D03*
X305000D02*
D03*
X320000D02*
D03*
X335000D02*
D03*
X350000D02*
D03*
X365000D02*
D03*
X200000Y170000D02*
D03*
X215000D02*
D03*
X230000D02*
D03*
X245000D02*
D03*
X260000D02*
D03*
X275000D02*
D03*
X290000D02*
D03*
X305000D02*
D03*
X320000D02*
D03*
X335000D02*
D03*
X350000D02*
D03*
X365000D02*
D03*
X200000Y155000D02*
D03*
X215000D02*
D03*
X230000D02*
D03*
X245000D02*
D03*
X260000D02*
D03*
X275000D02*
D03*
X290000D02*
D03*
X305000D02*
D03*
X320000D02*
D03*
X335000D02*
D03*
X350000D02*
D03*
X365000D02*
D03*
X200000Y140000D02*
D03*
X215000D02*
D03*
X230000D02*
D03*
X245000D02*
D03*
X260000D02*
D03*
X275000D02*
D03*
X290000D02*
D03*
X305000D02*
D03*
X320000D02*
D03*
X335000D02*
D03*
X350000D02*
D03*
X365000D02*
D03*
X200000Y125000D02*
D03*
X215000D02*
D03*
X230000D02*
D03*
X245000D02*
D03*
X260000D02*
D03*
X275000D02*
D03*
X290000D02*
D03*
X305000D02*
D03*
X320000D02*
D03*
X335000D02*
D03*
X350000D02*
D03*
X365000D02*
D03*
X200000Y110000D02*
D03*
X215000D02*
D03*
X230000D02*
D03*
X245000D02*
D03*
X260000D02*
D03*
X275000D02*
D03*
X290000D02*
D03*
X305000D02*
D03*
X320000D02*
D03*
X335000D02*
D03*
X350000D02*
D03*
X365000D02*
D03*
X200000Y95000D02*
D03*
X215000D02*
D03*
X230000D02*
D03*
X245000D02*
D03*
X260000D02*
D03*
X275000D02*
D03*
X290000D02*
D03*
X305000D02*
D03*
X320000D02*
D03*
X335000D02*
D03*
X350000D02*
D03*
X365000D02*
D03*
X200000Y80000D02*
D03*
X215000D02*
D03*
X230000D02*
D03*
X245000D02*
D03*
X260000D02*
D03*
X275000D02*
D03*
X290000D02*
D03*
X305000D02*
D03*
X320000D02*
D03*
X335000D02*
D03*
X350000D02*
D03*
X365000D02*
D03*
X200000Y65000D02*
D03*
X215000D02*
D03*
X230000D02*
D03*
X245000D02*
D03*
X260000D02*
D03*
X275000D02*
D03*
X290000D02*
D03*
X305000D02*
D03*
X320000D02*
D03*
X335000D02*
D03*
X350000D02*
D03*
X365000D02*
D03*
X200000Y50000D02*
D03*
X215000D02*
D03*
X230000D02*
D03*
X245000D02*
D03*
X260000D02*
D03*
X275000D02*
D03*
X290000D02*
D03*
X305000D02*
D03*
X320000D02*
D03*
X335000D02*
D03*
X350000D02*
D03*
X365000D02*
D03*
X200000Y35000D02*
D03*
X215000D02*
D03*
X230000D02*
D03*
X245000D02*
D03*
X260000D02*
D03*
X275000D02*
D03*
X290000D02*
D03*
X305000D02*
D03*
X320000D02*
D03*
X335000D02*
D03*
X350000D02*
D03*
X365000D02*
D03*
X215000Y20000D02*
D03*
X230000D02*
D03*
X245000D02*
D03*
X260000D02*
D03*
X275000D02*
D03*
X290000D02*
D03*
X305000D02*
D03*
X320000D02*
D03*
X335000D02*
D03*
X350000D02*
D03*
X365000D02*
D03*
X185000Y215000D02*
D03*
Y200000D02*
D03*
Y185000D02*
D03*
Y170000D02*
D03*
Y155000D02*
D03*
Y140000D02*
D03*
Y125000D02*
D03*
Y110000D02*
D03*
Y95000D02*
D03*
Y80000D02*
D03*
Y65000D02*
D03*
Y50000D02*
D03*
Y35000D02*
D03*
X395000Y5000D02*
D03*
X380000D02*
D03*
X365000D02*
D03*
X350000D02*
D03*
X335000D02*
D03*
X320000D02*
D03*
X305000D02*
D03*
X290000D02*
D03*
X275000D02*
D03*
X260000D02*
D03*
X245000D02*
D03*
X230000D02*
D03*
X215000D02*
D03*
X200000D02*
D03*
X185000D02*
D03*
X120000Y112500D02*
D03*
X100000Y90000D02*
D03*
X153000Y112500D02*
D03*
X120000Y162500D02*
D03*
Y127500D02*
D03*
X77000Y142500D02*
D03*
Y127500D02*
D03*
X30000Y187500D02*
D03*
X96500D02*
D03*
X124000Y215000D02*
D03*
X151000D02*
D03*
X172500D02*
D03*
X45000D02*
D03*
X67500Y5000D02*
D03*
X52500D02*
D03*
X30000Y42500D02*
D03*
X148000Y40000D02*
D03*
X105000Y60000D02*
D03*
X153000Y62500D02*
D03*
X41750Y187500D02*
D03*
X35750D02*
D03*
X148500Y5000D02*
D03*
X172500D02*
D03*
X126500D02*
D03*
X112500D02*
D03*
X75000D02*
D03*
X60000D02*
D03*
X45000D02*
D03*
X96500Y32500D02*
D03*
X77000Y97500D02*
D03*
Y112500D02*
D03*
X96500Y127500D02*
D03*
X77000Y44000D02*
D03*
X55000D02*
D03*
X96500Y142500D02*
D03*
X39750Y171750D02*
D03*
X30000Y160500D02*
D03*
X76500Y162500D02*
D03*
X96500Y157500D02*
D03*
Y172500D02*
D03*
X152750Y165000D02*
D03*
Y180000D02*
D03*
X77000Y187500D02*
D03*
Y172500D02*
D03*
X30000Y82500D02*
D03*
X55000Y73750D02*
D03*
Y60750D02*
D03*
X47500Y82500D02*
D03*
Y97500D02*
D03*
X32500Y112500D02*
D03*
X37500Y127500D02*
D03*
X32500Y142500D02*
D03*
X30000Y67500D02*
D03*
X32500Y97500D02*
D03*
M02*
