G04*
G04 #@! TF.GenerationSoftware,Altium Limited,Altium Designer,20.1.12 (249)*
G04*
G04 Layer_Physical_Order=4*
G04 Layer_Color=16711680*
%FSLAX44Y44*%
%MOMM*%
G71*
G04*
G04 #@! TF.SameCoordinates,D2571EE1-FD4D-4DC4-B5C4-F58D1C69BCFF*
G04*
G04*
G04 #@! TF.FilePolarity,Positive*
G04*
G01*
G75*
G04:AMPARAMS|DCode=32|XSize=0.35mm|YSize=2mm|CornerRadius=0.0875mm|HoleSize=0mm|Usage=FLASHONLY|Rotation=270.000|XOffset=0mm|YOffset=0mm|HoleType=Round|Shape=RoundedRectangle|*
%AMROUNDEDRECTD32*
21,1,0.3500,1.8250,0,0,270.0*
21,1,0.1750,2.0000,0,0,270.0*
1,1,0.1750,-0.9125,-0.0875*
1,1,0.1750,-0.9125,0.0875*
1,1,0.1750,0.9125,0.0875*
1,1,0.1750,0.9125,-0.0875*
%
%ADD32ROUNDEDRECTD32*%
%ADD33C,0.2500*%
%ADD34C,0.1400*%
%ADD35C,0.1500*%
%ADD36C,0.1100*%
%ADD37C,0.3500*%
%ADD40C,0.4500*%
%ADD41C,0.1000*%
G36*
X168732Y213439D02*
X169616Y212116D01*
X170939Y211232D01*
X172500Y210922D01*
X173500Y211121D01*
X175000Y210193D01*
Y12500D01*
X172500Y10000D01*
X147082D01*
X146756Y12480D01*
X145798Y14791D01*
X144276Y16775D01*
X142291Y18298D01*
X139980Y19255D01*
X137500Y19582D01*
X135020Y19255D01*
X132709Y18298D01*
X130725Y16775D01*
X129202Y14791D01*
X128244Y12480D01*
X127918Y10000D01*
X45000D01*
X39500Y15500D01*
X27500Y15500D01*
X27500Y26750D01*
X61750D01*
X67500Y32500D01*
X92422D01*
X92422Y32500D01*
X92732Y30939D01*
X93616Y29616D01*
X94939Y28732D01*
X96500Y28422D01*
X98061Y28732D01*
X99384Y29616D01*
X100268Y30939D01*
X100578Y32500D01*
X100565Y32565D01*
X103000Y35000D01*
X150000D01*
X158500Y43500D01*
Y140145D01*
X159006Y140651D01*
X159558Y141478D01*
X159752Y142453D01*
Y147178D01*
X159558Y148154D01*
X159006Y148981D01*
X158500Y149486D01*
Y155488D01*
X162302Y159291D01*
X162855Y160118D01*
X163049Y161093D01*
Y183210D01*
X162855Y184186D01*
X162302Y185012D01*
X157762Y189552D01*
X156936Y190105D01*
X155960Y190299D01*
X126963D01*
X112381Y204881D01*
X112381Y204881D01*
X111209Y206052D01*
X110382Y206605D01*
X109407Y206799D01*
X63593D01*
X62618Y206605D01*
X61791Y206052D01*
X60738Y205000D01*
X60000D01*
X47500Y192500D01*
X27500D01*
X27500Y204250D01*
X39250D01*
X46150Y211150D01*
X46561Y211232D01*
X47884Y212116D01*
X48768Y213439D01*
X48850Y213850D01*
X50000Y215000D01*
X119922D01*
X120232Y213439D01*
X121116Y212116D01*
X122439Y211232D01*
X124000Y210922D01*
X124337Y210989D01*
X125439Y209678D01*
X125809Y206867D01*
X127018Y203948D01*
X128941Y201441D01*
X131448Y199518D01*
X134367Y198309D01*
X137500Y197896D01*
X140633Y198309D01*
X143552Y199518D01*
X146059Y201441D01*
X147982Y203948D01*
X149191Y206867D01*
X149561Y209678D01*
X150663Y210989D01*
X151000Y210922D01*
X152561Y211232D01*
X153884Y212116D01*
X154768Y213439D01*
X155078Y215000D01*
X168422D01*
X168732Y213439D01*
D02*
G37*
G36*
X765998Y209000D02*
X760999Y204000D01*
X755999Y209000D01*
X760999Y214000D01*
X765998Y209000D01*
D02*
G37*
G36*
X753998D02*
X748998Y204000D01*
X743998Y209000D01*
X748998Y214000D01*
X753998Y209000D01*
D02*
G37*
G36*
X741999D02*
X736999Y204000D01*
X731999Y209000D01*
X736999Y214000D01*
X741999Y209000D01*
D02*
G37*
G36*
X729998D02*
X724998Y204000D01*
X719998Y209000D01*
X724998Y214000D01*
X729998Y209000D01*
D02*
G37*
G36*
X717999D02*
X712999Y204000D01*
X707999Y209000D01*
X712999Y214000D01*
X717999Y209000D01*
D02*
G37*
G36*
X705999D02*
X700999Y204000D01*
X695999Y209000D01*
X700999Y214000D01*
X705999Y209000D01*
D02*
G37*
G36*
X693999D02*
X688999Y204000D01*
X683999Y209000D01*
X688999Y214000D01*
X693999Y209000D01*
D02*
G37*
G36*
X681999D02*
X676999Y204000D01*
X671999Y209000D01*
X676999Y214000D01*
X681999Y209000D01*
D02*
G37*
G36*
X669999D02*
X664999Y204000D01*
X659999Y209000D01*
X664999Y214000D01*
X669999Y209000D01*
D02*
G37*
G36*
X657999D02*
X652999Y204000D01*
X647999Y209000D01*
X652999Y214000D01*
X657999Y209000D01*
D02*
G37*
G36*
X645999D02*
X640999Y204000D01*
X635999Y209000D01*
X640999Y214000D01*
X645999Y209000D01*
D02*
G37*
G36*
X633999D02*
X628999Y204000D01*
X623999Y209000D01*
X628999Y214000D01*
X633999Y209000D01*
D02*
G37*
G36*
X621999D02*
X616999Y204000D01*
X611999Y209000D01*
X616999Y214000D01*
X621999Y209000D01*
D02*
G37*
G36*
X585999D02*
X580999Y204000D01*
X575999Y209000D01*
X580999Y214000D01*
X585999Y209000D01*
D02*
G37*
G36*
X573999D02*
X568999Y204000D01*
X563999Y209000D01*
X568999Y214000D01*
X573999Y209000D01*
D02*
G37*
G36*
X561999D02*
X556999Y204000D01*
X551999Y209000D01*
X556999Y214000D01*
X561999Y209000D01*
D02*
G37*
G36*
X549999D02*
X544999Y204000D01*
X539999Y209000D01*
X544999Y214000D01*
X549999Y209000D01*
D02*
G37*
G36*
X537999D02*
X532999Y204000D01*
X527999Y209000D01*
X532999Y214000D01*
X537999Y209000D01*
D02*
G37*
G36*
X525999D02*
X520999Y204000D01*
X515999Y209000D01*
X520999Y214000D01*
X525999Y209000D01*
D02*
G37*
G36*
X513999D02*
X508999Y204000D01*
X503999Y209000D01*
X508999Y214000D01*
X513999Y209000D01*
D02*
G37*
G36*
X501999D02*
X496999Y204000D01*
X491999Y209000D01*
X496999Y214000D01*
X501999Y209000D01*
D02*
G37*
G36*
X489999D02*
X484999Y204000D01*
X479999Y209000D01*
X484999Y214000D01*
X489999Y209000D01*
D02*
G37*
G36*
X477999D02*
X472999Y204000D01*
X467999Y209000D01*
X472999Y214000D01*
X477999Y209000D01*
D02*
G37*
G36*
X465999D02*
X460999Y204000D01*
X455999Y209000D01*
X460999Y214000D01*
X465999Y209000D01*
D02*
G37*
G36*
X453999D02*
X448999Y204000D01*
X443999Y209000D01*
X448999Y214000D01*
X453999Y209000D01*
D02*
G37*
G36*
X759998Y203000D02*
X754998Y198000D01*
X749998Y203000D01*
X754998Y208000D01*
X759998Y203000D01*
D02*
G37*
G36*
X747999D02*
X742999Y198000D01*
X737999Y203000D01*
X742999Y208000D01*
X747999Y203000D01*
D02*
G37*
G36*
X735999D02*
X730999Y198000D01*
X725999Y203000D01*
X730999Y208000D01*
X735999Y203000D01*
D02*
G37*
G36*
X723998D02*
X718998Y198000D01*
X713998Y203000D01*
X718998Y208000D01*
X723998Y203000D01*
D02*
G37*
G36*
X711999D02*
X706999Y198000D01*
X701999Y203000D01*
X706999Y208000D01*
X711999Y203000D01*
D02*
G37*
G36*
X699999D02*
X694999Y198000D01*
X689999Y203000D01*
X694999Y208000D01*
X699999Y203000D01*
D02*
G37*
G36*
X687999D02*
X682999Y198000D01*
X677999Y203000D01*
X682999Y208000D01*
X687999Y203000D01*
D02*
G37*
G36*
X675999D02*
X670999Y198000D01*
X665999Y203000D01*
X670999Y208000D01*
X675999Y203000D01*
D02*
G37*
G36*
X663999D02*
X658999Y198000D01*
X653999Y203000D01*
X658999Y208000D01*
X663999Y203000D01*
D02*
G37*
G36*
X651999D02*
X646999Y198000D01*
X641999Y203000D01*
X646999Y208000D01*
X651999Y203000D01*
D02*
G37*
G36*
X639999D02*
X634999Y198000D01*
X629999Y203000D01*
X634999Y208000D01*
X639999Y203000D01*
D02*
G37*
G36*
X627999D02*
X622999Y198000D01*
X617999Y203000D01*
X622999Y208000D01*
X627999Y203000D01*
D02*
G37*
G36*
X579999D02*
X574999Y198000D01*
X569999Y203000D01*
X574999Y208000D01*
X579999Y203000D01*
D02*
G37*
G36*
X567999D02*
X562999Y198000D01*
X557999Y203000D01*
X562999Y208000D01*
X567999Y203000D01*
D02*
G37*
G36*
X555999D02*
X550999Y198000D01*
X545999Y203000D01*
X550999Y208000D01*
X555999Y203000D01*
D02*
G37*
G36*
X543999D02*
X538999Y198000D01*
X533999Y203000D01*
X538999Y208000D01*
X543999Y203000D01*
D02*
G37*
G36*
X531999D02*
X526999Y198000D01*
X521999Y203000D01*
X526999Y208000D01*
X531999Y203000D01*
D02*
G37*
G36*
X519999D02*
X514999Y198000D01*
X509999Y203000D01*
X514999Y208000D01*
X519999Y203000D01*
D02*
G37*
G36*
X507999D02*
X502999Y198000D01*
X497999Y203000D01*
X502999Y208000D01*
X507999Y203000D01*
D02*
G37*
G36*
X495999D02*
X490999Y198000D01*
X485999Y203000D01*
X490999Y208000D01*
X495999Y203000D01*
D02*
G37*
G36*
X483999D02*
X478999Y198000D01*
X473999Y203000D01*
X478999Y208000D01*
X483999Y203000D01*
D02*
G37*
G36*
X471999D02*
X466999Y198000D01*
X461999Y203000D01*
X466999Y208000D01*
X471999Y203000D01*
D02*
G37*
G36*
X459999D02*
X454999Y198000D01*
X449999Y203000D01*
X454999Y208000D01*
X459999Y203000D01*
D02*
G37*
G36*
X447999D02*
X442999Y198000D01*
X437999Y203000D01*
X442999Y208000D01*
X447999Y203000D01*
D02*
G37*
G36*
X753998Y197000D02*
X748998Y192000D01*
X743998Y197000D01*
X748998Y202000D01*
X753998Y197000D01*
D02*
G37*
G36*
X741999D02*
X736999Y192000D01*
X731999Y197000D01*
X736999Y202000D01*
X741999Y197000D01*
D02*
G37*
G36*
X729998D02*
X724998Y192000D01*
X719998Y197000D01*
X724998Y202000D01*
X729998Y197000D01*
D02*
G37*
G36*
X717999D02*
X712999Y192000D01*
X707999Y197000D01*
X712999Y202000D01*
X717999Y197000D01*
D02*
G37*
G36*
X705999D02*
X700999Y192000D01*
X695999Y197000D01*
X700999Y202000D01*
X705999Y197000D01*
D02*
G37*
G36*
X693999D02*
X688999Y192000D01*
X683999Y197000D01*
X688999Y202000D01*
X693999Y197000D01*
D02*
G37*
G36*
X681999D02*
X676999Y192000D01*
X671999Y197000D01*
X676999Y202000D01*
X681999Y197000D01*
D02*
G37*
G36*
X669999D02*
X664999Y192000D01*
X659999Y197000D01*
X664999Y202000D01*
X669999Y197000D01*
D02*
G37*
G36*
X657999D02*
X652999Y192000D01*
X647999Y197000D01*
X652999Y202000D01*
X657999Y197000D01*
D02*
G37*
G36*
X645999D02*
X640999Y192000D01*
X635999Y197000D01*
X640999Y202000D01*
X645999Y197000D01*
D02*
G37*
G36*
X633999D02*
X628999Y192000D01*
X623999Y197000D01*
X628999Y202000D01*
X633999Y197000D01*
D02*
G37*
G36*
X621999D02*
X616999Y192000D01*
X611999Y197000D01*
X616999Y202000D01*
X621999Y197000D01*
D02*
G37*
G36*
X585999D02*
X580999Y192000D01*
X575999Y197000D01*
X580999Y202000D01*
X585999Y197000D01*
D02*
G37*
G36*
X573999D02*
X568999Y192000D01*
X563999Y197000D01*
X568999Y202000D01*
X573999Y197000D01*
D02*
G37*
G36*
X561999D02*
X556999Y192000D01*
X551999Y197000D01*
X556999Y202000D01*
X561999Y197000D01*
D02*
G37*
G36*
X549999D02*
X544999Y192000D01*
X539999Y197000D01*
X544999Y202000D01*
X549999Y197000D01*
D02*
G37*
G36*
X537999D02*
X532999Y192000D01*
X527999Y197000D01*
X532999Y202000D01*
X537999Y197000D01*
D02*
G37*
G36*
X525999D02*
X520999Y192000D01*
X515999Y197000D01*
X520999Y202000D01*
X525999Y197000D01*
D02*
G37*
G36*
X513999D02*
X508999Y192000D01*
X503999Y197000D01*
X508999Y202000D01*
X513999Y197000D01*
D02*
G37*
G36*
X501999D02*
X496999Y192000D01*
X491999Y197000D01*
X496999Y202000D01*
X501999Y197000D01*
D02*
G37*
G36*
X489999D02*
X484999Y192000D01*
X479999Y197000D01*
X484999Y202000D01*
X489999Y197000D01*
D02*
G37*
G36*
X477999D02*
X472999Y192000D01*
X467999Y197000D01*
X472999Y202000D01*
X477999Y197000D01*
D02*
G37*
G36*
X465999D02*
X460999Y192000D01*
X455999Y197000D01*
X460999Y202000D01*
X465999Y197000D01*
D02*
G37*
G36*
X453999D02*
X448999Y192000D01*
X443999Y197000D01*
X448999Y202000D01*
X453999Y197000D01*
D02*
G37*
G36*
X759998Y191000D02*
X754998Y186000D01*
X749998Y191000D01*
X754998Y196000D01*
X759998Y191000D01*
D02*
G37*
G36*
X747999D02*
X742999Y186000D01*
X737999Y191000D01*
X742999Y196000D01*
X747999Y191000D01*
D02*
G37*
G36*
X735999D02*
X730999Y186000D01*
X725999Y191000D01*
X730999Y196000D01*
X735999Y191000D01*
D02*
G37*
G36*
X723998D02*
X718998Y186000D01*
X713998Y191000D01*
X718998Y196000D01*
X723998Y191000D01*
D02*
G37*
G36*
X711999D02*
X706999Y186000D01*
X701999Y191000D01*
X706999Y196000D01*
X711999Y191000D01*
D02*
G37*
G36*
X699999D02*
X694999Y186000D01*
X689999Y191000D01*
X694999Y196000D01*
X699999Y191000D01*
D02*
G37*
G36*
X687999D02*
X682999Y186000D01*
X677999Y191000D01*
X682999Y196000D01*
X687999Y191000D01*
D02*
G37*
G36*
X675999D02*
X670999Y186000D01*
X665999Y191000D01*
X670999Y196000D01*
X675999Y191000D01*
D02*
G37*
G36*
X663999D02*
X658999Y186000D01*
X653999Y191000D01*
X658999Y196000D01*
X663999Y191000D01*
D02*
G37*
G36*
X651999D02*
X646999Y186000D01*
X641999Y191000D01*
X646999Y196000D01*
X651999Y191000D01*
D02*
G37*
G36*
X639999D02*
X634999Y186000D01*
X629999Y191000D01*
X634999Y196000D01*
X639999Y191000D01*
D02*
G37*
G36*
X627999D02*
X622999Y186000D01*
X617999Y191000D01*
X622999Y196000D01*
X627999Y191000D01*
D02*
G37*
G36*
X579999D02*
X574999Y186000D01*
X569999Y191000D01*
X574999Y196000D01*
X579999Y191000D01*
D02*
G37*
G36*
X567999D02*
X562999Y186000D01*
X557999Y191000D01*
X562999Y196000D01*
X567999Y191000D01*
D02*
G37*
G36*
X555999D02*
X550999Y186000D01*
X545999Y191000D01*
X550999Y196000D01*
X555999Y191000D01*
D02*
G37*
G36*
X543999D02*
X538999Y186000D01*
X533999Y191000D01*
X538999Y196000D01*
X543999Y191000D01*
D02*
G37*
G36*
X531999D02*
X526999Y186000D01*
X521999Y191000D01*
X526999Y196000D01*
X531999Y191000D01*
D02*
G37*
G36*
X519999D02*
X514999Y186000D01*
X509999Y191000D01*
X514999Y196000D01*
X519999Y191000D01*
D02*
G37*
G36*
X507999D02*
X502999Y186000D01*
X497999Y191000D01*
X502999Y196000D01*
X507999Y191000D01*
D02*
G37*
G36*
X495999D02*
X490999Y186000D01*
X485999Y191000D01*
X490999Y196000D01*
X495999Y191000D01*
D02*
G37*
G36*
X483999D02*
X478999Y186000D01*
X473999Y191000D01*
X478999Y196000D01*
X483999Y191000D01*
D02*
G37*
G36*
X471999D02*
X466999Y186000D01*
X461999Y191000D01*
X466999Y196000D01*
X471999Y191000D01*
D02*
G37*
G36*
X459999D02*
X454999Y186000D01*
X449999Y191000D01*
X454999Y196000D01*
X459999Y191000D01*
D02*
G37*
G36*
X447999D02*
X442999Y186000D01*
X437999Y191000D01*
X442999Y196000D01*
X447999Y191000D01*
D02*
G37*
G36*
X765998Y185000D02*
X760999Y180000D01*
X755999Y185000D01*
X760999Y190000D01*
X765998Y185000D01*
D02*
G37*
G36*
X753998D02*
X748998Y180000D01*
X743998Y185000D01*
X748998Y190000D01*
X753998Y185000D01*
D02*
G37*
G36*
X741999D02*
X736999Y180000D01*
X731999Y185000D01*
X736999Y190000D01*
X741999Y185000D01*
D02*
G37*
G36*
X729998D02*
X724998Y180000D01*
X719998Y185000D01*
X724998Y190000D01*
X729998Y185000D01*
D02*
G37*
G36*
X717999D02*
X712999Y180000D01*
X707999Y185000D01*
X712999Y190000D01*
X717999Y185000D01*
D02*
G37*
G36*
X705999D02*
X700999Y180000D01*
X695999Y185000D01*
X700999Y190000D01*
X705999Y185000D01*
D02*
G37*
G36*
X693999D02*
X688999Y180000D01*
X683999Y185000D01*
X688999Y190000D01*
X693999Y185000D01*
D02*
G37*
G36*
X681999D02*
X676999Y180000D01*
X671999Y185000D01*
X676999Y190000D01*
X681999Y185000D01*
D02*
G37*
G36*
X669999D02*
X664999Y180000D01*
X659999Y185000D01*
X664999Y190000D01*
X669999Y185000D01*
D02*
G37*
G36*
X657999D02*
X652999Y180000D01*
X647999Y185000D01*
X652999Y190000D01*
X657999Y185000D01*
D02*
G37*
G36*
X645999D02*
X640999Y180000D01*
X635999Y185000D01*
X640999Y190000D01*
X645999Y185000D01*
D02*
G37*
G36*
X633999D02*
X628999Y180000D01*
X623999Y185000D01*
X628999Y190000D01*
X633999Y185000D01*
D02*
G37*
G36*
X621999D02*
X616999Y180000D01*
X611999Y185000D01*
X616999Y190000D01*
X621999Y185000D01*
D02*
G37*
G36*
X585999D02*
X580999Y180000D01*
X575999Y185000D01*
X580999Y190000D01*
X585999Y185000D01*
D02*
G37*
G36*
X573999D02*
X568999Y180000D01*
X563999Y185000D01*
X568999Y190000D01*
X573999Y185000D01*
D02*
G37*
G36*
X561999D02*
X556999Y180000D01*
X551999Y185000D01*
X556999Y190000D01*
X561999Y185000D01*
D02*
G37*
G36*
X549999D02*
X544999Y180000D01*
X539999Y185000D01*
X544999Y190000D01*
X549999Y185000D01*
D02*
G37*
G36*
X537999D02*
X532999Y180000D01*
X527999Y185000D01*
X532999Y190000D01*
X537999Y185000D01*
D02*
G37*
G36*
X525999D02*
X520999Y180000D01*
X515999Y185000D01*
X520999Y190000D01*
X525999Y185000D01*
D02*
G37*
G36*
X513999D02*
X508999Y180000D01*
X503999Y185000D01*
X508999Y190000D01*
X513999Y185000D01*
D02*
G37*
G36*
X501999D02*
X496999Y180000D01*
X491999Y185000D01*
X496999Y190000D01*
X501999Y185000D01*
D02*
G37*
G36*
X489999D02*
X484999Y180000D01*
X479999Y185000D01*
X484999Y190000D01*
X489999Y185000D01*
D02*
G37*
G36*
X477999D02*
X472999Y180000D01*
X467999Y185000D01*
X472999Y190000D01*
X477999Y185000D01*
D02*
G37*
G36*
X465999D02*
X460999Y180000D01*
X455999Y185000D01*
X460999Y190000D01*
X465999Y185000D01*
D02*
G37*
G36*
X453999D02*
X448999Y180000D01*
X443999Y185000D01*
X448999Y190000D01*
X453999Y185000D01*
D02*
G37*
G36*
X795998Y179000D02*
X790998Y174000D01*
X785998Y179000D01*
X790998Y184000D01*
X795998Y179000D01*
D02*
G37*
G36*
X783998D02*
X778998Y174000D01*
X773998Y179000D01*
X778998Y184000D01*
X783998Y179000D01*
D02*
G37*
G36*
X771998D02*
X766998Y174000D01*
X761999Y179000D01*
X766998Y184000D01*
X771998Y179000D01*
D02*
G37*
G36*
X759998D02*
X754998Y174000D01*
X749998Y179000D01*
X754998Y184000D01*
X759998Y179000D01*
D02*
G37*
G36*
X747999D02*
X742999Y174000D01*
X737999Y179000D01*
X742999Y184000D01*
X747999Y179000D01*
D02*
G37*
G36*
X735999D02*
X730999Y174000D01*
X725999Y179000D01*
X730999Y184000D01*
X735999Y179000D01*
D02*
G37*
G36*
X723998D02*
X718998Y174000D01*
X713998Y179000D01*
X718998Y184000D01*
X723998Y179000D01*
D02*
G37*
G36*
X711999D02*
X706999Y174000D01*
X701999Y179000D01*
X706999Y184000D01*
X711999Y179000D01*
D02*
G37*
G36*
X699999D02*
X694999Y174000D01*
X689999Y179000D01*
X694999Y184000D01*
X699999Y179000D01*
D02*
G37*
G36*
X687999D02*
X682999Y174000D01*
X677999Y179000D01*
X682999Y184000D01*
X687999Y179000D01*
D02*
G37*
G36*
X675999D02*
X670999Y174000D01*
X665999Y179000D01*
X670999Y184000D01*
X675999Y179000D01*
D02*
G37*
G36*
X663999D02*
X658999Y174000D01*
X653999Y179000D01*
X658999Y184000D01*
X663999Y179000D01*
D02*
G37*
G36*
X651999D02*
X646999Y174000D01*
X641999Y179000D01*
X646999Y184000D01*
X651999Y179000D01*
D02*
G37*
G36*
X639999D02*
X634999Y174000D01*
X629999Y179000D01*
X634999Y184000D01*
X639999Y179000D01*
D02*
G37*
G36*
X627999D02*
X622999Y174000D01*
X617999Y179000D01*
X622999Y184000D01*
X627999Y179000D01*
D02*
G37*
G36*
X579999D02*
X574999Y174000D01*
X569999Y179000D01*
X574999Y184000D01*
X579999Y179000D01*
D02*
G37*
G36*
X567999D02*
X562999Y174000D01*
X557999Y179000D01*
X562999Y184000D01*
X567999Y179000D01*
D02*
G37*
G36*
X555999D02*
X550999Y174000D01*
X545999Y179000D01*
X550999Y184000D01*
X555999Y179000D01*
D02*
G37*
G36*
X543999D02*
X538999Y174000D01*
X533999Y179000D01*
X538999Y184000D01*
X543999Y179000D01*
D02*
G37*
G36*
X531999D02*
X526999Y174000D01*
X521999Y179000D01*
X526999Y184000D01*
X531999Y179000D01*
D02*
G37*
G36*
X519999D02*
X514999Y174000D01*
X509999Y179000D01*
X514999Y184000D01*
X519999Y179000D01*
D02*
G37*
G36*
X507999D02*
X502999Y174000D01*
X497999Y179000D01*
X502999Y184000D01*
X507999Y179000D01*
D02*
G37*
G36*
X495999D02*
X490999Y174000D01*
X485999Y179000D01*
X490999Y184000D01*
X495999Y179000D01*
D02*
G37*
G36*
X483999D02*
X478999Y174000D01*
X473999Y179000D01*
X478999Y184000D01*
X483999Y179000D01*
D02*
G37*
G36*
X471999D02*
X466999Y174000D01*
X461999Y179000D01*
X466999Y184000D01*
X471999Y179000D01*
D02*
G37*
G36*
X459999D02*
X454999Y174000D01*
X449999Y179000D01*
X454999Y184000D01*
X459999Y179000D01*
D02*
G37*
G36*
X447999D02*
X442999Y174000D01*
X437999Y179000D01*
X442999Y184000D01*
X447999Y179000D01*
D02*
G37*
G36*
X44351Y188613D02*
X43698Y187959D01*
X43145Y187132D01*
X42951Y186157D01*
Y172438D01*
X39148Y168635D01*
X37351Y169666D01*
X37434Y170079D01*
X37434Y172421D01*
X37239Y173396D01*
X36344Y175559D01*
X35791Y176386D01*
X35791Y176386D01*
X34136Y178041D01*
X33309Y178594D01*
X31146Y179489D01*
X30779Y179563D01*
X30420Y179671D01*
X29250Y179787D01*
X27500Y180786D01*
Y190461D01*
X43586D01*
X44351Y188613D01*
D02*
G37*
G36*
X789998Y173000D02*
X784998Y168000D01*
X779998Y173000D01*
X784998Y178000D01*
X789998Y173000D01*
D02*
G37*
G36*
X777998D02*
X772998Y168000D01*
X767998Y173000D01*
X772998Y178000D01*
X777998Y173000D01*
D02*
G37*
G36*
X765998D02*
X760999Y168000D01*
X755999Y173000D01*
X760999Y178000D01*
X765998Y173000D01*
D02*
G37*
G36*
X753998D02*
X748998Y168000D01*
X743998Y173000D01*
X748998Y178000D01*
X753998Y173000D01*
D02*
G37*
G36*
X741999D02*
X736999Y168000D01*
X731999Y173000D01*
X736999Y178000D01*
X741999Y173000D01*
D02*
G37*
G36*
X729998D02*
X724998Y168000D01*
X719998Y173000D01*
X724998Y178000D01*
X729998Y173000D01*
D02*
G37*
G36*
X717999D02*
X712999Y168000D01*
X707999Y173000D01*
X712999Y178000D01*
X717999Y173000D01*
D02*
G37*
G36*
X705999D02*
X700999Y168000D01*
X695999Y173000D01*
X700999Y178000D01*
X705999Y173000D01*
D02*
G37*
G36*
X693999D02*
X688999Y168000D01*
X683999Y173000D01*
X688999Y178000D01*
X693999Y173000D01*
D02*
G37*
G36*
X681999D02*
X676999Y168000D01*
X671999Y173000D01*
X676999Y178000D01*
X681999Y173000D01*
D02*
G37*
G36*
X669999D02*
X664999Y168000D01*
X659999Y173000D01*
X664999Y178000D01*
X669999Y173000D01*
D02*
G37*
G36*
X657999D02*
X652999Y168000D01*
X647999Y173000D01*
X652999Y178000D01*
X657999Y173000D01*
D02*
G37*
G36*
X645999D02*
X640999Y168000D01*
X635999Y173000D01*
X640999Y178000D01*
X645999Y173000D01*
D02*
G37*
G36*
X633999D02*
X628999Y168000D01*
X623999Y173000D01*
X628999Y178000D01*
X633999Y173000D01*
D02*
G37*
G36*
X621999D02*
X616999Y168000D01*
X611999Y173000D01*
X616999Y178000D01*
X621999Y173000D01*
D02*
G37*
G36*
X585999D02*
X580999Y168000D01*
X575999Y173000D01*
X580999Y178000D01*
X585999Y173000D01*
D02*
G37*
G36*
X573999D02*
X568999Y168000D01*
X563999Y173000D01*
X568999Y178000D01*
X573999Y173000D01*
D02*
G37*
G36*
X561999D02*
X556999Y168000D01*
X551999Y173000D01*
X556999Y178000D01*
X561999Y173000D01*
D02*
G37*
G36*
X549999D02*
X544999Y168000D01*
X539999Y173000D01*
X544999Y178000D01*
X549999Y173000D01*
D02*
G37*
G36*
X537999D02*
X532999Y168000D01*
X527999Y173000D01*
X532999Y178000D01*
X537999Y173000D01*
D02*
G37*
G36*
X525999D02*
X520999Y168000D01*
X515999Y173000D01*
X520999Y178000D01*
X525999Y173000D01*
D02*
G37*
G36*
X513999D02*
X508999Y168000D01*
X503999Y173000D01*
X508999Y178000D01*
X513999Y173000D01*
D02*
G37*
G36*
X501999D02*
X496999Y168000D01*
X491999Y173000D01*
X496999Y178000D01*
X501999Y173000D01*
D02*
G37*
G36*
X489999D02*
X484999Y168000D01*
X479999Y173000D01*
X484999Y178000D01*
X489999Y173000D01*
D02*
G37*
G36*
X477999D02*
X472999Y168000D01*
X467999Y173000D01*
X472999Y178000D01*
X477999Y173000D01*
D02*
G37*
G36*
X465999D02*
X460999Y168000D01*
X455999Y173000D01*
X460999Y178000D01*
X465999Y173000D01*
D02*
G37*
G36*
X453999D02*
X448999Y168000D01*
X443999Y173000D01*
X448999Y178000D01*
X453999Y173000D01*
D02*
G37*
G36*
X795998Y167000D02*
X790998Y162000D01*
X785998Y167000D01*
X790998Y172000D01*
X795998Y167000D01*
D02*
G37*
G36*
X783998D02*
X778998Y162000D01*
X773998Y167000D01*
X778998Y172000D01*
X783998Y167000D01*
D02*
G37*
G36*
X771998D02*
X766998Y162000D01*
X761999Y167000D01*
X766998Y172000D01*
X771998Y167000D01*
D02*
G37*
G36*
X759998D02*
X754998Y162000D01*
X749998Y167000D01*
X754998Y172000D01*
X759998Y167000D01*
D02*
G37*
G36*
X747999D02*
X742999Y162000D01*
X737999Y167000D01*
X742999Y172000D01*
X747999Y167000D01*
D02*
G37*
G36*
X735999D02*
X730999Y162000D01*
X725999Y167000D01*
X730999Y172000D01*
X735999Y167000D01*
D02*
G37*
G36*
X723998D02*
X718998Y162000D01*
X713998Y167000D01*
X718998Y172000D01*
X723998Y167000D01*
D02*
G37*
G36*
X711999D02*
X706999Y162000D01*
X701999Y167000D01*
X706999Y172000D01*
X711999Y167000D01*
D02*
G37*
G36*
X699999D02*
X694999Y162000D01*
X689999Y167000D01*
X694999Y172000D01*
X699999Y167000D01*
D02*
G37*
G36*
X687999D02*
X682999Y162000D01*
X677999Y167000D01*
X682999Y172000D01*
X687999Y167000D01*
D02*
G37*
G36*
X675999D02*
X670999Y162000D01*
X665999Y167000D01*
X670999Y172000D01*
X675999Y167000D01*
D02*
G37*
G36*
X663999D02*
X658999Y162000D01*
X653999Y167000D01*
X658999Y172000D01*
X663999Y167000D01*
D02*
G37*
G36*
X651999D02*
X646999Y162000D01*
X641999Y167000D01*
X646999Y172000D01*
X651999Y167000D01*
D02*
G37*
G36*
X639999D02*
X634999Y162000D01*
X629999Y167000D01*
X634999Y172000D01*
X639999Y167000D01*
D02*
G37*
G36*
X627999D02*
X622999Y162000D01*
X617999Y167000D01*
X622999Y172000D01*
X627999Y167000D01*
D02*
G37*
G36*
X579999D02*
X574999Y162000D01*
X569999Y167000D01*
X574999Y172000D01*
X579999Y167000D01*
D02*
G37*
G36*
X567999D02*
X562999Y162000D01*
X557999Y167000D01*
X562999Y172000D01*
X567999Y167000D01*
D02*
G37*
G36*
X555999D02*
X550999Y162000D01*
X545999Y167000D01*
X550999Y172000D01*
X555999Y167000D01*
D02*
G37*
G36*
X543999D02*
X538999Y162000D01*
X533999Y167000D01*
X538999Y172000D01*
X543999Y167000D01*
D02*
G37*
G36*
X531999D02*
X526999Y162000D01*
X521999Y167000D01*
X526999Y172000D01*
X531999Y167000D01*
D02*
G37*
G36*
X519999D02*
X514999Y162000D01*
X509999Y167000D01*
X514999Y172000D01*
X519999Y167000D01*
D02*
G37*
G36*
X507999D02*
X502999Y162000D01*
X497999Y167000D01*
X502999Y172000D01*
X507999Y167000D01*
D02*
G37*
G36*
X495999D02*
X490999Y162000D01*
X485999Y167000D01*
X490999Y172000D01*
X495999Y167000D01*
D02*
G37*
G36*
X483999D02*
X478999Y162000D01*
X473999Y167000D01*
X478999Y172000D01*
X483999Y167000D01*
D02*
G37*
G36*
X471999D02*
X466999Y162000D01*
X461999Y167000D01*
X466999Y172000D01*
X471999Y167000D01*
D02*
G37*
G36*
X459999D02*
X454999Y162000D01*
X449999Y167000D01*
X454999Y172000D01*
X459999Y167000D01*
D02*
G37*
G36*
X447999D02*
X442999Y162000D01*
X437999Y167000D01*
X442999Y172000D01*
X447999Y167000D01*
D02*
G37*
G36*
X107247Y158312D02*
Y132500D01*
Y124297D01*
X62854Y79904D01*
X61561Y80768D01*
X60000Y81078D01*
X58439Y80768D01*
X57692Y80269D01*
X55593Y80689D01*
X55116Y81448D01*
X55109Y81459D01*
X55028Y81849D01*
X55051Y82732D01*
X55780Y83220D01*
X56422Y83861D01*
X58243D01*
X60018Y84214D01*
X61523Y85220D01*
X66280Y89977D01*
X67286Y91482D01*
X67639Y93257D01*
Y109336D01*
X72164Y113861D01*
X83243D01*
X85018Y114214D01*
X86523Y115220D01*
X92780Y121477D01*
X93786Y122982D01*
X94139Y124757D01*
Y156079D01*
X95972Y157911D01*
X98220Y158220D01*
X99725Y157214D01*
X101500Y156861D01*
X103275Y157214D01*
X104780Y158220D01*
X105247Y158918D01*
X107247Y158312D01*
D02*
G37*
G36*
X789998Y161000D02*
X784998Y156000D01*
X779998Y161000D01*
X784998Y166000D01*
X789998Y161000D01*
D02*
G37*
G36*
X777998D02*
X772998Y156000D01*
X767998Y161000D01*
X772998Y166000D01*
X777998Y161000D01*
D02*
G37*
G36*
X765998D02*
X760999Y156000D01*
X755999Y161000D01*
X760999Y166000D01*
X765998Y161000D01*
D02*
G37*
G36*
X753998D02*
X748998Y156000D01*
X743998Y161000D01*
X748998Y166000D01*
X753998Y161000D01*
D02*
G37*
G36*
X741999D02*
X736999Y156000D01*
X731999Y161000D01*
X736999Y166000D01*
X741999Y161000D01*
D02*
G37*
G36*
X729998D02*
X724998Y156000D01*
X719998Y161000D01*
X724998Y166000D01*
X729998Y161000D01*
D02*
G37*
G36*
X717999D02*
X712999Y156000D01*
X707999Y161000D01*
X712999Y166000D01*
X717999Y161000D01*
D02*
G37*
G36*
X705999D02*
X700999Y156000D01*
X695999Y161000D01*
X700999Y166000D01*
X705999Y161000D01*
D02*
G37*
G36*
X693999D02*
X688999Y156000D01*
X683999Y161000D01*
X688999Y166000D01*
X693999Y161000D01*
D02*
G37*
G36*
X681999D02*
X676999Y156000D01*
X671999Y161000D01*
X676999Y166000D01*
X681999Y161000D01*
D02*
G37*
G36*
X669999D02*
X664999Y156000D01*
X659999Y161000D01*
X664999Y166000D01*
X669999Y161000D01*
D02*
G37*
G36*
X657999D02*
X652999Y156000D01*
X647999Y161000D01*
X652999Y166000D01*
X657999Y161000D01*
D02*
G37*
G36*
X645999D02*
X640999Y156000D01*
X635999Y161000D01*
X640999Y166000D01*
X645999Y161000D01*
D02*
G37*
G36*
X633999D02*
X628999Y156000D01*
X623999Y161000D01*
X628999Y166000D01*
X633999Y161000D01*
D02*
G37*
G36*
X621999D02*
X616999Y156000D01*
X611999Y161000D01*
X616999Y166000D01*
X621999Y161000D01*
D02*
G37*
G36*
X585999D02*
X580999Y156000D01*
X575999Y161000D01*
X580999Y166000D01*
X585999Y161000D01*
D02*
G37*
G36*
X573999D02*
X568999Y156000D01*
X563999Y161000D01*
X568999Y166000D01*
X573999Y161000D01*
D02*
G37*
G36*
X561999D02*
X556999Y156000D01*
X551999Y161000D01*
X556999Y166000D01*
X561999Y161000D01*
D02*
G37*
G36*
X549999D02*
X544999Y156000D01*
X539999Y161000D01*
X544999Y166000D01*
X549999Y161000D01*
D02*
G37*
G36*
X537999D02*
X532999Y156000D01*
X527999Y161000D01*
X532999Y166000D01*
X537999Y161000D01*
D02*
G37*
G36*
X525999D02*
X520999Y156000D01*
X515999Y161000D01*
X520999Y166000D01*
X525999Y161000D01*
D02*
G37*
G36*
X513999D02*
X508999Y156000D01*
X503999Y161000D01*
X508999Y166000D01*
X513999Y161000D01*
D02*
G37*
G36*
X501999D02*
X496999Y156000D01*
X491999Y161000D01*
X496999Y166000D01*
X501999Y161000D01*
D02*
G37*
G36*
X489999D02*
X484999Y156000D01*
X479999Y161000D01*
X484999Y166000D01*
X489999Y161000D01*
D02*
G37*
G36*
X477999D02*
X472999Y156000D01*
X467999Y161000D01*
X472999Y166000D01*
X477999Y161000D01*
D02*
G37*
G36*
X465999D02*
X460999Y156000D01*
X455999Y161000D01*
X460999Y166000D01*
X465999Y161000D01*
D02*
G37*
G36*
X453999D02*
X448999Y156000D01*
X443999Y161000D01*
X448999Y166000D01*
X453999Y161000D01*
D02*
G37*
G36*
X783998Y155000D02*
X778998Y150000D01*
X773998Y155000D01*
X778998Y160000D01*
X783998Y155000D01*
D02*
G37*
G36*
X771998D02*
X766998Y150000D01*
X761999Y155000D01*
X766998Y160000D01*
X771998Y155000D01*
D02*
G37*
G36*
X759998D02*
X754998Y150000D01*
X749998Y155000D01*
X754998Y160000D01*
X759998Y155000D01*
D02*
G37*
G36*
X747999D02*
X742999Y150000D01*
X737999Y155000D01*
X742999Y160000D01*
X747999Y155000D01*
D02*
G37*
G36*
X735999D02*
X730999Y150000D01*
X725999Y155000D01*
X730999Y160000D01*
X735999Y155000D01*
D02*
G37*
G36*
X723998D02*
X718998Y150000D01*
X713998Y155000D01*
X718998Y160000D01*
X723998Y155000D01*
D02*
G37*
G36*
X711999D02*
X706999Y150000D01*
X701999Y155000D01*
X706999Y160000D01*
X711999Y155000D01*
D02*
G37*
G36*
X699999D02*
X694999Y150000D01*
X689999Y155000D01*
X694999Y160000D01*
X699999Y155000D01*
D02*
G37*
G36*
X687999D02*
X682999Y150000D01*
X677999Y155000D01*
X682999Y160000D01*
X687999Y155000D01*
D02*
G37*
G36*
X675999D02*
X670999Y150000D01*
X665999Y155000D01*
X670999Y160000D01*
X675999Y155000D01*
D02*
G37*
G36*
X663999D02*
X658999Y150000D01*
X653999Y155000D01*
X658999Y160000D01*
X663999Y155000D01*
D02*
G37*
G36*
X651999D02*
X646999Y150000D01*
X641999Y155000D01*
X646999Y160000D01*
X651999Y155000D01*
D02*
G37*
G36*
X639999D02*
X634999Y150000D01*
X629999Y155000D01*
X634999Y160000D01*
X639999Y155000D01*
D02*
G37*
G36*
X627999D02*
X622999Y150000D01*
X617999Y155000D01*
X622999Y160000D01*
X627999Y155000D01*
D02*
G37*
G36*
X579999D02*
X574999Y150000D01*
X569999Y155000D01*
X574999Y160000D01*
X579999Y155000D01*
D02*
G37*
G36*
X567999D02*
X562999Y150000D01*
X557999Y155000D01*
X562999Y160000D01*
X567999Y155000D01*
D02*
G37*
G36*
X555999D02*
X550999Y150000D01*
X545999Y155000D01*
X550999Y160000D01*
X555999Y155000D01*
D02*
G37*
G36*
X543999D02*
X538999Y150000D01*
X533999Y155000D01*
X538999Y160000D01*
X543999Y155000D01*
D02*
G37*
G36*
X531999D02*
X526999Y150000D01*
X521999Y155000D01*
X526999Y160000D01*
X531999Y155000D01*
D02*
G37*
G36*
X519999D02*
X514999Y150000D01*
X509999Y155000D01*
X514999Y160000D01*
X519999Y155000D01*
D02*
G37*
G36*
X507999D02*
X502999Y150000D01*
X497999Y155000D01*
X502999Y160000D01*
X507999Y155000D01*
D02*
G37*
G36*
X495999D02*
X490999Y150000D01*
X485999Y155000D01*
X490999Y160000D01*
X495999Y155000D01*
D02*
G37*
G36*
X483999D02*
X478999Y150000D01*
X473999Y155000D01*
X478999Y160000D01*
X483999Y155000D01*
D02*
G37*
G36*
X471999D02*
X466999Y150000D01*
X461999Y155000D01*
X466999Y160000D01*
X471999Y155000D01*
D02*
G37*
G36*
X459999D02*
X454999Y150000D01*
X449999Y155000D01*
X454999Y160000D01*
X459999Y155000D01*
D02*
G37*
G36*
X447999D02*
X442999Y150000D01*
X437999Y155000D01*
X442999Y160000D01*
X447999Y155000D01*
D02*
G37*
G36*
X777998Y149000D02*
X772998Y144000D01*
X767998Y149000D01*
X772998Y154000D01*
X777998Y149000D01*
D02*
G37*
G36*
X765998D02*
X760999Y144000D01*
X755999Y149000D01*
X760999Y154000D01*
X765998Y149000D01*
D02*
G37*
G36*
X753998D02*
X748998Y144000D01*
X743998Y149000D01*
X748998Y154000D01*
X753998Y149000D01*
D02*
G37*
G36*
X741999D02*
X736999Y144000D01*
X731999Y149000D01*
X736999Y154000D01*
X741999Y149000D01*
D02*
G37*
G36*
X729998D02*
X724998Y144000D01*
X719998Y149000D01*
X724998Y154000D01*
X729998Y149000D01*
D02*
G37*
G36*
X717999D02*
X712999Y144000D01*
X707999Y149000D01*
X712999Y154000D01*
X717999Y149000D01*
D02*
G37*
G36*
X705999D02*
X700999Y144000D01*
X695999Y149000D01*
X700999Y154000D01*
X705999Y149000D01*
D02*
G37*
G36*
X693999D02*
X688999Y144000D01*
X683999Y149000D01*
X688999Y154000D01*
X693999Y149000D01*
D02*
G37*
G36*
X681999D02*
X676999Y144000D01*
X671999Y149000D01*
X676999Y154000D01*
X681999Y149000D01*
D02*
G37*
G36*
X669999D02*
X664999Y144000D01*
X659999Y149000D01*
X664999Y154000D01*
X669999Y149000D01*
D02*
G37*
G36*
X657999D02*
X652999Y144000D01*
X647999Y149000D01*
X652999Y154000D01*
X657999Y149000D01*
D02*
G37*
G36*
X645999D02*
X640999Y144000D01*
X635999Y149000D01*
X640999Y154000D01*
X645999Y149000D01*
D02*
G37*
G36*
X633999D02*
X628999Y144000D01*
X623999Y149000D01*
X628999Y154000D01*
X633999Y149000D01*
D02*
G37*
G36*
X621999D02*
X616999Y144000D01*
X611999Y149000D01*
X616999Y154000D01*
X621999Y149000D01*
D02*
G37*
G36*
X585999D02*
X580999Y144000D01*
X575999Y149000D01*
X580999Y154000D01*
X585999Y149000D01*
D02*
G37*
G36*
X573999D02*
X568999Y144000D01*
X563999Y149000D01*
X568999Y154000D01*
X573999Y149000D01*
D02*
G37*
G36*
X561999D02*
X556999Y144000D01*
X551999Y149000D01*
X556999Y154000D01*
X561999Y149000D01*
D02*
G37*
G36*
X549999D02*
X544999Y144000D01*
X539999Y149000D01*
X544999Y154000D01*
X549999Y149000D01*
D02*
G37*
G36*
X537999D02*
X532999Y144000D01*
X527999Y149000D01*
X532999Y154000D01*
X537999Y149000D01*
D02*
G37*
G36*
X525999D02*
X520999Y144000D01*
X515999Y149000D01*
X520999Y154000D01*
X525999Y149000D01*
D02*
G37*
G36*
X513999D02*
X508999Y144000D01*
X503999Y149000D01*
X508999Y154000D01*
X513999Y149000D01*
D02*
G37*
G36*
X501999D02*
X496999Y144000D01*
X491999Y149000D01*
X496999Y154000D01*
X501999Y149000D01*
D02*
G37*
G36*
X489999D02*
X484999Y144000D01*
X479999Y149000D01*
X484999Y154000D01*
X489999Y149000D01*
D02*
G37*
G36*
X477999D02*
X472999Y144000D01*
X467999Y149000D01*
X472999Y154000D01*
X477999Y149000D01*
D02*
G37*
G36*
X465999D02*
X460999Y144000D01*
X455999Y149000D01*
X460999Y154000D01*
X465999Y149000D01*
D02*
G37*
G36*
X453999D02*
X448999Y144000D01*
X443999Y149000D01*
X448999Y154000D01*
X453999Y149000D01*
D02*
G37*
G36*
X771998Y143000D02*
X766998Y138000D01*
X761999Y143000D01*
X766998Y148000D01*
X771998Y143000D01*
D02*
G37*
G36*
X759998D02*
X754998Y138000D01*
X749998Y143000D01*
X754998Y148000D01*
X759998Y143000D01*
D02*
G37*
G36*
X747999D02*
X742999Y138000D01*
X737999Y143000D01*
X742999Y148000D01*
X747999Y143000D01*
D02*
G37*
G36*
X735999D02*
X730999Y138000D01*
X725999Y143000D01*
X730999Y148000D01*
X735999Y143000D01*
D02*
G37*
G36*
X723998D02*
X718998Y138000D01*
X713998Y143000D01*
X718998Y148000D01*
X723998Y143000D01*
D02*
G37*
G36*
X711999D02*
X706999Y138000D01*
X701999Y143000D01*
X706999Y148000D01*
X711999Y143000D01*
D02*
G37*
G36*
X699999D02*
X694999Y138000D01*
X689999Y143000D01*
X694999Y148000D01*
X699999Y143000D01*
D02*
G37*
G36*
X687999D02*
X682999Y138000D01*
X677999Y143000D01*
X682999Y148000D01*
X687999Y143000D01*
D02*
G37*
G36*
X675999D02*
X670999Y138000D01*
X665999Y143000D01*
X670999Y148000D01*
X675999Y143000D01*
D02*
G37*
G36*
X663999D02*
X658999Y138000D01*
X653999Y143000D01*
X658999Y148000D01*
X663999Y143000D01*
D02*
G37*
G36*
X651999D02*
X646999Y138000D01*
X641999Y143000D01*
X646999Y148000D01*
X651999Y143000D01*
D02*
G37*
G36*
X639999D02*
X634999Y138000D01*
X629999Y143000D01*
X634999Y148000D01*
X639999Y143000D01*
D02*
G37*
G36*
X627999D02*
X622999Y138000D01*
X617999Y143000D01*
X622999Y148000D01*
X627999Y143000D01*
D02*
G37*
G36*
X579999D02*
X574999Y138000D01*
X569999Y143000D01*
X574999Y148000D01*
X579999Y143000D01*
D02*
G37*
G36*
X567999D02*
X562999Y138000D01*
X557999Y143000D01*
X562999Y148000D01*
X567999Y143000D01*
D02*
G37*
G36*
X555999D02*
X550999Y138000D01*
X545999Y143000D01*
X550999Y148000D01*
X555999Y143000D01*
D02*
G37*
G36*
X543999D02*
X538999Y138000D01*
X533999Y143000D01*
X538999Y148000D01*
X543999Y143000D01*
D02*
G37*
G36*
X531999D02*
X526999Y138000D01*
X521999Y143000D01*
X526999Y148000D01*
X531999Y143000D01*
D02*
G37*
G36*
X519999D02*
X514999Y138000D01*
X509999Y143000D01*
X514999Y148000D01*
X519999Y143000D01*
D02*
G37*
G36*
X507999D02*
X502999Y138000D01*
X497999Y143000D01*
X502999Y148000D01*
X507999Y143000D01*
D02*
G37*
G36*
X495999D02*
X490999Y138000D01*
X485999Y143000D01*
X490999Y148000D01*
X495999Y143000D01*
D02*
G37*
G36*
X483999D02*
X478999Y138000D01*
X473999Y143000D01*
X478999Y148000D01*
X483999Y143000D01*
D02*
G37*
G36*
X471999D02*
X466999Y138000D01*
X461999Y143000D01*
X466999Y148000D01*
X471999Y143000D01*
D02*
G37*
G36*
X459999D02*
X454999Y138000D01*
X449999Y143000D01*
X454999Y148000D01*
X459999Y143000D01*
D02*
G37*
G36*
X447999D02*
X442999Y138000D01*
X437999Y143000D01*
X442999Y148000D01*
X447999Y143000D01*
D02*
G37*
G36*
X765998Y137000D02*
X760999Y132000D01*
X755999Y137000D01*
X760999Y142000D01*
X765998Y137000D01*
D02*
G37*
G36*
X753998D02*
X748998Y132000D01*
X743998Y137000D01*
X748998Y142000D01*
X753998Y137000D01*
D02*
G37*
G36*
X741999D02*
X736999Y132000D01*
X731999Y137000D01*
X736999Y142000D01*
X741999Y137000D01*
D02*
G37*
G36*
X729998D02*
X724998Y132000D01*
X719998Y137000D01*
X724998Y142000D01*
X729998Y137000D01*
D02*
G37*
G36*
X717999D02*
X712999Y132000D01*
X707999Y137000D01*
X712999Y142000D01*
X717999Y137000D01*
D02*
G37*
G36*
X705999D02*
X700999Y132000D01*
X695999Y137000D01*
X700999Y142000D01*
X705999Y137000D01*
D02*
G37*
G36*
X693999D02*
X688999Y132000D01*
X683999Y137000D01*
X688999Y142000D01*
X693999Y137000D01*
D02*
G37*
G36*
X681999D02*
X676999Y132000D01*
X671999Y137000D01*
X676999Y142000D01*
X681999Y137000D01*
D02*
G37*
G36*
X669999D02*
X664999Y132000D01*
X659999Y137000D01*
X664999Y142000D01*
X669999Y137000D01*
D02*
G37*
G36*
X657999D02*
X652999Y132000D01*
X647999Y137000D01*
X652999Y142000D01*
X657999Y137000D01*
D02*
G37*
G36*
X645999D02*
X640999Y132000D01*
X635999Y137000D01*
X640999Y142000D01*
X645999Y137000D01*
D02*
G37*
G36*
X633999D02*
X628999Y132000D01*
X623999Y137000D01*
X628999Y142000D01*
X633999Y137000D01*
D02*
G37*
G36*
X573999D02*
X568999Y132000D01*
X563999Y137000D01*
X568999Y142000D01*
X573999Y137000D01*
D02*
G37*
G36*
X561999D02*
X556999Y132000D01*
X551999Y137000D01*
X556999Y142000D01*
X561999Y137000D01*
D02*
G37*
G36*
X549999D02*
X544999Y132000D01*
X539999Y137000D01*
X544999Y142000D01*
X549999Y137000D01*
D02*
G37*
G36*
X537999D02*
X532999Y132000D01*
X527999Y137000D01*
X532999Y142000D01*
X537999Y137000D01*
D02*
G37*
G36*
X525999D02*
X520999Y132000D01*
X515999Y137000D01*
X520999Y142000D01*
X525999Y137000D01*
D02*
G37*
G36*
X513999D02*
X508999Y132000D01*
X503999Y137000D01*
X508999Y142000D01*
X513999Y137000D01*
D02*
G37*
G36*
X501999D02*
X496999Y132000D01*
X491999Y137000D01*
X496999Y142000D01*
X501999Y137000D01*
D02*
G37*
G36*
X489999D02*
X484999Y132000D01*
X479999Y137000D01*
X484999Y142000D01*
X489999Y137000D01*
D02*
G37*
G36*
X477999D02*
X472999Y132000D01*
X467999Y137000D01*
X472999Y142000D01*
X477999Y137000D01*
D02*
G37*
G36*
X465999D02*
X460999Y132000D01*
X455999Y137000D01*
X460999Y142000D01*
X465999Y137000D01*
D02*
G37*
G36*
X453999D02*
X448999Y132000D01*
X443999Y137000D01*
X448999Y142000D01*
X453999Y137000D01*
D02*
G37*
G36*
X49361Y150143D02*
Y139422D01*
X37578Y127639D01*
X37164D01*
X32523Y132280D01*
X31018Y133286D01*
X30188Y133451D01*
X30385Y135451D01*
X35500D01*
X36476Y135645D01*
X37302Y136198D01*
X39302Y138198D01*
X39855Y139024D01*
X40049Y140000D01*
Y143444D01*
X47513Y150908D01*
X49361Y150143D01*
D02*
G37*
G36*
X80741Y155318D02*
X81861Y154855D01*
Y127922D01*
X80078Y126139D01*
X71611D01*
X70417Y128139D01*
X70639Y129257D01*
Y151753D01*
X72500Y153422D01*
X74061Y153732D01*
X75384Y154616D01*
X75471Y154747D01*
X78000D01*
X79054Y154957D01*
X79861Y155496D01*
X80741Y155318D01*
D02*
G37*
G36*
X759998Y131000D02*
X754998Y126000D01*
X749998Y131000D01*
X754998Y136000D01*
X759998Y131000D01*
D02*
G37*
G36*
X747999D02*
X742999Y126000D01*
X737999Y131000D01*
X742999Y136000D01*
X747999Y131000D01*
D02*
G37*
G36*
X735999D02*
X730999Y126000D01*
X725999Y131000D01*
X730999Y136000D01*
X735999Y131000D01*
D02*
G37*
G36*
X723998D02*
X718998Y126000D01*
X713998Y131000D01*
X718998Y136000D01*
X723998Y131000D01*
D02*
G37*
G36*
X711999D02*
X706999Y126000D01*
X701999Y131000D01*
X706999Y136000D01*
X711999Y131000D01*
D02*
G37*
G36*
X699999D02*
X694999Y126000D01*
X689999Y131000D01*
X694999Y136000D01*
X699999Y131000D01*
D02*
G37*
G36*
X687999D02*
X682999Y126000D01*
X677999Y131000D01*
X682999Y136000D01*
X687999Y131000D01*
D02*
G37*
G36*
X675999D02*
X670999Y126000D01*
X665999Y131000D01*
X670999Y136000D01*
X675999Y131000D01*
D02*
G37*
G36*
X663999D02*
X658999Y126000D01*
X653999Y131000D01*
X658999Y136000D01*
X663999Y131000D01*
D02*
G37*
G36*
X651999D02*
X646999Y126000D01*
X641999Y131000D01*
X646999Y136000D01*
X651999Y131000D01*
D02*
G37*
G36*
X639999D02*
X634999Y126000D01*
X629999Y131000D01*
X634999Y136000D01*
X639999Y131000D01*
D02*
G37*
G36*
X567999D02*
X562999Y126000D01*
X557999Y131000D01*
X562999Y136000D01*
X567999Y131000D01*
D02*
G37*
G36*
X555999D02*
X550999Y126000D01*
X545999Y131000D01*
X550999Y136000D01*
X555999Y131000D01*
D02*
G37*
G36*
X543999D02*
X538999Y126000D01*
X533999Y131000D01*
X538999Y136000D01*
X543999Y131000D01*
D02*
G37*
G36*
X531999D02*
X526999Y126000D01*
X521999Y131000D01*
X526999Y136000D01*
X531999Y131000D01*
D02*
G37*
G36*
X519999D02*
X514999Y126000D01*
X509999Y131000D01*
X514999Y136000D01*
X519999Y131000D01*
D02*
G37*
G36*
X507999D02*
X502999Y126000D01*
X497999Y131000D01*
X502999Y136000D01*
X507999Y131000D01*
D02*
G37*
G36*
X495999D02*
X490999Y126000D01*
X485999Y131000D01*
X490999Y136000D01*
X495999Y131000D01*
D02*
G37*
G36*
X483999D02*
X478999Y126000D01*
X473999Y131000D01*
X478999Y136000D01*
X483999Y131000D01*
D02*
G37*
G36*
X471999D02*
X466999Y126000D01*
X461999Y131000D01*
X466999Y136000D01*
X471999Y131000D01*
D02*
G37*
G36*
X459999D02*
X454999Y126000D01*
X449999Y131000D01*
X454999Y136000D01*
X459999Y131000D01*
D02*
G37*
G36*
X121477Y167720D02*
X122982Y166714D01*
X124757Y166361D01*
X143828D01*
X144470Y165720D01*
X145975Y164714D01*
X147750Y164361D01*
X149525Y164714D01*
X151030Y165720D01*
X151951Y167097D01*
X152097Y167118D01*
X153951Y166009D01*
Y163806D01*
X149447Y159302D01*
X148895Y158475D01*
X148701Y157500D01*
Y148108D01*
X148366Y147884D01*
X147482Y146561D01*
X147172Y145000D01*
X147482Y143439D01*
X148366Y142116D01*
X148518Y140570D01*
X146947Y138999D01*
X146395Y138172D01*
X146201Y137197D01*
Y128108D01*
X145866Y127884D01*
X144982Y126561D01*
X144671Y125000D01*
X144720Y124753D01*
X143218Y122753D01*
X119000D01*
X118753Y122704D01*
X117009Y123806D01*
X116753Y124151D01*
Y169615D01*
X118753Y170444D01*
X121477Y167720D01*
D02*
G37*
G36*
X765998Y125000D02*
X760999Y120000D01*
X755999Y125000D01*
X760999Y130000D01*
X765998Y125000D01*
D02*
G37*
G36*
X753998D02*
X748998Y120000D01*
X743998Y125000D01*
X748998Y130000D01*
X753998Y125000D01*
D02*
G37*
G36*
X741999D02*
X736999Y120000D01*
X731999Y125000D01*
X736999Y130000D01*
X741999Y125000D01*
D02*
G37*
G36*
X729998D02*
X724998Y120000D01*
X719998Y125000D01*
X724998Y130000D01*
X729998Y125000D01*
D02*
G37*
G36*
X717999D02*
X712999Y120000D01*
X707999Y125000D01*
X712999Y130000D01*
X717999Y125000D01*
D02*
G37*
G36*
X705999D02*
X700999Y120000D01*
X695999Y125000D01*
X700999Y130000D01*
X705999Y125000D01*
D02*
G37*
G36*
X693999D02*
X688999Y120000D01*
X683999Y125000D01*
X688999Y130000D01*
X693999Y125000D01*
D02*
G37*
G36*
X681999D02*
X676999Y120000D01*
X671999Y125000D01*
X676999Y130000D01*
X681999Y125000D01*
D02*
G37*
G36*
X669999D02*
X664999Y120000D01*
X659999Y125000D01*
X664999Y130000D01*
X669999Y125000D01*
D02*
G37*
G36*
X657999D02*
X652999Y120000D01*
X647999Y125000D01*
X652999Y130000D01*
X657999Y125000D01*
D02*
G37*
G36*
X645999D02*
X640999Y120000D01*
X635999Y125000D01*
X640999Y130000D01*
X645999Y125000D01*
D02*
G37*
G36*
X561999D02*
X556999Y120000D01*
X551999Y125000D01*
X556999Y130000D01*
X561999Y125000D01*
D02*
G37*
G36*
X549999D02*
X544999Y120000D01*
X539999Y125000D01*
X544999Y130000D01*
X549999Y125000D01*
D02*
G37*
G36*
X537999D02*
X532999Y120000D01*
X527999Y125000D01*
X532999Y130000D01*
X537999Y125000D01*
D02*
G37*
G36*
X525999D02*
X520999Y120000D01*
X515999Y125000D01*
X520999Y130000D01*
X525999Y125000D01*
D02*
G37*
G36*
X513999D02*
X508999Y120000D01*
X503999Y125000D01*
X508999Y130000D01*
X513999Y125000D01*
D02*
G37*
G36*
X501999D02*
X496999Y120000D01*
X491999Y125000D01*
X496999Y130000D01*
X501999Y125000D01*
D02*
G37*
G36*
X489999D02*
X484999Y120000D01*
X479999Y125000D01*
X484999Y130000D01*
X489999Y125000D01*
D02*
G37*
G36*
X477999D02*
X472999Y120000D01*
X467999Y125000D01*
X472999Y130000D01*
X477999Y125000D01*
D02*
G37*
G36*
X465999D02*
X460999Y120000D01*
X455999Y125000D01*
X460999Y130000D01*
X465999Y125000D01*
D02*
G37*
G36*
X759998Y119000D02*
X754998Y114000D01*
X749998Y119000D01*
X754998Y124000D01*
X759998Y119000D01*
D02*
G37*
G36*
X747999D02*
X742999Y114000D01*
X737999Y119000D01*
X742999Y124000D01*
X747999Y119000D01*
D02*
G37*
G36*
X735999D02*
X730999Y114000D01*
X725999Y119000D01*
X730999Y124000D01*
X735999Y119000D01*
D02*
G37*
G36*
X723998D02*
X718998Y114000D01*
X713998Y119000D01*
X718998Y124000D01*
X723998Y119000D01*
D02*
G37*
G36*
X711999D02*
X706999Y114000D01*
X701999Y119000D01*
X706999Y124000D01*
X711999Y119000D01*
D02*
G37*
G36*
X699999D02*
X694999Y114000D01*
X689999Y119000D01*
X694999Y124000D01*
X699999Y119000D01*
D02*
G37*
G36*
X687999D02*
X682999Y114000D01*
X677999Y119000D01*
X682999Y124000D01*
X687999Y119000D01*
D02*
G37*
G36*
X675999D02*
X670999Y114000D01*
X665999Y119000D01*
X670999Y124000D01*
X675999Y119000D01*
D02*
G37*
G36*
X663999D02*
X658999Y114000D01*
X653999Y119000D01*
X658999Y124000D01*
X663999Y119000D01*
D02*
G37*
G36*
X651999D02*
X646999Y114000D01*
X641999Y119000D01*
X646999Y124000D01*
X651999Y119000D01*
D02*
G37*
G36*
X555999D02*
X550999Y114000D01*
X545999Y119000D01*
X550999Y124000D01*
X555999Y119000D01*
D02*
G37*
G36*
X543999D02*
X538999Y114000D01*
X533999Y119000D01*
X538999Y124000D01*
X543999Y119000D01*
D02*
G37*
G36*
X531999D02*
X526999Y114000D01*
X521999Y119000D01*
X526999Y124000D01*
X531999Y119000D01*
D02*
G37*
G36*
X519999D02*
X514999Y114000D01*
X509999Y119000D01*
X514999Y124000D01*
X519999Y119000D01*
D02*
G37*
G36*
X507999D02*
X502999Y114000D01*
X497999Y119000D01*
X502999Y124000D01*
X507999Y119000D01*
D02*
G37*
G36*
X495999D02*
X490999Y114000D01*
X485999Y119000D01*
X490999Y124000D01*
X495999Y119000D01*
D02*
G37*
G36*
X483999D02*
X478999Y114000D01*
X473999Y119000D01*
X478999Y124000D01*
X483999Y119000D01*
D02*
G37*
G36*
X471999D02*
X466999Y114000D01*
X461999Y119000D01*
X466999Y124000D01*
X471999Y119000D01*
D02*
G37*
G36*
X459999D02*
X454999Y114000D01*
X449999Y119000D01*
X454999Y124000D01*
X459999Y119000D01*
D02*
G37*
G36*
X30720Y116720D02*
X32225Y115714D01*
X34000Y115361D01*
X40743D01*
X42640Y113699D01*
X42701Y113262D01*
X41000Y111561D01*
X40780Y111780D01*
X39275Y112786D01*
X37500Y113139D01*
X35725Y112786D01*
X34220Y111780D01*
X33214Y110275D01*
X32861Y108500D01*
X33214Y106725D01*
X33250Y106671D01*
Y103329D01*
X33214Y103275D01*
X32861Y101500D01*
X33214Y99725D01*
X34220Y98220D01*
X35725Y97214D01*
X37500Y96861D01*
X39275Y97214D01*
X40780Y98220D01*
X41422Y98861D01*
X43743D01*
X45518Y99214D01*
X47023Y100220D01*
X53513Y106710D01*
X55361Y105944D01*
Y99283D01*
X53361Y97968D01*
X52500Y98139D01*
X50725Y97786D01*
X49220Y96780D01*
X48214Y95275D01*
X47861Y93500D01*
X48214Y91725D01*
X48250Y91671D01*
Y88329D01*
X48214Y88275D01*
X47861Y86500D01*
X48214Y84725D01*
X49220Y83220D01*
X49373Y83117D01*
X49486Y80782D01*
X47884Y80384D01*
X46561Y81268D01*
X45000Y81578D01*
X44429Y81465D01*
X42253Y83640D01*
Y86000D01*
X42253Y86000D01*
X42043Y87053D01*
X41447Y87947D01*
X41446Y87947D01*
X35947Y93447D01*
X35054Y94043D01*
X34000Y94253D01*
X32140D01*
X30753Y95640D01*
Y108500D01*
X30543Y109553D01*
X29947Y110447D01*
X29946Y110447D01*
X28447Y111947D01*
X27554Y112543D01*
X27500Y112554D01*
Y117326D01*
X29348Y118091D01*
X30720Y116720D01*
D02*
G37*
G36*
X765998Y113000D02*
X760999Y108000D01*
X755999Y113000D01*
X760999Y118000D01*
X765998Y113000D01*
D02*
G37*
G36*
X753998D02*
X748998Y108000D01*
X743998Y113000D01*
X748998Y118000D01*
X753998Y113000D01*
D02*
G37*
G36*
X741999D02*
X736999Y108000D01*
X731999Y113000D01*
X736999Y118000D01*
X741999Y113000D01*
D02*
G37*
G36*
X729998D02*
X724998Y108000D01*
X719998Y113000D01*
X724998Y118000D01*
X729998Y113000D01*
D02*
G37*
G36*
X717999D02*
X712999Y108000D01*
X707999Y113000D01*
X712999Y118000D01*
X717999Y113000D01*
D02*
G37*
G36*
X705999D02*
X700999Y108000D01*
X695999Y113000D01*
X700999Y118000D01*
X705999Y113000D01*
D02*
G37*
G36*
X693999D02*
X688999Y108000D01*
X683999Y113000D01*
X688999Y118000D01*
X693999Y113000D01*
D02*
G37*
G36*
X681999D02*
X676999Y108000D01*
X671999Y113000D01*
X676999Y118000D01*
X681999Y113000D01*
D02*
G37*
G36*
X669999D02*
X664999Y108000D01*
X659999Y113000D01*
X664999Y118000D01*
X669999Y113000D01*
D02*
G37*
G36*
X657999D02*
X652999Y108000D01*
X647999Y113000D01*
X652999Y118000D01*
X657999Y113000D01*
D02*
G37*
G36*
X645999D02*
X640999Y108000D01*
X635999Y113000D01*
X640999Y118000D01*
X645999Y113000D01*
D02*
G37*
G36*
X561999D02*
X556999Y108000D01*
X551999Y113000D01*
X556999Y118000D01*
X561999Y113000D01*
D02*
G37*
G36*
X549999D02*
X544999Y108000D01*
X539999Y113000D01*
X544999Y118000D01*
X549999Y113000D01*
D02*
G37*
G36*
X537999D02*
X532999Y108000D01*
X527999Y113000D01*
X532999Y118000D01*
X537999Y113000D01*
D02*
G37*
G36*
X525999D02*
X520999Y108000D01*
X515999Y113000D01*
X520999Y118000D01*
X525999Y113000D01*
D02*
G37*
G36*
X513999D02*
X508999Y108000D01*
X503999Y113000D01*
X508999Y118000D01*
X513999Y113000D01*
D02*
G37*
G36*
X501999D02*
X496999Y108000D01*
X491999Y113000D01*
X496999Y118000D01*
X501999Y113000D01*
D02*
G37*
G36*
X489999D02*
X484999Y108000D01*
X479999Y113000D01*
X484999Y118000D01*
X489999Y113000D01*
D02*
G37*
G36*
X477999D02*
X472999Y108000D01*
X467999Y113000D01*
X472999Y118000D01*
X477999Y113000D01*
D02*
G37*
G36*
X465999D02*
X460999Y108000D01*
X455999Y113000D01*
X460999Y118000D01*
X465999Y113000D01*
D02*
G37*
G36*
X759998Y107000D02*
X754998Y102000D01*
X749998Y107000D01*
X754998Y112000D01*
X759998Y107000D01*
D02*
G37*
G36*
X747999D02*
X742999Y102000D01*
X737999Y107000D01*
X742999Y112000D01*
X747999Y107000D01*
D02*
G37*
G36*
X735999D02*
X730999Y102000D01*
X725999Y107000D01*
X730999Y112000D01*
X735999Y107000D01*
D02*
G37*
G36*
X723998D02*
X718998Y102000D01*
X713998Y107000D01*
X718998Y112000D01*
X723998Y107000D01*
D02*
G37*
G36*
X711999D02*
X706999Y102000D01*
X701999Y107000D01*
X706999Y112000D01*
X711999Y107000D01*
D02*
G37*
G36*
X699999D02*
X694999Y102000D01*
X689999Y107000D01*
X694999Y112000D01*
X699999Y107000D01*
D02*
G37*
G36*
X687999D02*
X682999Y102000D01*
X677999Y107000D01*
X682999Y112000D01*
X687999Y107000D01*
D02*
G37*
G36*
X675999D02*
X670999Y102000D01*
X665999Y107000D01*
X670999Y112000D01*
X675999Y107000D01*
D02*
G37*
G36*
X663999D02*
X658999Y102000D01*
X653999Y107000D01*
X658999Y112000D01*
X663999Y107000D01*
D02*
G37*
G36*
X651999D02*
X646999Y102000D01*
X641999Y107000D01*
X646999Y112000D01*
X651999Y107000D01*
D02*
G37*
G36*
X555999D02*
X550999Y102000D01*
X545999Y107000D01*
X550999Y112000D01*
X555999Y107000D01*
D02*
G37*
G36*
X543999D02*
X538999Y102000D01*
X533999Y107000D01*
X538999Y112000D01*
X543999Y107000D01*
D02*
G37*
G36*
X531999D02*
X526999Y102000D01*
X521999Y107000D01*
X526999Y112000D01*
X531999Y107000D01*
D02*
G37*
G36*
X519999D02*
X514999Y102000D01*
X509999Y107000D01*
X514999Y112000D01*
X519999Y107000D01*
D02*
G37*
G36*
X507999D02*
X502999Y102000D01*
X497999Y107000D01*
X502999Y112000D01*
X507999Y107000D01*
D02*
G37*
G36*
X495999D02*
X490999Y102000D01*
X485999Y107000D01*
X490999Y112000D01*
X495999Y107000D01*
D02*
G37*
G36*
X483999D02*
X478999Y102000D01*
X473999Y107000D01*
X478999Y112000D01*
X483999Y107000D01*
D02*
G37*
G36*
X471999D02*
X466999Y102000D01*
X461999Y107000D01*
X466999Y112000D01*
X471999Y107000D01*
D02*
G37*
G36*
X459999D02*
X454999Y102000D01*
X449999Y107000D01*
X454999Y112000D01*
X459999Y107000D01*
D02*
G37*
G36*
X765998Y101000D02*
X760999Y96000D01*
X755999Y101000D01*
X760999Y106000D01*
X765998Y101000D01*
D02*
G37*
G36*
X753998D02*
X748998Y96000D01*
X743998Y101000D01*
X748998Y106000D01*
X753998Y101000D01*
D02*
G37*
G36*
X741999D02*
X736999Y96000D01*
X731999Y101000D01*
X736999Y106000D01*
X741999Y101000D01*
D02*
G37*
G36*
X729998D02*
X724998Y96000D01*
X719998Y101000D01*
X724998Y106000D01*
X729998Y101000D01*
D02*
G37*
G36*
X717999D02*
X712999Y96000D01*
X707999Y101000D01*
X712999Y106000D01*
X717999Y101000D01*
D02*
G37*
G36*
X705999D02*
X700999Y96000D01*
X695999Y101000D01*
X700999Y106000D01*
X705999Y101000D01*
D02*
G37*
G36*
X693999D02*
X688999Y96000D01*
X683999Y101000D01*
X688999Y106000D01*
X693999Y101000D01*
D02*
G37*
G36*
X681999D02*
X676999Y96000D01*
X671999Y101000D01*
X676999Y106000D01*
X681999Y101000D01*
D02*
G37*
G36*
X669999D02*
X664999Y96000D01*
X659999Y101000D01*
X664999Y106000D01*
X669999Y101000D01*
D02*
G37*
G36*
X657999D02*
X652999Y96000D01*
X647999Y101000D01*
X652999Y106000D01*
X657999Y101000D01*
D02*
G37*
G36*
X645999D02*
X640999Y96000D01*
X635999Y101000D01*
X640999Y106000D01*
X645999Y101000D01*
D02*
G37*
G36*
X561999D02*
X556999Y96000D01*
X551999Y101000D01*
X556999Y106000D01*
X561999Y101000D01*
D02*
G37*
G36*
X549999D02*
X544999Y96000D01*
X539999Y101000D01*
X544999Y106000D01*
X549999Y101000D01*
D02*
G37*
G36*
X537999D02*
X532999Y96000D01*
X527999Y101000D01*
X532999Y106000D01*
X537999Y101000D01*
D02*
G37*
G36*
X525999D02*
X520999Y96000D01*
X515999Y101000D01*
X520999Y106000D01*
X525999Y101000D01*
D02*
G37*
G36*
X513999D02*
X508999Y96000D01*
X503999Y101000D01*
X508999Y106000D01*
X513999Y101000D01*
D02*
G37*
G36*
X501999D02*
X496999Y96000D01*
X491999Y101000D01*
X496999Y106000D01*
X501999Y101000D01*
D02*
G37*
G36*
X489999D02*
X484999Y96000D01*
X479999Y101000D01*
X484999Y106000D01*
X489999Y101000D01*
D02*
G37*
G36*
X477999D02*
X472999Y96000D01*
X467999Y101000D01*
X472999Y106000D01*
X477999Y101000D01*
D02*
G37*
G36*
X465999D02*
X460999Y96000D01*
X455999Y101000D01*
X460999Y106000D01*
X465999Y101000D01*
D02*
G37*
G36*
X759998Y95000D02*
X754998Y90000D01*
X749998Y95000D01*
X754998Y100000D01*
X759998Y95000D01*
D02*
G37*
G36*
X747999D02*
X742999Y90000D01*
X737999Y95000D01*
X742999Y100000D01*
X747999Y95000D01*
D02*
G37*
G36*
X735999D02*
X730999Y90000D01*
X725999Y95000D01*
X730999Y100000D01*
X735999Y95000D01*
D02*
G37*
G36*
X723998D02*
X718998Y90000D01*
X713998Y95000D01*
X718998Y100000D01*
X723998Y95000D01*
D02*
G37*
G36*
X711999D02*
X706999Y90000D01*
X701999Y95000D01*
X706999Y100000D01*
X711999Y95000D01*
D02*
G37*
G36*
X699999D02*
X694999Y90000D01*
X689999Y95000D01*
X694999Y100000D01*
X699999Y95000D01*
D02*
G37*
G36*
X687999D02*
X682999Y90000D01*
X677999Y95000D01*
X682999Y100000D01*
X687999Y95000D01*
D02*
G37*
G36*
X675999D02*
X670999Y90000D01*
X665999Y95000D01*
X670999Y100000D01*
X675999Y95000D01*
D02*
G37*
G36*
X663999D02*
X658999Y90000D01*
X653999Y95000D01*
X658999Y100000D01*
X663999Y95000D01*
D02*
G37*
G36*
X651999D02*
X646999Y90000D01*
X641999Y95000D01*
X646999Y100000D01*
X651999Y95000D01*
D02*
G37*
G36*
X555999D02*
X550999Y90000D01*
X545999Y95000D01*
X550999Y100000D01*
X555999Y95000D01*
D02*
G37*
G36*
X543999D02*
X538999Y90000D01*
X533999Y95000D01*
X538999Y100000D01*
X543999Y95000D01*
D02*
G37*
G36*
X531999D02*
X526999Y90000D01*
X521999Y95000D01*
X526999Y100000D01*
X531999Y95000D01*
D02*
G37*
G36*
X519999D02*
X514999Y90000D01*
X509999Y95000D01*
X514999Y100000D01*
X519999Y95000D01*
D02*
G37*
G36*
X507999D02*
X502999Y90000D01*
X497999Y95000D01*
X502999Y100000D01*
X507999Y95000D01*
D02*
G37*
G36*
X495999D02*
X490999Y90000D01*
X485999Y95000D01*
X490999Y100000D01*
X495999Y95000D01*
D02*
G37*
G36*
X483999D02*
X478999Y90000D01*
X473999Y95000D01*
X478999Y100000D01*
X483999Y95000D01*
D02*
G37*
G36*
X471999D02*
X466999Y90000D01*
X461999Y95000D01*
X466999Y100000D01*
X471999Y95000D01*
D02*
G37*
G36*
X459999D02*
X454999Y90000D01*
X449999Y95000D01*
X454999Y100000D01*
X459999Y95000D01*
D02*
G37*
G36*
X765998Y89000D02*
X760999Y84000D01*
X755999Y89000D01*
X760999Y94000D01*
X765998Y89000D01*
D02*
G37*
G36*
X753998D02*
X748998Y84000D01*
X743998Y89000D01*
X748998Y94000D01*
X753998Y89000D01*
D02*
G37*
G36*
X741999D02*
X736999Y84000D01*
X731999Y89000D01*
X736999Y94000D01*
X741999Y89000D01*
D02*
G37*
G36*
X729998D02*
X724998Y84000D01*
X719998Y89000D01*
X724998Y94000D01*
X729998Y89000D01*
D02*
G37*
G36*
X717999D02*
X712999Y84000D01*
X707999Y89000D01*
X712999Y94000D01*
X717999Y89000D01*
D02*
G37*
G36*
X705999D02*
X700999Y84000D01*
X695999Y89000D01*
X700999Y94000D01*
X705999Y89000D01*
D02*
G37*
G36*
X693999D02*
X688999Y84000D01*
X683999Y89000D01*
X688999Y94000D01*
X693999Y89000D01*
D02*
G37*
G36*
X681999D02*
X676999Y84000D01*
X671999Y89000D01*
X676999Y94000D01*
X681999Y89000D01*
D02*
G37*
G36*
X669999D02*
X664999Y84000D01*
X659999Y89000D01*
X664999Y94000D01*
X669999Y89000D01*
D02*
G37*
G36*
X657999D02*
X652999Y84000D01*
X647999Y89000D01*
X652999Y94000D01*
X657999Y89000D01*
D02*
G37*
G36*
X645999D02*
X640999Y84000D01*
X635999Y89000D01*
X640999Y94000D01*
X645999Y89000D01*
D02*
G37*
G36*
X561999D02*
X556999Y84000D01*
X551999Y89000D01*
X556999Y94000D01*
X561999Y89000D01*
D02*
G37*
G36*
X549999D02*
X544999Y84000D01*
X539999Y89000D01*
X544999Y94000D01*
X549999Y89000D01*
D02*
G37*
G36*
X537999D02*
X532999Y84000D01*
X527999Y89000D01*
X532999Y94000D01*
X537999Y89000D01*
D02*
G37*
G36*
X525999D02*
X520999Y84000D01*
X515999Y89000D01*
X520999Y94000D01*
X525999Y89000D01*
D02*
G37*
G36*
X513999D02*
X508999Y84000D01*
X503999Y89000D01*
X508999Y94000D01*
X513999Y89000D01*
D02*
G37*
G36*
X501999D02*
X496999Y84000D01*
X491999Y89000D01*
X496999Y94000D01*
X501999Y89000D01*
D02*
G37*
G36*
X489999D02*
X484999Y84000D01*
X479999Y89000D01*
X484999Y94000D01*
X489999Y89000D01*
D02*
G37*
G36*
X477999D02*
X472999Y84000D01*
X467999Y89000D01*
X472999Y94000D01*
X477999Y89000D01*
D02*
G37*
G36*
X465999D02*
X460999Y84000D01*
X455999Y89000D01*
X460999Y94000D01*
X465999Y89000D01*
D02*
G37*
G36*
X453999D02*
X448999Y84000D01*
X443999Y89000D01*
X448999Y94000D01*
X453999Y89000D01*
D02*
G37*
G36*
X771998Y83000D02*
X766998Y78000D01*
X761999Y83000D01*
X766998Y88000D01*
X771998Y83000D01*
D02*
G37*
G36*
X759998D02*
X754998Y78000D01*
X749998Y83000D01*
X754998Y88000D01*
X759998Y83000D01*
D02*
G37*
G36*
X747999D02*
X742999Y78000D01*
X737999Y83000D01*
X742999Y88000D01*
X747999Y83000D01*
D02*
G37*
G36*
X735999D02*
X730999Y78000D01*
X725999Y83000D01*
X730999Y88000D01*
X735999Y83000D01*
D02*
G37*
G36*
X723998D02*
X718998Y78000D01*
X713998Y83000D01*
X718998Y88000D01*
X723998Y83000D01*
D02*
G37*
G36*
X711999D02*
X706999Y78000D01*
X701999Y83000D01*
X706999Y88000D01*
X711999Y83000D01*
D02*
G37*
G36*
X699999D02*
X694999Y78000D01*
X689999Y83000D01*
X694999Y88000D01*
X699999Y83000D01*
D02*
G37*
G36*
X687999D02*
X682999Y78000D01*
X677999Y83000D01*
X682999Y88000D01*
X687999Y83000D01*
D02*
G37*
G36*
X675999D02*
X670999Y78000D01*
X665999Y83000D01*
X670999Y88000D01*
X675999Y83000D01*
D02*
G37*
G36*
X663999D02*
X658999Y78000D01*
X653999Y83000D01*
X658999Y88000D01*
X663999Y83000D01*
D02*
G37*
G36*
X651999D02*
X646999Y78000D01*
X641999Y83000D01*
X646999Y88000D01*
X651999Y83000D01*
D02*
G37*
G36*
X639999D02*
X634999Y78000D01*
X629999Y83000D01*
X634999Y88000D01*
X639999Y83000D01*
D02*
G37*
G36*
X567999D02*
X562999Y78000D01*
X557999Y83000D01*
X562999Y88000D01*
X567999Y83000D01*
D02*
G37*
G36*
X555999D02*
X550999Y78000D01*
X545999Y83000D01*
X550999Y88000D01*
X555999Y83000D01*
D02*
G37*
G36*
X543999D02*
X538999Y78000D01*
X533999Y83000D01*
X538999Y88000D01*
X543999Y83000D01*
D02*
G37*
G36*
X531999D02*
X526999Y78000D01*
X521999Y83000D01*
X526999Y88000D01*
X531999Y83000D01*
D02*
G37*
G36*
X519999D02*
X514999Y78000D01*
X509999Y83000D01*
X514999Y88000D01*
X519999Y83000D01*
D02*
G37*
G36*
X507999D02*
X502999Y78000D01*
X497999Y83000D01*
X502999Y88000D01*
X507999Y83000D01*
D02*
G37*
G36*
X495999D02*
X490999Y78000D01*
X485999Y83000D01*
X490999Y88000D01*
X495999Y83000D01*
D02*
G37*
G36*
X483999D02*
X478999Y78000D01*
X473999Y83000D01*
X478999Y88000D01*
X483999Y83000D01*
D02*
G37*
G36*
X471999D02*
X466999Y78000D01*
X461999Y83000D01*
X466999Y88000D01*
X471999Y83000D01*
D02*
G37*
G36*
X459999D02*
X454999Y78000D01*
X449999Y83000D01*
X454999Y88000D01*
X459999Y83000D01*
D02*
G37*
G36*
X447999D02*
X442999Y78000D01*
X437999Y83000D01*
X442999Y88000D01*
X447999Y83000D01*
D02*
G37*
G36*
X777998Y77000D02*
X772998Y72000D01*
X767998Y77000D01*
X772998Y82000D01*
X777998Y77000D01*
D02*
G37*
G36*
X765998D02*
X760999Y72000D01*
X755999Y77000D01*
X760999Y82000D01*
X765998Y77000D01*
D02*
G37*
G36*
X753998D02*
X748998Y72000D01*
X743998Y77000D01*
X748998Y82000D01*
X753998Y77000D01*
D02*
G37*
G36*
X741999D02*
X736999Y72000D01*
X731999Y77000D01*
X736999Y82000D01*
X741999Y77000D01*
D02*
G37*
G36*
X729998D02*
X724998Y72000D01*
X719998Y77000D01*
X724998Y82000D01*
X729998Y77000D01*
D02*
G37*
G36*
X717999D02*
X712999Y72000D01*
X707999Y77000D01*
X712999Y82000D01*
X717999Y77000D01*
D02*
G37*
G36*
X705999D02*
X700999Y72000D01*
X695999Y77000D01*
X700999Y82000D01*
X705999Y77000D01*
D02*
G37*
G36*
X693999D02*
X688999Y72000D01*
X683999Y77000D01*
X688999Y82000D01*
X693999Y77000D01*
D02*
G37*
G36*
X681999D02*
X676999Y72000D01*
X671999Y77000D01*
X676999Y82000D01*
X681999Y77000D01*
D02*
G37*
G36*
X669999D02*
X664999Y72000D01*
X659999Y77000D01*
X664999Y82000D01*
X669999Y77000D01*
D02*
G37*
G36*
X657999D02*
X652999Y72000D01*
X647999Y77000D01*
X652999Y82000D01*
X657999Y77000D01*
D02*
G37*
G36*
X645999D02*
X640999Y72000D01*
X635999Y77000D01*
X640999Y82000D01*
X645999Y77000D01*
D02*
G37*
G36*
X633999D02*
X628999Y72000D01*
X623999Y77000D01*
X628999Y82000D01*
X633999Y77000D01*
D02*
G37*
G36*
X573999D02*
X568999Y72000D01*
X563999Y77000D01*
X568999Y82000D01*
X573999Y77000D01*
D02*
G37*
G36*
X561999D02*
X556999Y72000D01*
X551999Y77000D01*
X556999Y82000D01*
X561999Y77000D01*
D02*
G37*
G36*
X549999D02*
X544999Y72000D01*
X539999Y77000D01*
X544999Y82000D01*
X549999Y77000D01*
D02*
G37*
G36*
X537999D02*
X532999Y72000D01*
X527999Y77000D01*
X532999Y82000D01*
X537999Y77000D01*
D02*
G37*
G36*
X525999D02*
X520999Y72000D01*
X515999Y77000D01*
X520999Y82000D01*
X525999Y77000D01*
D02*
G37*
G36*
X513999D02*
X508999Y72000D01*
X503999Y77000D01*
X508999Y82000D01*
X513999Y77000D01*
D02*
G37*
G36*
X501999D02*
X496999Y72000D01*
X491999Y77000D01*
X496999Y82000D01*
X501999Y77000D01*
D02*
G37*
G36*
X489999D02*
X484999Y72000D01*
X479999Y77000D01*
X484999Y82000D01*
X489999Y77000D01*
D02*
G37*
G36*
X477999D02*
X472999Y72000D01*
X467999Y77000D01*
X472999Y82000D01*
X477999Y77000D01*
D02*
G37*
G36*
X465999D02*
X460999Y72000D01*
X455999Y77000D01*
X460999Y82000D01*
X465999Y77000D01*
D02*
G37*
G36*
X453999D02*
X448999Y72000D01*
X443999Y77000D01*
X448999Y82000D01*
X453999Y77000D01*
D02*
G37*
G36*
X783998Y71000D02*
X778998Y66000D01*
X773998Y71000D01*
X778998Y76000D01*
X783998Y71000D01*
D02*
G37*
G36*
X771998D02*
X766998Y66000D01*
X761999Y71000D01*
X766998Y76000D01*
X771998Y71000D01*
D02*
G37*
G36*
X759998D02*
X754998Y66000D01*
X749998Y71000D01*
X754998Y76000D01*
X759998Y71000D01*
D02*
G37*
G36*
X747999D02*
X742999Y66000D01*
X737999Y71000D01*
X742999Y76000D01*
X747999Y71000D01*
D02*
G37*
G36*
X735999D02*
X730999Y66000D01*
X725999Y71000D01*
X730999Y76000D01*
X735999Y71000D01*
D02*
G37*
G36*
X723998D02*
X718998Y66000D01*
X713998Y71000D01*
X718998Y76000D01*
X723998Y71000D01*
D02*
G37*
G36*
X711999D02*
X706999Y66000D01*
X701999Y71000D01*
X706999Y76000D01*
X711999Y71000D01*
D02*
G37*
G36*
X699999D02*
X694999Y66000D01*
X689999Y71000D01*
X694999Y76000D01*
X699999Y71000D01*
D02*
G37*
G36*
X687999D02*
X682999Y66000D01*
X677999Y71000D01*
X682999Y76000D01*
X687999Y71000D01*
D02*
G37*
G36*
X675999D02*
X670999Y66000D01*
X665999Y71000D01*
X670999Y76000D01*
X675999Y71000D01*
D02*
G37*
G36*
X663999D02*
X658999Y66000D01*
X653999Y71000D01*
X658999Y76000D01*
X663999Y71000D01*
D02*
G37*
G36*
X651999D02*
X646999Y66000D01*
X641999Y71000D01*
X646999Y76000D01*
X651999Y71000D01*
D02*
G37*
G36*
X639999D02*
X634999Y66000D01*
X629999Y71000D01*
X634999Y76000D01*
X639999Y71000D01*
D02*
G37*
G36*
X627999D02*
X622999Y66000D01*
X617999Y71000D01*
X622999Y76000D01*
X627999Y71000D01*
D02*
G37*
G36*
X579999D02*
X574999Y66000D01*
X569999Y71000D01*
X574999Y76000D01*
X579999Y71000D01*
D02*
G37*
G36*
X567999D02*
X562999Y66000D01*
X557999Y71000D01*
X562999Y76000D01*
X567999Y71000D01*
D02*
G37*
G36*
X555999D02*
X550999Y66000D01*
X545999Y71000D01*
X550999Y76000D01*
X555999Y71000D01*
D02*
G37*
G36*
X543999D02*
X538999Y66000D01*
X533999Y71000D01*
X538999Y76000D01*
X543999Y71000D01*
D02*
G37*
G36*
X531999D02*
X526999Y66000D01*
X521999Y71000D01*
X526999Y76000D01*
X531999Y71000D01*
D02*
G37*
G36*
X519999D02*
X514999Y66000D01*
X509999Y71000D01*
X514999Y76000D01*
X519999Y71000D01*
D02*
G37*
G36*
X507999D02*
X502999Y66000D01*
X497999Y71000D01*
X502999Y76000D01*
X507999Y71000D01*
D02*
G37*
G36*
X495999D02*
X490999Y66000D01*
X485999Y71000D01*
X490999Y76000D01*
X495999Y71000D01*
D02*
G37*
G36*
X483999D02*
X478999Y66000D01*
X473999Y71000D01*
X478999Y76000D01*
X483999Y71000D01*
D02*
G37*
G36*
X471999D02*
X466999Y66000D01*
X461999Y71000D01*
X466999Y76000D01*
X471999Y71000D01*
D02*
G37*
G36*
X459999D02*
X454999Y66000D01*
X449999Y71000D01*
X454999Y76000D01*
X459999Y71000D01*
D02*
G37*
G36*
X447999D02*
X442999Y66000D01*
X437999Y71000D01*
X442999Y76000D01*
X447999Y71000D01*
D02*
G37*
G36*
X789998Y65000D02*
X784998Y60000D01*
X779998Y65000D01*
X784998Y70000D01*
X789998Y65000D01*
D02*
G37*
G36*
X777998D02*
X772998Y60000D01*
X767998Y65000D01*
X772998Y70000D01*
X777998Y65000D01*
D02*
G37*
G36*
X765998D02*
X760999Y60000D01*
X755999Y65000D01*
X760999Y70000D01*
X765998Y65000D01*
D02*
G37*
G36*
X753998D02*
X748998Y60000D01*
X743998Y65000D01*
X748998Y70000D01*
X753998Y65000D01*
D02*
G37*
G36*
X741999D02*
X736999Y60000D01*
X731999Y65000D01*
X736999Y70000D01*
X741999Y65000D01*
D02*
G37*
G36*
X729998D02*
X724998Y60000D01*
X719998Y65000D01*
X724998Y70000D01*
X729998Y65000D01*
D02*
G37*
G36*
X717999D02*
X712999Y60000D01*
X707999Y65000D01*
X712999Y70000D01*
X717999Y65000D01*
D02*
G37*
G36*
X705999D02*
X700999Y60000D01*
X695999Y65000D01*
X700999Y70000D01*
X705999Y65000D01*
D02*
G37*
G36*
X693999D02*
X688999Y60000D01*
X683999Y65000D01*
X688999Y70000D01*
X693999Y65000D01*
D02*
G37*
G36*
X681999D02*
X676999Y60000D01*
X671999Y65000D01*
X676999Y70000D01*
X681999Y65000D01*
D02*
G37*
G36*
X669999D02*
X664999Y60000D01*
X659999Y65000D01*
X664999Y70000D01*
X669999Y65000D01*
D02*
G37*
G36*
X657999D02*
X652999Y60000D01*
X647999Y65000D01*
X652999Y70000D01*
X657999Y65000D01*
D02*
G37*
G36*
X645999D02*
X640999Y60000D01*
X635999Y65000D01*
X640999Y70000D01*
X645999Y65000D01*
D02*
G37*
G36*
X633999D02*
X628999Y60000D01*
X623999Y65000D01*
X628999Y70000D01*
X633999Y65000D01*
D02*
G37*
G36*
X621999D02*
X616999Y60000D01*
X611999Y65000D01*
X616999Y70000D01*
X621999Y65000D01*
D02*
G37*
G36*
X585999D02*
X580999Y60000D01*
X575999Y65000D01*
X580999Y70000D01*
X585999Y65000D01*
D02*
G37*
G36*
X573999D02*
X568999Y60000D01*
X563999Y65000D01*
X568999Y70000D01*
X573999Y65000D01*
D02*
G37*
G36*
X561999D02*
X556999Y60000D01*
X551999Y65000D01*
X556999Y70000D01*
X561999Y65000D01*
D02*
G37*
G36*
X549999D02*
X544999Y60000D01*
X539999Y65000D01*
X544999Y70000D01*
X549999Y65000D01*
D02*
G37*
G36*
X537999D02*
X532999Y60000D01*
X527999Y65000D01*
X532999Y70000D01*
X537999Y65000D01*
D02*
G37*
G36*
X525999D02*
X520999Y60000D01*
X515999Y65000D01*
X520999Y70000D01*
X525999Y65000D01*
D02*
G37*
G36*
X513999D02*
X508999Y60000D01*
X503999Y65000D01*
X508999Y70000D01*
X513999Y65000D01*
D02*
G37*
G36*
X501999D02*
X496999Y60000D01*
X491999Y65000D01*
X496999Y70000D01*
X501999Y65000D01*
D02*
G37*
G36*
X489999D02*
X484999Y60000D01*
X479999Y65000D01*
X484999Y70000D01*
X489999Y65000D01*
D02*
G37*
G36*
X477999D02*
X472999Y60000D01*
X467999Y65000D01*
X472999Y70000D01*
X477999Y65000D01*
D02*
G37*
G36*
X465999D02*
X460999Y60000D01*
X455999Y65000D01*
X460999Y70000D01*
X465999Y65000D01*
D02*
G37*
G36*
X453999D02*
X448999Y60000D01*
X443999Y65000D01*
X448999Y70000D01*
X453999Y65000D01*
D02*
G37*
G36*
X150116Y117116D02*
X151439Y116232D01*
X153000Y115922D01*
X154461Y116212D01*
X154584Y116218D01*
X156461Y115096D01*
Y59904D01*
X154584Y58782D01*
X154461Y58788D01*
X153000Y59078D01*
X151439Y58768D01*
X150116Y57884D01*
X150063Y57804D01*
X102937D01*
X102884Y57884D01*
X101561Y58768D01*
X100000Y59078D01*
X98439Y58768D01*
X97116Y57884D01*
X96232Y56561D01*
X95922Y55000D01*
X95961Y54804D01*
X94434Y52804D01*
X79937D01*
X79884Y52884D01*
X78561Y53768D01*
X77000Y54078D01*
X75253Y55770D01*
Y72360D01*
X120140Y117247D01*
X150029D01*
X150116Y117116D01*
D02*
G37*
G36*
X783998Y59000D02*
X778998Y54000D01*
X773998Y59000D01*
X778998Y64000D01*
X783998Y59000D01*
D02*
G37*
G36*
X771998D02*
X766998Y54000D01*
X761999Y59000D01*
X766998Y64000D01*
X771998Y59000D01*
D02*
G37*
G36*
X759998D02*
X754998Y54000D01*
X749998Y59000D01*
X754998Y64000D01*
X759998Y59000D01*
D02*
G37*
G36*
X747999D02*
X742999Y54000D01*
X737999Y59000D01*
X742999Y64000D01*
X747999Y59000D01*
D02*
G37*
G36*
X735999D02*
X730999Y54000D01*
X725999Y59000D01*
X730999Y64000D01*
X735999Y59000D01*
D02*
G37*
G36*
X723998D02*
X718998Y54000D01*
X713998Y59000D01*
X718998Y64000D01*
X723998Y59000D01*
D02*
G37*
G36*
X711999D02*
X706999Y54000D01*
X701999Y59000D01*
X706999Y64000D01*
X711999Y59000D01*
D02*
G37*
G36*
X699999D02*
X694999Y54000D01*
X689999Y59000D01*
X694999Y64000D01*
X699999Y59000D01*
D02*
G37*
G36*
X687999D02*
X682999Y54000D01*
X677999Y59000D01*
X682999Y64000D01*
X687999Y59000D01*
D02*
G37*
G36*
X675999D02*
X670999Y54000D01*
X665999Y59000D01*
X670999Y64000D01*
X675999Y59000D01*
D02*
G37*
G36*
X663999D02*
X658999Y54000D01*
X653999Y59000D01*
X658999Y64000D01*
X663999Y59000D01*
D02*
G37*
G36*
X651999D02*
X646999Y54000D01*
X641999Y59000D01*
X646999Y64000D01*
X651999Y59000D01*
D02*
G37*
G36*
X639999D02*
X634999Y54000D01*
X629999Y59000D01*
X634999Y64000D01*
X639999Y59000D01*
D02*
G37*
G36*
X627999D02*
X622999Y54000D01*
X617999Y59000D01*
X622999Y64000D01*
X627999Y59000D01*
D02*
G37*
G36*
X579999D02*
X574999Y54000D01*
X569999Y59000D01*
X574999Y64000D01*
X579999Y59000D01*
D02*
G37*
G36*
X567999D02*
X562999Y54000D01*
X557999Y59000D01*
X562999Y64000D01*
X567999Y59000D01*
D02*
G37*
G36*
X555999D02*
X550999Y54000D01*
X545999Y59000D01*
X550999Y64000D01*
X555999Y59000D01*
D02*
G37*
G36*
X543999D02*
X538999Y54000D01*
X533999Y59000D01*
X538999Y64000D01*
X543999Y59000D01*
D02*
G37*
G36*
X531999D02*
X526999Y54000D01*
X521999Y59000D01*
X526999Y64000D01*
X531999Y59000D01*
D02*
G37*
G36*
X519999D02*
X514999Y54000D01*
X509999Y59000D01*
X514999Y64000D01*
X519999Y59000D01*
D02*
G37*
G36*
X507999D02*
X502999Y54000D01*
X497999Y59000D01*
X502999Y64000D01*
X507999Y59000D01*
D02*
G37*
G36*
X495999D02*
X490999Y54000D01*
X485999Y59000D01*
X490999Y64000D01*
X495999Y59000D01*
D02*
G37*
G36*
X483999D02*
X478999Y54000D01*
X473999Y59000D01*
X478999Y64000D01*
X483999Y59000D01*
D02*
G37*
G36*
X471999D02*
X466999Y54000D01*
X461999Y59000D01*
X466999Y64000D01*
X471999Y59000D01*
D02*
G37*
G36*
X459999D02*
X454999Y54000D01*
X449999Y59000D01*
X454999Y64000D01*
X459999Y59000D01*
D02*
G37*
G36*
X447999D02*
X442999Y54000D01*
X437999Y59000D01*
X442999Y64000D01*
X447999Y59000D01*
D02*
G37*
G36*
X37053Y63053D02*
X37053Y63053D01*
X37947Y62457D01*
X39000Y62247D01*
X39000Y62247D01*
X54727D01*
X55878Y62017D01*
X56771Y60272D01*
X56343Y59227D01*
X56232Y59061D01*
X55922Y57500D01*
X56232Y55939D01*
X57116Y54616D01*
X58439Y53732D01*
X59508Y53520D01*
Y51480D01*
X58439Y51268D01*
X57692Y50769D01*
X55540Y51199D01*
X55267Y51200D01*
X55000Y51253D01*
X53500D01*
X52446Y51043D01*
X51553Y50447D01*
X41860Y40753D01*
X29640D01*
X28447Y41947D01*
X27786Y42388D01*
X27789Y43631D01*
X27974Y44485D01*
X29250Y45213D01*
X30420Y45329D01*
X30779Y45437D01*
X31146Y45511D01*
X33309Y46406D01*
X34136Y46959D01*
X35791Y48614D01*
X35791Y48614D01*
X36344Y49441D01*
X37239Y51604D01*
X37434Y52579D01*
X37434Y54921D01*
X37239Y55896D01*
X36344Y58059D01*
X35791Y58886D01*
X34136Y60541D01*
X33309Y61094D01*
X31146Y61989D01*
X30779Y62063D01*
X30420Y62171D01*
X29250Y62287D01*
X27500Y63286D01*
Y69778D01*
X29500Y70607D01*
X37053Y63053D01*
D02*
G37*
G36*
X777998Y53000D02*
X772998Y48000D01*
X767998Y53000D01*
X772998Y58000D01*
X777998Y53000D01*
D02*
G37*
G36*
X765998D02*
X760999Y48000D01*
X755999Y53000D01*
X760999Y58000D01*
X765998Y53000D01*
D02*
G37*
G36*
X753998D02*
X748998Y48000D01*
X743998Y53000D01*
X748998Y58000D01*
X753998Y53000D01*
D02*
G37*
G36*
X741999D02*
X736999Y48000D01*
X731999Y53000D01*
X736999Y58000D01*
X741999Y53000D01*
D02*
G37*
G36*
X729998D02*
X724998Y48000D01*
X719998Y53000D01*
X724998Y58000D01*
X729998Y53000D01*
D02*
G37*
G36*
X717999D02*
X712999Y48000D01*
X707999Y53000D01*
X712999Y58000D01*
X717999Y53000D01*
D02*
G37*
G36*
X705999D02*
X700999Y48000D01*
X695999Y53000D01*
X700999Y58000D01*
X705999Y53000D01*
D02*
G37*
G36*
X693999D02*
X688999Y48000D01*
X683999Y53000D01*
X688999Y58000D01*
X693999Y53000D01*
D02*
G37*
G36*
X681999D02*
X676999Y48000D01*
X671999Y53000D01*
X676999Y58000D01*
X681999Y53000D01*
D02*
G37*
G36*
X669999D02*
X664999Y48000D01*
X659999Y53000D01*
X664999Y58000D01*
X669999Y53000D01*
D02*
G37*
G36*
X657999D02*
X652999Y48000D01*
X647999Y53000D01*
X652999Y58000D01*
X657999Y53000D01*
D02*
G37*
G36*
X645999D02*
X640999Y48000D01*
X635999Y53000D01*
X640999Y58000D01*
X645999Y53000D01*
D02*
G37*
G36*
X633999D02*
X628999Y48000D01*
X623999Y53000D01*
X628999Y58000D01*
X633999Y53000D01*
D02*
G37*
G36*
X621999D02*
X616999Y48000D01*
X611999Y53000D01*
X616999Y58000D01*
X621999Y53000D01*
D02*
G37*
G36*
X585999D02*
X580999Y48000D01*
X575999Y53000D01*
X580999Y58000D01*
X585999Y53000D01*
D02*
G37*
G36*
X573999D02*
X568999Y48000D01*
X563999Y53000D01*
X568999Y58000D01*
X573999Y53000D01*
D02*
G37*
G36*
X561999D02*
X556999Y48000D01*
X551999Y53000D01*
X556999Y58000D01*
X561999Y53000D01*
D02*
G37*
G36*
X549999D02*
X544999Y48000D01*
X539999Y53000D01*
X544999Y58000D01*
X549999Y53000D01*
D02*
G37*
G36*
X537999D02*
X532999Y48000D01*
X527999Y53000D01*
X532999Y58000D01*
X537999Y53000D01*
D02*
G37*
G36*
X525999D02*
X520999Y48000D01*
X515999Y53000D01*
X520999Y58000D01*
X525999Y53000D01*
D02*
G37*
G36*
X513999D02*
X508999Y48000D01*
X503999Y53000D01*
X508999Y58000D01*
X513999Y53000D01*
D02*
G37*
G36*
X501999D02*
X496999Y48000D01*
X491999Y53000D01*
X496999Y58000D01*
X501999Y53000D01*
D02*
G37*
G36*
X489999D02*
X484999Y48000D01*
X479999Y53000D01*
X484999Y58000D01*
X489999Y53000D01*
D02*
G37*
G36*
X477999D02*
X472999Y48000D01*
X467999Y53000D01*
X472999Y58000D01*
X477999Y53000D01*
D02*
G37*
G36*
X465999D02*
X460999Y48000D01*
X455999Y53000D01*
X460999Y58000D01*
X465999Y53000D01*
D02*
G37*
G36*
X453999D02*
X448999Y48000D01*
X443999Y53000D01*
X448999Y58000D01*
X453999Y53000D01*
D02*
G37*
G36*
X783998Y47000D02*
X778998Y42000D01*
X773998Y47000D01*
X778998Y52000D01*
X783998Y47000D01*
D02*
G37*
G36*
X771998D02*
X766998Y42000D01*
X761999Y47000D01*
X766998Y52000D01*
X771998Y47000D01*
D02*
G37*
G36*
X759998D02*
X754998Y42000D01*
X749998Y47000D01*
X754998Y52000D01*
X759998Y47000D01*
D02*
G37*
G36*
X747999D02*
X742999Y42000D01*
X737999Y47000D01*
X742999Y52000D01*
X747999Y47000D01*
D02*
G37*
G36*
X735999D02*
X730999Y42000D01*
X725999Y47000D01*
X730999Y52000D01*
X735999Y47000D01*
D02*
G37*
G36*
X723998D02*
X718998Y42000D01*
X713998Y47000D01*
X718998Y52000D01*
X723998Y47000D01*
D02*
G37*
G36*
X711999D02*
X706999Y42000D01*
X701999Y47000D01*
X706999Y52000D01*
X711999Y47000D01*
D02*
G37*
G36*
X699999D02*
X694999Y42000D01*
X689999Y47000D01*
X694999Y52000D01*
X699999Y47000D01*
D02*
G37*
G36*
X687999D02*
X682999Y42000D01*
X677999Y47000D01*
X682999Y52000D01*
X687999Y47000D01*
D02*
G37*
G36*
X675999D02*
X670999Y42000D01*
X665999Y47000D01*
X670999Y52000D01*
X675999Y47000D01*
D02*
G37*
G36*
X663999D02*
X658999Y42000D01*
X653999Y47000D01*
X658999Y52000D01*
X663999Y47000D01*
D02*
G37*
G36*
X651999D02*
X646999Y42000D01*
X641999Y47000D01*
X646999Y52000D01*
X651999Y47000D01*
D02*
G37*
G36*
X639999D02*
X634999Y42000D01*
X629999Y47000D01*
X634999Y52000D01*
X639999Y47000D01*
D02*
G37*
G36*
X627999D02*
X622999Y42000D01*
X617999Y47000D01*
X622999Y52000D01*
X627999Y47000D01*
D02*
G37*
G36*
X579999D02*
X574999Y42000D01*
X569999Y47000D01*
X574999Y52000D01*
X579999Y47000D01*
D02*
G37*
G36*
X567999D02*
X562999Y42000D01*
X557999Y47000D01*
X562999Y52000D01*
X567999Y47000D01*
D02*
G37*
G36*
X555999D02*
X550999Y42000D01*
X545999Y47000D01*
X550999Y52000D01*
X555999Y47000D01*
D02*
G37*
G36*
X543999D02*
X538999Y42000D01*
X533999Y47000D01*
X538999Y52000D01*
X543999Y47000D01*
D02*
G37*
G36*
X531999D02*
X526999Y42000D01*
X521999Y47000D01*
X526999Y52000D01*
X531999Y47000D01*
D02*
G37*
G36*
X519999D02*
X514999Y42000D01*
X509999Y47000D01*
X514999Y52000D01*
X519999Y47000D01*
D02*
G37*
G36*
X507999D02*
X502999Y42000D01*
X497999Y47000D01*
X502999Y52000D01*
X507999Y47000D01*
D02*
G37*
G36*
X495999D02*
X490999Y42000D01*
X485999Y47000D01*
X490999Y52000D01*
X495999Y47000D01*
D02*
G37*
G36*
X483999D02*
X478999Y42000D01*
X473999Y47000D01*
X478999Y52000D01*
X483999Y47000D01*
D02*
G37*
G36*
X471999D02*
X466999Y42000D01*
X461999Y47000D01*
X466999Y52000D01*
X471999Y47000D01*
D02*
G37*
G36*
X459999D02*
X454999Y42000D01*
X449999Y47000D01*
X454999Y52000D01*
X459999Y47000D01*
D02*
G37*
G36*
X447999D02*
X442999Y42000D01*
X437999Y47000D01*
X442999Y52000D01*
X447999Y47000D01*
D02*
G37*
G36*
X148940Y45094D02*
X148922Y45000D01*
X149232Y43439D01*
X150116Y42116D01*
X150888Y41600D01*
X151359Y39743D01*
X151331Y39214D01*
X149155Y37039D01*
X103000D01*
X103000Y37039D01*
X102220Y36884D01*
X101558Y36442D01*
X101558Y36442D01*
X99123Y34007D01*
X99012Y33840D01*
X98870Y33698D01*
X98793Y33513D01*
X98681Y33346D01*
X98642Y33149D01*
X98565Y32963D01*
Y32832D01*
X98347Y31735D01*
X97914Y31086D01*
X97265Y30653D01*
X96500Y30501D01*
X95735Y30653D01*
X95086Y31086D01*
X94653Y31735D01*
X94422Y32898D01*
X94345Y33083D01*
X94306Y33280D01*
X94194Y33447D01*
X94117Y33633D01*
X93975Y33775D01*
X93864Y33942D01*
X93863Y33942D01*
X93696Y34053D01*
X93555Y34195D01*
X93369Y34272D01*
X93202Y34384D01*
X93005Y34423D01*
X92819Y34500D01*
X92619D01*
X92422Y34539D01*
X82238D01*
X81825Y34932D01*
X80887Y36539D01*
X81078Y37500D01*
X80768Y39061D01*
X79884Y40384D01*
X78561Y41268D01*
X77000Y41578D01*
X75900Y43138D01*
X75911Y44868D01*
X77000Y45922D01*
X78561Y46232D01*
X79884Y47116D01*
X79937Y47196D01*
X146839D01*
X148940Y45094D01*
D02*
G37*
G36*
X789998Y41000D02*
X784998Y36000D01*
X779998Y41000D01*
X784998Y46000D01*
X789998Y41000D01*
D02*
G37*
G36*
X777998D02*
X772998Y36000D01*
X767998Y41000D01*
X772998Y46000D01*
X777998Y41000D01*
D02*
G37*
G36*
X765998D02*
X760999Y36000D01*
X755999Y41000D01*
X760999Y46000D01*
X765998Y41000D01*
D02*
G37*
G36*
X753998D02*
X748998Y36000D01*
X743998Y41000D01*
X748998Y46000D01*
X753998Y41000D01*
D02*
G37*
G36*
X741999D02*
X736999Y36000D01*
X731999Y41000D01*
X736999Y46000D01*
X741999Y41000D01*
D02*
G37*
G36*
X729998D02*
X724998Y36000D01*
X719998Y41000D01*
X724998Y46000D01*
X729998Y41000D01*
D02*
G37*
G36*
X717999D02*
X712999Y36000D01*
X707999Y41000D01*
X712999Y46000D01*
X717999Y41000D01*
D02*
G37*
G36*
X705999D02*
X700999Y36000D01*
X695999Y41000D01*
X700999Y46000D01*
X705999Y41000D01*
D02*
G37*
G36*
X693999D02*
X688999Y36000D01*
X683999Y41000D01*
X688999Y46000D01*
X693999Y41000D01*
D02*
G37*
G36*
X681999D02*
X676999Y36000D01*
X671999Y41000D01*
X676999Y46000D01*
X681999Y41000D01*
D02*
G37*
G36*
X669999D02*
X664999Y36000D01*
X659999Y41000D01*
X664999Y46000D01*
X669999Y41000D01*
D02*
G37*
G36*
X657999D02*
X652999Y36000D01*
X647999Y41000D01*
X652999Y46000D01*
X657999Y41000D01*
D02*
G37*
G36*
X645999D02*
X640999Y36000D01*
X635999Y41000D01*
X640999Y46000D01*
X645999Y41000D01*
D02*
G37*
G36*
X633999D02*
X628999Y36000D01*
X623999Y41000D01*
X628999Y46000D01*
X633999Y41000D01*
D02*
G37*
G36*
X621999D02*
X616999Y36000D01*
X611999Y41000D01*
X616999Y46000D01*
X621999Y41000D01*
D02*
G37*
G36*
X585999D02*
X580999Y36000D01*
X575999Y41000D01*
X580999Y46000D01*
X585999Y41000D01*
D02*
G37*
G36*
X573999D02*
X568999Y36000D01*
X563999Y41000D01*
X568999Y46000D01*
X573999Y41000D01*
D02*
G37*
G36*
X561999D02*
X556999Y36000D01*
X551999Y41000D01*
X556999Y46000D01*
X561999Y41000D01*
D02*
G37*
G36*
X549999D02*
X544999Y36000D01*
X539999Y41000D01*
X544999Y46000D01*
X549999Y41000D01*
D02*
G37*
G36*
X537999D02*
X532999Y36000D01*
X527999Y41000D01*
X532999Y46000D01*
X537999Y41000D01*
D02*
G37*
G36*
X525999D02*
X520999Y36000D01*
X515999Y41000D01*
X520999Y46000D01*
X525999Y41000D01*
D02*
G37*
G36*
X513999D02*
X508999Y36000D01*
X503999Y41000D01*
X508999Y46000D01*
X513999Y41000D01*
D02*
G37*
G36*
X501999D02*
X496999Y36000D01*
X491999Y41000D01*
X496999Y46000D01*
X501999Y41000D01*
D02*
G37*
G36*
X489999D02*
X484999Y36000D01*
X479999Y41000D01*
X484999Y46000D01*
X489999Y41000D01*
D02*
G37*
G36*
X477999D02*
X472999Y36000D01*
X467999Y41000D01*
X472999Y46000D01*
X477999Y41000D01*
D02*
G37*
G36*
X465999D02*
X460999Y36000D01*
X455999Y41000D01*
X460999Y46000D01*
X465999Y41000D01*
D02*
G37*
G36*
X453999D02*
X448999Y36000D01*
X443999Y41000D01*
X448999Y46000D01*
X453999Y41000D01*
D02*
G37*
G36*
X771998Y35000D02*
X766998Y30000D01*
X761999Y35000D01*
X766998Y40000D01*
X771998Y35000D01*
D02*
G37*
G36*
X759998D02*
X754998Y30000D01*
X749998Y35000D01*
X754998Y40000D01*
X759998Y35000D01*
D02*
G37*
G36*
X747999D02*
X742999Y30000D01*
X737999Y35000D01*
X742999Y40000D01*
X747999Y35000D01*
D02*
G37*
G36*
X735999D02*
X730999Y30000D01*
X725999Y35000D01*
X730999Y40000D01*
X735999Y35000D01*
D02*
G37*
G36*
X723998D02*
X718998Y30000D01*
X713998Y35000D01*
X718998Y40000D01*
X723998Y35000D01*
D02*
G37*
G36*
X711999D02*
X706999Y30000D01*
X701999Y35000D01*
X706999Y40000D01*
X711999Y35000D01*
D02*
G37*
G36*
X699999D02*
X694999Y30000D01*
X689999Y35000D01*
X694999Y40000D01*
X699999Y35000D01*
D02*
G37*
G36*
X687999D02*
X682999Y30000D01*
X677999Y35000D01*
X682999Y40000D01*
X687999Y35000D01*
D02*
G37*
G36*
X675999D02*
X670999Y30000D01*
X665999Y35000D01*
X670999Y40000D01*
X675999Y35000D01*
D02*
G37*
G36*
X663999D02*
X658999Y30000D01*
X653999Y35000D01*
X658999Y40000D01*
X663999Y35000D01*
D02*
G37*
G36*
X651999D02*
X646999Y30000D01*
X641999Y35000D01*
X646999Y40000D01*
X651999Y35000D01*
D02*
G37*
G36*
X639999D02*
X634999Y30000D01*
X629999Y35000D01*
X634999Y40000D01*
X639999Y35000D01*
D02*
G37*
G36*
X627999D02*
X622999Y30000D01*
X617999Y35000D01*
X622999Y40000D01*
X627999Y35000D01*
D02*
G37*
G36*
X579999D02*
X574999Y30000D01*
X569999Y35000D01*
X574999Y40000D01*
X579999Y35000D01*
D02*
G37*
G36*
X567999D02*
X562999Y30000D01*
X557999Y35000D01*
X562999Y40000D01*
X567999Y35000D01*
D02*
G37*
G36*
X555999D02*
X550999Y30000D01*
X545999Y35000D01*
X550999Y40000D01*
X555999Y35000D01*
D02*
G37*
G36*
X543999D02*
X538999Y30000D01*
X533999Y35000D01*
X538999Y40000D01*
X543999Y35000D01*
D02*
G37*
G36*
X531999D02*
X526999Y30000D01*
X521999Y35000D01*
X526999Y40000D01*
X531999Y35000D01*
D02*
G37*
G36*
X519999D02*
X514999Y30000D01*
X509999Y35000D01*
X514999Y40000D01*
X519999Y35000D01*
D02*
G37*
G36*
X507999D02*
X502999Y30000D01*
X497999Y35000D01*
X502999Y40000D01*
X507999Y35000D01*
D02*
G37*
G36*
X495999D02*
X490999Y30000D01*
X485999Y35000D01*
X490999Y40000D01*
X495999Y35000D01*
D02*
G37*
G36*
X483999D02*
X478999Y30000D01*
X473999Y35000D01*
X478999Y40000D01*
X483999Y35000D01*
D02*
G37*
G36*
X471999D02*
X466999Y30000D01*
X461999Y35000D01*
X466999Y40000D01*
X471999Y35000D01*
D02*
G37*
G36*
X459999D02*
X454999Y30000D01*
X449999Y35000D01*
X454999Y40000D01*
X459999Y35000D01*
D02*
G37*
G36*
X447999D02*
X442999Y30000D01*
X437999Y35000D01*
X442999Y40000D01*
X447999Y35000D01*
D02*
G37*
G36*
X765998Y29000D02*
X760999Y24000D01*
X755999Y29000D01*
X760999Y34000D01*
X765998Y29000D01*
D02*
G37*
G36*
X753998D02*
X748998Y24000D01*
X743998Y29000D01*
X748998Y34000D01*
X753998Y29000D01*
D02*
G37*
G36*
X741999D02*
X736999Y24000D01*
X731999Y29000D01*
X736999Y34000D01*
X741999Y29000D01*
D02*
G37*
G36*
X729998D02*
X724998Y24000D01*
X719998Y29000D01*
X724998Y34000D01*
X729998Y29000D01*
D02*
G37*
G36*
X717999D02*
X712999Y24000D01*
X707999Y29000D01*
X712999Y34000D01*
X717999Y29000D01*
D02*
G37*
G36*
X705999D02*
X700999Y24000D01*
X695999Y29000D01*
X700999Y34000D01*
X705999Y29000D01*
D02*
G37*
G36*
X693999D02*
X688999Y24000D01*
X683999Y29000D01*
X688999Y34000D01*
X693999Y29000D01*
D02*
G37*
G36*
X681999D02*
X676999Y24000D01*
X671999Y29000D01*
X676999Y34000D01*
X681999Y29000D01*
D02*
G37*
G36*
X669999D02*
X664999Y24000D01*
X659999Y29000D01*
X664999Y34000D01*
X669999Y29000D01*
D02*
G37*
G36*
X657999D02*
X652999Y24000D01*
X647999Y29000D01*
X652999Y34000D01*
X657999Y29000D01*
D02*
G37*
G36*
X645999D02*
X640999Y24000D01*
X635999Y29000D01*
X640999Y34000D01*
X645999Y29000D01*
D02*
G37*
G36*
X633999D02*
X628999Y24000D01*
X623999Y29000D01*
X628999Y34000D01*
X633999Y29000D01*
D02*
G37*
G36*
X621999D02*
X616999Y24000D01*
X611999Y29000D01*
X616999Y34000D01*
X621999Y29000D01*
D02*
G37*
G36*
X585999D02*
X580999Y24000D01*
X575999Y29000D01*
X580999Y34000D01*
X585999Y29000D01*
D02*
G37*
G36*
X573999D02*
X568999Y24000D01*
X563999Y29000D01*
X568999Y34000D01*
X573999Y29000D01*
D02*
G37*
G36*
X561999D02*
X556999Y24000D01*
X551999Y29000D01*
X556999Y34000D01*
X561999Y29000D01*
D02*
G37*
G36*
X549999D02*
X544999Y24000D01*
X539999Y29000D01*
X544999Y34000D01*
X549999Y29000D01*
D02*
G37*
G36*
X537999D02*
X532999Y24000D01*
X527999Y29000D01*
X532999Y34000D01*
X537999Y29000D01*
D02*
G37*
G36*
X525999D02*
X520999Y24000D01*
X515999Y29000D01*
X520999Y34000D01*
X525999Y29000D01*
D02*
G37*
G36*
X513999D02*
X508999Y24000D01*
X503999Y29000D01*
X508999Y34000D01*
X513999Y29000D01*
D02*
G37*
G36*
X501999D02*
X496999Y24000D01*
X491999Y29000D01*
X496999Y34000D01*
X501999Y29000D01*
D02*
G37*
G36*
X489999D02*
X484999Y24000D01*
X479999Y29000D01*
X484999Y34000D01*
X489999Y29000D01*
D02*
G37*
G36*
X477999D02*
X472999Y24000D01*
X467999Y29000D01*
X472999Y34000D01*
X477999Y29000D01*
D02*
G37*
G36*
X465999D02*
X460999Y24000D01*
X455999Y29000D01*
X460999Y34000D01*
X465999Y29000D01*
D02*
G37*
G36*
X453999D02*
X448999Y24000D01*
X443999Y29000D01*
X448999Y34000D01*
X453999Y29000D01*
D02*
G37*
G36*
X759998Y23000D02*
X754998Y18000D01*
X749998Y23000D01*
X754998Y28000D01*
X759998Y23000D01*
D02*
G37*
G36*
X747999D02*
X742999Y18000D01*
X737999Y23000D01*
X742999Y28000D01*
X747999Y23000D01*
D02*
G37*
G36*
X735999D02*
X730999Y18000D01*
X725999Y23000D01*
X730999Y28000D01*
X735999Y23000D01*
D02*
G37*
G36*
X723998D02*
X718998Y18000D01*
X713998Y23000D01*
X718998Y28000D01*
X723998Y23000D01*
D02*
G37*
G36*
X711999D02*
X706999Y18000D01*
X701999Y23000D01*
X706999Y28000D01*
X711999Y23000D01*
D02*
G37*
G36*
X699999D02*
X694999Y18000D01*
X689999Y23000D01*
X694999Y28000D01*
X699999Y23000D01*
D02*
G37*
G36*
X687999D02*
X682999Y18000D01*
X677999Y23000D01*
X682999Y28000D01*
X687999Y23000D01*
D02*
G37*
G36*
X675999D02*
X670999Y18000D01*
X665999Y23000D01*
X670999Y28000D01*
X675999Y23000D01*
D02*
G37*
G36*
X663999D02*
X658999Y18000D01*
X653999Y23000D01*
X658999Y28000D01*
X663999Y23000D01*
D02*
G37*
G36*
X651999D02*
X646999Y18000D01*
X641999Y23000D01*
X646999Y28000D01*
X651999Y23000D01*
D02*
G37*
G36*
X639999D02*
X634999Y18000D01*
X629999Y23000D01*
X634999Y28000D01*
X639999Y23000D01*
D02*
G37*
G36*
X627999D02*
X622999Y18000D01*
X617999Y23000D01*
X622999Y28000D01*
X627999Y23000D01*
D02*
G37*
G36*
X579999D02*
X574999Y18000D01*
X569999Y23000D01*
X574999Y28000D01*
X579999Y23000D01*
D02*
G37*
G36*
X567999D02*
X562999Y18000D01*
X557999Y23000D01*
X562999Y28000D01*
X567999Y23000D01*
D02*
G37*
G36*
X555999D02*
X550999Y18000D01*
X545999Y23000D01*
X550999Y28000D01*
X555999Y23000D01*
D02*
G37*
G36*
X543999D02*
X538999Y18000D01*
X533999Y23000D01*
X538999Y28000D01*
X543999Y23000D01*
D02*
G37*
G36*
X531999D02*
X526999Y18000D01*
X521999Y23000D01*
X526999Y28000D01*
X531999Y23000D01*
D02*
G37*
G36*
X519999D02*
X514999Y18000D01*
X509999Y23000D01*
X514999Y28000D01*
X519999Y23000D01*
D02*
G37*
G36*
X507999D02*
X502999Y18000D01*
X497999Y23000D01*
X502999Y28000D01*
X507999Y23000D01*
D02*
G37*
G36*
X495999D02*
X490999Y18000D01*
X485999Y23000D01*
X490999Y28000D01*
X495999Y23000D01*
D02*
G37*
G36*
X483999D02*
X478999Y18000D01*
X473999Y23000D01*
X478999Y28000D01*
X483999Y23000D01*
D02*
G37*
G36*
X471999D02*
X466999Y18000D01*
X461999Y23000D01*
X466999Y28000D01*
X471999Y23000D01*
D02*
G37*
G36*
X459999D02*
X454999Y18000D01*
X449999Y23000D01*
X454999Y28000D01*
X459999Y23000D01*
D02*
G37*
G36*
X447999D02*
X442999Y18000D01*
X437999Y23000D01*
X442999Y28000D01*
X447999Y23000D01*
D02*
G37*
G36*
X753998Y17000D02*
X748998Y12000D01*
X743998Y17000D01*
X748998Y22000D01*
X753998Y17000D01*
D02*
G37*
G36*
X741999D02*
X736999Y12000D01*
X731999Y17000D01*
X736999Y22000D01*
X741999Y17000D01*
D02*
G37*
G36*
X729998D02*
X724998Y12000D01*
X719998Y17000D01*
X724998Y22000D01*
X729998Y17000D01*
D02*
G37*
G36*
X717999D02*
X712999Y12000D01*
X707999Y17000D01*
X712999Y22000D01*
X717999Y17000D01*
D02*
G37*
G36*
X705999D02*
X700999Y12000D01*
X695999Y17000D01*
X700999Y22000D01*
X705999Y17000D01*
D02*
G37*
G36*
X693999D02*
X688999Y12000D01*
X683999Y17000D01*
X688999Y22000D01*
X693999Y17000D01*
D02*
G37*
G36*
X681999D02*
X676999Y12000D01*
X671999Y17000D01*
X676999Y22000D01*
X681999Y17000D01*
D02*
G37*
G36*
X669999D02*
X664999Y12000D01*
X659999Y17000D01*
X664999Y22000D01*
X669999Y17000D01*
D02*
G37*
G36*
X657999D02*
X652999Y12000D01*
X647999Y17000D01*
X652999Y22000D01*
X657999Y17000D01*
D02*
G37*
G36*
X645999D02*
X640999Y12000D01*
X635999Y17000D01*
X640999Y22000D01*
X645999Y17000D01*
D02*
G37*
G36*
X633999D02*
X628999Y12000D01*
X623999Y17000D01*
X628999Y22000D01*
X633999Y17000D01*
D02*
G37*
G36*
X621999D02*
X616999Y12000D01*
X611999Y17000D01*
X616999Y22000D01*
X621999Y17000D01*
D02*
G37*
G36*
X585999D02*
X580999Y12000D01*
X575999Y17000D01*
X580999Y22000D01*
X585999Y17000D01*
D02*
G37*
G36*
X573999D02*
X568999Y12000D01*
X563999Y17000D01*
X568999Y22000D01*
X573999Y17000D01*
D02*
G37*
G36*
X561999D02*
X556999Y12000D01*
X551999Y17000D01*
X556999Y22000D01*
X561999Y17000D01*
D02*
G37*
G36*
X549999D02*
X544999Y12000D01*
X539999Y17000D01*
X544999Y22000D01*
X549999Y17000D01*
D02*
G37*
G36*
X537999D02*
X532999Y12000D01*
X527999Y17000D01*
X532999Y22000D01*
X537999Y17000D01*
D02*
G37*
G36*
X525999D02*
X520999Y12000D01*
X515999Y17000D01*
X520999Y22000D01*
X525999Y17000D01*
D02*
G37*
G36*
X513999D02*
X508999Y12000D01*
X503999Y17000D01*
X508999Y22000D01*
X513999Y17000D01*
D02*
G37*
G36*
X501999D02*
X496999Y12000D01*
X491999Y17000D01*
X496999Y22000D01*
X501999Y17000D01*
D02*
G37*
G36*
X489999D02*
X484999Y12000D01*
X479999Y17000D01*
X484999Y22000D01*
X489999Y17000D01*
D02*
G37*
G36*
X477999D02*
X472999Y12000D01*
X467999Y17000D01*
X472999Y22000D01*
X477999Y17000D01*
D02*
G37*
G36*
X465999D02*
X460999Y12000D01*
X455999Y17000D01*
X460999Y22000D01*
X465999Y17000D01*
D02*
G37*
G36*
X453999D02*
X448999Y12000D01*
X443999Y17000D01*
X448999Y22000D01*
X453999Y17000D01*
D02*
G37*
G36*
X173188Y8058D02*
X173596Y7886D01*
X175000Y6860D01*
Y2549D01*
X146278D01*
X145292Y4549D01*
X145798Y5209D01*
X146756Y7520D01*
X147082Y7961D01*
X172500D01*
X172500Y7961D01*
X173000Y8060D01*
X173188Y8058D01*
D02*
G37*
G36*
X759998Y11000D02*
X754998Y6000D01*
X749998Y11000D01*
X754998Y16000D01*
X759998Y11000D01*
D02*
G37*
G36*
X747999D02*
X742999Y6000D01*
X737999Y11000D01*
X742999Y16000D01*
X747999Y11000D01*
D02*
G37*
G36*
X735999D02*
X730999Y6000D01*
X725999Y11000D01*
X730999Y16000D01*
X735999Y11000D01*
D02*
G37*
G36*
X723998D02*
X718998Y6000D01*
X713998Y11000D01*
X718998Y16000D01*
X723998Y11000D01*
D02*
G37*
G36*
X711999D02*
X706999Y6000D01*
X701999Y11000D01*
X706999Y16000D01*
X711999Y11000D01*
D02*
G37*
G36*
X699999D02*
X694999Y6000D01*
X689999Y11000D01*
X694999Y16000D01*
X699999Y11000D01*
D02*
G37*
G36*
X687999D02*
X682999Y6000D01*
X677999Y11000D01*
X682999Y16000D01*
X687999Y11000D01*
D02*
G37*
G36*
X675999D02*
X670999Y6000D01*
X665999Y11000D01*
X670999Y16000D01*
X675999Y11000D01*
D02*
G37*
G36*
X663999D02*
X658999Y6000D01*
X653999Y11000D01*
X658999Y16000D01*
X663999Y11000D01*
D02*
G37*
G36*
X651999D02*
X646999Y6000D01*
X641999Y11000D01*
X646999Y16000D01*
X651999Y11000D01*
D02*
G37*
G36*
X639999D02*
X634999Y6000D01*
X629999Y11000D01*
X634999Y16000D01*
X639999Y11000D01*
D02*
G37*
G36*
X627999D02*
X622999Y6000D01*
X617999Y11000D01*
X622999Y16000D01*
X627999Y11000D01*
D02*
G37*
G36*
X579999D02*
X574999Y6000D01*
X569999Y11000D01*
X574999Y16000D01*
X579999Y11000D01*
D02*
G37*
G36*
X567999D02*
X562999Y6000D01*
X557999Y11000D01*
X562999Y16000D01*
X567999Y11000D01*
D02*
G37*
G36*
X555999D02*
X550999Y6000D01*
X545999Y11000D01*
X550999Y16000D01*
X555999Y11000D01*
D02*
G37*
G36*
X543999D02*
X538999Y6000D01*
X533999Y11000D01*
X538999Y16000D01*
X543999Y11000D01*
D02*
G37*
G36*
X531999D02*
X526999Y6000D01*
X521999Y11000D01*
X526999Y16000D01*
X531999Y11000D01*
D02*
G37*
G36*
X519999D02*
X514999Y6000D01*
X509999Y11000D01*
X514999Y16000D01*
X519999Y11000D01*
D02*
G37*
G36*
X507999D02*
X502999Y6000D01*
X497999Y11000D01*
X502999Y16000D01*
X507999Y11000D01*
D02*
G37*
G36*
X495999D02*
X490999Y6000D01*
X485999Y11000D01*
X490999Y16000D01*
X495999Y11000D01*
D02*
G37*
G36*
X483999D02*
X478999Y6000D01*
X473999Y11000D01*
X478999Y16000D01*
X483999Y11000D01*
D02*
G37*
G36*
X471999D02*
X466999Y6000D01*
X461999Y11000D01*
X466999Y16000D01*
X471999Y11000D01*
D02*
G37*
G36*
X459999D02*
X454999Y6000D01*
X449999Y11000D01*
X454999Y16000D01*
X459999Y11000D01*
D02*
G37*
G36*
X447999D02*
X442999Y6000D01*
X437999Y11000D01*
X442999Y16000D01*
X447999Y11000D01*
D02*
G37*
G36*
X408916Y217119D02*
X409619Y216416D01*
X410000Y215497D01*
X410000Y215000D01*
X410000Y162003D01*
X409619Y161084D01*
X408916Y160381D01*
X407997Y160000D01*
X377500Y160000D01*
X377500Y160000D01*
X376765Y159964D01*
X375323Y159677D01*
X373964Y159114D01*
X372742Y158297D01*
X371702Y157258D01*
X370886Y156035D01*
X370323Y154677D01*
X370036Y153235D01*
X370000Y152500D01*
Y67500D01*
X370000Y67500D01*
X370036Y66765D01*
X370323Y65323D01*
X370886Y63965D01*
X371702Y62742D01*
X372742Y61702D01*
X373965Y60886D01*
X375323Y60323D01*
X376765Y60036D01*
X377500Y60000D01*
X407500D01*
X407500Y60000D01*
X407500Y60000D01*
X407501D01*
X408408Y59830D01*
X408916Y59619D01*
X409619Y58916D01*
X410000Y57997D01*
X410000Y57500D01*
X410000Y5000D01*
X410000Y5000D01*
Y4503D01*
X409619Y3584D01*
X408916Y2881D01*
X408115Y2549D01*
X184384D01*
X183584Y2880D01*
X182880Y3584D01*
X182500Y4503D01*
X182500Y5000D01*
X182500Y215000D01*
X182500Y215000D01*
X182677Y215926D01*
X182880Y216416D01*
X183584Y217120D01*
X184384Y217451D01*
X408115D01*
X408916Y217119D01*
D02*
G37*
G36*
X44220Y8116D02*
X45000Y7961D01*
X127918D01*
X128215Y7748D01*
X128244Y7520D01*
X129202Y5209D01*
X129708Y4549D01*
X128722Y2549D01*
X42549D01*
X42549Y5750D01*
X42524Y5874D01*
X42537Y6000D01*
X42448Y6894D01*
X42809Y7313D01*
X43276Y7741D01*
X44191Y8135D01*
X44220Y8116D01*
D02*
G37*
D32*
X15000Y25000D02*
D03*
Y40000D02*
D03*
Y20000D02*
D03*
Y35000D02*
D03*
Y30000D02*
D03*
Y200000D02*
D03*
Y190000D02*
D03*
Y195000D02*
D03*
Y145000D02*
D03*
Y140000D02*
D03*
Y125000D02*
D03*
Y150000D02*
D03*
Y130000D02*
D03*
Y110000D02*
D03*
Y85000D02*
D03*
Y75000D02*
D03*
Y80000D02*
D03*
Y135000D02*
D03*
Y160000D02*
D03*
Y185000D02*
D03*
Y155000D02*
D03*
Y65000D02*
D03*
Y70000D02*
D03*
Y100000D02*
D03*
Y105000D02*
D03*
Y90000D02*
D03*
Y95000D02*
D03*
Y115000D02*
D03*
Y120000D02*
D03*
D33*
X30000Y25000D02*
Y25000D01*
D34*
X100500Y179500D02*
X110000Y170000D01*
X85500Y174000D02*
X91000Y179500D01*
X100500D01*
X85500Y169000D02*
Y174000D01*
X81000Y164500D02*
X85500Y169000D01*
X81000Y160500D02*
Y164500D01*
X78000Y157500D02*
X81000Y160500D01*
X72500Y157500D02*
X78000D01*
X57000Y30000D02*
X68500Y41500D01*
X110000Y123157D02*
Y132500D01*
X64500Y77657D02*
X110000Y123157D01*
X114000Y121500D02*
Y171657D01*
X68500Y76000D02*
X114000Y121500D01*
X110000Y132500D02*
Y170000D01*
X64500Y62000D02*
Y77657D01*
X68500Y41500D02*
Y76000D01*
X72500Y42000D02*
Y73500D01*
X119000Y120000D02*
X153000D01*
X72500Y73500D02*
X119000Y120000D01*
X15000Y30000D02*
X57000D01*
X43000Y38000D02*
X53500Y48500D01*
X26500Y40000D02*
X28500Y38000D01*
X43000D01*
X53500Y48500D02*
X55000D01*
X60000Y47500D01*
X72500Y42000D02*
X77000Y37500D01*
X60000Y57500D02*
X64500Y62000D01*
X54500Y35000D02*
X60000Y40500D01*
X15000Y35000D02*
X54500D01*
X89843Y183000D02*
X102657D01*
X114000Y171657D01*
X82000Y175157D02*
X89843Y183000D01*
X82000Y170500D02*
Y175157D01*
X79000Y167500D02*
X82000Y170500D01*
X72500Y167500D02*
X79000D01*
X34000Y91500D02*
X39500Y86000D01*
Y82500D02*
X44500Y77500D01*
X39500Y82500D02*
Y86000D01*
X35000Y80000D02*
X42500Y72500D01*
X32000Y87000D02*
X35000Y84000D01*
Y80000D02*
Y84000D01*
X31000Y91500D02*
X34000D01*
X28000Y94500D02*
X31000Y91500D01*
X28000Y94500D02*
Y108500D01*
X28500Y87000D02*
X32000D01*
X26500Y85000D02*
X28500Y87000D01*
X26500Y80000D02*
X28500Y78000D01*
X15000Y80000D02*
X26500D01*
X28500Y78000D02*
X31500D01*
X40000Y69500D01*
X15000Y85000D02*
X26500D01*
X52500Y78000D02*
X55000D01*
X60000Y77000D01*
X40000Y69500D02*
X55000D01*
X60000Y70500D01*
X39000Y65000D02*
X55000D01*
X60000Y64000D01*
X42500Y72500D02*
X47000D01*
X29000Y75000D02*
X39000Y65000D01*
X15000Y75000D02*
X29000D01*
X47000Y72500D02*
X52500Y78000D01*
X44500Y77500D02*
X45000D01*
X26500Y110000D02*
X28000Y108500D01*
X15000Y110000D02*
X26500D01*
X15000Y40000D02*
X26500D01*
D35*
X77000Y50000D02*
X148000D01*
X153000Y45000D01*
X100000Y55000D02*
X153000D01*
X788334Y47502D02*
Y57498D01*
X793332Y52500D01*
X786668D01*
D36*
X86500Y126000D02*
Y159243D01*
X89500Y124757D02*
Y158000D01*
X86500Y159243D02*
X93757Y166500D01*
X54500Y91500D02*
X57000D01*
X52500Y93500D02*
X54500Y91500D01*
X93757Y166500D02*
X99500D01*
X101500Y168500D01*
X60000Y94500D02*
Y112500D01*
X57000Y91500D02*
X60000Y94500D01*
X89500Y158000D02*
X95000Y163500D01*
X52500Y86500D02*
X54500Y88500D01*
X58243D01*
X99500Y163500D02*
X101500Y161500D01*
X95000Y163500D02*
X99500D01*
X58243Y88500D02*
X63000Y93257D01*
Y111257D01*
X60000Y112500D02*
X69000Y121500D01*
X82000D01*
X63000Y111257D02*
X70243Y118500D01*
X83243D01*
X89500Y124757D01*
X82000Y121500D02*
X86500Y126000D01*
X103257Y192500D02*
X105094Y190664D01*
X104500Y195500D02*
X106336Y193664D01*
X54000Y183243D02*
X66257Y195500D01*
X57000Y182000D02*
X67500Y192500D01*
X103257D01*
X66257Y195500D02*
X104500D01*
X106336Y193664D02*
X126000Y174000D01*
X124757Y171000D02*
X145750D01*
X126000Y174000D02*
X145750D01*
X105094Y190664D02*
X124757Y171000D01*
X42500Y106500D02*
X49500Y113500D01*
X52500Y112257D02*
Y115757D01*
X49500Y117000D02*
X63000Y130500D01*
X49500Y113500D02*
Y117000D01*
X43743Y103500D02*
X52500Y112257D01*
Y115757D02*
X66000Y129257D01*
X63000Y130500D02*
Y178243D01*
X66000Y129257D02*
Y177000D01*
X70000Y181500D02*
X72000Y183500D01*
X66257Y181500D02*
X70000D01*
X63000Y178243D02*
X66257Y181500D01*
X39500Y106500D02*
X42500D01*
X37500Y108500D02*
X39500Y106500D01*
X67500Y178500D02*
X70000D01*
X66000Y177000D02*
X67500Y178500D01*
X70000D02*
X72000Y176500D01*
X39500Y103500D02*
X43743D01*
X37500Y101500D02*
X39500Y103500D01*
X54000Y137500D02*
Y183243D01*
X39500Y123000D02*
X54000Y137500D01*
X145750Y174000D02*
X147750Y176000D01*
X15000Y130000D02*
X26500Y129000D01*
X29243D02*
X35243Y123000D01*
X39500D01*
X26500Y129000D02*
X29243D01*
X57000Y136257D02*
Y182000D01*
X40743Y120000D02*
X57000Y136257D01*
X145750Y171000D02*
X147750Y169000D01*
X26500Y126000D02*
X28000D01*
X34000Y120000D01*
X40743D01*
X15000Y125000D02*
X26500Y126000D01*
D37*
X23000Y190000D02*
Y195000D01*
X15000Y195000D02*
X30000D01*
X15000Y190000D02*
X23000D01*
X15000Y200000D02*
X30000D01*
X15000Y20000D02*
X30000D01*
X15000Y25000D02*
X30000D01*
D40*
X153750Y130000D02*
D03*
X148750Y125000D02*
D03*
X45750Y163500D02*
D03*
X200000Y20000D02*
D03*
X49250Y150500D02*
D03*
X380000Y170000D02*
D03*
X395000D02*
D03*
X380000Y185000D02*
D03*
X395000D02*
D03*
X380000Y200000D02*
D03*
X395000D02*
D03*
X380000Y215000D02*
D03*
X395000D02*
D03*
X380000Y35000D02*
D03*
X395000D02*
D03*
X380000Y50000D02*
D03*
X395000D02*
D03*
X380000Y20000D02*
D03*
X395000D02*
D03*
X200000Y215000D02*
D03*
X215000D02*
D03*
X230000D02*
D03*
X245000D02*
D03*
X260000D02*
D03*
X275000D02*
D03*
X290000D02*
D03*
X305000D02*
D03*
X320000D02*
D03*
X335000D02*
D03*
X350000D02*
D03*
X365000D02*
D03*
X200000Y200000D02*
D03*
X215000D02*
D03*
X230000D02*
D03*
X245000D02*
D03*
X260000D02*
D03*
X275000D02*
D03*
X290000D02*
D03*
X305000D02*
D03*
X320000D02*
D03*
X335000D02*
D03*
X350000D02*
D03*
X365000D02*
D03*
X200000Y185000D02*
D03*
X215000D02*
D03*
X230000D02*
D03*
X245000D02*
D03*
X260000D02*
D03*
X275000D02*
D03*
X290000D02*
D03*
X305000D02*
D03*
X320000D02*
D03*
X335000D02*
D03*
X350000D02*
D03*
X365000D02*
D03*
X200000Y170000D02*
D03*
X215000D02*
D03*
X230000D02*
D03*
X245000D02*
D03*
X260000D02*
D03*
X275000D02*
D03*
X290000D02*
D03*
X305000D02*
D03*
X320000D02*
D03*
X335000D02*
D03*
X350000D02*
D03*
X365000D02*
D03*
X200000Y155000D02*
D03*
X215000D02*
D03*
X230000D02*
D03*
X245000D02*
D03*
X260000D02*
D03*
X275000D02*
D03*
X290000D02*
D03*
X305000D02*
D03*
X320000D02*
D03*
X335000D02*
D03*
X350000D02*
D03*
X365000D02*
D03*
X200000Y140000D02*
D03*
X215000D02*
D03*
X230000D02*
D03*
X245000D02*
D03*
X260000D02*
D03*
X275000D02*
D03*
X290000D02*
D03*
X305000D02*
D03*
X320000D02*
D03*
X335000D02*
D03*
X350000D02*
D03*
X365000D02*
D03*
X200000Y125000D02*
D03*
X215000D02*
D03*
X230000D02*
D03*
X245000D02*
D03*
X260000D02*
D03*
X275000D02*
D03*
X290000D02*
D03*
X305000D02*
D03*
X320000D02*
D03*
X335000D02*
D03*
X350000D02*
D03*
X365000D02*
D03*
X200000Y110000D02*
D03*
X215000D02*
D03*
X230000D02*
D03*
X245000D02*
D03*
X260000D02*
D03*
X275000D02*
D03*
X290000D02*
D03*
X305000D02*
D03*
X320000D02*
D03*
X335000D02*
D03*
X350000D02*
D03*
X365000D02*
D03*
X200000Y95000D02*
D03*
X215000D02*
D03*
X230000D02*
D03*
X245000D02*
D03*
X260000D02*
D03*
X275000D02*
D03*
X290000D02*
D03*
X305000D02*
D03*
X320000D02*
D03*
X335000D02*
D03*
X350000D02*
D03*
X365000D02*
D03*
X200000Y80000D02*
D03*
X215000D02*
D03*
X230000D02*
D03*
X245000D02*
D03*
X260000D02*
D03*
X275000D02*
D03*
X290000D02*
D03*
X305000D02*
D03*
X320000D02*
D03*
X335000D02*
D03*
X350000D02*
D03*
X365000D02*
D03*
X200000Y65000D02*
D03*
X215000D02*
D03*
X230000D02*
D03*
X245000D02*
D03*
X260000D02*
D03*
X275000D02*
D03*
X290000D02*
D03*
X305000D02*
D03*
X320000D02*
D03*
X335000D02*
D03*
X350000D02*
D03*
X365000D02*
D03*
X200000Y50000D02*
D03*
X215000D02*
D03*
X230000D02*
D03*
X245000D02*
D03*
X260000D02*
D03*
X275000D02*
D03*
X290000D02*
D03*
X305000D02*
D03*
X320000D02*
D03*
X335000D02*
D03*
X350000D02*
D03*
X365000D02*
D03*
X200000Y35000D02*
D03*
X215000D02*
D03*
X230000D02*
D03*
X245000D02*
D03*
X260000D02*
D03*
X275000D02*
D03*
X290000D02*
D03*
X305000D02*
D03*
X320000D02*
D03*
X335000D02*
D03*
X350000D02*
D03*
X365000D02*
D03*
X215000Y20000D02*
D03*
X230000D02*
D03*
X245000D02*
D03*
X260000D02*
D03*
X275000D02*
D03*
X290000D02*
D03*
X305000D02*
D03*
X320000D02*
D03*
X335000D02*
D03*
X350000D02*
D03*
X365000D02*
D03*
X185000Y215000D02*
D03*
Y200000D02*
D03*
Y185000D02*
D03*
Y170000D02*
D03*
Y155000D02*
D03*
Y140000D02*
D03*
Y125000D02*
D03*
Y110000D02*
D03*
Y95000D02*
D03*
Y80000D02*
D03*
Y65000D02*
D03*
Y50000D02*
D03*
Y35000D02*
D03*
X395000Y5000D02*
D03*
X380000D02*
D03*
X365000D02*
D03*
X350000D02*
D03*
X335000D02*
D03*
X320000D02*
D03*
X305000D02*
D03*
X290000D02*
D03*
X275000D02*
D03*
X260000D02*
D03*
X245000D02*
D03*
X230000D02*
D03*
X215000D02*
D03*
X200000D02*
D03*
X185000D02*
D03*
X120000Y112500D02*
D03*
X100000Y90000D02*
D03*
X153000Y112500D02*
D03*
X120000Y162500D02*
D03*
Y127500D02*
D03*
X77000Y142500D02*
D03*
Y127500D02*
D03*
X52500Y93500D02*
D03*
X101500Y168500D02*
D03*
X52500Y86500D02*
D03*
X101500Y161500D02*
D03*
X30000Y187500D02*
D03*
X96500D02*
D03*
X124000Y215000D02*
D03*
X151000D02*
D03*
X172500D02*
D03*
X45000D02*
D03*
X67500Y5000D02*
D03*
X52500D02*
D03*
X30000Y42500D02*
D03*
X170500Y19000D02*
D03*
Y25000D02*
D03*
X148000Y40000D02*
D03*
X105000Y60000D02*
D03*
X100000Y55000D02*
D03*
X153000Y62500D02*
D03*
X153000Y45000D02*
D03*
X41750Y187500D02*
D03*
X35750D02*
D03*
X148500Y5000D02*
D03*
X172500D02*
D03*
X126500D02*
D03*
X112500D02*
D03*
X75000D02*
D03*
X60000D02*
D03*
X45000D02*
D03*
X170500Y201000D02*
D03*
Y195000D02*
D03*
X72000Y183500D02*
D03*
X37500Y108500D02*
D03*
X72000Y176500D02*
D03*
X37500Y101500D02*
D03*
X96500Y32500D02*
D03*
X77000Y97500D02*
D03*
Y112500D02*
D03*
X96500Y127500D02*
D03*
X153000Y55000D02*
D03*
X153000Y120000D02*
D03*
X151250Y145000D02*
D03*
X77000Y37500D02*
D03*
Y44000D02*
D03*
Y50000D02*
D03*
X55000Y44000D02*
D03*
X60000Y40500D02*
D03*
Y47500D02*
D03*
X96500Y142500D02*
D03*
X147750Y176000D02*
D03*
Y169000D02*
D03*
X39750Y171750D02*
D03*
X43000Y157500D02*
D03*
X30000Y160500D02*
D03*
X76500Y162500D02*
D03*
X72500Y157500D02*
D03*
Y167500D02*
D03*
X96500Y157500D02*
D03*
Y172500D02*
D03*
X152750Y165000D02*
D03*
Y180000D02*
D03*
X77000Y187500D02*
D03*
Y172500D02*
D03*
X30000Y82500D02*
D03*
X45000Y77500D02*
D03*
X60000Y64000D02*
D03*
X55000Y73750D02*
D03*
Y60750D02*
D03*
X60000Y57500D02*
D03*
X47500Y82500D02*
D03*
Y97500D02*
D03*
X32500Y112500D02*
D03*
X153500Y19000D02*
D03*
Y25000D02*
D03*
Y201000D02*
D03*
Y195000D02*
D03*
X60000Y77000D02*
D03*
Y70500D02*
D03*
X37500Y127500D02*
D03*
X32500Y142500D02*
D03*
X30000Y67500D02*
D03*
X32500Y97500D02*
D03*
D41*
X155527Y148855D02*
X157203Y147178D01*
X153750Y139000D02*
X157203Y142453D01*
Y147178D01*
X155527Y148855D02*
Y156120D01*
X160500Y161093D01*
Y183210D01*
X153527Y148027D02*
Y156948D01*
X158500Y161922D02*
Y182382D01*
X153527Y156948D02*
X158500Y161922D01*
X156500Y162750D02*
Y181553D01*
X151250Y157500D02*
X156500Y162750D01*
X151250Y145000D02*
Y157500D01*
X35750Y158118D02*
X35750Y158118D01*
X35750Y157330D02*
Y158118D01*
X35750Y158118D02*
Y158803D01*
X47500Y170553D01*
Y185328D01*
X32000Y150000D02*
X37750Y155750D01*
Y157553D01*
X41447Y161250D01*
X32479Y154058D02*
X35750Y157330D01*
X33750Y159632D02*
X45500Y171382D01*
X31553Y156750D02*
X33750Y158947D01*
Y159632D01*
X47500Y185328D02*
X64422Y202250D01*
X108578D01*
X153750Y130000D02*
X153750Y130000D01*
X153750Y130000D02*
Y139000D01*
X155203Y143750D02*
Y146350D01*
X148750Y125000D02*
Y137197D01*
X155000Y143546D02*
X155203Y143750D01*
X155000Y143447D02*
Y143546D01*
X148750Y137197D02*
X155000Y143447D01*
X153527Y148027D02*
X153527D01*
X155203Y146350D01*
X28447Y156750D02*
X31553D01*
X15942Y159058D02*
X26139D01*
X28447Y156750D01*
X15942Y154058D02*
X32479D01*
X15000Y155000D02*
X15942Y154058D01*
X110578Y203078D02*
Y203078D01*
X63593Y204250D02*
X109407D01*
X110578Y203078D01*
X45500Y171382D02*
Y186157D01*
X63593Y204250D01*
X15000Y160000D02*
X15942Y159058D01*
X155960Y187750D02*
X160500Y183210D01*
X155132Y185750D02*
X158500Y182382D01*
X125078Y185750D02*
X155132D01*
X125907Y187750D02*
X155960D01*
X110578Y203078D02*
X125907Y187750D01*
X108578Y202250D02*
X125078Y185750D01*
X65250Y200250D02*
X107750D01*
X124250Y183750D02*
X154303D01*
X107750Y200250D02*
X124250Y183750D01*
X154303D02*
X156500Y181553D01*
X49500Y156500D02*
Y184500D01*
X65250Y200250D01*
X15000Y150000D02*
X32000D01*
X45500Y163500D02*
X45750D01*
X43250Y161250D02*
X45500Y163500D01*
X41447Y161250D02*
X43250D01*
X37500Y144500D02*
X49500Y156500D01*
X15000Y145000D02*
X29414D01*
X33200Y146450D02*
X41828Y155078D01*
X30864Y146450D02*
X33200D01*
X29414Y145000D02*
X30864Y146450D01*
X37500Y140000D02*
Y144500D01*
X35500Y138000D02*
X37500Y140000D01*
X30000Y138000D02*
X35500D01*
X28000Y140000D02*
X30000Y138000D01*
X15000Y140000D02*
X28000D01*
M02*
