G04*
G04 #@! TF.GenerationSoftware,Altium Limited,Altium Designer,20.1.12 (249)*
G04*
G04 Layer_Color=8421504*
%FSLAX44Y44*%
%MOMM*%
G71*
G04*
G04 #@! TF.SameCoordinates,D2571EE1-FD4D-4DC4-B5C4-F58D1C69BCFF*
G04*
G04*
G04 #@! TF.FilePolarity,Positive*
G04*
G01*
G75*
G04:AMPARAMS|DCode=10|XSize=0.3mm|YSize=0.3mm|CornerRadius=0.0625mm|HoleSize=0mm|Usage=FLASHONLY|Rotation=0.000|XOffset=0mm|YOffset=0mm|HoleType=Round|Shape=RoundedRectangle|*
%AMROUNDEDRECTD10*
21,1,0.3000,0.1750,0,0,0.0*
21,1,0.1750,0.3000,0,0,0.0*
1,1,0.1250,0.0875,-0.0875*
1,1,0.1250,-0.0875,-0.0875*
1,1,0.1250,-0.0875,0.0875*
1,1,0.1250,0.0875,0.0875*
%
%ADD10ROUNDEDRECTD10*%
G04:AMPARAMS|DCode=11|XSize=0.75mm|YSize=2.65mm|CornerRadius=0.075mm|HoleSize=0mm|Usage=FLASHONLY|Rotation=90.000|XOffset=0mm|YOffset=0mm|HoleType=Round|Shape=RoundedRectangle|*
%AMROUNDEDRECTD11*
21,1,0.7500,2.5000,0,0,90.0*
21,1,0.6000,2.6500,0,0,90.0*
1,1,0.1500,1.2500,0.3000*
1,1,0.1500,1.2500,-0.3000*
1,1,0.1500,-1.2500,-0.3000*
1,1,0.1500,-1.2500,0.3000*
%
%ADD11ROUNDEDRECTD11*%
G04:AMPARAMS|DCode=12|XSize=0.25mm|YSize=1.2mm|CornerRadius=0.05mm|HoleSize=0mm|Usage=FLASHONLY|Rotation=90.000|XOffset=0mm|YOffset=0mm|HoleType=Round|Shape=RoundedRectangle|*
%AMROUNDEDRECTD12*
21,1,0.2500,1.1000,0,0,90.0*
21,1,0.1500,1.2000,0,0,90.0*
1,1,0.1000,0.5500,0.0750*
1,1,0.1000,0.5500,-0.0750*
1,1,0.1000,-0.5500,-0.0750*
1,1,0.1000,-0.5500,0.0750*
%
%ADD12ROUNDEDRECTD12*%
G04:AMPARAMS|DCode=13|XSize=0.25mm|YSize=0.95mm|CornerRadius=0.05mm|HoleSize=0mm|Usage=FLASHONLY|Rotation=90.000|XOffset=0mm|YOffset=0mm|HoleType=Round|Shape=RoundedRectangle|*
%AMROUNDEDRECTD13*
21,1,0.2500,0.8500,0,0,90.0*
21,1,0.1500,0.9500,0,0,90.0*
1,1,0.1000,0.4250,0.0750*
1,1,0.1000,0.4250,-0.0750*
1,1,0.1000,-0.4250,-0.0750*
1,1,0.1000,-0.4250,0.0750*
%
%ADD13ROUNDEDRECTD13*%
G36*
X418500Y85045D02*
X418500Y95075D01*
X417229Y95258D01*
X414756Y95946D01*
X412437Y97046D01*
X410340Y98525D01*
X408525Y100340D01*
X407046Y102437D01*
X405947Y104756D01*
X405258Y107229D01*
X405075Y108500D01*
X405075D01*
X395045Y108500D01*
X395182Y106231D01*
X396268Y101817D01*
X398133Y97671D01*
X400715Y93930D01*
X403930Y90715D01*
X407671Y88133D01*
X411817Y86268D01*
X416231Y85182D01*
X418500Y85045D01*
X418500D01*
D02*
G37*
G36*
X395045Y111500D02*
X405075Y111500D01*
X405258Y112771D01*
X405946Y115244D01*
X407046Y117563D01*
X408525Y119660D01*
X410340Y121475D01*
X412437Y122954D01*
X414756Y124053D01*
X417229Y124742D01*
X418500Y124925D01*
Y124925D01*
X418500Y134955D01*
X416231Y134818D01*
X411817Y133732D01*
X407671Y131867D01*
X403930Y129285D01*
X400715Y126070D01*
X398133Y122329D01*
X396268Y118183D01*
X395182Y113769D01*
X395045Y111500D01*
D01*
D02*
G37*
G36*
X444955Y108500D02*
X434925Y108500D01*
X434742Y107229D01*
X434053Y104756D01*
X432954Y102437D01*
X431475Y100340D01*
X429660Y98525D01*
X427563Y97046D01*
X425244Y95947D01*
X422771Y95258D01*
X421500Y95075D01*
X421500Y95075D01*
Y85045D01*
X423769Y85182D01*
X428183Y86268D01*
X432329Y88133D01*
X436070Y90715D01*
X439285Y93930D01*
X441867Y97671D01*
X443732Y101817D01*
X444818Y106231D01*
X444955Y108500D01*
X444955Y108500D01*
D02*
G37*
G36*
X421500Y134955D02*
X421500Y124925D01*
X422771Y124742D01*
X425244Y124053D01*
X427563Y122954D01*
X429660Y121475D01*
X431475Y119660D01*
X432954Y117563D01*
X434053Y115244D01*
X434742Y112771D01*
X434925Y111500D01*
X434925Y111500D01*
X444955D01*
X444818Y113769D01*
X443732Y118183D01*
X441867Y122329D01*
X439285Y126070D01*
X436070Y129285D01*
X432329Y131867D01*
X428183Y133732D01*
X423769Y134818D01*
X421500Y134955D01*
X421500Y134955D01*
D02*
G37*
D10*
X69250Y205500D02*
D03*
X63750D02*
D03*
X69250Y199000D02*
D03*
X63750D02*
D03*
X70750Y83500D02*
D03*
X65250D02*
D03*
X70750Y77000D02*
D03*
X65250D02*
D03*
X70750Y70500D02*
D03*
X65250D02*
D03*
X70750Y64000D02*
D03*
X65250D02*
D03*
X70750Y47500D02*
D03*
X65250D02*
D03*
X70750Y40500D02*
D03*
X65250D02*
D03*
X69250Y192500D02*
D03*
X63750D02*
D03*
X65250Y57500D02*
D03*
X70750D02*
D03*
D11*
X92500Y213500D02*
D03*
Y6500D02*
D03*
D12*
X86750Y197500D02*
D03*
Y187500D02*
D03*
Y182500D02*
D03*
Y192500D02*
D03*
Y202500D02*
D03*
Y72500D02*
D03*
Y102500D02*
D03*
Y67500D02*
D03*
Y97500D02*
D03*
Y62500D02*
D03*
Y57500D02*
D03*
Y52500D02*
D03*
Y157500D02*
D03*
Y152500D02*
D03*
Y147500D02*
D03*
Y137500D02*
D03*
Y142500D02*
D03*
Y132500D02*
D03*
Y107500D02*
D03*
Y127500D02*
D03*
Y112500D02*
D03*
Y122500D02*
D03*
Y117500D02*
D03*
Y17500D02*
D03*
Y22500D02*
D03*
Y27500D02*
D03*
Y32500D02*
D03*
Y37500D02*
D03*
Y47500D02*
D03*
Y42500D02*
D03*
Y167500D02*
D03*
Y162500D02*
D03*
Y172500D02*
D03*
Y177500D02*
D03*
D13*
X162000Y100000D02*
D03*
Y105000D02*
D03*
Y180000D02*
D03*
Y95000D02*
D03*
Y110000D02*
D03*
Y120000D02*
D03*
Y140000D02*
D03*
Y115000D02*
D03*
Y125000D02*
D03*
Y130000D02*
D03*
Y135000D02*
D03*
Y145000D02*
D03*
Y195000D02*
D03*
Y190000D02*
D03*
Y155000D02*
D03*
Y200000D02*
D03*
Y185000D02*
D03*
Y150000D02*
D03*
Y160000D02*
D03*
Y20000D02*
D03*
Y40000D02*
D03*
Y170000D02*
D03*
Y55000D02*
D03*
Y35000D02*
D03*
Y25000D02*
D03*
Y30000D02*
D03*
Y45000D02*
D03*
Y50000D02*
D03*
Y70000D02*
D03*
Y60000D02*
D03*
Y65000D02*
D03*
Y175000D02*
D03*
Y165000D02*
D03*
M02*
