G04*
G04 #@! TF.GenerationSoftware,Altium Limited,Altium Designer,20.1.12 (249)*
G04*
G04 Layer_Physical_Order=3*
G04 Layer_Color=16440176*
%FSLAX44Y44*%
%MOMM*%
G71*
G04*
G04 #@! TF.SameCoordinates,A9FEEA33-96DE-4984-9D73-42BCD588803D*
G04*
G04*
G04 #@! TF.FilePolarity,Positive*
G04*
G01*
G75*
%ADD12C,0.1500*%
%ADD124O,3.8000X1.8000*%
%ADD125C,0.4500*%
%ADD126C,3.6000*%
G36*
X614902Y318000D02*
X583500D01*
X572500Y303500D01*
Y296500D01*
X583500Y282000D01*
X614902D01*
Y188000D01*
X583500D01*
X572500Y173500D01*
Y166500D01*
X583500Y152000D01*
X614902D01*
Y58000D01*
X583500D01*
X572500Y43500D01*
Y36500D01*
X583500Y22000D01*
X614902D01*
Y5098D01*
X82450D01*
X31249Y69099D01*
X31683Y70000D01*
X40000Y70000D01*
X40000Y90000D01*
X20000D01*
X20000Y84671D01*
X19056Y84340D01*
X5098Y101788D01*
Y109971D01*
X6098Y110036D01*
X6283Y108628D01*
X7391Y105953D01*
X9155Y103655D01*
X11453Y101891D01*
X14128Y100783D01*
X17000Y100405D01*
X24500D01*
Y111500D01*
Y122595D01*
X17000D01*
X14128Y122217D01*
X11453Y121108D01*
X9155Y119345D01*
X7391Y117047D01*
X6283Y114372D01*
X6098Y112964D01*
X5098Y113029D01*
X5098Y226971D01*
X6098Y227036D01*
X6283Y225628D01*
X7391Y222952D01*
X9155Y220655D01*
X11453Y218892D01*
X14128Y217783D01*
X17000Y217405D01*
X24500D01*
Y228500D01*
Y239595D01*
X17000D01*
X14128Y239217D01*
X11453Y238109D01*
X9155Y236345D01*
X7391Y234048D01*
X6283Y231372D01*
X6098Y229964D01*
X5098Y230030D01*
Y238211D01*
X82450Y334902D01*
X171268D01*
X171803Y333902D01*
X171164Y332946D01*
X170834Y331288D01*
X171164Y329630D01*
X172104Y328224D01*
X173509Y327285D01*
X175168Y326955D01*
X176826Y327285D01*
X178232Y328224D01*
X179171Y329630D01*
X179501Y331288D01*
X179171Y332946D01*
X178532Y333902D01*
X179067Y334902D01*
X614902D01*
Y318000D01*
D02*
G37*
%LPC*%
G36*
X186408Y332663D02*
X184750Y332334D01*
X183344Y331394D01*
X182404Y329989D01*
X182075Y328330D01*
X182404Y326672D01*
X183344Y325266D01*
X184750Y324327D01*
X186408Y323997D01*
X188066Y324327D01*
X189472Y325266D01*
X190411Y326672D01*
X190741Y328330D01*
X190411Y329989D01*
X189472Y331394D01*
X188066Y332334D01*
X186408Y332663D01*
D02*
G37*
G36*
X270130Y324330D02*
X268471Y324000D01*
X267065Y323061D01*
X266126Y321655D01*
X265796Y319997D01*
X266126Y318339D01*
X267065Y316933D01*
X268471Y315994D01*
X270130Y315664D01*
X271788Y315994D01*
X273193Y316933D01*
X274133Y318339D01*
X274463Y319997D01*
X274133Y321655D01*
X273193Y323061D01*
X271788Y324000D01*
X270130Y324330D01*
D02*
G37*
G36*
X250000Y316833D02*
X248342Y316503D01*
X246936Y315564D01*
X245997Y314158D01*
X245667Y312500D01*
X245997Y310842D01*
X246936Y309436D01*
X248342Y308497D01*
X250000Y308167D01*
X251658Y308497D01*
X253064Y309436D01*
X254003Y310842D01*
X254333Y312500D01*
X254003Y314158D01*
X253064Y315564D01*
X251658Y316503D01*
X250000Y316833D01*
D02*
G37*
G36*
X543500Y295333D02*
X541842Y295003D01*
X540436Y294064D01*
X539497Y292658D01*
X539167Y291000D01*
X539497Y289342D01*
X540436Y287936D01*
X541842Y286997D01*
X543500Y286667D01*
X545158Y286997D01*
X546564Y287936D01*
X547504Y289342D01*
X547833Y291000D01*
X547504Y292658D01*
X546564Y294064D01*
X545158Y295003D01*
X543500Y295333D01*
D02*
G37*
G36*
X144980Y300647D02*
X143322Y300317D01*
X141916Y299378D01*
X140976Y297972D01*
X140647Y296314D01*
X140976Y294656D01*
X141874Y293313D01*
X140977Y291970D01*
X140647Y290312D01*
X140977Y288654D01*
X141873Y287312D01*
X140977Y285970D01*
X140647Y284312D01*
X140977Y282654D01*
X141916Y281248D01*
X143322Y280309D01*
X144980Y279979D01*
X146638Y280309D01*
X148044Y281248D01*
X148983Y282654D01*
X149313Y284312D01*
X149109Y285340D01*
X149952Y286183D01*
X150980Y285979D01*
X152638Y286309D01*
X154044Y287248D01*
X154983Y288654D01*
X155313Y290312D01*
X154983Y291970D01*
X154087Y293312D01*
X154983Y294654D01*
X155313Y296312D01*
X154983Y297970D01*
X154044Y299376D01*
X152638Y300315D01*
X150980Y300645D01*
X149322Y300315D01*
X147981Y299420D01*
X146638Y300317D01*
X144980Y300647D01*
D02*
G37*
G36*
X422938Y282866D02*
X421280Y282537D01*
X419874Y281597D01*
X418935Y280191D01*
X418605Y278533D01*
X418935Y276875D01*
X419874Y275469D01*
X421280Y274530D01*
X422938Y274200D01*
X424596Y274530D01*
X426002Y275469D01*
X426941Y276875D01*
X427271Y278533D01*
X426941Y280191D01*
X426002Y281597D01*
X424596Y282537D01*
X422938Y282866D01*
D02*
G37*
G36*
X215000Y275334D02*
X213342Y275004D01*
X211936Y274064D01*
X211064D01*
X209658Y275004D01*
X208000Y275334D01*
X206342Y275004D01*
X204936Y274064D01*
X204064D01*
X202658Y275004D01*
X201000Y275334D01*
X199342Y275004D01*
X197936Y274064D01*
X196997Y272659D01*
X196667Y271000D01*
X196997Y269342D01*
X197893Y268000D01*
X196997Y266659D01*
X196667Y265000D01*
X196997Y263342D01*
X197936Y261936D01*
X199342Y260997D01*
X201000Y260667D01*
X202658Y260997D01*
X204064Y261936D01*
X204936D01*
X206342Y260997D01*
X208000Y260667D01*
X209658Y260997D01*
X211064Y261936D01*
X211936D01*
X213342Y260997D01*
X215000Y260667D01*
X216658Y260997D01*
X218064Y261936D01*
X219003Y263342D01*
X219333Y265000D01*
X219003Y266659D01*
X218968Y266712D01*
X219689Y267433D01*
X220342Y266997D01*
X222000Y266667D01*
X223658Y266997D01*
X225064Y267936D01*
X226003Y269342D01*
X226333Y271000D01*
X226003Y272658D01*
X225064Y274064D01*
X223658Y275003D01*
X222000Y275333D01*
X220342Y275003D01*
X218936Y274064D01*
X217836Y274217D01*
X216658Y275004D01*
X215000Y275334D01*
D02*
G37*
G36*
X469250Y322784D02*
X465013Y322450D01*
X460881Y321458D01*
X456954Y319832D01*
X453331Y317611D01*
X450099Y314851D01*
X447339Y311619D01*
X445118Y307996D01*
X443492Y304069D01*
X442500Y299937D01*
X442166Y295700D01*
X442500Y291463D01*
X443492Y287331D01*
X445118Y283404D01*
X447339Y279781D01*
X450099Y276549D01*
X453331Y273789D01*
X456954Y271568D01*
X460881Y269942D01*
X465013Y268950D01*
X469250Y268617D01*
X473487Y268950D01*
X477619Y269942D01*
X481546Y271568D01*
X485169Y273789D01*
X488401Y276549D01*
X491161Y279781D01*
X493382Y283404D01*
X495008Y287331D01*
X496000Y291463D01*
X496334Y295700D01*
X496000Y299937D01*
X495008Y304069D01*
X493382Y307996D01*
X491161Y311619D01*
X488401Y314851D01*
X485169Y317611D01*
X481546Y319832D01*
X477619Y321458D01*
X473487Y322450D01*
X469250Y322784D01*
D02*
G37*
G36*
X90750D02*
X86513Y322450D01*
X82381Y321458D01*
X78454Y319832D01*
X74831Y317611D01*
X71599Y314851D01*
X68839Y311619D01*
X66618Y307996D01*
X64992Y304069D01*
X64000Y299937D01*
X63667Y295700D01*
X64000Y291463D01*
X64992Y287331D01*
X66618Y283404D01*
X68839Y279781D01*
X71599Y276549D01*
X74831Y273789D01*
X78454Y271568D01*
X82381Y269942D01*
X86513Y268950D01*
X90750Y268617D01*
X94987Y268950D01*
X99119Y269942D01*
X103046Y271568D01*
X106669Y273789D01*
X109901Y276549D01*
X112661Y279781D01*
X114882Y283404D01*
X116508Y287331D01*
X117500Y291463D01*
X117833Y295700D01*
X117500Y299937D01*
X116508Y304069D01*
X114882Y307996D01*
X112661Y311619D01*
X109901Y314851D01*
X106669Y317611D01*
X103046Y319832D01*
X99119Y321458D01*
X94987Y322450D01*
X90750Y322784D01*
D02*
G37*
G36*
X180000Y280086D02*
X177389Y279743D01*
X174957Y278735D01*
X172868Y277132D01*
X171265Y275043D01*
X170257Y272611D01*
X169914Y270000D01*
X170257Y267390D01*
X171265Y264957D01*
X172868Y262868D01*
X174957Y261265D01*
X177389Y260258D01*
X180000Y259914D01*
X182610Y260258D01*
X185043Y261265D01*
X187132Y262868D01*
X188735Y264957D01*
X189743Y267390D01*
X190086Y270000D01*
X189743Y272611D01*
X188735Y275043D01*
X187132Y277132D01*
X185043Y278735D01*
X182610Y279743D01*
X180000Y280086D01*
D02*
G37*
G36*
X507750Y254083D02*
X506092Y253753D01*
X504686Y252814D01*
X503747Y251408D01*
X503417Y249750D01*
X503747Y248092D01*
X504686Y246686D01*
X506092Y245747D01*
X507750Y245417D01*
X509408Y245747D01*
X510814Y246686D01*
X511753Y248092D01*
X512083Y249750D01*
X511753Y251408D01*
X510814Y252814D01*
X509408Y253753D01*
X507750Y254083D01*
D02*
G37*
G36*
X103000Y236833D02*
X101342Y236503D01*
X99936Y235564D01*
X99017Y234189D01*
X98828Y234158D01*
X98172D01*
X97983Y234189D01*
X97064Y235564D01*
X95658Y236503D01*
X94000Y236833D01*
X92342Y236503D01*
X90936Y235564D01*
X89997Y234158D01*
X89667Y232500D01*
X89997Y230842D01*
X90936Y229436D01*
X92342Y228497D01*
X94000Y228167D01*
X95658Y228497D01*
X97064Y229436D01*
X97983Y230811D01*
X98172Y230842D01*
X98828D01*
X99017Y230811D01*
X99936Y229436D01*
X101342Y228497D01*
X103000Y228167D01*
X104658Y228497D01*
X106064Y229436D01*
X107003Y230842D01*
X107333Y232500D01*
X107003Y234158D01*
X106064Y235564D01*
X104658Y236503D01*
X103000Y236833D01*
D02*
G37*
G36*
X37000Y239595D02*
X29500D01*
Y231000D01*
X47766D01*
X47717Y231372D01*
X46609Y234048D01*
X44845Y236345D01*
X42547Y238109D01*
X39872Y239217D01*
X37000Y239595D01*
D02*
G37*
G36*
X47766Y226000D02*
X29500D01*
Y217405D01*
X37000D01*
X39872Y217783D01*
X42547Y218892D01*
X44845Y220655D01*
X46609Y222952D01*
X47717Y225628D01*
X47766Y226000D01*
D02*
G37*
G36*
X514250Y224583D02*
X512592Y224254D01*
X511186Y223314D01*
X510247Y221908D01*
X509917Y220250D01*
X510247Y218592D01*
X511186Y217186D01*
X512592Y216247D01*
X514250Y215917D01*
X515908Y216247D01*
X517314Y217186D01*
X518253Y218592D01*
X518583Y220250D01*
X518253Y221908D01*
X517314Y223314D01*
X515908Y224254D01*
X514250Y224583D01*
D02*
G37*
G36*
X527000Y210333D02*
X525342Y210004D01*
X523936Y209064D01*
X522997Y207658D01*
X522667Y206000D01*
X522997Y204342D01*
X523936Y202936D01*
X525342Y201997D01*
X527000Y201667D01*
X528658Y201997D01*
X530064Y202936D01*
X531003Y204342D01*
X531333Y206000D01*
X531003Y207658D01*
X530064Y209064D01*
X528658Y210004D01*
X527000Y210333D01*
D02*
G37*
G36*
X470000Y210333D02*
X468342Y210003D01*
X466936Y209064D01*
X465997Y207658D01*
X465667Y206000D01*
X465997Y204342D01*
X466936Y202936D01*
X468342Y201996D01*
X470000Y201667D01*
X471658Y201996D01*
X473064Y202936D01*
X474003Y204342D01*
X474333Y206000D01*
X474003Y207658D01*
X473064Y209064D01*
X471658Y210003D01*
X470000Y210333D01*
D02*
G37*
G36*
X465000Y189851D02*
Y172500D01*
X482351D01*
X482211Y173921D01*
X481067Y177691D01*
X479210Y181165D01*
X476711Y184211D01*
X473665Y186710D01*
X470191Y188567D01*
X466421Y189711D01*
X465000Y189851D01*
D02*
G37*
G36*
X460000D02*
X458579Y189711D01*
X454809Y188567D01*
X451335Y186710D01*
X448289Y184211D01*
X445790Y181165D01*
X443933Y177691D01*
X442789Y173921D01*
X442649Y172500D01*
X460000D01*
Y189851D01*
D02*
G37*
G36*
X30500Y177833D02*
X30081Y177750D01*
X29655D01*
X29260Y177587D01*
X28842Y177503D01*
X28487Y177266D01*
X28093Y177103D01*
X27791Y176801D01*
X27436Y176564D01*
X27199Y176209D01*
X26897Y175907D01*
X26734Y175513D01*
X26497Y175158D01*
X26413Y174740D01*
X26250Y174345D01*
X26250Y173918D01*
X26167Y173500D01*
X26250Y173081D01*
Y166918D01*
X26167Y166500D01*
X26250Y166082D01*
X26250Y165655D01*
X26413Y165260D01*
X26497Y164842D01*
X26734Y164487D01*
X26897Y164093D01*
X27199Y163790D01*
X27436Y163436D01*
X27790Y163199D01*
X28093Y162897D01*
X28487Y162733D01*
X28842Y162497D01*
X29260Y162413D01*
X29655Y162250D01*
X30082Y162250D01*
X30500Y162167D01*
X30918Y162250D01*
X31345D01*
X31740Y162413D01*
X32158Y162497D01*
X32513Y162733D01*
X32907Y162897D01*
X33209Y163199D01*
X33564Y163436D01*
X33801Y163791D01*
X34103Y164093D01*
X34266Y164487D01*
X34503Y164842D01*
X34587Y165261D01*
X34750Y165655D01*
X34750Y166081D01*
X34833Y166500D01*
X34750Y166919D01*
X34750Y173080D01*
X34833Y173500D01*
X34750Y173920D01*
X34750Y174345D01*
X34587Y174739D01*
X34503Y175158D01*
X34266Y175514D01*
X34103Y175907D01*
X33802Y176209D01*
X33564Y176564D01*
X33209Y176801D01*
X32907Y177103D01*
X32513Y177266D01*
X32158Y177503D01*
X31739Y177587D01*
X31345Y177750D01*
X30919D01*
X30500Y177833D01*
D02*
G37*
G36*
X482350Y167500D02*
X465000D01*
Y150150D01*
X466421Y150290D01*
X470191Y151433D01*
X473665Y153290D01*
X476711Y155790D01*
X479210Y158835D01*
X481067Y162309D01*
X482211Y166080D01*
X482350Y167500D01*
D02*
G37*
G36*
X460000D02*
X442649D01*
X442789Y166080D01*
X443933Y162309D01*
X445790Y158835D01*
X448289Y155790D01*
X451335Y153290D01*
X454809Y151433D01*
X458579Y150290D01*
X460000Y150150D01*
Y167500D01*
D02*
G37*
G36*
X34000Y147833D02*
X32342Y147503D01*
X31000Y146607D01*
X29658Y147503D01*
X28000Y147833D01*
X26342Y147503D01*
X25000Y146607D01*
X23658Y147503D01*
X22000Y147833D01*
X20342Y147503D01*
X18936Y146564D01*
X17997Y145158D01*
X17667Y143500D01*
X17997Y141842D01*
X18783Y140665D01*
X18875Y140000D01*
X18783Y139335D01*
X17997Y138158D01*
X17667Y136500D01*
X17997Y134842D01*
X18936Y133436D01*
X20342Y132497D01*
X22000Y132167D01*
X23658Y132497D01*
X25000Y133393D01*
X26342Y132497D01*
X28000Y132167D01*
X29658Y132497D01*
X31000Y133393D01*
X32342Y132497D01*
X34000Y132167D01*
X35658Y132497D01*
X37064Y133436D01*
X38003Y134842D01*
X38333Y136500D01*
X38003Y138158D01*
X37217Y139335D01*
X37125Y140000D01*
X37217Y140665D01*
X38003Y141842D01*
X38333Y143500D01*
X38003Y145158D01*
X37064Y146564D01*
X35658Y147503D01*
X34000Y147833D01*
D02*
G37*
G36*
X37000Y122595D02*
X29500D01*
Y114000D01*
X47766D01*
X47717Y114372D01*
X46609Y117047D01*
X44845Y119345D01*
X42547Y121108D01*
X39872Y122217D01*
X37000Y122595D01*
D02*
G37*
G36*
X47766Y109000D02*
X29500D01*
Y100405D01*
X37000D01*
X39872Y100783D01*
X42547Y101891D01*
X44845Y103655D01*
X46609Y105953D01*
X47717Y108628D01*
X47766Y109000D01*
D02*
G37*
G36*
X257500Y101833D02*
X255842Y101503D01*
X254436Y100564D01*
X253497Y99158D01*
X253167Y97500D01*
X253497Y95842D01*
X254436Y94436D01*
X255842Y93497D01*
X257500Y93167D01*
X259158Y93497D01*
X260564Y94436D01*
X261503Y95842D01*
X261833Y97500D01*
X261503Y99158D01*
X260564Y100564D01*
X259158Y101503D01*
X257500Y101833D01*
D02*
G37*
G36*
X247500D02*
X245842Y101503D01*
X244436Y100564D01*
X243497Y99158D01*
X243167Y97500D01*
X243497Y95842D01*
X244436Y94436D01*
X245842Y93497D01*
X247500Y93167D01*
X249158Y93497D01*
X250564Y94436D01*
X251503Y95842D01*
X251833Y97500D01*
X251503Y99158D01*
X250564Y100564D01*
X249158Y101503D01*
X247500Y101833D01*
D02*
G37*
G36*
X262500Y89333D02*
X260842Y89003D01*
X259436Y88064D01*
X258497Y86658D01*
X258167Y85000D01*
X258497Y83342D01*
X259436Y81936D01*
X260842Y80997D01*
X262500Y80667D01*
X264158Y80997D01*
X265564Y81936D01*
X266503Y83342D01*
X266833Y85000D01*
X266503Y86658D01*
X265564Y88064D01*
X264158Y89003D01*
X262500Y89333D01*
D02*
G37*
G36*
X252500D02*
X250842Y89003D01*
X249436Y88064D01*
X248497Y86658D01*
X248167Y85000D01*
X248497Y83342D01*
X249436Y81936D01*
X250842Y80997D01*
X252500Y80667D01*
X254158Y80997D01*
X255564Y81936D01*
X256503Y83342D01*
X256833Y85000D01*
X256503Y86658D01*
X255564Y88064D01*
X254158Y89003D01*
X252500Y89333D01*
D02*
G37*
G36*
X208000Y79333D02*
X206342Y79003D01*
X204936Y78064D01*
X204064D01*
X202658Y79003D01*
X201000Y79333D01*
X199342Y79003D01*
X197936Y78064D01*
X196997Y76658D01*
X196667Y75000D01*
X196997Y73342D01*
X197893Y72000D01*
X196997Y70658D01*
X196667Y69000D01*
X196997Y67342D01*
X197936Y65936D01*
X199342Y64997D01*
X201000Y64667D01*
X202658Y64997D01*
X204064Y65936D01*
X204936D01*
X206342Y64997D01*
X208000Y64667D01*
X209658Y64997D01*
X211064Y65936D01*
X212003Y67342D01*
X212333Y69000D01*
X212003Y70658D01*
X211107Y72000D01*
X212003Y73342D01*
X212333Y75000D01*
X212003Y76658D01*
X211064Y78064D01*
X209658Y79003D01*
X208000Y79333D01*
D02*
G37*
G36*
X74983Y86342D02*
X73325Y86012D01*
X71919Y85072D01*
X70980Y83667D01*
X70650Y82008D01*
X70980Y80350D01*
X71919Y78944D01*
X73325Y78005D01*
X74983Y77675D01*
X76641Y78005D01*
X78047Y78944D01*
X78987Y80350D01*
X79316Y82008D01*
X78987Y83667D01*
X78047Y85072D01*
X76641Y86012D01*
X74983Y86342D01*
D02*
G37*
G36*
X144000Y92833D02*
X143581Y92750D01*
X143154D01*
X142760Y92587D01*
X142342Y92503D01*
X141987Y92266D01*
X141593Y92103D01*
X141291Y91801D01*
X140936Y91564D01*
X140699Y91209D01*
X140397Y90907D01*
X140234Y90513D01*
X139997Y90158D01*
X139913Y89740D01*
X139750Y89345D01*
X139750Y88918D01*
X139667Y88500D01*
X139750Y88082D01*
Y81918D01*
X139667Y81500D01*
X139750Y81082D01*
X139750Y80655D01*
X139913Y80260D01*
X139997Y79842D01*
X140233Y79487D01*
X140397Y79092D01*
X140699Y78790D01*
X140936Y78436D01*
X141290Y78199D01*
X141593Y77897D01*
X141987Y77733D01*
X142342Y77497D01*
X142760Y77413D01*
X143155Y77250D01*
X143582Y77250D01*
X144000Y77167D01*
X144418Y77250D01*
X144845D01*
X145240Y77413D01*
X145658Y77497D01*
X146013Y77733D01*
X146407Y77897D01*
X146709Y78199D01*
X147064Y78436D01*
X147301Y78791D01*
X147603Y79092D01*
X147766Y79487D01*
X148003Y79842D01*
X148087Y80261D01*
X148250Y80654D01*
X148250Y81081D01*
X148333Y81500D01*
X148250Y81919D01*
X148250Y88080D01*
X148333Y88500D01*
X148250Y88920D01*
X148250Y89345D01*
X148087Y89739D01*
X148003Y90158D01*
X147766Y90514D01*
X147603Y90907D01*
X147302Y91209D01*
X147064Y91564D01*
X146709Y91801D01*
X146407Y92103D01*
X146013Y92266D01*
X145658Y92503D01*
X145239Y92587D01*
X144845Y92750D01*
X144419D01*
X144000Y92833D01*
D02*
G37*
G36*
X180000Y77565D02*
X178042Y77307D01*
X176218Y76551D01*
X174651Y75349D01*
X173449Y73783D01*
X172693Y71958D01*
X172435Y70000D01*
X172693Y68042D01*
X173449Y66218D01*
X174651Y64651D01*
X176218Y63449D01*
X178042Y62693D01*
X180000Y62435D01*
X181958Y62693D01*
X183782Y63449D01*
X185349Y64651D01*
X186551Y66218D01*
X187307Y68042D01*
X187565Y70000D01*
X187307Y71958D01*
X186551Y73783D01*
X185349Y75349D01*
X183782Y76551D01*
X181958Y77307D01*
X180000Y77565D01*
D02*
G37*
G36*
X497000Y67833D02*
X495342Y67503D01*
X493936Y66564D01*
X492997Y65158D01*
X492667Y63500D01*
X492997Y61842D01*
X493936Y60436D01*
X495342Y59497D01*
X497000Y59167D01*
X498658Y59497D01*
X500064Y60436D01*
X501003Y61842D01*
X501333Y63500D01*
X501003Y65158D01*
X500064Y66564D01*
X498658Y67503D01*
X497000Y67833D01*
D02*
G37*
G36*
X505000Y56833D02*
X503342Y56503D01*
X501936Y55564D01*
X500997Y54158D01*
X500667Y52500D01*
X500997Y50842D01*
X501936Y49436D01*
X503342Y48497D01*
X505000Y48167D01*
X506658Y48497D01*
X508064Y49436D01*
X509003Y50842D01*
X509333Y52500D01*
X509003Y54158D01*
X508064Y55564D01*
X506658Y56503D01*
X505000Y56833D01*
D02*
G37*
G36*
X177500Y49333D02*
X175842Y49003D01*
X174436Y48064D01*
X173497Y46658D01*
X173167Y45000D01*
X173497Y43342D01*
X174436Y41936D01*
X175842Y40997D01*
X177500Y40667D01*
X179158Y40997D01*
X180564Y41936D01*
X181503Y43342D01*
X181833Y45000D01*
X181503Y46658D01*
X180564Y48064D01*
X179158Y49003D01*
X177500Y49333D01*
D02*
G37*
G36*
X162500D02*
X160842Y49003D01*
X159436Y48064D01*
X158497Y46658D01*
X158167Y45000D01*
X158497Y43342D01*
X159436Y41936D01*
X160842Y40997D01*
X162500Y40667D01*
X164158Y40997D01*
X165564Y41936D01*
X166503Y43342D01*
X166833Y45000D01*
X166503Y46658D01*
X165564Y48064D01*
X164158Y49003D01*
X162500Y49333D01*
D02*
G37*
G36*
X180500Y35333D02*
X178842Y35003D01*
X177436Y34064D01*
X177000Y33412D01*
X176000D01*
X175564Y34064D01*
X174158Y35003D01*
X172500Y35333D01*
X170842Y35003D01*
X169436Y34064D01*
X168564D01*
X167158Y35003D01*
X165500Y35333D01*
X163842Y35003D01*
X162436Y34064D01*
X161497Y32658D01*
X161167Y31000D01*
X161497Y29342D01*
X162436Y27936D01*
X163842Y26997D01*
X165500Y26667D01*
X167158Y26997D01*
X168564Y27936D01*
X169436D01*
X170842Y26997D01*
X172500Y26667D01*
X174158Y26997D01*
X175564Y27936D01*
X176000Y28588D01*
X177000D01*
X177436Y27936D01*
X178842Y26997D01*
X180500Y26667D01*
X182158Y26997D01*
X183564Y27936D01*
X184503Y29342D01*
X184833Y31000D01*
X184503Y32658D01*
X183564Y34064D01*
X182158Y35003D01*
X180500Y35333D01*
D02*
G37*
G36*
X505000Y41833D02*
X503342Y41503D01*
X501936Y40564D01*
X500997Y39158D01*
X500667Y37500D01*
X500997Y35842D01*
X501936Y34436D01*
X503342Y33497D01*
X505000Y33167D01*
X506658Y33497D01*
X508064Y34436D01*
X509003Y35842D01*
X509333Y37500D01*
X509003Y39158D01*
X508064Y40564D01*
X506658Y41503D01*
X505000Y41833D01*
D02*
G37*
G36*
X332500Y35333D02*
X330842Y35003D01*
X329436Y34064D01*
X328497Y32658D01*
X328167Y31000D01*
X328497Y29342D01*
X329436Y27936D01*
X330842Y26997D01*
X332500Y26667D01*
X334158Y26997D01*
X335564Y27936D01*
X336503Y29342D01*
X336833Y31000D01*
X336503Y32658D01*
X335564Y34064D01*
X334158Y35003D01*
X332500Y35333D01*
D02*
G37*
G36*
X307500D02*
X305842Y35003D01*
X304436Y34064D01*
X303497Y32658D01*
X303167Y31000D01*
X303497Y29342D01*
X304436Y27936D01*
X305842Y26997D01*
X307500Y26667D01*
X309158Y26997D01*
X310564Y27936D01*
X311503Y29342D01*
X311833Y31000D01*
X311503Y32658D01*
X310564Y34064D01*
X309158Y35003D01*
X307500Y35333D01*
D02*
G37*
G36*
X469250Y71384D02*
X465013Y71050D01*
X460881Y70058D01*
X456954Y68432D01*
X453331Y66211D01*
X450099Y63451D01*
X447339Y60219D01*
X445118Y56596D01*
X443492Y52669D01*
X442500Y48537D01*
X442166Y44300D01*
X442500Y40063D01*
X443492Y35931D01*
X445118Y32004D01*
X447339Y28381D01*
X450099Y25149D01*
X453331Y22389D01*
X456954Y20168D01*
X460881Y18542D01*
X465013Y17550D01*
X469250Y17217D01*
X473487Y17550D01*
X477619Y18542D01*
X481546Y20168D01*
X485169Y22389D01*
X488401Y25149D01*
X491161Y28381D01*
X493382Y32004D01*
X495008Y35931D01*
X496000Y40063D01*
X496334Y44300D01*
X496000Y48537D01*
X495008Y52669D01*
X493382Y56596D01*
X491161Y60219D01*
X488401Y63451D01*
X485169Y66211D01*
X481546Y68432D01*
X477619Y70058D01*
X473487Y71050D01*
X469250Y71384D01*
D02*
G37*
G36*
X90750D02*
X86513Y71050D01*
X82381Y70058D01*
X78454Y68432D01*
X74831Y66211D01*
X71599Y63451D01*
X68839Y60219D01*
X66618Y56596D01*
X64992Y52669D01*
X64000Y48537D01*
X63667Y44300D01*
X64000Y40063D01*
X64992Y35931D01*
X66618Y32004D01*
X68839Y28381D01*
X71599Y25149D01*
X74831Y22389D01*
X78454Y20168D01*
X82381Y18542D01*
X86513Y17550D01*
X90750Y17217D01*
X94987Y17550D01*
X99119Y18542D01*
X103046Y20168D01*
X106669Y22389D01*
X109901Y25149D01*
X112661Y28381D01*
X114882Y32004D01*
X116508Y35931D01*
X117500Y40063D01*
X117833Y44300D01*
X117500Y48537D01*
X116508Y52669D01*
X114882Y56596D01*
X112661Y60219D01*
X109901Y63451D01*
X106669Y66211D01*
X103046Y68432D01*
X99119Y70058D01*
X94987Y71050D01*
X90750Y71384D01*
D02*
G37*
%LPD*%
D12*
X28668Y84332D02*
X30334Y85998D01*
X33666D01*
X35332Y84332D01*
Y82666D01*
X33666Y81000D01*
X32000D01*
X33666D01*
X35332Y79334D01*
Y77668D01*
X33666Y76002D01*
X30334D01*
X28668Y77668D01*
D124*
X27000Y228500D02*
D03*
Y111500D02*
D03*
D125*
X157074Y320182D02*
D03*
X215073Y251500D02*
D03*
X398046Y278204D02*
D03*
X285684Y317137D02*
D03*
X567500Y290000D02*
D03*
X163074Y314180D02*
D03*
Y320180D02*
D03*
X157074Y314180D02*
D03*
X572500Y185000D02*
D03*
X570000Y150000D02*
D03*
X537500Y62500D02*
D03*
Y75000D02*
D03*
Y87500D02*
D03*
Y100000D02*
D03*
X535000Y110000D02*
D03*
X525000Y117500D02*
D03*
X532500Y132500D02*
D03*
X542500Y127500D02*
D03*
X552500Y120000D02*
D03*
X557500Y107500D02*
D03*
Y95000D02*
D03*
Y82500D02*
D03*
Y70000D02*
D03*
X560000Y57500D02*
D03*
X567500Y50000D02*
D03*
X565000Y27500D02*
D03*
X550000Y35000D02*
D03*
X565000Y310000D02*
D03*
X555000Y300000D02*
D03*
X552500Y287500D02*
D03*
Y270000D02*
D03*
Y260000D02*
D03*
X547500Y252500D02*
D03*
X567500Y277500D02*
D03*
Y265000D02*
D03*
Y252500D02*
D03*
X565000Y242500D02*
D03*
X557500Y237500D02*
D03*
X580000Y144500D02*
D03*
X597500Y144500D02*
D03*
X588500Y144500D02*
D03*
X606500D02*
D03*
Y195500D02*
D03*
X588500D02*
D03*
X597500Y195500D02*
D03*
X580000Y195500D02*
D03*
X612500Y144500D02*
D03*
Y195500D02*
D03*
X178971Y302773D02*
D03*
X172971D02*
D03*
X162500Y295517D02*
D03*
Y289515D02*
D03*
Y283515D02*
D03*
X258000Y330000D02*
D03*
X519933Y103942D02*
D03*
X513000Y120000D02*
D03*
Y135457D02*
D03*
X513485Y114012D02*
D03*
X500485D02*
D03*
X531534Y253064D02*
D03*
X540682Y252954D02*
D03*
X542170Y232783D02*
D03*
X530000Y140000D02*
D03*
X124000Y294000D02*
D03*
Y300000D02*
D03*
X129913Y284000D02*
D03*
X135913D02*
D03*
X90137Y114823D02*
D03*
X95514Y82617D02*
D03*
X84320Y82383D02*
D03*
X138500Y200500D02*
D03*
X560000Y215000D02*
D03*
X575000D02*
D03*
X590000D02*
D03*
Y125000D02*
D03*
X575000D02*
D03*
X560000D02*
D03*
X380500Y23000D02*
D03*
X398000Y44500D02*
D03*
X429500Y50000D02*
D03*
X362000Y52500D02*
D03*
X354000Y62500D02*
D03*
X445000Y133500D02*
D03*
X483500Y267500D02*
D03*
X486840Y319985D02*
D03*
X440521Y303340D02*
D03*
X612500Y325500D02*
D03*
Y274500D02*
D03*
Y65500D02*
D03*
Y14500D02*
D03*
X462500Y72500D02*
D03*
Y100000D02*
D03*
Y122500D02*
D03*
X492500Y100000D02*
D03*
Y115000D02*
D03*
Y130000D02*
D03*
Y145000D02*
D03*
X525000Y47500D02*
D03*
X540000D02*
D03*
X500500Y92500D02*
D03*
X513500D02*
D03*
X497500Y163500D02*
D03*
Y183500D02*
D03*
Y173500D02*
D03*
X513000Y195000D02*
D03*
X501000D02*
D03*
X513000Y206000D02*
D03*
X501000D02*
D03*
Y214000D02*
D03*
X513000D02*
D03*
X505000Y243500D02*
D03*
X517500Y226500D02*
D03*
Y237000D02*
D03*
X505000Y233000D02*
D03*
X510000Y256000D02*
D03*
X520000D02*
D03*
X550000Y230000D02*
D03*
X525673Y232606D02*
D03*
X530000Y220000D02*
D03*
X545000D02*
D03*
X530000Y155000D02*
D03*
Y170000D02*
D03*
Y185000D02*
D03*
Y200000D02*
D03*
X545000Y140000D02*
D03*
Y155000D02*
D03*
Y185000D02*
D03*
Y200000D02*
D03*
X560000Y140000D02*
D03*
Y200000D02*
D03*
X507949Y9878D02*
D03*
X480000Y10000D02*
D03*
X430000D02*
D03*
X280000Y90000D02*
D03*
Y100000D02*
D03*
Y110000D02*
D03*
Y120000D02*
D03*
Y130000D02*
D03*
Y140000D02*
D03*
Y150000D02*
D03*
Y160000D02*
D03*
Y260000D02*
D03*
Y250000D02*
D03*
Y240000D02*
D03*
Y230000D02*
D03*
Y220000D02*
D03*
Y210000D02*
D03*
Y200000D02*
D03*
Y190000D02*
D03*
Y180000D02*
D03*
Y170000D02*
D03*
X270000Y100000D02*
D03*
Y110000D02*
D03*
Y120000D02*
D03*
Y130000D02*
D03*
Y140000D02*
D03*
Y150000D02*
D03*
Y160000D02*
D03*
Y260000D02*
D03*
Y250000D02*
D03*
Y240000D02*
D03*
Y230000D02*
D03*
Y220000D02*
D03*
Y210000D02*
D03*
Y200000D02*
D03*
Y190000D02*
D03*
Y180000D02*
D03*
Y170000D02*
D03*
X300000Y80000D02*
D03*
Y90000D02*
D03*
Y100000D02*
D03*
Y110000D02*
D03*
Y120000D02*
D03*
Y130000D02*
D03*
Y140000D02*
D03*
Y150000D02*
D03*
Y160000D02*
D03*
Y260000D02*
D03*
Y250000D02*
D03*
Y240000D02*
D03*
Y230000D02*
D03*
Y220000D02*
D03*
Y210000D02*
D03*
Y200000D02*
D03*
Y190000D02*
D03*
Y180000D02*
D03*
Y170000D02*
D03*
X290000Y80000D02*
D03*
Y90000D02*
D03*
Y100000D02*
D03*
Y110000D02*
D03*
Y120000D02*
D03*
Y130000D02*
D03*
Y140000D02*
D03*
Y150000D02*
D03*
Y160000D02*
D03*
Y260000D02*
D03*
Y250000D02*
D03*
Y240000D02*
D03*
Y230000D02*
D03*
Y220000D02*
D03*
Y210000D02*
D03*
Y200000D02*
D03*
Y190000D02*
D03*
Y180000D02*
D03*
Y170000D02*
D03*
X320000Y80000D02*
D03*
Y90000D02*
D03*
Y100000D02*
D03*
Y110000D02*
D03*
Y120000D02*
D03*
Y130000D02*
D03*
Y140000D02*
D03*
Y150000D02*
D03*
Y160000D02*
D03*
Y260000D02*
D03*
Y250000D02*
D03*
Y240000D02*
D03*
Y230000D02*
D03*
Y220000D02*
D03*
Y210000D02*
D03*
Y200000D02*
D03*
Y190000D02*
D03*
Y180000D02*
D03*
Y170000D02*
D03*
X310000Y80000D02*
D03*
Y90000D02*
D03*
Y100000D02*
D03*
Y110000D02*
D03*
Y120000D02*
D03*
Y130000D02*
D03*
Y140000D02*
D03*
Y150000D02*
D03*
Y160000D02*
D03*
Y260000D02*
D03*
Y250000D02*
D03*
Y240000D02*
D03*
Y230000D02*
D03*
Y220000D02*
D03*
Y210000D02*
D03*
Y200000D02*
D03*
Y190000D02*
D03*
Y180000D02*
D03*
Y170000D02*
D03*
X340000Y80000D02*
D03*
Y90000D02*
D03*
Y100000D02*
D03*
Y110000D02*
D03*
Y120000D02*
D03*
Y130000D02*
D03*
Y140000D02*
D03*
Y150000D02*
D03*
Y160000D02*
D03*
Y260000D02*
D03*
Y250000D02*
D03*
Y240000D02*
D03*
Y230000D02*
D03*
Y220000D02*
D03*
Y210000D02*
D03*
Y200000D02*
D03*
Y190000D02*
D03*
Y180000D02*
D03*
Y170000D02*
D03*
X330000Y80000D02*
D03*
Y90000D02*
D03*
Y100000D02*
D03*
Y110000D02*
D03*
Y120000D02*
D03*
Y130000D02*
D03*
Y140000D02*
D03*
Y150000D02*
D03*
Y160000D02*
D03*
Y260000D02*
D03*
Y250000D02*
D03*
Y240000D02*
D03*
Y230000D02*
D03*
Y220000D02*
D03*
Y210000D02*
D03*
Y200000D02*
D03*
Y190000D02*
D03*
Y180000D02*
D03*
Y170000D02*
D03*
X350000D02*
D03*
Y180000D02*
D03*
Y190000D02*
D03*
Y200000D02*
D03*
Y210000D02*
D03*
Y220000D02*
D03*
Y230000D02*
D03*
Y240000D02*
D03*
Y250000D02*
D03*
Y260000D02*
D03*
Y160000D02*
D03*
Y150000D02*
D03*
Y140000D02*
D03*
Y130000D02*
D03*
Y120000D02*
D03*
Y110000D02*
D03*
Y100000D02*
D03*
Y90000D02*
D03*
Y80000D02*
D03*
X360000Y170000D02*
D03*
Y180000D02*
D03*
Y190000D02*
D03*
Y200000D02*
D03*
Y210000D02*
D03*
Y220000D02*
D03*
Y230000D02*
D03*
Y240000D02*
D03*
Y250000D02*
D03*
Y260000D02*
D03*
Y160000D02*
D03*
Y150000D02*
D03*
Y140000D02*
D03*
Y130000D02*
D03*
Y120000D02*
D03*
Y110000D02*
D03*
Y100000D02*
D03*
Y90000D02*
D03*
Y80000D02*
D03*
X370000Y170000D02*
D03*
Y180000D02*
D03*
Y190000D02*
D03*
Y200000D02*
D03*
Y210000D02*
D03*
Y220000D02*
D03*
Y230000D02*
D03*
Y240000D02*
D03*
Y250000D02*
D03*
Y260000D02*
D03*
Y160000D02*
D03*
Y150000D02*
D03*
Y140000D02*
D03*
Y130000D02*
D03*
Y120000D02*
D03*
Y110000D02*
D03*
Y100000D02*
D03*
Y90000D02*
D03*
Y80000D02*
D03*
X380000Y170000D02*
D03*
Y180000D02*
D03*
Y190000D02*
D03*
Y200000D02*
D03*
Y210000D02*
D03*
Y220000D02*
D03*
Y230000D02*
D03*
Y240000D02*
D03*
Y250000D02*
D03*
Y260000D02*
D03*
Y160000D02*
D03*
Y150000D02*
D03*
Y140000D02*
D03*
Y130000D02*
D03*
Y120000D02*
D03*
Y110000D02*
D03*
Y100000D02*
D03*
Y90000D02*
D03*
Y80000D02*
D03*
X390000Y170000D02*
D03*
Y180000D02*
D03*
Y190000D02*
D03*
Y200000D02*
D03*
Y210000D02*
D03*
Y220000D02*
D03*
Y230000D02*
D03*
Y240000D02*
D03*
Y250000D02*
D03*
Y260000D02*
D03*
Y160000D02*
D03*
Y150000D02*
D03*
Y140000D02*
D03*
Y130000D02*
D03*
Y120000D02*
D03*
Y110000D02*
D03*
Y100000D02*
D03*
Y90000D02*
D03*
Y80000D02*
D03*
X400000Y170000D02*
D03*
Y180000D02*
D03*
Y190000D02*
D03*
Y200000D02*
D03*
Y210000D02*
D03*
Y220000D02*
D03*
Y230000D02*
D03*
Y240000D02*
D03*
Y250000D02*
D03*
Y260000D02*
D03*
Y160000D02*
D03*
Y150000D02*
D03*
Y140000D02*
D03*
Y130000D02*
D03*
Y120000D02*
D03*
Y110000D02*
D03*
Y100000D02*
D03*
Y90000D02*
D03*
Y80000D02*
D03*
X410000Y170000D02*
D03*
Y180000D02*
D03*
Y190000D02*
D03*
Y200000D02*
D03*
Y210000D02*
D03*
Y220000D02*
D03*
Y230000D02*
D03*
Y240000D02*
D03*
Y250000D02*
D03*
Y260000D02*
D03*
Y160000D02*
D03*
Y150000D02*
D03*
Y140000D02*
D03*
Y130000D02*
D03*
Y120000D02*
D03*
Y110000D02*
D03*
Y100000D02*
D03*
Y90000D02*
D03*
Y80000D02*
D03*
X420000Y170000D02*
D03*
Y180000D02*
D03*
Y190000D02*
D03*
Y200000D02*
D03*
Y210000D02*
D03*
Y220000D02*
D03*
Y230000D02*
D03*
Y240000D02*
D03*
Y250000D02*
D03*
Y260000D02*
D03*
Y160000D02*
D03*
Y150000D02*
D03*
Y140000D02*
D03*
Y130000D02*
D03*
Y120000D02*
D03*
Y110000D02*
D03*
Y100000D02*
D03*
Y90000D02*
D03*
Y80000D02*
D03*
X430000D02*
D03*
Y90000D02*
D03*
Y100000D02*
D03*
Y110000D02*
D03*
Y120000D02*
D03*
Y130000D02*
D03*
Y140000D02*
D03*
Y150000D02*
D03*
Y160000D02*
D03*
Y260000D02*
D03*
Y250000D02*
D03*
Y240000D02*
D03*
Y230000D02*
D03*
Y220000D02*
D03*
Y210000D02*
D03*
Y200000D02*
D03*
Y190000D02*
D03*
Y180000D02*
D03*
Y170000D02*
D03*
X505000Y330000D02*
D03*
X56000Y97000D02*
D03*
X191000Y244000D02*
D03*
X241500Y128500D02*
D03*
X220000Y202000D02*
D03*
X214000Y214000D02*
D03*
X213000Y63500D02*
D03*
X188500Y97500D02*
D03*
X187500Y51000D02*
D03*
X155000Y132500D02*
D03*
X20000Y97500D02*
D03*
X12500Y125000D02*
D03*
Y170000D02*
D03*
Y215000D02*
D03*
X17500Y242500D02*
D03*
X70336Y226608D02*
D03*
X48005Y287407D02*
D03*
X580000Y274500D02*
D03*
X597500Y274500D02*
D03*
X588500Y274500D02*
D03*
X606500D02*
D03*
Y325500D02*
D03*
X588500D02*
D03*
X597500Y325500D02*
D03*
X580000Y325500D02*
D03*
X525000Y262000D02*
D03*
X505000D02*
D03*
Y284000D02*
D03*
X525000D02*
D03*
X479000Y227500D02*
D03*
X580000Y65500D02*
D03*
X597500Y65500D02*
D03*
X588500Y65500D02*
D03*
X606500D02*
D03*
Y14500D02*
D03*
X588500D02*
D03*
X597500Y14500D02*
D03*
X580000Y14500D02*
D03*
X517000Y63500D02*
D03*
X497000Y85500D02*
D03*
X517000D02*
D03*
X159500Y31000D02*
D03*
X257500Y88500D02*
D03*
X247500D02*
D03*
X171500Y45000D02*
D03*
X494500Y199500D02*
D03*
X485500D02*
D03*
X516000Y181000D02*
D03*
Y166000D02*
D03*
X289500Y21000D02*
D03*
X340500D02*
D03*
X322500Y31000D02*
D03*
X213000Y28000D02*
D03*
X219000D02*
D03*
Y22000D02*
D03*
X218500Y7500D02*
D03*
X212500D02*
D03*
X213000Y22000D02*
D03*
Y40000D02*
D03*
X219000D02*
D03*
X196000Y120000D02*
D03*
X187500Y31000D02*
D03*
X144500Y21000D02*
D03*
X93500Y180000D02*
D03*
X87500D02*
D03*
X112000Y232500D02*
D03*
X139000Y157500D02*
D03*
X119500D02*
D03*
X139000Y172500D02*
D03*
X119500D02*
D03*
X139000Y187500D02*
D03*
X119500D02*
D03*
Y202500D02*
D03*
Y217500D02*
D03*
X139000Y232500D02*
D03*
X119500D02*
D03*
X119500Y247500D02*
D03*
Y262500D02*
D03*
X139000D02*
D03*
Y247500D02*
D03*
X153000Y273500D02*
D03*
X117000D02*
D03*
X94000Y265500D02*
D03*
X103000D02*
D03*
X63000Y260500D02*
D03*
X86000D02*
D03*
Y240500D02*
D03*
X63000D02*
D03*
X69684Y173407D02*
D03*
Y166407D02*
D03*
X63684D02*
D03*
Y173407D02*
D03*
X139000Y77500D02*
D03*
Y92500D02*
D03*
X25500Y162500D02*
D03*
Y177500D02*
D03*
X34316Y203407D02*
D03*
Y196407D02*
D03*
X28316D02*
D03*
Y203407D02*
D03*
X549913Y279461D02*
D03*
X119698Y324962D02*
D03*
D126*
X462500Y170000D02*
D03*
M02*
