G04*
G04 #@! TF.GenerationSoftware,Altium Limited,Altium Designer,20.1.12 (249)*
G04*
G04 Layer_Color=8388736*
%FSLAX44Y44*%
%MOMM*%
G71*
G04*
G04 #@! TF.SameCoordinates,A9FEEA33-96DE-4984-9D73-42BCD588803D*
G04*
G04*
G04 #@! TF.FilePolarity,Negative*
G04*
G01*
G75*
G04:AMPARAMS|DCode=47|XSize=1.6mm|YSize=0.7mm|CornerRadius=0.2mm|HoleSize=0mm|Usage=FLASHONLY|Rotation=180.000|XOffset=0mm|YOffset=0mm|HoleType=Round|Shape=RoundedRectangle|*
%AMROUNDEDRECTD47*
21,1,1.6000,0.3000,0,0,180.0*
21,1,1.2000,0.7000,0,0,180.0*
1,1,0.4000,-0.6000,0.1500*
1,1,0.4000,0.6000,0.1500*
1,1,0.4000,0.6000,-0.1500*
1,1,0.4000,-0.6000,-0.1500*
%
%ADD47ROUNDEDRECTD47*%
G04:AMPARAMS|DCode=48|XSize=0.75mm|YSize=0.6mm|CornerRadius=0.175mm|HoleSize=0mm|Usage=FLASHONLY|Rotation=180.000|XOffset=0mm|YOffset=0mm|HoleType=Round|Shape=RoundedRectangle|*
%AMROUNDEDRECTD48*
21,1,0.7500,0.2500,0,0,180.0*
21,1,0.4000,0.6000,0,0,180.0*
1,1,0.3500,-0.2000,0.1250*
1,1,0.3500,0.2000,0.1250*
1,1,0.3500,0.2000,-0.1250*
1,1,0.3500,-0.2000,-0.1250*
%
%ADD48ROUNDEDRECTD48*%
G04:AMPARAMS|DCode=49|XSize=0.65mm|YSize=0.6mm|CornerRadius=0.175mm|HoleSize=0mm|Usage=FLASHONLY|Rotation=180.000|XOffset=0mm|YOffset=0mm|HoleType=Round|Shape=RoundedRectangle|*
%AMROUNDEDRECTD49*
21,1,0.6500,0.2500,0,0,180.0*
21,1,0.3000,0.6000,0,0,180.0*
1,1,0.3500,-0.1500,0.1250*
1,1,0.3500,0.1500,0.1250*
1,1,0.3500,0.1500,-0.1250*
1,1,0.3500,-0.1500,-0.1250*
%
%ADD49ROUNDEDRECTD49*%
G04:AMPARAMS|DCode=50|XSize=1.3mm|YSize=3.7mm|CornerRadius=0.35mm|HoleSize=0mm|Usage=FLASHONLY|Rotation=90.000|XOffset=0mm|YOffset=0mm|HoleType=Round|Shape=RoundedRectangle|*
%AMROUNDEDRECTD50*
21,1,1.3000,3.0000,0,0,90.0*
21,1,0.6000,3.7000,0,0,90.0*
1,1,0.7000,1.5000,0.3000*
1,1,0.7000,1.5000,-0.3000*
1,1,0.7000,-1.5000,-0.3000*
1,1,0.7000,-1.5000,0.3000*
%
%ADD50ROUNDEDRECTD50*%
G04:AMPARAMS|DCode=51|XSize=1.6mm|YSize=4.1mm|CornerRadius=0.425mm|HoleSize=0mm|Usage=FLASHONLY|Rotation=90.000|XOffset=0mm|YOffset=0mm|HoleType=Round|Shape=RoundedRectangle|*
%AMROUNDEDRECTD51*
21,1,1.6000,3.2500,0,0,90.0*
21,1,0.7500,4.1000,0,0,90.0*
1,1,0.8500,1.6250,0.3750*
1,1,0.8500,1.6250,-0.3750*
1,1,0.8500,-1.6250,-0.3750*
1,1,0.8500,-1.6250,0.3750*
%
%ADD51ROUNDEDRECTD51*%
G04:AMPARAMS|DCode=52|XSize=0.65mm|YSize=0.65mm|CornerRadius=0.1875mm|HoleSize=0mm|Usage=FLASHONLY|Rotation=90.000|XOffset=0mm|YOffset=0mm|HoleType=Round|Shape=RoundedRectangle|*
%AMROUNDEDRECTD52*
21,1,0.6500,0.2750,0,0,90.0*
21,1,0.2750,0.6500,0,0,90.0*
1,1,0.3750,0.1375,0.1375*
1,1,0.3750,0.1375,-0.1375*
1,1,0.3750,-0.1375,-0.1375*
1,1,0.3750,-0.1375,0.1375*
%
%ADD52ROUNDEDRECTD52*%
G04:AMPARAMS|DCode=53|XSize=1.6mm|YSize=4.1mm|CornerRadius=0.275mm|HoleSize=0mm|Usage=FLASHONLY|Rotation=270.000|XOffset=0mm|YOffset=0mm|HoleType=Round|Shape=RoundedRectangle|*
%AMROUNDEDRECTD53*
21,1,1.6000,3.5500,0,0,270.0*
21,1,1.0500,4.1000,0,0,270.0*
1,1,0.5500,-1.7750,-0.5250*
1,1,0.5500,-1.7750,0.5250*
1,1,0.5500,1.7750,0.5250*
1,1,0.5500,1.7750,-0.5250*
%
%ADD53ROUNDEDRECTD53*%
G04:AMPARAMS|DCode=54|XSize=0.85mm|YSize=0.36mm|CornerRadius=0.115mm|HoleSize=0mm|Usage=FLASHONLY|Rotation=0.000|XOffset=0mm|YOffset=0mm|HoleType=Round|Shape=RoundedRectangle|*
%AMROUNDEDRECTD54*
21,1,0.8500,0.1300,0,0,0.0*
21,1,0.6200,0.3600,0,0,0.0*
1,1,0.2300,0.3100,-0.0650*
1,1,0.2300,-0.3100,-0.0650*
1,1,0.2300,-0.3100,0.0650*
1,1,0.2300,0.3100,0.0650*
%
%ADD54ROUNDEDRECTD54*%
G04:AMPARAMS|DCode=55|XSize=0.85mm|YSize=0.36mm|CornerRadius=0.115mm|HoleSize=0mm|Usage=FLASHONLY|Rotation=90.000|XOffset=0mm|YOffset=0mm|HoleType=Round|Shape=RoundedRectangle|*
%AMROUNDEDRECTD55*
21,1,0.8500,0.1300,0,0,90.0*
21,1,0.6200,0.3600,0,0,90.0*
1,1,0.2300,0.0650,0.3100*
1,1,0.2300,0.0650,-0.3100*
1,1,0.2300,-0.0650,-0.3100*
1,1,0.2300,-0.0650,0.3100*
%
%ADD55ROUNDEDRECTD55*%
%ADD56C,0.1254*%
G04:AMPARAMS|DCode=57|XSize=0.7mm|YSize=0.7mm|CornerRadius=0.2mm|HoleSize=0mm|Usage=FLASHONLY|Rotation=0.000|XOffset=0mm|YOffset=0mm|HoleType=Round|Shape=RoundedRectangle|*
%AMROUNDEDRECTD57*
21,1,0.7000,0.3000,0,0,0.0*
21,1,0.3000,0.7000,0,0,0.0*
1,1,0.4000,0.1500,-0.1500*
1,1,0.4000,-0.1500,-0.1500*
1,1,0.4000,-0.1500,0.1500*
1,1,0.4000,0.1500,0.1500*
%
%ADD57ROUNDEDRECTD57*%
G04:AMPARAMS|DCode=58|XSize=0.65mm|YSize=0.65mm|CornerRadius=0.1875mm|HoleSize=0mm|Usage=FLASHONLY|Rotation=180.000|XOffset=0mm|YOffset=0mm|HoleType=Round|Shape=RoundedRectangle|*
%AMROUNDEDRECTD58*
21,1,0.6500,0.2750,0,0,180.0*
21,1,0.2750,0.6500,0,0,180.0*
1,1,0.3750,-0.1375,0.1375*
1,1,0.3750,0.1375,0.1375*
1,1,0.3750,0.1375,-0.1375*
1,1,0.3750,-0.1375,-0.1375*
%
%ADD58ROUNDEDRECTD58*%
G04:AMPARAMS|DCode=59|XSize=0.4mm|YSize=1.1mm|CornerRadius=0.125mm|HoleSize=0mm|Usage=FLASHONLY|Rotation=0.000|XOffset=0mm|YOffset=0mm|HoleType=Round|Shape=RoundedRectangle|*
%AMROUNDEDRECTD59*
21,1,0.4000,0.8500,0,0,0.0*
21,1,0.1500,1.1000,0,0,0.0*
1,1,0.2500,0.0750,-0.4250*
1,1,0.2500,-0.0750,-0.4250*
1,1,0.2500,-0.0750,0.4250*
1,1,0.2500,0.0750,0.4250*
%
%ADD59ROUNDEDRECTD59*%
G04:AMPARAMS|DCode=60|XSize=0.4mm|YSize=0.8mm|CornerRadius=0.125mm|HoleSize=0mm|Usage=FLASHONLY|Rotation=0.000|XOffset=0mm|YOffset=0mm|HoleType=Round|Shape=RoundedRectangle|*
%AMROUNDEDRECTD60*
21,1,0.4000,0.5500,0,0,0.0*
21,1,0.1500,0.8000,0,0,0.0*
1,1,0.2500,0.0750,-0.2750*
1,1,0.2500,-0.0750,-0.2750*
1,1,0.2500,-0.0750,0.2750*
1,1,0.2500,0.0750,0.2750*
%
%ADD60ROUNDEDRECTD60*%
G04:AMPARAMS|DCode=61|XSize=1.05mm|YSize=1.1mm|CornerRadius=0.2875mm|HoleSize=0mm|Usage=FLASHONLY|Rotation=270.000|XOffset=0mm|YOffset=0mm|HoleType=Round|Shape=RoundedRectangle|*
%AMROUNDEDRECTD61*
21,1,1.0500,0.5250,0,0,270.0*
21,1,0.4750,1.1000,0,0,270.0*
1,1,0.5750,-0.2625,-0.2375*
1,1,0.5750,-0.2625,0.2375*
1,1,0.5750,0.2625,0.2375*
1,1,0.5750,0.2625,-0.2375*
%
%ADD61ROUNDEDRECTD61*%
G04:AMPARAMS|DCode=62|XSize=0.45mm|YSize=0.35mm|CornerRadius=0.0813mm|HoleSize=0mm|Usage=FLASHONLY|Rotation=270.000|XOffset=0mm|YOffset=0mm|HoleType=Round|Shape=RoundedRectangle|*
%AMROUNDEDRECTD62*
21,1,0.4500,0.1875,0,0,270.0*
21,1,0.2875,0.3500,0,0,270.0*
1,1,0.1625,-0.0938,-0.1438*
1,1,0.1625,-0.0938,0.1438*
1,1,0.1625,0.0938,0.1438*
1,1,0.1625,0.0938,-0.1438*
%
%ADD62ROUNDEDRECTD62*%
G04:AMPARAMS|DCode=63|XSize=0.45mm|YSize=0.35mm|CornerRadius=0.0813mm|HoleSize=0mm|Usage=FLASHONLY|Rotation=0.000|XOffset=0mm|YOffset=0mm|HoleType=Round|Shape=RoundedRectangle|*
%AMROUNDEDRECTD63*
21,1,0.4500,0.1875,0,0,0.0*
21,1,0.2875,0.3500,0,0,0.0*
1,1,0.1625,0.1438,-0.0938*
1,1,0.1625,-0.1438,-0.0938*
1,1,0.1625,-0.1438,0.0938*
1,1,0.1625,0.1438,0.0938*
%
%ADD63ROUNDEDRECTD63*%
G04:AMPARAMS|DCode=64|XSize=0.325mm|YSize=0.45mm|CornerRadius=0.0781mm|HoleSize=0mm|Usage=FLASHONLY|Rotation=270.000|XOffset=0mm|YOffset=0mm|HoleType=Round|Shape=RoundedRectangle|*
%AMROUNDEDRECTD64*
21,1,0.3250,0.2938,0,0,270.0*
21,1,0.1688,0.4500,0,0,270.0*
1,1,0.1563,-0.1469,-0.0844*
1,1,0.1563,-0.1469,0.0844*
1,1,0.1563,0.1469,0.0844*
1,1,0.1563,0.1469,-0.0844*
%
%ADD64ROUNDEDRECTD64*%
G04:AMPARAMS|DCode=65|XSize=1.25mm|YSize=0.7mm|CornerRadius=0.2mm|HoleSize=0mm|Usage=FLASHONLY|Rotation=180.000|XOffset=0mm|YOffset=0mm|HoleType=Round|Shape=RoundedRectangle|*
%AMROUNDEDRECTD65*
21,1,1.2500,0.3000,0,0,180.0*
21,1,0.8500,0.7000,0,0,180.0*
1,1,0.4000,-0.4250,0.1500*
1,1,0.4000,0.4250,0.1500*
1,1,0.4000,0.4250,-0.1500*
1,1,0.4000,-0.4250,-0.1500*
%
%ADD65ROUNDEDRECTD65*%
G04:AMPARAMS|DCode=66|XSize=1.15mm|YSize=0.95mm|CornerRadius=0.1988mm|HoleSize=0mm|Usage=FLASHONLY|Rotation=0.000|XOffset=0mm|YOffset=0mm|HoleType=Round|Shape=RoundedRectangle|*
%AMROUNDEDRECTD66*
21,1,1.1500,0.5525,0,0,0.0*
21,1,0.7525,0.9500,0,0,0.0*
1,1,0.3975,0.3763,-0.2763*
1,1,0.3975,-0.3763,-0.2763*
1,1,0.3975,-0.3763,0.2763*
1,1,0.3975,0.3763,0.2763*
%
%ADD66ROUNDEDRECTD66*%
G04:AMPARAMS|DCode=67|XSize=1.15mm|YSize=0.9mm|CornerRadius=0.19mm|HoleSize=0mm|Usage=FLASHONLY|Rotation=180.000|XOffset=0mm|YOffset=0mm|HoleType=Round|Shape=RoundedRectangle|*
%AMROUNDEDRECTD67*
21,1,1.1500,0.5200,0,0,180.0*
21,1,0.7700,0.9000,0,0,180.0*
1,1,0.3800,-0.3850,0.2600*
1,1,0.3800,0.3850,0.2600*
1,1,0.3800,0.3850,-0.2600*
1,1,0.3800,-0.3850,-0.2600*
%
%ADD67ROUNDEDRECTD67*%
G04:AMPARAMS|DCode=68|XSize=0.4mm|YSize=1.35mm|CornerRadius=0.125mm|HoleSize=0mm|Usage=FLASHONLY|Rotation=90.000|XOffset=0mm|YOffset=0mm|HoleType=Round|Shape=RoundedRectangle|*
%AMROUNDEDRECTD68*
21,1,0.4000,1.1000,0,0,90.0*
21,1,0.1500,1.3500,0,0,90.0*
1,1,0.2500,0.5500,0.0750*
1,1,0.2500,0.5500,-0.0750*
1,1,0.2500,-0.5500,-0.0750*
1,1,0.2500,-0.5500,0.0750*
%
%ADD68ROUNDEDRECTD68*%
G04:AMPARAMS|DCode=69|XSize=1.3mm|YSize=2.8mm|CornerRadius=0.2mm|HoleSize=0mm|Usage=FLASHONLY|Rotation=90.000|XOffset=0mm|YOffset=0mm|HoleType=Round|Shape=RoundedRectangle|*
%AMROUNDEDRECTD69*
21,1,1.3000,2.4000,0,0,90.0*
21,1,0.9000,2.8000,0,0,90.0*
1,1,0.4000,1.2000,0.4500*
1,1,0.4000,1.2000,-0.4500*
1,1,0.4000,-1.2000,-0.4500*
1,1,0.4000,-1.2000,0.4500*
%
%ADD69ROUNDEDRECTD69*%
G04:AMPARAMS|DCode=70|XSize=0.4mm|YSize=1.1mm|CornerRadius=0.125mm|HoleSize=0mm|Usage=FLASHONLY|Rotation=90.000|XOffset=0mm|YOffset=0mm|HoleType=Round|Shape=RoundedRectangle|*
%AMROUNDEDRECTD70*
21,1,0.4000,0.8500,0,0,90.0*
21,1,0.1500,1.1000,0,0,90.0*
1,1,0.2500,0.4250,0.0750*
1,1,0.2500,0.4250,-0.0750*
1,1,0.2500,-0.4250,-0.0750*
1,1,0.2500,-0.4250,0.0750*
%
%ADD70ROUNDEDRECTD70*%
G04:AMPARAMS|DCode=71|XSize=0.7mm|YSize=0.7mm|CornerRadius=0.2mm|HoleSize=0mm|Usage=FLASHONLY|Rotation=90.000|XOffset=0mm|YOffset=0mm|HoleType=Round|Shape=RoundedRectangle|*
%AMROUNDEDRECTD71*
21,1,0.7000,0.3000,0,0,90.0*
21,1,0.3000,0.7000,0,0,90.0*
1,1,0.4000,0.1500,0.1500*
1,1,0.4000,0.1500,-0.1500*
1,1,0.4000,-0.1500,-0.1500*
1,1,0.4000,-0.1500,0.1500*
%
%ADD71ROUNDEDRECTD71*%
G04:AMPARAMS|DCode=72|XSize=0.65mm|YSize=0.6mm|CornerRadius=0.175mm|HoleSize=0mm|Usage=FLASHONLY|Rotation=90.000|XOffset=0mm|YOffset=0mm|HoleType=Round|Shape=RoundedRectangle|*
%AMROUNDEDRECTD72*
21,1,0.6500,0.2500,0,0,90.0*
21,1,0.3000,0.6000,0,0,90.0*
1,1,0.3500,0.1250,0.1500*
1,1,0.3500,0.1250,-0.1500*
1,1,0.3500,-0.1250,-0.1500*
1,1,0.3500,-0.1250,0.1500*
%
%ADD72ROUNDEDRECTD72*%
G04:AMPARAMS|DCode=73|XSize=1.6mm|YSize=0.7mm|CornerRadius=0.2mm|HoleSize=0mm|Usage=FLASHONLY|Rotation=270.000|XOffset=0mm|YOffset=0mm|HoleType=Round|Shape=RoundedRectangle|*
%AMROUNDEDRECTD73*
21,1,1.6000,0.3000,0,0,270.0*
21,1,1.2000,0.7000,0,0,270.0*
1,1,0.4000,-0.1500,-0.6000*
1,1,0.4000,-0.1500,0.6000*
1,1,0.4000,0.1500,0.6000*
1,1,0.4000,0.1500,-0.6000*
%
%ADD73ROUNDEDRECTD73*%
G04:AMPARAMS|DCode=74|XSize=0.75mm|YSize=0.6mm|CornerRadius=0.175mm|HoleSize=0mm|Usage=FLASHONLY|Rotation=90.000|XOffset=0mm|YOffset=0mm|HoleType=Round|Shape=RoundedRectangle|*
%AMROUNDEDRECTD74*
21,1,0.7500,0.2500,0,0,90.0*
21,1,0.4000,0.6000,0,0,90.0*
1,1,0.3500,0.1250,0.2000*
1,1,0.3500,0.1250,-0.2000*
1,1,0.3500,-0.1250,-0.2000*
1,1,0.3500,-0.1250,0.2000*
%
%ADD74ROUNDEDRECTD74*%
G04:AMPARAMS|DCode=75|XSize=1.05mm|YSize=1.1mm|CornerRadius=0.2875mm|HoleSize=0mm|Usage=FLASHONLY|Rotation=0.000|XOffset=0mm|YOffset=0mm|HoleType=Round|Shape=RoundedRectangle|*
%AMROUNDEDRECTD75*
21,1,1.0500,0.5250,0,0,0.0*
21,1,0.4750,1.1000,0,0,0.0*
1,1,0.5750,0.2375,-0.2625*
1,1,0.5750,-0.2375,-0.2625*
1,1,0.5750,-0.2375,0.2625*
1,1,0.5750,0.2375,0.2625*
%
%ADD75ROUNDEDRECTD75*%
G04:AMPARAMS|DCode=76|XSize=1.1mm|YSize=3.3mm|CornerRadius=0.3mm|HoleSize=0mm|Usage=FLASHONLY|Rotation=0.000|XOffset=0mm|YOffset=0mm|HoleType=Round|Shape=RoundedRectangle|*
%AMROUNDEDRECTD76*
21,1,1.1000,2.7000,0,0,0.0*
21,1,0.5000,3.3000,0,0,0.0*
1,1,0.6000,0.2500,-1.3500*
1,1,0.6000,-0.2500,-1.3500*
1,1,0.6000,-0.2500,1.3500*
1,1,0.6000,0.2500,1.3500*
%
%ADD76ROUNDEDRECTD76*%
G04:AMPARAMS|DCode=77|XSize=0.9mm|YSize=0.8mm|CornerRadius=0.1725mm|HoleSize=0mm|Usage=FLASHONLY|Rotation=0.000|XOffset=0mm|YOffset=0mm|HoleType=Round|Shape=RoundedRectangle|*
%AMROUNDEDRECTD77*
21,1,0.9000,0.4550,0,0,0.0*
21,1,0.5550,0.8000,0,0,0.0*
1,1,0.3450,0.2775,-0.2275*
1,1,0.3450,-0.2775,-0.2275*
1,1,0.3450,-0.2775,0.2275*
1,1,0.3450,0.2775,0.2275*
%
%ADD77ROUNDEDRECTD77*%
G04:AMPARAMS|DCode=78|XSize=0.8mm|YSize=2.4mm|CornerRadius=0.225mm|HoleSize=0mm|Usage=FLASHONLY|Rotation=270.000|XOffset=0mm|YOffset=0mm|HoleType=Round|Shape=RoundedRectangle|*
%AMROUNDEDRECTD78*
21,1,0.8000,1.9500,0,0,270.0*
21,1,0.3500,2.4000,0,0,270.0*
1,1,0.4500,-0.9750,-0.1750*
1,1,0.4500,-0.9750,0.1750*
1,1,0.4500,0.9750,0.1750*
1,1,0.4500,0.9750,-0.1750*
%
%ADD78ROUNDEDRECTD78*%
%ADD79C,2.0000*%
%ADD80C,5.2000*%
%ADD81C,1.3000*%
%ADD82C,1.8000*%
%ADD83C,5.1000*%
%ADD84O,3.9000X1.9000*%
G36*
X168078Y325494D02*
X168155Y325476D01*
X168227Y325446D01*
X168294Y325405D01*
X168354Y325354D01*
X168405Y325294D01*
X168446Y325227D01*
X168476Y325155D01*
X168494Y325078D01*
X168500Y311500D01*
X165500Y308500D01*
X152000D01*
X151922Y308506D01*
X151845Y308524D01*
X151773Y308554D01*
X151706Y308595D01*
X151646Y308646D01*
X151595Y308706D01*
X151554Y308773D01*
X151524Y308845D01*
X151506Y308922D01*
X151500Y325000D01*
X151506Y325078D01*
X151524Y325155D01*
X151554Y325227D01*
X151595Y325294D01*
X151646Y325354D01*
X151706Y325405D01*
X151773Y325446D01*
X151845Y325476D01*
X151922Y325494D01*
X152000Y325500D01*
X168000D01*
X168078Y325494D01*
D02*
G37*
G36*
X520750Y240750D02*
X509250D01*
Y248250D01*
X520750D01*
Y240750D01*
D02*
G37*
G36*
X512750Y221750D02*
X501250D01*
Y229250D01*
X512750D01*
Y221750D01*
D02*
G37*
G36*
X93012Y219252D02*
X93159Y219253D01*
X93159D01*
X93159D01*
X93197Y219249D01*
X93257Y219243D01*
X93257Y219243D01*
X93257D01*
X93544Y219186D01*
X93639Y219157D01*
X93639Y219157D01*
X93909Y219045D01*
X93909Y219045D01*
X93996Y218999D01*
X94240Y218836D01*
X94240Y218836D01*
X94302Y218784D01*
X94316Y218773D01*
Y218773D01*
X94316D01*
X94523Y218566D01*
X94523Y218566D01*
X94586Y218490D01*
X94748Y218246D01*
X94795Y218159D01*
X94795Y218159D01*
X94907Y217889D01*
D01*
X94907Y217889D01*
X94918Y217852D01*
X94935Y217794D01*
Y217794D01*
X94993Y217507D01*
X95002Y217409D01*
Y217409D01*
Y217409D01*
X95002Y217265D01*
X95002Y217263D01*
X95002Y215574D01*
X95269D01*
X95269D01*
D01*
X95367Y215564D01*
X95461Y215536D01*
X95911Y215349D01*
X95958Y215324D01*
X95998Y215303D01*
X96074Y215240D01*
X96419Y214896D01*
X96481Y214820D01*
X96503Y214779D01*
X96528Y214733D01*
X96714Y214283D01*
X96743Y214188D01*
X96752Y214090D01*
D01*
Y214090D01*
Y213847D01*
X96752Y211572D01*
X96752Y211453D01*
Y211453D01*
Y211453D01*
X96749Y211424D01*
X96743Y211355D01*
X96743Y211355D01*
X96696Y211122D01*
X96696Y211121D01*
X96676Y211056D01*
X96668Y211027D01*
X96668Y211027D01*
D01*
X96577Y210807D01*
X96530Y210721D01*
X96398Y210523D01*
X96398Y210523D01*
X96398Y210523D01*
X96388Y210511D01*
X96336Y210447D01*
X96335Y210447D01*
X96252Y210363D01*
X96252Y210363D01*
X93959Y208070D01*
X93959Y208070D01*
X93959Y208070D01*
X93875Y207986D01*
X93841Y207959D01*
X93799Y207923D01*
X93601Y207791D01*
X93514Y207745D01*
X93294Y207654D01*
X93294Y207654D01*
X93244Y207638D01*
X93200Y207625D01*
X93200D01*
X92967Y207579D01*
X92967Y207579D01*
X92869Y207569D01*
X89231D01*
X89133Y207579D01*
X89039Y207607D01*
X88589Y207794D01*
X88589Y207794D01*
X88502Y207840D01*
X88426Y207903D01*
X88081Y208247D01*
X88019Y208324D01*
X87989Y208380D01*
X87972Y208410D01*
X87786Y208861D01*
X87757Y208955D01*
X87748Y209053D01*
Y209297D01*
Y209748D01*
X85487Y209748D01*
X85341Y209748D01*
X85243Y209757D01*
X85243Y209757D01*
X84956Y209814D01*
X84956D01*
X84861Y209843D01*
X84591Y209955D01*
X84504Y210002D01*
X84260Y210164D01*
X84184Y210227D01*
X83977Y210434D01*
X83914Y210510D01*
X83751Y210754D01*
X83751Y210754D01*
X83705Y210841D01*
X83593Y211111D01*
X83578Y211162D01*
X83564Y211206D01*
X83507Y211493D01*
X83507Y211493D01*
X83501Y211556D01*
X83497Y211591D01*
Y211591D01*
Y211591D01*
X83497Y211737D01*
X83497Y211738D01*
Y217263D01*
Y217409D01*
X83507Y217507D01*
X83507Y217507D01*
X83564Y217795D01*
X83593Y217889D01*
X83593Y217889D01*
X83705Y218159D01*
X83705Y218160D01*
X83751Y218246D01*
X83914Y218490D01*
X83977Y218566D01*
X83977D01*
Y218566D01*
X84184Y218773D01*
X84201Y218787D01*
X84260Y218836D01*
X84504Y218999D01*
X84591Y219045D01*
D01*
X84591Y219045D01*
X84861Y219157D01*
X84898Y219168D01*
X84956Y219186D01*
X85243Y219243D01*
X85243Y219243D01*
X85306Y219249D01*
X85341Y219252D01*
X85341D01*
X85341D01*
X85487Y219252D01*
X85487Y219253D01*
X93012Y219252D01*
D02*
G37*
G36*
X435500Y189543D02*
X426753Y180796D01*
X426753Y158684D01*
X435499Y149936D01*
X435500Y77722D01*
X429744Y71965D01*
X295769Y71965D01*
X267544Y100191D01*
X267544Y248147D01*
X283202Y263804D01*
X435500Y263805D01*
X435500Y189543D01*
D02*
G37*
D47*
X560000Y160000D02*
D03*
Y180000D02*
D03*
X74500Y260500D02*
D03*
X74500Y240500D02*
D03*
D48*
X569750Y170000D02*
D03*
X84250Y250500D02*
D03*
D49*
X549750Y170000D02*
D03*
X64250Y250500D02*
D03*
D50*
X599500Y300000D02*
D03*
Y170000D02*
D03*
Y40000D02*
D03*
D51*
X597500Y325500D02*
D03*
Y274500D02*
D03*
Y195500D02*
D03*
Y144500D02*
D03*
Y65500D02*
D03*
Y14500D02*
D03*
D52*
X250000Y329500D02*
D03*
Y320500D02*
D03*
X250000Y288000D02*
D03*
Y297000D02*
D03*
X472500Y257000D02*
D03*
Y248000D02*
D03*
X522500Y140500D02*
D03*
Y149500D02*
D03*
X519500Y215000D02*
D03*
Y206000D02*
D03*
X485500Y215000D02*
D03*
Y206000D02*
D03*
X476500D02*
D03*
Y215000D02*
D03*
X507000Y169000D02*
D03*
Y178000D02*
D03*
X265000Y40500D02*
D03*
Y49500D02*
D03*
X245000Y40500D02*
D03*
Y49500D02*
D03*
X94000Y250500D02*
D03*
X94000Y259500D02*
D03*
D53*
X217500Y291500D02*
D03*
Y327500D02*
D03*
D54*
X174250Y309500D02*
D03*
Y314500D02*
D03*
Y319500D02*
D03*
Y324500D02*
D03*
X145750D02*
D03*
Y319500D02*
D03*
Y314500D02*
D03*
Y309500D02*
D03*
D55*
X167500Y331250D02*
D03*
X162500D02*
D03*
X157500D02*
D03*
X152500D02*
D03*
Y302750D02*
D03*
X157500D02*
D03*
X162500D02*
D03*
X167500D02*
D03*
D56*
X160000Y317000D02*
D03*
X89250Y214500D02*
D03*
X92250Y211572D02*
D03*
D57*
X274500Y290000D02*
D03*
X265500D02*
D03*
X134500Y325000D02*
D03*
X125500D02*
D03*
X534500Y266500D02*
D03*
X543500D02*
D03*
X95500Y90000D02*
D03*
X104500D02*
D03*
X84500D02*
D03*
X75500D02*
D03*
X112000Y226000D02*
D03*
X103000D02*
D03*
X103000Y250500D02*
D03*
X112000D02*
D03*
X103000Y259500D02*
D03*
X112000Y259500D02*
D03*
D58*
X265500Y310000D02*
D03*
X274500D02*
D03*
Y330000D02*
D03*
X265500D02*
D03*
X534500Y275500D02*
D03*
X543500D02*
D03*
X543500Y284500D02*
D03*
X534500D02*
D03*
X485500Y227500D02*
D03*
X494500D02*
D03*
X516000Y187000D02*
D03*
X507000D02*
D03*
X516000Y160000D02*
D03*
X507000D02*
D03*
X94000Y226000D02*
D03*
X85000D02*
D03*
D59*
X144600Y11500D02*
D03*
X205400D02*
D03*
X279600D02*
D03*
X340400D02*
D03*
D60*
X187500Y38000D02*
D03*
X182500D02*
D03*
X177500D02*
D03*
X172500D02*
D03*
X167500D02*
D03*
X162500D02*
D03*
X157500D02*
D03*
X152500D02*
D03*
X192500D02*
D03*
X197500D02*
D03*
X322500D02*
D03*
X317500D02*
D03*
X312500D02*
D03*
X307500D02*
D03*
X302500D02*
D03*
X297500D02*
D03*
X292500D02*
D03*
X287500D02*
D03*
X327500D02*
D03*
X332500D02*
D03*
D61*
X265000Y12900D02*
D03*
Y27100D02*
D03*
X245000Y12900D02*
D03*
Y27100D02*
D03*
X131999Y309054D02*
D03*
Y294854D02*
D03*
D62*
X512000Y98750D02*
D03*
X507000D02*
D03*
X502000D02*
D03*
Y107250D02*
D03*
X507000D02*
D03*
X512000D02*
D03*
D63*
X538250Y247500D02*
D03*
Y242500D02*
D03*
Y237500D02*
D03*
X529750D02*
D03*
Y242500D02*
D03*
Y247500D02*
D03*
D64*
X507050Y125550D02*
D03*
X512750D02*
D03*
X518450D02*
D03*
Y130000D02*
D03*
X512750D02*
D03*
X507050D02*
D03*
D65*
X77500Y124500D02*
D03*
Y105500D02*
D03*
X102500D02*
D03*
Y124500D02*
D03*
Y115000D02*
D03*
D66*
X107750Y188500D02*
D03*
Y214500D02*
D03*
X89250Y188500D02*
D03*
D67*
Y201500D02*
D03*
X107750D02*
D03*
D68*
X129250Y107500D02*
D03*
Y132500D02*
D03*
Y127500D02*
D03*
Y112500D02*
D03*
Y122500D02*
D03*
Y117500D02*
D03*
Y77500D02*
D03*
Y92500D02*
D03*
Y102500D02*
D03*
Y97500D02*
D03*
Y87500D02*
D03*
Y82500D02*
D03*
Y217500D02*
D03*
Y227500D02*
D03*
Y222500D02*
D03*
Y202500D02*
D03*
Y212500D02*
D03*
Y207500D02*
D03*
Y252500D02*
D03*
Y262500D02*
D03*
Y257500D02*
D03*
Y237500D02*
D03*
Y232500D02*
D03*
Y247500D02*
D03*
Y242500D02*
D03*
Y172500D02*
D03*
Y182500D02*
D03*
Y177500D02*
D03*
Y157500D02*
D03*
Y167500D02*
D03*
Y162500D02*
D03*
Y197500D02*
D03*
Y192500D02*
D03*
Y187500D02*
D03*
D69*
X135000Y66500D02*
D03*
Y273500D02*
D03*
D70*
X204500Y155000D02*
D03*
Y90000D02*
D03*
Y100000D02*
D03*
Y95000D02*
D03*
Y85000D02*
D03*
Y80000D02*
D03*
Y120000D02*
D03*
Y130000D02*
D03*
Y125000D02*
D03*
Y105000D02*
D03*
Y115000D02*
D03*
Y110000D02*
D03*
Y240000D02*
D03*
Y250000D02*
D03*
Y245000D02*
D03*
Y225000D02*
D03*
Y235000D02*
D03*
Y230000D02*
D03*
Y260000D02*
D03*
Y255000D02*
D03*
Y180000D02*
D03*
Y190000D02*
D03*
Y185000D02*
D03*
Y165000D02*
D03*
Y160000D02*
D03*
Y175000D02*
D03*
Y170000D02*
D03*
Y210000D02*
D03*
Y220000D02*
D03*
Y215000D02*
D03*
Y200000D02*
D03*
Y195000D02*
D03*
Y205000D02*
D03*
D71*
X494500Y215000D02*
D03*
Y206000D02*
D03*
D72*
X515000Y283250D02*
D03*
X507000Y64250D02*
D03*
D73*
X525000Y273000D02*
D03*
X505000D02*
D03*
X517000Y74500D02*
D03*
X497000D02*
D03*
D74*
X515000Y263250D02*
D03*
X507000Y84250D02*
D03*
D75*
X184600Y290000D02*
D03*
X170400D02*
D03*
D76*
X423500Y301000D02*
D03*
X372700D02*
D03*
X398100D02*
D03*
X347300D02*
D03*
X321900D02*
D03*
X296500D02*
D03*
D77*
X104750Y191572D02*
D03*
Y211572D02*
D03*
X92250Y191572D02*
D03*
Y201572D02*
D03*
X104750D02*
D03*
D78*
X49000Y170000D02*
D03*
Y160000D02*
D03*
Y150000D02*
D03*
Y140000D02*
D03*
Y130000D02*
D03*
Y210000D02*
D03*
Y200000D02*
D03*
Y190000D02*
D03*
Y180000D02*
D03*
D79*
X525000Y20000D02*
D03*
Y320000D02*
D03*
X40000Y260000D02*
D03*
D80*
X90750Y295700D02*
D03*
X469250Y44300D02*
D03*
X90750D02*
D03*
X469250Y295700D02*
D03*
D81*
X180000Y70000D02*
D03*
D82*
Y270000D02*
D03*
D83*
X462500Y170000D02*
D03*
D84*
X27000Y228500D02*
D03*
Y111500D02*
D03*
M02*
