G04*
G04 #@! TF.GenerationSoftware,Altium Limited,Altium Designer,20.1.12 (249)*
G04*
G04 Layer_Physical_Order=1*
G04 Layer_Color=255*
%FSLAX44Y44*%
%MOMM*%
G71*
G04*
G04 #@! TF.SameCoordinates,A9FEEA33-96DE-4984-9D73-42BCD588803D*
G04*
G04*
G04 #@! TF.FilePolarity,Positive*
G04*
G01*
G75*
%ADD11C,0.2000*%
%ADD12C,0.1500*%
G04:AMPARAMS|DCode=27|XSize=0.3mm|YSize=0.7mm|CornerRadius=0.075mm|HoleSize=0mm|Usage=FLASHONLY|Rotation=0.000|XOffset=0mm|YOffset=0mm|HoleType=Round|Shape=RoundedRectangle|*
%AMROUNDEDRECTD27*
21,1,0.3000,0.5500,0,0,0.0*
21,1,0.1500,0.7000,0,0,0.0*
1,1,0.1500,0.0750,-0.2750*
1,1,0.1500,-0.0750,-0.2750*
1,1,0.1500,-0.0750,0.2750*
1,1,0.1500,0.0750,0.2750*
%
%ADD27ROUNDEDRECTD27*%
G04:AMPARAMS|DCode=29|XSize=0.35mm|YSize=0.25mm|CornerRadius=0.0313mm|HoleSize=0mm|Usage=FLASHONLY|Rotation=270.000|XOffset=0mm|YOffset=0mm|HoleType=Round|Shape=RoundedRectangle|*
%AMROUNDEDRECTD29*
21,1,0.3500,0.1875,0,0,270.0*
21,1,0.2875,0.2500,0,0,270.0*
1,1,0.0625,-0.0938,-0.1438*
1,1,0.0625,-0.0938,0.1438*
1,1,0.0625,0.0938,0.1438*
1,1,0.0625,0.0938,-0.1438*
%
%ADD29ROUNDEDRECTD29*%
G04:AMPARAMS|DCode=30|XSize=0.35mm|YSize=0.25mm|CornerRadius=0.0313mm|HoleSize=0mm|Usage=FLASHONLY|Rotation=0.000|XOffset=0mm|YOffset=0mm|HoleType=Round|Shape=RoundedRectangle|*
%AMROUNDEDRECTD30*
21,1,0.3500,0.1875,0,0,0.0*
21,1,0.2875,0.2500,0,0,0.0*
1,1,0.0625,0.1438,-0.0938*
1,1,0.0625,-0.1438,-0.0938*
1,1,0.0625,-0.1438,0.0938*
1,1,0.0625,0.1438,0.0938*
%
%ADD30ROUNDEDRECTD30*%
G04:AMPARAMS|DCode=38|XSize=0.25mm|YSize=0.25mm|CornerRadius=0.0313mm|HoleSize=0mm|Usage=FLASHONLY|Rotation=270.000|XOffset=0mm|YOffset=0mm|HoleType=Round|Shape=RoundedRectangle|*
%AMROUNDEDRECTD38*
21,1,0.2500,0.1875,0,0,270.0*
21,1,0.1875,0.2500,0,0,270.0*
1,1,0.0625,-0.0938,-0.0938*
1,1,0.0625,-0.0938,0.0938*
1,1,0.0625,0.0938,0.0938*
1,1,0.0625,0.0938,-0.0938*
%
%ADD38ROUNDEDRECTD38*%
%ADD85C,0.2500*%
G04:AMPARAMS|DCode=86|XSize=1.5mm|YSize=0.6mm|CornerRadius=0.15mm|HoleSize=0mm|Usage=FLASHONLY|Rotation=180.000|XOffset=0mm|YOffset=0mm|HoleType=Round|Shape=RoundedRectangle|*
%AMROUNDEDRECTD86*
21,1,1.5000,0.3000,0,0,180.0*
21,1,1.2000,0.6000,0,0,180.0*
1,1,0.3000,-0.6000,0.1500*
1,1,0.3000,0.6000,0.1500*
1,1,0.3000,0.6000,-0.1500*
1,1,0.3000,-0.6000,-0.1500*
%
%ADD86ROUNDEDRECTD86*%
G04:AMPARAMS|DCode=87|XSize=0.65mm|YSize=0.5mm|CornerRadius=0.125mm|HoleSize=0mm|Usage=FLASHONLY|Rotation=180.000|XOffset=0mm|YOffset=0mm|HoleType=Round|Shape=RoundedRectangle|*
%AMROUNDEDRECTD87*
21,1,0.6500,0.2500,0,0,180.0*
21,1,0.4000,0.5000,0,0,180.0*
1,1,0.2500,-0.2000,0.1250*
1,1,0.2500,0.2000,0.1250*
1,1,0.2500,0.2000,-0.1250*
1,1,0.2500,-0.2000,-0.1250*
%
%ADD87ROUNDEDRECTD87*%
G04:AMPARAMS|DCode=88|XSize=0.55mm|YSize=0.5mm|CornerRadius=0.125mm|HoleSize=0mm|Usage=FLASHONLY|Rotation=180.000|XOffset=0mm|YOffset=0mm|HoleType=Round|Shape=RoundedRectangle|*
%AMROUNDEDRECTD88*
21,1,0.5500,0.2500,0,0,180.0*
21,1,0.3000,0.5000,0,0,180.0*
1,1,0.2500,-0.1500,0.1250*
1,1,0.2500,0.1500,0.1250*
1,1,0.2500,0.1500,-0.1250*
1,1,0.2500,-0.1500,-0.1250*
%
%ADD88ROUNDEDRECTD88*%
G04:AMPARAMS|DCode=89|XSize=1.2mm|YSize=3.6mm|CornerRadius=0.3mm|HoleSize=0mm|Usage=FLASHONLY|Rotation=90.000|XOffset=0mm|YOffset=0mm|HoleType=Round|Shape=RoundedRectangle|*
%AMROUNDEDRECTD89*
21,1,1.2000,3.0000,0,0,90.0*
21,1,0.6000,3.6000,0,0,90.0*
1,1,0.6000,1.5000,0.3000*
1,1,0.6000,1.5000,-0.3000*
1,1,0.6000,-1.5000,-0.3000*
1,1,0.6000,-1.5000,0.3000*
%
%ADD89ROUNDEDRECTD89*%
G04:AMPARAMS|DCode=90|XSize=1.5mm|YSize=4mm|CornerRadius=0.375mm|HoleSize=0mm|Usage=FLASHONLY|Rotation=90.000|XOffset=0mm|YOffset=0mm|HoleType=Round|Shape=RoundedRectangle|*
%AMROUNDEDRECTD90*
21,1,1.5000,3.2500,0,0,90.0*
21,1,0.7500,4.0000,0,0,90.0*
1,1,0.7500,1.6250,0.3750*
1,1,0.7500,1.6250,-0.3750*
1,1,0.7500,-1.6250,-0.3750*
1,1,0.7500,-1.6250,0.3750*
%
%ADD90ROUNDEDRECTD90*%
G04:AMPARAMS|DCode=91|XSize=0.55mm|YSize=0.55mm|CornerRadius=0.1375mm|HoleSize=0mm|Usage=FLASHONLY|Rotation=90.000|XOffset=0mm|YOffset=0mm|HoleType=Round|Shape=RoundedRectangle|*
%AMROUNDEDRECTD91*
21,1,0.5500,0.2750,0,0,90.0*
21,1,0.2750,0.5500,0,0,90.0*
1,1,0.2750,0.1375,0.1375*
1,1,0.2750,0.1375,-0.1375*
1,1,0.2750,-0.1375,-0.1375*
1,1,0.2750,-0.1375,0.1375*
%
%ADD91ROUNDEDRECTD91*%
G04:AMPARAMS|DCode=92|XSize=1.5mm|YSize=4mm|CornerRadius=0.225mm|HoleSize=0mm|Usage=FLASHONLY|Rotation=270.000|XOffset=0mm|YOffset=0mm|HoleType=Round|Shape=RoundedRectangle|*
%AMROUNDEDRECTD92*
21,1,1.5000,3.5500,0,0,270.0*
21,1,1.0500,4.0000,0,0,270.0*
1,1,0.4500,-1.7750,-0.5250*
1,1,0.4500,-1.7750,0.5250*
1,1,0.4500,1.7750,0.5250*
1,1,0.4500,1.7750,-0.5250*
%
%ADD92ROUNDEDRECTD92*%
G04:AMPARAMS|DCode=93|XSize=0.75mm|YSize=0.26mm|CornerRadius=0.065mm|HoleSize=0mm|Usage=FLASHONLY|Rotation=0.000|XOffset=0mm|YOffset=0mm|HoleType=Round|Shape=RoundedRectangle|*
%AMROUNDEDRECTD93*
21,1,0.7500,0.1300,0,0,0.0*
21,1,0.6200,0.2600,0,0,0.0*
1,1,0.1300,0.3100,-0.0650*
1,1,0.1300,-0.3100,-0.0650*
1,1,0.1300,-0.3100,0.0650*
1,1,0.1300,0.3100,0.0650*
%
%ADD93ROUNDEDRECTD93*%
G04:AMPARAMS|DCode=94|XSize=0.75mm|YSize=0.26mm|CornerRadius=0.065mm|HoleSize=0mm|Usage=FLASHONLY|Rotation=90.000|XOffset=0mm|YOffset=0mm|HoleType=Round|Shape=RoundedRectangle|*
%AMROUNDEDRECTD94*
21,1,0.7500,0.1300,0,0,90.0*
21,1,0.6200,0.2600,0,0,90.0*
1,1,0.1300,0.0650,0.3100*
1,1,0.1300,0.0650,-0.3100*
1,1,0.1300,-0.0650,-0.3100*
1,1,0.1300,-0.0650,0.3100*
%
%ADD94ROUNDEDRECTD94*%
%ADD95C,0.0254*%
G04:AMPARAMS|DCode=96|XSize=0.6mm|YSize=0.6mm|CornerRadius=0.15mm|HoleSize=0mm|Usage=FLASHONLY|Rotation=0.000|XOffset=0mm|YOffset=0mm|HoleType=Round|Shape=RoundedRectangle|*
%AMROUNDEDRECTD96*
21,1,0.6000,0.3000,0,0,0.0*
21,1,0.3000,0.6000,0,0,0.0*
1,1,0.3000,0.1500,-0.1500*
1,1,0.3000,-0.1500,-0.1500*
1,1,0.3000,-0.1500,0.1500*
1,1,0.3000,0.1500,0.1500*
%
%ADD96ROUNDEDRECTD96*%
G04:AMPARAMS|DCode=97|XSize=0.55mm|YSize=0.55mm|CornerRadius=0.1375mm|HoleSize=0mm|Usage=FLASHONLY|Rotation=180.000|XOffset=0mm|YOffset=0mm|HoleType=Round|Shape=RoundedRectangle|*
%AMROUNDEDRECTD97*
21,1,0.5500,0.2750,0,0,180.0*
21,1,0.2750,0.5500,0,0,180.0*
1,1,0.2750,-0.1375,0.1375*
1,1,0.2750,0.1375,0.1375*
1,1,0.2750,0.1375,-0.1375*
1,1,0.2750,-0.1375,-0.1375*
%
%ADD97ROUNDEDRECTD97*%
G04:AMPARAMS|DCode=98|XSize=0.3mm|YSize=1mm|CornerRadius=0.075mm|HoleSize=0mm|Usage=FLASHONLY|Rotation=0.000|XOffset=0mm|YOffset=0mm|HoleType=Round|Shape=RoundedRectangle|*
%AMROUNDEDRECTD98*
21,1,0.3000,0.8500,0,0,0.0*
21,1,0.1500,1.0000,0,0,0.0*
1,1,0.1500,0.0750,-0.4250*
1,1,0.1500,-0.0750,-0.4250*
1,1,0.1500,-0.0750,0.4250*
1,1,0.1500,0.0750,0.4250*
%
%ADD98ROUNDEDRECTD98*%
G04:AMPARAMS|DCode=99|XSize=0.95mm|YSize=1mm|CornerRadius=0.2375mm|HoleSize=0mm|Usage=FLASHONLY|Rotation=270.000|XOffset=0mm|YOffset=0mm|HoleType=Round|Shape=RoundedRectangle|*
%AMROUNDEDRECTD99*
21,1,0.9500,0.5250,0,0,270.0*
21,1,0.4750,1.0000,0,0,270.0*
1,1,0.4750,-0.2625,-0.2375*
1,1,0.4750,-0.2625,0.2375*
1,1,0.4750,0.2625,0.2375*
1,1,0.4750,0.2625,-0.2375*
%
%ADD99ROUNDEDRECTD99*%
G04:AMPARAMS|DCode=100|XSize=0.225mm|YSize=0.35mm|CornerRadius=0.0281mm|HoleSize=0mm|Usage=FLASHONLY|Rotation=270.000|XOffset=0mm|YOffset=0mm|HoleType=Round|Shape=RoundedRectangle|*
%AMROUNDEDRECTD100*
21,1,0.2250,0.2938,0,0,270.0*
21,1,0.1688,0.3500,0,0,270.0*
1,1,0.0563,-0.1469,-0.0844*
1,1,0.0563,-0.1469,0.0844*
1,1,0.0563,0.1469,0.0844*
1,1,0.0563,0.1469,-0.0844*
%
%ADD100ROUNDEDRECTD100*%
G04:AMPARAMS|DCode=101|XSize=1.15mm|YSize=0.6mm|CornerRadius=0.15mm|HoleSize=0mm|Usage=FLASHONLY|Rotation=180.000|XOffset=0mm|YOffset=0mm|HoleType=Round|Shape=RoundedRectangle|*
%AMROUNDEDRECTD101*
21,1,1.1500,0.3000,0,0,180.0*
21,1,0.8500,0.6000,0,0,180.0*
1,1,0.3000,-0.4250,0.1500*
1,1,0.3000,0.4250,0.1500*
1,1,0.3000,0.4250,-0.1500*
1,1,0.3000,-0.4250,-0.1500*
%
%ADD101ROUNDEDRECTD101*%
G04:AMPARAMS|DCode=102|XSize=1.05mm|YSize=0.85mm|CornerRadius=0.1487mm|HoleSize=0mm|Usage=FLASHONLY|Rotation=0.000|XOffset=0mm|YOffset=0mm|HoleType=Round|Shape=RoundedRectangle|*
%AMROUNDEDRECTD102*
21,1,1.0500,0.5525,0,0,0.0*
21,1,0.7525,0.8500,0,0,0.0*
1,1,0.2975,0.3763,-0.2763*
1,1,0.2975,-0.3763,-0.2763*
1,1,0.2975,-0.3763,0.2763*
1,1,0.2975,0.3763,0.2763*
%
%ADD102ROUNDEDRECTD102*%
G04:AMPARAMS|DCode=103|XSize=1.05mm|YSize=0.8mm|CornerRadius=0.14mm|HoleSize=0mm|Usage=FLASHONLY|Rotation=180.000|XOffset=0mm|YOffset=0mm|HoleType=Round|Shape=RoundedRectangle|*
%AMROUNDEDRECTD103*
21,1,1.0500,0.5200,0,0,180.0*
21,1,0.7700,0.8000,0,0,180.0*
1,1,0.2800,-0.3850,0.2600*
1,1,0.2800,0.3850,0.2600*
1,1,0.2800,0.3850,-0.2600*
1,1,0.2800,-0.3850,-0.2600*
%
%ADD103ROUNDEDRECTD103*%
G04:AMPARAMS|DCode=104|XSize=0.3mm|YSize=1.25mm|CornerRadius=0.075mm|HoleSize=0mm|Usage=FLASHONLY|Rotation=90.000|XOffset=0mm|YOffset=0mm|HoleType=Round|Shape=RoundedRectangle|*
%AMROUNDEDRECTD104*
21,1,0.3000,1.1000,0,0,90.0*
21,1,0.1500,1.2500,0,0,90.0*
1,1,0.1500,0.5500,0.0750*
1,1,0.1500,0.5500,-0.0750*
1,1,0.1500,-0.5500,-0.0750*
1,1,0.1500,-0.5500,0.0750*
%
%ADD104ROUNDEDRECTD104*%
G04:AMPARAMS|DCode=105|XSize=1.2mm|YSize=2.7mm|CornerRadius=0.15mm|HoleSize=0mm|Usage=FLASHONLY|Rotation=90.000|XOffset=0mm|YOffset=0mm|HoleType=Round|Shape=RoundedRectangle|*
%AMROUNDEDRECTD105*
21,1,1.2000,2.4000,0,0,90.0*
21,1,0.9000,2.7000,0,0,90.0*
1,1,0.3000,1.2000,0.4500*
1,1,0.3000,1.2000,-0.4500*
1,1,0.3000,-1.2000,-0.4500*
1,1,0.3000,-1.2000,0.4500*
%
%ADD105ROUNDEDRECTD105*%
G04:AMPARAMS|DCode=106|XSize=0.3mm|YSize=1mm|CornerRadius=0.075mm|HoleSize=0mm|Usage=FLASHONLY|Rotation=90.000|XOffset=0mm|YOffset=0mm|HoleType=Round|Shape=RoundedRectangle|*
%AMROUNDEDRECTD106*
21,1,0.3000,0.8500,0,0,90.0*
21,1,0.1500,1.0000,0,0,90.0*
1,1,0.1500,0.4250,0.0750*
1,1,0.1500,0.4250,-0.0750*
1,1,0.1500,-0.4250,-0.0750*
1,1,0.1500,-0.4250,0.0750*
%
%ADD106ROUNDEDRECTD106*%
G04:AMPARAMS|DCode=107|XSize=0.6mm|YSize=0.6mm|CornerRadius=0.15mm|HoleSize=0mm|Usage=FLASHONLY|Rotation=90.000|XOffset=0mm|YOffset=0mm|HoleType=Round|Shape=RoundedRectangle|*
%AMROUNDEDRECTD107*
21,1,0.6000,0.3000,0,0,90.0*
21,1,0.3000,0.6000,0,0,90.0*
1,1,0.3000,0.1500,0.1500*
1,1,0.3000,0.1500,-0.1500*
1,1,0.3000,-0.1500,-0.1500*
1,1,0.3000,-0.1500,0.1500*
%
%ADD107ROUNDEDRECTD107*%
G04:AMPARAMS|DCode=108|XSize=0.55mm|YSize=0.5mm|CornerRadius=0.125mm|HoleSize=0mm|Usage=FLASHONLY|Rotation=90.000|XOffset=0mm|YOffset=0mm|HoleType=Round|Shape=RoundedRectangle|*
%AMROUNDEDRECTD108*
21,1,0.5500,0.2500,0,0,90.0*
21,1,0.3000,0.5000,0,0,90.0*
1,1,0.2500,0.1250,0.1500*
1,1,0.2500,0.1250,-0.1500*
1,1,0.2500,-0.1250,-0.1500*
1,1,0.2500,-0.1250,0.1500*
%
%ADD108ROUNDEDRECTD108*%
G04:AMPARAMS|DCode=109|XSize=1.5mm|YSize=0.6mm|CornerRadius=0.15mm|HoleSize=0mm|Usage=FLASHONLY|Rotation=270.000|XOffset=0mm|YOffset=0mm|HoleType=Round|Shape=RoundedRectangle|*
%AMROUNDEDRECTD109*
21,1,1.5000,0.3000,0,0,270.0*
21,1,1.2000,0.6000,0,0,270.0*
1,1,0.3000,-0.1500,-0.6000*
1,1,0.3000,-0.1500,0.6000*
1,1,0.3000,0.1500,0.6000*
1,1,0.3000,0.1500,-0.6000*
%
%ADD109ROUNDEDRECTD109*%
G04:AMPARAMS|DCode=110|XSize=0.65mm|YSize=0.5mm|CornerRadius=0.125mm|HoleSize=0mm|Usage=FLASHONLY|Rotation=90.000|XOffset=0mm|YOffset=0mm|HoleType=Round|Shape=RoundedRectangle|*
%AMROUNDEDRECTD110*
21,1,0.6500,0.2500,0,0,90.0*
21,1,0.4000,0.5000,0,0,90.0*
1,1,0.2500,0.1250,0.2000*
1,1,0.2500,0.1250,-0.2000*
1,1,0.2500,-0.1250,-0.2000*
1,1,0.2500,-0.1250,0.2000*
%
%ADD110ROUNDEDRECTD110*%
G04:AMPARAMS|DCode=111|XSize=0.95mm|YSize=1mm|CornerRadius=0.2375mm|HoleSize=0mm|Usage=FLASHONLY|Rotation=0.000|XOffset=0mm|YOffset=0mm|HoleType=Round|Shape=RoundedRectangle|*
%AMROUNDEDRECTD111*
21,1,0.9500,0.5250,0,0,0.0*
21,1,0.4750,1.0000,0,0,0.0*
1,1,0.4750,0.2375,-0.2625*
1,1,0.4750,-0.2375,-0.2625*
1,1,0.4750,-0.2375,0.2625*
1,1,0.4750,0.2375,0.2625*
%
%ADD111ROUNDEDRECTD111*%
G04:AMPARAMS|DCode=112|XSize=1mm|YSize=3.2mm|CornerRadius=0.25mm|HoleSize=0mm|Usage=FLASHONLY|Rotation=0.000|XOffset=0mm|YOffset=0mm|HoleType=Round|Shape=RoundedRectangle|*
%AMROUNDEDRECTD112*
21,1,1.0000,2.7000,0,0,0.0*
21,1,0.5000,3.2000,0,0,0.0*
1,1,0.5000,0.2500,-1.3500*
1,1,0.5000,-0.2500,-1.3500*
1,1,0.5000,-0.2500,1.3500*
1,1,0.5000,0.2500,1.3500*
%
%ADD112ROUNDEDRECTD112*%
G04:AMPARAMS|DCode=113|XSize=0.8mm|YSize=0.7mm|CornerRadius=0.1225mm|HoleSize=0mm|Usage=FLASHONLY|Rotation=0.000|XOffset=0mm|YOffset=0mm|HoleType=Round|Shape=RoundedRectangle|*
%AMROUNDEDRECTD113*
21,1,0.8000,0.4550,0,0,0.0*
21,1,0.5550,0.7000,0,0,0.0*
1,1,0.2450,0.2775,-0.2275*
1,1,0.2450,-0.2775,-0.2275*
1,1,0.2450,-0.2775,0.2275*
1,1,0.2450,0.2775,0.2275*
%
%ADD113ROUNDEDRECTD113*%
G04:AMPARAMS|DCode=114|XSize=0.7mm|YSize=2.3mm|CornerRadius=0.175mm|HoleSize=0mm|Usage=FLASHONLY|Rotation=270.000|XOffset=0mm|YOffset=0mm|HoleType=Round|Shape=RoundedRectangle|*
%AMROUNDEDRECTD114*
21,1,0.7000,1.9500,0,0,270.0*
21,1,0.3500,2.3000,0,0,270.0*
1,1,0.3500,-0.9750,-0.1750*
1,1,0.3500,-0.9750,0.1750*
1,1,0.3500,0.9750,0.1750*
1,1,0.3500,0.9750,-0.1750*
%
%ADD114ROUNDEDRECTD114*%
%ADD115C,1.0000*%
%ADD116C,0.3000*%
%ADD117C,0.2400*%
%ADD118C,0.4500*%
%ADD119C,0.4000*%
%ADD120C,0.1100*%
%ADD121C,0.1400*%
%ADD122C,0.1350*%
%ADD123C,5.0000*%
%ADD124O,3.8000X1.8000*%
%ADD125C,0.4500*%
G36*
X164148Y334350D02*
Y328150D01*
X163647Y327539D01*
X152181D01*
X151400Y327384D01*
X151088Y327254D01*
X150789Y327055D01*
X150760Y327061D01*
X149884Y327646D01*
X148850Y327852D01*
X145759D01*
X145700Y327864D01*
X139297D01*
X139297Y327866D01*
X138523Y329023D01*
X137366Y329797D01*
X136000Y330069D01*
X133000D01*
X131634Y329797D01*
X130477Y329023D01*
X129703Y327866D01*
X129431Y326500D01*
Y323500D01*
X128724Y322677D01*
X128062Y322235D01*
X128062Y322235D01*
X124525Y318698D01*
X124083Y318036D01*
X123928Y317256D01*
Y305567D01*
X123928Y305567D01*
X124083Y304787D01*
X124525Y304125D01*
X124525Y304125D01*
X126606Y302045D01*
X126765Y301938D01*
X128937Y301954D01*
X134459Y302010D01*
X134918Y301448D01*
X135137D01*
X138126Y298459D01*
Y297518D01*
X138889Y296583D01*
X138889Y283991D01*
X138126D01*
Y283230D01*
X138126Y283230D01*
X138281Y282449D01*
X138723Y281788D01*
X138723Y281788D01*
X140722Y279789D01*
X141383Y279347D01*
X142163Y279192D01*
X147748D01*
X148529Y279347D01*
X149190Y279789D01*
X153288Y283887D01*
X153659Y283734D01*
X154200Y283385D01*
X154450Y281492D01*
X155230Y279607D01*
X156473Y277988D01*
X156643Y277857D01*
X156713Y277762D01*
X158735Y275904D01*
X158735Y275903D01*
X158734Y275902D01*
X160354Y274819D01*
X162500Y274392D01*
Y274392D01*
X162544Y274436D01*
X168792Y274436D01*
X168836Y274392D01*
Y274392D01*
X168836Y274392D01*
X170009Y274625D01*
X170729Y273749D01*
X170257Y272611D01*
X169914Y270000D01*
X170257Y267390D01*
X171024Y265539D01*
X170376Y264539D01*
X170000D01*
X169219Y264384D01*
X168558Y263942D01*
X168116Y263281D01*
X167961Y262500D01*
Y116382D01*
X167037Y115999D01*
X152160Y130876D01*
Y134531D01*
X153340Y135320D01*
X163580Y145560D01*
X164586Y147065D01*
X164939Y148840D01*
Y228160D01*
X164586Y229935D01*
X163580Y231440D01*
X150340Y244681D01*
X148835Y245686D01*
X147060Y246039D01*
X136850D01*
X130740Y246966D01*
X130402Y247955D01*
X130424Y248026D01*
X132001Y248765D01*
X132167Y248946D01*
X134750D01*
X135823Y249160D01*
X136733Y249767D01*
X137340Y250677D01*
X137554Y251750D01*
Y253250D01*
X137340Y254323D01*
X136888Y255000D01*
X137340Y255677D01*
X137554Y256750D01*
Y258250D01*
X137340Y259323D01*
X136733Y260233D01*
X135823Y260841D01*
X134750Y261054D01*
X132167D01*
X132001Y261236D01*
X130362Y262004D01*
X128554Y262087D01*
X121650Y261039D01*
X117061D01*
X116797Y262366D01*
X116023Y263524D01*
X114866Y264297D01*
X113500Y264569D01*
X110500D01*
X109134Y264297D01*
X107977Y263524D01*
X107203Y262366D01*
X106931Y261000D01*
Y258000D01*
X107203Y256635D01*
X107522Y256156D01*
X107090Y255248D01*
X106173Y255092D01*
X105866Y255297D01*
X104500Y255569D01*
X101500D01*
X100134Y255297D01*
X99690Y255000D01*
X96773D01*
X96692Y255054D01*
X95375Y255316D01*
X92625D01*
X91308Y255054D01*
X91227Y255000D01*
X88931D01*
X88931Y255000D01*
X87947Y254773D01*
X87780Y254884D01*
X87582Y254923D01*
X87396Y255000D01*
X87196Y255000D01*
X87000Y255039D01*
X86374D01*
X86250Y255064D01*
X82789D01*
Y257250D01*
X82634Y258030D01*
X82192Y258692D01*
X81530Y259134D01*
X80750Y259289D01*
X67250Y259289D01*
X66470Y259134D01*
X65808Y258692D01*
X65366Y258031D01*
X65211Y257250D01*
X65211Y243750D01*
X65366Y242970D01*
X65808Y242308D01*
X66470Y241866D01*
X67250Y241711D01*
X80750D01*
X81530Y241866D01*
X82192Y242308D01*
X82634Y242970D01*
X82789Y243750D01*
Y245937D01*
X86250D01*
X86372Y245961D01*
X87000D01*
X87196Y246000D01*
X87396Y246000D01*
X87582Y246077D01*
X87780Y246116D01*
X87947Y246227D01*
X88931Y246000D01*
Y246000D01*
X91227D01*
X91308Y245946D01*
X92625Y245684D01*
X95375D01*
X96692Y245946D01*
X96773Y246000D01*
X99690D01*
X100134Y245703D01*
X101500Y245432D01*
X104500D01*
X105866Y245703D01*
X106310Y246000D01*
X108690D01*
X109134Y245703D01*
X110500Y245432D01*
X113500D01*
X114866Y245703D01*
X115310Y246000D01*
X115859D01*
X115857Y246366D01*
X116023Y246477D01*
X116797Y247635D01*
X117061Y248961D01*
X121650D01*
X127760Y248034D01*
X128098Y247046D01*
X128075Y246975D01*
X126499Y246236D01*
X126333Y246054D01*
X123750D01*
X122677Y245841D01*
X121767Y245233D01*
X121159Y244323D01*
X120946Y243250D01*
Y241750D01*
X121159Y240677D01*
X121612Y240000D01*
X121159Y239323D01*
X120946Y238250D01*
Y236750D01*
X121159Y235677D01*
X121767Y234768D01*
X122677Y234160D01*
X123750Y233946D01*
X126333D01*
X126499Y233765D01*
X128138Y232996D01*
Y232004D01*
X126499Y231236D01*
X126333Y231054D01*
X123750D01*
X122677Y230841D01*
X121767Y230233D01*
X121159Y229323D01*
X120946Y228250D01*
Y226750D01*
X121159Y225677D01*
X121612Y225000D01*
X121159Y224323D01*
X120946Y223250D01*
Y221750D01*
X121159Y220677D01*
X121767Y219768D01*
X122677Y219160D01*
X123750Y218946D01*
X126333D01*
X126499Y218765D01*
X128138Y217996D01*
X129946Y217914D01*
X136850Y218961D01*
X138563D01*
X138872Y218255D01*
X138900Y217961D01*
X138220Y217280D01*
X137328Y215946D01*
X137181Y215770D01*
X136162Y215614D01*
X135823Y215841D01*
X134750Y216054D01*
X123750D01*
X122677Y215841D01*
X121767Y215233D01*
X121159Y214323D01*
X120946Y213250D01*
Y211750D01*
X121159Y210677D01*
X121612Y210000D01*
X121159Y209323D01*
X120946Y208250D01*
Y206750D01*
X121159Y205677D01*
X121767Y204767D01*
X122677Y204160D01*
X123750Y203946D01*
X134750D01*
X135823Y204160D01*
X136604Y204681D01*
X136759Y204694D01*
X137114Y204615D01*
X137682Y204388D01*
X137714Y204225D01*
X137714Y204225D01*
X137714Y204225D01*
X138219Y203469D01*
X138720Y202720D01*
X139469Y201970D01*
X139470Y201970D01*
X140361Y201374D01*
Y155881D01*
X139419Y154939D01*
X109081D01*
X79939Y184081D01*
Y196660D01*
X79586Y198435D01*
X78580Y199940D01*
X73840Y204680D01*
X72335Y205686D01*
X70560Y206039D01*
X67522D01*
X62573Y210987D01*
Y211750D01*
X62282Y213213D01*
X61454Y214454D01*
X60213Y215282D01*
X58750Y215573D01*
X39250D01*
X37787Y215282D01*
X36546Y214454D01*
X35718Y213213D01*
X35426Y211750D01*
Y208250D01*
X35718Y206787D01*
X36546Y205546D01*
X36914Y205301D01*
Y204098D01*
X36907Y204093D01*
X36511Y203500D01*
X49000D01*
Y196500D01*
X36511D01*
X36907Y195907D01*
X36914Y195902D01*
Y194699D01*
X36546Y194454D01*
X35718Y193213D01*
X35426Y191750D01*
Y188250D01*
X35718Y186787D01*
X36496Y185622D01*
X36616Y185314D01*
Y184686D01*
X36496Y184378D01*
X35718Y183213D01*
X35426Y181750D01*
Y181168D01*
X32526Y178267D01*
X30500D01*
X28676Y177904D01*
X27129Y176870D01*
X26096Y175324D01*
X25733Y173500D01*
X26096Y171676D01*
X26250Y171446D01*
Y168554D01*
X26096Y168324D01*
X25733Y166500D01*
X26096Y164676D01*
X27129Y163130D01*
X28676Y162096D01*
X30500Y161733D01*
X32526D01*
X35426Y158833D01*
Y158250D01*
X35718Y156787D01*
X36546Y155546D01*
X36616Y155500D01*
Y154500D01*
X36546Y154454D01*
X35718Y153213D01*
X35426Y151750D01*
Y148250D01*
X35254Y148039D01*
X22000D01*
X22000Y148039D01*
X21503D01*
X20722Y147884D01*
X20722Y147884D01*
X19804Y147503D01*
X19804Y147503D01*
X19142Y147061D01*
X19142Y147061D01*
X18439Y146358D01*
X17997Y145696D01*
X17616Y144778D01*
X17461Y143997D01*
Y136500D01*
X17461Y136003D01*
X17512Y135744D01*
X17616Y135222D01*
X17616Y135222D01*
X17997Y134304D01*
X17997Y134303D01*
X18439Y133642D01*
X18439Y133642D01*
X19142Y132939D01*
X19804Y132497D01*
X20722Y132116D01*
X21503Y131961D01*
X22000Y131961D01*
X34449D01*
X35060Y131829D01*
X35426Y131026D01*
Y128250D01*
X35718Y126787D01*
X36546Y125546D01*
X37787Y124718D01*
X39250Y124426D01*
X58750D01*
X60213Y124718D01*
X61454Y125546D01*
X62282Y126787D01*
X62573Y128250D01*
Y129013D01*
X67522Y133961D01*
X120239D01*
X120946Y133254D01*
X120946Y94960D01*
X121636Y94964D01*
X121767Y94768D01*
X122677Y94160D01*
X123750Y93946D01*
X134750D01*
X135823Y94160D01*
X136733Y94768D01*
X136927Y95058D01*
X137554Y95062D01*
X137554Y113925D01*
X138280Y114651D01*
X139242D01*
X152696Y101196D01*
Y59686D01*
X152910Y58613D01*
X153517Y57704D01*
X159696Y51525D01*
Y48238D01*
X159436Y48064D01*
X158497Y46658D01*
X158167Y45000D01*
X158294Y44360D01*
X157660Y43587D01*
X148431Y43587D01*
X148431Y34565D01*
X147507Y34183D01*
X107814Y73877D01*
Y85502D01*
X108523Y85977D01*
X109297Y87134D01*
X109569Y88500D01*
Y91500D01*
X109297Y92866D01*
X108523Y94023D01*
X107814Y94498D01*
Y100643D01*
X108116Y100703D01*
X109273Y101477D01*
X109860Y102355D01*
X110506D01*
X111774Y102607D01*
X112849Y103325D01*
X115730Y106206D01*
X116448Y107281D01*
X116701Y108549D01*
Y121463D01*
X116448Y122731D01*
X115730Y123806D01*
X112855Y126681D01*
X111780Y127399D01*
X110512Y127651D01*
X109856D01*
X109273Y128523D01*
X108116Y129297D01*
X106750Y129569D01*
X98250D01*
X96884Y129297D01*
X95727Y128523D01*
X94953Y127366D01*
X94681Y126000D01*
Y123000D01*
X94953Y121634D01*
X95727Y120477D01*
X96884Y119703D01*
X98250Y119431D01*
X106750D01*
X108116Y119703D01*
X109218Y120440D01*
X109567Y120265D01*
X110073Y119900D01*
Y110100D01*
X109544Y109719D01*
X109225Y109556D01*
X108116Y110297D01*
X106750Y110569D01*
X98250D01*
X96884Y110297D01*
X95727Y109523D01*
X94953Y108366D01*
X94681Y107000D01*
Y104000D01*
X94953Y102634D01*
X95727Y101477D01*
X96884Y100703D01*
X98250Y100431D01*
X101186D01*
Y94498D01*
X100477Y94023D01*
X99703Y92866D01*
X99431Y91500D01*
Y88500D01*
X99703Y87134D01*
X100477Y85977D01*
X101186Y85502D01*
Y72504D01*
X101439Y71236D01*
X102157Y70161D01*
X102633Y69685D01*
X102066Y68837D01*
X99119Y70058D01*
X94987Y71050D01*
X90750Y71384D01*
X86513Y71050D01*
X82381Y70058D01*
X78454Y68432D01*
X74831Y66211D01*
X71599Y63451D01*
X68839Y60219D01*
X66618Y56596D01*
X64992Y52669D01*
X64000Y48537D01*
X63667Y44300D01*
X64000Y40063D01*
X64992Y35931D01*
X66618Y32004D01*
X68839Y28381D01*
X71599Y25149D01*
X74831Y22389D01*
X78454Y20168D01*
X82381Y18542D01*
X86513Y17550D01*
X90750Y17217D01*
X94987Y17550D01*
X99119Y18542D01*
X103046Y20168D01*
X106669Y22389D01*
X109901Y25149D01*
X112661Y28381D01*
X114882Y32004D01*
X116508Y35931D01*
X117500Y40063D01*
X117833Y44300D01*
X117500Y48537D01*
X116508Y52669D01*
X115287Y55616D01*
X116135Y56183D01*
X150157Y22161D01*
X151232Y21443D01*
X152500Y21190D01*
X198504D01*
X199772Y21443D01*
X200847Y22161D01*
X209373Y30686D01*
X219377D01*
X237071Y12993D01*
X237071Y5098D01*
X82450D01*
X31249Y69099D01*
X31683Y70000D01*
X40000Y70000D01*
X40000Y90000D01*
X20000D01*
X20000Y84671D01*
X19056Y84340D01*
X5098Y101788D01*
X5098Y238211D01*
X82450Y334902D01*
X163695D01*
X164148Y334350D01*
D02*
G37*
G36*
X237313Y330246D02*
Y313035D01*
X232548Y308269D01*
X171541D01*
X170550Y309260D01*
Y319466D01*
X171455Y320723D01*
X171473Y320705D01*
X187860D01*
X199179Y332024D01*
X235536D01*
X237313Y330246D01*
D02*
G37*
G36*
X168132Y325371D02*
X168371Y325131D01*
X168500Y324819D01*
Y324650D01*
X168500Y312000D01*
Y311881D01*
X168454Y311648D01*
X168363Y311428D01*
X168231Y311231D01*
X168146Y311147D01*
X168146Y311147D01*
X165854Y308854D01*
X165770Y308769D01*
X165572Y308637D01*
X165352Y308546D01*
X165119Y308500D01*
X165000Y308500D01*
X165000Y308500D01*
X152350Y308500D01*
X152181D01*
X151868Y308629D01*
X151629Y308869D01*
X151500Y309181D01*
Y309350D01*
Y324650D01*
Y324819D01*
X151629Y325131D01*
X151868Y325371D01*
X152181Y325500D01*
X167819D01*
X168132Y325371D01*
D02*
G37*
G36*
X584500Y294000D02*
X583500D01*
X573750Y299250D01*
Y300750D01*
X583500Y306000D01*
X584500D01*
Y294000D01*
D02*
G37*
G36*
X149462Y319648D02*
Y307779D01*
X150773Y306467D01*
X152882D01*
X153745Y304909D01*
Y287228D01*
X147748Y281231D01*
X142163D01*
X140165Y283230D01*
Y299304D01*
X135981Y303487D01*
X128048D01*
X125967Y305567D01*
Y317256D01*
X129504Y320793D01*
X148317D01*
X149462Y319648D01*
D02*
G37*
G36*
X179277Y306082D02*
X182185D01*
Y301275D01*
X178387Y297477D01*
X178171Y297153D01*
X177950Y296827D01*
X177948Y296821D01*
X177945Y296815D01*
X177868Y296431D01*
X177789Y296048D01*
X177767Y292640D01*
X177764Y292625D01*
Y292190D01*
X177741Y288667D01*
X175700Y286995D01*
X175697Y285777D01*
X168836Y280000D01*
X162500Y280000D01*
X160000Y282500D01*
Y297000D01*
X160814Y298790D01*
Y299458D01*
X160852Y299650D01*
Y305850D01*
X161042Y306082D01*
X161200D01*
Y306435D01*
X178848Y306457D01*
X179277Y306082D01*
D02*
G37*
G36*
X614902Y318000D02*
X578500D01*
X567500Y303500D01*
Y302642D01*
X567021Y302496D01*
X563980Y300871D01*
X561316Y298684D01*
X559129Y296019D01*
X557504Y292979D01*
X556503Y289681D01*
X556165Y286250D01*
X556177D01*
Y257500D01*
X556202Y257372D01*
X555837Y254596D01*
X554716Y251891D01*
X552933Y249567D01*
X550610Y247784D01*
X547904Y246663D01*
X545128Y246298D01*
X545000Y246323D01*
X539956D01*
X539914Y250000D01*
X528021Y250000D01*
X528009Y245735D01*
X527410Y245616D01*
X526943Y245304D01*
X523715D01*
Y247239D01*
X534787Y261432D01*
X539000D01*
Y263190D01*
X539297Y263634D01*
X539568Y265000D01*
Y268000D01*
X539297Y269366D01*
X539000Y269810D01*
Y272727D01*
X539054Y272808D01*
X539316Y274125D01*
Y276875D01*
X539054Y278192D01*
X539000Y278273D01*
Y280043D01*
X539041Y280082D01*
X540000Y280486D01*
X540808Y279946D01*
X542125Y279684D01*
X544875D01*
X546192Y279946D01*
X547308Y280692D01*
X548054Y281808D01*
X548316Y283125D01*
Y285875D01*
X548054Y287192D01*
X547833Y287523D01*
Y291000D01*
X547504Y292658D01*
X546564Y294064D01*
X545158Y295003D01*
X543500Y295333D01*
X541842Y295003D01*
X540436Y294064D01*
X539497Y292658D01*
X539167Y291000D01*
Y289290D01*
X539065Y288722D01*
X538136Y288423D01*
X537192Y289054D01*
X535875Y289316D01*
X533125D01*
X531808Y289054D01*
X530692Y288308D01*
X530000Y288304D01*
Y287273D01*
X529946Y287192D01*
X529684Y285875D01*
Y283125D01*
X529946Y281808D01*
X530000Y281727D01*
Y278273D01*
X529946Y278192D01*
X529684Y276875D01*
Y274125D01*
X529946Y272808D01*
X530000Y272727D01*
Y269810D01*
X529703Y269366D01*
X529431Y268000D01*
Y265175D01*
X518749Y251483D01*
X517804Y251808D01*
Y257279D01*
X519197Y259369D01*
X519273Y259554D01*
X519384Y259720D01*
X519423Y259918D01*
X519500Y260104D01*
X519500Y260304D01*
X519539Y260500D01*
Y261127D01*
X519564Y261250D01*
Y264711D01*
X521750D01*
X522530Y264866D01*
X523192Y265308D01*
X523634Y265970D01*
X523789Y266750D01*
Y280250D01*
X523634Y281030D01*
X523192Y281692D01*
X522530Y282134D01*
X521750Y282289D01*
X508250D01*
X507469Y282134D01*
X506808Y281692D01*
X506366Y281030D01*
X506211Y280250D01*
Y266750D01*
X506366Y265970D01*
X506808Y265308D01*
X507469Y264866D01*
X508250Y264711D01*
X510436D01*
Y261250D01*
X510461Y261126D01*
Y260500D01*
X510500Y260304D01*
X510500Y260104D01*
X510577Y259918D01*
X510616Y259720D01*
X510727Y259554D01*
X510803Y259369D01*
X512196Y257280D01*
Y252546D01*
X511196Y252242D01*
X510814Y252814D01*
X509408Y253753D01*
X507750Y254083D01*
X506092Y253753D01*
X505357Y253263D01*
X492500D01*
X491251Y253014D01*
X490193Y252307D01*
X489149Y251263D01*
X476673D01*
X476308Y251808D01*
X475192Y252554D01*
X473875Y252816D01*
X471125D01*
X469808Y252554D01*
X468692Y251808D01*
X467946Y250692D01*
X467684Y249375D01*
Y246625D01*
X467946Y245308D01*
X468692Y244192D01*
X469808Y243446D01*
X471125Y243184D01*
X473875D01*
X475192Y243446D01*
X476308Y244192D01*
X476673Y244737D01*
X490500D01*
X491749Y244986D01*
X492807Y245693D01*
X493851Y246737D01*
X504652D01*
X504686Y246686D01*
X506092Y245747D01*
X506166Y245732D01*
Y238714D01*
X507177Y238711D01*
X507176Y232013D01*
X506469Y231306D01*
X503050Y231313D01*
X503000Y231324D01*
X498285D01*
X497192Y232054D01*
X495875Y232316D01*
X493125D01*
X491808Y232054D01*
X490692Y231308D01*
X489946Y230192D01*
X489684Y228875D01*
Y226125D01*
X489946Y224808D01*
X490692Y223692D01*
X491808Y222946D01*
X493125Y222684D01*
X495875D01*
X496135Y222736D01*
X496628Y221814D01*
X494882Y220069D01*
X493000D01*
X491634Y219797D01*
X491190Y219500D01*
X488273D01*
X488192Y219554D01*
X486875Y219816D01*
X484125D01*
X482808Y219554D01*
X482727Y219500D01*
X479273D01*
X479192Y219554D01*
X477875Y219816D01*
X475125D01*
X473808Y219554D01*
X473727Y219500D01*
X472641D01*
X472645Y218739D01*
X471946Y217692D01*
X471684Y216375D01*
Y213625D01*
X471946Y212308D01*
X472597Y211333D01*
X472509Y211023D01*
X471764Y210333D01*
X470000D01*
X468342Y210003D01*
X466936Y209064D01*
X465997Y207658D01*
X465667Y206000D01*
X465997Y204342D01*
X466936Y202936D01*
X468342Y201996D01*
X470000Y201667D01*
X473478D01*
X473808Y201446D01*
X475125Y201184D01*
X477875D01*
X479192Y201446D01*
X480308Y202192D01*
X481054Y203308D01*
X481316Y204625D01*
Y207375D01*
X481054Y208692D01*
X480514Y209500D01*
X480936Y210500D01*
X482727D01*
X482808Y210446D01*
X484125Y210184D01*
X486875D01*
X488192Y210446D01*
X488273Y210500D01*
X491190D01*
X491634Y210203D01*
X493000Y209931D01*
X496000D01*
X497366Y210203D01*
X497810Y210500D01*
X499568D01*
Y213500D01*
X499569Y213500D01*
Y215383D01*
X502253Y218067D01*
X503176Y217684D01*
Y192069D01*
X502500D01*
Y189773D01*
X502446Y189692D01*
X502184Y188375D01*
Y185625D01*
X502446Y184308D01*
X502500Y184227D01*
Y180773D01*
X502446Y180692D01*
X502184Y179375D01*
Y176625D01*
X502446Y175308D01*
X502500Y175227D01*
Y171773D01*
X502446Y171692D01*
X502184Y170375D01*
Y167625D01*
X502446Y166308D01*
X502500Y166227D01*
Y162773D01*
X502446Y162692D01*
X502184Y161375D01*
Y158625D01*
X502446Y157308D01*
X502500Y157227D01*
Y156141D01*
X502500D01*
X503176Y155468D01*
Y132864D01*
X502323D01*
Y122091D01*
X504196D01*
Y110057D01*
X503884Y109590D01*
X503769Y109009D01*
X499544Y109022D01*
X499544Y96914D01*
X502465Y96948D01*
X503176Y96245D01*
Y88941D01*
X502803Y88381D01*
X502727Y88196D01*
X502616Y88030D01*
X502576Y87832D01*
X502500Y87646D01*
X502500Y87446D01*
X502461Y87250D01*
Y86373D01*
X502436Y86250D01*
Y82789D01*
X500250D01*
X499469Y82634D01*
X498808Y82192D01*
X498366Y81530D01*
X498211Y80750D01*
Y68381D01*
X497438Y67746D01*
X497000Y67833D01*
X495342Y67503D01*
X493936Y66564D01*
X492997Y65158D01*
X492667Y63500D01*
X492997Y61842D01*
X493936Y60436D01*
X495342Y59497D01*
X497000Y59167D01*
X498658Y59497D01*
X500064Y60436D01*
X501003Y61842D01*
X501333Y63500D01*
X501192Y64211D01*
X502012Y65211D01*
X513750D01*
X514530Y65366D01*
X515192Y65808D01*
X515634Y66470D01*
X515789Y67250D01*
Y80750D01*
X515634Y81530D01*
X515192Y82192D01*
X514530Y82634D01*
X513750Y82789D01*
X511563D01*
Y86250D01*
X511539Y86373D01*
Y87250D01*
X511500Y87446D01*
X511500Y87646D01*
X511423Y87832D01*
X511384Y88030D01*
X511273Y88196D01*
X511197Y88381D01*
X510823Y88941D01*
Y97044D01*
X514500Y97086D01*
X514500Y108979D01*
X510235Y108991D01*
X510116Y109590D01*
X509804Y110057D01*
Y122091D01*
X516878D01*
X516987Y122018D01*
X518450Y121727D01*
X522100D01*
X522270Y121760D01*
X526319Y121362D01*
X530376Y120131D01*
X534115Y118132D01*
X537393Y115443D01*
X540082Y112165D01*
X542081Y108426D01*
X543312Y104369D01*
X543710Y100320D01*
X543677Y100150D01*
Y65400D01*
X543660D01*
X544020Y60826D01*
X545091Y56364D01*
X546847Y52125D01*
X549244Y48213D01*
X552224Y44724D01*
X555713Y41744D01*
X559625Y39347D01*
X563864Y37591D01*
X568326Y36520D01*
X572749Y36172D01*
X583500Y22000D01*
X614902D01*
Y5098D01*
X272929D01*
X272929Y34469D01*
X273853Y34851D01*
X280147Y28558D01*
X281056Y27950D01*
X282129Y27736D01*
X291220D01*
X292293Y27950D01*
X293203Y28558D01*
X294483Y29837D01*
X295090Y30747D01*
X295141Y31000D01*
X303167D01*
X303497Y29342D01*
X304436Y27936D01*
X305842Y26997D01*
X307500Y26667D01*
X309158Y26997D01*
X310564Y27936D01*
X311503Y29342D01*
X311833Y31000D01*
X328167D01*
X328497Y29342D01*
X329436Y27936D01*
X330842Y26997D01*
X332500Y26667D01*
X334158Y26997D01*
X335564Y27936D01*
X336503Y29342D01*
X336833Y31000D01*
X336503Y32658D01*
X336068Y33309D01*
X336054Y35664D01*
Y40750D01*
X336022Y40912D01*
X336012Y42527D01*
X335370D01*
X335304Y42626D01*
Y44000D01*
X335090Y45073D01*
X334483Y45983D01*
X312983Y67483D01*
X312073Y68090D01*
X311000Y68304D01*
X293946D01*
X280767Y81483D01*
X279857Y82090D01*
X278784Y82304D01*
X266871D01*
X266399Y83186D01*
X266503Y83342D01*
X266833Y85000D01*
X266503Y86658D01*
X265564Y88064D01*
X265304Y88238D01*
Y257839D01*
X274661Y267196D01*
X360000D01*
X361073Y267410D01*
X361983Y268017D01*
X374683Y280717D01*
X375290Y281627D01*
X375504Y282700D01*
Y282972D01*
X376956Y283261D01*
X378444Y284256D01*
X379439Y285744D01*
X379788Y287500D01*
Y314500D01*
X379439Y316256D01*
X378444Y317744D01*
X376956Y318739D01*
X375200Y319088D01*
X370200D01*
X369784Y319005D01*
X350216D01*
X349800Y319088D01*
X344800D01*
X344384Y319005D01*
X324816D01*
X324400Y319088D01*
X319400D01*
X318984Y319005D01*
X299746D01*
Y319005D01*
X299166Y319055D01*
X299000Y319088D01*
X294000D01*
X292244Y318739D01*
X290756Y317744D01*
X289761Y316256D01*
X289412Y314500D01*
Y293811D01*
X281360D01*
X281359Y334195D01*
X282066Y334902D01*
X614902D01*
Y318000D01*
D02*
G37*
G36*
X237913Y298813D02*
X237913Y272913D01*
X227154Y262154D01*
X210500Y262154D01*
X210500Y255925D01*
X210500Y255000D01*
D01*
X210203Y254083D01*
X209850Y253729D01*
X209298Y253500D01*
X209019Y253500D01*
X208750Y253554D01*
X200250D01*
X199981Y253501D01*
X199702Y253500D01*
X199150Y253729D01*
X198728Y254151D01*
X198500Y254702D01*
Y262154D01*
X195315D01*
X192979Y264490D01*
Y278267D01*
X187556Y283690D01*
X181877Y283690D01*
X179768Y286727D01*
X179828Y296035D01*
X188031Y304237D01*
X232489D01*
X237913Y298813D01*
D02*
G37*
G36*
X517500Y260500D02*
X515500Y257500D01*
X514500D01*
X512500Y260500D01*
Y264000D01*
X517500D01*
Y260500D01*
D02*
G37*
G36*
X90000Y251000D02*
Y250000D01*
X87000Y248000D01*
X83500D01*
Y253000D01*
X87000D01*
X90000Y251000D01*
D02*
G37*
G36*
X569176Y294291D02*
X578500Y282000D01*
X614902D01*
Y188000D01*
X583500D01*
X573093Y174282D01*
X573062D01*
X573018Y174311D01*
X571750Y174564D01*
X568289D01*
Y176750D01*
X568134Y177530D01*
X567692Y178192D01*
X567030Y178634D01*
X566250Y178789D01*
X552750D01*
X551970Y178634D01*
X551308Y178192D01*
X550866Y177530D01*
X550711Y176750D01*
Y163250D01*
X550866Y162470D01*
X551308Y161808D01*
X551970Y161366D01*
X552750Y161211D01*
X566250D01*
X567030Y161366D01*
X567692Y161808D01*
X568134Y162470D01*
X568289Y163250D01*
Y165436D01*
X571750D01*
X573018Y165689D01*
X573062Y165718D01*
X573093D01*
X583500Y152000D01*
X614902D01*
Y58000D01*
X583500D01*
X572720Y43791D01*
X568681Y44188D01*
X564624Y45419D01*
X560885Y47418D01*
X557607Y50107D01*
X554918Y53385D01*
X552919Y57124D01*
X551688Y61181D01*
X551290Y65230D01*
X551323Y65400D01*
Y100150D01*
X551340D01*
X550980Y104724D01*
X549909Y109186D01*
X548153Y113425D01*
X545756Y117337D01*
X542776Y120826D01*
X539287Y123806D01*
X535375Y126203D01*
X531136Y127959D01*
X526674Y129030D01*
X522323Y129373D01*
Y132250D01*
X523648Y135684D01*
X523875D01*
X525192Y135946D01*
X526308Y136692D01*
X527054Y137808D01*
X527316Y139125D01*
Y141875D01*
X527054Y143192D01*
X526308Y144308D01*
X525192Y145054D01*
X523875Y145316D01*
X521125D01*
X519808Y145054D01*
X518692Y144308D01*
X517946Y143192D01*
X517684Y141875D01*
Y139125D01*
X517946Y137808D01*
X518270Y137324D01*
X516641Y133102D01*
X516091Y132993D01*
X515899Y132864D01*
X510823D01*
Y156192D01*
X511500Y156196D01*
Y157227D01*
X511554Y157308D01*
X511816Y158625D01*
Y161375D01*
X511554Y162692D01*
X511500Y162773D01*
Y166227D01*
X511554Y166308D01*
X511816Y167625D01*
Y170375D01*
X511554Y171692D01*
X511500Y171773D01*
Y175227D01*
X511554Y175308D01*
X511816Y176625D01*
Y179375D01*
X511554Y180692D01*
X511500Y180773D01*
Y184227D01*
X511554Y184308D01*
X511816Y185625D01*
Y188375D01*
X511554Y189692D01*
X511500Y189773D01*
Y192069D01*
X510823D01*
Y216226D01*
X511823Y216760D01*
X512592Y216247D01*
X513899Y215987D01*
X514684Y215202D01*
Y213625D01*
X514946Y212308D01*
X515692Y211192D01*
X515979Y211000D01*
Y210000D01*
X515692Y209808D01*
X514946Y208692D01*
X514684Y207375D01*
Y204625D01*
X514946Y203308D01*
X515692Y202192D01*
X516808Y201446D01*
X518125Y201184D01*
X520875D01*
X522192Y201446D01*
X523308Y202192D01*
X523315Y202202D01*
X524677Y202441D01*
X525342Y201997D01*
X527000Y201667D01*
X528658Y201997D01*
X530064Y202936D01*
X531003Y204342D01*
X531333Y206000D01*
X531003Y207658D01*
X530064Y209064D01*
X528658Y210004D01*
X527000Y210333D01*
X525342Y210004D01*
X524677Y209559D01*
X523315Y209798D01*
X523308Y209808D01*
X523021Y210000D01*
Y211000D01*
X523308Y211192D01*
X524054Y212308D01*
X524316Y213625D01*
Y216375D01*
X524054Y217692D01*
X523308Y218808D01*
X522192Y219554D01*
X520875Y219816D01*
X519298D01*
X518513Y220600D01*
X518253Y221908D01*
X517314Y223314D01*
X515908Y224254D01*
X515834Y224268D01*
Y231286D01*
X514823Y231289D01*
X514823Y237987D01*
X515531Y238694D01*
X523715Y238676D01*
Y239696D01*
X526943D01*
X527410Y239384D01*
X527990Y239269D01*
X527977Y234500D01*
X540092Y234500D01*
X540052Y237965D01*
X540756Y238677D01*
X545000D01*
Y238659D01*
X548676Y239021D01*
X552210Y240093D01*
X555467Y241835D01*
X558322Y244178D01*
X560666Y247033D01*
X562407Y250290D01*
X563479Y253824D01*
X563841Y257500D01*
X563823D01*
Y286250D01*
X563804Y286346D01*
X564131Y288827D01*
X565126Y291229D01*
X566708Y293291D01*
X568185Y294424D01*
X569176Y294291D01*
D02*
G37*
G36*
X225343Y260115D02*
X225726Y259191D01*
X217517Y250983D01*
X216910Y250073D01*
X216696Y249000D01*
Y213161D01*
X212424Y208889D01*
X212218Y208975D01*
X211554Y209433D01*
Y210750D01*
X211554Y210751D01*
Y214250D01*
X211554Y214250D01*
Y215750D01*
X211554Y215751D01*
Y219250D01*
X211554Y219250D01*
Y220750D01*
X211554Y220751D01*
Y224250D01*
X211554Y224250D01*
Y225750D01*
X211554Y225751D01*
X211554Y229250D01*
X211554Y229250D01*
Y230750D01*
X211554Y230750D01*
Y234250D01*
X211554Y234250D01*
Y235750D01*
X211554Y235750D01*
Y239250D01*
X211554Y239250D01*
Y240750D01*
X211554Y240750D01*
X211554Y244250D01*
X211554Y244250D01*
Y245750D01*
X211554Y245750D01*
Y249250D01*
X211554Y249250D01*
X211554Y251389D01*
X211554D01*
X211379Y252317D01*
X211370Y252366D01*
X211645Y252641D01*
X211691Y252710D01*
X211756Y252761D01*
X211911Y253038D01*
X212087Y253302D01*
X212104Y253384D01*
X212144Y253456D01*
X212440Y254374D01*
X212477Y254689D01*
X212539Y255000D01*
X212539Y255924D01*
X212539Y255925D01*
X212539Y255925D01*
Y259408D01*
X213246Y260115D01*
X225343Y260115D01*
D02*
G37*
G36*
X584500Y164000D02*
X583500D01*
X573750Y169250D01*
Y170750D01*
X583500Y176000D01*
X584500D01*
Y164000D01*
D02*
G37*
G36*
X67861Y192886D02*
Y181000D01*
X68214Y179225D01*
X69220Y177720D01*
X99976Y146963D01*
X99594Y146039D01*
X67522D01*
X62573Y150987D01*
Y151750D01*
X62282Y153213D01*
X61454Y154454D01*
X61384Y154500D01*
Y155500D01*
X61454Y155546D01*
X62282Y156787D01*
X62573Y158250D01*
Y161750D01*
X62282Y163213D01*
X61454Y164454D01*
X61086Y164699D01*
Y165902D01*
X61093Y165907D01*
X61489Y166500D01*
X49000D01*
Y173500D01*
X61489D01*
X61093Y174093D01*
X61086Y174098D01*
Y175301D01*
X61454Y175546D01*
X62282Y176787D01*
X62573Y178250D01*
Y181750D01*
X62282Y183213D01*
X61504Y184378D01*
X61384Y184686D01*
Y185314D01*
X61504Y185622D01*
X62282Y186787D01*
X62573Y188250D01*
Y189013D01*
X66861Y193300D01*
X67861Y192886D01*
D02*
G37*
G36*
X38000Y143500D02*
X55000D01*
Y136500D01*
X37500D01*
X35000Y134000D01*
X22000D01*
X21503Y134000D01*
X20584Y134381D01*
X19881Y135084D01*
X19500Y136003D01*
X19500Y136500D01*
Y136500D01*
Y143500D01*
Y143997D01*
X19881Y144916D01*
X20584Y145619D01*
X21503Y146000D01*
X22000D01*
X22000Y146000D01*
X35500D01*
X38000Y143500D01*
D02*
G37*
G36*
X255772Y275544D02*
X256155Y274620D01*
X245517Y263983D01*
X244910Y263073D01*
X244696Y262000D01*
Y125005D01*
X239745D01*
X237804Y126946D01*
Y183355D01*
X237590Y184428D01*
X236983Y185338D01*
X225338Y196983D01*
X224428Y197591D01*
X223355Y197804D01*
X211554D01*
Y199250D01*
X211554Y199250D01*
Y200750D01*
X211554Y200751D01*
Y202196D01*
X212500D01*
X213573Y202410D01*
X214483Y203018D01*
X221483Y210017D01*
X222090Y210927D01*
X222304Y212000D01*
Y247839D01*
X250009Y275544D01*
X255772Y275544D01*
D02*
G37*
G36*
X509500Y87250D02*
Y83750D01*
X504500D01*
Y87250D01*
X506500Y90250D01*
X507500D01*
X509500Y87250D01*
D02*
G37*
G36*
X190940Y268825D02*
Y264490D01*
X191095Y263710D01*
X191537Y263048D01*
X191537Y263048D01*
X193873Y260712D01*
X194535Y260270D01*
X195315Y260115D01*
X196461D01*
Y254702D01*
X196616Y253922D01*
X196844Y253370D01*
X197286Y252709D01*
X197582Y252088D01*
X197446Y251389D01*
X197446D01*
X197446Y240750D01*
X197446Y235750D01*
X197446Y235750D01*
Y234250D01*
X197446Y234250D01*
Y230750D01*
X197446Y230750D01*
Y229250D01*
X197446Y229250D01*
X197446Y225750D01*
X197446Y225750D01*
Y224250D01*
X197446Y224250D01*
Y220750D01*
X197446Y220750D01*
Y219250D01*
X197446Y219250D01*
X197446Y215751D01*
X197446Y215750D01*
Y214250D01*
X197446Y214250D01*
Y210751D01*
X197446Y210750D01*
Y209250D01*
X197446Y209250D01*
Y205751D01*
X197446Y205750D01*
Y204250D01*
X197446Y204250D01*
Y200751D01*
X197446Y200750D01*
Y199250D01*
X197446Y199250D01*
Y195751D01*
X197446Y195750D01*
Y194250D01*
X197446Y194250D01*
Y190751D01*
X197446Y190750D01*
Y189250D01*
X197446Y189249D01*
Y185751D01*
X197446Y185750D01*
Y184250D01*
X197446Y184249D01*
Y180751D01*
X197446Y180750D01*
Y179250D01*
X197446Y179249D01*
Y175751D01*
X197446Y175750D01*
Y174250D01*
X197446Y174249D01*
Y170751D01*
X197446Y170750D01*
Y169250D01*
X197446Y169249D01*
Y165751D01*
X197446Y165750D01*
Y164250D01*
X197446Y164249D01*
Y160751D01*
X197446Y160750D01*
Y159250D01*
X197446Y159249D01*
Y155751D01*
X197446Y155750D01*
Y154250D01*
X197446Y154249D01*
Y149954D01*
X211196Y150038D01*
X212191Y149312D01*
X212196Y149306D01*
Y135000D01*
X197500D01*
Y131021D01*
X197446Y130750D01*
Y129250D01*
X197500Y128979D01*
Y126021D01*
X197446Y125750D01*
Y124250D01*
X197500Y123979D01*
Y117605D01*
X197427Y117591D01*
X196518Y116983D01*
X194517Y114983D01*
X193910Y114073D01*
X193696Y113000D01*
Y96161D01*
X189017Y91483D01*
X188410Y90573D01*
X188196Y89500D01*
Y72424D01*
X187196Y72225D01*
X186551Y73783D01*
X185349Y75349D01*
X184106Y76303D01*
X184384Y76720D01*
X184539Y77500D01*
Y261056D01*
X185043Y261265D01*
X187132Y262868D01*
X188735Y264957D01*
X189743Y267390D01*
X189940Y268891D01*
X190940Y268825D01*
D02*
G37*
G36*
X210810Y85439D02*
Y67099D01*
X208976Y65265D01*
X201221D01*
X198288Y68198D01*
X198260Y85156D01*
X198345D01*
X199688Y86499D01*
X209750D01*
X210810Y85439D01*
D02*
G37*
G36*
X194696Y56839D02*
Y43587D01*
X185304D01*
Y49657D01*
X185090Y50730D01*
X184483Y51639D01*
X178853Y57269D01*
X179235Y58193D01*
X193342D01*
X194696Y56839D01*
D02*
G37*
G36*
X232517Y47517D02*
X233427Y46909D01*
X234500Y46696D01*
X240500D01*
Y43436D01*
X239913Y42516D01*
X237071Y42533D01*
X237071Y23672D01*
X236147Y23289D01*
X223093Y36343D01*
X222018Y37061D01*
X220750Y37314D01*
X211314D01*
Y64719D01*
X212252Y65657D01*
X212537Y66084D01*
X213408Y66320D01*
X213714Y66321D01*
X232517Y47517D01*
D02*
G37*
G36*
X584500Y34000D02*
X583500D01*
X573750Y39250D01*
Y40750D01*
X583500Y46000D01*
X584500D01*
Y34000D01*
D02*
G37*
%LPC*%
G36*
X39015Y272039D02*
X38818Y272000D01*
X38617D01*
X36685Y271616D01*
X36500Y271539D01*
X36303Y271500D01*
X34483Y270746D01*
X34316Y270634D01*
X34130Y270557D01*
X32493Y269463D01*
X32350Y269321D01*
X32184Y269209D01*
X30791Y267817D01*
X30679Y267649D01*
X30537Y267507D01*
X29443Y265870D01*
X29366Y265684D01*
X29254Y265517D01*
X28500Y263697D01*
X28461Y263500D01*
X28384Y263315D01*
X28000Y261383D01*
Y261182D01*
X27961Y260985D01*
X27961Y260000D01*
X27961Y259015D01*
X28000Y258818D01*
Y258617D01*
X28384Y256685D01*
X28461Y256500D01*
X28500Y256303D01*
X29254Y254483D01*
X29366Y254316D01*
X29443Y254130D01*
X30537Y252492D01*
X30679Y252350D01*
X30791Y252183D01*
X32183Y250791D01*
X32350Y250679D01*
X32492Y250537D01*
X34130Y249443D01*
X34316Y249366D01*
X34483Y249254D01*
X36303Y248500D01*
X36500Y248461D01*
X36685Y248384D01*
X38617Y248000D01*
X38818D01*
X39015Y247961D01*
X40000Y247961D01*
X40985Y247961D01*
X41182Y248000D01*
X41383D01*
X43315Y248384D01*
X43500Y248461D01*
X43697Y248500D01*
X45517Y249254D01*
X45684Y249366D01*
X45870Y249443D01*
X47508Y250537D01*
X47650Y250679D01*
X47817Y250791D01*
X49209Y252183D01*
X49321Y252350D01*
X49463Y252492D01*
X50557Y254130D01*
X50634Y254316D01*
X50746Y254483D01*
X51500Y256303D01*
X51539Y256500D01*
X51616Y256685D01*
X52000Y258617D01*
Y258818D01*
X52039Y259015D01*
X52039Y260000D01*
X52039Y260985D01*
X52000Y261182D01*
Y261383D01*
X51616Y263315D01*
X51539Y263500D01*
X51500Y263697D01*
X50746Y265517D01*
X50634Y265684D01*
X50557Y265870D01*
X49463Y267507D01*
X49321Y267649D01*
X49209Y267817D01*
X47817Y269209D01*
X47650Y269321D01*
X47508Y269463D01*
X45870Y270557D01*
X45684Y270634D01*
X45517Y270746D01*
X43697Y271500D01*
X43500Y271539D01*
X43315Y271616D01*
X41383Y272000D01*
X41182D01*
X40985Y272039D01*
X40000Y272039D01*
X39015Y272039D01*
D02*
G37*
G36*
X90750Y322784D02*
X86513Y322450D01*
X82381Y321458D01*
X78454Y319832D01*
X74831Y317611D01*
X71599Y314851D01*
X68839Y311619D01*
X66618Y307996D01*
X64992Y304069D01*
X64000Y299937D01*
X63667Y295700D01*
X64000Y291463D01*
X64992Y287331D01*
X66618Y283404D01*
X68839Y279781D01*
X71599Y276549D01*
X74831Y273789D01*
X78454Y271568D01*
X82381Y269942D01*
X86513Y268950D01*
X90750Y268617D01*
X94987Y268950D01*
X99119Y269942D01*
X103046Y271568D01*
X106669Y273789D01*
X109901Y276549D01*
X112661Y279781D01*
X114882Y283404D01*
X116508Y287331D01*
X117500Y291463D01*
X117833Y295700D01*
X117500Y299937D01*
X116508Y304069D01*
X114882Y307996D01*
X112661Y311619D01*
X109901Y314851D01*
X106669Y317611D01*
X103046Y319832D01*
X99119Y321458D01*
X94987Y322450D01*
X90750Y322784D01*
D02*
G37*
G36*
X92603Y237039D02*
X92602Y237039D01*
X92602Y237039D01*
X92266Y236972D01*
X91822Y236884D01*
X91822Y236884D01*
X91822Y236884D01*
X91087Y236580D01*
X91087Y236579D01*
X91086Y236579D01*
X90782Y236376D01*
X90425Y236138D01*
X90425Y236137D01*
X90425Y236137D01*
X89862Y235575D01*
X89862Y235574D01*
X89862Y235574D01*
X89654Y235262D01*
X89420Y234913D01*
X89420Y234913D01*
X89420Y234913D01*
X89328Y234692D01*
X89296Y234527D01*
X89227Y234375D01*
X89142Y234010D01*
Y234010D01*
X89014Y233463D01*
X89007Y233229D01*
X88961Y233000D01*
X88961Y230909D01*
X87961Y230375D01*
X87692Y230554D01*
X86375Y230816D01*
X83625D01*
X82308Y230554D01*
X81192Y229808D01*
X80446Y228692D01*
X80184Y227375D01*
Y224625D01*
X80446Y223308D01*
X81192Y222192D01*
X82308Y221446D01*
X82696Y221369D01*
Y219403D01*
X82636Y219344D01*
X82474Y219100D01*
X82397Y218915D01*
X82285Y218748D01*
X82173Y218477D01*
X82134Y218280D01*
X82057Y218094D01*
X82000Y217807D01*
Y217606D01*
X81961Y217409D01*
Y211738D01*
X81961Y211737D01*
X81961Y211591D01*
X81974Y211524D01*
X81973Y211513D01*
X81973Y211512D01*
X81982Y211485D01*
X82000Y211394D01*
Y211193D01*
X82057Y210906D01*
X82134Y210720D01*
X82173Y210523D01*
X82285Y210253D01*
X82397Y210086D01*
X82474Y209900D01*
X82636Y209656D01*
X82779Y209514D01*
X82890Y209347D01*
X82959Y209278D01*
Y206558D01*
X82949Y206551D01*
X82197Y205427D01*
X81933Y204100D01*
Y198900D01*
X82197Y197574D01*
X82949Y196449D01*
X82959Y196442D01*
Y192730D01*
X87791Y192759D01*
X88500Y192055D01*
X88500Y182192D01*
X103471Y182285D01*
X103987Y182182D01*
X111512D01*
X112303Y182339D01*
X114869Y182355D01*
X114869Y184734D01*
X115068Y185738D01*
Y188258D01*
X115772Y188961D01*
X121650D01*
X128554Y187914D01*
X130362Y187996D01*
X132001Y188765D01*
X132167Y188946D01*
X134750D01*
X135823Y189160D01*
X136733Y189767D01*
X137340Y190677D01*
X137554Y191750D01*
Y193250D01*
X137340Y194323D01*
X136888Y195000D01*
X137340Y195677D01*
X137554Y196750D01*
Y198250D01*
X137340Y199323D01*
X136733Y200233D01*
X135823Y200841D01*
X134750Y201054D01*
X132167D01*
X132001Y201236D01*
X130362Y202004D01*
X128554Y202087D01*
X121650Y201039D01*
X116021D01*
X115066Y201994D01*
Y204100D01*
X114868Y205096D01*
X114868Y210733D01*
X115068Y211738D01*
Y217263D01*
X114798Y218623D01*
X114027Y219777D01*
X113813Y219920D01*
X113244Y220624D01*
X113160Y220693D01*
X113100Y220783D01*
X113099Y220784D01*
X113099Y220785D01*
X111403Y222481D01*
X111236Y222592D01*
X111094Y222734D01*
X110909Y222811D01*
X110742Y222923D01*
X110545Y222962D01*
X110359Y223039D01*
X109930Y223124D01*
X109447Y223447D01*
X109124Y223930D01*
X109021Y224447D01*
Y224447D01*
X108864Y224825D01*
X108717Y225182D01*
X108717Y225182D01*
X108377Y225690D01*
X108169Y226193D01*
X108069Y226697D01*
Y227500D01*
X108039Y227648D01*
X108039Y233000D01*
X108039Y233398D01*
X108039Y233398D01*
X108039Y233398D01*
X107973Y233730D01*
X107884Y234178D01*
X107884Y234178D01*
X107884Y234178D01*
X107579Y234913D01*
X107579Y234913D01*
X107579Y234914D01*
X107325Y235294D01*
X107137Y235575D01*
X107137Y235575D01*
X107137Y235575D01*
X106574Y236138D01*
X106574Y236138D01*
X106574Y236138D01*
X106220Y236375D01*
X105913Y236579D01*
X105913Y236580D01*
X105913Y236580D01*
X105681Y236675D01*
X105515Y236708D01*
X105361Y236778D01*
X104461Y236986D01*
X104229Y236994D01*
X104001Y237039D01*
X104001D01*
X104000Y237039D01*
X93000Y237039D01*
X92603Y237039D01*
D02*
G37*
G36*
X134750Y186054D02*
X123750D01*
X122677Y185841D01*
X121767Y185233D01*
X121159Y184323D01*
X120946Y183250D01*
Y181750D01*
X121159Y180677D01*
X121612Y180000D01*
X121159Y179323D01*
X120946Y178250D01*
Y176750D01*
X121159Y175677D01*
X121767Y174767D01*
X122677Y174160D01*
X123750Y173946D01*
X134750D01*
X135823Y174160D01*
X136733Y174767D01*
X137340Y175677D01*
X137554Y176750D01*
Y178250D01*
X137340Y179323D01*
X136888Y180000D01*
X137340Y180677D01*
X137554Y181750D01*
Y183250D01*
X137340Y184323D01*
X136733Y185233D01*
X135823Y185841D01*
X134750Y186054D01*
D02*
G37*
G36*
Y171054D02*
X123750D01*
X122677Y170841D01*
X121767Y170233D01*
X121159Y169323D01*
X120946Y168250D01*
Y166750D01*
X121159Y165677D01*
X121612Y165000D01*
X121159Y164323D01*
X120946Y163250D01*
Y161750D01*
X121159Y160677D01*
X121767Y159768D01*
X122677Y159160D01*
X123750Y158946D01*
X134750D01*
X135823Y159160D01*
X136733Y159768D01*
X137340Y160677D01*
X137554Y161750D01*
Y163250D01*
X137340Y164323D01*
X136888Y165000D01*
X137340Y165677D01*
X137554Y166750D01*
Y168250D01*
X137340Y169323D01*
X136733Y170233D01*
X135823Y170841D01*
X134750Y171054D01*
D02*
G37*
G36*
X81750Y129569D02*
X73250D01*
X71884Y129297D01*
X70727Y128523D01*
X69953Y127366D01*
X69681Y126000D01*
Y123000D01*
X69953Y121634D01*
X70727Y120477D01*
X71884Y119703D01*
X73250Y119431D01*
X81750D01*
X83116Y119703D01*
X84273Y120477D01*
X85047Y121634D01*
X85319Y123000D01*
Y126000D01*
X85047Y127366D01*
X84273Y128523D01*
X83116Y129297D01*
X81750Y129569D01*
D02*
G37*
G36*
X144000Y93267D02*
X143684D01*
X141860Y92904D01*
X140314Y91870D01*
X139660Y91217D01*
X136843D01*
X129933Y92218D01*
X128076Y92120D01*
X126397Y91319D01*
X126159Y91054D01*
X123750D01*
X122677Y90841D01*
X121767Y90233D01*
X121159Y89323D01*
X120946Y88250D01*
Y86750D01*
X121159Y85677D01*
X121612Y85000D01*
X121159Y84323D01*
X120946Y83250D01*
Y81750D01*
X121159Y80677D01*
X121767Y79768D01*
X122677Y79160D01*
X123750Y78946D01*
X126159D01*
X126397Y78681D01*
X128076Y77881D01*
X129933Y77783D01*
X136843Y78784D01*
X138802D01*
X138803Y78783D01*
X139660D01*
X140314Y78130D01*
X141860Y77096D01*
X143684Y76733D01*
X144000D01*
X145824Y77096D01*
X147370Y78130D01*
X148404Y79676D01*
X148767Y81500D01*
X148404Y83324D01*
X148250Y83554D01*
X148250Y86445D01*
X148404Y86676D01*
X148767Y88500D01*
X148404Y90324D01*
X147370Y91870D01*
X145824Y92904D01*
X144000Y93267D01*
D02*
G37*
G36*
X81750Y110569D02*
X73250D01*
X71884Y110297D01*
X70727Y109523D01*
X69953Y108366D01*
X69681Y107000D01*
Y104000D01*
X69953Y102634D01*
X70727Y101477D01*
X71167Y101183D01*
Y93560D01*
X70703Y92866D01*
X70431Y91500D01*
Y88500D01*
X70650Y87402D01*
Y82008D01*
X70980Y80350D01*
X71919Y78944D01*
X73325Y78005D01*
X74983Y77675D01*
X76641Y78005D01*
X78047Y78944D01*
X78987Y80350D01*
X79316Y82008D01*
Y85838D01*
X79523Y85977D01*
X80297Y87134D01*
X80569Y88500D01*
Y91500D01*
X80297Y92866D01*
X79833Y93560D01*
Y100431D01*
X81750D01*
X83116Y100703D01*
X84273Y101477D01*
X85047Y102634D01*
X85319Y104000D01*
Y107000D01*
X85047Y108366D01*
X84273Y109523D01*
X83116Y110297D01*
X81750Y110569D01*
D02*
G37*
%LPD*%
G36*
X93012Y218750D02*
X93159Y218750D01*
X93446Y218693D01*
X93717Y218581D01*
X93961Y218418D01*
X94168Y218211D01*
X94331Y217967D01*
X94443Y217696D01*
X94500Y217409D01*
X94500Y217262D01*
X94500Y217263D01*
X94500Y215072D01*
X95269D01*
X95719Y214885D01*
X96063Y214541D01*
X96250Y214090D01*
Y213847D01*
X96250Y211572D01*
X96250Y211453D01*
X96204Y211220D01*
X96113Y211000D01*
X95980Y210802D01*
X95896Y210718D01*
X95896Y210718D01*
X93603Y208425D01*
X93519Y208341D01*
X93322Y208209D01*
X93102Y208118D01*
X92869Y208072D01*
X89231D01*
X88781Y208258D01*
X88436Y208603D01*
X88250Y209053D01*
Y209297D01*
Y210250D01*
X85487Y210250D01*
X85341Y210250D01*
X85054Y210307D01*
X84783Y210419D01*
X84539Y210582D01*
X84332Y210789D01*
X84169Y211033D01*
X84057Y211304D01*
X84000Y211591D01*
X84000Y211737D01*
X84000Y211738D01*
Y217263D01*
Y217409D01*
X84057Y217696D01*
X84169Y217967D01*
X84332Y218211D01*
X84539Y218418D01*
X84783Y218581D01*
X85054Y218693D01*
X85341Y218750D01*
X85487Y218750D01*
X85487Y218750D01*
X93012Y218750D01*
D02*
G37*
G36*
X93000Y235000D02*
X104000Y235000D01*
X104000Y235000D01*
X104000Y235000D01*
X104001D01*
X104901Y234791D01*
X105133Y234695D01*
X105695Y234133D01*
X106000Y233398D01*
X106000Y233000D01*
X106000Y227000D01*
X106023Y226527D01*
X106208Y225598D01*
X106570Y224724D01*
X107021Y224049D01*
X107203Y223134D01*
X107977Y221977D01*
X109134Y221203D01*
X109961Y221039D01*
X111657Y219343D01*
X111657Y219343D01*
X111657Y219343D01*
X111658Y219341D01*
X112265Y218591D01*
X112478Y218273D01*
X112824Y217438D01*
X112854Y217285D01*
X112067Y216285D01*
X101196Y216285D01*
X100500Y216893D01*
X100488Y217136D01*
X100481Y217274D01*
X100333Y218019D01*
X100042Y218722D01*
X99620Y219354D01*
X99364Y219636D01*
X96975Y222025D01*
X96975Y222025D01*
X96857Y222132D01*
X96593Y222309D01*
X96299Y222430D01*
X95987Y222492D01*
X95828Y222500D01*
X93000Y222500D01*
Y222500D01*
X92602D01*
X91867Y222805D01*
X91305Y223367D01*
X91000Y224102D01*
X91000Y232000D01*
X91000Y233000D01*
X91128Y233547D01*
X91213Y233912D01*
X91304Y234133D01*
X91867Y234696D01*
X92602Y235000D01*
X93000Y235000D01*
D02*
G37*
%LPC*%
G36*
X524015Y332039D02*
X523818Y332000D01*
X523617D01*
X521685Y331616D01*
X521500Y331539D01*
X521303Y331499D01*
X519483Y330746D01*
X519316Y330634D01*
X519131Y330557D01*
X517493Y329463D01*
X517351Y329321D01*
X517183Y329209D01*
X515791Y327817D01*
X515679Y327649D01*
X515537Y327508D01*
X514443Y325870D01*
X514366Y325684D01*
X514254Y325517D01*
X513500Y323697D01*
X513461Y323500D01*
X513384Y323315D01*
X513000Y321383D01*
Y321182D01*
X512961Y320985D01*
X512961Y320000D01*
X512961Y319015D01*
X513000Y318818D01*
Y318617D01*
X513384Y316685D01*
X513461Y316500D01*
X513500Y316303D01*
X514254Y314483D01*
X514366Y314316D01*
X514443Y314130D01*
X515537Y312492D01*
X515679Y312350D01*
X515790Y312183D01*
X517183Y310791D01*
X517351Y310679D01*
X517492Y310537D01*
X519130Y309443D01*
X519316Y309366D01*
X519483Y309254D01*
X521303Y308500D01*
X521500Y308461D01*
X521685Y308384D01*
X523617Y308000D01*
X523818D01*
X524015Y307961D01*
X525000Y307961D01*
X525985Y307961D01*
X526182Y308000D01*
X526383D01*
X528315Y308384D01*
X528500Y308461D01*
X528697Y308500D01*
X530517Y309254D01*
X530684Y309366D01*
X530870Y309443D01*
X532508Y310537D01*
X532650Y310679D01*
X532817Y310791D01*
X534209Y312183D01*
X534321Y312351D01*
X534463Y312492D01*
X535557Y314130D01*
X535634Y314316D01*
X535746Y314483D01*
X536500Y316303D01*
X536539Y316500D01*
X536616Y316685D01*
X537000Y318617D01*
Y318818D01*
X537039Y319015D01*
X537039Y320000D01*
X537039Y320985D01*
X537000Y321182D01*
Y321383D01*
X536616Y323315D01*
X536539Y323500D01*
X536500Y323697D01*
X535746Y325517D01*
X535634Y325684D01*
X535557Y325870D01*
X534463Y327508D01*
X534321Y327649D01*
X534209Y327817D01*
X532817Y329209D01*
X532650Y329321D01*
X532508Y329463D01*
X530870Y330557D01*
X530684Y330634D01*
X530517Y330746D01*
X528697Y331499D01*
X528500Y331539D01*
X528315Y331616D01*
X526383Y332000D01*
X526182D01*
X525985Y332039D01*
X525000Y332039D01*
X524015Y332039D01*
D02*
G37*
G36*
X426000Y319088D02*
X421000D01*
X419244Y318739D01*
X417756Y317744D01*
X416761Y316256D01*
X416412Y314500D01*
Y287500D01*
X416761Y285744D01*
X417756Y284256D01*
X418605Y283688D01*
Y278533D01*
X418935Y276875D01*
X419874Y275469D01*
X421280Y274530D01*
X422938Y274200D01*
X424596Y274530D01*
X426002Y275469D01*
X426941Y276875D01*
X427271Y278533D01*
Y283165D01*
X427756Y283261D01*
X429244Y284256D01*
X430239Y285744D01*
X430588Y287500D01*
Y314500D01*
X430239Y316256D01*
X429244Y317744D01*
X427756Y318739D01*
X426000Y319088D01*
D02*
G37*
G36*
X469250Y322784D02*
X465013Y322450D01*
X460881Y321458D01*
X456954Y319832D01*
X453331Y317611D01*
X450099Y314851D01*
X447339Y311619D01*
X445118Y307996D01*
X443492Y304069D01*
X442500Y299937D01*
X442166Y295700D01*
X442500Y291463D01*
X443492Y287331D01*
X445118Y283404D01*
X447339Y279781D01*
X450099Y276549D01*
X453331Y273789D01*
X456954Y271568D01*
X460881Y269942D01*
X465013Y268950D01*
X469250Y268617D01*
X473487Y268950D01*
X477619Y269942D01*
X481546Y271568D01*
X485169Y273789D01*
X488401Y276549D01*
X491161Y279781D01*
X493382Y283404D01*
X495008Y287331D01*
X496000Y291463D01*
X496334Y295700D01*
X496000Y299937D01*
X495008Y304069D01*
X493382Y307996D01*
X491161Y311619D01*
X488401Y314851D01*
X485169Y317611D01*
X481546Y319832D01*
X477619Y321458D01*
X473487Y322450D01*
X469250Y322784D01*
D02*
G37*
G36*
X505000Y56833D02*
X503342Y56503D01*
X501936Y55564D01*
X500997Y54158D01*
X500667Y52500D01*
X500997Y50842D01*
X501936Y49436D01*
X503342Y48497D01*
X505000Y48167D01*
X506658Y48497D01*
X508064Y49436D01*
X509003Y50842D01*
X509333Y52500D01*
X509003Y54158D01*
X508064Y55564D01*
X506658Y56503D01*
X505000Y56833D01*
D02*
G37*
G36*
Y41833D02*
X503342Y41503D01*
X501936Y40564D01*
X500997Y39158D01*
X500667Y37500D01*
X500997Y35842D01*
X501936Y34436D01*
X503342Y33497D01*
X505000Y33167D01*
X506658Y33497D01*
X508064Y34436D01*
X509003Y35842D01*
X509333Y37500D01*
X509003Y39158D01*
X508064Y40564D01*
X506658Y41503D01*
X505000Y41833D01*
D02*
G37*
G36*
X524015Y32039D02*
X523818Y32000D01*
X523617D01*
X521685Y31616D01*
X521500Y31539D01*
X521303Y31500D01*
X519483Y30746D01*
X519316Y30634D01*
X519131Y30557D01*
X517493Y29463D01*
X517351Y29321D01*
X517183Y29209D01*
X515791Y27817D01*
X515679Y27650D01*
X515537Y27508D01*
X514443Y25870D01*
X514366Y25684D01*
X514254Y25517D01*
X513500Y23697D01*
X513461Y23500D01*
X513384Y23315D01*
X513000Y21383D01*
Y21182D01*
X512961Y20985D01*
X512961Y20000D01*
X512961Y19015D01*
X513000Y18818D01*
Y18617D01*
X513384Y16685D01*
X513461Y16500D01*
X513500Y16303D01*
X514254Y14483D01*
X514366Y14316D01*
X514443Y14130D01*
X515537Y12492D01*
X515679Y12350D01*
X515790Y12183D01*
X517183Y10790D01*
X517351Y10679D01*
X517492Y10537D01*
X519130Y9443D01*
X519316Y9366D01*
X519483Y9254D01*
X521303Y8500D01*
X521500Y8461D01*
X521685Y8384D01*
X523617Y8000D01*
X523818D01*
X524015Y7961D01*
X525000Y7961D01*
X525985Y7961D01*
X526182Y8000D01*
X526383D01*
X528315Y8384D01*
X528500Y8461D01*
X528697Y8500D01*
X530517Y9254D01*
X530684Y9366D01*
X530870Y9443D01*
X532508Y10537D01*
X532650Y10679D01*
X532817Y10790D01*
X534209Y12183D01*
X534321Y12350D01*
X534463Y12492D01*
X535557Y14130D01*
X535634Y14316D01*
X535746Y14483D01*
X536500Y16303D01*
X536539Y16500D01*
X536616Y16685D01*
X537000Y18617D01*
Y18818D01*
X537039Y19015D01*
X537039Y20000D01*
X537039Y20985D01*
X537000Y21182D01*
Y21383D01*
X536616Y23315D01*
X536539Y23500D01*
X536500Y23697D01*
X535746Y25517D01*
X535634Y25684D01*
X535557Y25870D01*
X534463Y27508D01*
X534321Y27650D01*
X534209Y27817D01*
X532817Y29209D01*
X532650Y29321D01*
X532508Y29463D01*
X530870Y30557D01*
X530684Y30634D01*
X530517Y30746D01*
X528697Y31500D01*
X528500Y31539D01*
X528315Y31616D01*
X526383Y32000D01*
X526182D01*
X525985Y32039D01*
X525000Y32039D01*
X524015Y32039D01*
D02*
G37*
G36*
X469250Y71384D02*
X465013Y71050D01*
X460881Y70058D01*
X456954Y68432D01*
X453331Y66211D01*
X450099Y63451D01*
X447339Y60219D01*
X445118Y56596D01*
X443492Y52669D01*
X442500Y48537D01*
X442166Y44300D01*
X442500Y40063D01*
X443492Y35931D01*
X445118Y32004D01*
X447339Y28381D01*
X450099Y25149D01*
X453331Y22389D01*
X456954Y20168D01*
X460881Y18542D01*
X465013Y17550D01*
X469250Y17217D01*
X473487Y17550D01*
X477619Y18542D01*
X481546Y20168D01*
X485169Y22389D01*
X488401Y25149D01*
X491161Y28381D01*
X493382Y32004D01*
X495008Y35931D01*
X496000Y40063D01*
X496334Y44300D01*
X496000Y48537D01*
X495008Y52669D01*
X493382Y56596D01*
X491161Y60219D01*
X488401Y63451D01*
X485169Y66211D01*
X481546Y68432D01*
X477619Y70058D01*
X473487Y71050D01*
X469250Y71384D01*
D02*
G37*
%LPD*%
D11*
X285684Y305000D02*
Y317137D01*
X285000Y305000D02*
X285684D01*
X157500Y38000D02*
X157740Y37760D01*
Y33437D02*
Y37760D01*
Y33437D02*
X159500Y31676D01*
X157500Y38000D02*
Y45000D01*
X155000Y47500D02*
X157500Y45000D01*
X279811Y290000D02*
X285000Y295189D01*
Y305000D01*
X274500Y290000D02*
X279811D01*
X398100Y260000D02*
X400000D01*
X472500Y257000D02*
X472703D01*
X483203Y267500D01*
X483500D01*
X543500Y265500D02*
X543703D01*
X125481Y324981D02*
X125500Y325000D01*
X119717Y324981D02*
X125481D01*
X250000Y329500D02*
X258000Y330000D01*
X159500Y31000D02*
Y31676D01*
X543500Y266500D02*
Y275500D01*
X540682Y252954D02*
X543500Y266500D01*
X522500Y149500D02*
X527522Y154522D01*
X529522D01*
X530000Y155000D01*
X516000Y160000D02*
X516000Y160000D01*
Y166000D01*
X516000Y166000D01*
X512750Y125550D02*
X512875Y125425D01*
Y120125D02*
Y125425D01*
Y120125D02*
X513000Y120000D01*
X512750Y130000D02*
X512875Y130125D01*
Y135332D01*
X513000Y135457D01*
X500485Y114012D02*
X502000Y107250D01*
X512000D02*
X513485Y114012D01*
X512000Y98750D02*
X513500Y92500D01*
X500500D02*
X502000Y98750D01*
X538250Y237500D02*
X542170Y232783D01*
X525673Y232606D02*
X529750Y237500D01*
X538250Y247500D02*
X540682Y252954D01*
X529750Y247500D02*
X531534Y253064D01*
X543703Y275500D02*
X547186Y278983D01*
X549435D01*
X549913Y279461D01*
X119698Y324962D02*
X119717Y324981D01*
X102412Y114912D02*
X102500Y115000D01*
X90137Y114823D02*
X90225Y114912D01*
X95500Y90000D02*
X95507Y89993D01*
Y82624D02*
X95514Y82617D01*
X84410Y89910D02*
X84500Y90000D01*
X84320Y82383D02*
X84410Y82473D01*
X136500Y202500D02*
X138500Y200500D01*
X129250Y202500D02*
X136500D01*
X515000Y242500D02*
X517000Y237500D01*
X505500Y232500D02*
X507000Y227500D01*
D12*
X547500Y65400D02*
G03*
X572900Y40000I25400J0D01*
G01*
X547500Y100150D02*
G03*
X522100Y125550I-25400J0D01*
G01*
X573750Y300000D02*
G03*
X560000Y286250I0J-13750D01*
G01*
X545000Y242500D02*
G03*
X560000Y257500I0J15000D01*
G01*
X254227Y293387D02*
G03*
X254848Y294586I-2852J2238D01*
G01*
X572900Y40000D02*
X573750D01*
X547500Y65400D02*
Y100150D01*
X518450Y125550D02*
X522100D01*
X569750Y170000D02*
X599500D01*
X573750Y300000D02*
X599500D01*
X573750Y300000D02*
Y300000D01*
X560000Y257500D02*
Y286250D01*
X538250Y242500D02*
X545000D01*
X250000Y312500D02*
Y320500D01*
Y297000D02*
Y312500D01*
X250000Y288000D02*
X254227Y293387D01*
X254848Y294586D02*
X265500Y330000D01*
X250000Y297000D02*
X250000Y297000D01*
X265500Y290000D02*
X274500Y310000D01*
X260500Y290000D02*
X265500D01*
X219500Y249000D02*
X260500Y290000D01*
X167500Y331250D02*
X167538Y331288D01*
X175168D01*
X267670Y45000D02*
X282129Y30540D01*
X245000Y49500D02*
X257831D01*
X262331Y45000D01*
X282129Y30540D02*
X291220D01*
X292500Y31820D01*
X262331Y45000D02*
X267670D01*
X292500Y31820D02*
Y38000D01*
X258926Y55500D02*
X265048Y49378D01*
X287500Y38000D02*
Y39250D01*
X286750Y40000D02*
X287500Y39250D01*
X283174Y40000D02*
X286750D01*
X265000Y49500D02*
X273674D01*
X283174Y40000D01*
X234500Y55500D02*
X258926D01*
X245000Y27100D02*
Y40500D01*
X252500Y261000D02*
X269555Y278055D01*
X318055D02*
X321900Y281900D01*
X269555Y278055D02*
X318055D01*
X247500Y262000D02*
X267791Y282291D01*
X280791D02*
X288500Y290000D01*
X267791Y282291D02*
X280791D01*
X518450Y130000D02*
X522500Y140500D01*
X529750Y242500D02*
X530000D01*
X519000D02*
X529750D01*
X507000Y107250D02*
Y125500D01*
X219500Y212000D02*
Y249000D01*
X347300Y280461D02*
Y301000D01*
X340730Y273891D02*
X347300Y280461D01*
X271391Y273891D02*
X340730D01*
X273500Y270000D02*
X360000D01*
X372700Y282700D02*
Y301000D01*
X360000Y270000D02*
X372700Y282700D01*
X296500Y294117D02*
Y301000D01*
X292383Y290000D02*
X296500Y294117D01*
X288500Y290000D02*
X292383D01*
X321900Y281900D02*
Y301000D01*
X257500Y260000D02*
X271391Y273891D01*
X262500Y259000D02*
X273500Y270000D01*
X507000Y84250D02*
Y98400D01*
X511000Y227500D02*
X511000Y227500D01*
X511000Y227500D02*
X511000Y242500D01*
X198500Y115000D02*
X204500D01*
X196500Y113000D02*
X198500Y115000D01*
X196500Y95000D02*
Y113000D01*
X191000Y64500D02*
Y89500D01*
X196500Y95000D01*
X247500Y97500D02*
Y262000D01*
X257500Y97500D02*
Y260000D01*
X527000Y206000D02*
X527000Y206000D01*
X519500Y206000D02*
X527000D01*
X262500Y85000D02*
Y259000D01*
X252500Y85000D02*
Y261000D01*
X177500Y38000D02*
Y49000D01*
X162500Y45000D02*
Y52686D01*
Y38000D02*
Y45000D01*
X180500Y31000D02*
X182500Y33000D01*
Y38000D01*
X204500Y205000D02*
X212500D01*
X219500Y212000D01*
X507000Y187000D02*
X507000Y187000D01*
X507000Y187000D02*
Y223500D01*
X332500Y31000D02*
X332500Y31000D01*
Y38000D01*
X292784Y65500D02*
X311000D01*
X332500Y44000D01*
Y38000D02*
Y44000D01*
X291127Y61500D02*
X309000D01*
X327500Y43000D01*
X306500Y57500D02*
X317500Y46500D01*
X289471Y57500D02*
X306500D01*
X317500Y38000D02*
Y46500D01*
X327500Y38000D02*
Y43000D01*
X287814Y53500D02*
X304500D01*
X312500Y45500D01*
Y38000D02*
Y45500D01*
X286157Y49500D02*
X296500D01*
X302500Y43500D01*
Y38000D02*
Y43500D01*
X284500Y45500D02*
X295000D01*
X297500Y43000D01*
Y38000D02*
Y43000D01*
X265000Y27100D02*
Y40500D01*
X244784Y79500D02*
X278784D01*
X241471Y71500D02*
X275471D01*
X236500Y59500D02*
X270500D01*
X275471Y71500D02*
X289471Y57500D01*
X243127Y75500D02*
X277127D01*
X272157Y63500D02*
X286157Y49500D01*
X278784Y79500D02*
X292784Y65500D01*
X270500Y59500D02*
X284500Y45500D01*
X239814Y67500D02*
X273814D01*
X277127Y75500D02*
X291127Y61500D01*
X273814Y67500D02*
X287814Y53500D01*
X238157Y63500D02*
X272157D01*
X234500Y78471D02*
X241471Y71500D01*
X230500Y76814D02*
X239814Y67500D01*
X242500Y81784D02*
Y118284D01*
X222500Y73500D02*
Y110000D01*
X230500Y76814D02*
Y113314D01*
X234500Y78471D02*
Y114971D01*
X238500Y80127D02*
X243127Y75500D01*
X226500Y75157D02*
Y111657D01*
Y75157D02*
X238157Y63500D01*
X238500Y80127D02*
Y116627D01*
X242500Y81784D02*
X244784Y79500D01*
X222500Y73500D02*
X236500Y59500D01*
X235000Y125784D02*
X242500Y118284D01*
X231000Y124127D02*
X238500Y116627D01*
X214500Y69500D02*
X234500Y49500D01*
X245000D01*
X214500Y69500D02*
Y87000D01*
X218500Y71500D02*
Y107500D01*
Y71500D02*
X234500Y55500D01*
X215000Y117500D02*
Y168000D01*
X223000Y120814D02*
Y174142D01*
X219000Y119157D02*
Y171071D01*
X215000Y117500D02*
X222500Y110000D01*
X235000Y125784D02*
Y183355D01*
X231000Y124127D02*
Y180284D01*
X204500Y115000D02*
X211000D01*
X223000Y120814D02*
X230500Y113314D01*
X227000Y122471D02*
Y177213D01*
X219000Y119157D02*
X226500Y111657D01*
X227000Y122471D02*
X234500Y114971D01*
X211000Y115000D02*
X218500Y107500D01*
X191000Y64500D02*
X197500Y58000D01*
Y38000D02*
Y58000D01*
X195000Y67000D02*
Y87500D01*
X202000Y33000D02*
Y60000D01*
X195000Y67000D02*
X202000Y60000D01*
X200000Y31000D02*
X202000Y33000D01*
X192500Y32500D02*
X194000Y31000D01*
X200000D01*
X192500Y32500D02*
Y38000D01*
X195000Y87500D02*
X197500Y90000D01*
X204500D01*
X223355Y195000D02*
X235000Y183355D01*
X221284Y190000D02*
X231000Y180284D01*
X219213Y185000D02*
X227000Y177213D01*
X217142Y180000D02*
X223000Y174142D01*
X215071Y175000D02*
X219000Y171071D01*
X213000Y170000D02*
X215000Y168000D01*
X204500Y195000D02*
X223355D01*
X204500Y190000D02*
X221284D01*
X204500Y185000D02*
X219213D01*
X204500Y180000D02*
X217142D01*
X204500Y175000D02*
X215071D01*
X204500Y170000D02*
X213000D01*
X204500Y90000D02*
X211500D01*
X214500Y87000D01*
X167500Y64657D02*
X182500Y49657D01*
Y38000D02*
Y49657D01*
X163500Y63000D02*
X177500Y49000D01*
X155500Y59686D02*
X162500Y52686D01*
X140358Y117500D02*
X155500Y102358D01*
Y59686D02*
Y102358D01*
X163500Y63000D02*
Y108500D01*
X144500Y127500D02*
X163500Y108500D01*
X167500Y64657D02*
Y111571D01*
X146571Y132500D02*
X167500Y111571D01*
X129250Y132500D02*
X146571D01*
X129250Y127500D02*
X144500D01*
X129250Y117500D02*
X140358D01*
X85000Y226000D02*
X85500Y225500D01*
Y218250D02*
Y225500D01*
Y218250D02*
X89250Y214500D01*
X94000Y250500D02*
X103000D01*
X84250D02*
X94000D01*
X507000Y130000D02*
Y160000D01*
X507000Y160000D01*
Y169000D01*
Y178000D02*
Y187000D01*
X515000Y246500D02*
X515000Y246500D01*
X515000Y246500D02*
Y263250D01*
X494500Y227500D02*
X494500Y227500D01*
X503000D01*
X518900Y242400D02*
X519000Y242500D01*
X30334Y76002D02*
X33666D01*
X32000D01*
Y85998D01*
X30334Y84332D01*
D27*
X187500Y38000D02*
D03*
X182500D02*
D03*
X177500D02*
D03*
X172500D02*
D03*
X167500D02*
D03*
X162500D02*
D03*
X157500D02*
D03*
X152500D02*
D03*
X192500D02*
D03*
X197500D02*
D03*
X322500D02*
D03*
X317500D02*
D03*
X312500D02*
D03*
X307500D02*
D03*
X302500D02*
D03*
X297500D02*
D03*
X292500D02*
D03*
X287500D02*
D03*
X327500D02*
D03*
X332500D02*
D03*
D29*
X512000Y98750D02*
D03*
X507000D02*
D03*
X502000D02*
D03*
Y107250D02*
D03*
X507000D02*
D03*
X512000D02*
D03*
D30*
X538250Y247500D02*
D03*
Y242500D02*
D03*
Y237500D02*
D03*
X529750D02*
D03*
Y242500D02*
D03*
Y247500D02*
D03*
D38*
X511000Y242500D02*
D03*
X515000Y242500D02*
D03*
X519000Y242500D02*
D03*
Y246500D02*
D03*
X515000Y246500D02*
D03*
X511000Y246500D02*
D03*
X507000Y223500D02*
D03*
X511000Y223500D02*
D03*
X503000Y223500D02*
D03*
X503000Y227500D02*
D03*
X511000D02*
D03*
X507000Y227500D02*
D03*
D85*
X160977Y278343D02*
G03*
X162500Y277750I1523J1657D01*
G01*
X157500Y283515D02*
G03*
X158955Y280202I4500J0D01*
G01*
X168836Y277750D02*
G03*
X170267Y278263I0J2250D01*
G01*
X187500Y38000D02*
Y44000D01*
X270021Y320046D02*
X274500Y330000D01*
X265500Y310000D02*
X270021Y320046D01*
X145700Y324550D02*
X145750Y324500D01*
X134950Y324550D02*
X145700D01*
X134500Y325000D02*
X134950Y324550D01*
X158955Y280202D02*
X160977Y278343D01*
X157500Y283515D02*
Y302750D01*
X162500Y277750D02*
X168836Y277750D01*
X170267Y278263D02*
X184600Y290000D01*
X221500Y288000D02*
X250000D01*
X217500Y292000D02*
X221500Y288000D01*
X174250Y324500D02*
X182577D01*
X186408Y328330D01*
X152500Y24504D02*
X198504D01*
X208000Y34000D01*
X104500Y72504D02*
X152500Y24504D01*
Y38000D01*
X208000Y34000D02*
Y69000D01*
X245000Y12900D02*
X265000D01*
X215000Y271000D02*
X221000D01*
X110512Y124338D02*
X113387Y121463D01*
X110506Y105668D02*
X113387Y108549D01*
Y121463D01*
X102500Y124500D02*
X102662Y124338D01*
X110512D01*
X208000Y271000D02*
X215000D01*
X220750Y34000D02*
X241850Y12900D01*
X208000Y34000D02*
X220750D01*
X224743Y291457D02*
X233745D01*
X102769Y105500D02*
X102937Y105668D01*
X110506D01*
X104500Y90000D02*
Y103769D01*
Y72504D02*
Y90000D01*
X102769Y105500D02*
X104500Y103769D01*
X476500Y206000D02*
X476500Y206000D01*
X494500Y215000D02*
X494500D01*
X476500D02*
X494500D01*
X187500Y31000D02*
Y38000D01*
X494500Y215000D02*
Y215000D01*
X503000Y223500D01*
D86*
X560000Y160000D02*
D03*
Y180000D02*
D03*
X74500Y260500D02*
D03*
X74500Y240500D02*
D03*
D87*
X569750Y170000D02*
D03*
X84250Y250500D02*
D03*
D88*
X549750Y170000D02*
D03*
X64250Y250500D02*
D03*
D89*
X599500Y300000D02*
D03*
Y170000D02*
D03*
Y40000D02*
D03*
D90*
X597500Y325500D02*
D03*
Y274500D02*
D03*
Y195500D02*
D03*
Y144500D02*
D03*
Y65500D02*
D03*
Y14500D02*
D03*
D91*
X250000Y329500D02*
D03*
Y320500D02*
D03*
X250000Y288000D02*
D03*
Y297000D02*
D03*
X472500Y257000D02*
D03*
Y248000D02*
D03*
X522500Y140500D02*
D03*
Y149500D02*
D03*
X519500Y215000D02*
D03*
Y206000D02*
D03*
X485500Y215000D02*
D03*
Y206000D02*
D03*
X476500D02*
D03*
Y215000D02*
D03*
X507000Y169000D02*
D03*
Y178000D02*
D03*
X265000Y40500D02*
D03*
Y49500D02*
D03*
X245000Y40500D02*
D03*
Y49500D02*
D03*
X94000Y250500D02*
D03*
X94000Y259500D02*
D03*
D92*
X217500Y291500D02*
D03*
Y327500D02*
D03*
D93*
X174250Y309500D02*
D03*
Y314500D02*
D03*
Y319500D02*
D03*
Y324500D02*
D03*
X145750D02*
D03*
Y319500D02*
D03*
Y314500D02*
D03*
Y309500D02*
D03*
D94*
X167500Y331250D02*
D03*
X162500D02*
D03*
X157500D02*
D03*
X152500D02*
D03*
Y302750D02*
D03*
X157500D02*
D03*
X162500D02*
D03*
X167500D02*
D03*
D95*
X160000Y317000D02*
D03*
X89250Y214500D02*
D03*
X92250Y211572D02*
D03*
D96*
X274500Y290000D02*
D03*
X265500D02*
D03*
X134500Y325000D02*
D03*
X125500D02*
D03*
X534500Y266500D02*
D03*
X543500D02*
D03*
X95500Y90000D02*
D03*
X104500D02*
D03*
X84500D02*
D03*
X75500D02*
D03*
X112000Y226000D02*
D03*
X103000D02*
D03*
X103000Y250500D02*
D03*
X112000D02*
D03*
X103000Y259500D02*
D03*
X112000Y259500D02*
D03*
D97*
X265500Y310000D02*
D03*
X274500D02*
D03*
Y330000D02*
D03*
X265500D02*
D03*
X534500Y275500D02*
D03*
X543500D02*
D03*
X543500Y284500D02*
D03*
X534500D02*
D03*
X485500Y227500D02*
D03*
X494500D02*
D03*
X516000Y187000D02*
D03*
X507000D02*
D03*
X516000Y160000D02*
D03*
X507000D02*
D03*
X94000Y226000D02*
D03*
X85000D02*
D03*
D98*
X144600Y11500D02*
D03*
X205400D02*
D03*
X279600D02*
D03*
X340400D02*
D03*
D99*
X265000Y12900D02*
D03*
Y27100D02*
D03*
X245000Y12900D02*
D03*
Y27100D02*
D03*
X131999Y309054D02*
D03*
Y294854D02*
D03*
D100*
X507050Y125550D02*
D03*
X512750D02*
D03*
X518450D02*
D03*
Y130000D02*
D03*
X512750D02*
D03*
X507050D02*
D03*
D101*
X77500Y124500D02*
D03*
Y105500D02*
D03*
X102500D02*
D03*
Y124500D02*
D03*
Y115000D02*
D03*
D102*
X107750Y188500D02*
D03*
Y214500D02*
D03*
X89250Y188500D02*
D03*
D103*
Y201500D02*
D03*
X107750D02*
D03*
D104*
X129250Y107500D02*
D03*
Y132500D02*
D03*
Y127500D02*
D03*
Y112500D02*
D03*
Y122500D02*
D03*
Y117500D02*
D03*
Y77500D02*
D03*
Y92500D02*
D03*
Y102500D02*
D03*
Y97500D02*
D03*
Y87500D02*
D03*
Y82500D02*
D03*
Y217500D02*
D03*
Y227500D02*
D03*
Y222500D02*
D03*
Y202500D02*
D03*
Y212500D02*
D03*
Y207500D02*
D03*
Y252500D02*
D03*
Y262500D02*
D03*
Y257500D02*
D03*
Y237500D02*
D03*
Y232500D02*
D03*
Y247500D02*
D03*
Y242500D02*
D03*
Y172500D02*
D03*
Y182500D02*
D03*
Y177500D02*
D03*
Y157500D02*
D03*
Y167500D02*
D03*
Y162500D02*
D03*
Y197500D02*
D03*
Y192500D02*
D03*
Y187500D02*
D03*
D105*
X135000Y66500D02*
D03*
Y273500D02*
D03*
D106*
X204500Y155000D02*
D03*
Y90000D02*
D03*
Y100000D02*
D03*
Y95000D02*
D03*
Y85000D02*
D03*
Y80000D02*
D03*
Y120000D02*
D03*
Y130000D02*
D03*
Y125000D02*
D03*
Y105000D02*
D03*
Y115000D02*
D03*
Y110000D02*
D03*
Y240000D02*
D03*
Y250000D02*
D03*
Y245000D02*
D03*
Y225000D02*
D03*
Y235000D02*
D03*
Y230000D02*
D03*
Y260000D02*
D03*
Y255000D02*
D03*
Y180000D02*
D03*
Y190000D02*
D03*
Y185000D02*
D03*
Y165000D02*
D03*
Y160000D02*
D03*
Y175000D02*
D03*
Y170000D02*
D03*
Y210000D02*
D03*
Y220000D02*
D03*
Y215000D02*
D03*
Y200000D02*
D03*
Y195000D02*
D03*
Y205000D02*
D03*
D107*
X494500Y215000D02*
D03*
Y206000D02*
D03*
D108*
X515000Y283250D02*
D03*
X507000Y64250D02*
D03*
D109*
X525000Y273000D02*
D03*
X505000D02*
D03*
X517000Y74500D02*
D03*
X497000D02*
D03*
D110*
X515000Y263250D02*
D03*
X507000Y84250D02*
D03*
D111*
X184600Y290000D02*
D03*
X170400D02*
D03*
D112*
X423500Y301000D02*
D03*
X372700D02*
D03*
X398100D02*
D03*
X347300D02*
D03*
X321900D02*
D03*
X296500D02*
D03*
D113*
X104750Y191572D02*
D03*
Y211572D02*
D03*
X92250Y191572D02*
D03*
Y201572D02*
D03*
X104750D02*
D03*
D114*
X49000Y170000D02*
D03*
Y160000D02*
D03*
Y150000D02*
D03*
Y140000D02*
D03*
Y130000D02*
D03*
Y210000D02*
D03*
Y200000D02*
D03*
Y190000D02*
D03*
Y180000D02*
D03*
D115*
X525000Y20000D02*
D03*
Y320000D02*
D03*
X40000Y260000D02*
D03*
D116*
X398100D02*
Y301000D01*
X119500Y247500D02*
X139000D01*
X129250Y232500D02*
X139000D01*
X119500D02*
X129250D01*
Y187500D02*
X139000D01*
X119500D02*
X129250D01*
Y172500D02*
X139000D01*
X119500D02*
X129250D01*
Y157500D02*
X139000D01*
X119500D02*
X129250D01*
X322500Y31000D02*
Y38000D01*
X307500Y31000D02*
Y38000D01*
X172500Y31000D02*
Y38000D01*
X196000Y120000D02*
X196000Y120000D01*
X204500D01*
X129250Y92500D02*
X139000Y92500D01*
X129250Y77500D02*
X139000Y77500D01*
X139000Y262500D02*
X139000Y262500D01*
X129250Y262500D02*
X139000D01*
X119500Y262500D02*
X119500Y262500D01*
X129250D01*
D117*
X492500Y250000D02*
X507500D01*
X490500Y248000D02*
X492500Y250000D01*
X507500D02*
X507750Y249750D01*
X511000Y246500D02*
X511000D01*
X507750Y249750D02*
X511000Y246500D01*
X472500Y248000D02*
X490500D01*
X534500Y275500D02*
Y283000D01*
Y273000D02*
Y275500D01*
Y266500D02*
Y273000D01*
X534564Y266450D02*
X534574Y266464D01*
X519000Y246500D02*
X534564Y266450D01*
X514250Y220250D02*
X519500Y215000D01*
X511000Y223500D02*
X511000D01*
X514250Y220250D01*
X534500Y273000D02*
X534500D01*
D118*
X543500Y284500D02*
X543500Y284500D01*
X543500Y284500D02*
Y291000D01*
X75500Y90000D02*
Y104750D01*
X76250Y105500D01*
X77500D01*
X74983Y89483D02*
X75500Y90000D01*
X74983Y82008D02*
Y89483D01*
X422938Y300438D02*
X423500Y301000D01*
X422938Y278533D02*
Y300438D01*
X470000Y206000D02*
X476500D01*
D119*
X90225Y114912D02*
X102412D01*
X95507Y82624D02*
Y89993D01*
X84410Y82473D02*
Y89910D01*
D120*
X142000Y207500D02*
X142000Y206000D01*
X142750Y205250D01*
X142750Y208250D02*
X144250D01*
X142750Y205250D02*
X144250D01*
X142000Y207500D02*
X142750Y208250D01*
X141500Y214000D02*
X142250Y214750D01*
X142250Y211750D02*
X144250Y211750D01*
X142250Y214750D02*
X144250D01*
X141500Y212500D02*
X142250Y211750D01*
X141500Y212500D02*
Y214000D01*
X154750Y216250D02*
X156750D01*
X154000Y214000D02*
X154750Y213250D01*
X154000Y215500D02*
X154000Y214000D01*
X154750Y213250D02*
X156750D01*
X154000Y215500D02*
X154750Y216250D01*
X155250Y222750D02*
X156750D01*
X154500Y222000D02*
X155250Y222750D01*
X154500Y220500D02*
Y222000D01*
X155250Y219750D02*
X156750D01*
X154500Y220500D02*
X155250Y219750D01*
X157500Y223500D02*
Y227000D01*
Y150000D02*
Y212500D01*
X145000Y153960D02*
Y204500D01*
X136500Y223600D02*
X141500D01*
X147800Y152800D02*
Y221260D01*
X106000Y147500D02*
X142500D01*
X136500Y226400D02*
X142660D01*
X145000Y215500D02*
Y220100D01*
X157500Y217000D02*
X157500Y219000D01*
X156750Y222750D02*
X157500Y223500D01*
X156750Y219750D02*
X157500Y219000D01*
X156750Y213250D02*
X157500Y212500D01*
X156750Y216250D02*
X157500Y217000D01*
X145000Y209000D02*
X145000Y211000D01*
X144250Y214750D02*
X145000Y215500D01*
X144250Y211750D02*
X145000Y211000D01*
X144250Y205250D02*
X145000Y204500D01*
X144250Y208250D02*
X145000Y209000D01*
X72500Y181000D02*
Y195500D01*
X75300Y182160D02*
Y196660D01*
Y182160D02*
X107160Y150300D01*
X72500Y181000D02*
X106000Y147500D01*
X107160Y150300D02*
X141340D01*
X142500Y147500D02*
X147800Y152800D01*
X141340Y150300D02*
X145000Y153960D01*
X160300Y148840D02*
Y228160D01*
X147060Y241400D02*
X160300Y228160D01*
X136500Y238600D02*
X145900D01*
X157500Y227000D01*
X136500Y241400D02*
X147060D01*
X142660Y226400D02*
X147800Y221260D01*
X141500Y223600D02*
X145000Y220100D01*
X150060Y138600D02*
X160300Y148840D01*
X148900Y141400D02*
X157500Y150000D01*
X129250Y242500D02*
X136500Y241400D01*
X129250Y237500D02*
X136500Y238600D01*
X129250Y227500D02*
X136500Y226400D01*
X129250Y222500D02*
X136500Y223600D01*
X70560Y201400D02*
X75300Y196660D01*
X69400Y198600D02*
X72500Y195500D01*
X65600Y198600D02*
X69400D01*
X65600Y201400D02*
X70560D01*
X57000Y210000D02*
X65600Y201400D01*
X57000Y190000D02*
X65600Y198600D01*
X57000Y150000D02*
X65600Y141400D01*
X148900D01*
X65600Y138600D02*
X150060D01*
X57000Y130000D02*
X65600Y138600D01*
X49000Y130000D02*
X57000D01*
X115100Y256400D02*
X122000D01*
X129250Y257500D01*
X122000Y253600D02*
X129250Y252500D01*
X112000Y259500D02*
X115100Y256400D01*
Y253600D02*
X122000D01*
X112000Y250500D02*
X115100Y253600D01*
X122000Y193600D02*
X129250Y192500D01*
X122000Y196400D02*
X129250Y197500D01*
X114100Y196400D02*
X122000D01*
X113850Y193600D02*
X122000D01*
X109000Y201500D02*
X114100Y196400D01*
X107750Y201500D02*
X109000D01*
X108750Y188500D02*
X113850Y193600D01*
X107750Y188500D02*
X108750D01*
X49000Y190000D02*
X57000D01*
X49000Y210000D02*
X57000D01*
X49000Y150000D02*
X57000D01*
D121*
X165500Y31000D02*
X167500Y33000D01*
Y38000D01*
Y53343D01*
X159500Y61343D02*
X167500Y53343D01*
X159500Y61343D02*
Y105429D01*
X142429Y122500D02*
X159500Y105429D01*
X129250Y122500D02*
X142429D01*
D122*
X129250Y82500D02*
X136500Y83550D01*
X129250Y87500D02*
X136500Y86450D01*
X140004D01*
X136500Y83550D02*
X138803D01*
X138803Y83550D02*
X141634D01*
X30500Y166500D02*
X34500D01*
X41000Y160000D01*
X49000D01*
X34500Y173500D02*
X41000Y180000D01*
X49000D01*
X30500Y173500D02*
X34500D01*
X143684Y88500D02*
X144000D01*
X141634Y86450D02*
X143684Y88500D01*
X141634Y83550D02*
X143684Y81500D01*
X140004Y86450D02*
X141634D01*
X138803Y83550D02*
X138803Y83550D01*
X143684Y81500D02*
X144000D01*
X140004Y86450D02*
X140004Y86450D01*
D123*
X90750Y295700D02*
D03*
X469250Y44300D02*
D03*
X90750D02*
D03*
X469250Y295700D02*
D03*
X462500Y170000D02*
D03*
D124*
X27000Y228500D02*
D03*
Y111500D02*
D03*
D125*
X157074Y320182D02*
D03*
X215073Y251500D02*
D03*
X398046Y278204D02*
D03*
X285684Y317137D02*
D03*
X567500Y290000D02*
D03*
X163074Y314180D02*
D03*
Y320180D02*
D03*
X157074Y314180D02*
D03*
X572500Y185000D02*
D03*
X570000Y150000D02*
D03*
X537500Y62500D02*
D03*
Y75000D02*
D03*
Y87500D02*
D03*
Y100000D02*
D03*
X535000Y110000D02*
D03*
X525000Y117500D02*
D03*
X532500Y132500D02*
D03*
X542500Y127500D02*
D03*
X552500Y120000D02*
D03*
X557500Y107500D02*
D03*
Y95000D02*
D03*
Y82500D02*
D03*
Y70000D02*
D03*
X560000Y57500D02*
D03*
X567500Y50000D02*
D03*
X565000Y27500D02*
D03*
X550000Y35000D02*
D03*
X565000Y310000D02*
D03*
X555000Y300000D02*
D03*
X552500Y287500D02*
D03*
Y270000D02*
D03*
Y260000D02*
D03*
X547500Y252500D02*
D03*
X567500Y277500D02*
D03*
Y265000D02*
D03*
Y252500D02*
D03*
X565000Y242500D02*
D03*
X557500Y237500D02*
D03*
X580000Y144500D02*
D03*
X597500Y144500D02*
D03*
X588500Y144500D02*
D03*
X606500D02*
D03*
Y195500D02*
D03*
X588500D02*
D03*
X597500Y195500D02*
D03*
X580000Y195500D02*
D03*
X612500Y144500D02*
D03*
Y195500D02*
D03*
X178971Y302773D02*
D03*
X172971D02*
D03*
X162500Y295517D02*
D03*
Y289515D02*
D03*
Y283515D02*
D03*
X258000Y330000D02*
D03*
X250000Y312500D02*
D03*
X270130Y319997D02*
D03*
X186408Y328330D02*
D03*
X175168Y331288D02*
D03*
X144980Y284312D02*
D03*
Y290312D02*
D03*
X144980Y296314D02*
D03*
X519933Y103942D02*
D03*
X513000Y120000D02*
D03*
Y135457D02*
D03*
X513485Y114012D02*
D03*
X500485D02*
D03*
X531534Y253064D02*
D03*
X540682Y252954D02*
D03*
X542170Y232783D02*
D03*
X530000Y140000D02*
D03*
X222000Y271000D02*
D03*
X215000Y265000D02*
D03*
Y271000D02*
D03*
X124000Y294000D02*
D03*
Y300000D02*
D03*
X129913Y284000D02*
D03*
X135913D02*
D03*
X208000Y271000D02*
D03*
X74983Y82008D02*
D03*
X90137Y114823D02*
D03*
X95514Y82617D02*
D03*
X84320Y82383D02*
D03*
X138500Y200500D02*
D03*
X150980Y296312D02*
D03*
X560000Y215000D02*
D03*
X575000D02*
D03*
X590000D02*
D03*
Y125000D02*
D03*
X575000D02*
D03*
X560000D02*
D03*
X422938Y278533D02*
D03*
X380500Y23000D02*
D03*
X398000Y44500D02*
D03*
X429500Y50000D02*
D03*
X362000Y52500D02*
D03*
X354000Y62500D02*
D03*
X445000Y133500D02*
D03*
X483500Y267500D02*
D03*
X486840Y319985D02*
D03*
X440521Y303340D02*
D03*
X612500Y325500D02*
D03*
Y274500D02*
D03*
Y65500D02*
D03*
Y14500D02*
D03*
X462500Y72500D02*
D03*
Y100000D02*
D03*
Y122500D02*
D03*
X492500Y100000D02*
D03*
Y115000D02*
D03*
Y130000D02*
D03*
Y145000D02*
D03*
X505000Y52500D02*
D03*
Y37500D02*
D03*
X525000Y47500D02*
D03*
X540000D02*
D03*
X500500Y92500D02*
D03*
X513500D02*
D03*
X497500Y163500D02*
D03*
Y183500D02*
D03*
Y173500D02*
D03*
X513000Y195000D02*
D03*
X501000D02*
D03*
X513000Y206000D02*
D03*
X501000D02*
D03*
Y214000D02*
D03*
X513000D02*
D03*
X505000Y243500D02*
D03*
X517500Y226500D02*
D03*
Y237000D02*
D03*
X505000Y233000D02*
D03*
X510000Y256000D02*
D03*
X520000D02*
D03*
X550000Y230000D02*
D03*
X525673Y232606D02*
D03*
X530000Y220000D02*
D03*
X545000D02*
D03*
X530000Y155000D02*
D03*
Y170000D02*
D03*
Y185000D02*
D03*
Y200000D02*
D03*
X545000Y140000D02*
D03*
Y155000D02*
D03*
Y185000D02*
D03*
Y200000D02*
D03*
X560000Y140000D02*
D03*
Y200000D02*
D03*
X507949Y9878D02*
D03*
X480000Y10000D02*
D03*
X430000D02*
D03*
X280000Y90000D02*
D03*
Y100000D02*
D03*
Y110000D02*
D03*
Y120000D02*
D03*
Y130000D02*
D03*
Y140000D02*
D03*
Y150000D02*
D03*
Y160000D02*
D03*
Y260000D02*
D03*
Y250000D02*
D03*
Y240000D02*
D03*
Y230000D02*
D03*
Y220000D02*
D03*
Y210000D02*
D03*
Y200000D02*
D03*
Y190000D02*
D03*
Y180000D02*
D03*
Y170000D02*
D03*
X270000Y100000D02*
D03*
Y110000D02*
D03*
Y120000D02*
D03*
Y130000D02*
D03*
Y140000D02*
D03*
Y150000D02*
D03*
Y160000D02*
D03*
Y260000D02*
D03*
Y250000D02*
D03*
Y240000D02*
D03*
Y230000D02*
D03*
Y220000D02*
D03*
Y210000D02*
D03*
Y200000D02*
D03*
Y190000D02*
D03*
Y180000D02*
D03*
Y170000D02*
D03*
X300000Y80000D02*
D03*
Y90000D02*
D03*
Y100000D02*
D03*
Y110000D02*
D03*
Y120000D02*
D03*
Y130000D02*
D03*
Y140000D02*
D03*
Y150000D02*
D03*
Y160000D02*
D03*
Y260000D02*
D03*
Y250000D02*
D03*
Y240000D02*
D03*
Y230000D02*
D03*
Y220000D02*
D03*
Y210000D02*
D03*
Y200000D02*
D03*
Y190000D02*
D03*
Y180000D02*
D03*
Y170000D02*
D03*
X290000Y80000D02*
D03*
Y90000D02*
D03*
Y100000D02*
D03*
Y110000D02*
D03*
Y120000D02*
D03*
Y130000D02*
D03*
Y140000D02*
D03*
Y150000D02*
D03*
Y160000D02*
D03*
Y260000D02*
D03*
Y250000D02*
D03*
Y240000D02*
D03*
Y230000D02*
D03*
Y220000D02*
D03*
Y210000D02*
D03*
Y200000D02*
D03*
Y190000D02*
D03*
Y180000D02*
D03*
Y170000D02*
D03*
X320000Y80000D02*
D03*
Y90000D02*
D03*
Y100000D02*
D03*
Y110000D02*
D03*
Y120000D02*
D03*
Y130000D02*
D03*
Y140000D02*
D03*
Y150000D02*
D03*
Y160000D02*
D03*
Y260000D02*
D03*
Y250000D02*
D03*
Y240000D02*
D03*
Y230000D02*
D03*
Y220000D02*
D03*
Y210000D02*
D03*
Y200000D02*
D03*
Y190000D02*
D03*
Y180000D02*
D03*
Y170000D02*
D03*
X310000Y80000D02*
D03*
Y90000D02*
D03*
Y100000D02*
D03*
Y110000D02*
D03*
Y120000D02*
D03*
Y130000D02*
D03*
Y140000D02*
D03*
Y150000D02*
D03*
Y160000D02*
D03*
Y260000D02*
D03*
Y250000D02*
D03*
Y240000D02*
D03*
Y230000D02*
D03*
Y220000D02*
D03*
Y210000D02*
D03*
Y200000D02*
D03*
Y190000D02*
D03*
Y180000D02*
D03*
Y170000D02*
D03*
X340000Y80000D02*
D03*
Y90000D02*
D03*
Y100000D02*
D03*
Y110000D02*
D03*
Y120000D02*
D03*
Y130000D02*
D03*
Y140000D02*
D03*
Y150000D02*
D03*
Y160000D02*
D03*
Y260000D02*
D03*
Y250000D02*
D03*
Y240000D02*
D03*
Y230000D02*
D03*
Y220000D02*
D03*
Y210000D02*
D03*
Y200000D02*
D03*
Y190000D02*
D03*
Y180000D02*
D03*
Y170000D02*
D03*
X330000Y80000D02*
D03*
Y90000D02*
D03*
Y100000D02*
D03*
Y110000D02*
D03*
Y120000D02*
D03*
Y130000D02*
D03*
Y140000D02*
D03*
Y150000D02*
D03*
Y160000D02*
D03*
Y260000D02*
D03*
Y250000D02*
D03*
Y240000D02*
D03*
Y230000D02*
D03*
Y220000D02*
D03*
Y210000D02*
D03*
Y200000D02*
D03*
Y190000D02*
D03*
Y180000D02*
D03*
Y170000D02*
D03*
X350000D02*
D03*
Y180000D02*
D03*
Y190000D02*
D03*
Y200000D02*
D03*
Y210000D02*
D03*
Y220000D02*
D03*
Y230000D02*
D03*
Y240000D02*
D03*
Y250000D02*
D03*
Y260000D02*
D03*
Y160000D02*
D03*
Y150000D02*
D03*
Y140000D02*
D03*
Y130000D02*
D03*
Y120000D02*
D03*
Y110000D02*
D03*
Y100000D02*
D03*
Y90000D02*
D03*
Y80000D02*
D03*
X360000Y170000D02*
D03*
Y180000D02*
D03*
Y190000D02*
D03*
Y200000D02*
D03*
Y210000D02*
D03*
Y220000D02*
D03*
Y230000D02*
D03*
Y240000D02*
D03*
Y250000D02*
D03*
Y260000D02*
D03*
Y160000D02*
D03*
Y150000D02*
D03*
Y140000D02*
D03*
Y130000D02*
D03*
Y120000D02*
D03*
Y110000D02*
D03*
Y100000D02*
D03*
Y90000D02*
D03*
Y80000D02*
D03*
X370000Y170000D02*
D03*
Y180000D02*
D03*
Y190000D02*
D03*
Y200000D02*
D03*
Y210000D02*
D03*
Y220000D02*
D03*
Y230000D02*
D03*
Y240000D02*
D03*
Y250000D02*
D03*
Y260000D02*
D03*
Y160000D02*
D03*
Y150000D02*
D03*
Y140000D02*
D03*
Y130000D02*
D03*
Y120000D02*
D03*
Y110000D02*
D03*
Y100000D02*
D03*
Y90000D02*
D03*
Y80000D02*
D03*
X380000Y170000D02*
D03*
Y180000D02*
D03*
Y190000D02*
D03*
Y200000D02*
D03*
Y210000D02*
D03*
Y220000D02*
D03*
Y230000D02*
D03*
Y240000D02*
D03*
Y250000D02*
D03*
Y260000D02*
D03*
Y160000D02*
D03*
Y150000D02*
D03*
Y140000D02*
D03*
Y130000D02*
D03*
Y120000D02*
D03*
Y110000D02*
D03*
Y100000D02*
D03*
Y90000D02*
D03*
Y80000D02*
D03*
X390000Y170000D02*
D03*
Y180000D02*
D03*
Y190000D02*
D03*
Y200000D02*
D03*
Y210000D02*
D03*
Y220000D02*
D03*
Y230000D02*
D03*
Y240000D02*
D03*
Y250000D02*
D03*
Y260000D02*
D03*
Y160000D02*
D03*
Y150000D02*
D03*
Y140000D02*
D03*
Y130000D02*
D03*
Y120000D02*
D03*
Y110000D02*
D03*
Y100000D02*
D03*
Y90000D02*
D03*
Y80000D02*
D03*
X400000Y170000D02*
D03*
Y180000D02*
D03*
Y190000D02*
D03*
Y200000D02*
D03*
Y210000D02*
D03*
Y220000D02*
D03*
Y230000D02*
D03*
Y240000D02*
D03*
Y250000D02*
D03*
Y260000D02*
D03*
Y160000D02*
D03*
Y150000D02*
D03*
Y140000D02*
D03*
Y130000D02*
D03*
Y120000D02*
D03*
Y110000D02*
D03*
Y100000D02*
D03*
Y90000D02*
D03*
Y80000D02*
D03*
X410000Y170000D02*
D03*
Y180000D02*
D03*
Y190000D02*
D03*
Y200000D02*
D03*
Y210000D02*
D03*
Y220000D02*
D03*
Y230000D02*
D03*
Y240000D02*
D03*
Y250000D02*
D03*
Y260000D02*
D03*
Y160000D02*
D03*
Y150000D02*
D03*
Y140000D02*
D03*
Y130000D02*
D03*
Y120000D02*
D03*
Y110000D02*
D03*
Y100000D02*
D03*
Y90000D02*
D03*
Y80000D02*
D03*
X420000Y170000D02*
D03*
Y180000D02*
D03*
Y190000D02*
D03*
Y200000D02*
D03*
Y210000D02*
D03*
Y220000D02*
D03*
Y230000D02*
D03*
Y240000D02*
D03*
Y250000D02*
D03*
Y260000D02*
D03*
Y160000D02*
D03*
Y150000D02*
D03*
Y140000D02*
D03*
Y130000D02*
D03*
Y120000D02*
D03*
Y110000D02*
D03*
Y100000D02*
D03*
Y90000D02*
D03*
Y80000D02*
D03*
X430000D02*
D03*
Y90000D02*
D03*
Y100000D02*
D03*
Y110000D02*
D03*
Y120000D02*
D03*
Y130000D02*
D03*
Y140000D02*
D03*
Y150000D02*
D03*
Y160000D02*
D03*
Y260000D02*
D03*
Y250000D02*
D03*
Y240000D02*
D03*
Y230000D02*
D03*
Y220000D02*
D03*
Y210000D02*
D03*
Y200000D02*
D03*
Y190000D02*
D03*
Y180000D02*
D03*
Y170000D02*
D03*
X505000Y330000D02*
D03*
X56000Y97000D02*
D03*
X191000Y244000D02*
D03*
X241500Y128500D02*
D03*
X220000Y202000D02*
D03*
X214000Y214000D02*
D03*
X213000Y63500D02*
D03*
X188500Y97500D02*
D03*
X187500Y51000D02*
D03*
X155000Y132500D02*
D03*
X20000Y97500D02*
D03*
X12500Y125000D02*
D03*
Y170000D02*
D03*
Y215000D02*
D03*
X17500Y242500D02*
D03*
X70336Y226608D02*
D03*
X48005Y287407D02*
D03*
X247500Y97500D02*
D03*
X257500D02*
D03*
X527000Y206000D02*
D03*
X580000Y274500D02*
D03*
X597500Y274500D02*
D03*
X588500Y274500D02*
D03*
X606500D02*
D03*
Y325500D02*
D03*
X588500D02*
D03*
X597500Y325500D02*
D03*
X580000Y325500D02*
D03*
X525000Y262000D02*
D03*
X505000D02*
D03*
Y284000D02*
D03*
X525000D02*
D03*
X479000Y227500D02*
D03*
X580000Y65500D02*
D03*
X597500Y65500D02*
D03*
X588500Y65500D02*
D03*
X606500D02*
D03*
Y14500D02*
D03*
X588500D02*
D03*
X597500Y14500D02*
D03*
X580000Y14500D02*
D03*
X517000Y63500D02*
D03*
X497000D02*
D03*
Y85500D02*
D03*
X517000D02*
D03*
X252500Y85000D02*
D03*
X262500D02*
D03*
X159500Y31000D02*
D03*
X257500Y88500D02*
D03*
X247500D02*
D03*
X171500Y45000D02*
D03*
X177500D02*
D03*
X162500D02*
D03*
X165500Y31000D02*
D03*
X180500D02*
D03*
X494500Y199500D02*
D03*
X485500D02*
D03*
X470000Y206000D02*
D03*
X516000Y181000D02*
D03*
Y166000D02*
D03*
X332500Y31000D02*
D03*
X289500Y21000D02*
D03*
X340500D02*
D03*
X322500Y31000D02*
D03*
X307500D02*
D03*
X213000Y28000D02*
D03*
X219000D02*
D03*
Y22000D02*
D03*
X218500Y7500D02*
D03*
X212500D02*
D03*
X213000Y22000D02*
D03*
Y40000D02*
D03*
X219000D02*
D03*
X172500Y31000D02*
D03*
X196000Y120000D02*
D03*
X201000Y265000D02*
D03*
X208000D02*
D03*
X201000Y271000D02*
D03*
Y69000D02*
D03*
X208000D02*
D03*
Y75000D02*
D03*
X201000D02*
D03*
X187500Y31000D02*
D03*
X144500Y21000D02*
D03*
X93500Y180000D02*
D03*
X87500D02*
D03*
X112000Y232500D02*
D03*
X94000D02*
D03*
X103000D02*
D03*
X30500Y166500D02*
D03*
Y173500D02*
D03*
X139000Y157500D02*
D03*
X119500D02*
D03*
X139000Y172500D02*
D03*
X119500D02*
D03*
X139000Y187500D02*
D03*
X119500D02*
D03*
Y202500D02*
D03*
Y217500D02*
D03*
X139000Y232500D02*
D03*
X119500D02*
D03*
X119500Y247500D02*
D03*
Y262500D02*
D03*
X139000D02*
D03*
Y247500D02*
D03*
X153000Y273500D02*
D03*
X117000D02*
D03*
X94000Y265500D02*
D03*
X103000D02*
D03*
X63000Y260500D02*
D03*
X86000D02*
D03*
Y240500D02*
D03*
X63000D02*
D03*
X69684Y173407D02*
D03*
Y166407D02*
D03*
X63684D02*
D03*
Y173407D02*
D03*
X144000Y81500D02*
D03*
Y88500D02*
D03*
X139000Y77500D02*
D03*
Y92500D02*
D03*
X25500Y162500D02*
D03*
Y177500D02*
D03*
X34316Y203407D02*
D03*
Y196407D02*
D03*
X28316D02*
D03*
Y203407D02*
D03*
X22000Y143500D02*
D03*
Y136500D02*
D03*
X28000Y143500D02*
D03*
Y136500D02*
D03*
X34000D02*
D03*
Y143500D02*
D03*
X514250Y220250D02*
D03*
X543500Y291000D02*
D03*
X549913Y279461D02*
D03*
X507750Y249750D02*
D03*
X150980Y290312D02*
D03*
X119698Y324962D02*
D03*
M02*
