G04*
G04 #@! TF.GenerationSoftware,Altium Limited,Altium Designer,20.1.12 (249)*
G04*
G04 Layer_Color=65535*
%FSLAX44Y44*%
%MOMM*%
G71*
G04*
G04 #@! TF.SameCoordinates,A9FEEA33-96DE-4984-9D73-42BCD588803D*
G04*
G04*
G04 #@! TF.FilePolarity,Positive*
G04*
G01*
G75*
%ADD10C,0.1000*%
%ADD11C,0.2000*%
%ADD12C,0.1500*%
%ADD13R,0.3000X0.3000*%
%ADD14R,0.3500X0.4000*%
G36*
X171000Y299000D02*
Y301500D01*
X175500D01*
Y306000D01*
X178000D01*
Y299000D01*
X171000D01*
D02*
G37*
G36*
X500500Y95000D02*
X497000D01*
Y98500D01*
X500500Y95000D01*
D02*
G37*
G36*
X502750Y124775D02*
X505750Y121775D01*
X502750Y121775D01*
Y124775D01*
D02*
G37*
G36*
X542000Y236000D02*
Y232500D01*
X538500D01*
X542000Y236000D01*
D02*
G37*
G36*
X614534Y75618D02*
X571055D01*
Y104629D01*
X614534D01*
Y75618D01*
D02*
G37*
G36*
X614802Y235399D02*
X569523D01*
Y264606D01*
X614802D01*
Y235399D01*
D02*
G37*
%LPC*%
G36*
X609634Y99727D02*
X592389D01*
X598337Y90542D01*
X591776Y80520D01*
X596425D01*
X600699Y87155D01*
X604960Y80520D01*
X609634D01*
X603073Y90392D01*
X609047Y99727D01*
X609634D01*
D01*
D02*
G37*
G36*
X591776D02*
D01*
Y80520D01*
Y99727D01*
D02*
G37*
G36*
X591227D02*
X575955D01*
Y80520D01*
Y96478D01*
X581654D01*
Y80520D01*
X591227D01*
X585528D01*
Y96478D01*
X591227D01*
Y99727D01*
D02*
G37*
%LPD*%
G36*
X600774Y93554D02*
X596925Y99727D01*
X604548D01*
X600774Y93554D01*
D02*
G37*
%LPC*%
G36*
X609802Y259606D02*
X591944D01*
D01*
X592556D01*
X598505Y250421D01*
X591944Y240399D01*
X596593D01*
X600867Y247034D01*
X605128Y240399D01*
X609802D01*
X603241Y250271D01*
X609214Y259606D01*
X609802D01*
D02*
G37*
G36*
X591794D02*
X574523D01*
Y240399D01*
X578397D01*
Y248409D01*
X579422D01*
X579647Y248396D01*
X579859Y248384D01*
X580059Y248372D01*
X580234Y248359D01*
X580384Y248347D01*
X580534Y248322D01*
X580659Y248309D01*
X580772Y248284D01*
X580872Y248259D01*
X580947Y248247D01*
X581021Y248234D01*
X581072Y248222D01*
X581109Y248209D01*
X581121Y248197D01*
X581134D01*
X581359Y248097D01*
X581584Y247984D01*
X581784Y247847D01*
X581959Y247722D01*
X582096Y247597D01*
X582209Y247497D01*
X582284Y247422D01*
X582309Y247409D01*
Y247397D01*
X582421Y247272D01*
X582559Y247109D01*
X582696Y246922D01*
X582859Y246709D01*
X583021Y246485D01*
X583196Y246247D01*
X583533Y245760D01*
X583696Y245535D01*
X583846Y245310D01*
X583983Y245110D01*
X584108Y244935D01*
X584208Y244785D01*
X584283Y244673D01*
X584333Y244597D01*
X584346Y244585D01*
Y244573D01*
X587158Y240399D01*
X591794D01*
X589444Y244135D01*
X589194Y244548D01*
X588957Y244910D01*
X588720Y245260D01*
X588520Y245572D01*
X588320Y245860D01*
X588132Y246110D01*
X587970Y246335D01*
X587820Y246547D01*
X587682Y246709D01*
X587570Y246859D01*
X587470Y246984D01*
X587382Y247084D01*
X587320Y247159D01*
X587270Y247222D01*
X587245Y247247D01*
X587233Y247259D01*
X586908Y247584D01*
X586570Y247884D01*
X586220Y248159D01*
X585895Y248396D01*
X585745Y248496D01*
X585595Y248596D01*
X585470Y248671D01*
X585370Y248746D01*
X585283Y248796D01*
X585208Y248834D01*
X585171Y248859D01*
X585158Y248871D01*
X585620Y248946D01*
X586045Y249046D01*
X586445Y249171D01*
X586820Y249296D01*
X587158Y249446D01*
X587470Y249596D01*
X587757Y249746D01*
X588007Y249896D01*
X588232Y250046D01*
X588420Y250184D01*
X588582Y250308D01*
X588720Y250421D01*
X588820Y250508D01*
X588895Y250583D01*
X588945Y250634D01*
X588957Y250646D01*
X589182Y250921D01*
X589382Y251208D01*
X589544Y251496D01*
X589694Y251796D01*
X589819Y252096D01*
X589919Y252395D01*
X590007Y252683D01*
X590069Y252958D01*
X590119Y253220D01*
X590169Y253458D01*
X590194Y253670D01*
X590207Y253858D01*
X590219Y254008D01*
X590232Y254120D01*
Y254195D01*
Y254220D01*
X590219Y254533D01*
X590194Y254832D01*
X590157Y255132D01*
X590107Y255407D01*
X590032Y255670D01*
X589969Y255920D01*
X589894Y256157D01*
X589819Y256369D01*
X589732Y256569D01*
X589657Y256732D01*
X589594Y256882D01*
X589532Y257007D01*
X589469Y257107D01*
X589432Y257182D01*
X589407Y257232D01*
X589394Y257244D01*
X589232Y257482D01*
X589057Y257707D01*
X588882Y257907D01*
X588695Y258094D01*
X588507Y258256D01*
X588320Y258407D01*
X588132Y258544D01*
X587957Y258656D01*
X587795Y258756D01*
X587645Y258844D01*
X587507Y258919D01*
X587395Y258981D01*
X587295Y259031D01*
X587220Y259056D01*
X587170Y259081D01*
X587158D01*
X586883Y259169D01*
X586570Y259256D01*
X586233Y259331D01*
X585870Y259381D01*
X585133Y259481D01*
X584758Y259519D01*
X584396Y259544D01*
X584058Y259569D01*
X583733Y259581D01*
X583446Y259594D01*
X583184D01*
X583071Y259606D01*
X591794D01*
D01*
D02*
G37*
%LPD*%
G36*
X600941Y253433D02*
X597092Y259606D01*
X604715D01*
X600941Y253433D01*
D02*
G37*
G36*
X582871Y256345D02*
X583134D01*
X583358Y256332D01*
X583733D01*
X583871Y256320D01*
X583983D01*
X584071Y256307D01*
X584146D01*
X584196Y256294D01*
X584258D01*
X584596Y256220D01*
X584883Y256107D01*
X585133Y255982D01*
X585345Y255857D01*
X585508Y255732D01*
X585620Y255632D01*
X585695Y255557D01*
X585720Y255545D01*
Y255532D01*
X585895Y255295D01*
X586020Y255045D01*
X586108Y254782D01*
X586170Y254533D01*
X586208Y254307D01*
X586220Y254220D01*
Y254133D01*
X586233Y254070D01*
Y254008D01*
Y253983D01*
Y253970D01*
X586220Y253658D01*
X586170Y253383D01*
X586108Y253133D01*
X586045Y252933D01*
X585970Y252758D01*
X585908Y252633D01*
X585883Y252596D01*
X585858Y252558D01*
X585845Y252546D01*
Y252533D01*
X585683Y252333D01*
X585508Y252158D01*
X585333Y252021D01*
X585158Y251908D01*
X584995Y251821D01*
X584871Y251771D01*
X584821Y251746D01*
X584783Y251733D01*
X584771Y251721D01*
X584758D01*
X584608Y251683D01*
X584408Y251646D01*
X584171Y251608D01*
X583921Y251583D01*
X583646Y251558D01*
X583346Y251546D01*
X582759Y251508D01*
X582459D01*
X582196Y251496D01*
X581934D01*
X581721Y251483D01*
X578397D01*
Y256357D01*
X582571D01*
X582871Y256345D01*
D02*
G37*
D10*
X211500Y307000D02*
G03*
X205500Y307000I-3000J0D01*
G01*
X217500D02*
G03*
X211500Y307000I-3000J0D01*
G01*
X229500D02*
G03*
X223500Y307000I-3000J0D01*
G01*
D02*
G03*
X217500Y307000I-3000J0D01*
G01*
X489500Y170000D02*
G03*
X489500Y170000I-27000J0D01*
G01*
X537000Y20000D02*
G03*
X537000Y20000I-12000J0D01*
G01*
Y320000D02*
G03*
X537000Y320000I-12000J0D01*
G01*
X52000Y260000D02*
G03*
X52000Y260000I-12000J0D01*
G01*
X569500Y160000D02*
Y165500D01*
X572500D01*
X550500Y174500D02*
Y180000D01*
Y160000D02*
Y165500D01*
X569500Y174500D02*
Y180000D01*
Y174500D02*
X572500D01*
X245500Y316000D02*
X254500D01*
Y334000D01*
X245500Y316000D02*
Y334000D01*
X254500D01*
X205500Y312000D02*
X229500D01*
X229500Y307000D02*
X232000D01*
X203000D02*
X205500D01*
X193000Y295500D02*
Y323500D01*
X242000Y295500D02*
Y323500D01*
X193000D02*
X195500Y326000D01*
Y334000D01*
X193000Y295500D02*
X195500Y293000D01*
Y285000D02*
Y293000D01*
X239500D02*
X242000Y295500D01*
X239500Y285000D02*
Y293000D01*
Y326000D02*
X242000Y323500D01*
X239500Y326000D02*
Y334000D01*
X175500Y306000D02*
X178000D01*
Y299000D02*
Y306000D01*
X171000Y299000D02*
X178000D01*
X171000D02*
Y301500D01*
Y332500D02*
X175500D01*
Y328000D02*
Y332500D01*
X144500D02*
X149000D01*
X144500Y328000D02*
Y332500D01*
Y301500D02*
X149000D01*
X144500D02*
Y306000D01*
X171000Y301500D02*
X175500D01*
Y306000D01*
X245500Y301500D02*
X254500D01*
X245500Y283500D02*
Y301500D01*
X254500Y283500D02*
Y301500D01*
X245500Y283500D02*
X254500D01*
X261000Y285500D02*
X279000D01*
Y294500D01*
X261000Y285500D02*
Y294500D01*
X279000Y294500D01*
X261000Y314500D02*
X279000Y314500D01*
X261000Y305500D02*
Y314500D01*
X279000Y305500D02*
Y314500D01*
X261000Y305500D02*
X279000D01*
Y325500D02*
Y334500D01*
X261000Y325500D02*
X279000D01*
X261000Y334500D02*
X279000D01*
X261000Y325500D02*
Y334500D01*
X208500Y18500D02*
Y41500D01*
X201000D02*
X208500D01*
X148000Y6000D02*
X202000D01*
X141500Y18500D02*
Y41500D01*
X149000D01*
X154000Y43500D02*
Y46500D01*
X151000D02*
X152500D01*
X151000Y43500D02*
X154000D01*
X151000D02*
Y46500D01*
X154000D01*
X152500D02*
X154000D01*
X343500Y18500D02*
Y41500D01*
X336000D02*
X343500D01*
X283000Y6000D02*
X337000D01*
X276500Y18500D02*
Y41500D01*
X284000D01*
X289000Y43500D02*
Y46500D01*
X286000D02*
X287500D01*
X286000Y43500D02*
X289000D01*
X286000D02*
Y46500D01*
X289000D01*
X287500D02*
X289000D01*
X468000Y261500D02*
X477000D01*
Y243500D02*
Y261500D01*
X468000Y243500D02*
Y261500D01*
Y243500D02*
X477000D01*
X258000Y34000D02*
X272000D01*
X258000Y29000D02*
Y34000D01*
X272000Y29000D02*
Y34000D01*
X238000D02*
X252000D01*
X238000Y29000D02*
Y34000D01*
X252000Y29000D02*
Y34000D01*
X518000Y136000D02*
X527000D01*
X518000D02*
Y154000D01*
X527000Y136000D02*
Y154000D01*
X518000D02*
X527000D01*
X497000Y95000D02*
Y111000D01*
X517000D01*
Y95000D02*
Y111000D01*
X497000Y95000D02*
X517000D01*
X497000Y98500D02*
X500500Y95000D01*
X526000Y232500D02*
X542000D01*
X526000D02*
Y252500D01*
X542000D01*
Y232500D02*
Y252500D01*
X538500Y232500D02*
X542000Y236000D01*
X502750Y133775D02*
X522750D01*
X502750Y121775D02*
Y133775D01*
X522750Y121775D02*
Y133775D01*
X502750Y121775D02*
X522750D01*
X502750Y124775D02*
X505750Y121775D01*
X84000Y255000D02*
X87000Y255000D01*
X84000Y255000D02*
Y260500D01*
Y246000D02*
X87000Y246000D01*
X84000Y240500D02*
Y246000D01*
X65000Y255000D02*
Y260500D01*
X65000Y240500D02*
Y246000D01*
X121000Y329500D02*
X139000D01*
Y320500D02*
Y329500D01*
X121000Y320500D02*
X139000D01*
X121000D02*
Y329500D01*
X110500Y103000D02*
Y108000D01*
X82500Y100000D02*
X97500D01*
X82500Y130000D02*
X97500D01*
X81500Y211000D02*
X82000D01*
X81500Y218000D02*
X82000D01*
Y211000D02*
Y218000D01*
X96500Y185000D02*
X100500D01*
X96500Y218000D02*
X100500D01*
X81500Y211000D02*
Y218000D01*
X118000Y76000D02*
X121000D01*
X118000D02*
Y79000D01*
X121000D01*
Y76000D02*
Y79000D01*
X150500Y60500D02*
X199500D01*
X150500Y279500D02*
X199500D01*
Y60500D02*
Y76500D01*
Y263500D02*
Y279500D01*
X530000Y262000D02*
Y271000D01*
Y262000D02*
X548000D01*
Y271000D01*
X530000D02*
X548000D01*
X530000Y271000D02*
Y280000D01*
X548000D01*
X530000Y271000D02*
X548000D01*
Y280000D01*
X548000Y280000D02*
Y289000D01*
X530000Y280000D02*
X548000D01*
X530000Y289000D02*
X548000D01*
X530000Y280000D02*
Y289000D01*
X515000Y201500D02*
X524000D01*
Y219500D01*
X515000Y201500D02*
Y219500D01*
X524000D01*
X513000Y239250D02*
X513000Y238500D01*
X507000Y244500D02*
X507500D01*
X507000Y238500D02*
X513000D01*
X507000D02*
Y244500D01*
X507750Y239250D02*
Y249750D01*
Y239250D02*
X522250D01*
Y249750D01*
X507750D02*
X522250D01*
X499750Y220250D02*
X514250D01*
Y230750D01*
X499750Y220250D02*
Y230750D01*
X514500Y225500D02*
X515000D01*
X499750Y230750D02*
X514250D01*
X515000Y225500D02*
X515000Y231500D01*
X509000D02*
X515000D01*
X509000D02*
X509000Y230750D01*
X499000Y223000D02*
Y232000D01*
X481000Y232000D02*
X499000Y232000D01*
X481000Y223000D02*
X499000Y223000D01*
X481000Y223000D02*
Y232000D01*
X490000Y219500D02*
X499000D01*
X490000D02*
X490000Y201500D01*
X499000D01*
Y219500D01*
X481000D02*
X490000D01*
X490000Y201500D01*
X481000D02*
X481000Y219500D01*
X481000Y201500D02*
X490000D01*
X472000Y201500D02*
X481000Y201500D01*
X472000Y201500D02*
Y219500D01*
X481000D02*
X481000Y201500D01*
X472000Y219500D02*
X481000D01*
X519500Y260500D02*
Y263500D01*
X525000D01*
X505000Y282500D02*
X510500D01*
X519500D02*
X525000D01*
X510500Y260500D02*
Y263500D01*
X505000D02*
X510500D01*
X502500Y182500D02*
Y191500D01*
Y182500D02*
X520500D01*
X502500Y191500D02*
X520500D01*
X520500Y182500D02*
X520500Y191500D01*
X502500Y164500D02*
Y182500D01*
Y164500D02*
X511500D01*
X502500Y182500D02*
X511500D01*
Y164500D02*
Y182500D01*
X502500Y155500D02*
Y164500D01*
Y155500D02*
X520500D01*
X502500Y164500D02*
X520500Y164500D01*
Y155500D02*
Y164500D01*
X511500Y65000D02*
X517000D01*
X497000D02*
X502500D01*
X511500Y84000D02*
X517000D01*
X511500D02*
Y87000D01*
X497000Y84000D02*
X502500D01*
Y87000D01*
X260500Y36000D02*
Y54000D01*
Y36000D02*
X269500D01*
X260500Y54000D02*
X269500D01*
Y36000D02*
Y54000D01*
X240500Y36000D02*
Y54000D01*
Y36000D02*
X249500D01*
X240500Y54000D02*
X249500D01*
Y36000D02*
Y54000D01*
X91000Y85500D02*
Y94500D01*
Y85500D02*
X109000D01*
Y94500D01*
X91000D02*
X109000D01*
X89000Y85500D02*
Y94500D01*
X71000D02*
X89000D01*
X71000Y85500D02*
Y94500D01*
Y85500D02*
X89000D01*
X163500Y297000D02*
X191500D01*
X163500Y283000D02*
Y297000D01*
X191500Y283000D02*
Y297000D01*
X163500Y283000D02*
X191500D01*
X177500Y285500D02*
Y294500D01*
X292000Y283000D02*
X301000D01*
X98500Y221500D02*
Y230500D01*
Y221500D02*
X116500D01*
X98500Y230500D02*
X116500D01*
Y221500D02*
Y230500D01*
X80500Y221500D02*
Y230500D01*
Y221500D02*
X98500D01*
X80500Y230500D02*
X98500D01*
Y221500D02*
Y230500D01*
X124999Y287954D02*
Y315954D01*
Y287954D02*
X138999D01*
X124999Y315954D02*
X138999D01*
Y287954D02*
Y315954D01*
X127499Y301954D02*
X136499D01*
X98500Y246000D02*
X98500Y255000D01*
X98500Y246000D02*
X116500D01*
Y255000D01*
X98500D02*
X116500D01*
X98500D02*
X98500Y264000D01*
X98500Y255000D02*
X116500D01*
X116500Y264000D01*
X98500D02*
X116500D01*
X89500Y264000D02*
X89500Y246000D01*
X98500D01*
X89500Y264000D02*
X98500D01*
Y246000D02*
Y264000D01*
X62500Y142000D02*
X66000D01*
X62500Y138000D02*
Y142000D01*
X66000Y138000D02*
Y142000D01*
X62500Y138000D02*
X66000D01*
D11*
X367371Y20848D02*
Y30845D01*
X372370D01*
X374036Y29179D01*
Y25847D01*
X372370Y24181D01*
X367371D01*
X370704D02*
X374036Y20848D01*
X384033Y30845D02*
X377368D01*
Y20848D01*
X384033D01*
X377368Y25847D02*
X380700D01*
X387365Y30845D02*
Y24181D01*
X390697Y20848D01*
X394030Y24181D01*
Y30845D01*
X397362Y20848D02*
Y22515D01*
X399028D01*
Y20848D01*
X397362D01*
X412357D02*
X405692D01*
X412357Y27513D01*
Y29179D01*
X410691Y30845D01*
X407359D01*
X405692Y29179D01*
X314018Y60332D02*
Y52001D01*
X315685Y50335D01*
X319017D01*
X320683Y52001D01*
Y60332D01*
X330680Y58665D02*
X329014Y60332D01*
X325681D01*
X324015Y58665D01*
Y56999D01*
X325681Y55333D01*
X329014D01*
X330680Y53667D01*
Y52001D01*
X329014Y50335D01*
X325681D01*
X324015Y52001D01*
X334012Y60332D02*
Y50335D01*
X339011D01*
X340677Y52001D01*
Y53667D01*
X339011Y55333D01*
X334012D01*
X339011D01*
X340677Y56999D01*
Y58665D01*
X339011Y60332D01*
X334012D01*
X344009Y58665D02*
X345675Y60332D01*
X349007D01*
X350673Y58665D01*
Y56999D01*
X349007Y55333D01*
X347341D01*
X349007D01*
X350673Y53667D01*
Y52001D01*
X349007Y50335D01*
X345675D01*
X344009Y52001D01*
X354006Y48668D02*
X360670D01*
X365669Y58665D02*
Y56999D01*
X364002D01*
X367335D01*
X365669D01*
Y52001D01*
X367335Y50335D01*
X373999D02*
X377332D01*
X378998Y52001D01*
Y55333D01*
X377332Y56999D01*
X373999D01*
X372333Y55333D01*
Y52001D01*
X373999Y50335D01*
X382330Y48668D02*
X388994D01*
X392327Y50335D02*
Y60332D01*
X395659Y56999D01*
X398991Y60332D01*
Y50335D01*
X408988D02*
X402323D01*
X408988Y56999D01*
Y58665D01*
X407322Y60332D01*
X403989D01*
X402323Y58665D01*
X412320Y48668D02*
X418985D01*
X428982Y60332D02*
X422317D01*
Y50335D01*
X428982D01*
X422317Y55333D02*
X425649D01*
D12*
X539998Y127504D02*
X530002D01*
Y132502D01*
X531668Y134169D01*
X535000D01*
X536666Y132502D01*
Y127504D01*
Y130836D02*
X539998Y134169D01*
Y137501D02*
Y140833D01*
Y139167D01*
X530002D01*
X531668Y137501D01*
Y145831D02*
X530002Y147498D01*
Y150830D01*
X531668Y152496D01*
X533334D01*
X535000Y150830D01*
X536666Y152496D01*
X538332D01*
X539998Y150830D01*
Y147498D01*
X538332Y145831D01*
X536666D01*
X535000Y147498D01*
X533334Y145831D01*
X531668D01*
X535000Y147498D02*
Y150830D01*
X69001Y201716D02*
X76142D01*
X77571Y202192D01*
X78523Y203144D01*
X78999Y204573D01*
Y205525D01*
X78523Y206953D01*
X77571Y207905D01*
X76142Y208381D01*
X69001D01*
Y215903D02*
X75666Y211143D01*
Y218284D01*
X69001Y215903D02*
X78999D01*
X356012Y332185D02*
Y324567D01*
X355536Y323139D01*
X355060Y322663D01*
X354108Y322187D01*
X353156D01*
X352204Y322663D01*
X351728Y323139D01*
X351251Y324567D01*
Y325520D01*
X364296Y332185D02*
X359535D01*
X359059Y327900D01*
X359535Y328376D01*
X360964Y328852D01*
X362392D01*
X363820Y328376D01*
X364772Y327424D01*
X365248Y325996D01*
Y325043D01*
X364772Y323615D01*
X363820Y322663D01*
X362392Y322187D01*
X360964D01*
X359535Y322663D01*
X359059Y323139D01*
X358583Y324091D01*
X69001Y181454D02*
X76142D01*
X77571Y181930D01*
X78523Y182882D01*
X78999Y184311D01*
Y185263D01*
X78523Y186691D01*
X77571Y187643D01*
X76142Y188119D01*
X69001D01*
Y191833D02*
Y197070D01*
X72810Y194213D01*
Y195642D01*
X73286Y196594D01*
X73762Y197070D01*
X75190Y197546D01*
X76142D01*
X77571Y197070D01*
X78523Y196118D01*
X78999Y194689D01*
Y193261D01*
X78523Y191833D01*
X78047Y191357D01*
X77095Y190881D01*
X545001Y241381D02*
X554999Y234716D01*
X545001D02*
Y241381D01*
X554999Y234716D02*
Y241381D01*
X545001Y244571D02*
Y249808D01*
X548810Y246951D01*
Y248380D01*
X549286Y249332D01*
X549762Y249808D01*
X551190Y250284D01*
X552142D01*
X553571Y249808D01*
X554523Y248856D01*
X554999Y247428D01*
Y245999D01*
X554523Y244571D01*
X554047Y244095D01*
X553095Y243619D01*
X486912Y132820D02*
X480247Y122822D01*
Y132820D02*
X486912D01*
X480247Y122822D02*
X486912D01*
X489626Y130440D02*
Y130916D01*
X490102Y131868D01*
X490578Y132344D01*
X491530Y132820D01*
X493434D01*
X494386Y132344D01*
X494863Y131868D01*
X495339Y130916D01*
Y129964D01*
X494863Y129011D01*
X493910Y127583D01*
X489149Y122822D01*
X495815D01*
X486639Y108295D02*
X479974Y98297D01*
Y108295D02*
X486639D01*
X479974Y98297D02*
X486639D01*
X488877Y106391D02*
X489829Y106867D01*
X491257Y108295D01*
Y98297D01*
X488692Y257499D02*
Y250358D01*
X489168Y248929D01*
X490120Y247977D01*
X491549Y247501D01*
X492501D01*
X493929Y247977D01*
X494881Y248929D01*
X495357Y250358D01*
Y257499D01*
X503832Y256071D02*
X503356Y257023D01*
X501927Y257499D01*
X500975D01*
X499547Y257023D01*
X498595Y255595D01*
X498119Y253214D01*
Y250834D01*
X498595Y248929D01*
X499547Y247977D01*
X500975Y247501D01*
X501451D01*
X502880Y247977D01*
X503832Y248929D01*
X504308Y250358D01*
Y250834D01*
X503832Y252262D01*
X502880Y253214D01*
X501451Y253690D01*
X500975D01*
X499547Y253214D01*
X498595Y252262D01*
X498119Y250834D01*
X488454Y244499D02*
Y237358D01*
X488930Y235929D01*
X489882Y234977D01*
X491311Y234501D01*
X492263D01*
X493691Y234977D01*
X494643Y235929D01*
X495119Y237358D01*
Y244499D01*
X503594D02*
X498833D01*
X498357Y240214D01*
X498833Y240690D01*
X500261Y241166D01*
X501689D01*
X503118Y240690D01*
X504070Y239738D01*
X504546Y238310D01*
Y237358D01*
X504070Y235929D01*
X503118Y234977D01*
X501689Y234501D01*
X500261D01*
X498833Y234977D01*
X498357Y235453D01*
X497881Y236405D01*
X523050Y192999D02*
Y183001D01*
Y192999D02*
X527335D01*
X528763Y192523D01*
X529239Y192047D01*
X529715Y191095D01*
Y190142D01*
X529239Y189190D01*
X528763Y188714D01*
X527335Y188238D01*
X523050D01*
X526383D02*
X529715Y183001D01*
X531953Y191095D02*
X532905Y191571D01*
X534333Y192999D01*
Y183001D01*
X544998Y192999D02*
X540237D01*
X539761Y188714D01*
X540237Y189190D01*
X541665Y189666D01*
X543093D01*
X544522Y189190D01*
X545474Y188238D01*
X545950Y186810D01*
Y185858D01*
X545474Y184429D01*
X544522Y183477D01*
X543093Y183001D01*
X541665D01*
X540237Y183477D01*
X539761Y183953D01*
X539285Y184905D01*
X446501Y202550D02*
X456499D01*
X446501D02*
Y206835D01*
X446977Y208263D01*
X447453Y208739D01*
X448405Y209215D01*
X449358D01*
X450310Y208739D01*
X450786Y208263D01*
X451262Y206835D01*
Y202550D01*
Y205883D02*
X456499Y209215D01*
X448405Y211453D02*
X447929Y212405D01*
X446501Y213833D01*
X456499D01*
X446501Y219737D02*
Y224974D01*
X450310Y222117D01*
Y223546D01*
X450786Y224498D01*
X451262Y224974D01*
X452690Y225450D01*
X453642D01*
X455071Y224974D01*
X456023Y224022D01*
X456499Y222593D01*
Y221165D01*
X456023Y219737D01*
X455547Y219261D01*
X454595Y218785D01*
X518515Y179715D02*
Y169717D01*
Y179715D02*
X522800D01*
X524228Y179239D01*
X524704Y178763D01*
X525180Y177810D01*
Y176858D01*
X524704Y175906D01*
X524228Y175430D01*
X522800Y174954D01*
X518515D01*
X521848D02*
X525180Y169717D01*
X527418Y177810D02*
X528370Y178287D01*
X529798Y179715D01*
Y169717D01*
X535226Y177334D02*
Y177810D01*
X535702Y178763D01*
X536178Y179239D01*
X537130Y179715D01*
X539035D01*
X539987Y179239D01*
X540463Y178763D01*
X540939Y177810D01*
Y176858D01*
X540463Y175906D01*
X539511Y174478D01*
X534750Y169717D01*
X541415D01*
X523055Y166382D02*
Y156384D01*
Y166382D02*
X527340D01*
X528768Y165906D01*
X529244Y165429D01*
X529720Y164477D01*
Y163525D01*
X529244Y162573D01*
X528768Y162097D01*
X527340Y161621D01*
X523055D01*
X526388D02*
X529720Y156384D01*
X531958Y164477D02*
X532910Y164953D01*
X534338Y166382D01*
Y156384D01*
X539290Y164477D02*
X540242Y164953D01*
X541670Y166382D01*
Y156384D01*
X455550Y238499D02*
Y228501D01*
Y238499D02*
X459835D01*
X461263Y238023D01*
X461739Y237547D01*
X462215Y236595D01*
Y235642D01*
X461739Y234690D01*
X461263Y234214D01*
X459835Y233738D01*
X455550D01*
X458883D02*
X462215Y228501D01*
X464453Y236595D02*
X465405Y237071D01*
X466833Y238499D01*
Y228501D01*
X474641Y238499D02*
X473213Y238023D01*
X472261Y236595D01*
X471785Y234214D01*
Y232786D01*
X472261Y230405D01*
X473213Y228977D01*
X474641Y228501D01*
X475593D01*
X477022Y228977D01*
X477974Y230405D01*
X478450Y232786D01*
Y234214D01*
X477974Y236595D01*
X477022Y238023D01*
X475593Y238499D01*
X474641D01*
X527501Y201978D02*
X537499D01*
X527501D02*
Y206263D01*
X527977Y207691D01*
X528453Y208167D01*
X529405Y208643D01*
X530358D01*
X531310Y208167D01*
X531786Y207691D01*
X532262Y206263D01*
Y201978D01*
Y205311D02*
X537499Y208643D01*
X527501Y215642D02*
X534166Y210881D01*
Y218022D01*
X527501Y215642D02*
X537499D01*
X260001Y76216D02*
X269999D01*
X260001D02*
Y80501D01*
X260477Y81929D01*
X260953Y82405D01*
X261905Y82881D01*
X262858D01*
X263810Y82405D01*
X264286Y81929D01*
X264762Y80501D01*
Y76216D01*
Y79549D02*
X269999Y82881D01*
X262381Y85595D02*
X261905D01*
X260953Y86071D01*
X260477Y86547D01*
X260001Y87499D01*
Y89404D01*
X260477Y90356D01*
X260953Y90832D01*
X261905Y91308D01*
X262858D01*
X263810Y90832D01*
X265238Y89880D01*
X269999Y85119D01*
Y91784D01*
X240001Y73358D02*
X249999D01*
X240001D02*
Y77643D01*
X240477Y79071D01*
X240953Y79548D01*
X241905Y80024D01*
X242858D01*
X243810Y79548D01*
X244286Y79071D01*
X244762Y77643D01*
Y73358D01*
Y76691D02*
X249999Y80024D01*
X241905Y82261D02*
X241429Y83213D01*
X240001Y84642D01*
X249999D01*
X180406Y319499D02*
Y309501D01*
X186119D01*
X187214Y317595D02*
X188166Y318071D01*
X189594Y319499D01*
Y309501D01*
X488757Y265236D02*
X496374D01*
X497802Y264760D01*
X498278Y264284D01*
X498755Y263332D01*
Y262380D01*
X498278Y261428D01*
X497802Y260951D01*
X496374Y260475D01*
X495422D01*
X488757Y270188D02*
X489233Y268759D01*
X490185Y268283D01*
X491137D01*
X492089Y268759D01*
X492565Y269712D01*
X493041Y271616D01*
X493517Y273044D01*
X494470Y273996D01*
X495422Y274472D01*
X496850D01*
X497802Y273996D01*
X498278Y273520D01*
X498755Y272092D01*
Y270188D01*
X498278Y268759D01*
X497802Y268283D01*
X496850Y267807D01*
X495422D01*
X494470Y268283D01*
X493517Y269235D01*
X493041Y270664D01*
X492565Y272568D01*
X492089Y273520D01*
X491137Y273996D01*
X490185D01*
X489233Y273520D01*
X488757Y272092D01*
Y270188D01*
X480001Y72262D02*
X487618D01*
X489047Y71786D01*
X489523Y71310D01*
X489999Y70358D01*
Y69406D01*
X489523Y68454D01*
X489047Y67978D01*
X487618Y67502D01*
X486666D01*
X480001Y81498D02*
X489999Y76738D01*
X480001Y74833D02*
Y81498D01*
X206000Y60499D02*
Y52881D01*
X205524Y51453D01*
X205048Y50977D01*
X204096Y50501D01*
X203144D01*
X202192Y50977D01*
X201716Y51453D01*
X201240Y52881D01*
Y53834D01*
X214284Y59071D02*
X213808Y60023D01*
X212380Y60499D01*
X211428D01*
X210000Y60023D01*
X209047Y58595D01*
X208571Y56214D01*
Y53834D01*
X209047Y51929D01*
X210000Y50977D01*
X211428Y50501D01*
X211904D01*
X213332Y50977D01*
X214284Y51929D01*
X214760Y53358D01*
Y53834D01*
X214284Y55262D01*
X213332Y56214D01*
X211904Y56690D01*
X211428D01*
X210000Y56214D01*
X209047Y55262D01*
X208571Y53834D01*
X127501Y25262D02*
X135119D01*
X136547Y24786D01*
X137023Y24310D01*
X137499Y23358D01*
Y22406D01*
X137023Y21454D01*
X136547Y20978D01*
X135119Y20501D01*
X134166D01*
X127501Y28785D02*
Y34022D01*
X131310Y31166D01*
Y32594D01*
X131786Y33546D01*
X132262Y34022D01*
X133690Y34499D01*
X134642D01*
X136071Y34022D01*
X137023Y33070D01*
X137499Y31642D01*
Y30214D01*
X137023Y28785D01*
X136547Y28309D01*
X135595Y27833D01*
X287405Y59999D02*
Y52382D01*
X286929Y50953D01*
X286453Y50477D01*
X285500Y50001D01*
X284548D01*
X283596Y50477D01*
X283120Y50953D01*
X282644Y52382D01*
Y53334D01*
X289976Y58095D02*
X290928Y58571D01*
X292356Y59999D01*
Y50001D01*
X260001Y57216D02*
X269999D01*
X260001D02*
Y60549D01*
X260477Y61977D01*
X261429Y62929D01*
X262381Y63405D01*
X263810Y63881D01*
X266190D01*
X267619Y63405D01*
X268571Y62929D01*
X269523Y61977D01*
X269999Y60549D01*
Y57216D01*
X262381Y66595D02*
X261905D01*
X260953Y67071D01*
X260477Y67547D01*
X260001Y68499D01*
Y70404D01*
X260477Y71356D01*
X260953Y71832D01*
X261905Y72308D01*
X262858D01*
X263810Y71832D01*
X265238Y70880D01*
X269999Y66119D01*
Y72784D01*
X240001Y56858D02*
X249999D01*
X240001D02*
Y60191D01*
X240477Y61619D01*
X241429Y62571D01*
X242381Y63047D01*
X243810Y63524D01*
X246190D01*
X247619Y63047D01*
X248571Y62571D01*
X249523Y61619D01*
X249999Y60191D01*
Y56858D01*
X241905Y65761D02*
X241429Y66713D01*
X240001Y68142D01*
X249999D01*
X461881Y209572D02*
X460929Y209095D01*
X459977Y208143D01*
X459501Y207191D01*
Y205287D01*
X459977Y204335D01*
X460929Y203382D01*
X461881Y202906D01*
X463310Y202430D01*
X465690D01*
X467118Y202906D01*
X468071Y203382D01*
X469023Y204335D01*
X469499Y205287D01*
Y207191D01*
X469023Y208143D01*
X468071Y209095D01*
X467118Y209572D01*
X462834Y218570D02*
X464262Y218094D01*
X465214Y217141D01*
X465690Y215713D01*
Y215237D01*
X465214Y213809D01*
X464262Y212857D01*
X462834Y212381D01*
X462358D01*
X460929Y212857D01*
X459977Y213809D01*
X459501Y215237D01*
Y215713D01*
X459977Y217141D01*
X460929Y218094D01*
X462834Y218570D01*
X465214D01*
X467595Y218094D01*
X469023Y217141D01*
X469499Y215713D01*
Y214761D01*
X469023Y213333D01*
X468071Y212857D01*
X106572Y241119D02*
X106096Y242071D01*
X105143Y243023D01*
X104191Y243499D01*
X102287D01*
X101335Y243023D01*
X100382Y242071D01*
X99906Y241119D01*
X99430Y239690D01*
Y237310D01*
X99906Y235882D01*
X100382Y234929D01*
X101335Y233977D01*
X102287Y233501D01*
X104191D01*
X105143Y233977D01*
X106096Y234929D01*
X106572Y235882D01*
X115094Y242071D02*
X114618Y243023D01*
X113189Y243499D01*
X112237D01*
X110809Y243023D01*
X109857Y241595D01*
X109381Y239214D01*
Y236834D01*
X109857Y234929D01*
X110809Y233977D01*
X112237Y233501D01*
X112713D01*
X114142Y233977D01*
X115094Y234929D01*
X115570Y236358D01*
Y236834D01*
X115094Y238262D01*
X114142Y239214D01*
X112713Y239690D01*
X112237D01*
X110809Y239214D01*
X109857Y238262D01*
X109381Y236834D01*
D13*
X152500Y45000D02*
D03*
X287500D02*
D03*
X119500Y77502D02*
D03*
D14*
X64251Y140001D02*
D03*
M02*
