M48
;Layer_Color=9474304
;FILE_FORMAT=4:4
METRIC,TZ
;TYPE=PLATED
T1F00S00C0.2000
T3F00S00C1.2000
T4F00S00C2.5000
T5F00S00C2.6000
%
T01
X1544001Y185001
X1564000Y185000
X1584001Y185001
X1623000Y178500
Y171000
Y163500
Y156000
Y148500
X1630000Y140000
X1637500
X1645000
X1652000Y148500
X1660000Y142500
X1680000
X1700000
Y177500
X1652000Y178500
X1645000Y187000
X1637500
X1630000
X1787000Y179500
X1800496Y179600
X1814000Y179500
X1837000Y181000
X1832500Y185500
X1827500Y162500
X1820000Y142500
X1837500
X1800000
X1780000
X1957500Y70500
X1965500
Y65000
Y59500
X1971500
Y65000
Y70500
X1977500
Y65000
Y59500
X1986500
Y65000
Y70500
X1994000
Y65000
Y59500
X2001500
Y65000
Y70500
X2009000
Y65000
Y59500
X2016500
Y65000
Y70500
X2091500
Y65000
Y59500
X2121500
Y65000
Y70500
X2146500
Y65000
Y59500
X2171500
Y65000
Y70500
X2191500
Y65000
Y59500
X2211500
Y65000
Y70500
X2231500
Y65000
Y59500
X2251500
Y65000
Y70500
X2275000
X2281500
Y65000
Y59500
X2196000Y77500
X2191500Y82000
Y88000
X2196000Y92500
X2169000Y89500
X2164500Y85000
X2158500
X2154000Y89500
X2143000Y107500
X2147500Y112000
Y118000
X2143000Y122500
X2148000Y135000
X2141500Y147500
X2133000Y141000
X2125000Y140500
X2120500Y145000
X2114500
X2110000Y140500
X2102500Y148000
X2098000Y152500
X2092000
X2087500Y148000
X2044500Y149000
X2035500Y149000
X2011500Y146500
X1987500
Y173500
X1993500Y175500
Y184500
X2018000Y186000
X2024000
Y180000
X2018000
Y174000
X2024000
X2030000
Y180000
Y186000
X2063500Y171500
X2055000Y111500
X2094000Y98000
X2098500Y102500
X2104500
X2109000Y98000
X2149000Y157000
Y163000
X2155000
Y157000
X2166000Y141500
X2183500Y149500
X2188500Y158500
X2184000Y163000
Y169000
X2188500Y173500
X2139000Y173000
X2133000Y188000
X2384500Y358500
X2382500Y421000
X2390000Y432500
X2382500Y444000
X2390000Y455500
X2382500Y467000
X2390000Y478500
X2382500Y490000
X2384500Y543500
X2365500
X2344500Y542500
Y536500
X2338500
X2332500
Y542500
X2338500
Y548500
X2344500
X2332500
Y530500
X2338500
X2344500
X2316000Y511500
Y505500
X2310000
Y511500
X2304000
Y505500
X2310000Y499500
X2316000
Y493500
X2310000
X2288500Y528500
X2282500
X2276500
Y534500
X2282500
Y540500
X2276500
X2288500
Y534500
X2306500Y548000
X2312500
Y554000
X2306500
X2273000Y559000
Y568000
X2258000
X2211500Y569000
X2205000
Y552500
X2205000Y546500
X2211500
X2211500Y552500
X2211500Y540000
X2205000
X2198500
Y546500
Y533000
X2205000
X2211500
X2211500Y526500
X2205000
X2198500
X2219500Y521500
X2231000Y525500
X2237000
Y531500
X2231000
X2263000Y516000
X2258000Y483000
X2222500Y456000
X2215000
X2183500Y464000
X2179000Y467500
X2182000Y473000
X2167500Y462500
X2170000Y457500
X2159500
X2150500Y460500
X2141000Y457500
X2132500Y460500
X2124178Y461509
X2116000Y457500
X2106500
X2109500Y462500
X2097000Y457500
X2087500
X2078500
X2069500
X2061500Y455000
Y448500
Y442000
X2044000Y439000
X2026500Y437500
X2026500Y445000
Y452500
Y460000
X2046000Y460500
X2061000Y466500
X2039029Y477410
X2018000Y487500
X2005500Y514000
X1998500
X1991500
X1988500Y519500
X2008500
X2014500Y524000
Y530000
Y536000
X2008500Y540500
X2003500Y546500
X1993500
Y556500
X2003500
Y566500
X2011000Y568500
X2021000
X2031000
X2041000
X2051000
X2061000
X2071000
X2081000
X2091000
X2101000
X2108500
X2113500Y566500
X2123500
X2130000Y569000
X2137500
X2146000
Y577500
Y585500
X2133500Y577500
X2123500Y576500
X2113500
X2112000Y584500
X2122500Y586500
X2123500Y556500
X2113500
Y546500
X2123500
X2128500Y540500
X2134500Y536000
Y530000
Y524000
X2128500Y519500
X2125500Y514000
X2118500
X2111500
X2108500Y519500
X2102500Y524000
Y530000
Y536000
X2108500Y540500
X2092000Y520000
X2062000
Y540000
X2032000Y520000
X1988500Y540500
X1987500Y568500
X1993500Y566500
X1996500Y578000
X2006500Y574500
X2012000Y581000
X2002500Y586000
X1989000Y463500
X1986000Y445000
X2007500
X2015000
X2027500Y402500
X2037500Y402500
Y392500
X2027500
X2027500Y382500
X2037500Y382500
X2047500Y382500
Y392500
X2057500
X2057500Y402500
X2047500Y402500
X2067500
X2077500Y402500
X2077500Y392500
X2067500
X2067500Y382500
X2057500Y382500
Y372500
X2067500Y372500
X2067500Y362500
X2067500Y352500
X2057500
X2057500Y362500
X2047500Y362500
Y372500
X2037500
X2027500
X2017500
X2017500Y362500
X2027500
Y352500
Y342500
Y332500
X2017500
X2017500Y342500
X2017500Y352500
X2037500Y352500
X2047500
X2047500Y342500
X2047500Y332500
X2037500Y332500
X2037500Y342500
Y362500
Y322500
X2037500Y312500
X2047500
X2047500Y322500
X2057500Y322500
X2057500Y312500
X2067500
Y322500
X2067500Y332500
X2057500Y332500
X2057500Y342500
X2067500Y342500
X2077500Y342500
Y332500
X2087500Y332500
Y342500
Y352500
X2077500
Y362500
X2087500Y362500
X2087500Y372500
X2077500Y372500
Y382500
X2087500Y382500
X2087500Y392500
X2097500
Y402500
X2087500Y402500
X2087500Y412500
X2077500Y412500
X2067500Y412500
X2097500Y412500
X2107500Y412500
X2107500Y402500
X2117500Y402500
X2117500Y392500
X2107500
Y382500
X2097500Y382500
Y372500
X2107500Y372500
Y362500
X2107500Y352500
X2097500
X2097500Y362500
Y342500
X2097500Y332500
X2107500Y332500
X2107500Y342500
X2117500Y342500
Y332500
X2127500Y332500
Y342500
Y352500
X2117500
Y362500
X2127500Y362500
X2127500Y372500
X2117500Y372500
Y382500
X2127500Y382500
X2127500Y392500
X2137500
Y402500
X2127500Y402500
X2127500Y412500
X2117500Y412500
X2137500
X2147500Y412500
X2157500Y412500
Y402500
X2147500Y402500
Y392500
X2157500
X2167500
X2177500
Y402500
X2167500Y402500
X2167500Y412500
X2177500Y412500
X2187500Y412500
X2187500Y402500
Y392500
Y382500
X2177500Y382500
X2177500Y372500
X2187500Y372500
Y362500
X2187500Y352500
X2177500
X2177500Y362500
X2167500Y362500
X2167500Y352500
X2157500
X2157500Y362500
Y372500
X2167500Y372500
X2167500Y382500
X2157500Y382500
X2147500Y382500
X2137500Y382500
Y372500
X2147500Y372500
Y362500
X2147500Y352500
X2137500
X2137500Y362500
Y342500
X2137500Y332500
X2147500Y332500
X2147500Y342500
X2157500Y342500
X2157500Y332500
X2167500Y332500
X2167500Y342500
X2177500Y342500
X2177500Y332500
X2187500Y332500
X2187500Y342500
X2207500
Y362500
Y382500
Y402500
Y422500
X2241000Y401000
Y392000
X2241000Y383000
X2241000Y374000
X2281000Y372000
X2287000
Y366000
Y360000
X2281000
Y366000
X2282500Y346500
X2299500Y313000
Y307000
X2320500
Y313000
X2330000Y313500
X2335500
X2326500Y284500
Y278000
X2321500Y274000
Y288500
X2346741Y286364
X2344250Y281250
X2341750Y276250
X2344250Y261250
X2341750Y256250
X2336500Y249000
X2330500
X2326000Y245500
X2300500Y243500
X2278500Y249000
X2207500Y242500
Y262500
Y282500
Y302500
Y322500
X2187500
X2187500Y312500
X2177500
X2177500Y322500
X2167500Y322500
Y312500
X2157500
X2157500Y322500
X2147500Y322500
X2147500Y312500
X2137500
X2137500Y322500
X2127500Y322500
Y312500
X2117500
Y322500
X2107500Y322500
Y312500
X2097500
X2097500Y322500
X2087500Y322500
Y312500
X2077500
Y322500
Y302500
Y292500
X2087500Y292500
Y302500
X2097500Y302500
X2097500Y292500
X2107500Y292500
Y302500
X2117500Y302500
Y292500
X2127500Y292500
Y302500
X2137500Y302500
X2137500Y292500
X2147500Y292500
X2147500Y302500
X2157500Y302500
X2157500Y292500
X2167500Y292500
Y302500
X2177500Y302500
X2177500Y292500
X2187500Y292500
X2187500Y302500
Y282500
X2187500Y272500
X2177500
X2177500Y282500
X2167500Y282500
Y272500
X2157500
X2157500Y282500
X2147500Y282500
X2147500Y272500
X2137500
X2137500Y282500
X2127500Y282500
Y272500
X2117500
Y282500
X2107500Y282500
Y272500
X2097500
X2097500Y282500
X2087500Y282500
Y272500
X2077500
Y282500
X2067500Y282500
Y272500
X2057500
X2057500Y282500
X2057500Y292500
X2067500Y292500
Y302500
X2057500Y302500
X2047500Y302500
X2047500Y292500
X2037500Y292500
X2037500Y302500
X2027500Y302500
Y292500
Y282500
Y272500
X2037500
X2047500
X2047500Y282500
X2037500Y282500
X2017500Y282500
X2017500Y292500
X2007500
Y282500
Y272500
X2017500
X2017500Y262500
X2027500
X2037500Y262500
X2047500Y262500
X2047500Y252500
X2057500
X2067500
Y262500
X2057500Y262500
Y242500
X2067500Y242500
X2067500Y232500
X2077500Y232500
X2087500Y232500
X2097500Y232500
X2107500Y232500
X2107500Y222500
X2097500Y222500
X2097500Y212500
X2087500Y212500
X2087500Y222500
X2077500Y222500
Y242500
X2087500Y242500
Y252500
X2077500
Y262500
X2087500Y262500
X2097500Y262500
X2097500Y252500
X2107500
Y262500
X2117500Y262500
Y252500
X2127500
Y262500
X2137500Y262500
X2137500Y252500
X2147500
X2147500Y262500
X2157500Y262500
X2157500Y252500
X2167500
Y262500
X2177500Y262500
X2177500Y252500
X2187500
X2187500Y262500
Y242500
X2177500Y242500
X2177500Y232500
X2167500Y232500
X2157500Y232500
X2157500Y242500
X2167500Y242500
Y222500
X2157500Y222500
Y212500
X2147500Y212500
X2137500Y212500
X2137500Y222500
X2147500Y222500
X2147500Y232500
X2137500Y232500
X2127500Y232500
X2117500Y232500
X2117500Y242500
X2127500Y242500
X2137500Y242500
X2147500Y242500
X2127500Y222500
X2117500Y222500
Y212500
X2107500Y212500
X2106500Y199500
X2117500Y194000
X2126500
X2139000
X2148000
X2167500Y212500
X2177500Y222500
X2187500Y222500
X2187500Y232500
X2127500Y212500
X2107500Y242500
X2097500Y242500
X2027500Y242500
X2017500Y242500
X2007500Y242500
Y262500
X1988000Y272500
Y282500
Y302500
Y312500
X2007500Y312500
Y302500
X2017500Y302500
X2017500Y312500
X2027500Y312500
Y322500
X2017500
X2007500
X1988000Y357500
X1987500Y209000
X1999500Y208500
Y214500
X2006000
Y208500
Y202500
X2007500Y222500
X2027500
X2027500Y232500
X2037500Y222500
X2037500Y212500
X2047500Y212500
X2063500Y198500
X1987500Y196000
X2112000Y487500
X2137500
X2146000Y484500
X2152000
X2165000Y481000
X2167000Y487000
X2177500Y559500
X2183500
X2183500Y565500
Y571500
X2177500
Y565500
X2268000Y415000
Y409000
Y403000
X2274000
Y409000
Y415000
X2281000
Y409000
Y403000
X2287000
Y409000
Y415000
X2294000Y399000
X2314000Y394000
X2314000Y385000
X2314000Y376000
X2374500Y367000
X2360000Y409500
X2362000Y467000
X1982500Y460000
Y454000
X1976500
Y460000
X1973000Y445000
X1970500Y475000
X1972000Y520000
X1982500Y524000
Y530000
Y536000
X1954500
Y530000
Y524000
X1948500Y519500
X1945500Y514000
X1938500
X1931500
X1928500Y519500
X1922500Y524000
Y530000
Y536000
X1928500Y540500
X1933500Y546500
X1943500
Y556500
X1933500
Y566500
X1928000Y568500
X1918500
X1910500Y571500
Y581500
X1925500Y581500
X1940500Y581500
X1935000Y574500
X1948500
X1949000Y568500
X1943500Y566500
X1959000Y568500
X1969000
X1979000
X1982000Y581500
X1956000Y582000
X1948500Y540500
X1929000Y465500
X1901000Y472500
X1910500Y445000
X1912500Y415000
X1913000Y400000
X1917500Y395500
Y389500
X1913000Y385000
X1917500Y380500
Y374500
X1913000Y370000
X1912500Y355000
Y340000
X1913000Y325000
X1917500Y320500
Y314500
X1913000Y310000
X1891500
Y325000
X1892000Y340000
Y355000
X1891500Y370000
X1891500Y385000
X1891500Y400000
X1892000Y415000
X1859000Y375000
X1835000Y370000
X1825000Y367000
X1820000Y359000
Y352500
X1813500
Y359000
X1806500
Y352500
X1800000
X1794000Y352500
Y359000
X1800000Y359000
Y346000
X1806500
X1813500
X1820000
X1835000Y350000
X1850000Y347500
X1856000Y319500
X1835500Y314500
X1824500Y307500
X1815000Y307500
X1795000
X1787000Y305500
Y296500
Y287500
X1795000
X1804750Y290750
X1805500Y280000
X1814000Y287500
X1821000Y285000
X1830500Y292500
X1827500Y298500
X1835000Y267500
Y247500
X1815000
X1795000
X1775000
X1760000Y252000
X1742000
X1725000Y247500
X1705000
X1685000
Y267500
Y287500
Y307500
X1673000Y313500
X1664000
X1645000Y314000
Y307500
X1637500Y314000
X1630000
X1625000Y307500
X1623000Y322500
Y330000
Y337500
Y345000
Y352500
X1630000Y361000
X1637500
X1645000
X1660000Y361000
X1652000Y352500
X1658000Y346500
X1668000Y346500
X1678000Y346500
X1687500Y346500
X1695000
X1700000Y361000
X1680000
X1687500Y378000
Y384000
X1693500Y378000
X1718500Y377500
Y390500
X1727500Y388000
Y382000
X1738000Y383000
X1747000
X1756000
X1776000Y386000
X1784500Y394000
X1787000Y405000
X1781000Y405000
X1775000
Y411000
X1781000
X1787000Y411000
X1775000Y417000
Y423000
X1777500Y434000
Y440500
Y447000
X1794000Y439000
X1800000Y439000
Y432500
X1794000Y432500
X1806500Y432500
Y439000
X1813500
Y432500
X1820000
Y439000
X1825000Y445500
X1821000Y458500
X1815000
Y464500
X1821000
X1827500Y485000
X1807500
X1787500
X1767500
X1747500
X1738000Y481000
X1725000Y485000
X1705000
X1685000
X1665000
X1645000
Y476000
X1637500
X1630000
X1625000Y485000
X1623000Y467500
Y460000
Y452500
Y445000
Y437500
X1630000Y429000
X1637500
X1645000
Y420000
X1659500Y423000
X1668500Y423000
X1677500
X1678000Y443500
X1688000Y443500
X1693000Y439000
X1698000Y443500
X1708000Y443500
X1718000Y443500
X1712000Y436500
X1702500Y433000
Y427000
X1712000Y423500
Y411000
Y403000
X1698500
X1652000Y405500
X1650500Y392000
X1653000Y385500
X1645000Y380000
X1625000
Y400000
X1637000Y395000
X1625000Y420000
X1652000Y437500
X1658000Y443500
X1668000Y443500
X1708000Y461000
X1722218Y465142
X1747000Y462500
X1754500Y439000
Y433000
X1736000Y429000
X1727000Y435500
X1754000Y406000
X1804500Y402500
X1804500Y394000
X1815000Y384500
Y378500
X1821000
Y384500
X1824500Y394000
X1820000Y426000
X1813500
X1806500
X1800000
X1777500Y367000
Y360500
Y354000
X1762000Y351000
X1744000
X1726000
X1726500Y331000
X1720000
X1713500
X1707000
X1707000Y324500
X1707000Y318000
X1713500
X1720000
Y324500
X1726500Y318000
X1733000
X1733000Y324500
X1733000Y331000
X1739500
X1746000
X1746000Y324500
X1746000Y318000
X1739500
X1733000Y311500
Y305000
X1739500
X1746000
Y298500
Y292000
X1739500Y292000
X1733000Y292000
Y298500
X1726500Y292000
X1720000
Y298500
Y305000
X1713500
X1707000
Y298500
Y292000
X1713500
X1707000Y311500
X1720000
X1726500Y305000
X1746000Y311500
X1765500Y317500
Y305500
X1778500Y317500
X1787000Y278500
X1795000Y267500
X1775000
X1760000Y273000
X1737500Y274000
X1665000Y267500
X1645000
Y247500
X1665000
X1667000Y223900
X1680496Y223800
X1694000Y223900
Y204900
X1680496Y205000
X1667000Y204900
X1645000Y202500
X1625000
Y222500
X1645000
X1625000Y247500
Y267500
Y287500
X1645000
X1665000
X1673000Y325500
X1687500Y329500
X1652000Y322500
X1649500Y514000
X1656500
X1663500
X1666500Y519500
X1672500Y524000
Y530000
Y536000
X1666500Y540500
X1661500Y546500
X1651500
Y556500
X1661500
Y566500
X1667000Y568500
X1666500Y574500
X1653000
X1651500Y566500
X1646000Y568500
X1636500
X1628500Y571500
Y581500
X1643500Y581500
X1658500Y581500
X1674000Y582000
X1677000Y568500
X1687000
X1697000
X1705500
X1711500Y566500
X1721500
X1729000Y568500
X1739000
X1749000
X1759000
X1769000
X1779000
X1789000
X1799000
X1809000
X1819000
X1826500
X1831500Y566500
X1841500
X1848000Y569000
X1855500
X1864000
Y577500
Y585500
X1851500Y577500
X1841500Y576500
X1831500
X1830000Y584500
X1840500Y586500
X1841500Y556500
X1831500
Y546500
X1841500
X1846500Y540500
X1852500Y536000
Y530000
Y524000
X1846500Y519500
X1843500Y514000
X1836500
X1829500
X1826500Y519500
X1820500Y524000
Y530000
Y536000
X1826500Y540500
X1810000Y520000
X1780000
Y540000
X1750000Y520000
X1732500Y524000
Y530000
Y536000
X1726500Y540500
X1721500Y546500
X1711500
Y556500
X1721500
X1724500Y574500
X1730000Y581000
X1720500Y586000
X1714500Y578000
X1700000Y581500
X1700500Y536000
Y530000
Y524000
X1706500Y519500
X1709500Y514000
X1716500
X1723500
X1726500Y519500
X1690000Y520000
X1706500Y540500
X1646500
X1640500Y536000
Y530000
Y524000
X1646500Y519500
X1620000Y520000
Y540000
X1847500Y485000
X1874500Y359000
X1866500Y293500
X1861000Y280500
X1885000Y280000
Y270000
X1891500Y275000
Y285000
X1891500Y245000
Y230000
X1913000
X1917500Y234500
Y240500
X1913000Y245000
X1965000Y211000
X1971000Y317500
X1966500Y377500
X1971000Y382000
Y388000
X1966500Y392500
X1815000Y267500
X1835000Y222500
Y205000
X1837000Y196000
X1832500Y191500
X1814000Y198500
X1800496Y198400
X1787000Y198500
X1780500Y223000
X1584001Y225001
Y245001
Y265001
Y285001
Y305001
Y325001
Y345001
Y365001
Y385001
Y405001
Y425001
Y445001
Y465001
X1564000Y465000
X1544001Y465001
Y445001
Y425001
Y405001
Y385001
Y365001
Y345001
Y325001
Y305001
Y285001
Y265001
Y245001
Y225001
Y205001
X1584001
X1628500Y591500
Y601500
Y611500
Y621500
Y631500
Y641500
Y651500
Y661500
Y671500
Y681500
Y691500
Y701500
Y711500
Y721500
Y731500
Y741500
X1638000Y743000
X1644500Y750500
X1631500Y751000
X1628500Y761500
X1638500
X1648500
X1658500
Y750500
X1652000Y743000
X1645000Y736000
X1652000Y729000
X1658500Y723500
X1643500Y721500
Y701500
X1657500Y701250
X1663500
X1669500
X1671500Y677750
X1661500
X1651500Y675000
X1643750
X1643500Y661500
X1659000Y660500
Y652500
Y644500
X1661500Y636000
X1661000Y628500
X1656500Y621500
X1661500Y616500
X1665500Y611000
X1656500Y611500
X1655000Y604000
X1649500
X1643500Y601500
Y621500
Y641500
X1673000Y644500
Y652500
Y660500
X1686500Y653500
X1693000Y659500
X1700500Y653500
X1706500Y659500
X1711000Y651000
X1714000Y640000
X1715500Y630000
X1724000Y625500
X1723500Y614500
X1724000Y606000
X1718000Y602500
X1715500Y611000
X1706000Y617000
Y624000
X1699000
Y617000
X1689000Y611000
X1684000Y605500
Y597000
X1673000
X1665500
X1666000Y589000
X1680500
X1693500Y587500
X1694500Y598000
X1702500
X1716500Y590500
X1724000Y596500
X1734000Y602000
Y612000
X1731500Y621000
X1749000Y628500
Y608500
Y588500
X1734000Y590500
X1769000Y588500
X1789000
X1809000
X1824500Y590000
X1820000Y599000
X1833000
X1837500Y594000
X1851500Y595500
X1864000
Y605500
Y615500
Y625500
Y635500
Y645500
Y655500
Y665500
Y675500
Y685500
Y695500
Y705500
Y715500
Y725500
Y735500
Y745500
Y755500
Y765500
X1854821Y770250
X1847750
Y763179
X1840500Y762500
X1834000Y764500
Y752500
Y742500
X1832000Y731500
X1820000Y731500
X1821000Y720000
X1836000
Y704500
X1821000
X1810500Y711500
X1803000Y705500
X1788000
X1794000Y711500
X1801000Y719000
X1784500
X1774500Y715000
X1770500Y722000
X1765500Y717000
X1765000Y708500
X1759500
X1749000Y702000
X1738000Y701500
X1736000Y686500
X1724500Y683500
Y677500
X1718500Y683500
X1709500Y684000
X1714000Y692500
X1721500Y702500
X1729000Y710000
Y720000
Y730000
X1719000
Y720000
X1739000
Y730000
X1748000Y731500
X1752000Y721500
X1765500Y727000
X1769500Y731500
X1779000Y735000
X1780500Y742000
X1787500Y740500
X1793000Y735000
X1808500Y735000
X1802000Y743750
X1797000Y748750
X1797000Y756500
X1789500
X1792250Y768750
X1797750Y772750
X1785000Y773500
X1781500Y769000
X1774000Y762250
X1763000Y767000
Y773000
X1774000Y779500
X1773750Y798750
X1771500Y805000
Y818000
Y828500
X1761500Y828000
X1761500Y815500
X1751500Y811000
X1741000Y810000
X1741500Y820750
X1751500Y822750
X1751500Y841000
Y851000
Y861000
Y871000
Y881000
X1741500
Y871000
Y861000
Y851000
Y841000
X1740750Y832750
X1735750Y827750
X1727321Y827750
X1720250
Y834821
X1721500Y841500
Y851500
X1721500Y860000
X1731500Y866000
Y876000
X1721500
X1721500Y884500
Y893500
X1719000Y902000
X1712000Y909000
X1711500Y922000
X1721500Y922500
X1721500Y933500
X1711500
Y943500
X1721500
Y953500
X1711500
X1706500Y959500
X1700500Y964000
Y970000
X1700500Y976000
X1706500Y980500
X1726500
X1732500Y976000
X1732500Y970000
Y964000
X1726500Y959500
X1732000Y931500
X1742000
X1752000
X1762000
X1763000Y921500
X1776000Y920000
X1782500Y910000
X1791000Y914500
X1800500Y916500
X1809000
X1817000
X1825500
X1835000Y914500
X1843500Y910000
X1850500Y903000
X1854500Y894000
Y884000
X1854500Y874000
X1859000Y866000
X1864000Y861000
X1864000Y852000
X1864500Y843000
X1854000
X1854500Y852000
X1854000Y861000
X1843000Y868000
X1828500Y871000
Y877000
Y865000
X1828500Y852000
X1835500Y852500
X1835000Y841000
X1825000
X1813000Y842000
X1801000Y841000
X1791000
X1790500Y852500
X1797500Y852000
Y859000
Y865000
Y871000
X1810000Y868000
X1816000
X1820000Y852000
X1806000
X1801000Y828000
X1791000
X1791000Y818250
X1786250Y808250
X1791250Y803250
X1796250Y808250
X1805750Y799250
X1811750Y792821
Y785750
Y770250
Y763179
X1820500Y768500
X1826000Y777500
X1831000
X1826000Y782500
X1840500Y791500
Y798500
Y805500
X1833500
X1833500Y814500
X1840250
X1846500Y815000
X1851500Y810000
X1856500Y815000
X1857000Y804500
X1867000
Y785500
X1854821Y784750
X1847750
Y791821
X1846500Y802000
X1843000Y828000
X1835000Y828000
X1827000Y828000
X1812000Y827000
X1809500Y817250
X1786540Y795816
X1795000Y786250
X1761500Y796000
X1755500Y794000
X1751500Y799000
X1741500
X1737500Y794000
X1746500Y782500
X1735000Y770000
Y764000
Y758000
X1741500Y757000
X1738000Y748000
X1731000
X1732000Y741000
X1720000Y740000
X1706500Y743500
X1706500Y756500
X1695750
Y748750
X1690750Y743750
X1683500Y744000
X1675500Y747000
X1676105Y763332
X1682750Y765750
X1685168Y759105
X1695750Y764250
X1695250Y770750
X1693500Y783500
X1688500Y789000
X1693500Y794000
X1683500
X1678000Y797250
Y804250
X1671000
X1671000Y813250
X1677750
X1683500Y809000
X1693500Y805000
X1707250Y802000
X1709668Y808645
X1713895Y799582
X1720750Y799500
X1719500Y779500
X1720000Y770500
X1710000
X1706500Y784500
X1678000Y790250
X1668500Y781250
X1663500
Y776250
X1668500
X1653500Y767500
X1643500Y776750
X1638500Y771750
Y781750
X1628500Y781500
Y771500
Y791500
Y801500
Y811500
Y821500
Y831500
Y841500
Y851500
Y861500
X1638500
Y851500
Y841500
X1642500Y835000
X1638500Y830000
X1638500Y821500
Y811500
Y801500
X1638508Y794110
X1643508Y789110
X1649500Y786000
X1648508Y794110
X1649000Y830000
X1657500Y827500
X1667500
Y840500
X1657500
Y852500
X1664500Y852000
Y858500
Y864500
Y870500
X1677000Y867500
X1683000
X1695500Y864500
Y870500
Y876500
X1691500Y883500
X1702500
X1701000Y896500
X1690500
X1680000Y896500
X1669500Y896500
X1659000
X1650000Y891500
X1638500Y893500
Y884500
X1638500Y876000
X1628500Y871500
Y881500
Y891500
Y901500
Y911500
Y921500
X1628500Y931500
X1638500
X1648500
X1658500
X1668500
X1678500
X1688500
X1698500
X1702000Y914000
X1690500Y916500
X1680000
X1669500
X1658000Y914000
X1648000Y909000
X1641000Y902000
X1641500Y920000
X1650000Y950000
X1620000
Y980000
X1650000
X1680000
Y950000
Y883500
X1668500
X1657500
X1650000Y867500
X1649500Y845000
X1672500Y852000
X1687500
X1695500
X1702500Y852500
Y840500
X1692500
Y827500
X1702500
X1711000Y830000
X1710500Y845000
X1710000Y867500
X1710000Y891500
X1731500Y896000
Y886000
X1743000Y892500
X1754000Y892000
X1759500Y902500
X1747000
X1754000Y912000
X1767000Y910500
X1775500Y903000
X1771500Y894000
Y884000
X1771500Y876500
X1761500Y876000
Y866000
Y856000
Y846000
X1772000Y843500
X1771500Y852000
Y862000
X1783000Y868000
X1782500Y845500
X1790500Y884000
X1795500Y888000
X1802000
Y902000
X1795000Y901500
X1788000Y898000
X1783000Y892000
X1813000Y895000
X1824000Y888000
X1830500
X1835500Y884000
X1843000Y892000
X1838000Y898000
X1831000Y901500
X1824000Y902000
X1828500Y931500
X1818500
X1808500
X1798500
X1788500
X1781500Y933500
X1771500
Y943500
Y953500
X1781500
Y943500
X1786500Y959500
X1792500Y964000
Y970000
X1792500Y976000
X1786500Y980500
X1766500
X1760500Y976000
X1760500Y970000
Y964000
X1766500Y959500
X1810000Y950000
X1840000
X1838500Y931500
X1848500
X1858500
X1864000Y928500
X1864000Y921000
Y911000
Y901000
Y891000
Y881000
Y871000
X1843500Y845500
X1851000Y835500
X1864500Y823000
X1888000Y799500
Y788000
Y770500
Y760000
X1910500Y761500
Y771500
Y781500
Y791500
Y801500
Y811500
Y821500
Y831500
Y841500
X1920500
Y851500
Y861500
X1910500
Y871500
Y881500
Y891500
Y901500
Y911500
Y921500
X1910500Y931500
X1920500
X1930500
X1940500
X1950500
X1960500
X1970500
X1980500
X1984000Y914000
X1972500Y916500
X1962000
X1951500
X1940000Y914000
X1930000Y909000
X1923000Y902000
X1920500Y893500
Y884500
X1920500Y876000
X1932000Y867500
X1946500Y870500
Y864500
Y858500
Y852000
X1939500Y852500
Y840500
X1949500
Y827500
X1939500
X1931000Y830000
X1920500
X1920500Y821500
Y811500
Y801500
X1920508Y794110
X1930508
X1931500Y786000
X1925508Y789110
X1920500Y781750
Y771750
X1925500Y776750
X1935500Y767500
X1930500Y761500
X1940500
Y750500
X1934000Y743000
X1927000Y736000
X1934000Y729000
X1940500Y723500
X1925500Y721500
X1910500Y721500
Y731500
Y741500
X1920000Y743000
X1926500Y750500
X1913500Y751000
X1920500Y761500
X1958105Y763332
X1964750Y765750
X1967168Y759105
X1977750Y756500
Y748750
X1972750Y743750
X1965500Y744000
X1957500Y747000
X1959500Y720000
X1977000Y717500
Y700000
Y685000
X1966928Y676049
X1953500Y677750
X1943500
X1933000Y675500
X1925750Y675000
X1925500Y661500
X1910500Y661500
Y671500
Y681500
Y691500
Y701500
Y711500
X1925500Y701500
X1939500Y701250
X1945500
X1951500
X1955000Y660500
Y652500
Y644500
X1956500Y636000
Y628500
X1943000
X1943500Y636000
X1941000Y644500
Y652500
Y660500
X1966000Y653500
X1973500Y659500
X1982500Y653500
X1978500Y641500
X1971000Y630000
X1981000Y624000
Y617000
X1971000Y611000
X1966000Y605500
Y597000
X1955000
X1947500
X1948000Y589000
X1962500
X1975500Y587500
X1976500Y598000
X1947500Y611000
X1938500Y611500
X1937000Y604000
X1931500
X1925500Y601500
X1910500Y601500
Y611500
Y621500
Y631500
Y641500
Y651500
X1925500Y641500
Y621500
X1938500Y621500
X1943500Y616500
X1910500Y591500
X1851500Y615500
X1835500Y615500
Y623500
X1821500
Y615500
X1809000Y608500
X1789000
X1769000
Y628500
Y648500
X1779000Y640500
X1785000Y646500
X1801500Y646000
Y626000
X1823000Y641000
X1834000
X1851500Y635500
Y655500
Y675500
Y695500
X1844000Y690000
X1834000Y687000
X1823000
X1809385Y689062
X1792500Y689000
X1797500Y677500
X1776000Y672500
X1770000Y678500
Y687500
Y693500
X1776000
X1774500Y702000
X1749000Y688500
X1742500Y670500
X1732500Y673000
X1732000Y658000
X1720500Y660500
X1722500Y648500
X1749000Y648500
X1758500Y669000
X1703000Y677000
X1695000Y685000
Y700000
Y717500
X1677500Y720000
X1684910Y675910
X1696500Y641500
X1689000Y630000
X1674500Y628500
Y636000
X1825000Y663750
X1831000
X1837000
X1851500Y715500
Y735500
X1846500Y752500
X1857000Y758500
X1872000Y773500
X1823000Y755000
Y746000
X1765000Y755000
X1730750Y774250
X1728000Y817000
X1716500
X1697500Y818500
X1680000Y826500
Y834000
Y841500
X1730750Y832750
X1727500Y910500
X1741500Y920000
X1851500
X1840000Y980000
X1810000
X1932000
X1962000
X1982500Y976000
X1982500Y970000
Y964000
X1962000Y950000
X1932000
X1902000
X1923500Y920000
X1932000Y891500
X1941000Y896500
X1951500
X1962000Y896500
X1972500Y896500
X1983000
X1973500Y883500
X1977500Y876500
Y870500
Y864500
X1977500Y852000
X1969500
X1954500
X1962000Y841500
Y834000
Y826500
X1974500Y827500
Y840500
X1979500Y818500
X1975500Y805000
Y794000
X1965500
X1960000Y797250
Y804250
X1953000
X1953000Y813250
X1959750
X1965500Y809000
X1960000Y790250
X1970500Y789000
X1975500Y783500
X1977250Y770750
X1977750Y764250
X1950500Y776250
Y781250
X1945500
Y776250
X1924500Y835000
X1931500Y845000
X1910500Y851500
X1939500Y883500
X1950500
X1962000
X1965000Y867500
X1959000
X1992000Y867500
X2003500Y860000
X2003500Y851500
Y841500
X2002250Y834821
Y827750
X2009321
X2012750Y832750
X2022750
X2023500Y841000
Y851000
Y861000
Y871000
Y881000
X2033500
Y871000
Y861000
Y851000
Y841000
X2043500Y846000
Y856000
Y866000
Y876000
X2053500Y876500
X2053500Y884000
Y894000
X2057500Y903000
X2064500Y910000
X2073000Y914500
X2082500Y916500
X2091000
X2099000
X2107500
X2117000Y914500
X2125500Y910000
X2132500Y903000
X2136500Y894000
Y884000
X2136500Y874000
X2146000Y871000
Y861000
X2146000Y852000
X2146500Y843000
X2136000
X2136500Y852000
X2136000Y861000
X2141000Y866000
X2125000Y868000
X2110500Y871000
Y877000
Y865000
X2110500Y852000
X2117500Y852500
X2117000Y841000
X2107000
X2095000Y842000
X2083000Y841000
X2073000
X2072500Y852500
X2079500Y852000
Y859000
Y865000
Y871000
X2092000Y868000
X2098000
X2102000Y852000
X2088000
X2083000Y828000
X2073000
X2073000Y818250
X2068250Y808250
X2078250
X2073250Y803250
X2068540Y795816
X2055750Y798750
X2053500Y805000
Y818000
Y828500
X2043500Y828000
X2043500Y815500
X2033500Y811000
X2023000Y810000
X2023500Y820750
X2033500Y822750
X2017750Y827750
X2010000Y817000
X1998500
X1991669Y808645
X1989250Y802000
X1995895Y799582
X2002750Y799500
X2023500Y799000
X2019500Y794000
X2037500
X2043500Y796000
X2033500Y799000
X2028500Y782500
X2017000Y770000
Y764000
Y758000
X2023500Y757000
X2020000Y748000
X2013000
X2014000Y741000
X2002000Y740000
X2001000Y730000
Y720000
X2011000
Y730000
X2021000
Y720000
X2034000Y721500
X2030000Y731500
X2051500
X2047500Y727000
Y717000
X2047000Y708500
X2041500
X2031000Y702000
X2020000Y701500
X2018000Y686500
X2006500Y683500
X2000500
X1991500Y684000
X1996000Y692500
X2003500Y702500
X2011000Y710000
X2006500Y677500
X2014500Y673000
X2024500Y670500
X2040500Y669000
X2052000Y678500
Y687500
Y693500
X2058000
X2056500Y702000
Y715000
X2052500Y722000
X2066500Y719000
X2083000
X2076000Y711500
X2070000Y705500
X2085000
X2092500Y711500
X2103000Y704500
X2118000
Y720000
X2103000
X2102000Y731500
X2114000Y731500
X2116000Y742500
Y752500
Y764500
X2122500Y762500
X2129750Y763179
Y770250
X2136821
X2139000Y758500
X2146000Y755500
Y765500
X2154000Y773500
X2149000Y785500
X2136821Y784750
X2129750
Y791821
X2122500Y791500
Y798500
Y805500
X2115500
X2115500Y814500
X2122250
X2128500Y815000
X2138500
X2133500Y810000
X2139000Y804500
X2149000
X2146500Y823000
X2167500Y827500
Y837500
Y847500
X2173500Y852500
Y842500
Y832500
X2190000Y830000
Y840000
Y850000
X2200000
X2210000
Y840000
Y830000
X2200000
Y840000
X2202500Y866000
X2192500
X2197500Y881000
X2210000Y887000
X2208000Y892500
X2214000
Y903500
X2208000
X2214000Y912500
X2197000
X2176000
X2146000Y911000
Y921000
X2146000Y928500
X2140500Y931500
X2130500
X2120500
X2110500
X2100500
X2090500
X2080500
X2070500
X2063500Y933500
X2053500
Y943500
X2063500
Y953500
X2053500
X2048500Y959500
X2042500Y964000
Y970000
X2042500Y976000
X2048500Y980500
X2068500
X2074500Y976000
X2074500Y970000
Y964000
X2068500Y959500
X2092000Y950000
Y980000
X2122000
Y950000
X2156000
Y980000
X2179500Y941500
X2203500
X2201000Y933000
X2217500Y941500
X2241500
X2239000Y933000
X2243000Y912500
X2235000Y912500
X2243000Y903500
X2249000Y881000
X2258000
X2264000Y876000
Y886000
X2280000Y883500
Y893500
X2290000
Y883500
Y873500
X2280000
X2300000
Y883500
Y893500
X2298500Y914500
X2304000Y919000
X2292500Y909500
X2293500Y941500
X2279500
X2277000Y933000
X2255500Y941500
X2317500
X2315000Y933000
X2326000Y896000
X2329500Y891000
X2333000Y886000
X2307500Y855000
X2297500
X2287500
X2277500
X2282500Y845000
X2292500
X2302500
X2311500
X2297500Y828000
X2288500
X2288500Y809500
X2299500
X2297500Y793000
X2288500
X2288500Y774500
X2299500
X2297500Y758000
X2288500
X2288500Y739500
X2299500
X2297500Y723000
X2288500
X2288500Y704500
X2299500
X2310000Y693000
Y684000
Y675000
Y666000
Y657000
Y648000
X2302500Y643000
X2295000
X2299000Y638000
X2285000Y632000
Y626000
Y620000
X2279000
X2273000
Y626000
Y632000
X2279000
Y626000
X2277500Y605500
X2285000
X2261500Y600500
Y594500
Y589000
X2248000
Y594500
Y600500
X2237000Y600000
Y594000
X2231000
Y600000
X2211500Y601500
X2205000
X2198500
Y595000
X2205000
X2211500
X2211500Y608500
X2205000
X2198500
Y615000
X2205000
X2205000Y621000
X2211500
X2211500Y615000
X2210500Y637500
X2204000
X2183500Y640000
Y634000
X2183500Y628000
X2177500
Y634000
Y640000
X2175000Y610500
X2146000Y615500
Y625500
Y635500
Y645500
Y655500
Y665500
Y675500
Y685500
Y695500
Y705500
Y715500
Y725500
Y735500
Y745500
X2133500Y735500
Y715500
Y695500
X2125500Y690000
X2116000Y687000
X2105000
X2091035Y689123
X2074500Y689000
X2079500Y677500
X2058000Y672500
X2051000Y648500
X2067000Y646500
X2061000Y640500
X2051000Y628500
Y608500
X2071000
X2091000
X2103500Y615500
Y623500
X2117500
Y615500
X2133500Y615500
Y635500
Y655500
Y675500
X2119000Y663750
X2113000
X2107000
X2105000Y641000
X2116000
X2083500Y646000
Y626000
X2091000Y588500
X2106500Y590000
X2102000Y599000
X2115000
X2119500Y594000
X2133500Y595500
X2146000
Y605500
X2071000Y588500
X2051000
X2031000
X2016000Y590500
Y602000
Y612000
X2013500Y621000
X2006000Y625500
X2005500Y614500
X2006000Y606000
X2000000Y602500
X1997500Y611000
X1988000Y617000
Y624000
X1997500Y630000
X1996000Y640000
X1993000Y651000
X1988500Y659500
X2002500Y660500
X2014000Y658000
X2004500Y648500
X2031000Y648500
Y628500
Y608500
X2006000Y596500
X1998500Y590500
X1984500Y598000
X1985000Y677000
X2031000Y688500
X2061000Y735000
X2062500Y742000
X2069500Y740500
X2075000Y735000
X2090500Y735000
X2084000Y743750
X2079000Y748750
X2079000Y756500
X2071500
X2074250Y768750
X2079750Y772750
X2067000Y773500
X2063500Y769000
X2056000Y762250
X2045000Y767000
Y773000
X2056000Y779500
X2077000Y786250
X2093750Y785750
Y792821
X2087750Y799250
X2091500Y817250
X2094000Y827000
X2109000Y828000
X2117000Y828000
X2125000Y828000
X2133000Y835500
X2128500Y802000
X2108000Y782500
Y777500
X2113000
X2102500Y768500
X2093750Y770250
Y763179
X2105000Y755000
Y746000
X2128500Y752500
X2174907Y783907
X2208000Y784000
X2214500Y783750
X2220500Y788000
Y795000
X2221750Y775000
X2227250
Y766000
X2221750
Y757000
X2227250
X2248750
Y766000
Y775000
X2272000Y779500
X2267500Y784500
X2273500Y799000
X2272000Y814500
X2267500Y819500
X2273500Y834000
X2232500Y832500
X2226500Y827500
X2212500Y813500
X2202500
X2192500
X2207500Y807500
X2243000Y852000
X2229000Y887000
X2220000
X2146000Y891000
Y901000
Y881000
X2117500Y884000
X2112500Y888000
X2106000
Y902000
X2113000Y901500
X2120000Y898000
X2125000Y892000
X2095000Y895000
X2084000Y888000
X2077500
X2072500Y884000
X2065000Y892000
X2070000Y898000
X2077000Y901500
X2084000Y902000
X2041500Y902500
X2029000
X2025000Y892500
X2036000Y892000
Y912000
X2049000Y910500
X2045000Y921500
X2044000Y931500
X2034000
X2024000
X2014000
X2003500Y933500
X1993500
Y943500
Y953500
X2003500
Y943500
X2008500Y959500
X2014500Y964000
Y970000
X2014500Y976000
X2008500Y980500
X1988500
Y959500
X1993500Y922000
X2003500Y922500
X2009500Y910500
X2001000Y902000
X2003500Y893500
Y884500
X2003500Y876000
X2013500
Y886000
Y896000
X1992000Y891500
X1984500Y883500
Y852500
Y840500
X1992500Y845000
X1993000Y830000
X1984500Y827500
X1988500Y784500
X1992000Y770500
X1988500Y756500
X1988500Y743500
X2001500Y779500
X2012750Y774250
X2047000Y755000
X2054000Y843500
X2053500Y852000
Y862000
X2065000Y868000
X2064500Y845500
X2013500Y866000
X1994000Y909000
X2023500Y920000
X2058000
X2133500
X2177500Y708500
Y702500
Y696500
X2183500
X2183500Y702500
Y708500
X2189500
X2195500
X2206500Y706000
X2213000
X2219500
X2218000Y714250
Y720250
X2224000
Y714250
X2211500Y689500
X2211500Y683500
X2205000
X2205000Y689500
X2205000Y677000
X2211500
Y670000
X2205000
Y663500
X2198500
Y670000
Y677000
Y683500
X2175000Y679000
X2211500Y663500
X2219500Y658500
X2238000Y641000
X2272000Y709500
X2267500Y714500
X2273500Y729000
X2272000Y744500
X2270000Y753000
X2273500Y764000
X2323500Y624000
Y618000
Y611500
Y606000
X2065500Y986000
X2058500
X2051500
X2005500Y986000
X1998500
X1991500
X1783500Y986000
X1776500
X1769500
X1723500Y986000
X1716500
X1709500
T03
X2337500Y367500
Y392900
Y418300
Y443700
Y469100
Y494500
X2352100Y570000
X2377500
Y595400
Y620800
Y646200
Y671600
Y697000
Y722400
Y747800
Y773200
Y798600
Y824000
Y849400
X2352100
Y824000
Y798600
Y773200
Y747800
Y722400
Y697000
Y671600
Y646200
Y620800
Y595400
Y874800
X2377500
Y900200
X2352100
T04
X1888000Y525000
Y975000
T05
X2237500Y322500
M30
