M48
;Layer_Color=9474304
;FILE_FORMAT=4:4
METRIC,TZ
;TYPE=PLATED
T1F00S00C0.2000
T2F00S00C2.6000
%
T01
X51672Y7224
X57109Y11841
X46531Y41140
X36977Y39707
X30000Y40000
Y60000
Y68000
Y86000
Y100000
Y124000
Y132000
Y156000
Y168000
Y212000
Y236000
Y256000
X111500Y259000
X130000Y242500
X131000Y218000
Y211500
X137500Y218000
Y224500
X136500Y173500
X138606Y167397
X139500Y161000
X89224Y171382
X86619Y186154
X84014Y200926
X81409Y215699
X72132Y153137
X74737Y138365
X77342Y123593
X79500Y109500
X67500Y87500
X50000Y95000
X60685Y55948
X64641Y51136
X91377Y44672
X87148Y39864
X88363Y32970
X93982Y29899
X93367Y15995
X120000Y45000
X117000Y74500
X110500
X123500
Y81000
X130000
Y87500
X162963Y85380
X165500Y62000
X165528Y55370
X158500Y58500
X175000Y40000
Y32500
X182500
Y40000
X220000Y32500
X212000Y21000
X254594Y21597
X277186Y30810
X280000Y70000
X290000
Y80000
X280000
X270000
Y70000
X260000
Y80000
X250000
Y70000
X240000
Y80000
X230000
Y70000
X220000
Y80000
X210000
Y70000
Y90000
X220000
X230000
X240000
X250000
X260000
X270000
X280000
X290000
Y100000
X280000
X270000
X260000
X250000
X240000
X230000
X220000
X210000
Y110000
Y120000
X220000
X230000
X240000
X250000
X260000
X270000
X280000
X290000
Y110000
X280000
X270000
X260000
X250000
X240000
X230000
X220000
Y130000
X230000
X240000
X250000
X260000
X270000
X280000
X290000
Y140000
X280000
X270000
X260000
X250000
X240000
X230000
X220000
X210000
Y130000
Y150000
Y160000
X220000
X230000
X240000
X250000
X260000
X270000
X280000
X290000
Y150000
X280000
X270000
X260000
X250000
X240000
X230000
X220000
Y170000
X230000
X240000
X250000
X260000
X270000
X280000
X290000
Y180000
X280000
X270000
X260000
X250000
X240000
X230000
X220000
X210000
Y170000
Y190000
Y200000
X220000
X230000
X240000
X250000
X260000
X270000
X280000
X290000
Y190000
X280000
X270000
X260000
X250000
X240000
X230000
X220000
Y210000
X230000
X240000
X250000
X260000
X270000
X280000
X290000
Y220000
X280000
X270000
X260000
X250000
X240000
X230000
X220000
X210000
X200000
Y230000
X190000
Y240000
X180000
Y250000
X190000
X200000
X210000
X220000
X230000
X240000
X250000
X260000
X270000
X280000
X290000
Y260000
X280000
X270000
X260000
X250000
X240000
X230000
X220000
X210000
X200000
X190000
X180000
X184000Y270000
X206000
X234000
X256000
X270000Y270000
X280000
X290000
Y240000
X280000
X270000
X260000
X250000
X240000
X230000
X220000
X210000
X200000
X210000Y230000
X220000
X230000
X240000
X250000
X260000
X270000
X280000
X290000
X210000Y210000
X174000Y106500
X165000Y115000
X162000Y8000
X156000
X81500Y73500
X300000Y70000
X310000
X320000
X330000
X340000
Y80000
X350000
Y90000
X360000
X370000
X380000
Y100000
X390000
Y92500
X400000
Y100000
X410000
Y92500
X420000
X430000
X440000
X450000
X450000Y77500
X440000
X430000
X420000
X410000
X400000
X390000
X380000Y70000
X370000
X360000Y60000
X350000Y50000
Y40000
Y32500
X330000
Y40000
Y50000
Y60000
X330000Y80000
X320000
X310000
X300000
Y90000
X310000
X320000
X330000
X340000
Y100000
X350000
X360000
X370000
Y110000
X380000
X390000
X400000
X410000
Y120000
X400000
X390000
X380000
X370000
X360000
Y110000
X350000
Y120000
X340000
Y110000
X330000
Y120000
X320000
Y110000
X310000
Y120000
X300000
Y110000
Y100000
X310000
X320000
X330000
Y130000
X340000
X350000
X360000
X370000
X380000
X390000
X400000
X410000
Y140000
X400000
X390000
X380000
X370000
X360000
X350000
X340000
X330000
X320000
X310000
X300000
Y130000
X310000
X320000
Y150000
X330000
X340000
X350000
X360000
X370000
X380000
X390000
X400000
X390000Y160000
X380000
X370000
X360000
X350000
X340000
X330000
X320000
X310000
Y150000
X300000
Y160000
Y170000
X310000
X320000
X330000
X340000
X350000
X360000
X370000
X380000
Y180000
X370000
X360000
X350000
X340000
X330000
X320000
X310000
X300000
Y190000
X310000
X320000
X330000
X340000
X350000
X360000
X370000
X380000
Y200000
X390000
Y210000
X400000
Y220000
X410000
Y230000
X400000
X390000
X380000
X370000
X360000
X350000
X340000
X330000
X320000
X310000
X300000
Y220000
X310000
X320000
X330000
X340000
X350000
X360000
X370000
X380000
X390000
X380000Y210000
X370000
X360000
X350000
X340000
X330000
X320000
X310000
X300000
Y200000
X310000
X320000
X330000
X340000
X350000
X360000
X370000
Y240000
X380000
X390000
X400000
X410000
X400000Y250000
X390000
X380000
X370000
X360000
X350000
X340000
X330000
X320000
X310000
X300000
Y260000
X310000
X320000
X330000
X340000
X350000
X360000
X370000
X380000
X360000Y270000
X350000
X340000
X330000
X320000
X310000
X300000
Y240000
X310000
X320000
X330000
X340000
X350000
X360000
X420000Y227500
X427500Y220000
X435000Y212500
X445000Y207500
X457500
Y222500
X450000Y225000
X442500Y232500
X435000Y240000
X427500Y247500
X420000Y255000
X412500Y262500
X405000Y267500
X467500Y230000
Y200000
X462500Y187500
X450000
Y175000
Y162500
X449380Y152969
X452769Y135567
X462500Y137500
Y125000
X450000
X437500
X425000
Y112500
X437500
X450000
X462500
X475000
Y125000
X487500
X500000
Y137500
Y162500
Y175000
Y187500
X487500
X475000
Y175000
X462500
Y162500
X487500Y175000
X497500Y200000
Y230000
X500000Y112500
X487500
X497500Y100000
X467500
Y70000
X497500
X447500Y30000
X422500Y7500
X375000
X350000
X330000
X315585Y21993
X425000Y150000
X397500Y272500
X390000Y277500
X380000Y282500
X370000Y287500
X360000Y290000
X350000
X340000
X330000
X320000
X310000
X300000
X290000
X280000
X270000
X256000
X234000
X206000
X184000
X147500Y294000
X150000Y276000
X111500Y294000
X100000
X50000Y295000
X40000Y275000
X32500
T02
X480500Y29000
X415811Y180736
X480500Y271000
M30
